<?xml version="1.0" standalone="no"?>
<!DOCTYPE svg PUBLIC "-//W3C//DTD SVG 1.1//EN" "http://www.w3.org/Graphics/SVG/1.1/DTD/svg11.dtd" >
<svg>
<metadata>
Created by FontForge 20090622 at Wed Mar  9 19:29:07 2016
 By deploy user
Copyright 2015 &#194;&#169; The Monotype Corporation. All rights reserved.
</metadata>
<defs>
<font id="JoannaSansNova-Thin" horiz-adv-x="520" >
  <font-face 
    font-family="Joanna Sans Nova Thin"
    font-weight="250"
    font-stretch="normal"
    units-per-em="1000"
    panose-1="2 12 2 3 2 2 3 2 2 4"
    ascent="730"
    descent="-270"
    x-height="471"
    cap-height="692"
    bbox="-415 -272 1062 1037"
    underline-thickness="50"
    underline-position="-75"
    unicode-range="U+000D-U+FEFF"
  />
<missing-glyph horiz-adv-x="496" 
d="M456 0h-416v730h416v-730zM70 700v-670h356v670h-356z" />
    <glyph glyph-name="IJ" unicode="IJ" horiz-adv-x="452" 
d="M129 0h-32v692h32v-692zM183 -195l-10 27q80 11 115 62t35 165v633h32v-625q0 -122 -38 -186.5t-134 -75.5z" />
    <glyph glyph-name="ij" unicode="ij" horiz-adv-x="425" 
d="M121 0h-30v471h30v-471zM135 632q0 -11 -9 -19.5t-20 -8.5t-19.5 8.5t-8.5 19.5t8.5 20t19.5 9t20 -9t9 -20zM334 471v-530q0 -82 -25 -128.5t-85 -82.5l-15 23q44 29 58 47q37 44 37 127v544h30zM348 632q0 -11 -9 -19.5t-20 -8.5t-19.5 8.5t-8.5 19.5t8.5 20t19.5 9
t20 -9t9 -20z" />
    <glyph glyph-name="f_f" unicode="ff" horiz-adv-x="624" 
d="M664 712l-12 -26q-35 16 -73 16q-117 0 -117 -177v-54h159l-6 -28h-153v-443h-30v443h-282v-443h-30v443h-89v28h89v61q0 92 38 138t106 46q45 0 85 -18l-12 -26q-35 16 -73 16q-35 0 -59 -14t-35.5 -39.5t-15.5 -52t-4 -61.5v-50h282v65q0 96 39 145t108 49q45 0 85 -18
z" />
    <glyph glyph-name="f_f_i" unicode="ffi" horiz-adv-x="835" 
d="M717 684l-19 -22q-48 40 -109 40q-127 0 -127 -177v-54h159l-6 -28h-153v-443h-30v443h-282v-443h-30v443h-89v28h89v61q0 92 38 138t106 46q45 0 85 -18l-12 -26q-35 16 -73 16q-35 0 -59 -14t-35.5 -39.5t-15.5 -52t-4 -61.5v-50h282v65q0 97 42 145.5t118 48.5
q71 0 125 -46zM743 0h-30v471h30v-471z" />
    <glyph glyph-name="f_f_l" unicode="ffl" horiz-adv-x="837" 
d="M150 471h282v65q0 97 45 145.5t125 48.5q59 0 113 -28v20l30 8v-730h-30v671q-54 31 -116 31q-137 0 -137 -177v-54h159l-6 -28h-153v-443h-30v443h-282v-443h-30v443h-89v28h89v61q0 92 38 138t106 46q45 0 85 -18l-12 -26q-35 16 -73 16q-35 0 -59 -14t-35.5 -39.5
t-15.5 -52t-4 -61.5v-50z" />
    <glyph glyph-name="f_j" unicode="fj" horiz-adv-x="524" 
d="M433 471v-530q0 -82 -25 -128.5t-85 -82.5l-15 23q44 29 58 47q37 44 37 127v544h30zM405 684l-19 -22q-48 40 -109 40q-127 0 -127 -177v-54h159l-6 -28h-153v-443h-30v443h-89v28h89v65q0 97 42 145.5t118 48.5q71 0 125 -46z" />
    <glyph glyph-name="f_t" unicode="ft" horiz-adv-x="660" 
d="M619 53l17 -23q-52 -41 -110 -41q-118 0 -118 144v310h-258v-443h-30v443h-89v28h89v65q0 96 39 145t108 49q45 0 85 -18l-12 -26q-35 16 -73 16q-117 0 -117 -177v-54h258v127l30 8v-135h181l-6 -28h-175v-307q0 -64 22.5 -91t66.5 -27q46 0 92 35z" />
    <glyph glyph-name=".notdef" horiz-adv-x="496" 
d="M456 0h-416v730h416v-730zM70 700v-670h356v670h-356z" />
    <glyph glyph-name=".null" horiz-adv-x="0" 
 />
    <glyph glyph-name=".null" horiz-adv-x="0" 
 />
    <glyph glyph-name="nonmarkingreturn" horiz-adv-x="333" 
 />
    <glyph glyph-name="CR" unicode="&#xd;" horiz-adv-x="0" 
 />
    <glyph glyph-name="space" unicode=" " horiz-adv-x="312" 
 />
    <glyph glyph-name="exclam" unicode="!" horiz-adv-x="279" 
d="M122 692h35l-6 -506h-24zM110 25q0 13 8.5 21.5t21.5 8.5t21.5 -8.5t8.5 -21.5t-8.5 -21.5t-21.5 -8.5t-21.5 8.5t-8.5 21.5z" />
    <glyph glyph-name="quotedbl" unicode="&#x22;" horiz-adv-x="314" 
d="M59 730h41l-9 -220h-22zM214 730h41l-9 -220h-22z" />
    <glyph glyph-name="numbersign" unicode="#" horiz-adv-x="657" 
d="M448 480h-154l-53 -260h152zM560 193h-145l-43 -207h-27l42 207h-154l-42 -207h-27l43 207h-150v27h157l54 260h-171v27h176l41 199h27l-41 -199h153l41 199h27l-40 -199h119v-27h-124l-55 -260h139v-27z" />
    <glyph glyph-name="dollar" unicode="$" 
d="M84 69l12 29q73 -44 150 -45v288q-27 14 -36 19l-32.5 18.5t-32.5 21.5l-25 23t-23 28.5t-12.5 31.5t-5.5 38q0 63 47 102.5t120 44.5v62h30v-61q68 -3 135 -33l-12 -28q-61 30 -123 33v-280q82 -44 121 -81t39 -97q0 -62 -42.5 -105.5t-117.5 -51.5v-90h-30v89
q-84 0 -162 44zM112 522q0 -47 29.5 -76t104.5 -69v263q-63 -5 -98.5 -36.5t-35.5 -81.5zM403 179q0 45 -30 76.5t-97 69.5v-271q59 6 93 39t34 86z" />
    <glyph glyph-name="percent" unicode="%" horiz-adv-x="764" 
d="M290 515q0 76 -28 118t-78 42q-51 0 -77 -41.5t-26 -118.5q0 -163 103 -163q50 0 78 42t28 121zM323 515q0 -87 -37.5 -137.5t-101.5 -50.5q-63 0 -100 50.5t-37 137.5q0 86 37 136.5t100 50.5q64 0 101.5 -50.5t37.5 -136.5zM603 692l-415 -692h-34l415 692h34zM684 178
q0 76 -28 118t-78 42q-51 0 -77 -41.5t-26 -118.5q0 -163 103 -163q50 0 78 42t28 121zM717 178q0 -87 -37.5 -137.5t-101.5 -50.5q-63 0 -100 50.5t-37 137.5q0 86 37 136.5t100 50.5q64 0 101.5 -50.5t37.5 -136.5z" />
    <glyph glyph-name="ampersand" unicode="&#x26;" horiz-adv-x="758" 
d="M739 38l11 -27q-33 -18 -73 -18q-47 0 -90 22t-101 79q-100 -105 -224 -105q-94 0 -149.5 51.5t-55.5 126.5q0 65 45.5 111.5t128.5 95.5q-51 58 -71.5 98t-20.5 79q0 65 43 103t113 38q71 0 114.5 -37t43.5 -93q0 -31 -13.5 -58t-44.5 -52.5t-53.5 -40l-67.5 -41.5
l179 -198q3 -3 15 -16.5t18 -19.5q87 102 124 251l29 -6q-42 -157 -133 -265q98 -93 173 -93q32 0 60 15zM266 18q109 0 200 96q-1 1 -12 13l-17 19l-186 206l-3 2q-50 -30 -79.5 -52t-54 -57t-24.5 -74q0 -66 47.5 -109.5t128.5 -43.5zM172 552q0 -67 84 -163
q42 24 63.5 38.5t49 37t39.5 45t12 48.5q0 44 -32 74.5t-93 30.5q-58 0 -90.5 -32t-32.5 -79z" />
    <glyph glyph-name="quotesingle" unicode="'" horiz-adv-x="159" 
d="M59 730h41l-9 -220h-22z" />
    <glyph glyph-name="parenleft" unicode="(" horiz-adv-x="394" 
d="M359 -213l-14 -21q-127 89 -196 211.5t-69 266.5q0 154 63.5 273t201.5 214l14 -21q-131 -95 -187 -209.5t-56 -258.5q0 -273 243 -455z" />
    <glyph glyph-name="parenright" unicode=")" horiz-adv-x="394" 
d="M34 709l15 22q127 -89 196 -211.5t69 -266.5q0 -154 -63.5 -273t-201.5 -214l-15 21q131 95 187.5 210t56.5 258q0 272 -244 454z" />
    <glyph glyph-name="asterisk" unicode="*" horiz-adv-x="510" 
d="M89 643l154 -96l-4 183h30l-3 -185l155 99l15 -26l-164 -91l164 -90l-14 -25l-156 96l3 -184h-30l4 183l-156 -94l-14 25l164 89l-164 90z" />
    <glyph glyph-name="plus" unicode="+" 
d="M278 522v-190h188v-30h-188v-191h-33v191h-190v30h190v190h33z" />
    <glyph glyph-name="comma" unicode="," horiz-adv-x="289" 
d="M132 -109l-21 15q23 41 23 73q0 27 -18 47q0 14 8.5 21.5t19.5 7.5q31 0 31 -40q0 -68 -43 -124z" />
    <glyph glyph-name="hyphen" unicode="-" horiz-adv-x="318" 
d="M284 271v-30h-251v30h251z" />
    <glyph glyph-name="period" unicode="." horiz-adv-x="289" 
d="M116 25q0 13 8.5 21.5t21.5 8.5t21.5 -8.5t8.5 -21.5t-8.5 -21.5t-21.5 -8.5t-21.5 8.5t-8.5 21.5z" />
    <glyph glyph-name="slash" unicode="/" horiz-adv-x="406" 
d="M67 -150h-33l305 880h32z" />
    <glyph glyph-name="zero" unicode="0" 
d="M439 345q0 158 -44.5 243t-133.5 85q-178 0 -178 -328q0 -158 45.5 -242.5t133.5 -84.5q177 0 177 327zM473 346q0 -171 -54.5 -264t-157.5 -93q-59 0 -102.5 31.5t-66 86t-33 113.5t-10.5 126q0 65 9 122t31 112.5t66 88.5t107 33q49 0 87 -22.5t61 -57.5t37.5 -83.5
t20 -95t5.5 -97.5z" />
    <glyph glyph-name="one" unicode="1" horiz-adv-x="313" 
d="M216 0h-32v646l-149 -91l-15 26l191 117h5v-698z" />
    <glyph glyph-name="two" unicode="2" 
d="M72 619l-16 26q83 57 186 57q90 0 140.5 -50t50.5 -126q0 -40 -15.5 -85t-37 -82t-60 -86t-66.5 -80.5l-76 -84l-71 -78.5h363v-30h-425v8q185 196 241 267q113 144 113 245q0 78 -46.5 115.5t-119.5 37.5q-88 0 -161 -54z" />
    <glyph glyph-name="three" unicode="3" 
d="M50 47l17 27q84 -56 175 -56q78 0 133.5 45.5t55.5 126.5q0 179 -283 179v11l246 283h-313v29h370v-6l-253 -290q136 -6 201.5 -62t65.5 -141q0 -89 -61 -146.5t-162 -57.5q-107 0 -192 58z" />
    <glyph glyph-name="four" unicode="4" 
d="M342 260v359l-267 -359h267zM495 230h-121v-230h-32v230h-319v7l340 459h11v-436h121v-30z" />
    <glyph glyph-name="five" unicode="5" 
d="M44 42l15 27q79 -51 170 -51q81 0 134.5 44.5t53.5 131.5q0 91 -75.5 135.5t-239.5 46.5l10 316h325l-5 -29h-292l-8 -261q319 -10 319 -206q0 -95 -60 -151t-163 -56q-101 0 -184 53z" />
    <glyph glyph-name="six" unicode="6" 
d="M455 202q0 83 -48 128.5t-129 45.5q-86 0 -141.5 -52t-55.5 -114q0 -79 51 -135.5t144 -56.5q74 0 126.5 51.5t52.5 132.5zM489 202q0 -90 -62 -151.5t-153 -61.5q-106 0 -167 67.5t-61 196.5q0 99 40 190t127.5 164t208.5 99l7 -26q-111 -26 -191 -90t-118 -142.5
t-45 -169.5q26 59 82 93t125 34q94 0 150.5 -55.5t56.5 -147.5z" />
    <glyph glyph-name="seven" unicode="7" horiz-adv-x="510" 
d="M482 681l-298 -689l-30 10l291 661h-416v29h453v-11z" />
    <glyph glyph-name="eight" unicode="8" 
d="M455 549q0 -34 -13 -62t-40 -52t-51.5 -39.5t-63.5 -37.5q43 -24 68.5 -40.5t56 -42t44.5 -54.5t14 -63q0 -71 -55.5 -120t-151.5 -49q-91 0 -152 47.5t-61 121.5q0 36 14 66t42.5 54.5t54 41t67.5 38.5q-79 44 -121 86.5t-42 103.5q0 65 53 109.5t143 44.5
q89 0 141.5 -44t52.5 -109zM436 154q0 31 -13.5 57.5t-44.5 51.5t-53.5 39t-68.5 40q-42 -22 -65.5 -36.5t-52 -38t-41.5 -50t-13 -57.5q0 -66 53 -104t131 -38q75 0 121.5 40t46.5 96zM99 548q0 -54 41 -92.5t119 -81.5q39 20 62 34.5t49 36t38.5 46.5t12.5 54q0 60 -44 94
t-119 34q-67 0 -113 -35t-46 -90z" />
    <glyph glyph-name="nine" unicode="9" 
d="M72 490q0 -84 47 -130t128 -46q86 0 143 53t57 115q0 78 -52 134.5t-146 56.5q-76 0 -126.5 -51t-50.5 -132zM38 490q0 91 58.5 151.5t151.5 60.5q106 0 169.5 -68t63.5 -195q0 -102 -37 -193t-117 -162.5t-192 -97.5l-7 26q151 39 231.5 146t92.5 256q-26 -59 -83 -94
t-126 -35q-93 0 -149 56t-56 149z" />
    <glyph glyph-name="colon" unicode=":" horiz-adv-x="289" 
d="M116 25q0 13 8.5 21.5t21.5 8.5t21.5 -8.5t8.5 -21.5t-8.5 -21.5t-21.5 -8.5t-21.5 8.5t-8.5 21.5zM116 441q0 13 8.5 21.5t21.5 8.5t21.5 -8.5t8.5 -21.5t-8.5 -21.5t-21.5 -8.5t-21.5 8.5t-8.5 21.5z" />
    <glyph glyph-name="semicolon" unicode=";" horiz-adv-x="289" 
d="M116 441q0 13 8.5 21.5t21.5 8.5t21.5 -8.5t8.5 -21.5t-8.5 -21.5t-21.5 -8.5t-21.5 8.5t-8.5 21.5zM132 -109l-21 15q23 41 23 73q0 27 -18 47q0 14 8.5 21.5t19.5 7.5q31 0 31 -40q0 -68 -43 -124z" />
    <glyph glyph-name="less" unicode="&#x3c;" 
d="M458 116l-396 188v25l396 188v-33l-355 -167l355 -168v-33z" />
    <glyph glyph-name="equal" unicode="=" 
d="M466 190h-411v30h411v-30zM466 422h-411v30h411v-30z" />
    <glyph glyph-name="greater" unicode="&#x3e;" 
d="M458 304l-396 -188v33l355 168l-355 167v33l396 -188v-25z" />
    <glyph glyph-name="question" unicode="?" horiz-adv-x="397" 
d="M355 562q0 -41 -26.5 -80t-57.5 -67t-57.5 -72.5t-26.5 -95.5v-61h-28v63q0 45 16.5 84t40.5 65.5l48 51t40.5 52.5t16.5 57q0 49 -31.5 82t-98.5 33q-70 0 -134 -51l-18 24q69 55 157 55q77 0 118 -40.5t41 -99.5zM144 25q0 13 8.5 21.5t21.5 8.5t21.5 -8.5t8.5 -21.5
t-8.5 -21.5t-21.5 -8.5t-21.5 8.5t-8.5 21.5z" />
    <glyph glyph-name="at" unicode="@" horiz-adv-x="986" 
d="M791 -50l17 -24q-130 -96 -298 -96q-194 0 -314 112.5t-120 303.5q0 137 64 248t173.5 173t242.5 62q162 0 264 -94.5t102 -240.5q0 -137 -71.5 -237.5t-175.5 -100.5q-40 0 -63.5 19.5t-27.5 55.5q-77 -75 -159 -75q-62 0 -96 45.5t-34 117.5q0 53 17 106t48.5 97
t83 71.5t114.5 27.5q18 0 38.5 -3t44.5 -8t32 -6l-55 -308q-19 -112 62 -112q76 0 142 85t66 227q0 131 -90.5 218t-238.5 87q-98 0 -182.5 -36.5t-142.5 -99t-91 -145.5t-33 -174q0 -177 111 -282.5t291 -105.5q88 0 152.5 23t126.5 69zM428 84q82 0 153 78l57 321
q-6 1 -21 4t-29.5 4.5t-31.5 1.5q-103 0 -167 -84.5t-64 -187.5q0 -58 26 -97.5t77 -39.5z" />
    <glyph glyph-name="A" unicode="A" horiz-adv-x="591" 
d="M15 0l264 692h34l263 -692h-36l-86 230h-320l-86 -230h-33zM294 652l-148 -392h297l-147 392h-2z" />
    <glyph glyph-name="B" unicode="B" horiz-adv-x="556" 
d="M462 186q0 152 -223 152h-110v-309h108q225 0 225 157zM416 516q0 74 -50 110.5t-135 36.5h-102v-296h93q85 0 139.5 36t54.5 113zM496 187q0 -94 -66 -140.5t-181 -46.5h-152v692h134q98 0 158.5 -41.5t60.5 -129.5q0 -116 -120 -162v-2q74 -12 120 -53t46 -117z" />
    <glyph glyph-name="C" unicode="C" horiz-adv-x="674" 
d="M582 659l-13 -27q-75 41 -165 41q-140 0 -221 -94t-81 -231q0 -151 81.5 -240.5t218.5 -89.5q117 0 205 70l17 -25q-98 -74 -223 -74q-152 0 -242.5 99.5t-90.5 253.5q0 156 92 258t244 102q96 0 178 -43z" />
    <glyph glyph-name="D" unicode="D" horiz-adv-x="720" 
d="M611 342q0 156 -86 238t-238 82h-158v-632h142q177 0 258.5 83.5t81.5 228.5zM645 350q0 -166 -91.5 -258t-273.5 -92h-183v692h199q158 0 253.5 -89.5t95.5 -252.5z" />
    <glyph glyph-name="E" unicode="E" horiz-adv-x="515" 
d="M453 0h-356v692h352l-5 -30h-315v-295h272v-30h-272v-307h329z" />
    <glyph glyph-name="F" unicode="F" horiz-adv-x="485" 
d="M439 662h-310v-305h276v-30h-276v-327h-32v692h347z" />
    <glyph glyph-name="G" unicode="G" horiz-adv-x="732" 
d="M621 654l-13 -27q-92 46 -185 46q-141 0 -231 -94t-90 -235q0 -146 94 -236t225 -90q113 0 199 61v231h-197v30h229v-275q-100 -76 -231 -76q-157 0 -255 102.5t-98 250.5q0 154 100.5 257t255.5 103q105 0 197 -48z" />
    <glyph glyph-name="H" unicode="H" horiz-adv-x="694" 
d="M597 0h-32v337h-436v-337h-32v692h32v-325h436v325h32v-692z" />
    <glyph glyph-name="I" unicode="I" horiz-adv-x="226" 
d="M129 0h-32v692h32v-692z" />
    <glyph glyph-name="J" unicode="J" horiz-adv-x="226" 
d="M-43 -195l-10 27q80 11 115 62t35 165v633h32v-625q0 -122 -38 -186.5t-134 -75.5z" />
    <glyph glyph-name="K" unicode="K" horiz-adv-x="549" 
d="M527 0h-45l-353 356v-356h-32v692h32v-330l335 330h44l-340 -331z" />
    <glyph glyph-name="L" unicode="L" horiz-adv-x="496" 
d="M457 0h-360v692h32v-665h333z" />
    <glyph glyph-name="M" unicode="M" horiz-adv-x="866" 
d="M769 0h-32v643h-2l-290 -643h-25l-291 643h-2v-643h-30v692h43l294 -651l293 651h42v-692z" />
    <glyph glyph-name="N" unicode="N" horiz-adv-x="725" 
d="M628 692v-692h-29l-468 645h-2v-645h-32v692h37l460 -633h2v633h32z" />
    <glyph glyph-name="O" unicode="O" horiz-adv-x="774" 
d="M672 350q0 145 -77.5 234t-207.5 89q-122 0 -203.5 -87t-81.5 -239q0 -148 80 -238.5t205 -90.5q127 0 206 86t79 246zM706 348q0 -70 -19 -133t-56.5 -114t-100.5 -81.5t-143 -30.5q-81 0 -145 32.5t-100.5 85.5t-55 114.5t-18.5 126.5q0 68 20.5 130.5t59.5 113
t101 80.5t138 30q103 0 177.5 -52.5t108 -131t33.5 -170.5z" />
    <glyph glyph-name="P" unicode="P" horiz-adv-x="529" 
d="M457 484q0 92 -54 135t-163 43h-111v-322q75 -27 144 -27q82 0 133 47.5t51 123.5zM491 485q0 -85 -57.5 -143.5t-157.5 -58.5q-66 0 -147 26v-309h-32v692h153q241 0 241 -207z" />
    <glyph glyph-name="Q" unicode="Q" horiz-adv-x="774" 
d="M706 348q0 -67 -17.5 -128t-52.5 -111t-92.5 -82t-131.5 -37q56 -93 104.5 -131t121.5 -38q46 0 92 23l13 -26q-47 -26 -106 -26q-86 0 -140.5 43.5t-121.5 154.5q-79 2 -140 35t-96 85.5t-53 113t-18 124.5q0 68 20.5 130.5t59.5 113t101 80.5t138 30q103 0 177.5 -52.5
t108 -131t33.5 -170.5zM672 350q0 145 -77.5 234t-207.5 89q-122 0 -203.5 -87t-81.5 -239q0 -148 80 -238.5t205 -90.5q127 0 206 86t79 246z" />
    <glyph glyph-name="R" unicode="R" horiz-adv-x="586" 
d="M435 512q0 68 -48 109t-150 41h-108v-303h101q90 0 147.5 38t57.5 115zM564 0h-39l-82 166q-45 89 -97 126t-142 37h-75v-329h-32v692h155q96 0 156.5 -45t60.5 -134q0 -135 -162 -172v-2q100 -26 168 -163z" />
    <glyph glyph-name="S" unicode="S" horiz-adv-x="505" 
d="M64 38l14 29q84 -49 170 -49q78 0 124 39.5t46 103.5q0 54 -37.5 90.5t-126.5 83.5q-5 3 -27.5 15l-29 15.5l-26 14.5t-26 16.5t-22 17.5t-21.5 20l-16 21t-14 25t-7.5 27t-3.5 31q0 76 58.5 120t147.5 44q78 0 159 -37l-13 -28q-76 36 -146 36q-78 0 -125 -37t-47 -97
q0 -55 38.5 -89t139.5 -88l58 -32.5t47.5 -31.5t40.5 -37.5t23 -42.5t10 -54q0 -75 -55.5 -125t-151.5 -50q-93 0 -181 49z" />
    <glyph glyph-name="T" unicode="T" horiz-adv-x="539" 
d="M507 665h-222v-665h-32v665h-226v27h485z" />
    <glyph glyph-name="U" unicode="U" horiz-adv-x="697" 
d="M574 692h32v-437q0 -131 -66 -198.5t-195 -67.5q-119 0 -186.5 68t-67.5 192v443h32v-432q0 -242 223 -242q116 0 172 59.5t56 183.5v431z" />
    <glyph glyph-name="V" unicode="V" horiz-adv-x="616" 
d="M598 692l-269 -697h-26l-283 697h35l260 -647h2l248 647h33z" />
    <glyph glyph-name="W" unicode="W" horiz-adv-x="1028" 
d="M1010 692l-244 -697h-37l-214 660l-213 -660h-33l-249 697h37l227 -652h2l210 652h40l212 -652h2l226 652h34z" />
    <glyph glyph-name="X" unicode="X" horiz-adv-x="631" 
d="M58 692h39l223 -317l229 317h37l-247 -340l250 -352h-40l-230 329l-244 -329h-39l264 351z" />
    <glyph glyph-name="Y" unicode="Y" horiz-adv-x="588" 
d="M522 692h36l-246 -393v-299h-32v299l-244 393h36l224 -365z" />
    <glyph glyph-name="Z" unicode="Z" horiz-adv-x="636" 
d="M573 684l-467 -656h480l-5 -28h-525v7l467 657h-436v28h486v-8z" />
    <glyph glyph-name="bracketleft" unicode="[" horiz-adv-x="409" 
d="M372 -178h-252v908h252v-29h-219v-850h219v-29z" />
    <glyph glyph-name="backslash" unicode="\" horiz-adv-x="406" 
d="M373 -150h-34l-304 880h33z" />
    <glyph glyph-name="bracketright" unicode="]" horiz-adv-x="409" 
d="M289 -178h-252v29h219v850h-219v29h252v-908z" />
    <glyph glyph-name="asciicircum" unicode="^" 
d="M60 296l188 396h25l188 -396h-31l-168 357l-170 -357h-32z" />
    <glyph glyph-name="underscore" unicode="_" horiz-adv-x="500" 
d="M503 -92v-30h-506v30h506z" />
    <glyph glyph-name="grave" unicode="`" horiz-adv-x="384" 
d="M239 572h-20l-87 136l34 17z" />
    <glyph glyph-name="a" unicode="a" horiz-adv-x="491" 
d="M343 93v183l-105 -28q-83 -22 -118.5 -51t-35.5 -75q0 -49 28.5 -77t77.5 -28q35 0 77 19.5t76 56.5zM449 37l11 -24q-29 -24 -57 -24q-55 0 -60 70q-81 -70 -159 -70q-54 0 -92 34.5t-38 94.5q0 63 43 97t132 57l114 30v23q0 128 -113 128q-67 0 -142 -52l-15 24
q82 56 160 56q60 0 100 -37.5t40 -114.5v-223q0 -45 7.5 -67t27.5 -22q14 0 41 20z" />
    <glyph glyph-name="b" unicode="b" horiz-adv-x="557" 
d="M465 242q0 88 -47 149.5t-123 61.5q-53 0 -91.5 -22.5t-82.5 -66.5v-324q66 -23 138 -23q102 0 154 64t52 161zM495 242q0 -119 -64.5 -186t-181.5 -67q-75 0 -158 30v703l30 8v-332q84 83 176 83q88 0 143 -70t55 -169z" />
    <glyph glyph-name="c" unicode="c" horiz-adv-x="491" 
d="M438 79l20 -22q-72 -68 -168 -68q-108 0 -168 69t-60 188q0 106 60.5 170.5t157.5 64.5q90 0 149 -50l-17 -22q-52 44 -131 44q-85 0 -137 -56.5t-52 -152.5q0 -105 52.5 -166t146.5 -61q80 0 147 62z" />
    <glyph glyph-name="d" unicode="d" horiz-adv-x="563" 
d="M442 96v301q-74 56 -157 56q-82 0 -137.5 -61.5t-55.5 -158.5q0 -90 49.5 -153t133.5 -63q97 0 167 79zM446 0l-4 59q-74 -70 -171 -70q-89 0 -149 66.5t-60 178.5q0 105 63 176t159 71q86 0 158 -52v293l30 8v-730h-26z" />
    <glyph glyph-name="e" unicode="e" horiz-adv-x="519" 
d="M453 242h-361v-4q0 -99 48.5 -160t150.5 -61q83 0 158 58l17 -25q-85 -61 -178 -61q-104 0 -165 65t-61 180q0 109 54.5 178t153.5 69q87 0 135 -61t48 -178zM267 453q-79 0 -122 -52t-52 -133h328q-13 185 -154 185z" />
    <glyph glyph-name="f" unicode="f" horiz-adv-x="312" 
d="M352 712l-12 -26q-35 16 -73 16q-117 0 -117 -177v-54h159l-6 -28h-153v-443h-30v443h-89v28h89v65q0 96 39 145t108 49q45 0 85 -18z" />
    <glyph glyph-name="g" unicode="g" horiz-adv-x="527" 
d="M34 -139q0 79 140 132q-57 23 -57 63q0 46 90 73v2q-77 17 -113.5 65t-36.5 108q0 71 48 124t147 53q36 0 71 -10h170l-6 -28h-108q70 -52 70 -137q0 -38 -11.5 -67t-27.5 -47t-43 -32.5t-49 -21.5t-54 -15q-117 -28 -117 -65q0 -7 3 -13t9.5 -11.5t13.5 -10t19 -9
t21 -7.5t24.5 -7l25 -6.5t26.5 -6.5l26 -6q83 -20 126 -43.5t43 -65.5q0 -65 -63.5 -103.5t-163.5 -38.5q-101 0 -162 35.5t-61 95.5zM419 302q0 68 -45.5 110.5t-123.5 42.5q-70 0 -116.5 -40t-46.5 -109q0 -71 46.5 -112t107.5 -41q77 0 127.5 39t50.5 110zM454 -131
q0 19 -15 34.5t-44.5 26.5t-57 18.5t-67.5 17t-62 15.5q-63 -17 -103.5 -50.5t-40.5 -67.5q0 -47 54 -76t145 -29q85 0 138 32t53 79z" />
    <glyph glyph-name="h" unicode="h" horiz-adv-x="532" 
d="M121 0h-30v722l30 8v-346q62 52 107 74.5t89 22.5q55 0 92.5 -40.5t37.5 -108.5v-332h-31v329q0 57 -28 90.5t-77 33.5q-79 0 -190 -102v-351z" />
    <glyph glyph-name="i" unicode="i" horiz-adv-x="213" 
d="M121 0h-30v471h30v-471zM135 632q0 -11 -9 -19.5t-20 -8.5t-19.5 8.5t-8.5 19.5t8.5 20t19.5 9t20 -9t9 -20z" />
    <glyph glyph-name="j" unicode="j" horiz-adv-x="212" 
d="M121 471v-530q0 -82 -25 -128.5t-85 -82.5l-15 23q44 29 58 47q37 44 37 127v544h30zM135 632q0 -11 -9 -19.5t-20 -8.5t-19.5 8.5t-8.5 19.5t8.5 20t19.5 9t20 -9t9 -20z" />
    <glyph glyph-name="k" unicode="k" horiz-adv-x="450" 
d="M430 0h-42l-267 246v-246h-30v722l30 8v-477l258 218h43l-266 -221z" />
    <glyph glyph-name="l" unicode="l" horiz-adv-x="213" 
d="M121 0h-30v722l30 8v-730z" />
    <glyph glyph-name="m" unicode="m" horiz-adv-x="836" 
d="M437 328v-328h-30v318q0 64 -26 99.5t-77 35.5q-78 0 -183 -102v-351h-30v471h30v-87q38 32 59 48t57 32.5t70 16.5q93 0 122 -94q45 35 67 50.5t56.5 29.5t69.5 14q59 0 94 -40t35 -109v-332h-30v318q0 65 -26 100t-76 35q-45 0 -81.5 -20.5t-102.5 -74.5q2 -20 2 -30z
" />
    <glyph glyph-name="n" unicode="n" horiz-adv-x="532" 
d="M447 0h-30v329q0 57 -28.5 90.5t-77.5 33.5q-77 0 -190 -102v-351h-30v471h30v-87q62 52 107 74.5t89 22.5q55 0 92.5 -40.5t37.5 -108.5v-332z" />
    <glyph glyph-name="o" unicode="o" horiz-adv-x="575" 
d="M483 233q0 109 -57.5 164.5t-138.5 55.5t-138 -55.5t-57 -162.5t57 -162.5t138 -55.5q80 0 138 56t58 160zM513 235q0 -109 -62.5 -177.5t-163.5 -68.5t-163 68.5t-62 177.5q0 108 62 177t163 69t163.5 -69t62.5 -177z" />
    <glyph glyph-name="p" unicode="p" horiz-adv-x="563" 
d="M121 364v-265q36 -42 70.5 -62t83.5 -20q87 0 141.5 62.5t54.5 165.5q0 94 -45.5 151t-125.5 57q-102 0 -179 -89zM121 471v-73q83 83 179 83q88 0 144.5 -62t56.5 -170q0 -111 -60 -185.5t-162 -74.5q-96 0 -158 73v-324l-30 -8v741h30z" />
    <glyph glyph-name="q" unicode="q" horiz-adv-x="557" 
d="M92 228q0 -89 47.5 -150t130.5 -61q82 0 166 69v347q-75 20 -132 20q-102 0 -157 -64t-55 -161zM62 228q0 117 67 185t184 68q58 0 153 -26v-717l-30 -8v322q-86 -63 -168 -63q-95 0 -150.5 69.5t-55.5 169.5z" />
    <glyph glyph-name="r" unicode="r" horiz-adv-x="359" 
d="M344 450l-14 -26q-10 4 -27.5 13.5t-31.5 14.5t-29 5q-50 0 -121 -91v-366h-30v471h30v-67h1q36 42 63 61.5t59 19.5q21 0 36 -4.5t35.5 -16t28.5 -14.5z" />
    <glyph glyph-name="s" unicode="s" horiz-adv-x="427" 
d="M52 35l14 27q75 -45 143 -45q62 0 95.5 27t33.5 70q0 34 -27.5 59.5t-66.5 42.5l-78 35.5t-66.5 49t-27.5 71.5q0 45 36.5 77t109.5 32q71 0 132 -36l-14 -24q-58 32 -119 32q-49 0 -82 -21t-33 -61q0 -34 27.5 -59.5t66.5 -43l78 -36t66.5 -48t27.5 -68.5
q0 -54 -41 -90.5t-120 -36.5t-155 46z" />
    <glyph glyph-name="t" unicode="t" horiz-adv-x="348" 
d="M307 53l17 -23q-52 -41 -110 -41q-118 0 -118 144v310h-65v28h65v127l30 8v-135h181l-6 -28h-175v-307q0 -64 22.5 -91t66.5 -27q46 0 92 35z" />
    <glyph glyph-name="u" unicode="u" horiz-adv-x="532" 
d="M85 471h30v-330q0 -56 29 -90t78 -34q78 0 189 102v352h30v-471h-30v87q-61 -52 -106 -75t-89 -23q-56 0 -93.5 40.5t-37.5 109.5v332z" />
    <glyph glyph-name="v" unicode="v" horiz-adv-x="420" 
d="M409 471l-197 -478h-4l-197 478h31l163 -399l5 -16l5 15l162 400h32z" />
    <glyph glyph-name="w" unicode="w" horiz-adv-x="772" 
d="M731 471h31l-202 -478h-10l-163 404l-163 -404h-11l-203 478h33l176 -418l163 418h9l165 -418z" />
    <glyph glyph-name="x" unicode="x" horiz-adv-x="453" 
d="M31 471h39l158 -216l161 216h39l-181 -237l184 -234h-42l-164 216l-165 -216h-38l183 237z" />
    <glyph glyph-name="y" unicode="y" horiz-adv-x="472" 
d="M191 -41l27 61l-198 451h35l178 -418l189 418h33l-336 -741h-36q53 92 108 229z" />
    <glyph glyph-name="z" unicode="z" horiz-adv-x="505" 
d="M453 0h-401v12l338 432h-323v27h371v-9l-338 -435h353v-27z" />
    <glyph glyph-name="braceleft" unicode="{" horiz-adv-x="383" 
d="M345 -229v-29q-189 26 -189 218v120q0 122 -118 142v28q57 9 87.5 47.5t30.5 97.5v117q0 194 189 217v-28q-156 -21 -156 -186v-115q0 -55 -26.5 -99.5t-83.5 -64.5q110 -32 110 -167v-113q0 -160 156 -185z" />
    <glyph glyph-name="bar" unicode="|" horiz-adv-x="364" 
d="M197 -270h-30v1050h30v-1050z" />
    <glyph glyph-name="braceright" unicode="}" horiz-adv-x="383" 
d="M38 -258v29q156 25 156 185v113q0 135 110 167q-57 20 -83.5 64.5t-26.5 99.5v115q0 165 -156 186v28q189 -23 189 -217v-117q0 -59 30.5 -97.5t87.5 -47.5v-28q-118 -20 -118 -142v-120q0 -192 -189 -218z" />
    <glyph glyph-name="asciitilde" unicode="~" 
d="M478 396q-2 -57 -31 -89t-83 -32q-35 0 -72 22.5l-71.5 45.5t-63.5 23q-38 0 -61.5 -23.5t-25.5 -66.5h-28q0 53 29.5 87t85.5 34q38 0 104.5 -45.5t103.5 -45.5q38 0 61 23t24 67h28z" />
    <glyph glyph-name="uni00A0" unicode="&#xa0;" horiz-adv-x="312" 
 />
    <glyph glyph-name="exclamdown" unicode="&#xa1;" horiz-adv-x="279" 
d="M157 -226h-35l5 506h24zM110 441q0 13 8.5 21.5t21.5 8.5t21.5 -8.5t8.5 -21.5t-8.5 -21.5t-21.5 -8.5t-21.5 8.5t-8.5 21.5z" />
    <glyph glyph-name="cent" unicode="&#xa2;" 
d="M301 -6h-30v106q-97 11 -148 78t-51 177q0 98 54.5 161t144.5 72v104h30v-102q89 0 148 -50l-17 -22q-52 44 -131 44v-436h10q80 0 147 62l20 -22q-72 -68 -168 -68h-9v-104zM102 353q0 -94 44 -153t125 -71v431q-78 -10 -123.5 -65t-45.5 -142z" />
    <glyph glyph-name="sterling" unicode="&#xa3;" 
d="M61 334v30h75q-17 93 -17 157q0 78 48 129.5t143 51.5q86 0 160 -55l-18 -24q-66 50 -139 50q-160 0 -160 -159q0 -54 18 -150h209l-7 -30h-197q11 -66 11 -121q0 -105 -78 -183h371v-30h-415v23q39 38 63.5 87t24.5 95q0 60 -12 129h-80z" />
    <glyph glyph-name="currency" unicode="&#xa4;" 
d="M96 345q0 59 36 103l-62 62l18 18l61 -62q46 43 111 43q64 0 111 -44l63 63l18 -18l-64 -64q36 -46 36 -101q0 -65 -44 -112l71 -70l-18 -18l-72 71q-45 -35 -101 -35t-101 34l-71 -71l-18 18l70 70q-44 49 -44 113zM124 345q0 -58 39 -97t97 -39q57 0 96.5 39.5
t39.5 96.5q0 56 -40 96t-96 40q-57 0 -96.5 -39.5t-39.5 -96.5z" />
    <glyph glyph-name="yen" unicode="&#xa5;" 
d="M59 297v29h168l-208 366h36l204 -365l206 365h36l-211 -366h168v-29h-183v-99h183v-29h-183v-169h-32v169h-184v29h184v99h-184z" />
    <glyph glyph-name="brokenbar" unicode="&#xa6;" horiz-adv-x="364" 
d="M197 355h-30v425h30v-425zM197 -270h-30v425h30v-425z" />
    <glyph glyph-name="section" unicode="&#xa7;" horiz-adv-x="541" 
d="M79 296q0 51 42 89t121 45q-64 31 -99.5 67.5t-35.5 92.5q0 57 46.5 98t135.5 41q96 0 171 -45l-15 -24q-72 40 -157 40q-64 0 -107 -27.5t-43 -83.5q0 -44 35 -77.5t84.5 -56l99 -45.5t84.5 -59.5t35 -84.5q0 -53 -34 -94.5t-96 -57.5q58 -28 90 -61.5t32 -80.5
q0 -69 -55 -116t-156 -47q-104 0 -192 56l16 28q87 -54 178 -54q83 0 130.5 37t47.5 92q0 43 -37 75.5t-89.5 54.5l-105 45.5t-89.5 62t-37 90.5zM110 295q0 -28 13 -50.5t43.5 -42.5t52.5 -31t67 -30q15 -7 23 -10q64 8 100 45t36 86q0 28 -12 50t-38.5 40.5t-47 29
t-60.5 28.5h-17q-66 0 -113 -31.5t-47 -83.5z" />
    <glyph glyph-name="dieresis" unicode="&#xa8;" horiz-adv-x="384" 
d="M77 632q0 12 8.5 20.5t20.5 8.5t20.5 -8.5t8.5 -20.5t-8.5 -20.5t-20.5 -8.5t-20.5 8.5t-8.5 20.5zM251 632q0 12 8.5 20.5t20.5 8.5t20.5 -8.5t8.5 -20.5t-8.5 -20.5t-20.5 -8.5t-20.5 8.5t-8.5 20.5z" />
    <glyph glyph-name="copyright" unicode="&#xa9;" horiz-adv-x="883" 
d="M786 353q0 144 -101 244.5t-243 100.5q-143 0 -244 -100.5t-101 -244.5q0 -142 101 -243t244 -101q142 0 243 101t101 243zM816 353q0 -155 -110 -264.5t-265 -109.5t-264.5 109.5t-109.5 264.5q0 156 109.5 265.5t264.5 109.5t265 -109.5t110 -265.5zM571 561l-11 -25
q-44 25 -104 25q-86 0 -135 -57.5t-49 -142.5q0 -92 50 -147.5t133 -55.5q75 0 129 43l14 -23q-63 -48 -144 -48q-98 0 -156 64t-58 163q0 100 59 166t157 66q62 0 115 -28z" />
    <glyph glyph-name="ordfeminine" unicode="&#xaa;" horiz-adv-x="321" 
d="M226 444v120l-75 -18q-100 -24 -100 -83q0 -31 18 -49t49 -18q57 0 108 48zM309 410l9 -21q-15 -17 -39 -17q-43 0 -51 46q-63 -46 -114 -46q-38 0 -64 24t-26 64q0 44 31 68.5t89 38.5l82 20v12q0 44 -21 65t-57 21q-47 0 -103 -38l-12 21q61 42 117 42q44 0 73.5 -27.5
t29.5 -80.5v-148q0 -29 6 -43t22 -14q13 0 28 13z" />
    <glyph glyph-name="guillemotleft" unicode="&#xab;" horiz-adv-x="569" 
d="M74 232v9l169 211l22 -20l-155 -195l157 -187l-22 -20zM302 232v9l169 211l22 -20l-155 -195l157 -187l-22 -20z" />
    <glyph glyph-name="logicalnot" unicode="&#xac;" 
d="M45 390h410v-249h-33v219h-377v30z" />
    <glyph glyph-name="uni00AD" unicode="&#xad;" horiz-adv-x="318" 
d="M284 271v-30h-251v30h251z" />
    <glyph glyph-name="registered" unicode="&#xae;" horiz-adv-x="573" 
d="M88 503q0 -82 58 -140t140 -58t140.5 58t58.5 140q0 83 -58 141t-141 58t-140.5 -58t-57.5 -141zM62 503q0 94 65.5 159.5t158.5 65.5t159 -65.5t66 -159.5q0 -92 -66 -158t-159 -66t-158.5 66t-65.5 158zM236 521h24q76 0 76 54q0 51 -71 51h-29v-105zM211 373v275h65
q38 0 62.5 -18t24.5 -54q0 -23 -15.5 -42.5t-46.5 -25.5v-1q37 -10 64 -64l35 -70h-28l-32 66q-17 33 -35 46.5t-48 13.5h-21v-126h-25z" />
    <glyph glyph-name="macron" unicode="&#xaf;" horiz-adv-x="384" 
d="M71 623v32h242v-32h-242z" />
    <glyph glyph-name="degree" unicode="&#xb0;" horiz-adv-x="405" 
d="M71 571q0 54 38.5 92.5t92.5 38.5t92.5 -38.5t38.5 -92.5t-38.5 -92.5t-92.5 -38.5t-92.5 38.5t-38.5 92.5zM101 571q0 -42 29.5 -71.5t71.5 -29.5q41 0 71 29.5t30 71.5q0 41 -30 71t-71 30q-42 0 -71.5 -30t-29.5 -71z" />
    <glyph glyph-name="plusminus" unicode="&#xb1;" 
d="M278 607v-190h188v-30h-188v-191h-33v191h-190v30h190v190h33zM54 99h411v-30h-411v30z" />
    <glyph glyph-name="twosuperior" unicode="&#xb2;" horiz-adv-x="310" 
d="M54 707l-12 21q46 33 102 33q50 0 78 -27.5t28 -69.5q0 -27 -9.5 -52.5t-40 -63.5t-47 -56l-70.5 -76h185v-26h-231v11l34.5 37l33 35l28.5 31t26 30.5l20.5 26.5t18.5 27t12 24.5t8.5 25t2.5 23.5q0 38 -22.5 56.5t-58.5 18.5q-45 0 -86 -29z" />
    <glyph glyph-name="threesuperior" unicode="&#xb3;" horiz-adv-x="310" 
d="M40 419l14 22q48 -32 92 -32q39 0 66.5 22t27.5 62q0 87 -148 87v11l125 140h-160v25h211v-2l-136 -152q69 -5 102 -34t33 -72q0 -48 -33 -79.5t-88 -31.5q-57 0 -106 34z" />
    <glyph glyph-name="acute" unicode="&#xb4;" horiz-adv-x="384" 
d="M166 571h-20l72 153l34 -17z" />
    <glyph glyph-name="mu" unicode="&#xb5;" horiz-adv-x="575" 
d="M91 -219v690h30v-320q0 -65 41.5 -99.5t93.5 -34.5q90 0 170 77v377h30v-366q0 -88 39 -88q13 0 38 20l11 -24q-24 -24 -54 -24q-52 0 -61 74q-85 -74 -176 -74q-85 0 -132 72v-272z" />
    <glyph glyph-name="paragraph" unicode="&#xb6;" horiz-adv-x="599" 
d="M469 -158v858h-103v-894l-32 -13v583q-65 -20 -110 -20q-74 0 -121 54.5t-47 131.5q0 97 55 142.5t144 45.5h246v-875z" />
    <glyph glyph-name="periodcentered" unicode="&#xb7;" horiz-adv-x="299" 
d="M121 342q0 13 8.5 21.5t21.5 8.5t21.5 -8.5t8.5 -21.5t-8.5 -21.5t-21.5 -8.5t-21.5 8.5t-8.5 21.5z" />
    <glyph glyph-name="cedilla" unicode="&#xb8;" horiz-adv-x="384" 
d="M269 -133q0 -40 -26.5 -61t-66.5 -21q-28 0 -56 11l8 27q24 -10 48 -10q28 0 45 14t17 37q0 28 -23 43.5t-58 17.5l26 83h32l-20 -66q74 -16 74 -75z" />
    <glyph glyph-name="onesuperior" unicode="&#xb9;" horiz-adv-x="240" 
d="M150 390h-27v332l-75 -46l-12 23l101 62h13v-371z" />
    <glyph glyph-name="ordmasculine" unicode="&#xba;" horiz-adv-x="373" 
d="M320 541q0 71 -39 107.5t-95 36.5t-95.5 -36t-39.5 -107t39.5 -107t95.5 -36t95 36t39 106zM347 542q0 -74 -44.5 -121t-116.5 -47t-116.5 46.5t-44.5 121.5q0 74 44.5 121t116.5 47t116.5 -47t44.5 -121z" />
    <glyph glyph-name="guillemotright" unicode="&#xbb;" horiz-adv-x="569" 
d="M495 241v-9l-171 -202l-22 20l157 187l-155 195l22 20zM267 241v-9l-171 -202l-22 20l157 187l-155 195l22 20z" />
    <glyph glyph-name="onequarter" unicode="&#xbc;" horiz-adv-x="680" 
d="M571 692l-415 -692h-33l415 692h33zM154 320h-27v332l-75 -46l-12 23l101 62h13v-371zM555 140v171l-127 -171h127zM645 115h-63v-115h-27v115h-166v11l179 242h14v-228h63v-25z" />
    <glyph glyph-name="onehalf" unicode="&#xbd;" horiz-adv-x="748" 
d="M561 692l-415 -692h-33l415 692h33zM154 320h-27v332l-75 -46l-12 23l101 62h13v-371zM484 317l-12 21q46 33 102 33q50 0 78 -27.5t28 -69.5q0 -27 -9.5 -52.5t-40 -63.5t-47 -56l-70.5 -76h185v-26h-231v11l34.5 37l33 35l28.5 31t26 30.5l20.5 26.5t18.5 27t12 24.5
t8.5 25t2.5 23.5q0 38 -22.5 56.5t-58.5 18.5q-45 0 -86 -29z" />
    <glyph glyph-name="threequarters" unicode="&#xbe;" horiz-adv-x="771" 
d="M632 692l-415 -692h-33l415 692h33zM50 349l14 22q48 -32 92 -32q39 0 66.5 22t27.5 62q0 87 -148 87v11l125 140h-160v25h211v-2l-136 -152q69 -5 102 -34t33 -72q0 -48 -33 -79.5t-88 -31.5q-57 0 -106 34zM646 140v171l-127 -171h127zM736 115h-63v-115h-27v115h-166
v11l179 242h14v-228h63v-25z" />
    <glyph glyph-name="questiondown" unicode="&#xbf;" horiz-adv-x="397" 
d="M42 -96q0 34 17.5 65t42 56.5l49 52t42 63t17.5 78.5v61h28v-63q0 -45 -16.5 -84t-40.5 -65.5l-48 -51t-40.5 -52.5t-16.5 -57q0 -49 31.5 -82t98.5 -33q70 0 134 51l18 -24q-69 -55 -157 -55q-77 0 -118 40.5t-41 99.5zM253 441q0 -13 -8.5 -21.5t-21.5 -8.5t-21.5 8.5
t-8.5 21.5t8.5 21.5t21.5 8.5t21.5 -8.5t8.5 -21.5z" />
    <glyph glyph-name="Agrave" unicode="&#xc0;" horiz-adv-x="591" 
d="M15 0l264 692h34l263 -692h-36l-86 230h-320l-86 -230h-33zM294 652l-148 -392h297l-147 392h-2zM339 741h-23l-134 103l27 30z" />
    <glyph glyph-name="Aacute" unicode="&#xc1;" horiz-adv-x="591" 
d="M15 0l264 692h34l263 -692h-36l-86 230h-320l-86 -230h-33zM294 652l-148 -392h297l-147 392h-2zM278 741h-23l130 133l27 -30z" />
    <glyph glyph-name="Acircumflex" unicode="&#xc2;" horiz-adv-x="591" 
d="M15 0l264 692h34l263 -692h-36l-86 230h-320l-86 -230h-33zM294 652l-148 -392h297l-147 392h-2zM442 766l-19 -13l-132 107l-134 -107l-17 13l133 119h35z" />
    <glyph glyph-name="Atilde" unicode="&#xc3;" horiz-adv-x="591" 
d="M15 0l264 692h34l263 -692h-36l-86 230h-320l-86 -230h-33zM294 652l-148 -392h297l-147 392h-2zM452 863q-3 -41 -23 -70t-64 -29q-34 0 -78 35.5t-67 35.5q-25 0 -39 -21t-19 -49h-27q13 98 89 98q33 0 76.5 -35.5t66.5 -35.5q26 0 41.5 20t17.5 51h26z" />
    <glyph glyph-name="Adieresis" unicode="&#xc4;" horiz-adv-x="591" 
d="M15 0l264 692h34l263 -692h-36l-86 230h-320l-86 -230h-33zM294 652l-148 -392h297l-147 392h-2zM178 805q0 12 8.5 20.5t20.5 8.5t20.5 -8.5t8.5 -20.5t-8.5 -20.5t-20.5 -8.5t-20.5 8.5t-8.5 20.5zM352 805q0 12 8.5 20.5t20.5 8.5t20.5 -8.5t8.5 -20.5t-8.5 -20.5
t-20.5 -8.5t-20.5 8.5t-8.5 20.5z" />
    <glyph glyph-name="Aring" unicode="&#xc5;" horiz-adv-x="591" 
d="M189 775q0 45 31.5 76.5t76.5 31.5t76.5 -31.5t31.5 -76.5q0 -39 -24 -68.5t-60 -37.5l255 -669h-36l-86 230h-320l-86 -230h-33l255 670q-35 8 -58 37.5t-23 67.5zM294 652l-148 -392h297l-147 392h-2zM214 775q0 -35 24 -59t59 -24h3q34 2 57 25.5t23 57.5q0 35 -24 59
t-59 24t-59 -24t-24 -59z" />
    <glyph glyph-name="AE" unicode="&#xc6;" horiz-adv-x="846" 
d="M784 0h-356v230h-260l-125 -230h-33l378 692h392l-5 -30h-315v-295h272v-30h-272v-307h329zM403 662l-219 -402h244v402h-25z" />
    <glyph glyph-name="Ccedilla" unicode="&#xc7;" horiz-adv-x="674" 
d="M419 -133q0 -40 -26.5 -61t-66.5 -21q-28 0 -56 11l8 27q24 -10 48 -10q28 0 45 14t17 37q0 28 -23 43.5t-58 17.5l22 71q-121 23 -191 117.5t-70 228.5q0 156 92 258t244 102q96 0 178 -43l-13 -27q-75 41 -165 41q-140 0 -221 -94t-81 -231q0 -151 81.5 -240.5
t218.5 -89.5q117 0 205 70l17 -25q-98 -74 -223 -74q-15 0 -41 2l-15 -49q74 -16 74 -75z" />
    <glyph glyph-name="Egrave" unicode="&#xc8;" horiz-adv-x="515" 
d="M453 0h-356v692h352l-5 -30h-315v-295h272v-30h-272v-307h329zM321 741h-23l-134 103l27 30z" />
    <glyph glyph-name="Eacute" unicode="&#xc9;" horiz-adv-x="515" 
d="M453 0h-356v692h352l-5 -30h-315v-295h272v-30h-272v-307h329zM243 741h-23l130 133l27 -30z" />
    <glyph glyph-name="Ecircumflex" unicode="&#xca;" horiz-adv-x="515" 
d="M453 0h-356v692h352l-5 -30h-315v-295h272v-30h-272v-307h329zM425 766l-19 -13l-132 107l-134 -107l-17 13l133 119h35z" />
    <glyph glyph-name="Edieresis" unicode="&#xcb;" horiz-adv-x="515" 
d="M453 0h-356v692h352l-5 -30h-315v-295h272v-30h-272v-307h329zM160 805q0 12 8.5 20.5t20.5 8.5t20.5 -8.5t8.5 -20.5t-8.5 -20.5t-20.5 -8.5t-20.5 8.5t-8.5 20.5zM334 805q0 12 8.5 20.5t20.5 8.5t20.5 -8.5t8.5 -20.5t-8.5 -20.5t-20.5 -8.5t-20.5 8.5t-8.5 20.5z" />
    <glyph glyph-name="Igrave" unicode="&#xcc;" horiz-adv-x="226" 
d="M129 0h-32v692h32v-692zM158 741h-23l-134 103l27 30z" />
    <glyph glyph-name="Iacute" unicode="&#xcd;" horiz-adv-x="226" 
d="M129 0h-32v692h32v-692zM97 741h-23l130 133l27 -30z" />
    <glyph glyph-name="Icircumflex" unicode="&#xce;" horiz-adv-x="226" 
d="M129 0h-32v692h32v-692zM264 766l-19 -13l-132 107l-134 -107l-17 13l133 119h35z" />
    <glyph glyph-name="Idieresis" unicode="&#xcf;" horiz-adv-x="226" 
d="M129 0h-32v692h32v-692zM-3 805q0 12 8.5 20.5t20.5 8.5t20.5 -8.5t8.5 -20.5t-8.5 -20.5t-20.5 -8.5t-20.5 8.5t-8.5 20.5zM171 805q0 12 8.5 20.5t20.5 8.5t20.5 -8.5t8.5 -20.5t-8.5 -20.5t-20.5 -8.5t-20.5 8.5t-8.5 20.5z" />
    <glyph glyph-name="Eth" unicode="&#xd0;" horiz-adv-x="720" 
d="M645 350q0 -166 -91.5 -258t-273.5 -92h-183v335h-65v30h65v327h199q158 0 253.5 -89.5t95.5 -252.5zM611 342q0 156 -86 238t-238 82h-158v-297h181v-30h-181v-305h142q177 0 258.5 83.5t81.5 228.5z" />
    <glyph glyph-name="Ntilde" unicode="&#xd1;" horiz-adv-x="725" 
d="M628 692v-692h-29l-468 645h-2v-645h-32v692h37l460 -633h2v633h32zM533 863q-3 -41 -23 -70t-64 -29q-34 0 -78 35.5t-67 35.5q-25 0 -39 -21t-19 -49h-27q13 98 89 98q33 0 76.5 -35.5t66.5 -35.5q26 0 41.5 20t17.5 51h26z" />
    <glyph glyph-name="Ograve" unicode="&#xd2;" horiz-adv-x="774" 
d="M672 350q0 145 -77.5 234t-207.5 89q-122 0 -203.5 -87t-81.5 -239q0 -148 80 -238.5t205 -90.5q127 0 206 86t79 246zM706 348q0 -70 -19 -133t-56.5 -114t-100.5 -81.5t-143 -30.5q-81 0 -145 32.5t-100.5 85.5t-55 114.5t-18.5 126.5q0 68 20.5 130.5t59.5 113
t101 80.5t138 30q103 0 177.5 -52.5t108 -131t33.5 -170.5zM423 741h-23l-134 103l27 30z" />
    <glyph glyph-name="Oacute" unicode="&#xd3;" horiz-adv-x="774" 
d="M672 350q0 145 -77.5 234t-207.5 89q-122 0 -203.5 -87t-81.5 -239q0 -148 80 -238.5t205 -90.5q127 0 206 86t79 246zM706 348q0 -70 -19 -133t-56.5 -114t-100.5 -81.5t-143 -30.5q-81 0 -145 32.5t-100.5 85.5t-55 114.5t-18.5 126.5q0 68 20.5 130.5t59.5 113
t101 80.5t138 30q103 0 177.5 -52.5t108 -131t33.5 -170.5zM366 741h-23l130 133l27 -30z" />
    <glyph glyph-name="Ocircumflex" unicode="&#xd4;" horiz-adv-x="774" 
d="M672 350q0 145 -77.5 234t-207.5 89q-122 0 -203.5 -87t-81.5 -239q0 -148 80 -238.5t205 -90.5q127 0 206 86t79 246zM706 348q0 -70 -19 -133t-56.5 -114t-100.5 -81.5t-143 -30.5q-81 0 -145 32.5t-100.5 85.5t-55 114.5t-18.5 126.5q0 68 20.5 130.5t59.5 113
t101 80.5t138 30q103 0 177.5 -52.5t108 -131t33.5 -170.5zM538 766l-19 -13l-132 107l-134 -107l-17 13l133 119h35z" />
    <glyph glyph-name="Otilde" unicode="&#xd5;" horiz-adv-x="774" 
d="M672 350q0 145 -77.5 234t-207.5 89q-122 0 -203.5 -87t-81.5 -239q0 -148 80 -238.5t205 -90.5q127 0 206 86t79 246zM706 348q0 -70 -19 -133t-56.5 -114t-100.5 -81.5t-143 -30.5q-81 0 -145 32.5t-100.5 85.5t-55 114.5t-18.5 126.5q0 68 20.5 130.5t59.5 113
t101 80.5t138 30q103 0 177.5 -52.5t108 -131t33.5 -170.5zM546 863q-3 -41 -23 -70t-64 -29q-34 0 -78 35.5t-67 35.5q-25 0 -39 -21t-19 -49h-27q13 98 89 98q33 0 76.5 -35.5t66.5 -35.5q26 0 41.5 20t17.5 51h26z" />
    <glyph glyph-name="Odieresis" unicode="&#xd6;" horiz-adv-x="774" 
d="M672 350q0 145 -77.5 234t-207.5 89q-122 0 -203.5 -87t-81.5 -239q0 -148 80 -238.5t205 -90.5q127 0 206 86t79 246zM706 348q0 -70 -19 -133t-56.5 -114t-100.5 -81.5t-143 -30.5q-81 0 -145 32.5t-100.5 85.5t-55 114.5t-18.5 126.5q0 68 20.5 130.5t59.5 113
t101 80.5t138 30q103 0 177.5 -52.5t108 -131t33.5 -170.5zM271 805q0 12 8.5 20.5t20.5 8.5t20.5 -8.5t8.5 -20.5t-8.5 -20.5t-20.5 -8.5t-20.5 8.5t-8.5 20.5zM445 805q0 12 8.5 20.5t20.5 8.5t20.5 -8.5t8.5 -20.5t-8.5 -20.5t-20.5 -8.5t-20.5 8.5t-8.5 20.5z" />
    <glyph glyph-name="multiply" unicode="&#xd7;" 
d="M433 490l-152 -152l153 -153l-21 -22l-153 153l-152 -152l-21 21l152 152l-152 152l21 21l152 -151l152 152z" />
    <glyph glyph-name="Oslash" unicode="&#xd8;" horiz-adv-x="774" 
d="M706 348q0 -70 -19 -133t-56.5 -114t-100.5 -81.5t-143 -30.5q-128 0 -212 79l-73 -90l-21 19l75 92q-88 102 -88 259q0 68 20.5 130.5t59.5 113t101 80.5t138 30q125 0 207 -76l69 85l21 -19l-70 -86q92 -99 92 -258zM672 350q0 143 -77 233l-399 -490q77 -75 191 -75
q127 0 206 86t79 246zM102 347q0 -143 74 -233l399 489q-75 70 -188 70q-122 0 -203.5 -87t-81.5 -239z" />
    <glyph glyph-name="Ugrave" unicode="&#xd9;" horiz-adv-x="697" 
d="M574 692h32v-437q0 -131 -66 -198.5t-195 -67.5q-119 0 -186.5 68t-67.5 192v443h32v-432q0 -242 223 -242q116 0 172 59.5t56 183.5v431zM383 741h-23l-134 103l27 30z" />
    <glyph glyph-name="Uacute" unicode="&#xda;" horiz-adv-x="697" 
d="M574 692h32v-437q0 -131 -66 -198.5t-195 -67.5q-119 0 -186.5 68t-67.5 192v443h32v-432q0 -242 223 -242q116 0 172 59.5t56 183.5v431zM336 741h-23l130 133l27 -30z" />
    <glyph glyph-name="Ucircumflex" unicode="&#xdb;" horiz-adv-x="697" 
d="M574 692h32v-437q0 -131 -66 -198.5t-195 -67.5q-119 0 -186.5 68t-67.5 192v443h32v-432q0 -242 223 -242q116 0 172 59.5t56 183.5v431zM506 766l-19 -13l-132 107l-134 -107l-17 13l133 119h35z" />
    <glyph glyph-name="Udieresis" unicode="&#xdc;" horiz-adv-x="697" 
d="M574 692h32v-437q0 -131 -66 -198.5t-195 -67.5q-119 0 -186.5 68t-67.5 192v443h32v-432q0 -242 223 -242q116 0 172 59.5t56 183.5v431zM232 805q0 12 8.5 20.5t20.5 8.5t20.5 -8.5t8.5 -20.5t-8.5 -20.5t-20.5 -8.5t-20.5 8.5t-8.5 20.5zM406 805q0 12 8.5 20.5
t20.5 8.5t20.5 -8.5t8.5 -20.5t-8.5 -20.5t-20.5 -8.5t-20.5 8.5t-8.5 20.5z" />
    <glyph glyph-name="Yacute" unicode="&#xdd;" horiz-adv-x="588" 
d="M522 692h36l-246 -393v-299h-32v299l-244 393h36l224 -365zM269 741h-23l130 133l27 -30z" />
    <glyph glyph-name="Thorn" unicode="&#xde;" horiz-adv-x="529" 
d="M491 345q0 -85 -57.5 -143.5t-157.5 -58.5q-70 0 -147 25v-168h-32v692h32v-140h121q241 0 241 -207zM457 344q0 92 -54 135t-163 43h-111v-322q72 -26 144 -26q82 0 133 47t51 123z" />
    <glyph glyph-name="germandbls" unicode="&#xdf;" horiz-adv-x="587" 
d="M441 590q0 47 -39 79.5t-121 32.5q-51 0 -84.5 -17t-49 -47.5t-21 -59.5t-5.5 -66v-512h-30v520q0 104 48.5 157t141.5 53q94 0 142 -41t48 -97q0 -34 -19.5 -61.5t-47 -45l-55 -34t-47 -36t-19.5 -42.5q0 -30 27.5 -53.5t66.5 -41l78.5 -37t67 -49.5t27.5 -69
q0 -57 -43 -95.5t-123 -38.5q-84 0 -160 46l14 27q72 -45 148 -45q64 0 99 27.5t35 78.5q0 33 -27.5 58.5t-67 43.5l-78.5 36.5t-66.5 46.5t-27.5 65q0 29 19.5 52t47 39l55 32.5t47 40.5t19.5 53z" />
    <glyph glyph-name="agrave" unicode="&#xe0;" horiz-adv-x="491" 
d="M343 93v183l-105 -28q-83 -22 -118.5 -51t-35.5 -75q0 -49 28.5 -77t77.5 -28q35 0 77 19.5t76 56.5zM449 37l11 -24q-29 -24 -57 -24q-55 0 -60 70q-81 -70 -159 -70q-54 0 -92 34.5t-38 94.5q0 63 43 97t132 57l114 30v23q0 128 -113 128q-67 0 -142 -52l-15 24
q82 56 160 56q60 0 100 -37.5t40 -114.5v-223q0 -45 7.5 -67t27.5 -22q14 0 41 20zM263 572h-20l-87 136l34 17z" />
    <glyph glyph-name="aacute" unicode="&#xe1;" horiz-adv-x="491" 
d="M343 93v183l-105 -28q-83 -22 -118.5 -51t-35.5 -75q0 -49 28.5 -77t77.5 -28q35 0 77 19.5t76 56.5zM449 37l11 -24q-29 -24 -57 -24q-55 0 -60 70q-81 -70 -159 -70q-54 0 -92 34.5t-38 94.5q0 63 43 97t132 57l114 30v23q0 128 -113 128q-67 0 -142 -52l-15 24
q82 56 160 56q60 0 100 -37.5t40 -114.5v-223q0 -45 7.5 -67t27.5 -22q14 0 41 20zM227 571h-20l72 153l34 -17z" />
    <glyph glyph-name="acircumflex" unicode="&#xe2;" horiz-adv-x="491" 
d="M343 93v183l-105 -28q-83 -22 -118.5 -51t-35.5 -75q0 -49 28.5 -77t77.5 -28q35 0 77 19.5t76 56.5zM449 37l11 -24q-29 -24 -57 -24q-55 0 -60 70q-81 -70 -159 -70q-54 0 -92 34.5t-38 94.5q0 63 43 97t132 57l114 30v23q0 128 -113 128q-67 0 -142 -52l-15 24
q82 56 160 56q60 0 100 -37.5t40 -114.5v-223q0 -45 7.5 -67t27.5 -22q14 0 41 20zM370 586l-19 -13l-122 117l-124 -117l-17 13l123 129h35z" />
    <glyph glyph-name="atilde" unicode="&#xe3;" horiz-adv-x="491" 
d="M343 93v183l-105 -28q-83 -22 -118.5 -51t-35.5 -75q0 -49 28.5 -77t77.5 -28q35 0 77 19.5t76 56.5zM449 37l11 -24q-29 -24 -57 -24q-55 0 -60 70q-81 -70 -159 -70q-54 0 -92 34.5t-38 94.5q0 63 43 97t132 57l114 30v23q0 128 -113 128q-67 0 -142 -52l-15 24
q82 56 160 56q60 0 100 -37.5t40 -114.5v-223q0 -45 7.5 -67t27.5 -22q14 0 41 20zM392 688q-3 -41 -23 -70t-64 -29q-34 0 -78 35.5t-67 35.5q-25 0 -39 -21t-19 -49h-27q13 98 89 98q33 0 76.5 -35.5t66.5 -35.5q26 0 41.5 20t17.5 51h26z" />
    <glyph glyph-name="adieresis" unicode="&#xe4;" horiz-adv-x="491" 
d="M343 93v183l-105 -28q-83 -22 -118.5 -51t-35.5 -75q0 -49 28.5 -77t77.5 -28q35 0 77 19.5t76 56.5zM449 37l11 -24q-29 -24 -57 -24q-55 0 -60 70q-81 -70 -159 -70q-54 0 -92 34.5t-38 94.5q0 63 43 97t132 57l114 30v23q0 128 -113 128q-67 0 -142 -52l-15 24
q82 56 160 56q60 0 100 -37.5t40 -114.5v-223q0 -45 7.5 -67t27.5 -22q14 0 41 20zM117 632q0 12 8.5 20.5t20.5 8.5t20.5 -8.5t8.5 -20.5t-8.5 -20.5t-20.5 -8.5t-20.5 8.5t-8.5 20.5zM291 632q0 12 8.5 20.5t20.5 8.5t20.5 -8.5t8.5 -20.5t-8.5 -20.5t-20.5 -8.5
t-20.5 8.5t-8.5 20.5z" />
    <glyph glyph-name="aring" unicode="&#xe5;" horiz-adv-x="491" 
d="M343 93v183l-105 -28q-83 -22 -118.5 -51t-35.5 -75q0 -49 28.5 -77t77.5 -28q35 0 77 19.5t76 56.5zM449 37l11 -24q-29 -24 -57 -24q-55 0 -60 70q-81 -70 -159 -70q-54 0 -92 34.5t-38 94.5q0 63 43 97t132 57l114 30v23q0 128 -113 128q-67 0 -142 -52l-15 24
q82 56 160 56q60 0 100 -37.5t40 -114.5v-223q0 -45 7.5 -67t27.5 -22q14 0 41 20zM157 655q0 -29 20 -49t49 -20t49 20t20 49t-20 49t-49 20t-49 -20t-20 -49zM132 655q0 39 27.5 66.5t66.5 27.5t66.5 -27.5t27.5 -66.5t-27.5 -66.5t-66.5 -27.5t-66.5 27.5t-27.5 66.5z
" />
    <glyph glyph-name="ae" unicode="&#xe6;" horiz-adv-x="795" 
d="M373 238q0 -96 51.5 -158.5t148.5 -62.5q75 0 152 61l17 -25q-27 -20 -46.5 -32t-53.5 -22t-72 -10q-68 0 -120 30t-80 86q-82 -116 -190 -116q-52 0 -89 35t-37 94q0 66 46.5 103t128.5 42l114 6v47q0 137 -111 137q-69 0 -144 -52l-15 24q82 56 162 56q54 0 91.5 -31.5
t43.5 -98.5q24 60 71.5 95t109.5 35q83 0 130.5 -56.5t47.5 -161.5l-356 -19v-6zM343 228v15l-105 -6q-79 -4 -116.5 -35t-37.5 -80t28.5 -77t77.5 -28q91 0 169 115q-16 45 -16 96zM552 453q-70 0 -119 -51t-58 -131l323 17q-6 80 -43.5 122.5t-102.5 42.5z" />
    <glyph glyph-name="ccedilla" unicode="&#xe7;" horiz-adv-x="491" 
d="M346 -133q0 -40 -26.5 -61t-66.5 -21q-28 0 -56 11l8 27q24 -10 48 -10q28 0 45 14t17 37q0 28 -23 43.5t-58 17.5l20 66q-92 11 -142 78.5t-50 176.5q0 106 60.5 170.5t157.5 64.5q90 0 149 -50l-17 -22q-52 44 -131 44q-85 0 -137 -56.5t-52 -152.5q0 -105 52.5 -166
t146.5 -61q80 0 147 62l20 -22q-72 -68 -168 -68h-4l-14 -47q74 -16 74 -75z" />
    <glyph glyph-name="egrave" unicode="&#xe8;" horiz-adv-x="519" 
d="M453 242h-361v-4q0 -99 48.5 -160t150.5 -61q83 0 158 58l17 -25q-85 -61 -178 -61q-104 0 -165 65t-61 180q0 109 54.5 178t153.5 69q87 0 135 -61t48 -178zM267 453q-79 0 -122 -52t-52 -133h328q-13 185 -154 185zM297 572h-20l-87 136l34 17z" />
    <glyph glyph-name="eacute" unicode="&#xe9;" horiz-adv-x="519" 
d="M453 242h-361v-4q0 -99 48.5 -160t150.5 -61q83 0 158 58l17 -25q-85 -61 -178 -61q-104 0 -165 65t-61 180q0 109 54.5 178t153.5 69q87 0 135 -61t48 -178zM267 453q-79 0 -122 -52t-52 -133h328q-13 185 -154 185zM267 571h-20l72 153l34 -17z" />
    <glyph glyph-name="ecircumflex" unicode="&#xea;" horiz-adv-x="519" 
d="M453 242h-361v-4q0 -99 48.5 -160t150.5 -61q83 0 158 58l17 -25q-85 -61 -178 -61q-104 0 -165 65t-61 180q0 109 54.5 178t153.5 69q87 0 135 -61t48 -178zM267 453q-79 0 -122 -52t-52 -133h328q-13 185 -154 185zM415 586l-19 -13l-122 117l-124 -117l-17 13l123 129
h35z" />
    <glyph glyph-name="edieresis" unicode="&#xeb;" horiz-adv-x="519" 
d="M453 242h-361v-4q0 -99 48.5 -160t150.5 -61q83 0 158 58l17 -25q-85 -61 -178 -61q-104 0 -165 65t-61 180q0 109 54.5 178t153.5 69q87 0 135 -61t48 -178zM267 453q-79 0 -122 -52t-52 -133h328q-13 185 -154 185zM157 632q0 12 8.5 20.5t20.5 8.5t20.5 -8.5
t8.5 -20.5t-8.5 -20.5t-20.5 -8.5t-20.5 8.5t-8.5 20.5zM331 632q0 12 8.5 20.5t20.5 8.5t20.5 -8.5t8.5 -20.5t-8.5 -20.5t-20.5 -8.5t-20.5 8.5t-8.5 20.5z" />
    <glyph glyph-name="igrave" unicode="&#xec;" horiz-adv-x="213" 
d="M121 0h-30v471h30v-471zM132 572h-20l-87 136l34 17z" />
    <glyph glyph-name="iacute" unicode="&#xed;" horiz-adv-x="213" 
d="M121 0h-30v471h30v-471zM113 571h-20l72 153l34 -17z" />
    <glyph glyph-name="icircumflex" unicode="&#xee;" horiz-adv-x="213" 
d="M121 0h-30v471h30v-471zM247 586l-19 -13l-122 117l-124 -117l-17 13l123 129h35z" />
    <glyph glyph-name="idieresis" unicode="&#xef;" horiz-adv-x="213" 
d="M121 0h-30v471h30v-471zM-10 632q0 12 8.5 20.5t20.5 8.5t20.5 -8.5t8.5 -20.5t-8.5 -20.5t-20.5 -8.5t-20.5 8.5t-8.5 20.5zM164 632q0 12 8.5 20.5t20.5 8.5t20.5 -8.5t8.5 -20.5t-8.5 -20.5t-20.5 -8.5t-20.5 8.5t-8.5 20.5z" />
    <glyph glyph-name="eth" unicode="&#xf0;" horiz-adv-x="577" 
d="M213 558l101 85q-31 35 -84 86l21 17q50 -48 84 -85l87 74l15 -17l-87 -74q81 -98 122 -196t41 -218q0 -108 -63 -174.5t-165 -66.5q-100 0 -161.5 66t-61.5 170q0 103 62.5 169.5t162.5 66.5q63 0 112 -30t76 -78q-22 79 -55.5 139.5t-90.5 133.5l-101 -85zM483 223
q0 103 -58.5 156.5t-135.5 53.5q-82 0 -139.5 -52.5t-57.5 -155.5q0 -100 57 -154t136 -54q81 0 139.5 52.5t58.5 153.5z" />
    <glyph glyph-name="ntilde" unicode="&#xf1;" horiz-adv-x="532" 
d="M447 0h-30v329q0 57 -28.5 90.5t-77.5 33.5q-77 0 -190 -102v-351h-30v471h30v-87q62 52 107 74.5t89 22.5q55 0 92.5 -40.5t37.5 -108.5v-332zM438 688q-3 -41 -23 -70t-64 -29q-34 0 -78 35.5t-67 35.5q-25 0 -39 -21t-19 -49h-27q13 98 89 98q33 0 76.5 -35.5
t66.5 -35.5q26 0 41.5 20t17.5 51h26z" />
    <glyph glyph-name="ograve" unicode="&#xf2;" horiz-adv-x="575" 
d="M483 233q0 109 -57.5 164.5t-138.5 55.5t-138 -55.5t-57 -162.5t57 -162.5t138 -55.5q80 0 138 56t58 160zM513 235q0 -109 -62.5 -177.5t-163.5 -68.5t-163 68.5t-62 177.5q0 108 62 177t163 69t163.5 -69t62.5 -177zM312 572h-20l-87 136l34 17z" />
    <glyph glyph-name="oacute" unicode="&#xf3;" horiz-adv-x="575" 
d="M483 233q0 109 -57.5 164.5t-138.5 55.5t-138 -55.5t-57 -162.5t57 -162.5t138 -55.5q80 0 138 56t58 160zM513 235q0 -109 -62.5 -177.5t-163.5 -68.5t-163 68.5t-62 177.5q0 108 62 177t163 69t163.5 -69t62.5 -177zM289 571h-20l72 153l34 -17z" />
    <glyph glyph-name="ocircumflex" unicode="&#xf4;" horiz-adv-x="575" 
d="M483 233q0 109 -57.5 164.5t-138.5 55.5t-138 -55.5t-57 -162.5t57 -162.5t138 -55.5q80 0 138 56t58 160zM513 235q0 -109 -62.5 -177.5t-163.5 -68.5t-163 68.5t-62 177.5q0 108 62 177t163 69t163.5 -69t62.5 -177zM428 586l-19 -13l-122 117l-124 -117l-17 13
l123 129h35z" />
    <glyph glyph-name="otilde" unicode="&#xf5;" horiz-adv-x="575" 
d="M483 233q0 109 -57.5 164.5t-138.5 55.5t-138 -55.5t-57 -162.5t57 -162.5t138 -55.5q80 0 138 56t58 160zM513 235q0 -109 -62.5 -177.5t-163.5 -68.5t-163 68.5t-62 177.5q0 108 62 177t163 69t163.5 -69t62.5 -177zM446 688q-3 -41 -23 -70t-64 -29q-34 0 -78 35.5
t-67 35.5q-25 0 -39 -21t-19 -49h-27q13 98 89 98q33 0 76.5 -35.5t66.5 -35.5q26 0 41.5 20t17.5 51h26z" />
    <glyph glyph-name="odieresis" unicode="&#xf6;" horiz-adv-x="575" 
d="M483 233q0 109 -57.5 164.5t-138.5 55.5t-138 -55.5t-57 -162.5t57 -162.5t138 -55.5q80 0 138 56t58 160zM513 235q0 -109 -62.5 -177.5t-163.5 -68.5t-163 68.5t-62 177.5q0 108 62 177t163 69t163.5 -69t62.5 -177zM171 632q0 12 8.5 20.5t20.5 8.5t20.5 -8.5
t8.5 -20.5t-8.5 -20.5t-20.5 -8.5t-20.5 8.5t-8.5 20.5zM345 632q0 12 8.5 20.5t20.5 8.5t20.5 -8.5t8.5 -20.5t-8.5 -20.5t-20.5 -8.5t-20.5 8.5t-8.5 20.5z" />
    <glyph glyph-name="divide" unicode="&#xf7;" 
d="M55 332h411v-30h-411v30zM231 118q0 13 8.5 21.5t21.5 8.5t21.5 -8.5t8.5 -21.5t-8.5 -21.5t-21.5 -8.5t-21.5 8.5t-8.5 21.5zM231 534q0 13 8.5 21.5t21.5 8.5t21.5 -8.5t8.5 -21.5t-8.5 -21.5t-21.5 -8.5t-21.5 8.5t-8.5 21.5z" />
    <glyph glyph-name="oslash" unicode="&#xf8;" horiz-adv-x="575" 
d="M513 235q0 -109 -62.5 -177.5t-163.5 -68.5q-87 0 -147 52l-50 -61l-19 17l51 62q-60 69 -60 176q0 108 62 177t163 69q83 0 143 -50l51 61l19 -17l-51 -62q64 -69 64 -178zM483 233q0 99 -52 158l-272 -328q50 -46 128 -46q80 0 138 56t58 160zM92 235q0 -98 48 -154
l272 328q-51 44 -125 44q-81 0 -138 -55.5t-57 -162.5z" />
    <glyph glyph-name="ugrave" unicode="&#xf9;" horiz-adv-x="532" 
d="M85 471h30v-330q0 -56 29 -90t78 -34q78 0 189 102v352h30v-471h-30v87q-61 -52 -106 -75t-89 -23q-56 0 -93.5 40.5t-37.5 109.5v332zM296 572h-20l-87 136l34 17z" />
    <glyph glyph-name="uacute" unicode="&#xfa;" horiz-adv-x="532" 
d="M85 471h30v-330q0 -56 29 -90t78 -34q78 0 189 102v352h30v-471h-30v87q-61 -52 -106 -75t-89 -23q-56 0 -93.5 40.5t-37.5 109.5v332zM262 571h-20l72 153l34 -17z" />
    <glyph glyph-name="ucircumflex" unicode="&#xfb;" horiz-adv-x="532" 
d="M85 471h30v-330q0 -56 29 -90t78 -34q78 0 189 102v352h30v-471h-30v87q-61 -52 -106 -75t-89 -23q-56 0 -93.5 40.5t-37.5 109.5v332zM409 586l-19 -13l-122 117l-124 -117l-17 13l123 129h35z" />
    <glyph glyph-name="udieresis" unicode="&#xfc;" horiz-adv-x="532" 
d="M85 471h30v-330q0 -56 29 -90t78 -34q78 0 189 102v352h30v-471h-30v87q-61 -52 -106 -75t-89 -23q-56 0 -93.5 40.5t-37.5 109.5v332zM150 632q0 12 8.5 20.5t20.5 8.5t20.5 -8.5t8.5 -20.5t-8.5 -20.5t-20.5 -8.5t-20.5 8.5t-8.5 20.5zM324 632q0 12 8.5 20.5t20.5 8.5
t20.5 -8.5t8.5 -20.5t-8.5 -20.5t-20.5 -8.5t-20.5 8.5t-8.5 20.5z" />
    <glyph glyph-name="yacute" unicode="&#xfd;" horiz-adv-x="472" 
d="M191 -41l27 61l-198 451h35l178 -418l189 418h33l-336 -741h-36q53 92 108 229zM238 571h-20l72 153l34 -17z" />
    <glyph glyph-name="thorn" unicode="&#xfe;" horiz-adv-x="563" 
d="M121 364v-265q36 -42 70.5 -62t83.5 -20q87 0 141.5 62.5t54.5 165.5q0 94 -45.5 151t-125.5 57q-102 0 -179 -89zM121 730v-332q83 83 179 83q88 0 144.5 -62t56.5 -170q0 -111 -60 -185.5t-162 -74.5q-96 0 -158 73v-324l-30 -8v992z" />
    <glyph glyph-name="ydieresis" unicode="&#xff;" horiz-adv-x="472" 
d="M191 -41l27 61l-198 451h35l178 -418l189 418h33l-336 -741h-36q53 92 108 229zM121 632q0 12 8.5 20.5t20.5 8.5t20.5 -8.5t8.5 -20.5t-8.5 -20.5t-20.5 -8.5t-20.5 8.5t-8.5 20.5zM295 632q0 12 8.5 20.5t20.5 8.5t20.5 -8.5t8.5 -20.5t-8.5 -20.5t-20.5 -8.5
t-20.5 8.5t-8.5 20.5z" />
    <glyph glyph-name="Amacron" unicode="&#x100;" horiz-adv-x="591" 
d="M15 0l264 692h34l263 -692h-36l-86 230h-320l-86 -230h-33zM294 652l-148 -392h297l-147 392h-2zM153 774v32h282v-32h-282z" />
    <glyph glyph-name="amacron" unicode="&#x101;" horiz-adv-x="491" 
d="M343 93v183l-105 -28q-83 -22 -118.5 -51t-35.5 -75q0 -49 28.5 -77t77.5 -28q35 0 77 19.5t76 56.5zM449 37l11 -24q-29 -24 -57 -24q-55 0 -60 70q-81 -70 -159 -70q-54 0 -92 34.5t-38 94.5q0 63 43 97t132 57l114 30v23q0 128 -113 128q-67 0 -142 -52l-15 24
q82 56 160 56q60 0 100 -37.5t40 -114.5v-223q0 -45 7.5 -67t27.5 -22q14 0 41 20zM107 623v32h242v-32h-242z" />
    <glyph glyph-name="Abreve" unicode="&#x102;" horiz-adv-x="591" 
d="M15 0l264 692h34l263 -692h-36l-86 230h-320l-86 -230h-33zM294 652l-148 -392h297l-147 392h-2zM436 875q-2 -47 -35.5 -86t-103.5 -39q-66 0 -101.5 36.5t-37.5 88.5h24q12 -96 115 -96q50 0 80 26.5t35 69.5h24z" />
    <glyph glyph-name="abreve" unicode="&#x103;" horiz-adv-x="491" 
d="M343 93v183l-105 -28q-83 -22 -118.5 -51t-35.5 -75q0 -49 28.5 -77t77.5 -28q35 0 77 19.5t76 56.5zM449 37l11 -24q-29 -24 -57 -24q-55 0 -60 70q-81 -70 -159 -70q-54 0 -92 34.5t-38 94.5q0 63 43 97t132 57l114 30v23q0 128 -113 128q-67 0 -142 -52l-15 24
q82 56 160 56q60 0 100 -37.5t40 -114.5v-223q0 -45 7.5 -67t27.5 -22q14 0 41 20zM369 701q0 -50 -35 -89.5t-104 -39.5q-65 0 -102 36t-37 93h24q12 -101 115 -101q50 0 80 27t35 74h24z" />
    <glyph glyph-name="Aogonek" unicode="&#x104;" horiz-adv-x="591" 
d="M619 -167l11 -23q-39 -25 -80 -25q-47 0 -72.5 26t-25.5 71q0 77 85 126l-83 222h-320l-86 -230h-33l264 692h34l263 -692h-19q-76 -48 -76 -114q0 -74 72 -74q33 0 66 21zM294 652l-148 -392h297l-147 392h-2z" />
    <glyph glyph-name="aogonek" unicode="&#x105;" horiz-adv-x="491" 
d="M465 -167l11 -23q-39 -25 -80 -25q-47 0 -72.5 26t-25.5 71q0 70 71 118q-23 17 -26 59q-81 -70 -159 -70q-54 0 -92 34.5t-38 94.5q0 63 43 97t132 57l114 30v23q0 128 -113 128q-67 0 -142 -52l-15 24q82 56 160 56q60 0 100 -37.5t40 -114.5v-223q0 -45 7.5 -67
t27.5 -22q14 0 41 20l11 -24q-29 -24 -57 -24q-10 0 -14 1q-62 -46 -62 -104q0 -74 72 -74q33 0 66 21zM343 93v183l-105 -28q-83 -22 -118.5 -51t-35.5 -75q0 -49 28.5 -77t77.5 -28q35 0 77 19.5t76 56.5z" />
    <glyph glyph-name="Cacute" unicode="&#x106;" horiz-adv-x="674" 
d="M582 659l-13 -27q-75 41 -165 41q-140 0 -221 -94t-81 -231q0 -151 81.5 -240.5t218.5 -89.5q117 0 205 70l17 -25q-98 -74 -223 -74q-152 0 -242.5 99.5t-90.5 253.5q0 156 92 258t244 102q96 0 178 -43zM368 741h-23l130 133l27 -30z" />
    <glyph glyph-name="cacute" unicode="&#x107;" horiz-adv-x="491" 
d="M438 79l20 -22q-72 -68 -168 -68q-108 0 -168 69t-60 188q0 106 60.5 170.5t157.5 64.5q90 0 149 -50l-17 -22q-52 44 -131 44q-85 0 -137 -56.5t-52 -152.5q0 -105 52.5 -166t146.5 -61q80 0 147 62zM269 571h-20l72 153l34 -17z" />
    <glyph glyph-name="Ccircumflex" unicode="&#x108;" horiz-adv-x="674" 
d="M582 659l-13 -27q-75 41 -165 41q-140 0 -221 -94t-81 -231q0 -151 81.5 -240.5t218.5 -89.5q117 0 205 70l17 -25q-98 -74 -223 -74q-152 0 -242.5 99.5t-90.5 253.5q0 156 92 258t244 102q96 0 178 -43zM527 766l-19 -13l-132 107l-134 -107l-17 13l133 119h35z" />
    <glyph glyph-name="ccircumflex" unicode="&#x109;" horiz-adv-x="491" 
d="M438 79l20 -22q-72 -68 -168 -68q-108 0 -168 69t-60 188q0 106 60.5 170.5t157.5 64.5q90 0 149 -50l-17 -22q-52 44 -131 44q-85 0 -137 -56.5t-52 -152.5q0 -105 52.5 -166t146.5 -61q80 0 147 62zM423 586l-19 -13l-122 117l-124 -117l-17 13l123 129h35z" />
    <glyph glyph-name="Cdotaccent" unicode="&#x10a;" horiz-adv-x="674" 
d="M582 659l-13 -27q-75 41 -165 41q-140 0 -221 -94t-81 -231q0 -151 81.5 -240.5t218.5 -89.5q117 0 205 70l17 -25q-98 -74 -223 -74q-152 0 -242.5 99.5t-90.5 253.5q0 156 92 258t244 102q96 0 178 -43zM365 802q0 14 10.5 24.5t24.5 10.5t24.5 -10.5t10.5 -24.5
t-10.5 -24.5t-24.5 -10.5t-24.5 10.5t-10.5 24.5z" />
    <glyph glyph-name="cdotaccent" unicode="&#x10b;" horiz-adv-x="491" 
d="M438 79l20 -22q-72 -68 -168 -68q-108 0 -168 69t-60 188q0 106 60.5 170.5t157.5 64.5q90 0 149 -50l-17 -22q-52 44 -131 44q-85 0 -137 -56.5t-52 -152.5q0 -105 52.5 -166t146.5 -61q80 0 147 62zM246 637q0 14 10.5 24.5t24.5 10.5t24.5 -10.5t10.5 -24.5
t-10.5 -24.5t-24.5 -10.5t-24.5 10.5t-10.5 24.5z" />
    <glyph glyph-name="Ccaron" unicode="&#x10c;" horiz-adv-x="674" 
d="M582 659l-13 -27q-75 41 -165 41q-140 0 -221 -94t-81 -231q0 -151 81.5 -240.5t218.5 -89.5q117 0 205 70l17 -25q-98 -74 -223 -74q-152 0 -242.5 99.5t-90.5 253.5q0 156 92 258t244 102q96 0 178 -43zM520 883l19 -13l-134 -119h-35l-133 119l17 13l134 -107z" />
    <glyph glyph-name="ccaron" unicode="&#x10d;" horiz-adv-x="491" 
d="M438 79l20 -22q-72 -68 -168 -68q-108 0 -168 69t-60 188q0 106 60.5 170.5t157.5 64.5q90 0 149 -50l-17 -22q-52 44 -131 44q-85 0 -137 -56.5t-52 -152.5q0 -105 52.5 -166t146.5 -61q80 0 147 62zM401 713l19 -13l-124 -129h-35l-123 129l17 13l124 -117z" />
    <glyph glyph-name="Dcaron" unicode="&#x10e;" horiz-adv-x="720" 
d="M611 342q0 156 -86 238t-238 82h-158v-632h142q177 0 258.5 83.5t81.5 228.5zM645 350q0 -166 -91.5 -258t-273.5 -92h-183v692h199q158 0 253.5 -89.5t95.5 -252.5zM454 883l19 -13l-134 -119h-35l-133 119l17 13l134 -107z" />
    <glyph glyph-name="dcaron" unicode="&#x10f;" horiz-adv-x="598" 
d="M442 96v301q-74 56 -157 56q-82 0 -137.5 -61.5t-55.5 -158.5q0 -90 49.5 -153t133.5 -63q97 0 167 79zM446 0l-4 59q-74 -70 -171 -70q-89 0 -149 66.5t-60 178.5q0 105 63 176t159 71q86 0 158 -52v293l30 8v-730h-26zM576 578l-20 19q25 28 25 54q0 23 -21 47
q0 15 8.5 23.5t20.5 8.5q34 0 34 -44q0 -59 -47 -108z" />
    <glyph glyph-name="Dcroat" unicode="&#x110;" horiz-adv-x="720" 
d="M645 350q0 -166 -91.5 -258t-273.5 -92h-183v335h-65v30h65v327h199q158 0 253.5 -89.5t95.5 -252.5zM611 342q0 156 -86 238t-238 82h-158v-297h181v-30h-181v-305h142q177 0 258.5 83.5t81.5 228.5z" />
    <glyph glyph-name="dcroat" unicode="&#x111;" horiz-adv-x="563" 
d="M446 0l-4 59q-74 -70 -171 -70q-89 0 -149 66.5t-60 178.5q0 105 63 176t159 71q86 0 158 -52v151h-164v28h164v114l30 8v-122h57v-28h-57v-580h-26zM442 96v301q-74 56 -157 56q-82 0 -137.5 -61.5t-55.5 -158.5q0 -90 49.5 -153t133.5 -63q97 0 167 79z" />
    <glyph glyph-name="Emacron" unicode="&#x112;" horiz-adv-x="515" 
d="M453 0h-356v692h352l-5 -30h-315v-295h272v-30h-272v-307h329zM137 774v32h282v-32h-282z" />
    <glyph glyph-name="emacron" unicode="&#x113;" horiz-adv-x="519" 
d="M453 242h-361v-4q0 -99 48.5 -160t150.5 -61q83 0 158 58l17 -25q-85 -61 -178 -61q-104 0 -165 65t-61 180q0 109 54.5 178t153.5 69q87 0 135 -61t48 -178zM267 453q-79 0 -122 -52t-52 -133h328q-13 185 -154 185zM151 623v32h242v-32h-242z" />
    <glyph glyph-name="Ebreve" unicode="&#x114;" horiz-adv-x="515" 
d="M453 0h-356v692h352l-5 -30h-315v-295h272v-30h-272v-307h329zM413 875q-2 -47 -35.5 -86t-103.5 -39q-66 0 -101.5 36.5t-37.5 88.5h24q12 -96 115 -96q50 0 80 26.5t35 69.5h24z" />
    <glyph glyph-name="ebreve" unicode="&#x115;" horiz-adv-x="519" 
d="M453 242h-361v-4q0 -99 48.5 -160t150.5 -61q83 0 158 58l17 -25q-85 -61 -178 -61q-104 0 -165 65t-61 180q0 109 54.5 178t153.5 69q87 0 135 -61t48 -178zM267 453q-79 0 -122 -52t-52 -133h328q-13 185 -154 185zM413 701q0 -50 -35 -89.5t-104 -39.5q-65 0 -102 36
t-37 93h24q12 -101 115 -101q50 0 80 27t35 74h24z" />
    <glyph glyph-name="Edotaccent" unicode="&#x116;" horiz-adv-x="515" 
d="M453 0h-356v692h352l-5 -30h-315v-295h272v-30h-272v-307h329zM248 802q0 14 10.5 24.5t24.5 10.5t24.5 -10.5t10.5 -24.5t-10.5 -24.5t-24.5 -10.5t-24.5 10.5t-10.5 24.5z" />
    <glyph glyph-name="edotaccent" unicode="&#x117;" horiz-adv-x="519" 
d="M453 242h-361v-4q0 -99 48.5 -160t150.5 -61q83 0 158 58l17 -25q-85 -61 -178 -61q-104 0 -165 65t-61 180q0 109 54.5 178t153.5 69q87 0 135 -61t48 -178zM267 453q-79 0 -122 -52t-52 -133h328q-13 185 -154 185zM240 637q0 14 10.5 24.5t24.5 10.5t24.5 -10.5
t10.5 -24.5t-10.5 -24.5t-24.5 -10.5t-24.5 10.5t-10.5 24.5z" />
    <glyph glyph-name="Eogonek" unicode="&#x118;" horiz-adv-x="515" 
d="M469 -167l11 -23q-39 -25 -80 -25q-47 0 -72.5 26t-25.5 71q0 72 72 118h-277v692h352l-5 -30h-315v-295h272v-30h-272v-307h329l-5 -30h-46q-76 -48 -76 -114q0 -74 72 -74q33 0 66 21z" />
    <glyph glyph-name="eogonek" unicode="&#x119;" horiz-adv-x="519" 
d="M439 -167l11 -23q-39 -25 -80 -25q-47 0 -72.5 26t-25.5 71q0 64 60 110q-21 -3 -44 -3q-104 0 -165 65t-61 180q0 109 54.5 178t153.5 69q87 0 135 -61t48 -178h-361v-4q0 -99 48.5 -160t150.5 -61q83 0 158 58l17 -25q-38 -28 -76 -43q-37 -19 -63 -51.5t-26 -69.5
q0 -74 72 -74q33 0 66 21zM267 453q-79 0 -122 -52t-52 -133h328q-13 185 -154 185z" />
    <glyph glyph-name="Ecaron" unicode="&#x11a;" horiz-adv-x="515" 
d="M453 0h-356v692h352l-5 -30h-315v-295h272v-30h-272v-307h329zM407 883l19 -13l-134 -119h-35l-133 119l17 13l134 -107z" />
    <glyph glyph-name="ecaron" unicode="&#x11b;" horiz-adv-x="519" 
d="M453 242h-361v-4q0 -99 48.5 -160t150.5 -61q83 0 158 58l17 -25q-85 -61 -178 -61q-104 0 -165 65t-61 180q0 109 54.5 178t153.5 69q87 0 135 -61t48 -178zM267 453q-79 0 -122 -52t-52 -133h328q-13 185 -154 185zM395 713l19 -13l-124 -129h-35l-123 129l17 13
l124 -117z" />
    <glyph glyph-name="Gcircumflex" unicode="&#x11c;" horiz-adv-x="732" 
d="M621 654l-13 -27q-92 46 -185 46q-141 0 -231 -94t-90 -235q0 -146 94 -236t225 -90q113 0 199 61v231h-197v30h229v-275q-100 -76 -231 -76q-157 0 -255 102.5t-98 250.5q0 154 100.5 257t255.5 103q105 0 197 -48zM551 766l-19 -13l-132 107l-134 -107l-17 13l133 119
h35z" />
    <glyph glyph-name="gcircumflex" unicode="&#x11d;" horiz-adv-x="527" 
d="M34 -139q0 79 140 132q-57 23 -57 63q0 46 90 73v2q-77 17 -113.5 65t-36.5 108q0 71 48 124t147 53q36 0 71 -10h170l-6 -28h-108q70 -52 70 -137q0 -38 -11.5 -67t-27.5 -47t-43 -32.5t-49 -21.5t-54 -15q-117 -28 -117 -65q0 -7 3 -13t9.5 -11.5t13.5 -10t19 -9
t21 -7.5t24.5 -7l25 -6.5t26.5 -6.5l26 -6q83 -20 126 -43.5t43 -65.5q0 -65 -63.5 -103.5t-163.5 -38.5q-101 0 -162 35.5t-61 95.5zM419 302q0 68 -45.5 110.5t-123.5 42.5q-70 0 -116.5 -40t-46.5 -109q0 -71 46.5 -112t107.5 -41q77 0 127.5 39t50.5 110zM454 -131
q0 19 -15 34.5t-44.5 26.5t-57 18.5t-67.5 17t-62 15.5q-63 -17 -103.5 -50.5t-40.5 -67.5q0 -47 54 -76t145 -29q85 0 138 32t53 79zM393 586l-19 -13l-122 117l-124 -117l-17 13l123 129h35z" />
    <glyph glyph-name="Gbreve" unicode="&#x11e;" horiz-adv-x="732" 
d="M621 654l-13 -27q-92 46 -185 46q-141 0 -231 -94t-90 -235q0 -146 94 -236t225 -90q113 0 199 61v231h-197v30h229v-275q-100 -76 -231 -76q-157 0 -255 102.5t-98 250.5q0 154 100.5 257t255.5 103q105 0 197 -48zM534 875q-2 -47 -35.5 -86t-103.5 -39
q-66 0 -101.5 36.5t-37.5 88.5h24q12 -96 115 -96q50 0 80 26.5t35 69.5h24z" />
    <glyph glyph-name="gbreve" unicode="&#x11f;" horiz-adv-x="527" 
d="M34 -139q0 79 140 132q-57 23 -57 63q0 46 90 73v2q-77 17 -113.5 65t-36.5 108q0 71 48 124t147 53q36 0 71 -10h170l-6 -28h-108q70 -52 70 -137q0 -38 -11.5 -67t-27.5 -47t-43 -32.5t-49 -21.5t-54 -15q-117 -28 -117 -65q0 -7 3 -13t9.5 -11.5t13.5 -10t19 -9
t21 -7.5t24.5 -7l25 -6.5t26.5 -6.5l26 -6q83 -20 126 -43.5t43 -65.5q0 -65 -63.5 -103.5t-163.5 -38.5q-101 0 -162 35.5t-61 95.5zM419 302q0 68 -45.5 110.5t-123.5 42.5q-70 0 -116.5 -40t-46.5 -109q0 -71 46.5 -112t107.5 -41q77 0 127.5 39t50.5 110zM454 -131
q0 19 -15 34.5t-44.5 26.5t-57 18.5t-67.5 17t-62 15.5q-63 -17 -103.5 -50.5t-40.5 -67.5q0 -47 54 -76t145 -29q85 0 138 32t53 79zM397 701q0 -50 -35 -89.5t-104 -39.5q-65 0 -102 36t-37 93h24q12 -101 115 -101q50 0 80 27t35 74h24z" />
    <glyph glyph-name="Gdotaccent" unicode="&#x120;" horiz-adv-x="732" 
d="M621 654l-13 -27q-92 46 -185 46q-141 0 -231 -94t-90 -235q0 -146 94 -236t225 -90q113 0 199 61v231h-197v30h229v-275q-100 -76 -231 -76q-157 0 -255 102.5t-98 250.5q0 154 100.5 257t255.5 103q105 0 197 -48zM379 802q0 14 10.5 24.5t24.5 10.5t24.5 -10.5
t10.5 -24.5t-10.5 -24.5t-24.5 -10.5t-24.5 10.5t-10.5 24.5z" />
    <glyph glyph-name="gdotaccent" unicode="&#x121;" horiz-adv-x="527" 
d="M34 -139q0 79 140 132q-57 23 -57 63q0 46 90 73v2q-77 17 -113.5 65t-36.5 108q0 71 48 124t147 53q36 0 71 -10h170l-6 -28h-108q70 -52 70 -137q0 -38 -11.5 -67t-27.5 -47t-43 -32.5t-49 -21.5t-54 -15q-117 -28 -117 -65q0 -7 3 -13t9.5 -11.5t13.5 -10t19 -9
t21 -7.5t24.5 -7l25 -6.5t26.5 -6.5l26 -6q83 -20 126 -43.5t43 -65.5q0 -65 -63.5 -103.5t-163.5 -38.5q-101 0 -162 35.5t-61 95.5zM419 302q0 68 -45.5 110.5t-123.5 42.5q-70 0 -116.5 -40t-46.5 -109q0 -71 46.5 -112t107.5 -41q77 0 127.5 39t50.5 110zM454 -131
q0 19 -15 34.5t-44.5 26.5t-57 18.5t-67.5 17t-62 15.5q-63 -17 -103.5 -50.5t-40.5 -67.5q0 -47 54 -76t145 -29q85 0 138 32t53 79zM221 637q0 14 10.5 24.5t24.5 10.5t24.5 -10.5t10.5 -24.5t-10.5 -24.5t-24.5 -10.5t-24.5 10.5t-10.5 24.5z" />
    <glyph glyph-name="Gcommaaccent" unicode="&#x122;" horiz-adv-x="732" 
d="M621 654l-13 -27q-92 46 -185 46q-141 0 -231 -94t-90 -235q0 -146 94 -236t225 -90q113 0 199 61v231h-197v30h229v-275q-100 -76 -231 -76q-157 0 -255 102.5t-98 250.5q0 154 100.5 257t255.5 103q105 0 197 -48zM399 -230l-20 19q25 28 25 54q0 23 -21 47
q0 15 8.5 23.5t20.5 8.5q34 0 34 -44q0 -59 -47 -108z" />
    <glyph glyph-name="gcommaaccent" unicode="&#x123;" horiz-adv-x="527" 
d="M34 -139q0 79 140 132q-57 23 -57 63q0 46 90 73v2q-77 17 -113.5 65t-36.5 108q0 71 48 124t147 53q36 0 71 -10h170l-6 -28h-108q70 -52 70 -137q0 -38 -11.5 -67t-27.5 -47t-43 -32.5t-49 -21.5t-54 -15q-117 -28 -117 -65q0 -7 3 -13t9.5 -11.5t13.5 -10t19 -9
t21 -7.5t24.5 -7l25 -6.5t26.5 -6.5l26 -6q83 -20 126 -43.5t43 -65.5q0 -65 -63.5 -103.5t-163.5 -38.5q-101 0 -162 35.5t-61 95.5zM419 302q0 68 -45.5 110.5t-123.5 42.5q-70 0 -116.5 -40t-46.5 -109q0 -71 46.5 -112t107.5 -41q77 0 127.5 39t50.5 110zM454 -131
q0 19 -15 34.5t-44.5 26.5t-57 18.5t-67.5 17t-62 15.5q-63 -17 -103.5 -50.5t-40.5 -67.5q0 -47 54 -76t145 -29q85 0 138 32t53 79zM265 731l20 -19q-25 -28 -25 -54q0 -23 21 -47q0 -15 -8.5 -23.5t-20.5 -8.5q-34 0 -34 45q0 58 47 107z" />
    <glyph glyph-name="Hcircumflex" unicode="&#x124;" horiz-adv-x="694" 
d="M597 0h-32v337h-436v-337h-32v692h32v-325h436v325h32v-692zM498 766l-19 -13l-132 107l-134 -107l-17 13l133 119h35z" />
    <glyph glyph-name="hcircumflex" unicode="&#x125;" horiz-adv-x="532" 
d="M121 0h-30v722l30 8v-346q62 52 107 74.5t89 22.5q55 0 92.5 -40.5t37.5 -108.5v-332h-31v329q0 57 -28 90.5t-77 33.5q-79 0 -190 -102v-351zM422 796l-19 -13l-132 107l-134 -107l-17 13l133 119h35z" />
    <glyph glyph-name="Hbar" unicode="&#x126;" horiz-adv-x="694" 
d="M597 0h-32v337h-436v-337h-32v512h-69v28h69v152h32v-152h436v152h32v-152h69v-28h-69v-512zM129 367h436v145h-436v-145z" />
    <glyph glyph-name="hbar" unicode="&#x127;" horiz-adv-x="532" 
d="M121 0h-30v600h-59v28h59v94l30 8v-102h162v-28h-162v-216q62 52 107 74.5t89 22.5q55 0 92.5 -40.5t37.5 -108.5v-332h-31v329q0 57 -28 90.5t-77 33.5q-79 0 -190 -102v-351z" />
    <glyph glyph-name="Itilde" unicode="&#x128;" horiz-adv-x="226" 
d="M129 0h-32v692h32v-692zM272 863q-3 -41 -23 -70t-64 -29q-34 0 -78 35.5t-67 35.5q-25 0 -39 -21t-19 -49h-27q13 98 89 98q33 0 76.5 -35.5t66.5 -35.5q26 0 41.5 20t17.5 51h26z" />
    <glyph glyph-name="itilde" unicode="&#x129;" horiz-adv-x="213" 
d="M121 0h-30v471h30v-471zM265 688q-3 -41 -23 -70t-64 -29q-34 0 -78 35.5t-67 35.5q-25 0 -39 -21t-19 -49h-27q13 98 89 98q33 0 76.5 -35.5t66.5 -35.5q26 0 41.5 20t17.5 51h26z" />
    <glyph glyph-name="Imacron" unicode="&#x12a;" horiz-adv-x="226" 
d="M129 0h-32v692h32v-692zM-28 774v32h282v-32h-282z" />
    <glyph glyph-name="imacron" unicode="&#x12b;" horiz-adv-x="213" 
d="M121 0h-30v471h30v-471zM-15 623v32h242v-32h-242z" />
    <glyph glyph-name="Ibreve" unicode="&#x12c;" horiz-adv-x="226" 
d="M129 0h-32v692h32v-692zM252 875q-2 -47 -35.5 -86t-103.5 -39q-66 0 -101.5 36.5t-37.5 88.5h24q12 -96 115 -96q50 0 80 26.5t35 69.5h24z" />
    <glyph glyph-name="ibreve" unicode="&#x12d;" horiz-adv-x="213" 
d="M121 0h-30v471h30v-471zM245 701q0 -50 -35 -89.5t-104 -39.5q-65 0 -102 36t-37 93h24q12 -101 115 -101q50 0 80 27t35 74h24z" />
    <glyph glyph-name="Iogonek" unicode="&#x12e;" horiz-adv-x="226" 
d="M179 -167l11 -23q-39 -25 -80 -25q-47 0 -72.5 26t-25.5 71q0 77 85 126v684h32v-692h-12q-76 -48 -76 -114q0 -74 72 -74q33 0 66 21z" />
    <glyph glyph-name="iogonek" unicode="&#x12f;" horiz-adv-x="213" 
d="M173 -167l11 -23q-39 -25 -80 -25q-47 0 -72.5 26t-25.5 71q0 77 85 126v463h30v-471h-10q-76 -48 -76 -114q0 -74 72 -74q33 0 66 21zM135 632q0 -11 -9 -19.5t-20 -8.5t-19.5 8.5t-8.5 19.5t8.5 20t19.5 9t20 -9t9 -20z" />
    <glyph glyph-name="Idotaccent" unicode="&#x130;" horiz-adv-x="226" 
d="M129 0h-32v692h32v-692zM79 802q0 14 10.5 24.5t24.5 10.5t24.5 -10.5t10.5 -24.5t-10.5 -24.5t-24.5 -10.5t-24.5 10.5t-10.5 24.5z" />
    <glyph glyph-name="dotlessi" unicode="&#x131;" horiz-adv-x="213" 
d="M121 0h-30v471h30v-471z" />
    <glyph glyph-name="Jcircumflex" unicode="&#x134;" horiz-adv-x="226" 
d="M-43 -195l-10 27q80 11 115 62t35 165v633h32v-625q0 -122 -38 -186.5t-134 -75.5zM264 766l-19 -13l-132 107l-134 -107l-17 13l133 119h35z" />
    <glyph glyph-name="jcircumflex" unicode="&#x135;" horiz-adv-x="212" 
d="M121 471v-530q0 -82 -25 -128.5t-85 -82.5l-15 23q44 29 58 47q37 44 37 127v544h30zM248 586l-19 -13l-122 117l-124 -117l-17 13l123 129h35z" />
    <glyph glyph-name="Kcommaaccent" unicode="&#x136;" horiz-adv-x="549" 
d="M527 0h-45l-353 356v-356h-32v692h32v-330l335 330h44l-340 -331zM282 -230l-20 19q25 28 25 54q0 23 -21 47q0 15 8.5 23.5t20.5 8.5q34 0 34 -44q0 -59 -47 -108z" />
    <glyph glyph-name="kcommaaccent" unicode="&#x137;" horiz-adv-x="450" 
d="M430 0h-42l-267 246v-246h-30v722l30 8v-477l258 218h43l-266 -221zM225 -230l-20 19q25 28 25 54q0 23 -21 47q0 15 8.5 23.5t20.5 8.5q34 0 34 -44q0 -59 -47 -108z" />
    <glyph glyph-name="kgreenlandic" unicode="&#x138;" horiz-adv-x="450" 
d="M430 0h-42l-267 246v-246h-30v471h30v-218l258 218h43l-266 -221z" />
    <glyph glyph-name="Lacute" unicode="&#x139;" horiz-adv-x="496" 
d="M457 0h-360v692h32v-665h333zM198 741h-23l130 133l27 -30z" />
    <glyph glyph-name="lacute" unicode="&#x13a;" horiz-adv-x="213" 
d="M121 0h-30v722l30 8v-730zM107 771h-23l130 133l27 -30z" />
    <glyph glyph-name="Lcommaaccent" unicode="&#x13b;" horiz-adv-x="496" 
d="M457 0h-360v692h32v-665h333zM259 -230l-20 19q25 28 25 54q0 23 -21 47q0 15 8.5 23.5t20.5 8.5q34 0 34 -44q0 -59 -47 -108z" />
    <glyph glyph-name="lcommaaccent" unicode="&#x13c;" horiz-adv-x="213" 
d="M121 0h-30v722l30 8v-730zM92 -230l-20 19q25 28 25 54q0 23 -21 47q0 15 8.5 23.5t20.5 8.5q34 0 34 -44q0 -59 -47 -108z" />
    <glyph glyph-name="Lcaron" unicode="&#x13d;" horiz-adv-x="496" 
d="M457 0h-360v692h32v-665h333zM305 540l-20 19q25 28 25 54q0 23 -21 47q0 15 8.5 23.5t20.5 8.5q34 0 34 -44q0 -59 -47 -108z" />
    <glyph glyph-name="lcaron" unicode="&#x13e;" horiz-adv-x="241" 
d="M121 0h-30v722l30 8v-730zM219 578l-20 19q25 28 25 54q0 23 -21 47q0 15 8.5 23.5t20.5 8.5q34 0 34 -44q0 -59 -47 -108z" />
    <glyph glyph-name="Ldot" unicode="&#x13f;" horiz-adv-x="496" 
d="M457 0h-360v692h32v-665h333zM292 352q0 13 8.5 21.5t21.5 8.5t21.5 -8.5t8.5 -21.5t-8.5 -21.5t-21.5 -8.5t-21.5 8.5t-8.5 21.5z" />
    <glyph glyph-name="ldot" unicode="&#x140;" horiz-adv-x="250" 
d="M121 0h-30v722l30 8v-730zM185 321q0 13 8.5 21.5t21.5 8.5t21.5 -8.5t8.5 -21.5t-8.5 -21.5t-21.5 -8.5t-21.5 8.5t-8.5 21.5z" />
    <glyph glyph-name="Lslash" unicode="&#x141;" horiz-adv-x="496" 
d="M457 0h-360v288l-74 -56v36l74 56v368h32v-343l155 119v-36l-155 -119v-286h333z" />
    <glyph glyph-name="lslash" unicode="&#x142;" horiz-adv-x="213" 
d="M121 0h-30v313l-76 -75v37l76 75v372l30 8v-351l76 76v-37l-76 -76v-342z" />
    <glyph glyph-name="Nacute" unicode="&#x143;" horiz-adv-x="725" 
d="M628 692v-692h-29l-468 645h-2v-645h-32v692h37l460 -633h2v633h32zM363 741h-23l130 133l27 -30z" />
    <glyph glyph-name="nacute" unicode="&#x144;" horiz-adv-x="532" 
d="M447 0h-30v329q0 57 -28.5 90.5t-77.5 33.5q-77 0 -190 -102v-351h-30v471h30v-87q62 52 107 74.5t89 22.5q55 0 92.5 -40.5t37.5 -108.5v-332zM264 571h-20l72 153l34 -17z" />
    <glyph glyph-name="Ncommaaccent" unicode="&#x145;" horiz-adv-x="725" 
d="M628 692v-692h-29l-468 645h-2v-645h-32v692h37l460 -633h2v633h32zM346 -230l-20 19q25 28 25 54q0 23 -21 47q0 15 8.5 23.5t20.5 8.5q34 0 34 -44q0 -59 -47 -108z" />
    <glyph glyph-name="ncommaaccent" unicode="&#x146;" horiz-adv-x="532" 
d="M447 0h-30v329q0 57 -28.5 90.5t-77.5 33.5q-77 0 -190 -102v-351h-30v471h30v-87q62 52 107 74.5t89 22.5q55 0 92.5 -40.5t37.5 -108.5v-332zM257 -230l-20 19q25 28 25 54q0 23 -21 47q0 15 8.5 23.5t20.5 8.5q34 0 34 -44q0 -59 -47 -108z" />
    <glyph glyph-name="Ncaron" unicode="&#x147;" horiz-adv-x="725" 
d="M628 692v-692h-29l-468 645h-2v-645h-32v692h37l460 -633h2v633h32zM505 883l19 -13l-134 -119h-35l-133 119l17 13l134 -107z" />
    <glyph glyph-name="ncaron" unicode="&#x148;" horiz-adv-x="532" 
d="M447 0h-30v329q0 57 -28.5 90.5t-77.5 33.5q-77 0 -190 -102v-351h-30v471h30v-87q62 52 107 74.5t89 22.5q55 0 92.5 -40.5t37.5 -108.5v-332zM395 713l19 -13l-124 -129h-35l-123 129l17 13l124 -117z" />
    <glyph glyph-name="napostrophe" unicode="&#x149;" horiz-adv-x="541" 
d="M456 0h-30v329q0 57 -28.5 90.5t-77.5 33.5q-77 0 -190 -102v-351h-30v471h30v-87q62 52 107 74.5t89 22.5q55 0 92.5 -40.5t37.5 -108.5v-332zM13 574l-20 15q23 29 23 63q0 25 -19 50q0 13 8 20.5t19 7.5q31 0 31 -49q0 -61 -42 -107z" />
    <glyph glyph-name="Eng" unicode="&#x14a;" horiz-adv-x="725" 
d="M456 -195l-10 27q70 10 105.5 50.5t42.5 125.5l-463 637h-2v-645h-32v692h37l460 -633h2v633h32v-625q0 -122 -38 -186.5t-134 -75.5z" />
    <glyph glyph-name="eng" unicode="&#x14b;" horiz-adv-x="532" 
d="M447 332v-391q0 -82 -25 -128.5t-85 -82.5l-15 23q44 29 58 47q37 44 37 127v402q0 57 -28.5 90.5t-77.5 33.5q-79 0 -190 -102v-351h-30v471h30v-87q62 52 107 74.5t89 22.5q55 0 92.5 -40.5t37.5 -108.5z" />
    <glyph glyph-name="Omacron" unicode="&#x14c;" horiz-adv-x="774" 
d="M672 350q0 145 -77.5 234t-207.5 89q-122 0 -203.5 -87t-81.5 -239q0 -148 80 -238.5t205 -90.5q127 0 206 86t79 246zM706 348q0 -70 -19 -133t-56.5 -114t-100.5 -81.5t-143 -30.5q-81 0 -145 32.5t-100.5 85.5t-55 114.5t-18.5 126.5q0 68 20.5 130.5t59.5 113
t101 80.5t138 30q103 0 177.5 -52.5t108 -131t33.5 -170.5zM246 774v32h282v-32h-282z" />
    <glyph glyph-name="omacron" unicode="&#x14d;" horiz-adv-x="575" 
d="M483 233q0 109 -57.5 164.5t-138.5 55.5t-138 -55.5t-57 -162.5t57 -162.5t138 -55.5q80 0 138 56t58 160zM513 235q0 -109 -62.5 -177.5t-163.5 -68.5t-163 68.5t-62 177.5q0 108 62 177t163 69t163.5 -69t62.5 -177zM166 623v32h242v-32h-242z" />
    <glyph glyph-name="Obreve" unicode="&#x14e;" horiz-adv-x="774" 
d="M672 350q0 145 -77.5 234t-207.5 89q-122 0 -203.5 -87t-81.5 -239q0 -148 80 -238.5t205 -90.5q127 0 206 86t79 246zM706 348q0 -70 -19 -133t-56.5 -114t-100.5 -81.5t-143 -30.5q-81 0 -145 32.5t-100.5 85.5t-55 114.5t-18.5 126.5q0 68 20.5 130.5t59.5 113
t101 80.5t138 30q103 0 177.5 -52.5t108 -131t33.5 -170.5zM526 875q-2 -47 -35.5 -86t-103.5 -39q-66 0 -101.5 36.5t-37.5 88.5h24q12 -96 115 -96q50 0 80 26.5t35 69.5h24z" />
    <glyph glyph-name="obreve" unicode="&#x14f;" horiz-adv-x="575" 
d="M483 233q0 109 -57.5 164.5t-138.5 55.5t-138 -55.5t-57 -162.5t57 -162.5t138 -55.5q80 0 138 56t58 160zM513 235q0 -109 -62.5 -177.5t-163.5 -68.5t-163 68.5t-62 177.5q0 108 62 177t163 69t163.5 -69t62.5 -177zM426 701q0 -50 -35 -89.5t-104 -39.5q-65 0 -102 36
t-37 93h24q12 -101 115 -101q50 0 80 27t35 74h24z" />
    <glyph glyph-name="Ohungarumlaut" unicode="&#x150;" horiz-adv-x="774" 
d="M672 350q0 145 -77.5 234t-207.5 89q-122 0 -203.5 -87t-81.5 -239q0 -148 80 -238.5t205 -90.5q127 0 206 86t79 246zM706 348q0 -70 -19 -133t-56.5 -114t-100.5 -81.5t-143 -30.5q-81 0 -145 32.5t-100.5 85.5t-55 114.5t-18.5 126.5q0 68 20.5 130.5t59.5 113
t101 80.5t138 30q103 0 177.5 -52.5t108 -131t33.5 -170.5zM312 741h-23l69 140l34 -15zM461 741h-23l84 131l33 -16z" />
    <glyph glyph-name="ohungarumlaut" unicode="&#x151;" horiz-adv-x="575" 
d="M483 233q0 109 -57.5 164.5t-138.5 55.5t-138 -55.5t-57 -162.5t57 -162.5t138 -55.5q80 0 138 56t58 160zM513 235q0 -109 -62.5 -177.5t-163.5 -68.5t-163 68.5t-62 177.5q0 108 62 177t163 69t163.5 -69t62.5 -177zM211 571h-20l72 153l32 -17zM361 571h-20l87 143
l32 -17z" />
    <glyph glyph-name="OE" unicode="&#x152;" horiz-adv-x="898" 
d="M836 0h-349q-49 -11 -100 -11q-81 0 -145 32.5t-100.5 85.5t-55 114.5t-18.5 126.5q0 68 20.5 130.5t59.5 113t101 80.5t138 30q46 0 94 -10h351l-5 -30h-315v-295h272v-30h-272v-307h329zM387 18q52 0 93 8v637q-41 10 -93 10q-121 0 -203 -85.5t-82 -240.5
q0 -150 81 -239.5t204 -89.5z" />
    <glyph glyph-name="oe" unicode="&#x153;" horiz-adv-x="932" 
d="M506 235q0 -94 49 -156t141 -62q83 0 166 61l17 -25q-89 -64 -186 -64q-74 0 -127 38.5t-76 108.5q-23 -68 -76.5 -107.5t-124.5 -39.5q-104 0 -165.5 68.5t-61.5 177.5t61.5 177.5t165.5 68.5q71 0 124.5 -40t76.5 -108q22 68 70 108t115 40q92 0 141.5 -60.5
t49.5 -178.5h-360v-7zM476 233v1q-1 108 -56 163.5t-131 55.5q-83 0 -140 -55t-57 -163q0 -105 57.5 -161.5t139.5 -56.5q76 0 131.5 55t55.5 161zM672 453q-71 0 -114.5 -53.5t-50.5 -131.5h327q-13 185 -162 185z" />
    <glyph glyph-name="Racute" unicode="&#x154;" horiz-adv-x="586" 
d="M435 512q0 68 -48 109t-150 41h-108v-303h101q90 0 147.5 38t57.5 115zM564 0h-39l-82 166q-45 89 -97 126t-142 37h-75v-329h-32v692h155q96 0 156.5 -45t60.5 -134q0 -135 -162 -172v-2q100 -26 168 -163zM247 741h-23l130 133l27 -30z" />
    <glyph glyph-name="racute" unicode="&#x155;" horiz-adv-x="359" 
d="M344 450l-14 -26q-10 4 -27.5 13.5t-31.5 14.5t-29 5q-50 0 -121 -91v-366h-30v471h30v-67h1q36 42 63 61.5t59 19.5q21 0 36 -4.5t35.5 -16t28.5 -14.5zM191 571h-20l72 153l34 -17z" />
    <glyph glyph-name="Rcommaaccent" unicode="&#x156;" horiz-adv-x="586" 
d="M435 512q0 68 -48 109t-150 41h-108v-303h101q90 0 147.5 38t57.5 115zM564 0h-39l-82 166q-45 89 -97 126t-142 37h-75v-329h-32v692h155q96 0 156.5 -45t60.5 -134q0 -135 -162 -172v-2q100 -26 168 -163zM303 -230l-20 19q25 28 25 54q0 23 -21 47q0 15 8.5 23.5
t20.5 8.5q34 0 34 -44q0 -59 -47 -108z" />
    <glyph glyph-name="rcommaaccent" unicode="&#x157;" horiz-adv-x="359" 
d="M344 450l-14 -26q-10 4 -27.5 13.5t-31.5 14.5t-29 5q-50 0 -121 -91v-366h-30v471h30v-67h1q36 42 63 61.5t59 19.5q21 0 36 -4.5t35.5 -16t28.5 -14.5zM176 -230l-20 19q25 28 25 54q0 23 -21 47q0 15 8.5 23.5t20.5 8.5q34 0 34 -44q0 -59 -47 -108z" />
    <glyph glyph-name="Rcaron" unicode="&#x158;" horiz-adv-x="586" 
d="M435 512q0 68 -48 109t-150 41h-108v-303h101q90 0 147.5 38t57.5 115zM564 0h-39l-82 166q-45 89 -97 126t-142 37h-75v-329h-32v692h155q96 0 156.5 -45t60.5 -134q0 -135 -162 -172v-2q100 -26 168 -163zM394 883l19 -13l-134 -119h-35l-133 119l17 13l134 -107z" />
    <glyph glyph-name="rcaron" unicode="&#x159;" horiz-adv-x="359" 
d="M344 450l-14 -26q-10 4 -27.5 13.5t-31.5 14.5t-29 5q-50 0 -121 -91v-366h-30v471h30v-67h1q36 42 63 61.5t59 19.5q21 0 36 -4.5t35.5 -16t28.5 -14.5zM338 713l19 -13l-124 -129h-35l-123 129l17 13l124 -117z" />
    <glyph glyph-name="Sacute" unicode="&#x15a;" horiz-adv-x="505" 
d="M64 38l14 29q84 -49 170 -49q78 0 124 39.5t46 103.5q0 54 -37.5 90.5t-126.5 83.5q-5 3 -27.5 15l-29 15.5l-26 14.5t-26 16.5t-22 17.5t-21.5 20l-16 21t-14 25t-7.5 27t-3.5 31q0 76 58.5 120t147.5 44q78 0 159 -37l-13 -28q-76 36 -146 36q-78 0 -125 -37t-47 -97
q0 -55 38.5 -89t139.5 -88l58 -32.5t47.5 -31.5t40.5 -37.5t23 -42.5t10 -54q0 -75 -55.5 -125t-151.5 -50q-93 0 -181 49zM228 741h-23l130 133l27 -30z" />
    <glyph glyph-name="sacute" unicode="&#x15b;" horiz-adv-x="427" 
d="M52 35l14 27q75 -45 143 -45q62 0 95.5 27t33.5 70q0 34 -27.5 59.5t-66.5 42.5l-78 35.5t-66.5 49t-27.5 71.5q0 45 36.5 77t109.5 32q71 0 132 -36l-14 -24q-58 32 -119 32q-49 0 -82 -21t-33 -61q0 -34 27.5 -59.5t66.5 -43l78 -36t66.5 -48t27.5 -68.5
q0 -54 -41 -90.5t-120 -36.5t-155 46zM201 571h-20l72 153l34 -17z" />
    <glyph glyph-name="Scircumflex" unicode="&#x15c;" horiz-adv-x="505" 
d="M64 38l14 29q84 -49 170 -49q78 0 124 39.5t46 103.5q0 54 -37.5 90.5t-126.5 83.5q-5 3 -27.5 15l-29 15.5l-26 14.5t-26 16.5t-22 17.5t-21.5 20l-16 21t-14 25t-7.5 27t-3.5 31q0 76 58.5 120t147.5 44q78 0 159 -37l-13 -28q-76 36 -146 36q-78 0 -125 -37t-47 -97
q0 -55 38.5 -89t139.5 -88l58 -32.5t47.5 -31.5t40.5 -37.5t23 -42.5t10 -54q0 -75 -55.5 -125t-151.5 -50q-93 0 -181 49zM404 766l-19 -13l-132 107l-134 -107l-17 13l133 119h35z" />
    <glyph glyph-name="scircumflex" unicode="&#x15d;" horiz-adv-x="427" 
d="M52 35l14 27q75 -45 143 -45q62 0 95.5 27t33.5 70q0 34 -27.5 59.5t-66.5 42.5l-78 35.5t-66.5 49t-27.5 71.5q0 45 36.5 77t109.5 32q71 0 132 -36l-14 -24q-58 32 -119 32q-49 0 -82 -21t-33 -61q0 -34 27.5 -59.5t66.5 -43l78 -36t66.5 -48t27.5 -68.5
q0 -54 -41 -90.5t-120 -36.5t-155 46zM354 586l-19 -13l-122 117l-124 -117l-17 13l123 129h35z" />
    <glyph glyph-name="Scedilla" unicode="&#x15e;" horiz-adv-x="505" 
d="M319 -133q0 -40 -26.5 -61t-66.5 -21q-28 0 -56 11l8 27q24 -10 48 -10q28 0 45 14t17 37q0 28 -23 43.5t-58 17.5l20 65q-87 4 -163 48l14 29q84 -49 170 -49q78 0 124 39.5t46 103.5q0 54 -37.5 90.5t-126.5 83.5q-5 3 -27.5 15l-29 15.5l-26 14.5t-26 16.5t-22 17.5
t-21.5 20l-16 21t-14 25t-7.5 27t-3.5 31q0 76 58.5 120t147.5 44q78 0 159 -37l-13 -28q-76 36 -146 36q-78 0 -125 -37t-47 -97q0 -55 38.5 -89t139.5 -88l58 -32.5t47.5 -31.5t40.5 -37.5t23 -42.5t10 -54q0 -72 -51.5 -121.5t-141.5 -53.5l-14 -47q74 -16 74 -75z" />
    <glyph glyph-name="scedilla" unicode="&#x15f;" horiz-adv-x="427" 
d="M278 -133q0 -40 -26.5 -61t-66.5 -21q-28 0 -56 11l8 27q24 -10 48 -10q28 0 45 14t17 37q0 28 -23 43.5t-58 17.5l20 65q-68 4 -134 45l14 27q75 -45 143 -45q62 0 95.5 27t33.5 70q0 34 -27.5 59.5t-66.5 42.5l-78 35.5t-66.5 49t-27.5 71.5q0 45 36.5 77t109.5 32
q71 0 132 -36l-14 -24q-58 32 -119 32q-49 0 -82 -21t-33 -61q0 -34 27.5 -59.5t66.5 -43l78 -36t66.5 -48t27.5 -68.5q0 -52 -38.5 -88t-111.5 -39l-14 -47q74 -16 74 -75z" />
    <glyph glyph-name="Scaron" unicode="&#x160;" horiz-adv-x="505" 
d="M64 38l14 29q84 -49 170 -49q78 0 124 39.5t46 103.5q0 54 -37.5 90.5t-126.5 83.5q-5 3 -27.5 15l-29 15.5l-26 14.5t-26 16.5t-22 17.5t-21.5 20l-16 21t-14 25t-7.5 27t-3.5 31q0 76 58.5 120t147.5 44q78 0 159 -37l-13 -28q-76 36 -146 36q-78 0 -125 -37t-47 -97
q0 -55 38.5 -89t139.5 -88l58 -32.5t47.5 -31.5t40.5 -37.5t23 -42.5t10 -54q0 -75 -55.5 -125t-151.5 -50q-93 0 -181 49zM385 883l19 -13l-134 -119h-35l-133 119l17 13l134 -107z" />
    <glyph glyph-name="scaron" unicode="&#x161;" horiz-adv-x="427" 
d="M52 35l14 27q75 -45 143 -45q62 0 95.5 27t33.5 70q0 34 -27.5 59.5t-66.5 42.5l-78 35.5t-66.5 49t-27.5 71.5q0 45 36.5 77t109.5 32q71 0 132 -36l-14 -24q-58 32 -119 32q-49 0 -82 -21t-33 -61q0 -34 27.5 -59.5t66.5 -43l78 -36t66.5 -48t27.5 -68.5
q0 -54 -41 -90.5t-120 -36.5t-155 46zM341 713l19 -13l-124 -129h-35l-123 129l17 13l124 -117z" />
    <glyph glyph-name="uni0162" unicode="&#x162;" horiz-adv-x="539" 
d="M507 665h-222v-665h-32v665h-226v27h485zM254 -230l-20 19q25 28 25 54q0 23 -21 47q0 15 8.5 23.5t20.5 8.5q34 0 34 -44q0 -59 -47 -108z" />
    <glyph glyph-name="uni0163" unicode="&#x163;" horiz-adv-x="348" 
d="M307 53l17 -23q-52 -41 -110 -41q-118 0 -118 144v310h-65v28h65v127l30 8v-135h181l-6 -28h-175v-307q0 -64 22.5 -91t66.5 -27q46 0 92 35zM176 -230l-20 19q25 28 25 54q0 23 -21 47q0 15 8.5 23.5t20.5 8.5q34 0 34 -44q0 -59 -47 -108z" />
    <glyph glyph-name="Tcaron" unicode="&#x164;" horiz-adv-x="539" 
d="M507 665h-222v-665h-32v665h-226v27h485zM401 883l19 -13l-134 -119h-35l-133 119l17 13l134 -107z" />
    <glyph glyph-name="tcaron" unicode="&#x165;" horiz-adv-x="348" 
d="M307 53l17 -23q-52 -41 -110 -41q-118 0 -118 144v310h-65v28h65v127l30 8v-135h181l-6 -28h-175v-307q0 -64 22.5 -91t66.5 -27q46 0 92 35zM254 578l-20 19q25 28 25 54q0 23 -21 47q0 15 8.5 23.5t20.5 8.5q34 0 34 -44q0 -59 -47 -108z" />
    <glyph glyph-name="Tbar" unicode="&#x166;" horiz-adv-x="539" 
d="M507 665h-222v-293h135v-26h-135v-346h-32v346h-135v26h135v293h-226v27h485z" />
    <glyph glyph-name="tbar" unicode="&#x167;" horiz-adv-x="348" 
d="M307 53l17 -23q-52 -41 -110 -41q-118 0 -118 144v139h-63v28h63v143h-65v28h65v127l30 8v-135h181l-6 -28h-175v-143h158v-28h-158v-136q0 -64 22.5 -91t66.5 -27q46 0 92 35z" />
    <glyph glyph-name="Utilde" unicode="&#x168;" horiz-adv-x="697" 
d="M574 692h32v-437q0 -131 -66 -198.5t-195 -67.5q-119 0 -186.5 68t-67.5 192v443h32v-432q0 -242 223 -242q116 0 172 59.5t56 183.5v431zM513 863q-3 -41 -23 -70t-64 -29q-34 0 -78 35.5t-67 35.5q-25 0 -39 -21t-19 -49h-27q13 98 89 98q33 0 76.5 -35.5t66.5 -35.5
q26 0 41.5 20t17.5 51h26z" />
    <glyph glyph-name="utilde" unicode="&#x169;" horiz-adv-x="532" 
d="M85 471h30v-330q0 -56 29 -90t78 -34q78 0 189 102v352h30v-471h-30v87q-61 -52 -106 -75t-89 -23q-56 0 -93.5 40.5t-37.5 109.5v332zM423 688q-3 -41 -23 -70t-64 -29q-34 0 -78 35.5t-67 35.5q-25 0 -39 -21t-19 -49h-27q13 98 89 98q33 0 76.5 -35.5t66.5 -35.5
q26 0 41.5 20t17.5 51h26z" />
    <glyph glyph-name="Umacron" unicode="&#x16a;" horiz-adv-x="697" 
d="M574 692h32v-437q0 -131 -66 -198.5t-195 -67.5q-119 0 -186.5 68t-67.5 192v443h32v-432q0 -242 223 -242q116 0 172 59.5t56 183.5v431zM207 774v32h282v-32h-282z" />
    <glyph glyph-name="umacron" unicode="&#x16b;" horiz-adv-x="532" 
d="M85 471h30v-330q0 -56 29 -90t78 -34q78 0 189 102v352h30v-471h-30v87q-61 -52 -106 -75t-89 -23q-56 0 -93.5 40.5t-37.5 109.5v332zM144 623v32h242v-32h-242z" />
    <glyph glyph-name="Ubreve" unicode="&#x16c;" horiz-adv-x="697" 
d="M574 692h32v-437q0 -131 -66 -198.5t-195 -67.5q-119 0 -186.5 68t-67.5 192v443h32v-432q0 -242 223 -242q116 0 172 59.5t56 183.5v431zM487 875q-2 -47 -35.5 -86t-103.5 -39q-66 0 -101.5 36.5t-37.5 88.5h24q12 -96 115 -96q50 0 80 26.5t35 69.5h24z" />
    <glyph glyph-name="ubreve" unicode="&#x16d;" horiz-adv-x="532" 
d="M85 471h30v-330q0 -56 29 -90t78 -34q78 0 189 102v352h30v-471h-30v87q-61 -52 -106 -75t-89 -23q-56 0 -93.5 40.5t-37.5 109.5v332zM405 701q0 -50 -35 -89.5t-104 -39.5q-65 0 -102 36t-37 93h24q12 -101 115 -101q50 0 80 27t35 74h24z" />
    <glyph glyph-name="Uring" unicode="&#x16e;" horiz-adv-x="697" 
d="M574 692h32v-437q0 -131 -66 -198.5t-195 -67.5q-119 0 -186.5 68t-67.5 192v443h32v-432q0 -242 223 -242q116 0 172 59.5t56 183.5v431zM265 822q0 -34 24.5 -58.5t58.5 -24.5t58.5 24.5t24.5 58.5t-24.5 58.5t-58.5 24.5t-58.5 -24.5t-24.5 -58.5zM240 822
q0 45 31.5 76.5t76.5 31.5t76.5 -31.5t31.5 -76.5t-31.5 -76.5t-76.5 -31.5t-76.5 31.5t-31.5 76.5z" />
    <glyph glyph-name="uring" unicode="&#x16f;" horiz-adv-x="532" 
d="M85 471h30v-330q0 -56 29 -90t78 -34q78 0 189 102v352h30v-471h-30v87q-61 -52 -106 -75t-89 -23q-56 0 -93.5 40.5t-37.5 109.5v332zM198 655q0 -29 20 -49t49 -20t49 20t20 49t-20 49t-49 20t-49 -20t-20 -49zM173 655q0 39 27.5 66.5t66.5 27.5t66.5 -27.5
t27.5 -66.5t-27.5 -66.5t-66.5 -27.5t-66.5 27.5t-27.5 66.5z" />
    <glyph glyph-name="Uhungarumlaut" unicode="&#x170;" horiz-adv-x="697" 
d="M574 692h32v-437q0 -131 -66 -198.5t-195 -67.5q-119 0 -186.5 68t-67.5 192v443h32v-432q0 -242 223 -242q116 0 172 59.5t56 183.5v431zM264 741h-23l69 140l34 -15zM413 741h-23l84 131l33 -16z" />
    <glyph glyph-name="uhungarumlaut" unicode="&#x171;" horiz-adv-x="532" 
d="M85 471h30v-330q0 -56 29 -90t78 -34q78 0 189 102v352h30v-471h-30v87q-61 -52 -106 -75t-89 -23q-56 0 -93.5 40.5t-37.5 109.5v332zM181 571h-20l72 153l32 -17zM331 571h-20l87 143l32 -17z" />
    <glyph glyph-name="Uogonek" unicode="&#x172;" horiz-adv-x="697" 
d="M503 -167l11 -23q-39 -25 -80 -25q-47 0 -72.5 26t-25.5 71q0 64 60 110q-24 -3 -51 -3q-119 0 -186.5 68t-67.5 192v443h32v-432q0 -242 223 -242q116 0 172 59.5t56 183.5v431h32v-437q0 -207 -163 -254q-33 -20 -55.5 -50t-22.5 -65q0 -74 72 -74q33 0 66 21z" />
    <glyph glyph-name="uogonek" unicode="&#x173;" horiz-adv-x="532" 
d="M493 -167l11 -23q-39 -25 -80 -25q-47 0 -72.5 26t-25.5 71q0 77 85 126v79q-61 -52 -106 -75t-89 -23q-56 0 -93.5 40.5t-37.5 109.5v332h30v-330q0 -56 29 -90t78 -34q78 0 189 102v352h30v-471h-10q-76 -48 -76 -114q0 -74 72 -74q33 0 66 21z" />
    <glyph glyph-name="Wcircumflex" unicode="&#x174;" horiz-adv-x="1028" 
d="M1010 692l-244 -697h-37l-214 660l-213 -660h-33l-249 697h37l227 -652h2l210 652h40l212 -652h2l226 652h34zM666 766l-19 -13l-132 107l-134 -107l-17 13l133 119h35z" />
    <glyph glyph-name="wcircumflex" unicode="&#x175;" horiz-adv-x="772" 
d="M731 471h31l-202 -478h-10l-163 404l-163 -404h-11l-203 478h33l176 -418l163 418h9l165 -418zM533 586l-19 -13l-122 117l-124 -117l-17 13l123 129h35z" />
    <glyph glyph-name="Ycircumflex" unicode="&#x176;" horiz-adv-x="588" 
d="M522 692h36l-246 -393v-299h-32v299l-244 393h36l224 -365zM445 766l-19 -13l-132 107l-134 -107l-17 13l133 119h35z" />
    <glyph glyph-name="ycircumflex" unicode="&#x177;" horiz-adv-x="472" 
d="M191 -41l27 61l-198 451h35l178 -418l189 418h33l-336 -741h-36q53 92 108 229zM379 586l-19 -13l-122 117l-124 -117l-17 13l123 129h35z" />
    <glyph glyph-name="Ydieresis" unicode="&#x178;" horiz-adv-x="588" 
d="M522 692h36l-246 -393v-299h-32v299l-244 393h36l224 -365zM178 805q0 12 8.5 20.5t20.5 8.5t20.5 -8.5t8.5 -20.5t-8.5 -20.5t-20.5 -8.5t-20.5 8.5t-8.5 20.5zM352 805q0 12 8.5 20.5t20.5 8.5t20.5 -8.5t8.5 -20.5t-8.5 -20.5t-20.5 -8.5t-20.5 8.5t-8.5 20.5z" />
    <glyph glyph-name="Zacute" unicode="&#x179;" horiz-adv-x="636" 
d="M573 684l-467 -656h480l-5 -28h-525v7l467 657h-436v28h486v-8zM299 741h-23l130 133l27 -30z" />
    <glyph glyph-name="zacute" unicode="&#x17a;" horiz-adv-x="505" 
d="M453 0h-401v12l338 432h-323v27h371v-9l-338 -435h353v-27zM248 571h-20l72 153l34 -17z" />
    <glyph glyph-name="Zdotaccent" unicode="&#x17b;" horiz-adv-x="636" 
d="M573 684l-467 -656h480l-5 -28h-525v7l467 657h-436v28h486v-8zM288 802q0 14 10.5 24.5t24.5 10.5t24.5 -10.5t10.5 -24.5t-10.5 -24.5t-24.5 -10.5t-24.5 10.5t-10.5 24.5z" />
    <glyph glyph-name="zdotaccent" unicode="&#x17c;" horiz-adv-x="505" 
d="M453 0h-401v12l338 432h-323v27h371v-9l-338 -435h353v-27zM222 637q0 14 10.5 24.5t24.5 10.5t24.5 -10.5t10.5 -24.5t-10.5 -24.5t-24.5 -10.5t-24.5 10.5t-10.5 24.5z" />
    <glyph glyph-name="Zcaron" unicode="&#x17d;" horiz-adv-x="636" 
d="M573 684l-467 -656h480l-5 -28h-525v7l467 657h-436v28h486v-8zM457 883l19 -13l-134 -119h-35l-133 119l17 13l134 -107z" />
    <glyph glyph-name="zcaron" unicode="&#x17e;" horiz-adv-x="505" 
d="M453 0h-401v12l338 432h-323v27h371v-9l-338 -435h353v-27zM375 713l19 -13l-124 -129h-35l-123 129l17 13l124 -117z" />
    <glyph glyph-name="longs" unicode="&#x17f;" horiz-adv-x="263" 
d="M323 712l-12 -26q-35 16 -73 16q-117 0 -117 -177v-525h-30v536q0 96 39 145t108 49q45 0 85 -18z" />
    <glyph glyph-name="Schwa" unicode="&#x18f;" horiz-adv-x="732" 
d="M70 350h560q-1 87 -31 158.5t-96.5 118t-159.5 46.5q-111 0 -224 -74l-16 26q66 40 119 58.5t123 18.5q142 0 230.5 -98.5t88.5 -255.5t-83.5 -258t-224.5 -101q-140 0 -213 92.5t-73 268.5zM357 18q103 0 183.5 75.5t88.5 226.5h-528q12 -302 256 -302z" />
    <glyph glyph-name="florin" unicode="&#x192;" 
d="M485 712l-12 -26q-32 16 -65 16q-68 0 -99 -45.5t-47 -131.5l-10 -54h140l-11 -28h-133l-83 -477q-18 -102 -46.5 -151.5t-87.5 -84.5l-11 25q26 17 43 34t36.5 55.5t29.5 93.5l89 505h-89l5 28h89l11 65q17 101 61 147.5t117 46.5q35 0 73 -18z" />
    <glyph glyph-name="Acaron" unicode="&#x1cd;" horiz-adv-x="591" 
d="M15 0l264 692h34l263 -692h-36l-86 230h-320l-86 -230h-33zM294 652l-148 -392h297l-147 392h-2zM427 883l19 -13l-134 -119h-35l-133 119l17 13l134 -107z" />
    <glyph glyph-name="acaron" unicode="&#x1ce;" horiz-adv-x="491" 
d="M343 93v183l-105 -28q-83 -22 -118.5 -51t-35.5 -75q0 -49 28.5 -77t77.5 -28q35 0 77 19.5t76 56.5zM449 37l11 -24q-29 -24 -57 -24q-55 0 -60 70q-81 -70 -159 -70q-54 0 -92 34.5t-38 94.5q0 63 43 97t132 57l114 30v23q0 128 -113 128q-67 0 -142 -52l-15 24
q82 56 160 56q60 0 100 -37.5t40 -114.5v-223q0 -45 7.5 -67t27.5 -22q14 0 41 20zM353 713l19 -13l-124 -129h-35l-123 129l17 13l124 -117z" />
    <glyph glyph-name="Icaron" unicode="&#x1cf;" horiz-adv-x="226" 
d="M129 0h-32v692h32v-692zM245 883l19 -13l-134 -119h-35l-133 119l17 13l134 -107z" />
    <glyph glyph-name="icaron" unicode="&#x1d0;" horiz-adv-x="213" 
d="M121 0h-30v471h30v-471zM228 713l19 -13l-124 -129h-35l-123 129l17 13l124 -117z" />
    <glyph glyph-name="Ocaron" unicode="&#x1d1;" horiz-adv-x="774" 
d="M672 350q0 145 -77.5 234t-207.5 89q-122 0 -203.5 -87t-81.5 -239q0 -148 80 -238.5t205 -90.5q127 0 206 86t79 246zM706 348q0 -70 -19 -133t-56.5 -114t-100.5 -81.5t-143 -30.5q-81 0 -145 32.5t-100.5 85.5t-55 114.5t-18.5 126.5q0 68 20.5 130.5t59.5 113
t101 80.5t138 30q103 0 177.5 -52.5t108 -131t33.5 -170.5zM519 883l19 -13l-134 -119h-35l-133 119l17 13l134 -107z" />
    <glyph glyph-name="ocaron" unicode="&#x1d2;" horiz-adv-x="575" 
d="M483 233q0 109 -57.5 164.5t-138.5 55.5t-138 -55.5t-57 -162.5t57 -162.5t138 -55.5q80 0 138 56t58 160zM513 235q0 -109 -62.5 -177.5t-163.5 -68.5t-163 68.5t-62 177.5q0 108 62 177t163 69t163.5 -69t62.5 -177zM409 713l19 -13l-124 -129h-35l-123 129l17 13
l124 -117z" />
    <glyph glyph-name="Ucaron" unicode="&#x1d3;" horiz-adv-x="697" 
d="M574 692h32v-437q0 -131 -66 -198.5t-195 -67.5q-119 0 -186.5 68t-67.5 192v443h32v-432q0 -242 223 -242q116 0 172 59.5t56 183.5v431zM480 883l19 -13l-134 -119h-35l-133 119l17 13l134 -107z" />
    <glyph glyph-name="ucaron" unicode="&#x1d4;" horiz-adv-x="532" 
d="M85 471h30v-330q0 -56 29 -90t78 -34q78 0 189 102v352h30v-471h-30v87q-61 -52 -106 -75t-89 -23q-56 0 -93.5 40.5t-37.5 109.5v332zM387 713l19 -13l-124 -129h-35l-123 129l17 13l124 -117z" />
    <glyph glyph-name="Udieresismacron" unicode="&#x1d5;" horiz-adv-x="697" 
d="M574 692h32v-437q0 -131 -66 -198.5t-195 -67.5q-119 0 -186.5 68t-67.5 192v443h32v-432q0 -242 223 -242q116 0 172 59.5t56 183.5v431zM231 805q0 12 8.5 20.5t20.5 8.5t20.5 -8.5t8.5 -20.5t-8.5 -20.5t-20.5 -8.5t-20.5 8.5t-8.5 20.5zM405 805q0 12 8.5 20.5
t20.5 8.5t20.5 -8.5t8.5 -20.5t-8.5 -20.5t-20.5 -8.5t-20.5 8.5t-8.5 20.5zM225 935v32h242v-32h-242z" />
    <glyph glyph-name="udieresismacron" unicode="&#x1d6;" horiz-adv-x="532" 
d="M85 471h30v-330q0 -56 29 -90t78 -34q78 0 189 102v352h30v-471h-30v87q-61 -52 -106 -75t-89 -23q-56 0 -93.5 40.5t-37.5 109.5v332zM152 632q0 12 8.5 20.5t20.5 8.5t20.5 -8.5t8.5 -20.5t-8.5 -20.5t-20.5 -8.5t-20.5 8.5t-8.5 20.5zM326 632q0 12 8.5 20.5t20.5 8.5
t20.5 -8.5t8.5 -20.5t-8.5 -20.5t-20.5 -8.5t-20.5 8.5t-8.5 20.5zM148 803v32h242v-32h-242z" />
    <glyph glyph-name="Udieresisacute" unicode="&#x1d7;" horiz-adv-x="697" 
d="M574 692h32v-437q0 -131 -66 -198.5t-195 -67.5q-119 0 -186.5 68t-67.5 192v443h32v-432q0 -242 223 -242q116 0 172 59.5t56 183.5v431zM233 805q0 12 8.5 20.5t20.5 8.5t20.5 -8.5t8.5 -20.5t-8.5 -20.5t-20.5 -8.5t-20.5 8.5t-8.5 20.5zM407 805q0 12 8.5 20.5
t20.5 8.5t20.5 -8.5t8.5 -20.5t-8.5 -20.5t-20.5 -8.5t-20.5 8.5t-8.5 20.5zM360 883h-20l72 153l34 -17z" />
    <glyph glyph-name="udieresisacute" unicode="&#x1d8;" horiz-adv-x="532" 
d="M85 471h30v-330q0 -56 29 -90t78 -34q78 0 189 102v352h30v-471h-30v87q-61 -52 -106 -75t-89 -23q-56 0 -93.5 40.5t-37.5 109.5v332zM152 632q0 12 8.5 20.5t20.5 8.5t20.5 -8.5t8.5 -20.5t-8.5 -20.5t-20.5 -8.5t-20.5 8.5t-8.5 20.5zM326 632q0 12 8.5 20.5t20.5 8.5
t20.5 -8.5t8.5 -20.5t-8.5 -20.5t-20.5 -8.5t-20.5 8.5t-8.5 20.5zM262 751h-20l72 153l34 -17z" />
    <glyph glyph-name="Udieresiscaron" unicode="&#x1d9;" horiz-adv-x="697" 
d="M574 692h32v-437q0 -131 -66 -198.5t-195 -67.5q-119 0 -186.5 68t-67.5 192v443h32v-432q0 -242 223 -242q116 0 172 59.5t56 183.5v431zM233 805q0 12 8.5 20.5t20.5 8.5t20.5 -8.5t8.5 -20.5t-8.5 -20.5t-20.5 -8.5t-20.5 8.5t-8.5 20.5zM407 805q0 12 8.5 20.5
t20.5 8.5t20.5 -8.5t8.5 -20.5t-8.5 -20.5t-20.5 -8.5t-20.5 8.5t-8.5 20.5zM471 1025l19 -13l-124 -129h-35l-123 129l17 13l124 -117z" />
    <glyph glyph-name="udieresiscaron" unicode="&#x1da;" horiz-adv-x="532" 
d="M85 471h30v-330q0 -56 29 -90t78 -34q78 0 189 102v352h30v-471h-30v87q-61 -52 -106 -75t-89 -23q-56 0 -93.5 40.5t-37.5 109.5v332zM152 632q0 12 8.5 20.5t20.5 8.5t20.5 -8.5t8.5 -20.5t-8.5 -20.5t-20.5 -8.5t-20.5 8.5t-8.5 20.5zM326 632q0 12 8.5 20.5t20.5 8.5
t20.5 -8.5t8.5 -20.5t-8.5 -20.5t-20.5 -8.5t-20.5 8.5t-8.5 20.5zM392 893l19 -13l-124 -129h-35l-123 129l17 13l124 -117z" />
    <glyph glyph-name="Udieresisgrave" unicode="&#x1db;" horiz-adv-x="697" 
d="M574 692h32v-437q0 -131 -66 -198.5t-195 -67.5q-119 0 -186.5 68t-67.5 192v443h32v-432q0 -242 223 -242q116 0 172 59.5t56 183.5v431zM229 805q0 12 8.5 20.5t20.5 8.5t20.5 -8.5t8.5 -20.5t-8.5 -20.5t-20.5 -8.5t-20.5 8.5t-8.5 20.5zM403 805q0 12 8.5 20.5
t20.5 8.5t20.5 -8.5t8.5 -20.5t-8.5 -20.5t-20.5 -8.5t-20.5 8.5t-8.5 20.5zM356 884h-20l-87 136l34 17z" />
    <glyph glyph-name="udieresisgrave" unicode="&#x1dc;" horiz-adv-x="532" 
d="M85 471h30v-330q0 -56 29 -90t78 -34q78 0 189 102v352h30v-471h-30v87q-61 -52 -106 -75t-89 -23q-56 0 -93.5 40.5t-37.5 109.5v332zM152 632q0 12 8.5 20.5t20.5 8.5t20.5 -8.5t8.5 -20.5t-8.5 -20.5t-20.5 -8.5t-20.5 8.5t-8.5 20.5zM326 632q0 12 8.5 20.5t20.5 8.5
t20.5 -8.5t8.5 -20.5t-8.5 -20.5t-20.5 -8.5t-20.5 8.5t-8.5 20.5zM292 752h-20l-87 136l34 17z" />
    <glyph glyph-name="Aringacute" unicode="&#x1fa;" horiz-adv-x="591" 
d="M189 775q0 31 15.5 56.5t41.5 39.5l127 79l10 -40l-66 -29q38 -8 63 -37.5t25 -68.5t-24 -68.5t-60 -37.5l255 -669h-36l-86 230h-320l-86 -230h-33l255 670q-35 8 -58 37.5t-23 67.5zM291 645l-145 -385h297l-144 385h-8zM214 775q0 -34 23 -57.5t56 -25.5h4q35 0 59 24
t24 59t-24 59t-59 24t-59 -24t-24 -59z" />
    <glyph glyph-name="aringacute" unicode="&#x1fb;" horiz-adv-x="491" 
d="M343 93v183l-105 -28q-83 -22 -118.5 -51t-35.5 -75q0 -49 28.5 -77t77.5 -28q35 0 77 19.5t76 56.5zM449 37l11 -24q-29 -24 -57 -24q-55 0 -60 70q-81 -70 -159 -70q-54 0 -92 34.5t-38 94.5q0 63 43 97t132 57l114 30v23q0 128 -113 128q-67 0 -142 -52l-15 24
q82 56 160 56q60 0 100 -37.5t40 -114.5v-223q0 -45 7.5 -67t27.5 -22q14 0 41 20zM156 636q0 -29 20 -49t49 -20t49 20t20 49t-20 49t-49 20t-49 -20t-20 -49zM131 636q0 39 27.5 66.5t66.5 27.5t66.5 -27.5t27.5 -66.5t-27.5 -66.5t-66.5 -27.5t-66.5 27.5t-27.5 66.5z
M199 768h-23l130 133l27 -30z" />
    <glyph glyph-name="AEacute" unicode="&#x1fc;" horiz-adv-x="846" 
d="M784 0h-356v230h-260l-125 -230h-33l378 692h392l-5 -30h-315v-295h272v-30h-272v-307h329zM403 662l-219 -402h244v402h-25zM491 741h-23l130 133l27 -30z" />
    <glyph glyph-name="aeacute" unicode="&#x1fd;" horiz-adv-x="795" 
d="M373 238q0 -96 51.5 -158.5t148.5 -62.5q75 0 152 61l17 -25q-27 -20 -46.5 -32t-53.5 -22t-72 -10q-68 0 -120 30t-80 86q-82 -116 -190 -116q-52 0 -89 35t-37 94q0 66 46.5 103t128.5 42l114 6v47q0 137 -111 137q-69 0 -144 -52l-15 24q82 56 162 56q54 0 91.5 -31.5
t43.5 -98.5q24 60 71.5 95t109.5 35q83 0 130.5 -56.5t47.5 -161.5l-356 -19v-6zM343 228v15l-105 -6q-79 -4 -116.5 -35t-37.5 -80t28.5 -77t77.5 -28q91 0 169 115q-16 45 -16 96zM552 453q-70 0 -119 -51t-58 -131l323 17q-6 80 -43.5 122.5t-102.5 42.5zM393 571h-20
l72 153l34 -17z" />
    <glyph glyph-name="Oslashacute" unicode="&#x1fe;" horiz-adv-x="774" 
d="M706 348q0 -70 -19 -133t-56.5 -114t-100.5 -81.5t-143 -30.5q-128 0 -212 79l-73 -90l-21 19l75 92q-88 102 -88 259q0 68 20.5 130.5t59.5 113t101 80.5t138 30q125 0 207 -76l69 85l21 -19l-70 -86q92 -99 92 -258zM672 350q0 143 -77 233l-399 -490q77 -75 191 -75
q127 0 206 86t79 246zM102 347q0 -143 74 -233l399 489q-75 70 -188 70q-122 0 -203.5 -87t-81.5 -239zM366 741h-23l130 133l27 -30z" />
    <glyph glyph-name="oslashacute" unicode="&#x1ff;" horiz-adv-x="575" 
d="M513 235q0 -109 -62.5 -177.5t-163.5 -68.5q-87 0 -147 52l-50 -61l-19 17l51 62q-60 69 -60 176q0 108 62 177t163 69q83 0 143 -50l51 61l19 -17l-51 -62q64 -69 64 -178zM483 233q0 99 -52 158l-272 -328q50 -46 128 -46q80 0 138 56t58 160zM92 235q0 -98 48 -154
l272 328q-51 44 -125 44q-81 0 -138 -55.5t-57 -162.5zM290 571h-20l72 153l34 -17z" />
    <glyph glyph-name="Scommaaccent" unicode="&#x218;" horiz-adv-x="505" 
d="M64 38l14 29q84 -49 170 -49q78 0 124 39.5t46 103.5q0 54 -37.5 90.5t-126.5 83.5q-5 3 -27.5 15l-29 15.5l-26 14.5t-26 16.5t-22 17.5t-21.5 20l-16 21t-14 25t-7.5 27t-3.5 31q0 76 58.5 120t147.5 44q78 0 159 -37l-13 -28q-76 36 -146 36q-78 0 -125 -37t-47 -97
q0 -55 38.5 -89t139.5 -88l58 -32.5t47.5 -31.5t40.5 -37.5t23 -42.5t10 -54q0 -75 -55.5 -125t-151.5 -50q-93 0 -181 49zM239 -230l-20 19q25 28 25 54q0 23 -21 47q0 15 8.5 23.5t20.5 8.5q34 0 34 -44q0 -59 -47 -108z" />
    <glyph glyph-name="scommaaccent" unicode="&#x219;" horiz-adv-x="427" 
d="M52 35l14 27q75 -45 143 -45q62 0 95.5 27t33.5 70q0 34 -27.5 59.5t-66.5 42.5l-78 35.5t-66.5 49t-27.5 71.5q0 45 36.5 77t109.5 32q71 0 132 -36l-14 -24q-58 32 -119 32q-49 0 -82 -21t-33 -61q0 -34 27.5 -59.5t66.5 -43l78 -36t66.5 -48t27.5 -68.5
q0 -54 -41 -90.5t-120 -36.5t-155 46zM200 -230l-20 19q25 28 25 54q0 23 -21 47q0 15 8.5 23.5t20.5 8.5q34 0 34 -44q0 -59 -47 -108z" />
    <glyph glyph-name="uni021A" unicode="&#x21a;" horiz-adv-x="539" 
d="M507 665h-222v-665h-32v665h-226v27h485zM254 -230l-20 19q25 28 25 54q0 23 -21 47q0 15 8.5 23.5t20.5 8.5q34 0 34 -44q0 -59 -47 -108z" />
    <glyph glyph-name="uni021B" unicode="&#x21b;" horiz-adv-x="348" 
d="M307 53l17 -23q-52 -41 -110 -41q-118 0 -118 144v310h-65v28h65v127l30 8v-135h181l-6 -28h-175v-307q0 -64 22.5 -91t66.5 -27q46 0 92 35zM176 -230l-20 19q25 28 25 54q0 23 -21 47q0 15 8.5 23.5t20.5 8.5q34 0 34 -44q0 -59 -47 -108z" />
    <glyph glyph-name="dotlessj" unicode="&#x237;" horiz-adv-x="212" 
d="M121 471v-530q0 -82 -25 -128.5t-85 -82.5l-15 23q44 29 58 47q37 44 37 127v544h30z" />
    <glyph glyph-name="schwa" unicode="&#x259;" horiz-adv-x="519" 
d="M66 228h361v4q0 99 -46.5 160t-139.5 61q-86 0 -161 -58l-17 25q85 61 178 61q99 0 157.5 -65t58.5 -180q0 -109 -54.5 -178t-153.5 -69q-87 0 -135 61t-48 178zM252 17q79 0 122 52t52 133h-328q9 -185 154 -185z" />
    <glyph glyph-name="uni02BC" unicode="&#x2bc;" horiz-adv-x="210" 
d="M91 574l-20 15q23 29 23 63q0 25 -19 50q0 13 8 20.5t19 7.5q31 0 31 -49q0 -61 -42 -107z" />
    <glyph glyph-name="circumflex" unicode="&#x2c6;" horiz-adv-x="384" 
d="M333 586l-19 -13l-122 117l-124 -117l-17 13l123 129h35z" />
    <glyph glyph-name="caron" unicode="&#x2c7;" horiz-adv-x="384" 
d="M314 713l19 -13l-124 -129h-35l-123 129l17 13l124 -117z" />
    <glyph glyph-name="uni02C9" unicode="&#x2c9;" horiz-adv-x="384" 
d="M71 623v32h242v-32h-242z" />
    <glyph glyph-name="breve" unicode="&#x2d8;" horiz-adv-x="384" 
d="M331 701q0 -50 -35 -89.5t-104 -39.5q-65 0 -102 36t-37 93h24q12 -101 115 -101q50 0 80 27t35 74h24z" />
    <glyph glyph-name="dotaccent" unicode="&#x2d9;" horiz-adv-x="384" 
d="M157 637q0 14 10.5 24.5t24.5 10.5t24.5 -10.5t10.5 -24.5t-10.5 -24.5t-24.5 -10.5t-24.5 10.5t-10.5 24.5z" />
    <glyph glyph-name="ring" unicode="&#x2da;" horiz-adv-x="384" 
d="M123 655q0 -29 20 -49t49 -20t49 20t20 49t-20 49t-49 20t-49 -20t-20 -49zM98 655q0 39 27.5 66.5t66.5 27.5t66.5 -27.5t27.5 -66.5t-27.5 -66.5t-66.5 -27.5t-66.5 27.5t-27.5 66.5z" />
    <glyph glyph-name="ogonek" unicode="&#x2db;" horiz-adv-x="384" 
d="M279 -167l11 -23q-39 -25 -80 -25q-47 0 -72.5 26t-25.5 71q0 77 85 126h35q-38 -19 -64.5 -52t-26.5 -70q0 -74 72 -74q33 0 66 21z" />
    <glyph glyph-name="tilde" unicode="&#x2dc;" horiz-adv-x="384" 
d="M351 688q-3 -41 -23 -70t-64 -29q-34 0 -78 35.5t-67 35.5q-25 0 -39 -21t-19 -49h-27q13 98 89 98q33 0 76.5 -35.5t66.5 -35.5q26 0 41.5 20t17.5 51h26z" />
    <glyph glyph-name="hungarumlaut" unicode="&#x2dd;" horiz-adv-x="384" 
d="M104 571h-20l72 153l32 -17zM254 571h-20l87 143l32 -17z" />
    <glyph glyph-name="gravecomb" unicode="&#x300;" horiz-adv-x="0" 
d="M-92 572h-20l-87 136l34 17z" />
    <glyph glyph-name="acutecomb" unicode="&#x301;" horiz-adv-x="0" 
d="M-236 571h-20l72 153l34 -17z" />
    <glyph glyph-name="circumflexcomb" unicode="&#x302;" horiz-adv-x="0" 
d="M-79 586l-19 -13l-122 117l-124 -117l-17 13l123 129h35z" />
    <glyph glyph-name="tildecomb" unicode="&#x303;" horiz-adv-x="0" 
d="M-68 688q-3 -41 -23 -70t-64 -29q-34 0 -78 35.5t-67 35.5q-25 0 -39 -21t-19 -49h-27q13 98 89 98q33 0 76.5 -35.5t66.5 -35.5q26 0 41.5 20t17.5 51h26z" />
    <glyph glyph-name="macroncomb" unicode="&#x304;" horiz-adv-x="0" 
d="M-336 623v32h242v-32h-242z" />
    <glyph glyph-name="brevecomb" unicode="&#x306;" horiz-adv-x="0" 
d="M-70 701q0 -50 -35 -89.5t-104 -39.5q-65 0 -102 36t-37 93h24q12 -101 115 -101q50 0 80 27t35 74h24z" />
    <glyph glyph-name="dotaccentcomb" unicode="&#x307;" horiz-adv-x="0" 
d="M-165 637q0 14 10.5 24.5t24.5 10.5t24.5 -10.5t10.5 -24.5t-10.5 -24.5t-24.5 -10.5t-24.5 10.5t-10.5 24.5z" />
    <glyph glyph-name="dieresiscomb" unicode="&#x308;" horiz-adv-x="0" 
d="M-326 632q0 12 8.5 20.5t20.5 8.5t20.5 -8.5t8.5 -20.5t-8.5 -20.5t-20.5 -8.5t-20.5 8.5t-8.5 20.5zM-152 632q0 12 8.5 20.5t20.5 8.5t20.5 -8.5t8.5 -20.5t-8.5 -20.5t-20.5 -8.5t-20.5 8.5t-8.5 20.5z" />
    <glyph glyph-name="ringcomb" unicode="&#x30a;" horiz-adv-x="0" 
d="M-245 655q0 -29 20 -49t49 -20t49 20t20 49t-20 49t-49 20t-49 -20t-20 -49zM-270 655q0 39 27.5 66.5t66.5 27.5t66.5 -27.5t27.5 -66.5t-27.5 -66.5t-66.5 -27.5t-66.5 27.5t-27.5 66.5z" />
    <glyph glyph-name="hungarumlautcomb" unicode="&#x30b;" horiz-adv-x="0" 
d="M-395 571h-20l72 153l32 -17zM-245 571h-20l87 143l32 -17z" />
    <glyph glyph-name="caroncomb" unicode="&#x30c;" horiz-adv-x="0" 
d="M-98 713l19 -13l-124 -129h-35l-123 129l17 13l124 -117z" />
    <glyph glyph-name="commaaccentcomb" unicode="&#x326;" horiz-adv-x="0" 
d="M93 -230l-20 19q25 28 25 54q0 23 -21 47q0 15 8.5 23.5t20.5 8.5q34 0 34 -44q0 -59 -47 -108z" />
    <glyph glyph-name="cedillacomb" unicode="&#x327;" horiz-adv-x="0" 
d="M-70 -133q0 -40 -26.5 -61t-66.5 -21q-28 0 -56 11l8 27q24 -10 48 -10q28 0 45 14t17 37q0 28 -23 43.5t-58 17.5l26 83h32l-20 -66q74 -16 74 -75z" />
    <glyph glyph-name="ogonekcomb" unicode="&#x328;" horiz-adv-x="0" 
d="M-66 -167l11 -23q-39 -25 -80 -25q-47 0 -72.5 26t-25.5 71q0 77 85 126h35q-38 -19 -64.5 -52t-26.5 -70q0 -74 72 -74q33 0 66 21z" />
    <glyph glyph-name="uni0374" unicode="&#x374;" horiz-adv-x="169" 
d="M75 730h42l-32 -220h-23z" />
    <glyph glyph-name="uni0375" unicode="&#x375;" horiz-adv-x="169" 
d="M94 -132h-42l32 220h23z" />
    <glyph glyph-name="uni037E" unicode="&#x37e;" horiz-adv-x="289" 
d="M116 441q0 13 8.5 21.5t21.5 8.5t21.5 -8.5t8.5 -21.5t-8.5 -21.5t-21.5 -8.5t-21.5 8.5t-8.5 21.5zM132 -109l-21 15q23 41 23 73q0 27 -18 47q0 14 8.5 21.5t19.5 7.5q31 0 31 -40q0 -68 -43 -124z" />
    <glyph glyph-name="tonos" unicode="&#x384;" horiz-adv-x="384" 
d="M180 580l-16 5l45 150l35 -12z" />
    <glyph glyph-name="dieresistonos" unicode="&#x385;" horiz-adv-x="384" 
d="M115 632q0 -12 -8.5 -20.5t-20.5 -8.5t-20.5 8.5t-8.5 20.5t8.5 20.5t20.5 8.5t20.5 -8.5t8.5 -20.5zM329 632q0 -12 -8.5 -20.5t-20.5 -8.5t-20.5 8.5t-8.5 20.5t8.5 20.5t20.5 8.5t20.5 -8.5t8.5 -20.5zM180 580l-16 5l45 150l35 -12z" />
    <glyph glyph-name="Alphatonos" unicode="&#x386;" horiz-adv-x="591" 
d="M15 0l264 692h34l263 -692h-36l-86 230h-320l-86 -230h-33zM294 652l-148 -392h297l-147 392h-2zM73 554l-16 5l45 150l35 -12z" />
    <glyph glyph-name="anoteleia" unicode="&#x387;" horiz-adv-x="286" 
d="M113 377q0 13 8.5 21.5t21.5 8.5t21.5 -8.5t8.5 -21.5t-8.5 -21.5t-21.5 -8.5t-21.5 8.5t-8.5 21.5z" />
    <glyph glyph-name="Epsilontonos" unicode="&#x388;" horiz-adv-x="561" 
d="M499 0h-356v692h352l-5 -30h-315v-295h272v-30h-272v-307h329zM-4 554l-16 5l45 150l35 -12z" />
    <glyph glyph-name="Etatonos" unicode="&#x389;" horiz-adv-x="740" 
d="M643 0h-32v337h-436v-337h-32v692h32v-325h436v325h32v-692zM-4 554l-16 5l45 150l35 -12z" />
    <glyph glyph-name="Iotatonos" unicode="&#x38a;" horiz-adv-x="273" 
d="M176 0h-32v692h32v-692zM-4 554l-16 5l45 150l35 -12z" />
    <glyph glyph-name="Omicrontonos" unicode="&#x38c;" horiz-adv-x="770" 
d="M-4 554l-16 5l45 150l35 -12zM668 350q0 145 -77.5 234t-207.5 89q-122 0 -203.5 -87t-81.5 -239q0 -148 80 -238.5t205 -90.5q127 0 206 86t79 246zM702 348q0 -70 -19 -133t-56.5 -114t-100.5 -81.5t-143 -30.5q-81 0 -145 32.5t-100.5 85.5t-55 114.5t-18.5 126.5
q0 68 20.5 130.5t59.5 113t101 80.5t138 30q103 0 177.5 -52.5t108 -131t33.5 -170.5z" />
    <glyph glyph-name="Upsilontonos" unicode="&#x38e;" horiz-adv-x="663" 
d="M-4 554l-16 5l45 150l35 -12zM597 692h36l-246 -393v-299h-32v299l-244 393h36l224 -365z" />
    <glyph glyph-name="Omegatonos" unicode="&#x38f;" horiz-adv-x="778" 
d="M720 27l-5 -27h-231v27q95 55 143.5 144t48.5 190q0 152 -79.5 232t-205.5 80q-125 0 -205 -80.5t-80 -232.5q0 -100 48.5 -189t143.5 -144v-27h-231l-5 27h193q-90 54 -136.5 146.5t-46.5 192.5q0 145 83.5 240.5t235.5 95.5t235.5 -95.5t83.5 -240.5q0 -99 -48 -191.5
t-139 -147.5h197zM-4 554l-16 5l45 150l35 -12z" />
    <glyph glyph-name="iotadieresistonos" unicode="&#x390;" horiz-adv-x="251" 
d="M221 41l15 -23q-29 -29 -67 -29q-80 0 -80 120v362h30v-347q0 -58 12 -82.5t38 -24.5q25 0 52 24zM37 632q0 -12 -8.5 -20.5t-20.5 -8.5t-20.5 8.5t-8.5 20.5t8.5 20.5t20.5 8.5t20.5 -8.5t8.5 -20.5zM251 632q0 -12 -8.5 -20.5t-20.5 -8.5t-20.5 8.5t-8.5 20.5t8.5 20.5
t20.5 8.5t20.5 -8.5t8.5 -20.5zM102 580l-16 5l45 150l35 -12z" />
    <glyph glyph-name="Alpha" unicode="&#x391;" horiz-adv-x="591" 
d="M15 0l264 692h34l263 -692h-36l-86 230h-320l-86 -230h-33zM294 652l-148 -392h297l-147 392h-2z" />
    <glyph glyph-name="Beta" unicode="&#x392;" horiz-adv-x="556" 
d="M462 186q0 152 -223 152h-110v-309h108q225 0 225 157zM416 516q0 74 -50 110.5t-135 36.5h-102v-296h93q85 0 139.5 36t54.5 113zM496 187q0 -94 -66 -140.5t-181 -46.5h-152v692h134q98 0 158.5 -41.5t60.5 -129.5q0 -116 -120 -162v-2q74 -12 120 -53t46 -117z" />
    <glyph glyph-name="Gamma" unicode="&#x393;" horiz-adv-x="436" 
d="M411 664h-282v-664h-32v692h319z" />
    <glyph glyph-name="uni0394" unicode="&#x394;" horiz-adv-x="599" 
d="M33 0l-7 17l257 675h34l257 -675l-7 -17h-534zM298 653l-235 -624h470l-233 624h-2z" />
    <glyph glyph-name="Epsilon" unicode="&#x395;" horiz-adv-x="515" 
d="M453 0h-356v692h352l-5 -30h-315v-295h272v-30h-272v-307h329z" />
    <glyph glyph-name="Zeta" unicode="&#x396;" horiz-adv-x="636" 
d="M573 684l-467 -656h480l-5 -28h-525v7l467 657h-436v28h486v-8z" />
    <glyph glyph-name="Eta" unicode="&#x397;" horiz-adv-x="694" 
d="M597 0h-32v337h-436v-337h-32v692h32v-325h436v325h32v-692z" />
    <glyph glyph-name="Theta" unicode="&#x398;" horiz-adv-x="774" 
d="M239 337v30h289v-30h-289zM672 350q0 145 -77.5 234t-207.5 89q-122 0 -203.5 -87t-81.5 -239q0 -148 80 -238.5t205 -90.5q127 0 206 86t79 246zM706 348q0 -70 -19 -133t-56.5 -114t-100.5 -81.5t-143 -30.5q-81 0 -145 32.5t-100.5 85.5t-55 114.5t-18.5 126.5
q0 68 20.5 130.5t59.5 113t101 80.5t138 30q103 0 177.5 -52.5t108 -131t33.5 -170.5z" />
    <glyph glyph-name="Iota" unicode="&#x399;" horiz-adv-x="226" 
d="M129 0h-32v692h32v-692z" />
    <glyph glyph-name="Kappa" unicode="&#x39a;" horiz-adv-x="549" 
d="M527 0h-45l-353 356v-356h-32v692h32v-330l335 330h44l-340 -331z" />
    <glyph glyph-name="Lambda" unicode="&#x39b;" horiz-adv-x="591" 
d="M540 0l-244 652h-2l-246 -652h-33l264 692h34l263 -692h-36z" />
    <glyph glyph-name="Mu" unicode="&#x39c;" horiz-adv-x="866" 
d="M769 0h-32v643h-2l-290 -643h-25l-291 643h-2v-643h-30v692h43l294 -651l293 651h42v-692z" />
    <glyph glyph-name="Nu" unicode="&#x39d;" horiz-adv-x="725" 
d="M628 692v-692h-29l-468 645h-2v-645h-32v692h37l460 -633h2v633h32z" />
    <glyph glyph-name="Xi" unicode="&#x39e;" horiz-adv-x="534" 
d="M65 662l4 30h411l-4 -30h-411zM32 0l4 30h466l-4 -30h-466zM87 337v30h356v-30h-356z" />
    <glyph glyph-name="Omicron" unicode="&#x39f;" horiz-adv-x="774" 
d="M672 350q0 145 -77.5 234t-207.5 89q-122 0 -203.5 -87t-81.5 -239q0 -148 80 -238.5t205 -90.5q127 0 206 86t79 246zM706 348q0 -70 -19 -133t-56.5 -114t-100.5 -81.5t-143 -30.5q-81 0 -145 32.5t-100.5 85.5t-55 114.5t-18.5 126.5q0 68 20.5 130.5t59.5 113
t101 80.5t138 30q103 0 177.5 -52.5t108 -131t33.5 -170.5z" />
    <glyph glyph-name="Pi" unicode="&#x3a0;" horiz-adv-x="684" 
d="M587 0h-32v662h-426v-662h-32v692h490v-692z" />
    <glyph glyph-name="Rho" unicode="&#x3a1;" horiz-adv-x="529" 
d="M457 484q0 92 -54 135t-163 43h-111v-322q75 -27 144 -27q82 0 133 47.5t51 123.5zM491 485q0 -85 -57.5 -143.5t-157.5 -58.5q-66 0 -147 26v-309h-32v692h153q241 0 241 -207z" />
    <glyph glyph-name="Sigma" unicode="&#x3a3;" horiz-adv-x="543" 
d="M479 664h-384l255 -307l-274 -329h432l-4 -28h-482v7l290 348l-275 329v8h446z" />
    <glyph glyph-name="Tau" unicode="&#x3a4;" horiz-adv-x="539" 
d="M507 665h-222v-665h-32v665h-226v27h485z" />
    <glyph glyph-name="Upsilon" unicode="&#x3a5;" horiz-adv-x="588" 
d="M522 692h36l-246 -393v-299h-32v299l-244 393h36l224 -365z" />
    <glyph glyph-name="Phi" unicode="&#x3a6;" horiz-adv-x="708" 
d="M370 -10h-32v90h-8q-135 0 -214.5 68.5t-79.5 197.5q0 123 76.5 194t214.5 72h11v90h32v-90h9q141 -1 217 -71t76 -190q0 -133 -77.5 -201.5t-217.5 -69.5h-7v-90zM638 351q0 120 -71.5 175.5t-186.5 56.5h-10v-474h7q261 2 261 242zM70 345q0 -64 21 -111t58.5 -73.5
t82 -39t98.5 -12.5h8v474h-11q-113 0 -185 -57.5t-72 -180.5z" />
    <glyph glyph-name="Chi" unicode="&#x3a7;" horiz-adv-x="631" 
d="M58 692h39l223 -317l229 317h37l-247 -340l250 -352h-40l-230 329l-244 -329h-39l264 351z" />
    <glyph glyph-name="Psi" unicode="&#x3a8;" horiz-adv-x="697" 
d="M364 0h-32v202q-124 3 -200 65.5t-76 181.5v243h32v-240q0 -110 65.5 -164t178.5 -57v461h32v-461q112 3 178.5 56.5t66.5 160.5v244h32v-243q0 -117 -77.5 -179.5t-199.5 -67.5v-202z" />
    <glyph glyph-name="uni03A9" unicode="&#x3a9;" horiz-adv-x="774" 
d="M716 27l-5 -27h-231v27q95 55 143.5 144t48.5 190q0 152 -79.5 232t-205.5 80q-125 0 -205 -80.5t-80 -232.5q0 -100 48.5 -189t143.5 -144v-27h-231l-5 27h193q-90 54 -136.5 146.5t-46.5 192.5q0 145 83.5 240.5t235.5 95.5t235.5 -95.5t83.5 -240.5q0 -99 -48 -191.5
t-139 -147.5h197z" />
    <glyph glyph-name="Iotadieresis" unicode="&#x3aa;" horiz-adv-x="226" 
d="M129 0h-32v692h32v-692zM-3 805q0 12 8.5 20.5t20.5 8.5t20.5 -8.5t8.5 -20.5t-8.5 -20.5t-20.5 -8.5t-20.5 8.5t-8.5 20.5zM171 805q0 12 8.5 20.5t20.5 8.5t20.5 -8.5t8.5 -20.5t-8.5 -20.5t-20.5 -8.5t-20.5 8.5t-8.5 20.5z" />
    <glyph glyph-name="Upsilondieresis" unicode="&#x3ab;" horiz-adv-x="588" 
d="M522 692h36l-246 -393v-299h-32v299l-244 393h36l224 -365zM178 805q0 12 8.5 20.5t20.5 8.5t20.5 -8.5t8.5 -20.5t-8.5 -20.5t-20.5 -8.5t-20.5 8.5t-8.5 20.5zM352 805q0 12 8.5 20.5t20.5 8.5t20.5 -8.5t8.5 -20.5t-8.5 -20.5t-20.5 -8.5t-20.5 8.5t-8.5 20.5z" />
    <glyph glyph-name="alphatonos" unicode="&#x3ac;" horiz-adv-x="561" 
d="M532 35l14 -22q-28 -24 -57 -24q-61 0 -69 91q-69 -91 -163 -91q-86 0 -140.5 65.5t-54.5 176.5q0 107 58 178.5t150 71.5q101 0 154 -82q6 42 21 72h33q-29 -59 -29 -160v-187q0 -107 40 -107q20 0 43 18zM419 323q0 28 1 40q-53 90 -150 90q-78 0 -128 -62.5
t-50 -160.5q0 -89 44 -151t123 -62q49 0 90.5 28t69.5 69v209zM273 580l-16 5l45 150l35 -12z" />
    <glyph glyph-name="epsilontonos" unicode="&#x3ad;" horiz-adv-x="458" 
d="M404 442l-16 -25q-61 36 -138 36q-70 0 -110 -25.5t-40 -74.5q0 -93 132 -93h110l-6 -28h-104q-62 0 -102 -24.5t-40 -78.5q0 -57 44 -84.5t117 -27.5q86 0 154 47l15 -24q-75 -51 -170 -51q-91 0 -140.5 36.5t-49.5 102.5q0 90 96 118q-86 26 -86 106q0 57 45.5 93
t133.5 36q89 0 155 -39zM237 580l-16 5l45 150l35 -12z" />
    <glyph glyph-name="etatonos" unicode="&#x3ae;" horiz-adv-x="532" 
d="M447 -211l-30 -8v548q0 57 -28.5 90.5t-77.5 33.5q-85 0 -190 -102v-351h-30v334q0 81 -31 133l27 14q26 -48 32 -99q112 99 198 99q55 0 92.5 -40.5t37.5 -108.5v-543zM264 580l-16 5l45 150l35 -12z" />
    <glyph glyph-name="iotatonos" unicode="&#x3af;" horiz-adv-x="251" 
d="M221 41l15 -23q-29 -29 -67 -29q-80 0 -80 120v362h30v-347q0 -58 12 -82.5t38 -24.5q25 0 52 24zM113 580l-16 5l45 150l35 -12z" />
    <glyph glyph-name="upsilondieresistonos" unicode="&#x3b0;" horiz-adv-x="527" 
d="M85 471h30v-308q0 -71 38 -108.5t109 -37.5q86 0 129.5 58.5t43.5 151.5q0 144 -78 239l25 17q83 -112 83 -256q0 -108 -53 -173t-150 -65q-74 0 -125.5 41.5t-51.5 127.5v313zM176 632q0 -12 -8.5 -20.5t-20.5 -8.5t-20.5 8.5t-8.5 20.5t8.5 20.5t20.5 8.5t20.5 -8.5
t8.5 -20.5zM390 632q0 -12 -8.5 -20.5t-20.5 -8.5t-20.5 8.5t-8.5 20.5t8.5 20.5t20.5 8.5t20.5 -8.5t8.5 -20.5zM241 580l-16 5l45 150l35 -12z" />
    <glyph glyph-name="alpha" unicode="&#x3b1;" horiz-adv-x="561" 
d="M532 35l14 -22q-28 -24 -57 -24q-61 0 -69 91q-69 -91 -163 -91q-86 0 -140.5 65.5t-54.5 176.5q0 107 58 178.5t150 71.5q101 0 154 -82q6 42 21 72h33q-29 -59 -29 -160v-187q0 -107 40 -107q20 0 43 18zM419 323q0 28 1 40q-53 90 -150 90q-78 0 -128 -62.5
t-50 -160.5q0 -89 44 -151t123 -62q49 0 90.5 28t69.5 69v209z" />
    <glyph glyph-name="beta" unicode="&#x3b2;" horiz-adv-x="549" 
d="M291 -11q-93 0 -170 64v-264l-30 -8v719q0 104 45.5 157t132.5 53q73 0 122 -46.5t49 -121.5q0 -55 -29.5 -99t-82.5 -64q75 -19 117 -68.5t42 -121.5q0 -88 -54.5 -144t-141.5 -56zM121 481v-394q77 -70 170 -70q77 0 121.5 48.5t44.5 123.5q0 83 -56 128t-130 45h-41
v28h43q55 0 96 42t41 109q0 56 -37.5 98.5t-103.5 42.5q-47 0 -78 -17t-45.5 -48.5t-19.5 -62.5t-5 -73z" />
    <glyph glyph-name="gamma" unicode="&#x3b3;" horiz-adv-x="471" 
d="M232 -219h-30q0 71 12 128q-3 139 -67 293.5t-134 268.5h33q62 -101 118.5 -232t71.5 -254q16 44 47 104.5l54.5 106t44.5 119t27 156.5h31q-6 -88 -31 -170t-53 -134l-63.5 -119t-52.5 -114q1 -7 1 -20q0 -85 -9 -133z" />
    <glyph glyph-name="delta" unicode="&#x3b4;" horiz-adv-x="575" 
d="M62 219q0 83 53.5 145.5t145.5 87.5q-59 34 -90.5 66.5t-31.5 76.5q0 55 39.5 85t101.5 30q109 0 208 -65l-15 -25q-93 62 -191 62q-56 0 -84 -24t-28 -63q0 -37 35.5 -69t86 -59t100.5 -58.5t85.5 -81.5t35.5 -113q0 -97 -62 -161t-161 -64t-163.5 64t-64.5 166z
M483 214q0 33 -12 62t-27 49t-44.5 42t-49 34t-55.5 32q-95 -17 -149 -75t-54 -140q0 -94 58.5 -147.5t139.5 -53.5q80 0 136.5 52.5t56.5 144.5z" />
    <glyph glyph-name="epsilon" unicode="&#x3b5;" horiz-adv-x="458" 
d="M404 442l-16 -25q-61 36 -138 36q-70 0 -110 -25.5t-40 -74.5q0 -93 132 -93h110l-6 -28h-104q-62 0 -102 -24.5t-40 -78.5q0 -57 44 -84.5t117 -27.5q86 0 154 47l15 -24q-75 -51 -170 -51q-91 0 -140.5 36.5t-49.5 102.5q0 90 96 118q-86 26 -86 106q0 57 45.5 93
t133.5 36q89 0 155 -39z" />
    <glyph glyph-name="zeta" unicode="&#x3b6;" horiz-adv-x="436" 
d="M386 -53q0 17 -18 27.5t-46.5 17t-63 13.5t-69 21.5t-63 37t-46.5 64t-18 98.5q0 129 93 251.5t223 204.5h-283v28h323l3 -20q-329 -228 -329 -465q0 -54 18 -92t46.5 -57.5t63 -31.5t69 -18.5t63 -14t46.5 -23t18 -39.5q0 -34 -38 -70t-85 -63l-17 20q110 67 110 111z
" />
    <glyph glyph-name="eta" unicode="&#x3b7;" horiz-adv-x="532" 
d="M447 -211l-30 -8v548q0 57 -28.5 90.5t-77.5 33.5q-85 0 -190 -102v-351h-30v334q0 81 -31 133l27 14q26 -48 32 -99q112 99 198 99q55 0 92.5 -40.5t37.5 -108.5v-543z" />
    <glyph glyph-name="theta" unicode="&#x3b8;" horiz-adv-x="542" 
d="M475 346q0 -357 -203 -357q-58 0 -99.5 30t-63.5 83t-32 113t-10 131q0 67 8.5 125t29 115t63 90.5t102.5 33.5q205 0 205 -364zM445 345h-348q0 -157 44.5 -242.5t130.5 -85.5q173 0 173 328zM270 682q-48 0 -83 -27t-53.5 -74.5t-27 -98t-9.5 -109.5h347
q-6 309 -174 309z" />
    <glyph glyph-name="iota" unicode="&#x3b9;" horiz-adv-x="251" 
d="M221 41l15 -23q-29 -29 -67 -29q-80 0 -80 120v362h30v-347q0 -58 12 -82.5t38 -24.5q25 0 52 24z" />
    <glyph glyph-name="kappa" unicode="&#x3ba;" horiz-adv-x="483" 
d="M290 358l-68 -77l152 -183q59 -69 91 -98h-41q-32 30 -71 77l-149 183l-83 -95v-165h-30v471h30v-265l152 173q34 38 50.5 54.5t44.5 31.5t60 15l6 -26q-38 -4 -66 -21.5t-78 -74.5z" />
    <glyph glyph-name="lambda" unicode="&#x3bb;" horiz-adv-x="485" 
d="M344 199l-94 250l-192 -449h-32l210 484l-26 70q-25 67 -47.5 96t-56.5 29q-23 0 -59 -14l-8 25q43 16 71 16q38 0 65.5 -26.5t49.5 -85.5l144 -378q46 -121 118 -199l-23 -19q-72 74 -120 201z" />
    <glyph glyph-name="uni03BC" unicode="&#x3bc;" horiz-adv-x="559" 
d="M91 -219v690h30v-320q0 -65 41.5 -99.5t93.5 -34.5q90 0 170 77v377h30v-366q0 -88 39 -88q13 0 38 20l11 -24q-24 -24 -54 -24q-52 0 -61 74q-85 -74 -176 -74q-85 0 -132 72v-272z" />
    <glyph glyph-name="nu" unicode="&#x3bd;" horiz-adv-x="441" 
d="M211 -5h-21l-179 476h31l164 -437l44 69q45 71 86.5 173t42.5 195h31q-3 -43 -10 -82.5t-22 -80.5l-25.5 -68t-34.5 -69.5l-33.5 -59t-39 -62t-34.5 -54.5z" />
    <glyph glyph-name="xi" unicode="&#x3be;" horiz-adv-x="431" 
d="M92 188q0 -61 33.5 -97.5t81 -50t95 -22t81 -24t33.5 -45.5q0 -34 -38 -70t-85 -63l-17 20q110 67 110 111q0 19 -33.5 30t-81 20.5t-95 25.5t-81 57.5t-33.5 104.5q0 67 46 119.5t140 70.5q-55 17 -90.5 52.5t-35.5 87.5q0 113 175 167h-218v28h298l3 -20
q-228 -57 -228 -173q0 -60 51.5 -95t123.5 -35h32l-6 -28h-41q-90 0 -155 -44.5t-65 -126.5z" />
    <glyph glyph-name="omicron" unicode="&#x3bf;" horiz-adv-x="565" 
d="M473 233q0 108 -56.5 164t-134.5 56q-80 0 -135 -55t-55 -163t55 -163t135 -55q77 0 134 56t57 160zM503 235q0 -109 -60.5 -177.5t-160.5 -68.5t-160 68.5t-60 177.5q0 108 60.5 177t159.5 69q100 0 160.5 -68.5t60.5 -177.5z" />
    <glyph glyph-name="pi" unicode="&#x3c0;" horiz-adv-x="616" 
d="M570 40l14 -24q-38 -27 -77 -27q-89 0 -89 142v312h-247v-234q0 -135 -30 -209h-30q30 70 30 201v242h-48q-51 0 -87 -18l-6 26q40 20 95 20h489l-6 -28h-130v-299q0 -69 15 -98t48 -29q30 0 59 23z" />
    <glyph glyph-name="rho" unicode="&#x3c1;" horiz-adv-x="563" 
d="M278 -11q-87 0 -163 69v-269l-30 -8v481q0 103 59 161t147 58q99 0 154.5 -62t55.5 -174q0 -114 -61 -185t-162 -71zM115 255v-160q78 -78 163 -78q87 0 140 61t53 166q0 96 -45 152.5t-135 56.5q-71 0 -123.5 -48t-52.5 -150z" />
    <glyph glyph-name="sigma1" unicode="&#x3c2;" horiz-adv-x="448" 
d="M293 -184l-17 20q110 67 110 111q0 17 -18 27.5t-46.5 17t-63 13.5t-69 21.5t-63 37t-46.5 64t-18 98.5q0 113 63 184t161 71q83 0 142 -48l-18 -22q-50 42 -123 42q-85 0 -140 -62.5t-55 -166.5q0 -62 24 -103.5t60 -58.5t78 -29t78 -17.5t60 -22t24 -44.5
q0 -34 -38 -70t-85 -63z" />
    <glyph glyph-name="sigma" unicode="&#x3c3;" horiz-adv-x="589" 
d="M558 443h-173q125 -82 125 -220q0 -106 -62 -170t-159 -64q-100 0 -163.5 66.5t-63.5 173.5q0 112 70.5 177t188.5 65h243zM480 221q0 149 -142 222h-13q-105 0 -169 -56t-64 -157q0 -102 58.5 -157.5t139.5 -55.5q79 0 134.5 53t55.5 151z" />
    <glyph glyph-name="tau" unicode="&#x3c4;" horiz-adv-x="394" 
d="M366 443h-173v-309q0 -117 72 -117q33 0 71 32l14 -24q-40 -36 -85 -36q-102 0 -102 134v320h-70q-51 0 -87 -18l-6 26q40 20 95 20h277z" />
    <glyph glyph-name="upsilon" unicode="&#x3c5;" horiz-adv-x="527" 
d="M85 471h30v-308q0 -71 38 -108.5t109 -37.5q86 0 129.5 58.5t43.5 151.5q0 144 -78 239l25 17q83 -112 83 -256q0 -108 -53 -173t-150 -65q-74 0 -125.5 41.5t-51.5 127.5v313z" />
    <glyph glyph-name="phi" unicode="&#x3c6;" horiz-adv-x="684" 
d="M92 240q0 -111 62.5 -165.5t168.5 -57.5v299q0 165 114 165q77 0 131 -66.5t54 -169.5q0 -114 -69.5 -183t-199.5 -73v-200l-30 -8v208q-129 4 -195 71.5t-66 178.5q0 141 94 226l20 -19q-84 -80 -84 -206zM353 303v-286q110 3 174.5 60.5t64.5 166.5q0 96 -45 152.5
t-110 56.5q-47 0 -65.5 -36t-18.5 -114z" />
    <glyph glyph-name="chi" unicode="&#x3c7;" horiz-adv-x="470" 
d="M326 -13l-67 155l-198 -361h-37q33 53 134 235l87 158l-69 161q-13 31 -21 47t-20 33t-26 24t-33 7q-24 0 -57 -13l-8 25q43 16 69 16q36 0 62.5 -26t52.5 -86l67 -157l148 266h31l-165 -298l73 -169q54 -126 126 -189l-21 -19q-71 59 -128 191z" />
    <glyph glyph-name="psi" unicode="&#x3c8;" horiz-adv-x="704" 
d="M367 -211l-30 -8v208h-10q-105 0 -173.5 54.5t-68.5 167.5v260h30v-261q0 -90 52.5 -141.5t159.5 -51.5h10v581l30 8v-589h10q107 0 159.5 51t52.5 142v261h30v-260q0 -58 -19.5 -102t-54 -69.5t-77 -38t-91.5 -12.5h-10v-200z" />
    <glyph glyph-name="omega" unicode="&#x3c9;" horiz-adv-x="756" 
d="M572 452l18 23q104 -88 104 -256q0 -104 -43 -167t-123 -63q-58 0 -96.5 40.5t-53.5 107.5q-16 -67 -53.5 -107.5t-96.5 -40.5q-79 0 -122.5 63t-43.5 167q0 165 105 256l18 -23q-93 -79 -93 -233q0 -91 35.5 -146.5t100.5 -55.5q71 0 103 65t32 168v89l30 8v-97
q0 -65 12 -115t43.5 -84t80.5 -34q64 0 99.5 55.5t35.5 144.5q0 160 -92 235z" />
    <glyph glyph-name="iotadieresis" unicode="&#x3ca;" horiz-adv-x="251" 
d="M221 41l15 -23q-29 -29 -67 -29q-80 0 -80 120v362h30v-347q0 -58 12 -82.5t38 -24.5q25 0 52 24zM-7 632q0 12 8.5 20.5t20.5 8.5t20.5 -8.5t8.5 -20.5t-8.5 -20.5t-20.5 -8.5t-20.5 8.5t-8.5 20.5zM167 632q0 12 8.5 20.5t20.5 8.5t20.5 -8.5t8.5 -20.5t-8.5 -20.5
t-20.5 -8.5t-20.5 8.5t-8.5 20.5z" />
    <glyph glyph-name="upsilondieresis" unicode="&#x3cb;" horiz-adv-x="527" 
d="M85 471h30v-308q0 -71 38 -108.5t109 -37.5q86 0 129.5 58.5t43.5 151.5q0 144 -78 239l25 17q83 -112 83 -256q0 -108 -53 -173t-150 -65q-74 0 -125.5 41.5t-51.5 127.5v313zM140 632q0 12 8.5 20.5t20.5 8.5t20.5 -8.5t8.5 -20.5t-8.5 -20.5t-20.5 -8.5t-20.5 8.5
t-8.5 20.5zM314 632q0 12 8.5 20.5t20.5 8.5t20.5 -8.5t8.5 -20.5t-8.5 -20.5t-20.5 -8.5t-20.5 8.5t-8.5 20.5z" />
    <glyph glyph-name="omicrontonos" unicode="&#x3cc;" horiz-adv-x="565" 
d="M473 233q0 108 -56.5 164t-134.5 56q-80 0 -135 -55t-55 -163t55 -163t135 -55q77 0 134 56t57 160zM503 235q0 -109 -60.5 -177.5t-160.5 -68.5t-160 68.5t-60 177.5q0 108 60.5 177t159.5 69q100 0 160.5 -68.5t60.5 -177.5zM287 580l-16 5l45 150l35 -12z" />
    <glyph glyph-name="upsilontonos" unicode="&#x3cd;" horiz-adv-x="527" 
d="M85 471h30v-308q0 -71 38 -108.5t109 -37.5q86 0 129.5 58.5t43.5 151.5q0 144 -78 239l25 17q83 -112 83 -256q0 -108 -53 -173t-150 -65q-74 0 -125.5 41.5t-51.5 127.5v313zM251 580l-16 5l45 150l35 -12z" />
    <glyph glyph-name="omegatonos" unicode="&#x3ce;" horiz-adv-x="756" 
d="M572 452l18 23q104 -88 104 -256q0 -104 -43 -167t-123 -63q-58 0 -96.5 40.5t-53.5 107.5q-16 -67 -53.5 -107.5t-96.5 -40.5q-79 0 -122.5 63t-43.5 167q0 165 105 256l18 -23q-93 -79 -93 -233q0 -91 35.5 -146.5t100.5 -55.5q71 0 103 65t32 168v89l30 8v-97
q0 -65 12 -115t43.5 -84t80.5 -34q64 0 99.5 55.5t35.5 144.5q0 160 -92 235zM372 580l-16 5l45 150l35 -12z" />
    <glyph glyph-name="uni0400" unicode="&#x400;" horiz-adv-x="515" 
d="M453 0h-356v692h352l-5 -30h-315v-295h272v-30h-272v-307h329zM321 741h-23l-134 103l27 30z" />
    <glyph glyph-name="uni0401" unicode="&#x401;" horiz-adv-x="515" 
d="M453 0h-356v692h352l-5 -30h-315v-295h272v-30h-272v-307h329zM160 805q0 12 8.5 20.5t20.5 8.5t20.5 -8.5t8.5 -20.5t-8.5 -20.5t-20.5 -8.5t-20.5 8.5t-8.5 20.5zM334 805q0 12 8.5 20.5t20.5 8.5t20.5 -8.5t8.5 -20.5t-8.5 -20.5t-20.5 -8.5t-20.5 8.5t-8.5 20.5z" />
    <glyph glyph-name="uni0402" unicode="&#x402;" horiz-adv-x="731" 
d="M507 665h-222v-206h138q137 0 197.5 -55t60.5 -170q0 -118 -64.5 -176t-173.5 -58h-47v27h36q113 0 164 53t51 154q0 110 -56 152.5t-179 42.5h-127v-429h-32v665h-226v27h485z" />
    <glyph glyph-name="uni0403" unicode="&#x403;" horiz-adv-x="436" 
d="M411 664h-282v-664h-32v692h319zM212 741h-23l130 133l27 -30z" />
    <glyph glyph-name="uni0404" unicode="&#x404;" horiz-adv-x="674" 
d="M582 659l-13 -27q-75 41 -165 41q-135 0 -215.5 -87.5t-86.5 -218.5h396v-30h-396q3 -146 84.5 -232.5t215.5 -86.5q117 0 205 70l17 -25q-98 -74 -223 -74q-152 0 -242.5 99.5t-90.5 253.5q0 156 92 258t244 102q96 0 178 -43z" />
    <glyph glyph-name="uni0405" unicode="&#x405;" horiz-adv-x="505" 
d="M64 38l14 29q84 -49 170 -49q78 0 124 39.5t46 103.5q0 54 -37.5 90.5t-126.5 83.5q-5 3 -27.5 15l-29 15.5l-26 14.5t-26 16.5t-22 17.5t-21.5 20l-16 21t-14 25t-7.5 27t-3.5 31q0 76 58.5 120t147.5 44q78 0 159 -37l-13 -28q-76 36 -146 36q-78 0 -125 -37t-47 -97
q0 -55 38.5 -89t139.5 -88l58 -32.5t47.5 -31.5t40.5 -37.5t23 -42.5t10 -54q0 -75 -55.5 -125t-151.5 -50q-93 0 -181 49z" />
    <glyph glyph-name="uni0406" unicode="&#x406;" horiz-adv-x="226" 
d="M129 0h-32v692h32v-692z" />
    <glyph glyph-name="uni0407" unicode="&#x407;" horiz-adv-x="226" 
d="M129 0h-32v692h32v-692zM-3 805q0 12 8.5 20.5t20.5 8.5t20.5 -8.5t8.5 -20.5t-8.5 -20.5t-20.5 -8.5t-20.5 8.5t-8.5 20.5zM171 805q0 12 8.5 20.5t20.5 8.5t20.5 -8.5t8.5 -20.5t-8.5 -20.5t-20.5 -8.5t-20.5 8.5t-8.5 20.5z" />
    <glyph glyph-name="uni0408" unicode="&#x408;" horiz-adv-x="226" 
d="M-43 -195l-10 27q80 11 115 62t35 165v633h32v-625q0 -122 -38 -186.5t-134 -75.5z" />
    <glyph glyph-name="uni0409" unicode="&#x409;" horiz-adv-x="984" 
d="M220 692h337v-308h89q141 0 204.5 -47.5t63.5 -142.5q0 -97 -67 -145.5t-181 -48.5h-141v662h-276l-44 -408q-5 -48 -9.5 -77t-16 -67t-27.5 -59t-43 -36t-64 -15h-20v29h20q63 0 88.5 51t39.5 176zM880 193q0 89 -59 125t-186 36h-78v-327h84q128 0 183.5 41.5
t55.5 124.5z" />
    <glyph glyph-name="uni040A" unicode="&#x40a;" horiz-adv-x="994" 
d="M535 692h32v-325h89q141 0 204.5 -45t63.5 -137q0 -91 -67.5 -138t-180.5 -47h-141v337h-406v-337h-32v692h32v-325h406v325zM890 184q0 85 -59 119t-186 34h-78v-310h84q127 0 183 40.5t56 116.5z" />
    <glyph glyph-name="uni040B" unicode="&#x40b;" horiz-adv-x="748" 
d="M507 665h-222v-275q61 42 112.5 63.5t113.5 21.5q71 0 114 -42.5t43 -115.5v-317h-32v303q0 143 -133 143q-102 0 -218 -88v-358h-32v665h-226v27h485z" />
    <glyph glyph-name="uni040C" unicode="&#x40c;" horiz-adv-x="571" 
d="M129 0h-32v692h32v-325q51 8 88.5 35.5t57 63.5l40.5 76l40 73t55 55t85 22h15v-29h-15q-48 0 -80.5 -26t-52 -66l-39.5 -81.5t-56 -79t-87 -52.5q96 -3 154 -45.5t101 -126.5l94 -186h-37l-86 173q-45 90 -103 126.5t-149 36.5h-25v-336zM278 741h-23l130 133l27 -30z
" />
    <glyph glyph-name="uni040D" unicode="&#x40d;" horiz-adv-x="725" 
d="M97 692v-692h29l468 645h2v-645h32v692h-37l-460 -633h-2v633h-32zM404 741h-23l-134 103l27 30z" />
    <glyph glyph-name="uni040E" unicode="&#x40e;" horiz-adv-x="556" 
d="M51 0v29h40q73 0 112.5 22.5t69.5 75.5l-258 565h34l242 -530q10 21 45 105l175 425h34l-181 -438q-21 -51 -33 -77.5t-31 -61.5t-36 -51.5t-41.5 -33.5t-55 -23.5t-69.5 -6.5h-47zM423 875q0 -48 -36 -86.5t-103 -38.5q-64 0 -101.5 35t-37.5 90h31q10 -99 108 -99
q48 0 75.5 26.5t32.5 72.5h31z" />
    <glyph glyph-name="uni040F" unicode="&#x40f;" horiz-adv-x="684" 
d="M587 0h-227l-6 -155h-24l-7 155h-226v692h32v-662h426v662h32v-692z" />
    <glyph glyph-name="uni0410" unicode="&#x410;" horiz-adv-x="591" 
d="M15 0l264 692h34l263 -692h-36l-86 230h-320l-86 -230h-33zM294 652l-148 -392h297l-147 392h-2z" />
    <glyph glyph-name="uni0411" unicode="&#x411;" horiz-adv-x="546" 
d="M431 665h-302v-281h89q141 0 204.5 -47.5t63.5 -142.5q0 -97 -67 -145.5t-181 -48.5h-141v692h339zM452 193q0 89 -59 125t-186 36h-78v-327h84q128 0 183.5 41.5t55.5 124.5z" />
    <glyph glyph-name="uni0412" unicode="&#x412;" horiz-adv-x="556" 
d="M462 186q0 152 -223 152h-110v-309h108q225 0 225 157zM416 516q0 74 -50 110.5t-135 36.5h-102v-296h93q85 0 139.5 36t54.5 113zM496 187q0 -94 -66 -140.5t-181 -46.5h-152v692h134q98 0 158.5 -41.5t60.5 -129.5q0 -116 -120 -162v-2q74 -12 120 -53t46 -117z" />
    <glyph glyph-name="uni0413" unicode="&#x413;" horiz-adv-x="436" 
d="M411 664h-282v-664h-32v692h319z" />
    <glyph glyph-name="uni0414" unicode="&#x414;" horiz-adv-x="717" 
d="M620 0h-523v-155h-27l-10 185h51q38 20 58 73.5t31 152.5l47 436h347v-662h63l-10 -185h-27v155zM276 662l-44 -408q-9 -85 -25 -140t-52 -84h407v632h-286z" />
    <glyph glyph-name="uni0415" unicode="&#x415;" horiz-adv-x="515" 
d="M453 0h-356v692h352l-5 -30h-315v-295h272v-30h-272v-307h329z" />
    <glyph glyph-name="uni0416" unicode="&#x416;" horiz-adv-x="916" 
d="M442 367v325h32v-325q51 8 88.5 35.5t57 63.5l40.5 76l40 73t55 55t85 22h15v-29h-15q-48 0 -80.5 -26t-52.5 -66l-40 -81.5t-55.5 -79t-86.5 -52.5q97 -3 154.5 -45t100.5 -127l94 -186h-37l-86 173q-45 90 -103 126.5t-149 36.5h-25v-336h-32v336h-25q-91 0 -149 -36.5
t-103 -126.5l-86 -173h-37l94 186q43 85 100.5 127t154.5 45q-51 15 -87 52.5t-56 79l-39.5 81.5t-52 66t-80.5 26h-15v29h15q49 0 85 -22t55 -55l40 -73l40.5 -76t57 -63.5t88.5 -35.5z" />
    <glyph glyph-name="uni0417" unicode="&#x417;" horiz-adv-x="516" 
d="M72 616l-16 27q51 30 93.5 44.5t99.5 14.5q87 0 139 -48.5t52 -121.5q0 -127 -155 -170q82 -18 126.5 -63.5t44.5 -112.5q0 -85 -58.5 -141t-159.5 -56q-106 0 -201 59l16 28q89 -58 187 -58q77 0 129.5 43t52.5 124q0 71 -58 116t-185 45h-41v30h39q119 0 174 42.5
t55 109.5q0 68 -46.5 106.5t-111.5 38.5q-86 0 -176 -57z" />
    <glyph glyph-name="uni0418" unicode="&#x418;" horiz-adv-x="725" 
d="M97 0v692h32v-633h2l460 633h37v-692h-32v645h-2l-468 -645h-29z" />
    <glyph glyph-name="uni0419" unicode="&#x419;" horiz-adv-x="725" 
d="M97 692v-692h29l468 645h2v-645h32v692h-37l-460 -633h-2v633h-32zM500 875q0 -48 -36 -86.5t-103 -38.5q-64 0 -101.5 35t-37.5 90h31q10 -99 108 -99q48 0 75.5 26.5t32.5 72.5h31z" />
    <glyph glyph-name="uni041A" unicode="&#x41a;" horiz-adv-x="571" 
d="M129 0h-32v692h32v-325q51 8 88.5 35.5t57 63.5l40.5 76l40 73t55 55t85 22h15v-29h-15q-48 0 -80.5 -26t-52 -66l-39.5 -81.5t-56 -79t-87 -52.5q96 -3 154 -45.5t101 -126.5l94 -186h-37l-86 173q-45 90 -103 126.5t-149 36.5h-25v-336z" />
    <glyph glyph-name="uni041B" unicode="&#x41b;" horiz-adv-x="674" 
d="M577 0h-32v662h-296l-44 -408q-5 -49 -9.5 -77.5t-15.5 -66.5t-27 -59t-43.5 -36t-64.5 -15h-20v29h20q63 0 88.5 51t39.5 176l47 436h357v-692z" />
    <glyph glyph-name="uni041C" unicode="&#x41c;" horiz-adv-x="866" 
d="M769 0h-32v643h-2l-290 -643h-25l-291 643h-2v-643h-30v692h43l294 -651l293 651h42v-692z" />
    <glyph glyph-name="uni041D" unicode="&#x41d;" horiz-adv-x="694" 
d="M597 0h-32v337h-436v-337h-32v692h32v-325h436v325h32v-692z" />
    <glyph glyph-name="uni041E" unicode="&#x41e;" horiz-adv-x="774" 
d="M672 350q0 145 -77.5 234t-207.5 89q-122 0 -203.5 -87t-81.5 -239q0 -148 80 -238.5t205 -90.5q127 0 206 86t79 246zM706 348q0 -70 -19 -133t-56.5 -114t-100.5 -81.5t-143 -30.5q-81 0 -145 32.5t-100.5 85.5t-55 114.5t-18.5 126.5q0 68 20.5 130.5t59.5 113
t101 80.5t138 30q103 0 177.5 -52.5t108 -131t33.5 -170.5z" />
    <glyph glyph-name="uni041F" unicode="&#x41f;" horiz-adv-x="684" 
d="M587 0h-32v662h-426v-662h-32v692h490v-692z" />
    <glyph glyph-name="uni0420" unicode="&#x420;" horiz-adv-x="529" 
d="M457 484q0 92 -54 135t-163 43h-111v-322q75 -27 144 -27q82 0 133 47.5t51 123.5zM491 485q0 -85 -57.5 -143.5t-157.5 -58.5q-66 0 -147 26v-309h-32v692h153q241 0 241 -207z" />
    <glyph glyph-name="uni0421" unicode="&#x421;" horiz-adv-x="674" 
d="M582 659l-13 -27q-75 41 -165 41q-140 0 -221 -94t-81 -231q0 -151 81.5 -240.5t218.5 -89.5q117 0 205 70l17 -25q-98 -74 -223 -74q-152 0 -242.5 99.5t-90.5 253.5q0 156 92 258t244 102q96 0 178 -43z" />
    <glyph glyph-name="uni0422" unicode="&#x422;" horiz-adv-x="539" 
d="M507 665h-222v-665h-32v665h-226v27h485z" />
    <glyph glyph-name="uni0423" unicode="&#x423;" horiz-adv-x="556" 
d="M51 0v29h40q73 0 112.5 22.5t69.5 75.5l-258 565h34l242 -530q10 21 45 105l175 425h34l-181 -438q-21 -51 -33 -77.5t-31 -61.5t-36 -51.5t-41.5 -33.5t-55 -23.5t-69.5 -6.5h-47z" />
    <glyph glyph-name="uni0424" unicode="&#x424;" horiz-adv-x="708" 
d="M370 -10h-32v90h-8q-135 0 -214.5 68.5t-79.5 197.5q0 123 76.5 194t214.5 72h11v90h32v-90h9q141 -1 217 -71t76 -190q0 -133 -77.5 -201.5t-217.5 -69.5h-7v-90zM638 351q0 120 -71.5 175.5t-186.5 56.5h-10v-474h7q261 2 261 242zM70 345q0 -64 21 -111t58.5 -73.5
t82 -39t98.5 -12.5h8v474h-11q-113 0 -185 -57.5t-72 -180.5z" />
    <glyph glyph-name="uni0425" unicode="&#x425;" horiz-adv-x="631" 
d="M58 692h39l223 -317l229 317h37l-247 -340l250 -352h-40l-230 329l-244 -329h-39l264 351z" />
    <glyph glyph-name="uni0426" unicode="&#x426;" horiz-adv-x="691" 
d="M594 0h-497v692h32v-662h426v662h32v-662h44l-10 -185h-27v155z" />
    <glyph glyph-name="uni0427" unicode="&#x427;" horiz-adv-x="638" 
d="M542 0h-32v300q-139 -47 -253 -47q-186 0 -186 210v229h32v-215q0 -102 40 -148.5t120 -46.5q108 0 247 47v363h32v-692z" />
    <glyph glyph-name="uni0428" unicode="&#x428;" horiz-adv-x="926" 
d="M829 0h-732v692h32v-662h318v662h32v-662h318v662h32v-692z" />
    <glyph glyph-name="uni0429" unicode="&#x429;" horiz-adv-x="933" 
d="M97 0v692h32v-662h318v662h32v-662h318v662h32v-662h44l-10 -185h-27v155h-739z" />
    <glyph glyph-name="uni042A" unicode="&#x42a;" horiz-adv-x="712" 
d="M27 665v27h258v-308h89q141 0 204.5 -47.5t63.5 -142.5q0 -97 -67 -145.5t-181 -48.5h-141v665h-226zM608 193q0 89 -59 125t-186 36h-78v-327h84q128 0 183.5 41.5t55.5 124.5z" />
    <glyph glyph-name="uni042B" unicode="&#x42b;" horiz-adv-x="762" 
d="M97 692h32v-308h89q141 0 204.5 -47.5t63.5 -142.5q0 -97 -67 -145.5t-181 -48.5h-141v692zM452 193q0 89 -59 125t-186 36h-78v-327h84q128 0 183.5 41.5t55.5 124.5zM665 0h-32v692h32v-692z" />
    <glyph glyph-name="uni042C" unicode="&#x42c;" horiz-adv-x="556" 
d="M97 692h32v-308h89q141 0 204.5 -47.5t63.5 -142.5q0 -97 -67 -145.5t-181 -48.5h-141v692zM452 193q0 89 -59 125t-186 36h-78v-327h84q128 0 183.5 41.5t55.5 124.5z" />
    <glyph glyph-name="uni042D" unicode="&#x42d;" horiz-adv-x="674" 
d="M105 632l-13 27q82 43 178 43q152 0 244 -102t92 -258q0 -154 -90.5 -253.5t-242.5 -99.5q-125 0 -223 74l17 25q88 -70 205 -70q134 0 215.5 86.5t84.5 232.5h-408v30h407q-6 131 -86 218.5t-215 87.5q-90 0 -165 -41z" />
    <glyph glyph-name="uni042E" unicode="&#x42e;" horiz-adv-x="1045" 
d="M977 348q0 -70 -19 -133t-56.5 -114t-100.5 -81.5t-143 -30.5t-142.5 31t-99.5 82t-56 111t-21 124h-210v-337h-32v692h32v-325h210q4 89 40 163t108.5 123t170.5 49q103 0 177.5 -52.5t108 -131t33.5 -170.5zM943 350q0 145 -77.5 234t-207.5 89q-122 0 -203.5 -87
t-81.5 -239q0 -148 80 -238.5t205 -90.5q127 0 206 86t79 246z" />
    <glyph glyph-name="uni042F" unicode="&#x42f;" horiz-adv-x="586" 
d="M151 512q0 -76 59.5 -114.5t145.5 -38.5h101v303h-108q-103 0 -150.5 -40.5t-47.5 -109.5zM59 0h-37l89 176q68 137 168 163v2q-84 19 -123 64.5t-39 107.5q0 89 62 134t163 45h147v-692h-32v329h-75q-90 0 -143.5 -37t-97.5 -126z" />
    <glyph glyph-name="uni0430" unicode="&#x430;" horiz-adv-x="491" 
d="M343 93v183l-105 -28q-83 -22 -118.5 -51t-35.5 -75q0 -49 28.5 -77t77.5 -28q35 0 77 19.5t76 56.5zM449 37l11 -24q-29 -24 -57 -24q-55 0 -60 70q-81 -70 -159 -70q-54 0 -92 34.5t-38 94.5q0 63 43 97t132 57l114 30v23q0 128 -113 128q-67 0 -142 -52l-15 24
q82 56 160 56q60 0 100 -37.5t40 -114.5v-223q0 -45 7.5 -67t27.5 -22q14 0 41 20z" />
    <glyph glyph-name="uni0431" unicode="&#x431;" horiz-adv-x="568" 
d="M92 340q20 45 71 81.5t129 36.5q96 0 155 -62.5t59 -168.5q0 -103 -61.5 -170.5t-158.5 -67.5q-102 0 -163 72.5t-61 207.5q0 195 50.5 298t167.5 114q29 3 68 4.5t62.5 3.5t41.5 7l5 -28q-20 -6 -47 -8t-65 -3.5t-61 -3.5q-42 -4 -74.5 -23t-53 -47t-34 -69t-20 -81.5
t-10.5 -92.5zM476 223q0 97 -49.5 152t-136.5 55q-88 0 -142.5 -54.5t-54.5 -130.5q0 -92 49 -160t144 -68q83 0 136.5 57.5t53.5 148.5z" />
    <glyph glyph-name="uni0432" unicode="&#x432;" horiz-adv-x="490" 
d="M402 128q0 57 -40 79.5t-120 22.5h-121v-202h125q156 0 156 100zM381 355q0 43 -32.5 65.5t-87.5 22.5h-140v-185h114q146 0 146 97zM432 129q0 -65 -47 -97t-130 -32h-164v471h170q65 0 107.5 -28t42.5 -86q0 -83 -88 -110v-1q109 -21 109 -117z" />
    <glyph glyph-name="uni0433" unicode="&#x433;" horiz-adv-x="337" 
d="M121 0h-30v471h236l-6 -28h-200v-443z" />
    <glyph glyph-name="uni0434" unicode="&#x434;" horiz-adv-x="575" 
d="M527 28l-8 -153h-26v125h-427v-125h-26l-8 153h46q36 19 52.5 55t25.5 105l36 283h272v-443h63zM217 443l-31 -250q-8 -67 -21.5 -104.5t-43.5 -60.5h313v415h-217z" />
    <glyph glyph-name="uni0435" unicode="&#x435;" horiz-adv-x="519" 
d="M453 242h-361v-4q0 -99 48.5 -160t150.5 -61q83 0 158 58l17 -25q-85 -61 -178 -61q-104 0 -165 65t-61 180q0 109 54.5 178t153.5 69q87 0 135 -61t48 -178zM267 453q-79 0 -122 -52t-52 -133h328q-13 185 -154 185z" />
    <glyph glyph-name="uni0436" unicode="&#x436;" horiz-adv-x="740" 
d="M385 0h-30v217h-54q-60 0 -96 -22.5t-71 -82.5l-65 -112h-34l76 130q33 57 71.5 83.5t110.5 26.5h11q-34 16 -59.5 43t-40.5 53.5t-31.5 51.5t-42.5 40t-63 15h-7v28h10q45 0 75.5 -18t49 -47t35.5 -59.5t48.5 -60.5t75.5 -46h1v231h30v-231q44 16 75.5 46t49 60.5
t36 59.5t49 47t75.5 18h10v-28h-7q-37 0 -63 -15t-42.5 -40t-31.5 -51.5t-40.5 -53.5t-59.5 -43h11q71 0 111 -28t71 -82l76 -130h-34l-65 112q-33 57 -70.5 81t-96.5 24h-54v-217z" />
    <glyph glyph-name="uni0437" unicode="&#x437;" horiz-adv-x="453" 
d="M74 416l-14 26q66 39 149 39q84 0 128.5 -36t44.5 -93q0 -80 -96 -106q106 -28 106 -118q0 -66 -48.5 -102.5t-135.5 -36.5q-89 0 -164 51l16 25q70 -48 147 -48q69 0 112 27.5t43 84.5q0 54 -42 78.5t-104 24.5h-93v28h93q136 0 136 93q0 48 -39 74t-105 26
q-71 0 -134 -37z" />
    <glyph glyph-name="uni0438" unicode="&#x438;" horiz-adv-x="554" 
d="M118 0h-27v471h29v-423l316 423h27v-471h-29v423z" />
    <glyph glyph-name="uni0439" unicode="&#x439;" horiz-adv-x="554" 
d="M118 0h-27v471h29v-423l316 423h27v-471h-29v423zM420 702q0 -49 -36 -88t-103 -39q-65 0 -102 35.5t-37 91.5h31q10 -101 108 -101q48 0 75.5 27t32.5 74h31z" />
    <glyph glyph-name="uni043A" unicode="&#x43a;" horiz-adv-x="476" 
d="M121 0h-30v471h30v-231q44 16 75.5 46t49 60.5t36 59.5t49 47t75.5 18h10v-28h-7q-37 0 -63 -15t-42.5 -40t-31.5 -51.5t-40.5 -53.5t-59.5 -43h11q71 0 111 -28t71 -82l76 -130h-34l-68 116q-34 58 -69.5 79.5t-94.5 21.5h-54v-217z" />
    <glyph glyph-name="uni043B" unicode="&#x43b;" horiz-adv-x="527" 
d="M26 0v28h11q41 0 61 42.5t31 127.5l35 273h272v-471h-30v443h-216l-33 -265q-11 -84 -37.5 -131t-80.5 -47h-13z" />
    <glyph glyph-name="uni043C" unicode="&#x43c;" horiz-adv-x="666" 
d="M575 0h-29v415h-1l-200 -415h-27l-197 415h-1v-415h-29v471h34l206 -438h2l208 438h34v-471z" />
    <glyph glyph-name="uni043D" unicode="&#x43d;" horiz-adv-x="554" 
d="M121 0h-30v471h30v-208h312v208h30v-471h-30v235h-312v-235z" />
    <glyph glyph-name="uni043E" unicode="&#x43e;" horiz-adv-x="575" 
d="M483 233q0 109 -57.5 164.5t-138.5 55.5t-138 -55.5t-57 -162.5t57 -162.5t138 -55.5q80 0 138 56t58 160zM513 235q0 -109 -62.5 -177.5t-163.5 -68.5t-163 68.5t-62 177.5q0 108 62 177t163 69t163.5 -69t62.5 -177z" />
    <glyph glyph-name="uni043F" unicode="&#x43f;" horiz-adv-x="532" 
d="M121 0h-30v471h350v-471h-30v443h-290v-443z" />
    <glyph glyph-name="uni0440" unicode="&#x440;" horiz-adv-x="563" 
d="M121 364v-265q36 -42 70.5 -62t83.5 -20q87 0 141.5 62.5t54.5 165.5q0 94 -45.5 151t-125.5 57q-102 0 -179 -89zM121 471v-73q83 83 179 83q88 0 144.5 -62t56.5 -170q0 -111 -60 -185.5t-162 -74.5q-96 0 -158 73v-324l-30 -8v741h30z" />
    <glyph glyph-name="uni0441" unicode="&#x441;" horiz-adv-x="491" 
d="M438 79l20 -22q-72 -68 -168 -68q-108 0 -168 69t-60 188q0 106 60.5 170.5t157.5 64.5q90 0 149 -50l-17 -22q-52 44 -131 44q-85 0 -137 -56.5t-52 -152.5q0 -105 52.5 -166t146.5 -61q80 0 147 62z" />
    <glyph glyph-name="uni0442" unicode="&#x442;" horiz-adv-x="361" 
d="M195 0h-30v443h-150v28h336l-6 -28h-150v-443z" />
    <glyph glyph-name="uni0443" unicode="&#x443;" horiz-adv-x="472" 
d="M191 -41l27 61l-198 451h35l178 -418l189 418h33l-336 -741h-36q53 92 108 229z" />
    <glyph glyph-name="uni0444" unicode="&#x444;" horiz-adv-x="688" 
d="M359 -270h-30v261h-13q-113 0 -183.5 69.5t-70.5 174.5q0 106 69.5 175t184.5 69h13v243l30 8v-251h12q116 0 185.5 -69t69.5 -175q0 -105 -71 -174.5t-184 -69.5h-12v-261zM596 234q0 106 -63.5 162.5t-162.5 56.5h-11v-436h11q93 0 159.5 56t66.5 161zM92 235
q0 -54 20 -97t53 -68.5t72 -39t79 -13.5h13v436h-12q-94 0 -159.5 -57t-65.5 -161z" />
    <glyph glyph-name="uni0445" unicode="&#x445;" horiz-adv-x="453" 
d="M31 471h39l158 -216l161 216h39l-181 -237l184 -234h-42l-164 216l-165 -216h-38l183 237z" />
    <glyph glyph-name="uni0446" unicode="&#x446;" horiz-adv-x="543" 
d="M91 0v471h30v-443h290v443h30v-443h54l-8 -153h-26v125h-370z" />
    <glyph glyph-name="uni0447" unicode="&#x447;" horiz-adv-x="499" 
d="M408 0h-30v220q-107 -33 -175 -33q-146 0 -146 129v155h30v-147q0 -59 30 -84t91 -25q63 0 170 31v225h30v-471z" />
    <glyph glyph-name="uni0448" unicode="&#x448;" horiz-adv-x="800" 
d="M385 471h30v-443h264v443h30v-471h-618v471h30v-443h264v443z" />
    <glyph glyph-name="uni0449" unicode="&#x449;" horiz-adv-x="811" 
d="M91 0v471h30v-443h264v443h30v-443h264v443h30v-443h54l-8 -153h-26v125h-638z" />
    <glyph glyph-name="uni044A" unicode="&#x44a;" horiz-adv-x="561" 
d="M195 471v-182h145q73 0 118.5 -34t45.5 -108q0 -71 -45.5 -109t-118.5 -38h-175v443h-150v28h180zM474 146q0 115 -141 115h-138v-233h136q73 0 108 31.5t35 86.5z" />
    <glyph glyph-name="uni044B" unicode="&#x44b;" horiz-adv-x="694" 
d="M400 146q0 115 -141 115h-138v-233h136q73 0 108 31.5t35 86.5zM121 471v-182h145q73 0 118.5 -34t45.5 -108q0 -71 -45.5 -109t-118.5 -38h-175v471h30zM603 0h-30v471h30v-471z" />
    <glyph glyph-name="uni044C" unicode="&#x44c;" horiz-adv-x="487" 
d="M400 146q0 115 -141 115h-138v-233h136q73 0 108 31.5t35 86.5zM121 471v-182h145q73 0 118.5 -34t45.5 -108q0 -71 -45.5 -109t-118.5 -38h-175v471h30z" />
    <glyph glyph-name="uni044D" unicode="&#x44d;" horiz-adv-x="471" 
d="M32 46l18 24q63 -53 144 -53q86 0 134 56.5t51 156.5h-284v28h284q-4 91 -51.5 143t-127.5 52q-79 0 -131 -44l-17 22q59 50 149 50q94 0 151 -64t57 -171q0 -120 -55.5 -188.5t-158.5 -68.5q-96 0 -163 57z" />
    <glyph glyph-name="uni044E" unicode="&#x44e;" horiz-adv-x="785" 
d="M723 235q0 -109 -62.5 -177.5t-163.5 -68.5t-163 68.5t-62 177.5h-151v-235h-30v471h30v-208h152q8 97 69 157.5t155 60.5q101 0 163.5 -69t62.5 -177zM693 233q0 109 -57.5 164.5t-138.5 55.5t-138 -55.5t-57 -162.5t57 -162.5t138 -55.5q80 0 138 56t58 160z" />
    <glyph glyph-name="uni044F" unicode="&#x44f;" horiz-adv-x="492" 
d="M89 0h-34l42 87q27 56 55.5 82.5t67.5 35.5q-58 11 -94 44t-36 85q0 67 45.5 102t128.5 35h137v-471h-30v196h-80q-46 0 -79.5 -18t-50 -40.5t-34.5 -59.5zM120 333q0 -46 40.5 -77.5t115.5 -31.5h95v219h-100q-81 0 -116 -27.5t-35 -82.5z" />
    <glyph glyph-name="uni0450" unicode="&#x450;" horiz-adv-x="519" 
d="M453 242h-361v-4q0 -99 48.5 -160t150.5 -61q83 0 158 58l17 -25q-85 -61 -178 -61q-104 0 -165 65t-61 180q0 109 54.5 178t153.5 69q87 0 135 -61t48 -178zM267 453q-79 0 -122 -52t-52 -133h328q-13 185 -154 185zM297 572h-20l-87 136l34 17z" />
    <glyph glyph-name="uni0451" unicode="&#x451;" horiz-adv-x="519" 
d="M453 242h-361v-4q0 -99 48.5 -160t150.5 -61q83 0 158 58l17 -25q-85 -61 -178 -61q-104 0 -165 65t-61 180q0 109 54.5 178t153.5 69q87 0 135 -61t48 -178zM267 453q-79 0 -122 -52t-52 -133h328q-13 185 -154 185zM157 632q0 12 8.5 20.5t20.5 8.5t20.5 -8.5
t8.5 -20.5t-8.5 -20.5t-20.5 -8.5t-20.5 8.5t-8.5 20.5zM331 632q0 12 8.5 20.5t20.5 8.5t20.5 -8.5t8.5 -20.5t-8.5 -20.5t-20.5 -8.5t-20.5 8.5t-8.5 20.5z" />
    <glyph glyph-name="uni0452" unicode="&#x452;" horiz-adv-x="532" 
d="M121 0h-30v600h-59v28h59v94l30 8v-102h162v-28h-162v-216q62 52 107 74.5t89 22.5q55 0 92.5 -40.5t37.5 -108.5v-391q0 -82 -25 -128.5t-85 -82.5l-15 23q1 1 11.5 8t13 9l12 9.5t13 11.5l11.5 13.5t11 17t8.5 19.5t7.5 24.5t4 28t2 33.5v402q0 57 -28 90.5t-77 33.5
q-79 0 -190 -102v-351z" />
    <glyph glyph-name="uni0453" unicode="&#x453;" horiz-adv-x="337" 
d="M121 0h-30v471h236l-6 -28h-200v-443zM201 571h-20l72 153l34 -17z" />
    <glyph glyph-name="uni0454" unicode="&#x454;" horiz-adv-x="491" 
d="M438 79l20 -22q-72 -68 -168 -68q-108 0 -168 69t-60 188q0 106 60.5 170.5t157.5 64.5q90 0 149 -50l-17 -22q-52 44 -131 44q-82 0 -133.5 -52.5t-55.5 -142.5h284v-28h-284q3 -99 55.5 -156t143.5 -57q80 0 147 62z" />
    <glyph glyph-name="uni0455" unicode="&#x455;" horiz-adv-x="427" 
d="M52 35l14 27q75 -45 143 -45q62 0 95.5 27t33.5 70q0 34 -27.5 59.5t-66.5 42.5l-78 35.5t-66.5 49t-27.5 71.5q0 45 36.5 77t109.5 32q71 0 132 -36l-14 -24q-58 32 -119 32q-49 0 -82 -21t-33 -61q0 -34 27.5 -59.5t66.5 -43l78 -36t66.5 -48t27.5 -68.5
q0 -54 -41 -90.5t-120 -36.5t-155 46z" />
    <glyph glyph-name="uni0456" unicode="&#x456;" horiz-adv-x="213" 
d="M121 0h-30v471h30v-471zM135 632q0 -11 -9 -19.5t-20 -8.5t-19.5 8.5t-8.5 19.5t8.5 20t19.5 9t20 -9t9 -20z" />
    <glyph glyph-name="uni0457" unicode="&#x457;" horiz-adv-x="213" 
d="M121 0h-30v471h30v-471zM-10 632q0 12 8.5 20.5t20.5 8.5t20.5 -8.5t8.5 -20.5t-8.5 -20.5t-20.5 -8.5t-20.5 8.5t-8.5 20.5zM164 632q0 12 8.5 20.5t20.5 8.5t20.5 -8.5t8.5 -20.5t-8.5 -20.5t-20.5 -8.5t-20.5 8.5t-8.5 20.5z" />
    <glyph glyph-name="uni0458" unicode="&#x458;" horiz-adv-x="212" 
d="M121 471v-530q0 -82 -25 -128.5t-85 -82.5l-15 23q44 29 58 47q37 44 37 127v544h30zM135 632q0 -11 -9 -19.5t-20 -8.5t-19.5 8.5t-8.5 19.5t8.5 20t19.5 9t20 -9t9 -20z" />
    <glyph glyph-name="uni0459" unicode="&#x459;" horiz-adv-x="802" 
d="M26 0v28h11q41 0 61 42.5t31 127.5l35 273h272v-182h145q73 0 118.5 -34t45.5 -108q0 -71 -45.5 -109t-118.5 -38h-175v443h-216l-33 -265q-11 -84 -37.5 -131t-80.5 -47h-13zM715 146q0 115 -141 115h-138v-233h136q73 0 108 31.5t35 86.5z" />
    <glyph glyph-name="uni045A" unicode="&#x45a;" horiz-adv-x="829" 
d="M121 0h-30v471h30v-198h312v198h30v-198h145q73 0 118.5 -33t45.5 -102q0 -67 -45.5 -102.5t-118.5 -35.5h-175v245h-312v-245zM742 137q0 108 -141 108h-138v-217h136q143 0 143 109z" />
    <glyph glyph-name="uni045B" unicode="&#x45b;" horiz-adv-x="532" 
d="M121 0h-30v600h-59v28h59v94l30 8v-102h162v-28h-162v-216q62 52 107 74.5t89 22.5q55 0 92.5 -40.5t37.5 -108.5v-332h-31v329q0 57 -28 90.5t-77 33.5q-79 0 -190 -102v-351z" />
    <glyph glyph-name="uni045C" unicode="&#x45c;" horiz-adv-x="476" 
d="M121 0h-30v471h30v-231q44 16 75.5 46t49 60.5t36 59.5t49 47t75.5 18h10v-28h-7q-37 0 -63 -15t-42.5 -40t-31.5 -51.5t-40.5 -53.5t-59.5 -43h11q71 0 111 -28t71 -82l76 -130h-34l-68 116q-34 58 -69.5 79.5t-94.5 21.5h-54v-217zM242 571h-20l72 153l34 -17z" />
    <glyph glyph-name="uni045D" unicode="&#x45d;" horiz-adv-x="554" 
d="M118 0h-27v471h29v-423l316 423h27v-471h-29v423zM300 572h-20l-87 136l34 17z" />
    <glyph glyph-name="uni045E" unicode="&#x45e;" horiz-adv-x="472" 
d="M191 -41l27 61l-198 451h35l178 -418l189 418h33l-336 -741h-36q53 92 108 229zM377 702q0 -49 -36 -88t-103 -39q-65 0 -102 35.5t-37 91.5h31q10 -101 108 -101q48 0 75.5 27t32.5 74h31z" />
    <glyph glyph-name="uni045F" unicode="&#x45f;" horiz-adv-x="532" 
d="M91 471h30v-443h290v443h30v-471h-159l-5 -125h-20l-7 125h-159v471z" />
    <glyph glyph-name="uni0490" unicode="&#x490;" horiz-adv-x="436" 
d="M381 841h27l10 -177h-289v-664h-32v692h284v149z" />
    <glyph glyph-name="uni0491" unicode="&#x491;" horiz-adv-x="337" 
d="M121 0h-30v471h204v125h26l8 -153h-208v-443z" />
    <glyph glyph-name="uni0492" unicode="&#x492;" horiz-adv-x="436" 
d="M411 664h-282v-307h213v-30h-213v-327h-32v327h-97v30h97v335h319z" />
    <glyph glyph-name="uni0493" unicode="&#x493;" horiz-adv-x="337" 
d="M121 0h-30v244h-91v28h91v199h236l-6 -28h-200v-171h155v-28h-155v-244z" />
    <glyph glyph-name="uni0496" unicode="&#x496;" horiz-adv-x="923" 
d="M442 367v325h32v-325q51 8 88.5 35.5t57 63.5l40.5 76l40 73t55 55t85 22h15v-29h-15q-48 0 -80.5 -26t-52.5 -66l-40 -81.5t-55.5 -79t-86.5 -52.5q97 -3 154.5 -45t100.5 -127l79 -156h44l-10 -185h-27v155h-29l-86 173q-45 90 -103 126.5t-149 36.5h-25v-336h-32v336
h-25q-91 0 -149 -36.5t-103 -126.5l-86 -173h-37l94 186q43 85 100.5 127t154.5 45q-51 15 -87 52.5t-56 79l-39.5 81.5t-52 66t-80.5 26h-15v29h15q49 0 85 -22t55 -55l40 -73l40.5 -76t57 -63.5t88.5 -35.5z" />
    <glyph glyph-name="uni0497" unicode="&#x497;" horiz-adv-x="745" 
d="M385 0h-30v217h-54q-60 0 -96 -22.5t-71 -82.5l-65 -112h-34l76 130q33 57 71.5 83.5t110.5 26.5h11q-34 16 -59.5 43t-40.5 53.5t-31.5 51.5t-42.5 40t-63 15h-7v28h10q45 0 75.5 -18t49 -47t35.5 -59.5t48.5 -60.5t75.5 -46h1v231h30v-231q44 16 75.5 46t49 60.5
t36 59.5t49 47t75.5 18h10v-28h-7q-37 0 -63 -15t-42.5 -40t-31.5 -51.5t-40.5 -53.5t-59.5 -43h11q71 0 111 -28t71 -82l59 -102h37l-8 -153h-26v125h-20l-65 112q-33 57 -70.5 81t-96.5 24h-54v-217z" />
    <glyph glyph-name="uni049A" unicode="&#x49a;" horiz-adv-x="575" 
d="M129 0h-32v692h32v-325q51 8 88.5 35.5t57 63.5l40.5 76l40 73t55 55t85 22h15v-29h-15q-48 0 -80.5 -26t-52 -66l-39.5 -81.5t-56 -79t-87 -52.5q96 -3 154 -45.5t101 -126.5l79 -156h41l-10 -185h-27v155h-26l-86 173q-45 90 -103 126.5t-149 36.5h-25v-336z" />
    <glyph glyph-name="uni049B" unicode="&#x49b;" horiz-adv-x="483" 
d="M121 0h-30v471h30v-231q44 16 75.5 46t49 60.5t36 59.5t49 47t75.5 18h10v-28h-7q-37 0 -63 -15t-42.5 -40t-31.5 -51.5t-40.5 -53.5t-59.5 -43h11q71 0 111 -28t71 -82l59 -102h39l-8 -153h-26v125h-22l-68 116q-34 58 -69.5 79.5t-94.5 21.5h-54v-217z" />
    <glyph glyph-name="uni049C" unicode="&#x49c;" horiz-adv-x="571" 
d="M129 0h-32v692h32v-325q45 7 79 29v196h29v-173q25 24 47 63.5t38 73.5t37.5 66t55 51t80.5 19h15v-29h-15q-43 0 -73 -20.5t-49 -54t-35.5 -69.5t-42 -74t-58.5 -60v-33q70 -13 116 -54t82 -112l94 -186h-37l-86 173q-34 68 -74.5 104.5t-94.5 49.5v-227h-29v232
q-23 4 -54 4h-25v-336zM180 358l28 -2v12q-11 -5 -28 -10z" />
    <glyph glyph-name="uni049D" unicode="&#x49d;" horiz-adv-x="476" 
d="M121 0h-30v471h30v-231q40 14 75 45v126h27v-96q13 17 34.5 52.5t35 53.5t43.5 34t70 16h10v-28h-7q-39 0 -66.5 -18t-41.5 -41l-35 -56.5t-43 -53.5v-37q52 -8 83.5 -34.5t58.5 -72.5l76 -130h-34l-68 116q-27 45 -53.5 67.5t-62.5 29.5v-153h-27v156q-7 1 -21 1h-54
v-217zM172 240h4q11 0 20 -1v14q-8 -5 -24 -13z" />
    <glyph glyph-name="uni04A2" unicode="&#x4a2;" horiz-adv-x="701" 
d="M604 0h-39v337h-436v-337h-32v692h32v-325h436v325h32v-662h44l-10 -185h-27v155z" />
    <glyph glyph-name="uni04A3" unicode="&#x4a3;" horiz-adv-x="565" 
d="M121 0h-30v471h30v-208h312v208h30v-443h54l-8 -153h-26v125h-50v235h-312v-235z" />
    <glyph glyph-name="uni04AE" unicode="&#x4ae;" horiz-adv-x="588" 
d="M522 692h36l-246 -393v-299h-32v299l-244 393h36l224 -365z" />
    <glyph glyph-name="uni04AF" unicode="&#x4af;" horiz-adv-x="420" 
d="M409 471l-185 -449v-284l-30 -8v297l-183 444h31l168 -413l167 413h32z" />
    <glyph glyph-name="uni04B2" unicode="&#x4b2;" horiz-adv-x="635" 
d="M58 692h39l223 -317l229 317h37l-247 -340l228 -322h43l-10 -185h-27v155h-24l-230 329l-244 -329h-39l264 351z" />
    <glyph glyph-name="uni04B3" unicode="&#x4b3;" horiz-adv-x="461" 
d="M31 471h39l158 -216l161 216h39l-181 -237l162 -206h37l-8 -153h-26v125h-23l-164 216l-165 -216h-38l183 237z" />
    <glyph glyph-name="uni04B8" unicode="&#x4b8;" horiz-adv-x="638" 
d="M324 100h-29v154q-13 -1 -38 -1q-186 0 -186 210v229h32v-215q0 -102 40 -148.5t120 -46.5q21 0 32 1v309h29v-307q79 8 186 44v363h32v-692h-32v300q-91 -32 -186 -43v-157z" />
    <glyph glyph-name="uni04B9" unicode="&#x4b9;" horiz-adv-x="499" 
d="M244 60h-27v127h-14q-146 0 -146 129v155h30v-147q0 -59 30 -84t91 -25h9v196h27v-195q46 5 134 30v225h30v-471h-30v220q-75 -24 -134 -31v-129z" />
    <glyph glyph-name="uni04BA" unicode="&#x4ba;" horiz-adv-x="638" 
d="M96 692h32v-300q139 47 253 47q186 0 186 -210v-229h-32v215q0 102 -40 148.5t-120 46.5q-108 0 -247 -47v-363h-32v692z" />
    <glyph glyph-name="uni04BB" unicode="&#x4bb;" horiz-adv-x="499" 
d="M91 471h30v-220q107 33 175 33q146 0 146 -129v-155h-30v147q0 59 -30 84t-91 25q-63 0 -170 -31v-225h-30v471z" />
    <glyph glyph-name="uni04C0" unicode="&#x4c0;" horiz-adv-x="226" 
d="M129 0h-32v692h32v-692z" />
    <glyph glyph-name="uni04CF" unicode="&#x4cf;" horiz-adv-x="213" 
d="M121 0h-30v722l30 8v-730z" />
    <glyph glyph-name="uni04D8" unicode="&#x4d8;" horiz-adv-x="732" 
d="M70 350h560q-1 87 -31 158.5t-96.5 118t-159.5 46.5q-111 0 -224 -74l-16 26q66 40 119 58.5t123 18.5q142 0 230.5 -98.5t88.5 -255.5t-83.5 -258t-224.5 -101q-140 0 -213 92.5t-73 268.5zM357 18q103 0 183.5 75.5t88.5 226.5h-528q12 -302 256 -302z" />
    <glyph glyph-name="uni04D9" unicode="&#x4d9;" horiz-adv-x="519" 
d="M66 228h361v4q0 99 -46.5 160t-139.5 61q-86 0 -161 -58l-17 25q85 61 178 61q99 0 157.5 -65t58.5 -180q0 -109 -54.5 -178t-153.5 -69q-87 0 -135 61t-48 178zM252 17q79 0 122 52t52 133h-328q9 -185 154 -185z" />
    <glyph glyph-name="uni04E8" unicode="&#x4e8;" horiz-adv-x="774" 
d="M706 348q0 -70 -19 -133t-56.5 -114t-100.5 -81.5t-143 -30.5q-81 0 -145 32.5t-100.5 85.5t-55 114.5t-18.5 126.5q0 68 20.5 130.5t59.5 113t101 80.5t138 30q103 0 177.5 -52.5t108 -131t33.5 -170.5zM387 18q124 0 202.5 82.5t82.5 236.5h-570q3 -145 82 -232
t203 -87zM387 673q-117 0 -198 -81.5t-87 -224.5h570q-5 137 -82.5 221.5t-202.5 84.5z" />
    <glyph glyph-name="uni04E9" unicode="&#x4e9;" horiz-adv-x="575" 
d="M513 235q0 -109 -62.5 -177.5t-163.5 -68.5t-163 68.5t-62 177.5q0 108 62 177t163 69t163.5 -69t62.5 -177zM287 17q78 0 135 53t61 152h-391q4 -101 60.5 -153t134.5 -52zM287 453q-78 0 -134.5 -51.5t-60.5 -151.5h390q-5 100 -61.5 151.5t-133.5 51.5z" />
    <glyph glyph-name="Wgrave" unicode="&#x1e80;" horiz-adv-x="1028" 
d="M1010 692l-244 -697h-37l-214 660l-213 -660h-33l-249 697h37l227 -652h2l210 652h40l212 -652h2l226 652h34zM550 741h-23l-134 103l27 30z" />
    <glyph glyph-name="wgrave" unicode="&#x1e81;" horiz-adv-x="772" 
d="M731 471h31l-202 -478h-10l-163 404l-163 -404h-11l-203 478h33l176 -418l163 418h9l165 -418zM404 572h-20l-87 136l34 17z" />
    <glyph glyph-name="Wacute" unicode="&#x1e82;" horiz-adv-x="1028" 
d="M1010 692l-244 -697h-37l-214 660l-213 -660h-33l-249 697h37l227 -652h2l210 652h40l212 -652h2l226 652h34zM500 741h-23l130 133l27 -30z" />
    <glyph glyph-name="wacute" unicode="&#x1e83;" horiz-adv-x="772" 
d="M731 471h31l-202 -478h-10l-163 404l-163 -404h-11l-203 478h33l176 -418l163 418h9l165 -418zM378 571h-20l72 153l34 -17z" />
    <glyph glyph-name="Wdieresis" unicode="&#x1e84;" horiz-adv-x="1028" 
d="M1010 692l-244 -697h-37l-214 660l-213 -660h-33l-249 697h37l227 -652h2l210 652h40l212 -652h2l226 652h34zM398 805q0 12 8.5 20.5t20.5 8.5t20.5 -8.5t8.5 -20.5t-8.5 -20.5t-20.5 -8.5t-20.5 8.5t-8.5 20.5zM572 805q0 12 8.5 20.5t20.5 8.5t20.5 -8.5t8.5 -20.5
t-8.5 -20.5t-20.5 -8.5t-20.5 8.5t-8.5 20.5z" />
    <glyph glyph-name="wdieresis" unicode="&#x1e85;" horiz-adv-x="772" 
d="M731 471h31l-202 -478h-10l-163 404l-163 -404h-11l-203 478h33l176 -418l163 418h9l165 -418zM270 632q0 12 8.5 20.5t20.5 8.5t20.5 -8.5t8.5 -20.5t-8.5 -20.5t-20.5 -8.5t-20.5 8.5t-8.5 20.5zM444 632q0 12 8.5 20.5t20.5 8.5t20.5 -8.5t8.5 -20.5t-8.5 -20.5
t-20.5 -8.5t-20.5 8.5t-8.5 20.5z" />
    <glyph glyph-name="uni1E9E" unicode="&#x1e9e;" horiz-adv-x="655" 
d="M544 616v-5l-207 -224q127 0 195 -46t68 -151q0 -85 -60 -143t-165 -58q-63 0 -134 26l11 30q64 -27 120 -27q86 0 140 47.5t54 123.5q0 87 -56.5 127.5t-170.5 40.5h-52v20l219 235q-65 61 -170 61q-213 0 -213 -241v-432h-32v443q0 124 64.5 191.5t179.5 67.5
q131 0 209 -86z" />
    <glyph glyph-name="Ygrave" unicode="&#x1ef2;" horiz-adv-x="588" 
d="M522 692h36l-246 -393v-299h-32v299l-244 393h36l224 -365zM328 741h-23l-134 103l27 30z" />
    <glyph glyph-name="ygrave" unicode="&#x1ef3;" horiz-adv-x="472" 
d="M191 -41l27 61l-198 451h35l178 -418l189 418h33l-336 -741h-36q53 92 108 229zM250 572h-20l-87 136l34 17z" />
    <glyph glyph-name="uni1FBE" unicode="&#x1fbe;" horiz-adv-x="270" 
d="M191 -237l9 -25q-20 -10 -43 -10q-66 0 -66 111v93h30v-85q0 -91 42 -91q15 0 28 7z" />
    <glyph glyph-name="uni2010" unicode="&#x2010;" horiz-adv-x="318" 
d="M284 271v-30h-251v30h251z" />
    <glyph glyph-name="endash" unicode="&#x2013;" horiz-adv-x="500" 
d="M480 241h-460v30h460v-30z" />
    <glyph glyph-name="emdash" unicode="&#x2014;" horiz-adv-x="700" 
d="M680 241h-660v30h660v-30z" />
    <glyph glyph-name="uni2015" unicode="&#x2015;" horiz-adv-x="700" 
d="M680 241h-660v30h660v-30z" />
    <glyph glyph-name="underscoredbl" unicode="&#x2017;" horiz-adv-x="500" 
d="M503 -49v-30h-506v30h506zM503 -166v-30h-506v30h506z" />
    <glyph glyph-name="quoteleft" unicode="&#x2018;" horiz-adv-x="210" 
d="M120 730l19 -15q-22 -28 -22 -64q0 -24 19 -49q0 -13 -8 -20.5t-19 -7.5q-32 0 -32 49q0 60 43 107z" />
    <glyph glyph-name="quoteright" unicode="&#x2019;" horiz-adv-x="210" 
d="M91 574l-20 15q23 29 23 63q0 25 -19 50q0 13 8 20.5t19 7.5q31 0 31 -49q0 -61 -42 -107z" />
    <glyph glyph-name="quotesinglbase" unicode="&#x201a;" horiz-adv-x="210" 
d="M91 -93l-20 15q23 29 23 63q0 25 -19 50q0 13 8 20.5t19 7.5q31 0 31 -49q0 -61 -42 -107z" />
    <glyph glyph-name="quotereversed" unicode="&#x201b;" horiz-adv-x="210" 
d="M133 589l-20 -15q-42 46 -42 107q0 49 31 49q11 0 19 -7.5t8 -20.5q-19 -25 -19 -50q0 -34 23 -63z" />
    <glyph glyph-name="quotedblleft" unicode="&#x201c;" horiz-adv-x="336" 
d="M120 730l19 -15q-22 -28 -22 -64q0 -24 19 -49q0 -13 -8 -20.5t-19 -7.5q-32 0 -32 49q0 60 43 107zM246 730l19 -15q-22 -28 -22 -64q0 -24 19 -49q0 -13 -8 -20.5t-19 -7.5q-32 0 -32 49q0 60 43 107z" />
    <glyph glyph-name="quotedblright" unicode="&#x201d;" horiz-adv-x="336" 
d="M91 574l-20 15q23 29 23 63q0 25 -19 50q0 13 8 20.5t19 7.5q31 0 31 -49q0 -61 -42 -107zM217 574l-20 15q23 29 23 63q0 25 -19 50q0 13 8 20.5t19 7.5q31 0 31 -49q0 -61 -42 -107z" />
    <glyph glyph-name="quotedblbase" unicode="&#x201e;" horiz-adv-x="336" 
d="M91 -93l-20 15q23 29 23 63q0 25 -19 50q0 13 8 20.5t19 7.5q31 0 31 -49q0 -61 -42 -107zM217 -93l-20 15q23 29 23 63q0 25 -19 50q0 13 8 20.5t19 7.5q31 0 31 -49q0 -61 -42 -107z" />
    <glyph glyph-name="dagger" unicode="&#x2020;" horiz-adv-x="599" 
d="M317 730v-254h218l-5 -30h-213v-627l-32 -8v635h-226v30h226v254h32z" />
    <glyph glyph-name="daggerdbl" unicode="&#x2021;" horiz-adv-x="599" 
d="M317 730v-254h218l-5 -30h-213v-323h218l-5 -30h-213v-274l-32 -8v282h-226v30h226v323h-226v30h226v254h32z" />
    <glyph glyph-name="bullet" unicode="&#x2022;" horiz-adv-x="430" 
d="M335 352q0 -50 -34.5 -85t-83.5 -35q-50 0 -85.5 35t-35.5 85t35.5 84.5t85.5 34.5q49 0 83.5 -34.5t34.5 -84.5z" />
    <glyph glyph-name="ellipsis" unicode="&#x2026;" horiz-adv-x="907" 
d="M116 25q0 13 8.5 21.5t21.5 8.5t21.5 -8.5t8.5 -21.5t-8.5 -21.5t-21.5 -8.5t-21.5 8.5t-8.5 21.5zM425 25q0 13 8.5 21.5t21.5 8.5t21.5 -8.5t8.5 -21.5t-8.5 -21.5t-21.5 -8.5t-21.5 8.5t-8.5 21.5zM734 25q0 13 8.5 21.5t21.5 8.5t21.5 -8.5t8.5 -21.5t-8.5 -21.5
t-21.5 -8.5t-21.5 8.5t-8.5 21.5z" />
    <glyph glyph-name="perthousand" unicode="&#x2030;" horiz-adv-x="1109" 
d="M1029 178q0 76 -28 118t-78 42q-51 0 -77 -41.5t-26 -118.5q0 -163 103 -163q50 0 78 42t28 121zM1062 178q0 -87 -37.5 -137.5t-101.5 -50.5q-63 0 -100 50.5t-37 137.5q0 86 37 136.5t100 50.5q64 0 101.5 -50.5t37.5 -136.5zM290 515q0 76 -28 118t-78 42
q-51 0 -77 -41.5t-26 -118.5q0 -163 103 -163q50 0 78 42t28 121zM323 515q0 -87 -37.5 -137.5t-101.5 -50.5q-63 0 -100 50.5t-37 137.5q0 86 37 136.5t100 50.5q64 0 101.5 -50.5t37.5 -136.5zM603 692l-415 -692h-34l415 692h34zM684 178q0 76 -28 118t-78 42
q-51 0 -77 -41.5t-26 -118.5q0 -163 103 -163q50 0 78 42t28 121zM717 178q0 -87 -37.5 -137.5t-101.5 -50.5q-63 0 -100 50.5t-37 137.5q0 86 37 136.5t100 50.5q64 0 101.5 -50.5t37.5 -136.5z" />
    <glyph glyph-name="minute" unicode="&#x2032;" horiz-adv-x="159" 
d="M59 730h41l-9 -220h-22z" />
    <glyph glyph-name="second" unicode="&#x2033;" horiz-adv-x="314" 
d="M59 730h41l-9 -220h-22zM214 730h41l-9 -220h-22z" />
    <glyph glyph-name="guilsinglleft" unicode="&#x2039;" horiz-adv-x="341" 
d="M74 232v9l169 211l22 -20l-155 -195l157 -187l-22 -20z" />
    <glyph glyph-name="guilsinglright" unicode="&#x203a;" horiz-adv-x="341" 
d="M267 241v-9l-171 -202l-22 20l157 187l-155 195l22 20z" />
    <glyph glyph-name="exclamdbl" unicode="&#x203c;" horiz-adv-x="558" 
d="M122 692h35l-6 -506h-24zM110 25q0 13 8.5 21.5t21.5 8.5t21.5 -8.5t8.5 -21.5t-8.5 -21.5t-21.5 -8.5t-21.5 8.5t-8.5 21.5zM401 692h35l-6 -506h-24zM389 25q0 13 8.5 21.5t21.5 8.5t21.5 -8.5t8.5 -21.5t-8.5 -21.5t-21.5 -8.5t-21.5 8.5t-8.5 21.5z" />
    <glyph glyph-name="interrobang" unicode="&#x203d;" horiz-adv-x="397" 
d="M355 562q0 -41 -26.5 -80t-57.5 -67t-57.5 -72.5t-26.5 -95.5v-61h-28l-3 376h35l-4 -211q17 30 53.5 69t58.5 71.5t22 67.5q0 49 -31.5 82t-98.5 33q-70 0 -134 -51l-18 24q69 55 157 55q77 0 118 -40.5t41 -99.5zM144 25q0 13 8.5 21.5t21.5 8.5t21.5 -8.5t8.5 -21.5
t-8.5 -21.5t-21.5 -8.5t-21.5 8.5t-8.5 21.5z" />
    <glyph glyph-name="uni203E" unicode="&#x203e;" horiz-adv-x="500" 
d="M503 760v-30h-506v30h506z" />
    <glyph glyph-name="fraction" unicode="&#x2044;" horiz-adv-x="168" 
d="M308 692l-415 -692h-33l415 692h33z" />
    <glyph glyph-name="zero.sups" unicode="&#x2070;" horiz-adv-x="310" 
d="M243 573q0 164 -88 164t-88 -164q0 -165 89 -165q87 0 87 165zM270 574q0 -92 -29.5 -140.5t-85.5 -48.5q-62 0 -88.5 55t-26.5 134q0 187 116 187q33 0 56.5 -17t35.5 -45.5t17 -59t5 -65.5z" />
    <glyph glyph-name="four.sups" unicode="&#x2074;" horiz-adv-x="310" 
d="M190 530v171l-127 -171h127zM280 505h-63v-115h-27v115h-166v11l179 242h14v-228h63v-25z" />
    <glyph glyph-name="five.sups" unicode="&#x2075;" horiz-adv-x="310" 
d="M37 415l12 23q45 -29 90 -29q40 0 66.5 22.5t26.5 65.5q0 89 -165 90l7 169h179l-6 -26h-149l-5 -120q166 -6 166 -112q0 -50 -33 -81.5t-88 -31.5q-58 0 -101 30z" />
    <glyph glyph-name="six.sups" unicode="&#x2076;" horiz-adv-x="310" 
d="M252 501q0 41 -24 64t-64 23q-43 0 -70.5 -26t-27.5 -56q0 -40 25.5 -68.5t71.5 -28.5q37 0 63 26t26 66zM279 501q0 -49 -33.5 -82.5t-83.5 -33.5q-57 0 -90.5 37t-33.5 105q0 82 53 148.5t152 89.5l6 -24q-80 -19 -126.5 -66.5t-57.5 -110.5q36 48 101 48q51 0 82 -30
t31 -81z" />
    <glyph glyph-name="seven.sups" unicode="&#x2077;" horiz-adv-x="310" 
d="M284 744l-157 -360l-25 9l150 338h-215v25h247v-12z" />
    <glyph glyph-name="eight.sups" unicode="&#x2078;" horiz-adv-x="310" 
d="M260 678q0 -55 -83 -99q22 -13 34.5 -21t27.5 -21.5t22 -28.5t7 -33q0 -39 -29.5 -64.5t-82.5 -25.5q-51 0 -83.5 25t-32.5 65q0 35 23 58.5t64 45.5q-38 23 -58.5 45t-20.5 54q0 36 28.5 59.5t78.5 23.5q49 0 77 -23t28 -60zM241 473q0 20 -15 38t-30.5 28.5t-44.5 26.5
q-84 -44 -84 -90q0 -32 26.5 -50t64.5 -18q37 0 60 19t23 46zM75 678q0 -43 78 -87q26 14 40.5 24t27 26.5t12.5 34.5q0 29 -21.5 45t-58.5 16q-33 0 -55.5 -16t-22.5 -43z" />
    <glyph glyph-name="nine.sups" unicode="&#x2079;" horiz-adv-x="310" 
d="M61 646q0 -42 23.5 -64.5t63.5 -22.5q43 0 71 26t28 57q0 39 -26 67t-73 28q-37 0 -62 -25.5t-25 -65.5zM34 646q0 49 32 82.5t82 33.5q58 0 92.5 -37.5t34.5 -105.5q0 -83 -49 -149t-140 -88l-6 23q144 40 167 178q-38 -49 -101 -49q-51 0 -81.5 31t-30.5 81z" />
    <glyph glyph-name="plus.sups" unicode="&#x207a;" horiz-adv-x="300" 
d="M163 674v-96h102v-23h-102v-97h-24v97h-103v23h103v96h24z" />
    <glyph glyph-name="minus.sups" unicode="&#x207b;" horiz-adv-x="300" 
d="M265 576v-22h-229v22h229z" />
    <glyph glyph-name="equal.sups" unicode="&#x207c;" horiz-adv-x="300" 
d="M265 511h-229v22h229v-22zM265 600h-229v22h229v-22z" />
    <glyph glyph-name="parenleft.sups" unicode="&#x207d;" horiz-adv-x="228" 
d="M205 312l-10 -14q-148 97 -148 249q0 158 148 253l10 -14q-69 -49 -98.5 -107.5t-29.5 -132.5q0 -139 128 -234z" />
    <glyph glyph-name="parenright.sups" unicode="&#x207e;" horiz-adv-x="228" 
d="M22 785l11 15q148 -97 148 -249q0 -158 -148 -253l-11 14q70 50 99.5 108t29.5 132q0 138 -129 233z" />
    <glyph glyph-name="n.sups" unicode="&#x207f;" horiz-adv-x="409" 
d="M334 381h-26v221q0 37 -20 60t-52 23q-49 0 -128 -68v-236h-27v322h27v-59q79 66 132 66q39 0 66.5 -28t27.5 -74v-227z" />
    <glyph glyph-name="zero.sinf" unicode="&#x2080;" horiz-adv-x="310" 
d="M243 133q0 164 -88 164t-88 -164q0 -165 89 -165q87 0 87 165zM270 134q0 -92 -29.5 -140.5t-85.5 -48.5q-62 0 -88.5 55t-26.5 134q0 187 116 187q33 0 56.5 -17t35.5 -45.5t17 -59t5 -65.5z" />
    <glyph glyph-name="one.sinf" unicode="&#x2081;" horiz-adv-x="240" 
d="M150 -50h-27v332l-75 -46l-12 23l101 62h13v-371z" />
    <glyph glyph-name="two.sinf" unicode="&#x2082;" horiz-adv-x="310" 
d="M54 267l-12 21q46 33 102 33q50 0 78 -27.5t28 -69.5q0 -27 -9.5 -52.5t-40 -63.5t-47 -56l-70.5 -76h185v-26h-231v11l34.5 37l33 35l28.5 31t26 30.5l20.5 26.5t18.5 27t12 24.5t8.5 25t2.5 23.5q0 38 -22.5 56.5t-58.5 18.5q-45 0 -86 -29z" />
    <glyph glyph-name="three.sinf" unicode="&#x2083;" horiz-adv-x="310" 
d="M40 -21l14 22q48 -32 92 -32q39 0 66.5 22t27.5 62q0 87 -148 87v11l125 140h-160v25h211v-2l-136 -152q69 -5 102 -34t33 -72q0 -48 -33 -79.5t-88 -31.5q-57 0 -106 34z" />
    <glyph glyph-name="four.sinf" unicode="&#x2084;" horiz-adv-x="310" 
d="M190 90v171l-127 -171h127zM280 65h-63v-115h-27v115h-166v11l179 242h14v-228h63v-25z" />
    <glyph glyph-name="five.sinf" unicode="&#x2085;" horiz-adv-x="310" 
d="M37 -25l12 23q45 -29 90 -29q40 0 66.5 22.5t26.5 65.5q0 89 -165 90l7 169h179l-6 -26h-149l-5 -120q166 -6 166 -112q0 -50 -33 -81.5t-88 -31.5q-58 0 -101 30z" />
    <glyph glyph-name="six.sinf" unicode="&#x2086;" horiz-adv-x="310" 
d="M252 61q0 41 -24 64t-64 23q-43 0 -70.5 -26t-27.5 -56q0 -40 25.5 -68.5t71.5 -28.5q37 0 63 26t26 66zM279 61q0 -49 -33.5 -82.5t-83.5 -33.5q-57 0 -90.5 37t-33.5 105q0 82 53 148.5t152 89.5l6 -24q-80 -19 -126.5 -66.5t-57.5 -110.5q36 48 101 48q51 0 82 -30
t31 -81z" />
    <glyph glyph-name="seven.sinf" unicode="&#x2087;" horiz-adv-x="310" 
d="M284 304l-157 -360l-25 9l150 338h-215v25h247v-12z" />
    <glyph glyph-name="eight.sinf" unicode="&#x2088;" horiz-adv-x="310" 
d="M260 238q0 -55 -83 -99q22 -13 34.5 -21t27.5 -21.5t22 -28.5t7 -33q0 -39 -29.5 -64.5t-82.5 -25.5q-51 0 -83.5 25t-32.5 65q0 35 23 58.5t64 45.5q-38 23 -58.5 45t-20.5 54q0 36 28.5 59.5t78.5 23.5q49 0 77 -23t28 -60zM241 33q0 20 -15 38t-30.5 28.5t-44.5 26.5
q-84 -44 -84 -90q0 -32 26.5 -50t64.5 -18q37 0 60 19t23 46zM75 238q0 -43 78 -87q26 14 40.5 24t27 26.5t12.5 34.5q0 29 -21.5 45t-58.5 16q-33 0 -55.5 -16t-22.5 -43z" />
    <glyph glyph-name="nine.sinf" unicode="&#x2089;" horiz-adv-x="310" 
d="M61 206q0 -42 23.5 -64.5t63.5 -22.5q43 0 71 26t28 57q0 39 -26 67t-73 28q-37 0 -62 -25.5t-25 -65.5zM34 206q0 49 32 82.5t82 33.5q58 0 92.5 -37.5t34.5 -105.5q0 -83 -49 -149t-140 -88l-6 23q144 40 167 178q-38 -49 -101 -49q-51 0 -81.5 31t-30.5 81z" />
    <glyph glyph-name="plus.subs" unicode="&#x208a;" horiz-adv-x="300" 
d="M163 234v-96h102v-23h-102v-97h-24v97h-103v23h103v96h24z" />
    <glyph glyph-name="minus.subs" unicode="&#x208b;" horiz-adv-x="300" 
d="M265 136v-22h-229v22h229z" />
    <glyph glyph-name="equal.subs" unicode="&#x208c;" horiz-adv-x="300" 
d="M265 71h-229v22h229v-22zM265 160h-229v22h229v-22z" />
    <glyph glyph-name="parenleft.subs" unicode="&#x208d;" horiz-adv-x="228" 
d="M205 -128l-10 -14q-148 97 -148 249q0 158 148 253l10 -14q-69 -49 -98.5 -107.5t-29.5 -132.5q0 -139 128 -234z" />
    <glyph glyph-name="parenright.subs" unicode="&#x208e;" horiz-adv-x="228" 
d="M22 345l11 15q148 -97 148 -249q0 -158 -148 -253l-11 14q70 50 99.5 108t29.5 132q0 138 -129 233z" />
    <glyph glyph-name="colonsign" unicode="&#x20a1;" 
d="M504 742l-231 -718q24 -7 56 -7q56 0 117 46l18 -23q-61 -51 -138 -51q-33 0 -62 8l-15 -47h-31l18 56q-40 19 -65 49l-34 -105h-31l43 135q-55 90 -55 261q0 356 230 356q9 0 23 -2l14 42h31l-15 -47q36 -10 70 -34l26 81h31zM128 345q0 -140 34 -220l177 548
q-6 1 -16 1q-60 0 -100.5 -28t-60 -78.5t-27 -103t-7.5 -119.5zM182 89q25 -37 63 -55l192 597q-29 26 -69 37z" />
    <glyph glyph-name="franc" unicode="&#x20a3;" 
d="M45 154v30h76v508h337l-5 -30h-300v-305h266v-30h-266v-143h156l-7 -30h-149v-154h-32v154h-76z" />
    <glyph glyph-name="lira" unicode="&#x20a4;" 
d="M61 217v30h91q-3 40 -11 87h-80v30h75q-17 93 -17 157q0 78 48 129.5t143 51.5q86 0 160 -55l-18 -24q-66 50 -139 50q-160 0 -160 -159q0 -54 18 -150h209l-7 -30h-197q9 -62 10 -87h166l-7 -30h-158v-4q0 -105 -78 -183h371v-30h-415v23q39 38 63.5 87t24.5 95v12h-92z
" />
    <glyph glyph-name="peseta" unicode="&#x20a7;" horiz-adv-x="998" 
d="M392 488q0 -88 -46 -146.5t-119 -58.5q-58 0 -103 30v-313h-32v692h110q83 0 136.5 -49.5t53.5 -154.5zM358 487q0 175 -168 175h-66v-319q47 -30 103 -30q55 0 93 47.5t38 126.5zM694 54q58 -37 106 -37q51 0 80 27t29 70q0 22 -7.5 39.5t-27.5 34t-30.5 23.5t-40.5 24
q-34 20 -52.5 34t-35.5 41.5t-17 61.5q0 46 30 77.5t92 31.5q58 0 110 -34l-14 -24q-45 30 -97 30q-41 0 -66 -20.5t-25 -61.5q0 -38 23 -62.5t68 -50.5q67 -39 88 -61q32 -34 32 -81q0 -54 -36 -90.5t-105 -36.5q-54 0 -105 30q-43 -30 -91 -30q-54 0 -82 33.5t-28 110.5
v310h-65v28h65v127l30 8v-135h151l-6 -28h-145v-307q0 -66 19 -92t62 -26q44 0 91 36z" />
    <glyph glyph-name="Euro" unicode="&#x20ac;" 
d="M60 401v30h61q26 271 227 271q76 0 136 -52l-20 -21q-50 45 -117 45q-171 0 -192 -243h273l-12 -30h-263q-1 -19 -1 -56q0 -28 2 -72h227l-12 -30h-212q14 -113 61.5 -169.5t134.5 -56.5q56 0 117 46l18 -23q-61 -51 -138 -51q-194 0 -226 254h-64v30h61q-3 36 -3 73
q0 36 1 55h-59z" />
    <glyph glyph-name="uni20B9" unicode="&#x20b9;" 
d="M69 488v29h243q-5 67 -53 106.5t-144 39.5h-46v29h419l-5 -29h-235q93 -39 99 -146h113l-5 -29h-109q-8 -130 -161 -167v-2q56 -14 91.5 -50.5t66.5 -92.5l99 -176h-39l-92 166q-43 79 -93 111t-136 32h-13v30h39q86 0 142.5 37t61.5 112h-243z" />
    <glyph glyph-name="uni20BA" unicode="&#x20ba;" 
d="M301 536v-36l-118 -91v-94l118 91v-36l-118 -91v-249h66q177 0 177 255v8h34v-7q0 -139 -54.5 -212.5t-157.5 -73.5h-97v255l-111 -85v36l111 85v94l-111 -85v36l111 85v271h32v-247z" />
    <glyph glyph-name="uni20BC" unicode="&#x20bc;" horiz-adv-x="680" 
d="M356 70l-32 -8v511q-119 -5 -181 -95t-62 -236v-242h-32v253q0 152 75 248t200 101v82l32 8v-90q130 -6 202.5 -99.5t72.5 -255.5v-247h-32v241q0 154 -61.5 240t-181.5 92v-503z" />
    <glyph glyph-name="uni20BD" unicode="&#x20bd;" 
d="M41 283v30h73v379h123q241 0 241 -207q0 -85 -57.5 -143.5t-157.5 -58.5h-117v-82h180v-30h-180v-171h-32v171h-73v30h73v82h-73zM444 484q0 92 -54 135t-163 43h-81v-349h114q82 0 133 47.5t51 123.5z" />
    <glyph glyph-name="uni2105" unicode="&#x2105;" horiz-adv-x="804" 
d="M624 692l-415 -692h-33l415 692h33zM734 156q0 71 -39 107.5t-95 36.5t-95.5 -36t-39.5 -107t39.5 -107t95.5 -36t95 36t39 106zM761 157q0 -74 -44.5 -121t-116.5 -47t-116.5 46.5t-44.5 121.5q0 74 44.5 121t116.5 47t116.5 -47t44.5 -121zM301 432l15 -19
q-49 -47 -115 -47q-72 0 -114 47.5t-42 128.5q0 71 43.5 115.5t108.5 44.5q59 0 102 -34l-15 -20q-41 29 -87 29q-55 0 -90.5 -37.5t-35.5 -98.5q0 -68 35 -109t96 -41q53 0 99 41z" />
    <glyph glyph-name="uni2113" unicode="&#x2113;" horiz-adv-x="480" 
d="M356 55l19 -19q-47 -47 -103 -47q-112 0 -112 165v116q-30 -10 -98 -27l-6 27q63 15 104 29v249q0 65 27.5 104.5t84.5 39.5q50 0 78.5 -38.5t28.5 -108.5q0 -91 -52.5 -161t-136.5 -104v-116q0 -79 21 -113t64 -34t81 38zM349 542q0 122 -78 122q-81 0 -81 -121v-231
q77 29 118 93t41 137z" />
    <glyph glyph-name="uni2116" unicode="&#x2116;" horiz-adv-x="1028" 
d="M532 692v-692h-29l-372 637h-2v-637h-32v692h37l364 -623h2v623h32zM935 523q0 71 -39 107.5t-95 36.5t-95.5 -36t-39.5 -107t39.5 -107t95.5 -36t95 36t39 106zM962 524q0 -74 -44.5 -121t-116.5 -47t-116.5 46.5t-44.5 121.5q0 74 44.5 121t116.5 47t116.5 -47
t44.5 -121zM948 242v-27h-294v27h294z" />
    <glyph glyph-name="published" unicode="&#x2117;" horiz-adv-x="883" 
d="M786 353q0 144 -101 244.5t-243 100.5q-143 0 -244 -100.5t-101 -244.5q0 -142 101 -243t244 -101q142 0 243 101t101 243zM816 353q0 -155 -110 -264.5t-265 -109.5t-264.5 109.5t-109.5 264.5q0 156 109.5 265.5t264.5 109.5t265 -109.5t110 -265.5zM571 452
q0 57 -33.5 82.5t-100.5 25.5h-73v-199q47 -17 97 -17t80 29.5t30 78.5zM599 454q0 -58 -36.5 -97t-100.5 -39q-44 0 -98 17v-200h-28v450h109q70 0 112 -32t42 -99z" />
    <glyph glyph-name="trademark" unicode="&#x2122;" horiz-adv-x="717" 
d="M273 668h-99v-294h-28v294h-101v24h232zM647 374h-27v270l-130 -270h-13l-131 272v-272h-26v318h29l135 -277l134 277h29v-318z" />
    <glyph glyph-name="Omega" unicode="&#x2126;" horiz-adv-x="774" 
d="M716 27l-5 -27h-231v27q95 55 143.5 144t48.5 190q0 152 -79.5 232t-205.5 80q-125 0 -205 -80.5t-80 -232.5q0 -100 48.5 -189t143.5 -144v-27h-231l-5 27h193q-90 54 -136.5 146.5t-46.5 192.5q0 145 83.5 240.5t235.5 95.5t235.5 -95.5t83.5 -240.5q0 -99 -48 -191.5
t-139 -147.5h197z" />
    <glyph glyph-name="estimated" unicode="&#x212e;" horiz-adv-x="830" 
d="M415 671q156 0 267 -99.5t111 -247.5h-608q-10 0 -10 -11v-197q47 -51 110 -78.5t130 -27.5q73 0 139 32.5t113 88.5h57q-56 -68 -138 -105t-171 -37q-100 0 -186 42.5t-139.5 121.5t-53.5 177q0 145 110.5 243t268.5 98zM415 650q-70 0 -133 -28.5t-107 -78.5v-185
q0 -11 10 -11h461q9 0 9 11v184q-44 51 -108 79.5t-132 28.5z" />
    <glyph glyph-name="uni2153" unicode="&#x2153;" horiz-adv-x="711" 
d="M567 692l-415 -692h-33l415 692h33zM154 320h-27v332l-75 -46l-12 23l101 62h13v-371zM437 29l14 22q48 -32 92 -32q39 0 66.5 22t27.5 62q0 87 -148 87v11l125 140h-160v25h211v-2l-136 -152q69 -5 102 -34t33 -72q0 -48 -33 -79.5t-88 -31.5q-57 0 -106 34z" />
    <glyph glyph-name="uni2154" unicode="&#x2154;" horiz-adv-x="772" 
d="M628 692l-415 -692h-33l415 692h33zM498 29l14 22q48 -32 92 -32q39 0 66.5 22t27.5 62q0 87 -148 87v11l125 140h-160v25h211v-2l-136 -152q69 -5 102 -34t33 -72q0 -48 -33 -79.5t-88 -31.5q-57 0 -106 34zM54 637l-12 21q46 33 102 33q50 0 78 -27.5t28 -69.5
q0 -27 -9.5 -52.5t-40 -63.5t-47 -56l-70.5 -76h185v-26h-231v11l34.5 37l33 35l28.5 31t26 30.5l20.5 26.5t18.5 27t12 24.5t8.5 25t2.5 23.5q0 38 -22.5 56.5t-58.5 18.5q-45 0 -86 -29z" />
    <glyph glyph-name="uni2155" unicode="&#x2155;" horiz-adv-x="704" 
d="M567 692l-415 -692h-33l415 692h33zM154 320h-27v332l-75 -46l-12 23l101 62h13v-371zM430 25l12 23q45 -29 90 -29q40 0 66.5 22.5t26.5 65.5q0 89 -165 90l7 169h179l-6 -26h-149l-5 -120q166 -6 166 -112q0 -50 -33 -81.5t-88 -31.5q-58 0 -101 30z" />
    <glyph glyph-name="uni2156" unicode="&#x2156;" horiz-adv-x="765" 
d="M628 692l-415 -692h-33l415 692h33zM491 25l12 23q45 -29 90 -29q40 0 66.5 22.5t26.5 65.5q0 89 -165 90l7 169h179l-6 -26h-149l-5 -120q166 -6 166 -112q0 -50 -33 -81.5t-88 -31.5q-58 0 -101 30zM54 637l-12 21q46 33 102 33q50 0 78 -27.5t28 -69.5
q0 -27 -9.5 -52.5t-40 -63.5t-47 -56l-70.5 -76h185v-26h-231v11l34.5 37l33 35l28.5 31t26 30.5l20.5 26.5t18.5 27t12 24.5t8.5 25t2.5 23.5q0 38 -22.5 56.5t-58.5 18.5q-45 0 -86 -29z" />
    <glyph glyph-name="uni2157" unicode="&#x2157;" horiz-adv-x="755" 
d="M618 692l-415 -692h-33l415 692h33zM481 25l12 23q45 -29 90 -29q40 0 66.5 22.5t26.5 65.5q0 89 -165 90l7 169h179l-6 -26h-149l-5 -120q166 -6 166 -112q0 -50 -33 -81.5t-88 -31.5q-58 0 -101 30zM40 349l14 22q48 -32 92 -32q39 0 66.5 22t27.5 62q0 87 -148 87v11
l125 140h-160v25h211v-2l-136 -152q69 -5 102 -34t33 -72q0 -48 -33 -79.5t-88 -31.5q-57 0 -106 34z" />
    <glyph glyph-name="uni2158" unicode="&#x2158;" horiz-adv-x="765" 
d="M628 692l-415 -692h-33l415 692h33zM491 25l12 23q45 -29 90 -29q40 0 66.5 22.5t26.5 65.5q0 89 -165 90l7 169h179l-6 -26h-149l-5 -120q166 -6 166 -112q0 -50 -33 -81.5t-88 -31.5q-58 0 -101 30zM200 460v171l-127 -171h127zM290 435h-63v-115h-27v115h-166v11
l179 242h14v-228h63v-25z" />
    <glyph glyph-name="uni2159" unicode="&#x2159;" horiz-adv-x="701" 
d="M567 692l-415 -692h-33l415 692h33zM154 320h-27v332l-75 -46l-12 23l101 62h13v-371zM624 111q0 41 -24 64t-64 23q-43 0 -70.5 -26t-27.5 -56q0 -40 25.5 -68.5t71.5 -28.5q37 0 63 26t26 66zM651 111q0 -49 -33.5 -82.5t-83.5 -33.5q-57 0 -90.5 37t-33.5 105
q0 82 53 148.5t152 89.5l6 -24q-80 -19 -126.5 -66.5t-57.5 -110.5q36 48 101 48q51 0 82 -30t31 -81z" />
    <glyph glyph-name="uni215A" unicode="&#x215a;" horiz-adv-x="732" 
d="M37 345l12 23q45 -29 90 -29q40 0 66.5 22.5t26.5 65.5q0 89 -165 90l7 169h179l-6 -26h-149l-5 -120q166 -6 166 -112q0 -50 -33 -81.5t-88 -31.5q-58 0 -101 30zM598 692l-415 -692h-33l415 692h33zM655 111q0 41 -24 64t-64 23q-43 0 -70.5 -26t-27.5 -56
q0 -40 25.5 -68.5t71.5 -28.5q37 0 63 26t26 66zM682 111q0 -49 -33.5 -82.5t-83.5 -33.5q-57 0 -90.5 37t-33.5 105q0 82 53 148.5t152 89.5l6 -24q-80 -19 -126.5 -66.5t-57.5 -110.5q36 48 101 48q51 0 82 -30t31 -81z" />
    <glyph glyph-name="oneeighth" unicode="&#x215b;" horiz-adv-x="695" 
d="M553 692l-415 -692h-33l415 692h33zM154 320h-27v332l-75 -46l-12 23l101 62h13v-371zM643 288q0 -55 -83 -99q22 -13 34.5 -21t27.5 -21.5t22 -28.5t7 -33q0 -39 -29.5 -64.5t-82.5 -25.5q-51 0 -83.5 25t-32.5 65q0 35 23 58.5t64 45.5q-38 23 -58.5 45t-20.5 54
q0 36 28.5 59.5t78.5 23.5q49 0 77 -23t28 -60zM624 83q0 20 -15 38t-30.5 28.5t-44.5 26.5q-84 -44 -84 -90q0 -32 26.5 -50t64.5 -18q37 0 60 19t23 46zM458 288q0 -43 78 -87q26 14 40.5 24t27 26.5t12.5 34.5q0 29 -21.5 45t-58.5 16q-33 0 -55.5 -16t-22.5 -43z" />
    <glyph glyph-name="threeeighths" unicode="&#x215c;" horiz-adv-x="738" 
d="M596 692l-415 -692h-33l415 692h33zM686 288q0 -55 -83 -99q22 -13 34.5 -21t27.5 -21.5t22 -28.5t7 -33q0 -39 -29.5 -64.5t-82.5 -25.5q-51 0 -83.5 25t-32.5 65q0 35 23 58.5t64 45.5q-38 23 -58.5 45t-20.5 54q0 36 28.5 59.5t78.5 23.5q49 0 77 -23t28 -60zM667 83
q0 20 -15 38t-30.5 28.5t-44.5 26.5q-84 -44 -84 -90q0 -32 26.5 -50t64.5 -18q37 0 60 19t23 46zM501 288q0 -43 78 -87q26 14 40.5 24t27 26.5t12.5 34.5q0 29 -21.5 45t-58.5 16q-33 0 -55.5 -16t-22.5 -43zM40 349l14 22q48 -32 92 -32q39 0 66.5 22t27.5 62
q0 87 -148 87v11l125 140h-160v25h211v-2l-136 -152q69 -5 102 -34t33 -72q0 -48 -33 -79.5t-88 -31.5q-57 0 -106 34z" />
    <glyph glyph-name="fiveeighths" unicode="&#x215d;" horiz-adv-x="735" 
d="M593 692l-415 -692h-33l415 692h33zM683 288q0 -55 -83 -99q22 -13 34.5 -21t27.5 -21.5t22 -28.5t7 -33q0 -39 -29.5 -64.5t-82.5 -25.5q-51 0 -83.5 25t-32.5 65q0 35 23 58.5t64 45.5q-38 23 -58.5 45t-20.5 54q0 36 28.5 59.5t78.5 23.5q49 0 77 -23t28 -60zM664 83
q0 20 -15 38t-30.5 28.5t-44.5 26.5q-84 -44 -84 -90q0 -32 26.5 -50t64.5 -18q37 0 60 19t23 46zM498 288q0 -43 78 -87q26 14 40.5 24t27 26.5t12.5 34.5q0 29 -21.5 45t-58.5 16q-33 0 -55.5 -16t-22.5 -43zM37 345l12 23q45 -29 90 -29q40 0 66.5 22.5t26.5 65.5
q0 89 -165 90l7 169h179l-6 -26h-149l-5 -120q166 -6 166 -112q0 -50 -33 -81.5t-88 -31.5q-58 0 -101 30z" />
    <glyph glyph-name="seveneighths" unicode="&#x215e;" horiz-adv-x="663" 
d="M520 692l-415 -692h-33l415 692h33zM611 288q0 -55 -83 -99q22 -13 34.5 -21t27.5 -21.5t22 -28.5t7 -33q0 -39 -29.5 -64.5t-82.5 -25.5q-51 0 -83.5 25t-32.5 65q0 35 23 58.5t64 45.5q-38 23 -58.5 45t-20.5 54q0 36 28.5 59.5t78.5 23.5q49 0 77 -23t28 -60zM592 83
q0 20 -15 38t-30.5 28.5t-44.5 26.5q-84 -44 -84 -90q0 -32 26.5 -50t64.5 -18q37 0 60 19t23 46zM426 288q0 -43 78 -87q26 14 40.5 24t27 26.5t12.5 34.5q0 29 -21.5 45t-58.5 16q-33 0 -55.5 -16t-22.5 -43zM284 674l-157 -360l-25 9l150 338h-215v25h247v-12z" />
    <glyph glyph-name="uni2166" unicode="&#x2166;" horiz-adv-x="1068" 
d="M598 692l-269 -697h-26l-283 697h35l260 -647h2l248 647h33zM745 0h-32v692h32v-692zM971 0h-32v692h32v-692z" />
    <glyph glyph-name="partialdiff" unicode="&#x2202;" horiz-adv-x="551" 
d="M491 436q0 -77 -16 -153t-47 -143t-85 -109t-122 -42q-79 0 -119.5 54t-40.5 132q0 37 7.5 76t25 79.5t43.5 71.5t67.5 51t91.5 20q63 0 105.5 -35t56.5 -82q3 36 3 83q0 113 -39 174t-116 61q-59 0 -113 -29l-12 26q60 31 129 31q50 0 86.5 -21t56.5 -59.5t29 -84
t9 -101.5zM226 17q86 0 147 86.5t76 213.5q-13 55 -52.5 93t-97.5 38q-52 0 -93.5 -25t-65.5 -65.5t-36.5 -87.5t-12.5 -96q0 -69 34.5 -113t100.5 -44z" />
    <glyph glyph-name="Delta" unicode="&#x2206;" horiz-adv-x="599" 
d="M33 0l-7 17l257 675h34l257 -675l-7 -17h-534zM298 653l-235 -624h470l-233 624h-2z" />
    <glyph glyph-name="product" unicode="&#x220f;" horiz-adv-x="694" 
d="M583 -270h-32v932h-408v-932h-32v962h472v-962z" />
    <glyph glyph-name="summation" unicode="&#x2211;" horiz-adv-x="601" 
d="M518 664h-393l268 -444l-281 -462h447l-10 -28h-483v12l294 480l-279 457v13h447z" />
    <glyph glyph-name="minus" unicode="&#x2212;" 
d="M55 332h411v-30h-411v30z" />
    <glyph glyph-name="uni2215" unicode="&#x2215;" horiz-adv-x="168" 
d="M308 692l-415 -692h-33l415 692h33z" />
    <glyph glyph-name="uni2219" unicode="&#x2219;" horiz-adv-x="279" 
d="M111 321q0 13 8.5 21.5t21.5 8.5t21.5 -8.5t8.5 -21.5t-8.5 -21.5t-21.5 -8.5t-21.5 8.5t-8.5 21.5z" />
    <glyph glyph-name="radical" unicode="&#x221a;" horiz-adv-x="500" 
d="M20 344v30h146l101 -327l214 683h29l-232 -735h-24l-109 349h-125z" />
    <glyph glyph-name="infinity" unicode="&#x221e;" horiz-adv-x="630" 
d="M452 486q53 0 88 -41t35 -110q0 -65 -35 -109t-94 -44q-43 0 -72.5 31.5t-57.5 90.5q-30 -57 -62 -89.5t-78 -32.5q-55 0 -88 44.5t-33 109.5q0 70 34 110t95 40q45 0 75 -33.5t59 -93.5q32 62 61.5 94.5t72.5 32.5zM180 460q-45 0 -70 -34t-25 -88q0 -57 23 -93.5
t75 -36.5q26 0 49.5 19.5t37 41t34.5 61.5q-16 32 -25.5 49.5t-25.5 39t-34 31.5t-39 10zM452 208q42 0 69 37t27 86q0 55 -24.5 92t-74.5 37q-19 0 -35.5 -9.5t-32 -31.5t-24.5 -37.5t-26 -48.5q14 -30 24 -48t25.5 -38t33 -29.5t38.5 -9.5z" />
    <glyph glyph-name="integral" unicode="&#x222b;" horiz-adv-x="430" 
d="M-38 -229l18 24q40 -37 83 -37q107 0 107 177v601q0 97 37 145.5t103 48.5q57 0 108 -41l-18 -24q-47 37 -93 37q-107 0 -107 -177v-601q0 -97 -37 -145.5t-103 -48.5q-52 0 -98 41z" />
    <glyph glyph-name="approxequal" unicode="&#x2248;" 
d="M478 492q-2 -57 -31 -89t-83 -32q-35 0 -72 22.5l-71.5 45.5t-63.5 23q-38 0 -61.5 -23.5t-25.5 -66.5h-28q0 53 29.5 87t85.5 34q38 0 104.5 -45.5t103.5 -45.5q38 0 61 23t24 67h28zM478 300q-2 -57 -31 -89t-83 -32q-35 0 -72 22.5l-71.5 45.5t-63.5 23
q-38 0 -61.5 -23.5t-25.5 -66.5h-28q0 53 29.5 87t85.5 34q38 0 104.5 -45.5t103.5 -45.5q38 0 61 23t24 67h28z" />
    <glyph glyph-name="notequal" unicode="&#x2260;" 
d="M466 190h-284l-87 -130l-22 15l77 115h-95v30h115l135 202h-250v30h270l83 123l22 -14l-73 -109h109v-30h-129l-135 -202h264v-30z" />
    <glyph glyph-name="equivalence" unicode="&#x2261;" 
d="M466 121h-412v30h412v-30zM466 322h-412v30h412v-30zM466 522h-412v30h412v-30z" />
    <glyph glyph-name="lessequal" unicode="&#x2264;" 
d="M55 99h411v-30h-411v30zM458 196l-396 188v25l396 188v-33l-355 -167l355 -168v-33z" />
    <glyph glyph-name="greaterequal" unicode="&#x2265;" 
d="M55 99h411v-30h-411v30zM458 384l-396 -188v33l355 168l-355 167v33l396 -188v-25z" />
    <glyph glyph-name="revlogicalnot" unicode="&#x2310;" 
d="M65 390h410v-30h-377v-219h-33v249z" />
    <glyph glyph-name="lozenge" unicode="&#x25ca;" horiz-adv-x="525" 
d="M277 692l193 -346l-193 -346h-23l-198 346l198 346h23zM88 346l177 -309l174 309l-174 309z" />
    <glyph glyph-name="uniF8FF" unicode="&#xf8ff;" horiz-adv-x="496" 
d="M456 0h-416v730h416v-730zM70 700v-670h356v670h-356z" />
    <glyph glyph-name="fi" unicode="&#xfb01;" horiz-adv-x="523" 
d="M405 684l-19 -22q-48 40 -109 40q-127 0 -127 -177v-54h159l-6 -28h-153v-443h-30v443h-89v28h89v65q0 97 42 145.5t118 48.5q71 0 125 -46zM431 0h-30v471h30v-471z" />
    <glyph glyph-name="fl" unicode="&#xfb02;" horiz-adv-x="525" 
d="M433 0h-30v671q-54 31 -116 31q-137 0 -137 -177v-54h159l-6 -28h-153v-443h-30v443h-89v28h89v65q0 97 45 145.5t125 48.5q59 0 113 -28v20l30 8v-730z" />
    <glyph glyph-name="uniFEFF" unicode="&#xfeff;" horiz-adv-x="0" 
 />
    <glyph glyph-name="zero.tf" 
d="M438 345q0 158 -44.5 243t-133.5 85q-178 0 -178 -328q0 -158 45.5 -242.5t133.5 -84.5q177 0 177 327zM472 346q0 -171 -54.5 -264t-157.5 -93q-59 0 -102.5 31.5t-66 86t-33 113.5t-10.5 126q0 65 9 122t31 112.5t66 88.5t107 33q49 0 87 -22.5t61 -57.5t37.5 -83.5
t20 -95t5.5 -97.5z" />
    <glyph glyph-name="one.tf" 
d="M437 0h-348v30h167v616l-149 -91l-15 26l190 116h6v-667h149v-30z" />
    <glyph glyph-name="two.tf" 
d="M72 619l-16 26q83 57 186 57q90 0 140.5 -50t50.5 -126q0 -40 -15.5 -85t-37 -82t-60 -86t-66.5 -80.5l-76 -84l-71 -78.5h363v-30h-425v8q185 196 241 267q113 144 113 245q0 78 -46.5 115.5t-119.5 37.5q-88 0 -161 -54z" />
    <glyph glyph-name="three.tf" 
d="M50 47l17 27q84 -56 175 -56q78 0 133.5 45.5t55.5 126.5q0 179 -283 179v11l246 283h-313v29h370v-6l-253 -290q136 -6 201.5 -62t65.5 -141q0 -89 -61 -146.5t-162 -57.5q-107 0 -192 58z" />
    <glyph glyph-name="four.tf" 
d="M342 260v359l-267 -359h267zM495 230h-121v-230h-32v230h-319v7l340 459h11v-436h121v-30z" />
    <glyph glyph-name="five.tf" 
d="M44 42l15 27q79 -51 170 -51q81 0 134.5 44.5t53.5 131.5q0 91 -75.5 135.5t-239.5 46.5l10 316h325l-5 -29h-292l-8 -261q319 -10 319 -206q0 -95 -60 -151t-163 -56q-101 0 -184 53z" />
    <glyph glyph-name="six.tf" 
d="M455 202q0 83 -48 128.5t-129 45.5q-86 0 -141.5 -52t-55.5 -114q0 -79 51 -135.5t144 -56.5q74 0 126.5 51.5t52.5 132.5zM489 202q0 -90 -62 -151.5t-153 -61.5q-106 0 -167 67.5t-61 196.5q0 99 40 190t127.5 164t208.5 99l7 -26q-111 -26 -191 -90t-118 -142.5
t-45 -169.5q26 59 82 93t125 34q94 0 150.5 -55.5t56.5 -147.5z" />
    <glyph glyph-name="seven.tf" 
d="M497 681l-298 -689l-30 10l291 661h-416v29h453v-11z" />
    <glyph glyph-name="eight.tf" 
d="M455 549q0 -34 -13 -62t-40 -52t-51.5 -39.5t-63.5 -37.5q43 -24 68.5 -40.5t56 -42t44.5 -54.5t14 -63q0 -71 -55.5 -120t-151.5 -49q-91 0 -152 47.5t-61 121.5q0 36 14 66t42.5 54.5t54 41t67.5 38.5q-79 44 -121 86.5t-42 103.5q0 65 53 109.5t143 44.5
q89 0 141.5 -44t52.5 -109zM436 154q0 31 -13.5 57.5t-44.5 51.5t-53.5 39t-68.5 40q-42 -22 -65.5 -36.5t-52 -38t-41.5 -50t-13 -57.5q0 -66 53 -104t131 -38q75 0 121.5 40t46.5 96zM99 548q0 -54 41 -92.5t119 -81.5q39 20 62 34.5t49 36t38.5 46.5t12.5 54q0 60 -44 94
t-119 34q-67 0 -113 -35t-46 -90z" />
    <glyph glyph-name="nine.tf" 
d="M72 490q0 -84 47 -130t128 -46q86 0 143 53t57 115q0 78 -52 134.5t-146 56.5q-76 0 -126.5 -51t-50.5 -132zM38 490q0 91 58.5 151.5t151.5 60.5q106 0 169.5 -68t63.5 -195q0 -102 -37 -193t-117 -162.5t-192 -97.5l-7 26q151 39 231.5 146t92.5 256q-26 -59 -83 -94
t-126 -35q-93 0 -149 56t-56 149z" />
    <glyph glyph-name="commaaccent" horiz-adv-x="384" 
d="M181 -230l-20 19q25 28 25 54q0 23 -21 47q0 15 8.5 23.5t20.5 8.5q34 0 34 -44q0 -59 -47 -108z" />
    <glyph glyph-name="i.loclTRK" horiz-adv-x="213" 
d="M121 0h-30v471h30v-471zM135 632q0 -11 -9 -19.5t-20 -8.5t-19.5 8.5t-8.5 19.5t8.5 20t19.5 9t20 -9t9 -20z" />
    <glyph glyph-name="acute.cap" horiz-adv-x="384" 
d="M165 741h-23l130 133l27 -30z" />
    <glyph glyph-name="breve.cap" horiz-adv-x="384" 
d="M331 875q-2 -47 -35.5 -86t-103.5 -39q-66 0 -101.5 36.5t-37.5 88.5h24q12 -96 115 -96q50 0 80 26.5t35 69.5h24z" />
    <glyph glyph-name="caron.alt" horiz-adv-x="267" 
d="M123 578l-20 19q25 28 25 54q0 23 -21 47q0 15 8.5 23.5t20.5 8.5q34 0 34 -44q0 -59 -47 -108z" />
    <glyph glyph-name="caron.cap" horiz-adv-x="384" 
d="M325 883l19 -13l-134 -119h-35l-133 119l17 13l134 -107z" />
    <glyph glyph-name="circumflex.cap" horiz-adv-x="384" 
d="M344 766l-19 -13l-132 107l-134 -107l-17 13l133 119h35z" />
    <glyph glyph-name="commaaccent.alt" horiz-adv-x="384" 
d="M201 731l20 -19q-25 -28 -25 -54q0 -23 21 -47q0 -15 -8.5 -23.5t-20.5 -8.5q-34 0 -34 45q0 58 47 107z" />
    <glyph glyph-name="dieresis.cap" horiz-adv-x="384" 
d="M77 805q0 12 8.5 20.5t20.5 8.5t20.5 -8.5t8.5 -20.5t-8.5 -20.5t-20.5 -8.5t-20.5 8.5t-8.5 20.5zM251 805q0 12 8.5 20.5t20.5 8.5t20.5 -8.5t8.5 -20.5t-8.5 -20.5t-20.5 -8.5t-20.5 8.5t-8.5 20.5z" />
    <glyph glyph-name="dotaccent.cap" horiz-adv-x="384" 
d="M157 802q0 14 10.5 24.5t24.5 10.5t24.5 -10.5t10.5 -24.5t-10.5 -24.5t-24.5 -10.5t-24.5 10.5t-10.5 24.5z" />
    <glyph glyph-name="grave.cap" horiz-adv-x="384" 
d="M242 741h-23l-134 103l27 30z" />
    <glyph glyph-name="hungarumlaut.cap" horiz-adv-x="384" 
d="M93 741h-23l69 140l34 -15zM242 741h-23l84 131l33 -16z" />
    <glyph glyph-name="macron.cap" horiz-adv-x="384" 
d="M51 774v32h282v-32h-282z" />
    <glyph glyph-name="ring.cap" horiz-adv-x="384" 
d="M109 822q0 -34 24.5 -58.5t58.5 -24.5t58.5 24.5t24.5 58.5t-24.5 58.5t-58.5 24.5t-58.5 -24.5t-24.5 -58.5zM84 822q0 45 31.5 76.5t76.5 31.5t76.5 -31.5t31.5 -76.5t-31.5 -76.5t-76.5 -31.5t-76.5 31.5t-31.5 76.5z" />
    <glyph glyph-name="tilde.cap" horiz-adv-x="384" 
d="M351 863q-3 -41 -23 -70t-64 -29q-34 0 -78 35.5t-67 35.5q-25 0 -39 -21t-19 -49h-27q13 98 89 98q33 0 76.5 -35.5t66.5 -35.5q26 0 41.5 20t17.5 51h26z" />
    <glyph glyph-name="hyphen.sups" horiz-adv-x="185" 
d="M23 569h139v-22h-139v22z" />
    <glyph glyph-name="comma.sups" horiz-adv-x="149" 
d="M66 331l-14 10q14 22 14 41q0 14 -11 27q0 18 19 18q21 0 21 -24q0 -39 -29 -72z" />
    <glyph glyph-name="period.sups" horiz-adv-x="149" 
d="M55 407q0 9 6 14.5t14 5.5q21 0 21 -20q0 -8 -6 -14t-15 -6q-8 0 -14 6t-6 14z" />
    <glyph glyph-name="zero.numr" horiz-adv-x="310" 
d="M243 503q0 164 -88 164t-88 -164q0 -165 89 -165q87 0 87 165zM270 504q0 -92 -29.5 -140.5t-85.5 -48.5q-62 0 -88.5 55t-26.5 134q0 187 116 187q33 0 56.5 -17t35.5 -45.5t17 -59t5 -65.5z" />
    <glyph glyph-name="one.numr" horiz-adv-x="240" 
d="M150 320h-27v332l-75 -46l-12 23l101 62h13v-371z" />
    <glyph glyph-name="two.numr" horiz-adv-x="310" 
d="M54 637l-12 21q46 33 102 33q50 0 78 -27.5t28 -69.5q0 -27 -9.5 -52.5t-40 -63.5t-47 -56l-70.5 -76h185v-26h-231v11l34.5 37l33 35l28.5 31t26 30.5l20.5 26.5t18.5 27t12 24.5t8.5 25t2.5 23.5q0 38 -22.5 56.5t-58.5 18.5q-45 0 -86 -29z" />
    <glyph glyph-name="three.numr" horiz-adv-x="310" 
d="M40 349l14 22q48 -32 92 -32q39 0 66.5 22t27.5 62q0 87 -148 87v11l125 140h-160v25h211v-2l-136 -152q69 -5 102 -34t33 -72q0 -48 -33 -79.5t-88 -31.5q-57 0 -106 34z" />
    <glyph glyph-name="four.numr" horiz-adv-x="310" 
d="M190 460v171l-127 -171h127zM280 435h-63v-115h-27v115h-166v11l179 242h14v-228h63v-25z" />
    <glyph glyph-name="five.numr" horiz-adv-x="310" 
d="M37 345l12 23q45 -29 90 -29q40 0 66.5 22.5t26.5 65.5q0 89 -165 90l7 169h179l-6 -26h-149l-5 -120q166 -6 166 -112q0 -50 -33 -81.5t-88 -31.5q-58 0 -101 30z" />
    <glyph glyph-name="six.numr" horiz-adv-x="310" 
d="M252 431q0 41 -24 64t-64 23q-43 0 -70.5 -26t-27.5 -56q0 -40 25.5 -68.5t71.5 -28.5q37 0 63 26t26 66zM279 431q0 -49 -33.5 -82.5t-83.5 -33.5q-57 0 -90.5 37t-33.5 105q0 82 53 148.5t152 89.5l6 -24q-80 -19 -126.5 -66.5t-57.5 -110.5q36 48 101 48q51 0 82 -30
t31 -81z" />
    <glyph glyph-name="seven.numr" horiz-adv-x="310" 
d="M284 674l-157 -360l-25 9l150 338h-215v25h247v-12z" />
    <glyph glyph-name="eight.numr" horiz-adv-x="310" 
d="M260 608q0 -55 -83 -99q22 -13 34.5 -21t27.5 -21.5t22 -28.5t7 -33q0 -39 -29.5 -64.5t-82.5 -25.5q-51 0 -83.5 25t-32.5 65q0 35 23 58.5t64 45.5q-38 23 -58.5 45t-20.5 54q0 36 28.5 59.5t78.5 23.5q49 0 77 -23t28 -60zM241 403q0 20 -15 38t-30.5 28.5t-44.5 26.5
q-84 -44 -84 -90q0 -32 26.5 -50t64.5 -18q37 0 60 19t23 46zM75 608q0 -43 78 -87q26 14 40.5 24t27 26.5t12.5 34.5q0 29 -21.5 45t-58.5 16q-33 0 -55.5 -16t-22.5 -43z" />
    <glyph glyph-name="nine.numr" horiz-adv-x="310" 
d="M61 576q0 -42 23.5 -64.5t63.5 -22.5q43 0 71 26t28 57q0 39 -26 67t-73 28q-37 0 -62 -25.5t-25 -65.5zM34 576q0 49 32 82.5t82 33.5q58 0 92.5 -37.5t34.5 -105.5q0 -83 -49 -149t-140 -88l-6 23q144 40 167 178q-38 -49 -101 -49q-51 0 -81.5 31t-30.5 81z" />
    <glyph glyph-name="zero.dnom" horiz-adv-x="310" 
d="M243 183q0 164 -88 164t-88 -164q0 -165 89 -165q87 0 87 165zM270 184q0 -92 -29.5 -140.5t-85.5 -48.5q-62 0 -88.5 55t-26.5 134q0 187 116 187q33 0 56.5 -17t35.5 -45.5t17 -59t5 -65.5z" />
    <glyph glyph-name="one.dnom" horiz-adv-x="240" 
d="M150 0h-27v332l-75 -46l-12 23l101 62h13v-371z" />
    <glyph glyph-name="two.dnom" horiz-adv-x="310" 
d="M54 317l-12 21q46 33 102 33q50 0 78 -27.5t28 -69.5q0 -27 -9.5 -52.5t-40 -63.5t-47 -56l-70.5 -76h185v-26h-231v11l34.5 37l33 35l28.5 31t26 30.5l20.5 26.5t18.5 27t12 24.5t8.5 25t2.5 23.5q0 38 -22.5 56.5t-58.5 18.5q-45 0 -86 -29z" />
    <glyph glyph-name="three.dnom" horiz-adv-x="310" 
d="M40 29l14 22q48 -32 92 -32q39 0 66.5 22t27.5 62q0 87 -148 87v11l125 140h-160v25h211v-2l-136 -152q69 -5 102 -34t33 -72q0 -48 -33 -79.5t-88 -31.5q-57 0 -106 34z" />
    <glyph glyph-name="four.dnom" horiz-adv-x="310" 
d="M190 140v171l-127 -171h127zM280 115h-63v-115h-27v115h-166v11l179 242h14v-228h63v-25z" />
    <glyph glyph-name="five.dnom" horiz-adv-x="310" 
d="M37 25l12 23q45 -29 90 -29q40 0 66.5 22.5t26.5 65.5q0 89 -165 90l7 169h179l-6 -26h-149l-5 -120q166 -6 166 -112q0 -50 -33 -81.5t-88 -31.5q-58 0 -101 30z" />
    <glyph glyph-name="six.dnom" horiz-adv-x="310" 
d="M252 111q0 41 -24 64t-64 23q-43 0 -70.5 -26t-27.5 -56q0 -40 25.5 -68.5t71.5 -28.5q37 0 63 26t26 66zM279 111q0 -49 -33.5 -82.5t-83.5 -33.5q-57 0 -90.5 37t-33.5 105q0 82 53 148.5t152 89.5l6 -24q-80 -19 -126.5 -66.5t-57.5 -110.5q36 48 101 48q51 0 82 -30
t31 -81z" />
    <glyph glyph-name="seven.dnom" horiz-adv-x="310" 
d="M284 354l-157 -360l-25 9l150 338h-215v25h247v-12z" />
    <glyph glyph-name="eight.dnom" horiz-adv-x="310" 
d="M260 288q0 -55 -83 -99q22 -13 34.5 -21t27.5 -21.5t22 -28.5t7 -33q0 -39 -29.5 -64.5t-82.5 -25.5q-51 0 -83.5 25t-32.5 65q0 35 23 58.5t64 45.5q-38 23 -58.5 45t-20.5 54q0 36 28.5 59.5t78.5 23.5q49 0 77 -23t28 -60zM241 83q0 20 -15 38t-30.5 28.5t-44.5 26.5
q-84 -44 -84 -90q0 -32 26.5 -50t64.5 -18q37 0 60 19t23 46zM75 288q0 -43 78 -87q26 14 40.5 24t27 26.5t12.5 34.5q0 29 -21.5 45t-58.5 16q-33 0 -55.5 -16t-22.5 -43z" />
    <glyph glyph-name="nine.dnom" horiz-adv-x="310" 
d="M61 256q0 -42 23.5 -64.5t63.5 -22.5q43 0 71 26t28 57q0 39 -26 67t-73 28q-37 0 -62 -25.5t-25 -65.5zM34 256q0 49 32 82.5t82 33.5q58 0 92.5 -37.5t34.5 -105.5q0 -83 -49 -149t-140 -88l-6 23q144 40 167 178q-38 -49 -101 -49q-51 0 -81.5 31t-30.5 81z" />
    <glyph glyph-name="hyphen.subs" horiz-adv-x="185" 
d="M23 129h139v-22h-139v22z" />
    <glyph glyph-name="comma.subs" horiz-adv-x="149" 
d="M66 -109l-14 10q14 22 14 41q0 14 -11 27q0 18 19 18q21 0 21 -24q0 -39 -29 -72z" />
    <glyph glyph-name="period.subs" horiz-adv-x="149" 
d="M55 -33q0 9 6 14.5t14 5.5q21 0 21 -20q0 -8 -6 -14t-15 -6q-8 0 -14 6t-6 14z" />
    <glyph glyph-name="zero.onum" 
d="M439 255q0 245 -178 245t-178 -245q0 -115 45.5 -176t133.5 -61q177 0 177 237zM473 256q0 -130 -54.5 -198.5t-157.5 -68.5q-59 0 -102.5 24t-66 65t-33 85t-10.5 93q0 51 9 95t31 86.5t66 67t107 24.5q49 0 87 -16.5t61 -43t37.5 -63.5t20 -73.5t5.5 -76.5z" />
    <glyph glyph-name="one.onum" horiz-adv-x="310" 
d="M219 0h-32v481l-159 -84l-13 25l199 106h5v-528z" />
    <glyph glyph-name="two.onum" 
d="M74 438l-19 24q83 67 187 67q91 0 141 -43t50 -109q0 -37 -18.5 -74t-57 -75t-71.5 -65.5l-87.5 -69.5l-80.5 -63h352v-30h-425v8l81.5 63l77.5 60l63 51.5t56.5 51.5t39 46t28.5 48t8 45q0 66 -45 96.5t-113 30.5q-93 0 -167 -62z" />
    <glyph glyph-name="three.onum" 
d="M47 -126l17 27q84 -56 175 -56q78 0 133.5 45.5t55.5 126.5q0 179 -283 179v11l246 283h-313v29h370v-6l-253 -290q136 -6 201.5 -62t65.5 -141q0 -89 -61 -146.5t-162 -57.5q-107 0 -192 58z" />
    <glyph glyph-name="four.onum" 
d="M355 30v413l-280 -413h280zM508 0h-121v-176h-32v176h-329v7l350 516h11v-493h121v-30z" />
    <glyph glyph-name="five.onum" horiz-adv-x="500" 
d="M37 -131l15 27q79 -51 170 -51q81 0 134.5 44.5t53.5 131.5q0 91 -75.5 135.5t-239.5 46.5l10 316h325l-5 -29h-292l-8 -261q319 -10 319 -206q0 -95 -60 -151t-163 -56q-101 0 -184 53z" />
    <glyph glyph-name="six.onum" horiz-adv-x="540" 
d="M465 202q0 83 -48 128.5t-129 45.5q-86 0 -141.5 -52t-55.5 -114q0 -79 51 -135.5t144 -56.5q74 0 126.5 51.5t52.5 132.5zM499 202q0 -90 -62 -151.5t-153 -61.5q-106 0 -167 67.5t-61 196.5q0 99 40 190t127.5 164t208.5 99l7 -26q-111 -26 -191 -90t-118 -142.5
t-45 -169.5q26 59 82 93t125 34q94 0 150.5 -55.5t56.5 -147.5z" />
    <glyph glyph-name="seven.onum" horiz-adv-x="510" 
d="M480 508l-298 -689l-30 10l291 661h-416v29h453v-11z" />
    <glyph glyph-name="eight.onum" horiz-adv-x="540" 
d="M465 549q0 -34 -13 -62t-40 -52t-51.5 -39.5t-63.5 -37.5q43 -24 68.5 -40.5t56 -42t44.5 -54.5t14 -63q0 -71 -55.5 -120t-151.5 -49q-91 0 -152 47.5t-61 121.5q0 36 14 66t42.5 54.5t54 41t67.5 38.5q-79 44 -121 86.5t-42 103.5q0 65 53 109.5t143 44.5
q89 0 141.5 -44t52.5 -109zM446 154q0 31 -13.5 57.5t-44.5 51.5t-53.5 39t-68.5 40q-42 -22 -65.5 -36.5t-52 -38t-41.5 -50t-13 -57.5q0 -66 53 -104t131 -38q75 0 121.5 40t46.5 96zM109 548q0 -54 41 -92.5t119 -81.5q39 20 62 34.5t49 36t38.5 46.5t12.5 54
q0 60 -44 94t-119 34q-67 0 -113 -35t-46 -90z" />
    <glyph glyph-name="nine.onum" horiz-adv-x="540" 
d="M82 317q0 -84 47 -130t128 -46q86 0 143 53t57 115q0 78 -52 134.5t-146 56.5q-76 0 -126.5 -51t-50.5 -132zM48 317q0 91 58.5 151.5t151.5 60.5q106 0 169.5 -68t63.5 -195q0 -102 -37 -193t-117 -162.5t-192 -97.5l-7 26q151 39 231.5 146t92.5 256q-26 -59 -83 -94
t-126 -35q-93 0 -149 56t-56 149z" />
    <glyph glyph-name="zero.tnum_onum" 
d="M439 255q0 245 -178 245t-178 -245q0 -115 45.5 -176t133.5 -61q177 0 177 237zM473 256q0 -130 -54.5 -198.5t-157.5 -68.5q-59 0 -102.5 24t-66 65t-33 85t-10.5 93q0 51 9 95t31 86.5t66 67t107 24.5q49 0 87 -16.5t61 -43t37.5 -63.5t20 -73.5t5.5 -76.5z" />
    <glyph glyph-name="one.tnum_onum" 
d="M437 0h-348v30h167v451l-159 -84l-13 25l199 106h5v-498h149v-30z" />
    <glyph glyph-name="two.tnum_onum" 
d="M74 438l-19 24q83 67 187 67q91 0 141 -43t50 -109q0 -37 -18.5 -74t-57 -75t-71.5 -65.5l-87.5 -69.5l-80.5 -63h352v-30h-425v8l81.5 63l77.5 60l63 51.5t56.5 51.5t39 46t28.5 48t8 45q0 66 -45 96.5t-113 30.5q-93 0 -167 -62z" />
    <glyph glyph-name="three.tnum_onum" 
d="M47 -126l17 27q84 -56 175 -56q78 0 133.5 45.5t55.5 126.5q0 179 -283 179v11l246 283h-313v29h370v-6l-253 -290q136 -6 201.5 -62t65.5 -141q0 -89 -61 -146.5t-162 -57.5q-107 0 -192 58z" />
    <glyph glyph-name="four.tnum_onum" 
d="M349 30v413l-280 -413h280zM502 0h-121v-176h-32v176h-329v7l350 516h11v-493h121v-30z" />
    <glyph glyph-name="five.tnum_onum" 
d="M44 -131l15 27q79 -51 170 -51q81 0 134.5 44.5t53.5 131.5q0 91 -75.5 135.5t-239.5 46.5l10 316h325l-5 -29h-292l-8 -261q319 -10 319 -206q0 -95 -60 -151t-163 -56q-101 0 -184 53z" />
    <glyph glyph-name="six.tnum_onum" 
d="M455 202q0 83 -48 128.5t-129 45.5q-86 0 -141.5 -52t-55.5 -114q0 -79 51 -135.5t144 -56.5q74 0 126.5 51.5t52.5 132.5zM489 202q0 -90 -62 -151.5t-153 -61.5q-106 0 -167 67.5t-61 196.5q0 99 40 190t127.5 164t208.5 99l7 -26q-111 -26 -191 -90t-118 -142.5
t-45 -169.5q26 59 82 93t125 34q94 0 150.5 -55.5t56.5 -147.5z" />
    <glyph glyph-name="seven.tnum_onum" 
d="M490 508l-298 -689l-30 10l291 661h-416v29h453v-11z" />
    <glyph glyph-name="eight.tnum_onum" 
d="M455 549q0 -34 -13 -62t-40 -52t-51.5 -39.5t-63.5 -37.5q43 -24 68.5 -40.5t56 -42t44.5 -54.5t14 -63q0 -71 -55.5 -120t-151.5 -49q-91 0 -152 47.5t-61 121.5q0 36 14 66t42.5 54.5t54 41t67.5 38.5q-79 44 -121 86.5t-42 103.5q0 65 53 109.5t143 44.5
q89 0 141.5 -44t52.5 -109zM436 154q0 31 -13.5 57.5t-44.5 51.5t-53.5 39t-68.5 40q-42 -22 -65.5 -36.5t-52 -38t-41.5 -50t-13 -57.5q0 -66 53 -104t131 -38q75 0 121.5 40t46.5 96zM99 548q0 -54 41 -92.5t119 -81.5q39 20 62 34.5t49 36t38.5 46.5t12.5 54q0 60 -44 94
t-119 34q-67 0 -113 -35t-46 -90z" />
    <glyph glyph-name="nine.tnum_onum" 
d="M72 317q0 -84 47 -130t128 -46q86 0 143 53t57 115q0 78 -52 134.5t-146 56.5q-76 0 -126.5 -51t-50.5 -132zM38 317q0 91 58.5 151.5t151.5 60.5q106 0 169.5 -68t63.5 -195q0 -102 -37 -193t-117 -162.5t-192 -97.5l-7 26q151 39 231.5 146t92.5 256q-26 -59 -83 -94
t-126 -35q-93 0 -149 56t-56 149z" />
    <glyph glyph-name="zero.slash" 
d="M472 346q0 -171 -54.5 -264t-157.5 -93q-59 0 -102.5 31.5t-66 86t-33 113.5t-10.5 126q0 65 9 122t31 112.5t66 88.5t107 33q49 0 87 -22.5t61 -57.5t37.5 -83.5t20 -95t5.5 -97.5zM438 345q0 135 -33 216l-277 -461q46 -82 133 -82q177 0 177 327zM82 345
q0 -135 32 -214l277 461q-45 81 -131 81q-178 0 -178 -328z" />
    <glyph glyph-name="A.smcp" horiz-adv-x="480" 
d="M367 181h-256l-70 -181h-31l213 538h35l212 -538h-33zM238 506l-116 -297h235l-116 297h-3z" />
    <glyph glyph-name="B.smcp" horiz-adv-x="469" 
d="M388 140q0 62 -42.5 90.5t-133.5 28.5h-88v-234h87q93 0 135 28.5t42 86.5zM351 405q0 106 -145 106h-82v-224h75q26 0 49 4.5t48 16t40 36.5t15 61zM419 141q0 -71 -53 -106t-146 -35h-127v538h113q79 0 127.5 -31.5t48.5 -97.5q0 -93 -96 -130v-2q133 -21 133 -136z
" />
    <glyph glyph-name="C.smcp" horiz-adv-x="546" 
d="M481 510l-13 -25q-62 32 -133 32q-108 0 -173 -72t-65 -175q0 -111 66 -181.5t171 -70.5q93 0 162 54l16 -23q-80 -60 -179 -60q-122 0 -195 80t-73 196q0 118 74.5 199.5t195.5 81.5q79 0 146 -36z" />
    </font>
</defs>
</svg>
