<?xml version="1.0" encoding="utf-8"?>
<!-- Generator: Adobe Illustrator 19.2.1, SVG Export Plug-In . SVG Version: 6.00 Build 0)  -->
<svg version="1.1" id="Слой_1" xmlns="http://www.w3.org/2000/svg" xmlns:xlink="http://www.w3.org/1999/xlink" x="0px" y="0px"
	 viewBox="0 0 330 330" style="enable-background:new 0 0 330 330;" xml:space="preserve">
<style type="text/css">
	.st0{fill:#10A4D7;}
</style>
<g>
	<path class="st0" d="M123.6,260.9c0,15.7,0,31.3,0,47c0,1.4-0.5,1.6-1.7,1.6c-16.6-0.6-33.3-1.1-49.9-2c-4.8-0.3-9.7-0.6-14.5-0.8
		c-1.6-0.1-1.9-0.7-2-2.2c-0.1-12.1-0.3-24.2-0.4-36.3c-0.2-17.4-0.2-34.9-0.3-52.3c-0.1-13-0.1-25.9-0.2-38.9
		c0-4.1-0.2-8.3-0.2-12.4c0-1.3-0.6-1.3-1.5-1.3c-13.3-0.3-26.6-0.6-39.9-0.9c-3.5-0.1-7-0.3-10.5-0.3c-1.2,0-1.5-0.4-1.6-1.6
		c-0.4-3.6,0.8-6.1,3.7-8.4c13.1-10.4,25.6-21.6,38-32.8c13.3-12,26.5-24,39.8-35.9c16.8-15.1,33.9-30,51.5-44.3
		c7.5-6.1,15.2-11.8,22.8-17.6c1.3-1,2.9-0.8,4.3-0.8c3.8,0,7.5,0.1,11.3,0.2c0.9,0,1.6,0.3,2.3,0.8c12.2,8.9,23.9,18.4,35.5,28.1
		c12.3,10.3,24.3,20.9,36.1,31.7c11.8,10.7,23.5,21.5,35.4,32.1c15.1,13.5,30.1,27,45.9,39.5c2,1.6,1.6,3.4,1.7,5.3
		c0.1,3.1,0,3.1-3,3.2c-13.2,0.5-26.5,1.1-39.7,1.6c-2.8,0.1-5.7,0.2-8.5,0.2c-1.4,0-1.8,0.6-1.8,1.9c-0.1,15.9-0.4,31.8-0.4,47.6
		c0,16.4-0.1,32.8-0.2,49.1c0,8.5-0.2,17.1-0.3,25.6c-0.1,5.7-0.3,11.4-0.4,17.1c0,1.5-0.5,2-2.1,2.1c-21.5,1.1-43.1,1.8-64.7,2.5
		c-1.8,0.1-1.7-0.7-1.7-2c0-31.1,0-62.1,0-93.2c0-1.8-0.3-2.4-2.3-2.8c-15.8-3.2-31.9-4.3-48-3.6c-10.4,0.4-20.7,1.8-30.8,3.9
		c-1,0.2-1.3,0.8-1.3,1.8c0,11,0,22.1-0.1,33.1c0,4.8,0,9.5,0,14.3C123.9,260.9,123.8,260.9,123.6,260.9z"/>
</g>
</svg>
