<svg id="Слой_1" xmlns="http://www.w3.org/2000/svg" viewBox="0 0 330 330"><style>.st0{fill:#15a5d8}.st1{fill:#80b76a}</style><path class="st0" d="M267.9 200.5c-6.7-1.8-13-3.4-19.4-4.5-9.8-1.7-19.6-2.5-29.5-1.6-11.4 1-22 4.3-31.4 11-9.7 7-18.3 15.1-23.9 25.9-4 7.8-6.7 16-7.8 24.6-.5 4.1-.9 8.2-.8 12.3.3 14.7 4.1 28.4 11.4 41.1.4.7.8 1.4 1.1 2-6.4 0-12.8.2-19.1-.1-4.4-.2-8.8-.3-13.1-.5-18.2-.9-36.2-2.7-53.7-8-15.1-4.5-28.8-11.6-40.6-22.1-2.2-1.9-1.8-4.4-2-6.7-.8-7.6-1.2-15.2-.9-22.8.5-12.3 2-24.4 5-36.3 1.5-6 2.8-12 5.5-17.7 4.8-9.9 12.5-16.9 21.9-22.2 10.9-6.1 22.8-9.5 34.8-12.5 3.9-1 7.8-1.9 11.7-2.9.9-.2 1.5-.2 2.2.3 8 5 16.7 8.2 25.9 9.8 12.6 2.1 24.8.6 36.7-4.1 2.8-1.1 5.6-2.2 7.9-4 2.9-2.1 5.8-2.2 9.1-1.5 7.7 1.7 15.3 3.5 22.8 6.1 15.8 5.6 29.9 13.8 40.8 26.9 1.8 2.3 3.6 4.7 5.4 7.5zM219.5 74.7c-.4 16.3-5.2 34.9-17 51.2-8.7 11.9-20 20.2-34.4 24.1-14.4 3.9-27.6.5-39.9-7-12-7.3-20.3-17.9-26.2-30.5-4.4-9.3-7.2-19.1-8.4-29.3-1.2-10.1-1-20.2 1-30.3 2-10 5.4-19.4 11.1-27.9C114 12.6 125.3 4.2 139.8.3c.5-.1 1.1-.2 1.6-.2 8.4 0 16.7-.1 25.1 0 7 0 13.3 2.6 19.3 5.9 14.8 8 24 20.6 29.2 36.4 3.2 9.3 4.5 18.3 4.5 32.3z"/><path class="st1" d="M228.1 204.9c13 .2 24.2 4.2 34.2 11.4 11.9 8.5 20.7 19.4 25.6 33.3 4.9 14 4.5 27.7-2.6 41-2.3 4.4-4.2 9-7.2 13.1-5.8 7.8-13.3 13.5-21.8 17.9-7.1 3.7-14.5 6.5-22.3 8.2-4.1.9-8.2.2-12.2-.6-23.4-4.7-39.9-18.3-50.2-39.6-3.9-8-5.7-16.5-5.8-25.4-.1-3.3 1.2-6.5 2.2-9.6 4.9-15.2 13.3-27.9 26.2-37.4 10.2-7.5 21.6-11.8 33.9-12.3zm8.8 56.1v-25.7c0-1.5-.3-2.1-2-2.1-3.5.1-7 .1-10.5 0-1.6-.1-2.2.3-2.1 2.1.1 7.5 0 15 .1 22.5 0 1.5-.4 1.9-1.9 1.9-8.8-.1-17.5 0-26.3 0-2 0-2.9.7-2.9 2.7v7.7c0 2.9.2 3 3.1 3.1 8.7.2 17.4-.3 26.1.3 1.6.1 2 .6 2 2.1-.1 8.1 0 16.2 0 24.3 0 1.3.4 1.7 1.7 1.7 3.6-.1 7.3-.1 10.9 0 1.6 0 2-.4 2-2-.2-8-.3-15.9-.5-23.9 0-1.3.4-1.7 1.7-1.7 6.3.1 12.5 0 18.8 0h6.9c1.2 0 2.2-.4 2-1.9-.4-2.8-.1-5.5-.2-8.3-.1-2.8-.5-3.3-3.3-3.3-7.4.1-14.7.1-22.1.2-1.2-.1-2.5-.2-3.5.3z"/></svg>