<svg id="Слой_1" xmlns="http://www.w3.org/2000/svg" viewBox="0 0 330 330"><style>.st0{fill:#11a5d7}</style><path class="st0" d="M72.5 167.2c1.1-1.4.8-3.1.8-4.6 0-1.2.4-2.1 1.3-3 20.8-20.5 41.5-40.9 62.2-61.5 23.3-23.1 46.7-46.2 70.5-68.9 9.6-9.1 19.2-18.1 28.9-27.2 1.9-1.8 1.9-1.7 3.5.4 3.5 4.8 7.9 8.9 11.2 13.8 1 1.5 1.8 3 2.4 4.8 1.4 4.2.6 7.8-2.9 10.5-8.3 6.7-15.9 14.2-23.7 21.4-16.2 15-31.9 30.5-47.7 45.9-11.9 11.6-23.7 23.4-35.5 35.1-10.2 10.1-20.4 20.2-30.7 30.2-1.3 1.3-1.3 1.9 0 3.1l59.4 58.5c14.8 14.6 29.7 29.2 44.6 43.6 13.2 12.8 26.5 25.4 39.8 38.1 1.2 1.1 1.2 1.7.1 2.8-6.1 5.9-12.2 11.9-18.2 17.8-1.2 1.2-1.8 1.5-3.2-.2-2.3-2.7-5.1-4.9-7.8-7.4-21.3-19.8-42.3-39.9-63-60.3-14.9-14.7-29.8-29.4-44.8-44-15.2-14.5-30.5-29.1-45.7-43.8l-1.5-1.2v-3.9z"/></svg>