<svg id="Слой_1" xmlns="http://www.w3.org/2000/svg" viewBox="0 0 100 100"><style>.st0{fill:#fff}</style><path class="st0" d="M1.7 74.8c1.7-2 3.2-3.7 4.7-5.4 8.4-9.2 17.3-17.8 26.1-26.6C38 37.3 43.4 31.9 48.4 26c.9-1.1 2.3-1 3.3.1 2.7 3.1 5.5 6.1 8.4 9 9.4 9.5 18.8 18.9 28.1 28.4 3.2 3.3 6.2 6.7 9.2 10.1.3.3.5.7 1 1.2-2.1 0-4.1.1-6 0-1.6-.1-3.3-.3-4.9-.6-.6-.1-1.2-.4-1.6-.8C79.7 67.7 74 61.9 68.3 56c-5.5-5.8-11.1-11.5-16.6-17.3-.7-.7-1-.7-1.7-.2-5.5 4.3-10.5 9.2-15.4 14.3-5.1 5.4-10.1 11-15.6 16.1-.3.3-.6.6-.8 1-1.3 2.8-3.7 4.2-6.7 4.6-3.1.5-6.3.1-9.8.3z"/></svg>