<svg id="Слой_1" xmlns="http://www.w3.org/2000/svg" viewBox="0 0 100 100"><style>.st0{fill:#22a6d9}.st1{fill:#edf4fa}</style><path class="st0" d="M93.1 70.7h-2.2c-1.7-1-3.6-1.8-5.2-3.1-11.1-8.2-22.3-16.2-33.4-24.4-1.6-1.2-2.7-1.2-4.4 0-10.3 7.6-20.6 15.1-31 22.6-2.6 1.9-5.1 3.9-8.3 4.9H6.4c-2.1-1-4.3-1.9-5.6-3.9v-3.4c1-.8 2-1.6 3.1-2.3C16.2 52.1 28.7 43 41.1 34c2.5-1.8 4.9-3.7 7.8-4.7h1.7c2.6.8 4.8 2.1 7 3.7 13.9 10.2 27.8 20.3 41.7 30.5v3.4c-1.5 2.1-3.9 2.9-6.2 3.8z"/><path class="st1" d="M95.4 70.7h-2.2"/></svg>