<svg id="Слой_1" xmlns="http://www.w3.org/2000/svg" viewBox="0 0 330 330"><style>.st0{fill:#11a5d7}</style><path class="st0" d="M257.2 169c.5 1.5-.4 2.5-1.5 3.5-13.3 12.6-26.4 25.4-39.4 38.1-28.8 28.2-57.4 56.6-86.5 84.4-11.2 10.7-22.6 21.2-34 31.8-.8.8-1.2 2.4-2.3 2.3-1.3-.1-2.1-1.6-3.1-2.5-5.6-5.5-11.2-11-16.9-16.5-1.1-1-1.2-1.6 0-2.8 12.6-12 25.2-24.1 37.8-36.2 27.8-26.8 55.3-54 82.8-81.2 7.6-7.5 15.2-15.1 22.9-22.5 1.5-1.4 1.6-2.2 0-3.8-19.6-19.3-39.1-38.7-58.8-58-15.1-14.8-30.3-29.5-45.5-44.2-9.5-9.1-19.3-18-29-27-1.1-1.1-2.5-1.9-3.7-2.9-3.7-3-4.7-6.5-3.1-11 1.5-4.3 4.5-7.6 7.3-11 2.1-2.5 4.4-4.9 6.2-7.6 1.2-1.7 1.9-1.7 3.2-.4 3.8 3.7 7.7 7.2 11.6 10.8 18.4 17.2 36.5 34.7 54.4 52.3 10 9.8 19.9 19.7 29.9 29.5 13.2 13.1 26.4 26.1 39.6 39.2 8.8 8.7 17.7 17.5 26.6 26.2.5.5.9 1 1 1.8.2 2.7.4 5.1.5 7.7z"/></svg>