<svg id="Слой_1" xmlns="http://www.w3.org/2000/svg" viewBox="0 0 330 330"><style>.st0{fill:#afafaf}</style><path class="st0" d="M296.6 329.6h-4.3c-1.1-1.5-2-3-3.4-4.2-8.4-7.4-16.9-14.8-25.1-22.5-32.8-30.6-63.7-63.1-94.6-95.6-3.1-3.3-4.3-3.2-7.3-.1-38.5 39.8-77.4 79.2-118.5 116.4-4 3.6-7.9 5.9-13.6 5.3-5.1-.6-10.3-.4-15.4-.1-5.1.3-9.6-.8-13.7-3.5v-28.2c0-2 .6-3.5 1.9-5 16.7-19.1 34.6-37 52.5-54.9 20.4-20.3 40.5-40.8 58.7-63.1 7.2-8.9 7.2-8.8-.1-17.8-22.2-27.8-47.9-52.1-73-77.2C27.7 66.2 14.7 53 2.6 39c-.8-.9-1.9-1.7-1.9-3.2C.8 26.4.5 17 .9 7.6 1.1 1.9 3.4.4 8.9.4h22.6c1.8 0 3.2.2 4.7 1.5C43 8 50.1 13.7 56.6 20.1c21.1 20.7 42 41.7 63.1 62.4 12.8 12.6 26.2 24.5 40.2 35.8 3.6 2.9 5.8 2.7 9.3.1 27.1-20.3 50.5-44.6 74-68.8 16-16.4 32.1-32.7 49.6-47.6 1-.8 1.9-1.6 3.3-1.6 8.3 0 16.5-.2 24.8.1 6.2.2 8.3 2.8 8.3 9 0 5 .1 10 .1 14.9-.1 2.1-.4 4.3-.1 6.4.5 4.3-.8 7.5-3.8 10.7-10 10.5-19.6 21.4-29.6 31.9-28.7 30.1-58.5 59.1-88.1 88.4-2.5 2.5-2.6 3.8.1 6.3 9.3 8.8 18.3 18 27.4 26.9 31.2 30.6 62.4 61.3 91.4 94.1 1.9 2.2 2.8 4.3 2.7 7.2-.2 7.4 0 14.8.1 22.2-.1 1-.1 2-.3 3-1.2 6.1-2.9 7.4-9 7.4-6.5 0-13-.1-19.5 0-1.4-.1-3-.8-4 .7z"/></svg>