<svg id="Слой_1" xmlns="http://www.w3.org/2000/svg" viewBox="0 0 330 330"><style>.st0{fill:#28bc8b}.st1{fill:#29bc8b}</style><path class="st0" d="M1 129.6c.9-.1.7-.8.9-1.3 2.7-8.2 8-11.7 16.7-11.5 12.9.2 25.7 0 38.6 0h193.4c4.8 0 9.6-.1 14.5 0 8.7.2 13.4 4.5 14.7 13.1.3 1.8.6 3.6.4 5.4-.1 1.4.4 1.7 1.8 1.7 7.2-.1 14.3-.1 21.5 0 3.6 0 7.2-.1 10.7.9 7.7 2 12.4 7.3 14.3 14.8 1.8 6.9.1 13.6-1.9 20.2-6.5 21.5-18.7 39.4-35.1 54.5-14.7 13.4-31.5 23-51.2 27-.9.2-1.7.4-2.6.3-6.5-.4-9.6 4.5-13.3 8.4-7.3 7.5-15.4 14.1-24.4 19.4-1.9 1.1-2.1 2.1-1.1 3.8 4.6 8.9 1.6 18.7-5.1 24.1-3.5 2.8-7.5 4.3-11.9 4.3-27.5 0-55 .2-82.4-.1-11.6-.1-19.8-10.8-18.5-21.4.3-2.8 1-5.6 2.6-8.1.8-1.3.4-1.8-.7-2.5-8.1-4.9-15.7-10.6-22.5-17.3-9.6-9.3-17.7-19.8-24.7-31.1-10-15-17.1-31.2-22.7-48.2-4-11.9-7.1-24-9.6-36.3-.7-3.6-1.3-7.3-2-10.9-.1-.4 0-.7-.4-.9v-8.3zm254.6 88.5c7.1-4 13.5-8.7 19.3-14.3 10.6-10.3 18.5-22.4 23.6-36.4.5-1.5.2-1.8-1.3-1.8-6.9.1-13.9.1-20.8 0-1.5 0-2.1.4-2.5 1.9-2.7 10.1-5.9 20.1-9.6 29.9-2.6 6.9-5.5 13.8-8.7 20.7z"/><path class="st1" d="M133.4 15.2c7.8 16 5.4 31.4-3.9 46-3.4 5.4-6.7 10.8-7.8 17.2-1.4 7.9-.6 15.7 1 23.5.5 2.6-.4 5-2.4 6.3-2.6 1.6-4.6 1.5-7.1-.3-8.9-6.4-14.5-14.8-16.4-25.6-1.5-8.6-.4-17 2.7-25.1 1.4-3.8 3.2-7.5 5.2-11 4.8-8.5 7.9-17.5 8.1-27.3M170.7 19.9c5.8 3.9 10.1 9.1 12.4 15.7 1.3 3.8 2 7.8 1.9 10.4-.1 9-2.4 15.9-6.5 22.2-4.1 6.3-7 13-6.6 20.6.2 3.7.8 7.4 1.3 11.1.3 2.4-.5 4.3-2.5 5.6-2 1.3-4 1.2-5.9-.1-7.8-5-12-12.3-13.6-21.2-1.7-9.7.9-18.5 5.4-26.9 2-3.7 3.7-7.4 5.1-11.3 2.4-6.3 2.1-12.7 1-19.2"/></svg>