<svg id="Слой_1" xmlns="http://www.w3.org/2000/svg" viewBox="0 0 100 100"><style>.st0{fill:#18a6d8}</style><path class="st0" d="M19 88.9V79c0-.8-.2-1.3-.9-1.8C12.7 73 8.3 68 5.1 62 2.9 57.9 1.4 53.6.8 49c-.5-3.6-.5-7.2.1-10.8 1-6.2 3.4-11.9 7-17 2.7-3.7 5.9-7 9.5-9.8 4.6-3.6 9.8-6.3 15.4-8.2 3.5-1.2 7-2 10.7-2.4C47.6.4 51.8.3 55.9.7 63 1.3 69.7 3.5 76 6.9c4.9 2.7 9.2 6 13 10.1 4.4 4.8 7.6 10.2 9.4 16.5 1.1 4 1.6 8 1.4 12.1-.2 5.2-1.6 10.2-3.8 14.9-2.5 5.2-6 9.7-10.2 13.6-4.2 3.8-8.9 6.7-14.1 9-4.5 1.9-9.1 3-13.9 3.7-3.9.5-7.9.7-11.8.6-.9 0-1.7.1-2.5.5-6.1 2.6-11.9 5.7-17.8 8.8-1.9 1-3.9 1.9-5.8 2.9-.5.3-.6.1-.6-.4-.2-3.5-.2-6.9-.3-10.3zm30.5-7.8c4 .1 7.7-.4 11.4-1.2 4.4-1 8.6-2.5 12.5-4.7 3.1-1.7 6-3.7 8.6-6.1 2.7-2.5 4.9-5.3 6.8-8.5 2.6-4.4 4.1-9.1 4.5-14.2.2-2.6.1-5.3-.4-7.9-.7-4.1-2.1-8-4.3-11.6-1.9-3.3-4.4-6-7.2-8.6-2.8-2.5-5.8-4.6-9.1-6.3C66.8 9.2 61 7.6 54.9 7c-4.6-.5-9.1-.3-13.7.5-5.7 1-11 3-16 6-5.6 3.3-10.2 7.7-13.6 13.3-4 6.6-5.7 13.8-4.6 21.5.8 5.4 2.8 10.3 6 14.8 3.1 4.4 7 8.1 11.6 10.9.6.4.8.7.8 1.5-.1 4.7-.2 9.4-.1 14.1 0 .8 0 .8.7.4 2.5-1.3 5-2.5 7.5-3.7 3.2-1.6 6.4-3.1 9.4-5 .6-.4 1.1-.5 1.7-.4 1.7.1 3.4.2 4.9.2z"/></svg>