<svg xmlns="http://www.w3.org/2000/svg" viewBox="0 0 500 500"><path d="M1.3 251.9v-1.3c.2-2.4.5-4.7.6-7.1.3-19.5 3.5-38.7 8.8-57.4 10.9-38.1 29.7-71.9 56-101.5C90.4 58 118.4 37.1 151 22.3c28.6-13.1 58.9-18.7 89.9-20.7 19.2-1.3 38.4.2 57.4 4.1 28.5 5.9 55.1 16.4 79.8 31.7 42.1 26 74.8 60.8 97.2 105 14.2 28.1 22.6 57.9 24.2 89.5 1.3 25 .6 49.9-5.1 74.4-9.7 42.3-29.9 79.1-59.1 111.1-23.1 25.3-50.2 45.6-81.3 60.1-31 14.5-63.3 23.9-98 22.5-13.4-.5-26.8-.6-40.1-2.2-17.5-2-34.5-6.7-50.9-13.1-58.6-23-103.4-61.9-133.8-117-18.9-34.3-27.5-71.5-29.3-110.3-.1-1.9-.4-3.7-.6-5.5zm271.2 9.4c5.4 1 10.3 2.3 15.3 2.7 10.6.9 20-3.5 24.5-14.5 3.8-9.4 5-19.2 5.8-29 .4-4.4.4-8.7.6-12.8h-46.4c.6-13.9 1.3-27.8 1.9-41.9 13-.9 25.7-1.8 38.4-2.7 1.7-.1 3.4.2 3.4-2.6-.3-9.7-.3-19.5-.4-29.2-.1-6.1 0-12.3 0-18.6-10.2.5-19.5.7-28.7 1.6-10.6 1-21.3 2-31.7 4-20.3 3.8-32.6 16.4-38 36.2-3.1 11.3-4 22.9-5 34.5-.5 5.8-1.1 11.5-1.7 17.3-9.3.7-18.1 1.4-26.5 2v50.4c9.5 1.2 18.4 2.3 27.7 3.5.4 9 1.2 17.8 1.1 26.7-.2 37.4-.6 74.9-1.1 112.3 0 2.7.8 3.5 3.5 3.5 17.7-.1 35.5 0 53.2.1 2.6 0 3-.9 3-3.2.1-10.6.3-21.2.4-31.8l.6-96.4c.2-4.1.1-8.1.1-12.1z"/></svg>