<svg id="Слой_1" xmlns="http://www.w3.org/2000/svg" viewBox="0 0 330 330"><style>.st0{fill:#fff}</style><path class="st0" d="M81.6 110.9c-2.4-3.4-4.6-6.6-6.9-9.8C69 93 63.3 85 59.2 75.9c-5.8-12.8-6.3-25.6-.4-38.5 4.5-9.6 10.7-17.8 19.6-23.7 6.9-4.6 14.4-6.6 22.7-4.2 1 .3 1.8.7 2.6 1.4 18.7 17 36.6 34.9 54.1 53.1 15.9 16.7 31.5 33.7 47.1 50.7 7.3 8 14.6 15.9 21.8 24 1.1 1.2 2.3 1.3 3.6 1.1 7.4-.9 14.8-1 22.2-.8 16.1.3 31.9 2.7 46.5 9.9 13.9 6.8 24 17.3 29.7 31.8.5 1.1.7 2.3.7 3.5 0 7.6.2 15.3-.1 22.9-.1 4.4-1.6 8.6-2.5 12.9-2.6 11.9-5.5 23.6-9.4 35.1-5 14.6-11.8 28.3-21.9 40.2-10.4 12.3-23.6 20.1-39.5 22.4-30.7 4.4-56-5.1-75.2-29.8-.9-1.1-1.7-1.4-3.1-1.2-9.5 1.4-19.1 2.7-28.6 4.2-7 1.1-13.9 1.9-21 2.4-10.1.8-20.3 1-30.5.2-10.3-.8-20.4-2.8-30.1-6.5-8.3-3.2-16.2-7.2-22.7-13.2-5.1-4.6-9.3-10.2-13.3-15.8-11.2-15.8-19-33.1-23.9-51.7-3.9-14.9-5.7-30.1-5.3-45.6.3-9.9 1.1-19.9 3.8-29.5 3.2-11.1 10.7-18 21.6-21.2 9.4-2.8 19-2.6 28.6-1.9 8 .5 16 1.6 23.9 2.7.4.1.7.1 1.4.1zm-57.2 47.3c.2 10.8 1.3 21.4 3.2 32 2 11 5 21.7 9.2 32 5.9 14.3 14 27.1 25.3 37.8 1.4 1.3 2.6 2.8 4.5 3.6 6.2 2.4 12.5 4.3 18.9 5.5 11.8 2.2 23.7 2.9 35.7 2.3 14.4-.7 28.7-2.8 43-5 10.3-1.6 20.6-3.3 30.9-4.9 1.1-.2 1.8-.4 2.3-1.5.9-2.1 2.1-4 3.1-6.1 7.7-14.7 14.4-29.8 18.7-45.8 3.5-13 5.4-26.1 4.6-39.6-.1-1.5-.7-2.3-1.9-3-5-3-9.6-6.6-13.9-10.6-9.5-8.7-17.6-18.6-25.3-28.9-6.8-9-13.5-18-20.8-26.6-7-8.2-15.1-15.2-23.3-22.2-15.8-13.2-29.7-28.4-42-45.1-2.6-3.6-2.7-3.7-6.2-.7-9.9 8.5-13.9 19.1-10.5 32 2.8 10.4 8.7 19 15.3 27.3 6 7.7 12.7 14.8 19.5 21.8 1 1 1.1 1.5-.1 2.4-2.8 2.3-5.5 4.8-8.2 7.1-4.3 3.7-8.6 7.2-14.2 8.8-3.2 1-6.4.2-9.5.6-8.1.9-16.2-.1-24.3-.7-6.4-.5-12.9-.9-19.4.2-7.9 1.4-12.4 5.6-14.1 13.3-1 4.7-.4 9.4-.5 14zm226.1-5.1c.1.8.1 1.3.2 1.8 1.3 7.1 2.2 14.2 2.7 21.3.8 13.7.1 27.3-2.5 40.8-3 15.6-8.5 30.3-17.2 43.7a91.1 91.1 0 0 1-18.2 20.5c-2.9 2.5-6 4.7-9.4 7 .8.2 1.2.4 1.7.5 4 .9 8 1.8 12 2.8 9.7 2.3 19.3 5 29.4 4.5 6.2-.3 12.2-1.7 17.3-5.3 9.7-6.9 16.5-16.4 22.2-26.7 7.3-13.2 11.7-27.3 14.4-42.1 1.7-9.3 2.8-18.7 3.3-28.1.5-9.4-2.9-17-10.5-22.5-3.8-2.8-8.1-4.8-12.4-6.5-6-2.3-12.2-4.1-18.4-6.1-5-1.5-9.8-3.1-14.6-5.6z"/></svg>