<?xml version="1.0" encoding="utf-8"?>
<!-- Generator: Adobe Illustrator 19.2.1, SVG Export Plug-In . SVG Version: 6.00 Build 0)  -->
<svg version="1.1" id="Слой_1" xmlns="http://www.w3.org/2000/svg" xmlns:xlink="http://www.w3.org/1999/xlink" x="0px" y="0px"
	 viewBox="0 0 330 330" style="enable-background:new 0 0 330 330;" xml:space="preserve">
<style type="text/css">
	.st0{fill:#10a5d8;}
</style>
<g>
	<path class="st0" d="M81.6,110.9c-2.4-3.4-4.6-6.6-6.9-9.8C69,93,63.3,85,59.2,75.9c-5.8-12.8-6.3-25.6-0.4-38.5
		c4.5-9.6,10.7-17.8,19.6-23.7c6.9-4.6,14.4-6.6,22.7-4.2c1,0.3,1.8,0.7,2.6,1.4c18.7,17,36.6,34.9,54.1,53.1
		c15.9,16.7,31.5,33.7,47.1,50.7c7.3,8,14.6,15.9,21.8,24c1.1,1.2,2.3,1.3,3.6,1.1c7.4-0.9,14.8-1,22.2-0.8
		c16.1,0.3,31.9,2.7,46.5,9.9c13.9,6.8,24,17.3,29.7,31.8c0.5,1.1,0.7,2.3,0.7,3.5c0,7.6,0.2,15.3-0.1,22.9
		c-0.1,4.4-1.6,8.6-2.5,12.9c-2.6,11.9-5.5,23.6-9.4,35.1c-5,14.6-11.8,28.3-21.9,40.2c-10.4,12.3-23.6,20.1-39.5,22.4
		c-30.7,4.4-56-5.1-75.2-29.8c-0.9-1.1-1.7-1.4-3.1-1.2c-9.5,1.4-19.1,2.7-28.6,4.2c-7,1.1-13.9,1.9-21,2.4
		c-10.1,0.8-20.3,1-30.5,0.2c-10.3-0.8-20.4-2.8-30.1-6.5c-8.3-3.2-16.2-7.2-22.7-13.2c-5.1-4.6-9.3-10.2-13.3-15.8
		c-11.2-15.8-19-33.1-23.9-51.7c-3.9-14.9-5.7-30.1-5.3-45.6c0.3-9.9,1.1-19.9,3.8-29.5c3.2-11.1,10.7-18,21.6-21.2
		c9.4-2.8,19-2.6,28.6-1.9c8,0.5,16,1.6,23.9,2.7C80.6,110.9,80.9,110.9,81.6,110.9z M24.4,158.2c0.2,10.8,1.3,21.4,3.2,32
		c2,11,5,21.7,9.2,32c5.9,14.3,14,27.1,25.3,37.8c1.4,1.3,2.6,2.8,4.5,3.6c6.2,2.4,12.5,4.3,18.9,5.5c11.8,2.2,23.7,2.9,35.7,2.3
		c14.4-0.7,28.7-2.8,43-5c10.3-1.6,20.6-3.3,30.9-4.9c1.1-0.2,1.8-0.4,2.3-1.5c0.9-2.1,2.1-4,3.1-6.1c7.7-14.7,14.4-29.8,18.7-45.8
		c3.5-13,5.4-26.1,4.6-39.6c-0.1-1.5-0.7-2.3-1.9-3c-5-3-9.6-6.6-13.9-10.6c-9.5-8.7-17.6-18.6-25.3-28.9c-6.8-9-13.5-18-20.8-26.6
		c-7-8.2-15.1-15.2-23.3-22.2C122.8,64,108.9,48.8,96.6,32.1c-2.6-3.6-2.7-3.7-6.2-0.7c-9.9,8.5-13.9,19.1-10.5,32
		c2.8,10.4,8.7,19,15.3,27.3c6,7.7,12.7,14.8,19.5,21.8c1,1,1.1,1.5-0.1,2.4c-2.8,2.3-5.5,4.8-8.2,7.1c-4.3,3.7-8.6,7.2-14.2,8.8
		c-3.2,1-6.4,0.2-9.5,0.6c-8.1,0.9-16.2-0.1-24.3-0.7c-6.4-0.5-12.9-0.9-19.4,0.2c-7.9,1.4-12.4,5.6-14.1,13.3
		C23.9,148.9,24.5,153.6,24.4,158.2z M250.5,153.1c0.1,0.8,0.1,1.3,0.2,1.8c1.3,7.1,2.2,14.2,2.7,21.3c0.8,13.7,0.1,27.3-2.5,40.8
		c-3,15.6-8.5,30.3-17.2,43.7c-5,7.7-11.1,14.6-18.2,20.5c-2.9,2.5-6,4.7-9.4,7c0.8,0.2,1.2,0.4,1.7,0.5c4,0.9,8,1.8,12,2.8
		c9.7,2.3,19.3,5,29.4,4.5c6.2-0.3,12.2-1.7,17.3-5.3c9.7-6.9,16.5-16.4,22.2-26.7c7.3-13.2,11.7-27.3,14.4-42.1
		c1.7-9.3,2.8-18.7,3.3-28.1c0.5-9.4-2.9-17-10.5-22.5c-3.8-2.8-8.1-4.8-12.4-6.5c-6-2.3-12.2-4.1-18.4-6.1
		C260.1,157.2,255.3,155.6,250.5,153.1z"/>
</g>
</svg>
