<?xml version="1.0" encoding="utf-8"?>
<!-- Generator: Adobe Illustrator 19.2.1, SVG Export Plug-In . SVG Version: 6.00 Build 0)  -->
<svg version="1.1" id="Слой_1" xmlns="http://www.w3.org/2000/svg" xmlns:xlink="http://www.w3.org/1999/xlink" x="0px" y="0px"
	 viewBox="0 0 100 100" style="enable-background:new 0 0 100 100;" xml:space="preserve">
<style type="text/css">
	.st0{fill:#b9b9b9;}
</style>
<g>
	<path class="st0" d="M96.6,52.7c0,9.1,0,18.2,0,27.4c0,0.3-0.1,0.5-0.4,0.7c-3.6,2.5-7.5,4.1-11.8,4.9c-5.1,1-10.2,0.9-15.4,0.8
		c-2.5-0.1-5,0-7.5,0c-2.6,0-5.2,0-7.8,0c-2.7,0-5.5,0-8.2,0c-2.7,0-5.3,0-8,0c-2.4,0-4.9,0-7.3,0.1c-3.7,0.1-7.3,0.1-11-0.3
		c-5.2-0.5-10.2-1.9-14.7-4.8c-0.4-0.2-0.7-0.5-1.1-0.7c-0.2-0.1-0.3-0.3-0.3-0.5c0-2.3,0-4.7,0-7c0-1.9,0-3.7,0-5.6
		c0-1.9,0-3.9,0-5.8c0-1.9,0-3.8,0-5.7c0-1.8,0-3.7,0-5.5c0-2,0-3.9,0-5.9c0-2.7,0-5.3,0-8c0-1.9,0-3.8,0-5.7c0-1.8,0-3.7,0-5.5
		c0-0.3,0-0.6,0.1-0.8c1.3-2.5,2.7-4.9,4.8-6.8c1.8-1.5,3.8-2.3,6.1-2.3c4,0,8-0.2,12-0.2c5.1-0.1,10.2-0.1,15.3-0.2
		c4.1-0.1,8.3-0.1,12.4-0.1c5.1,0,10.1,0.1,15.2,0.2c3.9,0.1,7.8,0.1,11.7,0.2c1.8,0,3.5,0.1,5.3,0.1c2.6,0,4.6,1.2,6.4,3.1
		c1.6,1.7,2.8,3.8,3.9,5.9c0.2,0.3,0.2,0.6,0.2,0.9c0,7.2,0,14.4,0,21.6C96.6,49,96.6,50.8,96.6,52.7z M12.8,33.2c0,1.2,0,2.4,0,3.5
		c0,8.6,0,17.2,0,25.8c0,4.4,0,8.8-0.1,13.2c0,0.5,0.1,0.6,0.6,0.6c4.3,0,8.6,0.1,13,0.1c7.9,0,15.7,0.1,23.6,0.1
		c5.1,0,10.2,0,15.2-0.1c7.2,0,14.3-0.1,21.5-0.1c0.5,0,0.6-0.1,0.6-0.6c-0.1-2.3-0.1-4.6-0.1-6.9c0-11.7,0-23.4,0-35.1
		c0-0.1,0.1-0.3-0.1-0.5c-4.1,2.9-8.1,6.1-11.9,9.4c-2.6,2.2-5.2,4.5-7.8,6.7c-3.5,3-7,5.9-10.5,8.7c-3.4,2.8-8.7,3.2-12.5,0.9
		c-2.2-1.4-4.1-3.1-6-4.7c-4.9-4.2-9.8-8.5-14.7-12.7C20.3,38.7,16.7,35.9,12.8,33.2z M20.3,25.1c0.2,0.2,0.3,0.3,0.4,0.4
		c5.2,5.3,10.8,10.2,16.5,14.9c4,3.3,8.2,6.5,12.2,9.9c0.6,0.5,0.9,0.4,1.4,0c4.5-3.6,9.1-7.2,13.6-11c4.4-3.8,8.8-7.6,12.9-11.7
		c0.8-0.8,1.7-1.6,2.5-2.4C59.9,24.7,40.2,24.7,20.3,25.1z"/>
</g>
</svg>
