<?xml version="1.0" encoding="utf-8"?>
<!-- Generator: Adobe Illustrator 19.2.1, SVG Export Plug-In . SVG Version: 6.00 Build 0)  -->
<svg version="1.1" id="Слой_1" xmlns="http://www.w3.org/2000/svg" xmlns:xlink="http://www.w3.org/1999/xlink" x="0px" y="0px"
	 viewBox="0 0 100 100" style="enable-background:new 0 0 100 100;" xml:space="preserve">
<style type="text/css">
	.st0{fill:#7c7b78;}
</style>
<g>
	<path class="st0" d="M31.8,0.8c0.1,0,0.2,0,0.3,0c0.9-0.2,1.5,0.2,2,1c3,4.2,6,8.2,8.9,12.4c3,4.1,5.9,8.3,8.8,12.5
		C56.6,33.3,61.3,40,66,46.7c0.7,1,1.3,1.9,2,2.8c0.3,0.4,0.3,0.7,0,1.1c-3.4,4.7-6.7,9.4-10,14.2c-5.4,7.6-10.7,15.3-16.2,22.9
		c-2.7,3.8-5.5,7.5-8.3,11.2c-0.4,0.5-0.8,0.4-1.3,0.4c-0.2,0-0.1-0.2-0.1-0.3c0.1-2.1,0.7-4.1,1.9-5.9c2.5-3.5,5-7,7.5-10.5
		c4.1-5.8,8.2-11.5,12.3-17.3c3.5-4.9,7-9.8,10.5-14.7c0.4-0.5,0.3-0.8-0.1-1.3c-4.1-5.8-8.2-11.5-12.3-17.3
		c-4.1-5.8-8.3-11.6-12.4-17.4c-1.7-2.4-3.4-4.7-5.1-7.1c-1.1-1.6-1.7-3.4-2.2-5.2C32.1,1.9,31.9,1.3,31.8,0.8z"/>
</g>
</svg>
