<?xml version="1.0" encoding="utf-8"?>
<!-- Generator: Adobe Illustrator 19.2.1, SVG Export Plug-In . SVG Version: 6.00 Build 0)  -->
<svg version="1.1" id="Слой_1" xmlns="http://www.w3.org/2000/svg" xmlns:xlink="http://www.w3.org/1999/xlink" x="0px" y="0px"
	 viewBox="0 0 100 100" style="enable-background:new 0 0 100 100;" xml:space="preserve">
	 <style>
	 	.st0{
	 		fill: #fff;
	 	}
	 </style>
<g>
	<path class="st0" d="M79,44.9c-0.8-2.2-1-4.5-1-6.8c0-1.9,0-3.8,0-5.6c0-0.4-0.1-0.5-0.5-0.5c-1.7,0-3.5,0-5.2-0.1c-1.7,0-3.4-0.1-5.1,0
		c-2.7,0.1-5.3,0.3-7.9,1c-1.2,0.4-2.2,1.1-3.2,1.9c-2.8,2.3-4.6,5.4-6.2,8.6c-1,2-2,4.1-2.9,6.2c-0.7,1.7-1.4,3.3-2.2,5
		c-0.9,2.1-1.9,4.2-2.9,6.3c-1.1,2.2-2.3,4.3-3.6,6.3c-1.2,1.9-2.5,3.6-4,5.2c-1.2,1.3-2.5,2.6-3.9,3.7c-2.1,1.8-4.4,3-7,3.8
		c-2.1,0.7-4.4,1.1-6.6,1.3c-2.3,0.2-4.6,0.2-6.9,0.2c-3-0.1-6-0.2-9-0.2c-0.4,0-0.5-0.1-0.5-0.5c0-2.5,0-5,0-7.4c0-1.7,0-3.4,0-5.2
		c0-0.4,0.1-0.5,0.5-0.5c2.4,0,4.8,0,7.2-0.1c3.2,0,6.4,0,9.6-0.6c1.8-0.4,3.4-1.2,4.8-2.4c2.2-1.9,3.7-4.2,5.1-6.7
		c1.6-2.9,2.9-5.9,4.2-8.9c1.4-3.1,2.7-6.3,4.2-9.3c1-2.1,2.1-4.1,3.3-6.1c2.1-3.4,4.5-6.6,7.6-9.3c3.1-2.7,6.5-4.6,10.6-5.4
		c2.8-0.6,5.6-0.8,8.4-0.8c1.7,0,3.4,0,5,0c1.9,0,3.8,0.1,5.7,0.1c1.5,0,1.4,0,1.4-1.4c0.1-2.2-0.3-4.5-0.2-6.7
		c0.1-1.5,0.3-2.9,1.1-4.2c0.2-0.3,0.4-0.3,0.7-0.1c1.4,0.9,2.7,1.9,4,2.9c2.1,1.8,4.1,3.7,6,5.7c1.8,1.8,3.5,3.8,5.3,5.6
		c1.2,1.3,2.5,2.6,3.8,3.8c0.6,0.5,0.6,1.6,0.1,2.1c-3.2,3.1-6.2,6.4-9.3,9.6c-2.8,2.8-5.6,5.6-8.7,8C80.3,44,79.7,44.4,79,44.9z"/>
	<path class="st0" d="M49,54.1c0.7,1.3,1.4,2.5,2.1,3.7c1.5,2.6,3.1,5.1,5.5,7c1.9,1.5,4,2.1,6.3,2.3c4.2,0.5,8.4,0.3,12.6,0.3
		c0.7,0,1.4,0,2.1,0c0.4,0,0.5-0.1,0.5-0.6c0-2.6,0-5.2,0-7.8c0-0.9,0.1-1.9,0.1-2.8c0-0.4,0.2-0.7,0.6-0.7c0.2,0,0.4,0,0.6-0.2
		c0.8-0.5,1.4-0.2,2,0.4c2.6,2.4,5.2,4.8,7.7,7.3c3.3,3.4,6.6,6.8,9.9,10.1c0.4,0.4,0.4,1.4,0,1.8c-2.4,2.4-4.8,4.9-7.2,7.3
		c-1.5,1.5-2.9,3.1-4.5,4.6c-2.6,2.5-5.3,4.9-8.1,7.2c-0.4,0.3-0.6,0.3-0.7-0.3c-0.4-2.7-0.6-5.4-0.6-8.2c0-1.4,0-2.8,0-4.1
		c0-0.3-0.1-0.3-0.4-0.3c-2.8,0.1-5.6,0.1-8.4,0.1c-3.1,0-6.1,0-9.2-0.4c-3-0.4-5.8-1.2-8.5-2.6c-2-1.1-3.7-2.5-5.3-4
		c-1.5-1.4-2.9-3-4.4-4.5c-0.4-0.4-0.3-0.7-0.1-1.2c1.2-2.3,2.4-4.5,3.5-6.8C46.6,59.4,47.8,56.9,49,54.1z"/>
	<path class="st0" d="M29.8,45.2c-0.7-1.4-1.5-2.7-2.2-4.1c-1.4-2.5-3-4.8-5.3-6.5c-1.8-1.4-3.9-2-6.1-2.3c-3.1-0.4-6.3-0.4-9.5-0.4
		c-1.8,0-3.7,0-5.5,0c-0.4,0-0.5-0.1-0.5-0.5c0-3.1,0-6.1,0-9.2c0-1.1,0-2.3,0-3.4c0-0.4,0.1-0.5,0.5-0.5c1.7,0,3.5,0,5.2-0.1
		C8,18,9.7,18,11.4,18c2.4,0,4.9,0,7.3,0.4c2.5,0.4,4.9,1,7.1,2c2.2,0.9,4,2.3,5.8,3.8c2,1.7,3.7,3.8,5.4,5.8c0.3,0.3,0.2,0.6,0,0.9
		c-1.9,3.3-3.7,6.6-5.3,10.1c-0.6,1.2-1.1,2.5-1.6,3.7C30,44.9,30,45.1,29.8,45.2z"/>
</g>
</svg>
