<?xml version="1.0" encoding="utf-8"?>
<!-- Generator: Adobe Illustrator 19.2.1, SVG Export Plug-In . SVG Version: 6.00 Build 0)  -->
<svg version="1.1" id="Слой_1" xmlns="http://www.w3.org/2000/svg" xmlns:xlink="http://www.w3.org/1999/xlink" x="0px" y="0px"
	 viewBox="0 0 330 330" style="enable-background:new 0 0 330 330;" xml:space="preserve">
<style type="text/css">
	.st0{fill:#fff;}
</style>
<g>
	<path class="st0" d="M107.6,323.2c-12.5,0.2-24.9-0.1-37.3-1.3c-15.5-1.5-30.6-4.5-44.9-10.9c-8.3-3.8-16.1-8.5-23-14.6
		c-0.8-0.7-1.1-1.3-1.1-2.3c0-6.5,0.1-13,0-19.4c0-1.2,0.5-2.1,1-3c5.2-10.2,12.9-18.3,22-25.2c10.9-8.2,23.1-14.1,35.2-20.4
		c6.3-3.3,12.5-6.7,18.7-10.3c4-2.3,5.6-6,6.5-10c1.6-6.8-0.4-13.1-3.3-19.1c-3.7-7.6-8.8-14.4-12.3-22.2
		c-2.7-5.9-6.1-11.4-8.4-17.4c-4.8-12.8-6.7-26-5.8-39.6c0.9-12.7,4.3-24.7,11.7-35.4c6-8.7,14-14.9,23.8-18.7
		c5.1-2,10.2-4,15.6-4.8c12.1-1.9,23.7-0.2,34.7,4.8c16.6,7.6,28.3,19.6,33.6,37.4c1.4,4.9,1.4,10,2.3,14.9
		c2.7,14.7-1,28.4-7.1,41.7c-4.9,10.7-11.1,20.8-16.7,31.2c-2.6,4.9-5.1,10-7.3,15.1c-3.5,8.2-0.6,17.1,5.7,22.3
		c5,4.2,11,6.7,16.8,9.5c12.4,5.9,25,11.5,36.3,19.5c9.2,6.5,17.1,14.1,21.6,24.7c3.7,8.9,3.7,17.8,0.3,26.8
		c-0.8,2.1-2.8,3.2-4.3,4.6c-10,8.7-21.9,13.5-34.7,16.3c-12,2.6-24.2,3.3-36.4,4.4C136.5,323.3,122.1,323.2,107.6,323.2z"/>
	<path class="st0" d="M223.3,9.7c11-0.1,20.8,2.2,29.8,7.5c9.6,5.7,16.4,13.9,20.3,24.4c2,5.5,4.1,10.8,5.1,16.6
		c2,11.4,0.8,22.5-2.3,33.5c-3.8,13.3-9.8,25.7-15.6,38.2c-3.9,8.3-7.8,16.7-10.9,25.4c-0.5,1.4-0.5,2.1,1.1,2.8
		c12.4,5.2,24.7,10.4,36.6,16.7c13.3,7,25.6,15.3,35.8,26.6c2.1,2.3,4,4.8,6,7.2c0.6,0.7,0.7,1.5,0.7,2.4c0,5.1-0.1,10.1,0,15.2
		c0,1.7-0.5,3-1.3,4.4c-5.3,9-13,15.1-22.5,19.1c-8.7,3.7-17.9,5.5-27.2,6.8c-8.2,1.1-16.5,2.2-24.7,3.3c-1.2,0.2-2,0-2.8-1.2
		c-11.2-17.3-26.2-30.6-43.5-41.5c-11.1-7.1-22.8-13-34.8-18.5c-1.8-0.8-1.4-1.3-0.5-2.5c12.6-15.5,21.3-33,26-52.4
		c2.8-11.2,4.1-22.5,3.5-34c-0.8-18-5.6-34.8-15.3-50.1c-4.2-6.7-9.3-12.8-15-18.2c-1-0.9-0.9-1.5-0.3-2.5
		c6-10.6,14.7-18.4,25.8-23.4C205.8,11.6,214.7,9.6,223.3,9.7z"/>
</g>
</svg>
