<?xml version="1.0" encoding="utf-8"?>
<!-- Generator: Adobe Illustrator 19.2.1, SVG Export Plug-In . SVG Version: 6.00 Build 0)  -->
<svg version="1.1" id="Слой_1" xmlns="http://www.w3.org/2000/svg" xmlns:xlink="http://www.w3.org/1999/xlink" x="0px" y="0px"
	 viewBox="0 0 100 100" style="enable-background:new 0 0 100 100;" xml:space="preserve">
<style type="text/css">
	.st0{fill:#fff;}
</style>
<g>
	<path class="st0" d="M50.2,57c8.2,0.1,16.4,0.8,24.4,3.5c2.3,0.8,4.6,1.7,6.7,2.9c4.3,2.5,6.5,6.4,7.5,11.1
		c0.8,3.6,0.3,7.2,0.4,10.8c0,0.4-0.3,0.6-0.6,0.8c-7.4,6.5-15.9,10.8-25.6,12.7c-14.8,2.9-28.6,0.2-41.3-8c-3.9-2.5-7.4-5.6-10.5-9
		c-0.4-0.4-0.5-0.8-0.5-1.4c-0.1-4.7,0.8-9.1,3.6-13.1c1.6-2.3,3.8-3.8,6.3-5c4.6-2.2,9.4-3.4,14.4-4.2C39.9,57.3,45,57,50.2,57z"/>
	<path class="st0" d="M76.4,26.4c0,14.5-11.9,26.3-26.3,26.3c-14.5-0.1-26.3-11.9-26.2-26.5C23.9,11.8,35.8,0,50.2,0.1
		C64.7,0.1,76.5,12,76.4,26.4z"/>
</g>
</svg>
