<?xml version="1.0" encoding="utf-8"?>
<!-- Generator: Adobe Illustrator 19.2.1, SVG Export Plug-In . SVG Version: 6.00 Build 0)  -->
<svg version="1.1" id="Слой_1" xmlns="http://www.w3.org/2000/svg" xmlns:xlink="http://www.w3.org/1999/xlink" x="0px" y="0px"
	 viewBox="0 0 330 330" style="enable-background:new 0 0 330 330;" xml:space="preserve">
<style type="text/css">
	.st0{fill:#10A4D7;}
	.st1{fill:#7FB569;}
</style>
<g>
	<path class="st0" d="M143.7,1.8c40.7,0,81.4,0,122.1,0c2.4,0,4.7,0.6,6.8,1.6c2.1,1,3.5,2.5,4.2,4.9c1,3.5,1.1,7,1.1,10.6
		c0,43,0,86,0,128.9c0,15.6,0,31.1,0.1,46.7c0,1.2-0.4,1.5-1.5,1.4c-2.6-0.1-5.1,0-7.7-0.1c-5.8-0.3-11.5,1.3-17.2,2
		c-8.9,1.1-17,4.4-24.6,8.9c-6.5,3.8-11.4,9.3-15.7,15.4c-3.4,4.9-7.2,9.7-9,15.4c-1.9,6-4.9,11.7-5.8,17.9
		c-0.8,5.7-0.3,11.6-0.3,17.4c0,4.5,0.1,4.6-4.3,4.6c-22,0-43.9,0-65.9,0c-20.5,0-41,0-61.4,0c-17,0-34.1,0.1-51.1,0
		c-6.4,0-9.6-3.5-10.6-10.5c-1.5-10.9-0.6-21.8-0.7-32.7c-0.2-24.8,0-49.6,0-74.4s0-49.6,0-74.4c0-20.5,0.1-41,0-61.4
		c0-5.2,2-9.7,4.1-14.3c3.1-6.6,9-8,15-8C58.6,1.7,96,1.8,133.4,1.8C136.8,1.8,140.3,1.8,143.7,1.8C143.7,1.8,143.7,1.8,143.7,1.8z
		 M246.8,164.5c0.4-2.5,0.2-4.6,0.2-6.6c0-20.5,0.1-41.1,0.1-61.6c0-20.7-0.1-41.3-0.1-62c0-1.3-0.2-1.7-1.6-1.7
		c-25.9,0-51.7,0-77.6,0c-26.9,0-53.9,0-80.8,0c-20.2,0-40.4,0-60.6,0c-3.6,0-3.6,0.1-3.6,3.6c0,14.3,0,28.6,0,42.8
		c0,22.8,0,45.5,0,68.3c0,5.9,0,11.7,0,17.6c0,1.8,0.9,2.8,2.4,3.3c1.5,0.5,2.8,0.1,3.8-1.1c0.5-0.6,0.8-1.2,1.2-1.8
		c2.9-4.2,5.5-8.6,8.8-12.6c4.9-6,9-12.4,12.5-19.2c4.5-8.7,9.1-17.4,14.7-25.5c2-2.8,4.1-5.5,5.8-8.5c3.7-6.9,8.9-12.8,13.4-19.1
		c0.4-0.6,1-1.1,1.6-1.5c5.4-4,11.6-4.9,18-4.2c2,0.2,4,0.7,5.7,1.9c4.9,3.6,8.8,8.2,11.8,13.4c3.9,6.5,8.9,12,14.1,17.4
		c5.1,5.2,10,10.5,14.6,16.1c1.6,2,3,4.2,5,5.8c1,0.9,2.1,1.9,3.3,2.3c1,0.3,1.6-1.3,2.6-1.6c0.1,0,0.1-0.1,0.2-0.1
		c8.9-5.7,17.9-11.4,25.6-18.8c0.3-0.3,0.7-0.8,1.1-0.8c3.8-0.5,7.5-1.2,11.1,1.2c2.7,1.7,4.6,4.2,7,6.3c5.7,4.8,9.4,11.4,13.9,17.3
		c5.8,7.7,12.5,14.6,18.1,22.5C240.9,160.1,243.8,162.2,246.8,164.5z"/>
	<path class="st1" d="M328,265.7c0,13.9-4,26.6-12.3,37.8c-8.2,11.2-19.1,18.8-32.7,22.5c-13,3.5-25.8,2.7-38.2-2.5
		c-9.8-4.1-17.9-10.4-24.4-18.9c-6.8-8.8-11-18.8-12.5-29.7c-1.5-10.9-0.5-21.7,3.6-32.1c5-13,13.5-23.1,25.1-30.6
		c6.6-4.3,13.9-6,21.6-7c6-0.7,11.9-0.5,17.8,0.1c2.5,0.3,5,0.9,7.4,1.8c2.2,0.7,4.4,1.5,6.6,1.7c4.9,0.6,8.7,3.4,12.5,6.1
		c5.9,4,10.6,9.3,14.6,15.2c5.1,7.7,8.5,16.1,9.9,25.3C327.7,258.9,328,262.3,328,265.7z M257.7,246.9
		C257.6,246.9,257.6,246.9,257.7,246.9c-0.1,2.8-0.2,5.7,0,8.5c0.1,1.6-0.4,2-2,2c-5.6-0.1-11.2,0-16.8,0c-1,0-1.6,0.2-1.6,1.4
		c0,5.4-0.1,10.7-0.2,16.1c0,1.4,0.5,2,2,2.1c5.4,0.3,10.9,0.1,16.3,0.1c2,0,2.3,0.6,2.3,2.4c-0.1,5.3,0,10.6-0.1,16
		c0,1.5,0.4,2.1,2,2.1c5-0.1,10.1-0.2,15.1,0c2.2,0.1,2.7-0.8,2.6-2.8c-0.3-5.4,0.2-10.8-0.2-16.1c-0.1-0.7-0.3-1.6,1.1-1.6
		c5.8,0.1,11.7,0,17.5,0.1c1.3,0,1.9-0.3,1.9-1.8c-0.1-5.3-0.1-10.6,0-16c0-1.5-0.4-2-1.9-1.9c-5.6,0.1-11.2,0-16.8-0.1
		c-0.6,0-1.6,0.4-1.6-0.9c0-1.9-0.3-3.8-0.2-5.6c0.2-4.2,0.2-8.5-0.1-12.7c-0.1-0.9-0.5-1.2-1.2-1.2c-2.3-0.1-4.7-0.1-7-0.1
		c-3.3,0-6.6,0.2-9.8,0.1c-1.3-0.1-1.4,0.3-1.4,1.4C257.7,241.1,257.7,244,257.7,246.9z"/>
	<path class="st0" d="M223.3,73.2c-0.1,11.2-9.2,20.1-20.7,20.1c-11.3,0-20.6-9.2-20.7-20.2c0-10.6,9.3-20.9,22.1-20.1
		C213.9,53.7,223.4,61.7,223.3,73.2z"/>
</g>
</svg>
