<?xml version="1.0" encoding="utf-8"?>
<!-- Generator: Adobe Illustrator 19.2.1, SVG Export Plug-In . SVG Version: 6.00 Build 0)  -->
<svg version="1.1" id="Слой_1" xmlns="http://www.w3.org/2000/svg" xmlns:xlink="http://www.w3.org/1999/xlink" x="0px" y="0px"
	 viewBox="0 0 330 330" style="enable-background:new 0 0 330 330;" xml:space="preserve">
<style type="text/css">
	.st0{fill:#808080;}
</style>
<g>
	<path class="st0" d="M136.5,53.9c1.1,5.8,2.3,11.7,3.2,17.5c1.4,8.9,2.7,17.9,4.1,26.9c0.4,2.7,0.9,5.5,1.2,8.2
		c0.1,1.1,0.7,1.4,1.6,1.5c16.4,1.9,32,6.3,47.1,12.9c12.6,5.5,24.3,12.4,35.5,20.4c11.1,8,21.4,17.1,31,26.9
		c12,12.2,22.9,25.4,33,39.2c12.7,17.4,24.1,35.7,34.7,54.5c0.6,1.1,0.9,2.2,0.9,3.4c-0.1,3-0.1,6,0,8.9c0,1.4-0.5,1.8-1.8,1.7
		c-8.6-0.3-16.6-2.7-24.2-6.5c-9.1-4.6-17.2-10.7-25.5-16.5c-15-10.4-30.2-20.4-46.8-27.9c-12.4-5.6-25.2-10.1-38.3-13.7
		c-12.7-3.5-25.7-5.8-38.7-7.7c-1.8-0.3-3.5-0.3-5.3-0.6c-1.5-0.3-2,0.4-2.3,1.7c-1.7,6.2-1.6,12.5-1.6,18.8
		c0,5.1-0.1,10.2-1.3,15.2c-1.1,4.3-3.1,8.1-7.8,9.2c-3,0.7-5.9,0.8-8.8-0.8c-23-12.1-44.6-26.4-66.2-40.9
		c-18.9-12.8-37.7-25.7-57.2-37.6c-1.7-1-2.2-3.7-0.9-5.3c8.2-9.8,16.9-18.9,26.2-27.7C39.6,125,51.8,115,64.2,105.3
		C76.5,95.9,89,86.9,101.7,78c11-7.7,22.1-15.4,33.1-23.1c0.3-0.2,0.7-0.4,0.8-0.9C135.9,53.9,136.2,53.9,136.5,53.9z M118.5,92.8
		c-3.1,2.5-5.8,4.7-8.4,6.9c-13.4,11-26.7,22-40.1,33c-10.3,8.5-20.6,17-30.8,25.6c-3.2,2.7-3.2,2.7,0.4,5.1
		c11.7,7.9,23.4,15.8,35,23.7c14.6,9.9,29.2,19.8,43.8,29.8c1.4,1,1.6,0.7,1.9-0.8c1.2-6,1.1-12.1,2.1-18.2
		c0.9-5.5,2.2-10.9,6.5-14.9c2-1.8,4.1-3.7,6.9-3.8c13.3-0.5,26.5,0.4,39.6,2.6c16.4,2.8,32.4,7.5,47.9,13.6
		c16,6.3,31.5,13.8,46.5,22.2c0.9,0.5,1.6,1.4,2.9,1.1c-0.4-1.2-1.1-2.2-1.8-3.2c-5.9-8.4-12.4-16.4-19.5-23.9
		c-12.1-12.8-25.7-23.8-40.6-33.2c-13.6-8.5-28-15.4-43.3-20.5c-9.5-3.2-19.2-5.7-29.2-7.4c-5.7-1-11.3-1.7-17-2.4
		c-1.3-0.2-1.6-0.7-1.6-1.9c-0.1-3-0.2-6-0.3-8.9C119.2,109.4,118.9,101.3,118.5,92.8z"/>
</g>
</svg>
