<?xml version="1.0" encoding="utf-8"?>
<!-- Generator: Adobe Illustrator 19.2.1, SVG Export Plug-In . SVG Version: 6.00 Build 0)  -->
<svg version="1.1" id="Слой_1" xmlns="http://www.w3.org/2000/svg" xmlns:xlink="http://www.w3.org/1999/xlink" x="0px" y="0px"
	 viewBox="0 0 330 330" style="enable-background:new 0 0 330 330;" xml:space="preserve">
<style type="text/css">
	.st0{fill:#fff;}
</style>
<g>
	<path class="st0" d="M132.7,1.5c38.1,0,69.8,14.5,95.6,42.1c16.1,17.3,26.1,37.9,30.4,61.1c7,37.7-2.3,71.9-24.8,102.8
		c-1.5,2.1-3.2,4.1-5,6.1c-0.9,1.1-1,1.6,0,2.6c8.6,8.6,17.1,17.3,25.7,25.9c21.4,21.3,43,42.4,63.9,64.3c2.9,3,5.3,5.9,5.1,10.3
		c-0.2,4.7-2.4,8.3-5.8,11.3c-0.9,0.8-2.1,0.4-3.1,0.5c-4.5,0.7-7.6-1.2-10.9-4.2C279,300.8,255.2,276.1,231,252
		c-6.7-6.7-13.4-13.3-20.1-20c-1-1-1.7-0.8-2.6-0.2c-15.7,11-33,18.4-51.8,21.8c-35.9,6.5-68.7-1-98-22.7
		C32,211.4,15.3,185,8.6,152.1c-2.2-10.7-2.8-21.6-1.8-32.5c3.1-34.4,17-62.8,41.5-85.4C62.9,20.7,80.2,11.8,99.2,6.2
		c7-2.1,14.1-3.7,21.3-4.6C124.5,1.1,128.6,1.5,132.7,1.5z M29.4,128.9c0.5,59.4,48.9,103,102.5,103.8c60.9,1,104.5-48.5,105.9-101
		c1.7-65.6-52-105.5-99.9-107.3C76,22,30.1,71.8,29.4,128.9z"/>
</g>
</svg>
