<?xml version="1.0" encoding="utf-8"?>
<!-- Generator: Adobe Illustrator 19.2.1, SVG Export Plug-In . SVG Version: 6.00 Build 0)  -->
<svg version="1.1" id="Слой_1" xmlns="http://www.w3.org/2000/svg" xmlns:xlink="http://www.w3.org/1999/xlink" x="0px" y="0px"
	 viewBox="0 0 100 100" style="enable-background:new 0 0 100 100;" xml:space="preserve">
<style type="text/css">
	.st0{fill:#10a5d8;}
</style>
<g>
	<path class="st0" d="M80.3,41.9c-0.3,6.4-1.9,12.4-5.2,17.9c-0.7,1.3-0.8,2,0.4,3.2c7.6,7.5,15.2,15.1,22.8,22.7
		c1.9,1.9,1.9,2.9,0,4.9c-2.5,2.5-5.1,5.1-7.6,7.6c-2.1,2.1-3.1,2.1-5.1,0.1C78,90.6,70.4,83,62.9,75.4c-0.9-0.9-1.4-1-2.5-0.4
		C36.5,88.6,6.2,74.8,1,47.7C-3.1,26.5,9.9,5.8,32,1.2c21.1-4.4,41,7.5,46.9,28C80.1,33.3,80.5,37.6,80.3,41.9z M75.1,39.9
		C75.3,20.8,60.3,5.4,40.9,5.3C21.2,5.1,5.2,20.7,5.3,39.9C5.4,60.1,22,75.1,40.4,75.1C59.5,75.2,75.3,59.8,75.1,39.9z M93.3,88
		c-0.1-0.5-0.4-0.8-0.7-1.1c-6.8-6.9-13.7-13.7-20.5-20.6c-0.7-0.7-1.1-0.6-1.7,0.1c-1.1,1.3-2.2,2.6-3.5,3.7c-1,0.9-1,1.3,0,2.2
		c5.7,5.6,11.3,11.3,17,16.9c1.4,1.4,2.7,4,4.3,3.8c1.6-0.2,2.9-2.6,4.4-4.1C92.8,88.6,93.1,88.3,93.3,88z"/>
</g>
</svg>
