<?xml version="1.0" encoding="utf-8"?>
<!-- Generator: Adobe Illustrator 19.2.1, SVG Export Plug-In . SVG Version: 6.00 Build 0)  -->
<svg version="1.1" id="Слой_1" xmlns="http://www.w3.org/2000/svg" xmlns:xlink="http://www.w3.org/1999/xlink" x="0px" y="0px"
	 viewBox="0 0 100 100" style="enable-background:new 0 0 100 100;" xml:space="preserve">
<style type="text/css">
	.st0{fill:#b3b3b3;}
</style>
<g>
	<path class="st0" d="M55.1,26.9c3.4,0,6.8,0,10.2,0c0.5,0,0.8-0.1,0.9-0.7c1-4.7,2-9.3,3-14c0.7-3.4,1.5-6.8,2.4-10.1
		c0.1-0.5,0.3-0.5,0.7-0.5c4.1,0,8.1-0.1,12.2,0.1c0.4,0,0.5,0.1,0.5,0.6C84.6,4,84.4,5.8,84,7.6c-0.9,4.5-2,9-2.8,13.6
		c-0.3,1.7-0.5,3.4-0.7,5.1c0,0.5,0.1,0.6,0.5,0.6c1.9,0.1,3.8,0.2,5.7,0.3c1,0,2,0.1,3.1,0.1c0.3,0,0.4,0,0.4,0.4
		c0.1,4,0.1,8.1,0,12.1c0,0.6-0.3,0.7-0.8,0.7c-3.9,0.1-7.8,0.2-11.7,0.3c-0.4,0-0.5,0.1-0.6,0.5c-1,4.4-2,8.9-2.8,13.4
		c-0.3,1.6-0.5,3.1-0.8,4.7C73.5,60,73.7,60,74.3,60c4.3,0,8.7,0,13,0c0.8,0,1.6,0,2.4,0c0.4,0,0.6,0.1,0.6,0.6c0,3.9,0,7.9,0,11.8
		c0,0.5-0.1,0.6-0.6,0.6c-6.1,0-12.3,0.3-18.4,0.1c-0.6,0-0.9,0.2-1,0.8c-1.1,5.6-2.3,11.2-3.5,16.8c-0.4,2.2-0.8,4.3-1.2,6.5
		c-0.1,0.4-0.3,0.6-0.6,0.6c-3.7,0.6-7.3,0.8-11,0.5c-0.6,0-1.3-0.1-1.9-0.1c-0.4,0-0.5-0.1-0.4-0.5c0.4-3,1-5.9,1.6-8.9
		c1-4.9,2.1-9.8,3.3-14.6c0.1-0.6-0.2-0.5-0.5-0.5c-3.4-0.7-6.8-0.8-10.2-0.8c-3.8,0-7.5,0.3-11.3,0.1c-0.5,0-0.6,0.2-0.7,0.6
		c-1,3.9-1.7,7.9-2.6,11.9c-0.8,4.1-1.7,8.3-2.8,12.3c-0.1,0.4-0.2,0.5-0.6,0.5c-4.1,0.1-8.3,0.1-12.4,0c-0.6,0-0.6-0.3-0.5-0.7
		c0.5-3,1.1-5.9,1.7-8.8c0.9-4.3,2-8.7,2.5-13.1c0.1-0.6,0.1-1.1,0.3-1.7c0.2-0.7-0.2-0.8-0.8-0.9c-1.6,0-3.3-0.1-4.9-0.2
		c-1.1,0-2.3-0.1-3.4-0.1c-0.5,0-0.4-0.2-0.5-0.6c-0.1-2.9-0.1-5.9-0.1-8.8c0-0.9,0-1.9,0-2.8c0-0.4,0.1-0.6,0.6-0.6
		c2.1-0.1,4.2-0.1,6.3-0.1c1.9,0,3.8-0.1,5.8-0.1c0.4,0,0.4-0.2,0.5-0.5c0.7-3.1,1.4-6.2,2-9.4c0.6-2.7,1-5.5,1.5-8.3
		c0.2-1.4,0.3-1.1-0.9-1.2c-5-0.1-10.1-0.1-15.1-0.2c-0.4,0-0.5-0.1-0.5-0.6c0-4,0-8,0-12c0-0.6,0.1-0.9,0.8-0.9
		c5.4,0,10.8-0.1,16.2-0.2c0.8,0,1.5,0,2.3,0c0.5,0,0.7-0.2,0.7-0.6c0.8-3.5,1.4-6.9,2.1-10.4c0.8-4.2,1.6-8.4,2.7-12.5
		c0.1-0.5,0.4-0.8,0.8-1c2.3-1.1,4.7-1.1,7.1-0.9c1.9,0.1,3.7,0.4,5.6,0.3c0.5,0,0.5,0.1,0.4,0.5c-0.4,3.1-1.1,6.1-1.7,9.1
		c-0.9,4-1.8,8.1-2.3,12.2c-0.1,1-0.1,1.9-0.2,2.9c-0.1,0.5,0.1,0.6,0.6,0.6c3.4,0,6.8,0,10.3,0C55.1,27,55.1,26.9,55.1,26.9z
		 M37,59.9c2,0.1,3.9,0.2,5.9,0.2c5.2,0,10.3,0,15.5,0c0.4,0,0.6,0,0.8-0.5c0.5-2,1-4.1,1.5-6.1c0.9-3.9,1.6-7.9,2-11.9
		c0.1-1,0.1-1-0.8-1c-6.9,0-13.8-0.2-20.7,0.3c-0.6,0-0.8,0.3-0.9,0.8c-0.5,2.5-0.9,5-1.4,7.5C38.1,52.7,37.5,56.3,37,59.9z"/>
</g>
</svg>
