<?xml version="1.0" encoding="utf-8"?>
<!-- Generator: Adobe Illustrator 19.2.1, SVG Export Plug-In . SVG Version: 6.00 Build 0)  -->
<svg version="1.1" id="Слой_1" xmlns="http://www.w3.org/2000/svg" xmlns:xlink="http://www.w3.org/1999/xlink" x="0px" y="0px"
	 viewBox="0 0 330 330" style="enable-background:new 0 0 330 330;" xml:space="preserve">
<style type="text/css">
	.st0{fill:#fff;}
	.st1{fill:#fff;}
</style>
<g>
	<path class="st0" d="M88.4,23.7c0-3.2,0-6.4,0-9.6c0-1.1,0.3-1.5,1.5-1.5c10.3,0.1,20.6,0.1,30.9,0.1c1.4,0,1.7,0.4,1.6,1.7
		c0,6.2,0.1,12.4,0,18.5c0,1.4,0.6,1.9,1.7,2.2c6.5,1.6,12.7,3.9,18.8,6.7c1.3,0.6,2,0.4,2.9-0.7c3.7-4.6,7.6-9.2,11.3-13.8
		c1-1.2,1.5-1.2,2.6-0.3c7.8,6.8,15.9,13.2,23.6,20.1c1,0.9,1.1,1.3,0.2,2.4c-3.9,4.4-7.6,9-11.4,13.5c-1.1,1.3-1.3,2.1-0.1,3.6
		c3.6,4.5,6.1,9.7,8.7,14.8c1.5,2.8,1.8,3.1,5,2.8c4.9-0.3,9.6-1.7,14.3-2.5c0.1,0,0.3-0.1,0.4-0.1c3.1-0.6,3.4-0.4,3.9,2.7
		c1.7,9.6,3.2,19.1,5,28.7c0.3,1.7-0.2,1.9-1.6,2.2c-5.7,1-11.4,2-17.1,3c-1.4,0.2-2.3,0.5-2.5,2.4c-0.6,6.6-1.6,13.3-3.5,19.7
		c-0.4,1.3,0,1.7,1.1,2.3c5.1,2.9,10.2,5.9,15.3,8.7c1.6,0.9,1.9,1.5,0.9,3.3c-4.9,8.2-9.7,16.5-14.5,24.8c-1.7,3-1.7,2.9-4.7,1.2
		c-4.1-2.4-7.9-5.4-12.4-7.2c-2.5-1-4.4-1.1-6.6,1c-4.2,4.1-8.7,7.9-13.6,11.3c-0.9,0.6-1,1.2-0.6,2.2c2.1,5.5,4.1,11.1,6.3,16.7
		c0.6,1.5,0.4,2-1.1,2.7c-9.5,4-19.4,6.9-28.9,10.8c-1.1,0.4-1.6,0.3-2.1-0.9c-1.9-5.7-4.1-11.3-6-17c-0.4-1.2-1-1.7-2.3-1.6
		c-6.8,0.6-13.7,0.5-20.5,0c-1.3-0.1-1.8,0.3-2.2,1.5c-2,5.7-4.1,11.3-6.1,17c-0.5,1.4-0.9,1.6-2.2,1.1c-9.6-3.6-19.3-7.2-28.9-10.7
		c-1.4-0.5-1.6-1-1.1-2.3c2.1-5.6,4.1-11.3,6.2-16.9c0.5-1.3,0.2-1.9-0.9-2.7c-5.7-3.8-10.8-8.3-15.8-13.1c-0.9-0.9-1.5-0.8-2.5-0.2
		c-5.1,3.1-10.2,6-15.3,9.1c-1.2,0.7-1.8,0.6-2.5-0.6c-5-8.7-10-17.5-15.2-26.2c-0.9-1.6-0.7-2.3,0.9-3.1c5.1-2.9,10.2-5.9,15.3-8.8
		c1.1-0.6,1.4-1.2,1.1-2.4c-1.7-6.2-2.5-12.7-3.5-19c-0.3-1.8-0.7-3-3-3.3c-5.3-0.5-10.5-1.6-15.7-2.4c-1.8-0.3-2.7-0.7-2.3-2.9
		c1.9-9.9,3.6-19.8,5.3-29.7C7,81.1,8,81.2,9.2,81.4c5.1,0.9,10.3,1.9,15.4,2.8c0.1,0,0.3,0.1,0.4,0.1c3.2,0.6,3.3,0.6,4.7-2.4
		c2.7-5.7,5.8-11.1,9.4-16.2c0.9-1.2,0.7-1.9-0.2-2.9c-4-4.5-7.8-9.2-11.8-13.7c-0.8-0.9-0.8-1.3,0.2-2.2
		c7.6-6.3,15.1-12.7,22.7-19.1c2.3-1.9,2.3-1.9,4.2,0.2c3.9,4.2,7.5,8.7,11,13.3c0.6,0.8,1,1.2,2.1,0.7c6.5-3,13.1-5.5,20-7.1
		c0.9-0.2,1.2-0.7,1.2-1.7c-0.1-3.2,0-6.4,0-9.6C88.3,23.7,88.4,23.7,88.4,23.7z M105.4,72.1C81.9,71.9,62,91.5,61.6,115
		c-0.4,25.5,20.6,44.3,43.2,44.5c26.1,0.2,43.9-21.7,44.2-43C149.4,90.4,127.5,72.1,105.4,72.1z"/>
	<path class="st1" d="M164.8,232c2.1,0,4.2-0.1,6.3,0c1.1,0,1.6-0.3,1.9-1.3c1.3-4.4,3.1-8.6,5-12.7c0.5-1.1,0.5-1.8-0.5-2.6
		c-3-2.6-5.8-5.3-8.8-7.8c-1.2-1-1.1-1.6-0.2-2.6c4.8-5.4,9.6-10.7,14.3-16.2c0.8-0.9,1.2-0.5,1.9,0.1c3,2.7,6.1,5.4,9.1,8.2
		c0.9,0.8,1.5,1,2.6,0.4c3.9-2.4,7.9-4.5,12.1-6.3c1.1-0.5,1.5-1,1.3-2.3c-0.6-4.1-1-8.2-1.6-12.3c-0.2-1.1,0-1.6,1.1-1.8
		c7.2-0.9,14.4-1.8,21.6-2.8c1.4-0.2,1.4,0.6,1.5,1.4c0.6,4,1.2,8,1.8,12c0.2,1.1,0.5,1.8,1.8,2c4.4,0.6,8.9,1.3,13.2,2.7
		c1.1,0.4,1.6,0.1,2.2-0.8c2.1-3.4,4.4-6.8,6.6-10.3c0.7-1.2,1.3-1.4,2.5-0.6c6,3.8,12,7.6,18.1,11.3c1,0.6,0.9,1,0.3,1.8
		c-2.2,3.5-4.3,7.1-6.6,10.5c-0.7,1-0.7,1.6,0.1,2.6c2.9,3.3,5.7,6.8,8.1,10.5c0.8,1.2,1.6,1.5,3,1.1c3.6-1.3,7.3-2.3,10.9-3.7
		c1.4-0.5,2-0.4,2.5,1.1c2.1,6.8,4.3,13.5,6.6,20.2c0.4,1.3-0.1,1.5-1,1.8c-3.8,1.2-7.5,2.5-11.4,3.6c-1.4,0.4-1.8,1-1.8,2.4
		c0.2,4.7-0.1,9.4-0.7,14.1c-0.2,1.2,0.5,1.3,1.2,1.6c3.8,1.6,7.6,3.1,11.5,4.6c1.2,0.4,1.5,0.8,1,2.2c-2.8,6.5-5.5,13.1-8.1,19.7
		c-0.5,1.4-1.2,1.2-2.1,0.8c-3.6-1.4-7.3-2.8-10.9-4.4c-1.4-0.6-2.2-0.5-3.1,0.8c-2.6,3.5-5.6,6.7-8.8,9.7c-1,1-1,1.7-0.4,2.8
		c1.9,3.5,3.6,7.1,5.6,10.6c0.7,1.2,0.4,1.7-0.7,2.3c-6.4,3.3-12.7,6.7-19,10.1c-1,0.6-1.4,0.2-1.8-0.7c-1.9-3.6-3.9-7.1-5.7-10.8
		c-0.6-1.1-1.1-1.5-2.3-1.3c-4.6,0.9-9.1,1.6-13.8,1.9c-1.1,0.1-1.6,0.5-1.8,1.7c-0.7,3.8-1.8,7.6-2.4,11.5c-0.3,1.8-0.9,2-2.6,1.6
		c-6.7-1.5-13.4-3-20.2-4.4c-1.3-0.3-1.7-0.8-1.4-2.1c0.8-3.7,1.6-7.5,2.5-11.2c0.3-1.4,0.2-2.3-1.3-3.1c-3.8-2-7.4-4.3-10.8-6.9
		c-1.1-0.9-2-0.9-3.2,0.1c-3,2.5-6.1,4.7-9.1,7.1c-1.1,0.9-1.7,1.1-2.7-0.3c-4.2-5.5-8.6-11-13-16.4c-0.7-0.9-0.7-1.4,0.2-2.1
		c3.2-2.6,6.4-5.3,9.7-7.8c0.9-0.7,1.3-1.3,0.8-2.5c-1.7-4.2-3.1-8.6-4.2-13c-0.3-1.3-0.9-1.7-2.2-1.7c-3.9,0-7.9-0.1-11.8-0.1
		c-1.5,0-2.1-0.4-1.9-2c0.6-6.9,0.7-13.8,0.7-20.7c0-1.3,0.4-1.8,1.8-1.7C160.6,232,162.7,232,164.8,232
		C164.8,232,164.8,232,164.8,232z M229.8,215c-18,0.4-31,15-30.9,31.8c0.1,17.4,15,31.6,32.4,31c18.3-0.6,30.9-16.1,30.3-32.6
		C260.8,227.2,246.3,215.4,229.8,215z"/>
	<path class="st1" d="M330.2,113.8c0.1,4.3-0.5,8.3-0.8,12.2c-0.1,1.1-0.5,1.4-1.5,1.3c-2.9-0.3-5.8-0.4-8.7-0.7
		c-1.1-0.1-1.7,0.1-2.1,1.2c-1.3,3.3-2.6,6.6-3.9,9.9c-0.4,1-0.2,1.5,0.5,2.2c2.3,2.1,4.5,4.3,6.9,6.4c0.9,0.8,0.8,1.3,0.1,2.1
		c-3.6,3.9-7.1,7.9-10.6,11.9c-1,1.2-1.7,1.1-2.7,0.1c-2.2-2-4.6-3.8-6.8-5.8c-0.8-0.7-1.4-0.7-2.3-0.2c-3,1.8-6,3.5-9.1,5.2
		c-0.9,0.5-1,1.1-0.9,2c0.4,2.8,0.7,5.6,1.3,8.4c0.3,1.6-0.2,2.2-1.8,2.4c-5.2,0.6-10.4,1.3-15.5,2.1c-1.4,0.2-1.9-0.1-2.1-1.5
		c-0.3-3-0.8-5.9-1.1-8.9c-0.1-0.9-0.4-1.2-1.2-1.4c-3.7-0.8-7.4-1.6-11-2.4c-1.1-0.3-1.4,0.5-1.8,1.1c-1.6,2.5-3.2,5-4.6,7.6
		c-0.7,1.2-1.3,1.2-2.3,0.5c-4.5-2.9-9.1-5.7-13.7-8.4c-1.1-0.7-1.1-1.2-0.5-2.2c1.6-2.5,3.1-5.1,4.7-7.6c0.6-0.9,0.6-1.5-0.1-2.3
		c-2.2-2.6-4.3-5.3-6.3-8.1c-0.8-1.1-1.7-1.3-2.9-0.8c-2.6,1-5.4,1.8-8,2.7c-1.1,0.4-1.7,0.5-2.1-0.8c-1.6-5.3-3.3-10.5-5.1-15.7
		c-0.4-1.1-0.1-1.4,0.9-1.7c2.8-0.9,5.5-1.9,8.2-2.8c0.9-0.3,1.5-0.6,1.6-1.7c0.2-3.6,0.5-7.1,0.8-10.6c0.1-1.1-0.3-1.6-1.4-2
		c-2.8-1.1-5.6-2.3-8.5-3.4c-1-0.4-1.4-0.7-0.9-1.9c2-5,4-10.1,5.9-15.2c0.5-1.2,1-1.5,2.2-1c2.5,1.1,5.1,2,7.6,3.1
		c1.4,0.6,2.4,0.7,3.5-0.8c1.8-2.3,3.9-4.5,6-6.6c1.1-1.1,1.3-2.1,0.4-3.6c-1.5-2.5-2.7-5.1-4.1-7.7c-0.5-0.9-0.4-1.3,0.6-1.8
		c4.8-2.5,9.6-5.1,14.3-7.8c1.1-0.6,1.7-0.6,2.3,0.7c1.3,2.7,2.9,5.4,4.3,8.1c0.4,0.7,0.8,1.3,1.8,1.1c3.7-0.7,7.4-1.4,11.1-2.1
		c1-0.2,1.3-0.6,1.4-1.5c0.4-2.9,1-5.7,1.5-8.6c0.2-0.9,0.3-1.5,1.5-1.3c5.5,1.1,10.9,2.2,16.4,3.3c1.1,0.2,1.6,0.5,1.2,1.8
		c-0.7,2.7-1.2,5.5-1.8,8.3c-0.3,1.3-0.3,2.2,1.2,3c3,1.7,5.8,3.6,8.7,5.4c0.9,0.6,1.5,0.5,2.3-0.1c2.2-1.9,4.5-3.6,6.7-5.5
		c1.1-1,1.8-1.1,2.8,0.2c3.1,4.1,6.3,8.2,9.5,12.2c0.9,1.1,1.1,1.8-0.2,2.7c-2.3,1.7-4.5,3.7-6.8,5.5c-0.9,0.7-1,1.3-0.7,2.4
		c1.1,3.2,2.1,6.3,3,9.5c0.3,1.2,1,1.5,2.1,1.6c3.1,0.2,6.2,0.6,9.3,0.8c1.1,0.1,1.3,0.5,1.3,1.5C330.1,111,330.2,112.5,330.2,113.8
		z M247.3,116.2c-0.2,14.5,12,23.9,23.4,24.1c12.3,0.2,26.4-8.3,25.8-26.2c-0.4-12.6-12.4-23.6-25.2-23.1
		C257.2,91.5,247.5,101.7,247.3,116.2z"/>
</g>
</svg>
