<?xml version="1.0" encoding="utf-8"?>
<!-- Generator: Adobe Illustrator 19.2.1, SVG Export Plug-In . SVG Version: 6.00 Build 0)  -->
<svg version="1.1" id="Слой_1" xmlns="http://www.w3.org/2000/svg" xmlns:xlink="http://www.w3.org/1999/xlink" x="0px" y="0px"
	 viewBox="0 0 330 330" style="enable-background:new 0 0 330 330;" xml:space="preserve">
<style type="text/css">
	.st0{fill:#fff;}
</style>
<g>
	<path class="st0" d="M250.7,324.1c-2.9,0.2-5.8-0.7-8.5-1.9c-17.8-7.9-34.5-17.8-51.5-27.2c-7.7-4.2-15.5-8.3-23.5-12.1
		c-1.4-0.7-2.4-0.6-3.8,0c-13.6,6.1-26.5,13.6-39.5,20.8c-11.7,6.5-23.6,12.7-35.7,18.4c-9.9,4.7-21.1,0.8-27.5-6.9
		c-4.6-5.5-5.9-11.7-4.8-18.7c2-12.5,3.8-25.1,6-37.6c1.9-11.4,4-22.7,5.9-34.1c0.7-4.4,1.3-8.8,2.1-13.2c0.2-1.1-0.5-1.6-1.1-2.2
		c-12.6-13.2-25.6-26.1-38.5-39c-7.8-7.8-15.7-15.7-23.4-23.6c-6.1-6.3-7.1-14-4.4-22c2.6-8,8.1-13.1,16.5-15
		c15.9-3.5,32-5.6,48.2-7.8c12.6-1.7,25.1-3.6,37.6-6c1.5-0.3,2.1-1.2,2.7-2.4c8.9-17.5,17-35.5,25.6-53.2c3.9-8,7.9-15.9,12.2-23.7
		c4.1-7.3,14.1-12,22.4-10.8c8.2,1.1,13.9,5.2,17.8,12.5c10.2,19.2,19.5,38.8,28.8,58.4c2.7,5.8,5.5,11.6,8.2,17.5
		c0.5,1.1,1.1,1.6,2.3,1.8c8.9,1.6,17.8,2.9,26.8,4.1c19.9,2.8,39.9,5.3,59.7,9.5c9.2,2,16.4,10.1,17.5,19.5
		c0.8,7.5-1.4,13.8-6.7,19.2c-14.5,14.8-29.4,29.2-44.1,43.8c-5.7,5.8-11.3,11.7-17,17.5c-0.8,0.8-1.1,1.6-0.9,2.7
		c2.7,15.1,5.3,30.2,7.9,45.3c2.4,13.8,4.9,27.5,6.3,41.5c1,10.2-4.2,17.2-12.7,22.1C258.3,323.3,254.7,324.3,250.7,324.1z
		 M25.4,131.7c6.2,7.2,12.5,13.8,19,20.3c15.8,16,32.4,31.2,47.5,48c0.8,0.9,1.2,1.8,1.2,3c0,10.6-1.1,21.1-2.6,31.5
		c-2.3,16.8-6,33.4-8.9,50.1c-0.9,5.3-1.8,10.6-2.6,16c1.4-0.1,2.2-0.7,3-1.2c14.9-7.5,29-16.3,43.5-24.3
		c12.1-6.6,24.6-12.6,37.8-16.7c1.5-0.5,2.8-0.4,4.3,0.1c8.9,2.9,17.4,6.6,25.7,10.7c15.2,7.5,29.5,16.5,44.4,24.6
		c4.5,2.4,8.9,4.8,13.7,7c0-0.5,0-0.7,0-0.9c-2.9-13.1-5.1-26.3-7.3-39.5c-1.7-10.1-3.4-20.2-5.1-30.3c-1.2-7.3-2.7-14.6-2.2-22
		c0.3-4.8,1.9-9.1,5.2-12.6c5.6-5.8,11.2-11.6,16.9-17.3c14-13.9,28.5-27.5,41.7-42.2c1.3-1.4,2.5-2.8,3.9-4.4
		c-7.9-1.1-15.2-2.2-22.6-3.2c-9.5-1.4-19-2.7-28.5-4.1c-9.9-1.5-19.7-3.1-29.5-4.5c-10.4-1.5-18.1-6.6-22.9-16.1
		c-9.1-18-17.5-36.4-26.2-54.6c-3-6.3-6.1-12.5-9.4-19.2c-2.2,4.3-4.2,8.2-6.1,12.1c-10,20.5-19.9,41.1-29.9,61.7
		c-4.1,8.5-10.8,13.8-20.3,15.3c-7.2,1.1-14.4,2.3-21.7,3.4c-12.5,1.9-25,3.7-37.4,5.6C41.8,129.3,33.8,130.5,25.4,131.7z"/>
</g>
</svg>
