<svg id="Слой_1" xmlns="http://www.w3.org/2000/svg" viewBox="0 0 100 100"><style>.st0{fill:#fff}</style><path class="st0" d="M38.5 86.6c-3.7-3.3-7.1-6.7-10.4-10.1-5.4-5.6-10.7-11.3-16.3-16.7-3.5-3.4-7.2-6.7-11-9.7-.5-.4-.5-.7-.2-1.2 2.8-4 5.7-8 8.9-11.6 5.7-6.4 11.9-12.1 18.1-18 3.7-3.5 7.3-7 10.8-10.7.2.3.1.7.1.9v16.7c0 1.4.1 2.9.2 4.3 0 .5.2.6.7.7 8.2 1.5 16.1 3.9 23.5 7.7 6.7 3.4 12.5 7.8 17.6 13.3 4 4.3 6.8 9.4 9.4 14.6 2.2 4.2 4.5 8.3 7.6 12 .3.4.7.7 1 1.1 1.1 1.4 1.3 3 1.2 4.7-.1 2.3 0 4.6 0 6.9-.4-.1-.6-.4-.8-.7-1.1-1.2-1.9-2.6-3.1-3.7-2.1-1.7-4-3.6-5.6-5.8-.9-1.2-2.2-2-3.4-2.8-8.3-6.1-17.5-10-27.5-12.3-6.5-1.4-13-2.1-19.6-2.2-.8 0-1.1.1-1.1 1 .1 6.8 0 13.6 0 20.5-.1.3-.1.6-.1 1.1z"/></svg>