<svg id="Слой_1" xmlns="http://www.w3.org/2000/svg" viewBox="0 0 100 100"><style>.st0{fill:#ed2024}</style><path class="st0" d="M99.8 21.4v19c0 .9-.2 1.6-.9 2.2-13.7 14.2-27.8 28.1-41.8 42L42.6 99.1c-.8.8-2 .9-2.9.1-6.8-6.2-13.3-12.7-19.8-19.4C13.6 73.3 7.3 66.7.8 60.3c-.7-.7-.7-2 0-2.7 13.9-13.9 27.7-27.9 41.7-41.8C47.6 10.7 52.8 5.6 58 .5c.3-.3.5-.3.9-.3h39.4c1 0 1.6.6 1.6 1.6-.1 6.6-.1 13.1-.1 19.6zm-5.5 1.1V6.4c0-.6-.1-.7-.7-.7H60.9c-.4 0-.7.2-1 .5C42.5 23.5 25 41 7.5 58.4c-.7.7-.7.7 0 1.4 10.9 11.1 22.1 21.8 33.1 32.7.3.3.5.4.9 0C53.2 80.8 64.9 69 76.6 57.3c4.9-4.9 9.7-9.8 14.7-14.6 1-1 2-2 2.7-3.2.2-.3.3-.5.3-.9V22.5z"/><path class="st0" d="M75 13.9c5.3 0 11.4 4.5 11 11.7-.3 5.7-5.5 10.6-11.7 10.4-4.9-.1-10.5-4.2-10.3-11 .2-6.4 4.4-10.9 11-11.1zm-.1 16.5c3.2.3 5.8-3 5.5-6-.2-2.4-2.3-5-5.8-4.9-2.9.1-5.5 2.8-5.3 5.7.2 2.4 2.3 5.5 5.6 5.2z"/></svg>