<svg id="Слой_1" xmlns="http://www.w3.org/2000/svg" viewBox="0 0 100 100"><style>.st0{fill:#888787}</style><path class="st0" d="M62.8 22.5c.8-2.2 1.6-4.3 2.3-6.4.8-2.3 1.6-4.7 2.6-6.9.6-1.5 1.3-2.9 2-4.3.8-1.8 2.4-2.3 4-2.5 1.9-.3 3.8-.2 5.7 0 2.6.2 4.7 1.9 5.4 4.4.5 1.7 1.2 3.4 1.8 5.1l2.4 6.9c.1.3.2.5.5.7 3.3 1.4 6.5 3 9.7 4.5.4.2.6.4.6.9v4.8c0 2.2.1 4.4 0 6.6 0 1.3.1 2.6 0 3.9-.1 1.3 0 2.6.1 3.9 0 1.3-.1 2.6-.1 3.9v23.8c0 1.3.1 2.6.1 3.9v15.7c0 1.5.1 2.9 0 4.4 0 .4-.2.5-.5.6-2 .5-4 .7-6 1-1.8.3-3.6.5-5.4.6-2.2.1-4.4.3-6.6.4-3 .1-6 .2-9 .2s-6-.1-9-.1H38.3c-4.1 0-8.2.2-12.2.1-3.9 0-7.8-.1-11.8-.3-1.9-.1-3.8-.4-5.6-.5-1.9-.2-3.9-.5-5.8-.8l-2.1-.3c-.5-.1-.7-.4-.7-.9V83.4 71.5 59.6 47.7 35.8v-9.6c0-.6.4-.9.8-1.2 1.1-.7 2.2-1.4 3.3-2.2 1.8-1.1 3.5-2.2 5-3.7 1.1-1.1 2-2.4 2.6-3.8.6-1.3 1.2-2.7 1.8-4 .7-1.6 1.2-3.4 2.2-5 1.4-2.3 3.1-4 6-4.4 2.7-.3 5.1.1 7.2 1.7.6.5 1.1 1.1 1.6 1.7 1.2 1.7 2.1 3.6 2.8 5.6.9 2.8 1.6 5.7 2.6 8.5.4 1 .7 2.1 1.3 3.1.6-1.1.9-2.2 1.2-3.4.5-2.5 1-4.9 1.6-7.4.7-2.5 1.4-5.1 3.2-7.1 1.3-1.5 2.8-2.4 4.8-2.8 2-.3 4-.3 5.9.6 1.5.6 2.7 1.7 3.6 3 1.6 2.5 2.4 5.3 3 8.2.6 2.7 1.1 5.4 1.8 8 0 .3.1.6.4.9zM27 21.6c0-1.3.1-2.6 0-3.9-.1-.9.1-1.9.1-2.8v-4.3c0-.5-.1-.9-.7-.7-.4.1-.9 0-1.3 0-1.4-.1-2.9 0-4.3-.1-.6 0-.7.2-.6.7.1.9.2 1.8.1 2.7-.2 2-.3 4-.4 6-.2 3.3 0 6.7 0 10-.2.6 0 .9.6.8.7-.1 1.4.1 2.1-.1h1c.8 0 1.7 0 2.5.1s1.1-.2 1.1-1c-.1-2.1 0-4.1 0-6.2-.1-.4.1-.8-.2-1.2zm66.1 45.8v-5V53v-8.9c0-.8-.3-1.1-1.1-1.1h-9.1c-4 0-8-.1-12-.1-1.1 0-2.2-.2-3.3-.1-1.3.1-2.6 0-3.9 0h-4.2c-2.2-.1-4.4 0-6.6 0h-9.4c-2 0-4.1 0-6.1.1-1.4.1-2.8-.1-4.2 0-1.3.1-2.6 0-3.9.1-1.3.1-2.7 0-4 0-3.9.1-7.8 0-11.7.2-1.9.1-3.9 0-5.8 0-.4 0-.6.1-.5.5.2 1.1-.1 2.2 0 3.3.1 1.1 0 2.2 0 3.3 0 1.3-.2 2.6-.1 3.9.1 1.2 0 2.4 0 3.6.1 2.4 0 4.8 0 7.2v18.2c0 2.2.1 4.3.1 6.5 0 1.7-.1 1.7 1.7 1.7 3 .1 6 .1 9 .2 2.6 0 5.3 0 7.9.1 2.6.1 5.3.1 7.9.1h7.9c2.3 0 4.7.1 7 .1 2.2 0 4.4 0 6.6-.1h9.6c2.9 0 5.8 0 8.6-.1 2.4 0 4.8-.1 7.2-.1 2.1 0 4.1 0 6.2-.1 1.9 0 3.8-.1 5.7-.1.4 0 .5-.1.5-.5v-7.4-9.4-6.7zM80.5 20.1v-2.7-6.7c0-1.1-.4-1.4-1.5-1.2-.3.1-.6.1-.9.1l-4.5.3c-.4 0-.4.2-.5.5-.2.8 0 1.6 0 2.4-.2 2.4 0 4.7 0 7.1 0 3.2.5 6.3.4 9.5 0 .6.2.8.8.8h5.5c.6 0 .8-.2.8-.8-.1-3.1-.1-6.2-.1-9.3zm-27.1-3.2v-6.8c0-.8-.2-1.1-1-1-1.7.1-3.4 0-5.1 0-.4 0-.5.1-.5.5 0 1.1 0 2.2-.1 3.4-.1 3.3-.1 6.5-.1 9.8v6.7c0 .6.2.9.8.7.3-.1.7-.1 1.1 0 1.3.2 2.6-.1 3.8.1.5.1.8-.2.8-.8 0-1.6 0-3.2.1-4.8.3-2.8.2-5.4.2-7.8z"/></svg>