<svg id="Слой_1" xmlns="http://www.w3.org/2000/svg" viewBox="0 0 330 330"><style>.st0{fill:#11a5d7}</style><path class="st0" d="M170.3 206h-10.2c-.7-1-1.8-.8-2.8-1-18-3.9-31.1-19.6-31.8-38.2-.6-17.8 11.6-34.5 29-39.6 2-.6 4.3-.6 6.1-1.7h10.2c.9 1 2.2.8 3.4 1 17.8 3.8 30.9 19 31.7 37.7.8 18.2-10.7 34.2-27.6 39.6-2.6.8-5.3 1.4-8 2.2zM329.1 160.6v10.8c-1 .7-.8 1.8-1 2.8-3.8 15.5-13.3 25.5-28.6 30.2-2 .6-4.1 1.1-6.1 1.6h-10.2c-.7-1-1.8-.8-2.8-1-18-3.9-31.1-19.6-31.8-38.2-.6-17.8 11.6-34.5 29-39.6 2-.6 4.3-.6 6.1-1.7h10.2c.3.7.9.5 1.4.6 16.6 3.5 27.4 13.3 32.3 29.6.6 1.6.4 3.4 1.5 4.9zM1.3 170.8v-10.2c.7-.3.5-.9.6-1.5 3.5-16.6 13.2-27.4 29.5-32.3 1.7-.5 3.5-.4 5-1.4h10.2c.9 1 2.2.8 3.4 1 17.8 3.8 30.9 19 31.7 37.7.8 18.2-10.7 34.2-27.6 39.6-2.6.9-5.4 1.5-8 2.2H35.9c-.7-1-1.8-.8-2.8-1-16-3.9-26-13.9-30.6-29.6-.3-1.5-.2-3.1-1.2-4.5z"/></svg>