<svg id="Слой_1" xmlns="http://www.w3.org/2000/svg" viewBox="0 0 330 330"><style>.st0{fill:#10a5d8}.st1{fill:#fff}</style><path class="st0" d="M155.9 58.5h10.7c2.6.1 5.3.2 7.9.3 5.3.5 10.7.9 16 1.7 16.2 2.5 31.9 6.9 46.9 13.6 27.6 12.3 51 29.9 69.7 53.7 8.4 10.7 15.3 22.4 20.8 34.8.9 2 1 3.8.1 5.9-3.8 8.4-8 16.6-13.2 24.3-12.9 19.3-29.4 35.2-48.5 48.4-27.8 19.2-58.6 29.1-92.2 30.7-19.6 1-39-1.3-58-6.6-17.3-4.9-33.7-12.1-48.6-22.1-16.5-11.2-31-24.4-43.6-40-8.6-10.7-15.7-22.3-21-34.9-.7-1.7-1.1-3.2-.2-5.1 11.2-25.1 27.7-46.1 49-63.5 15.1-12.4 31.8-22 50-29.1 15.6-6 31.8-9.7 48.4-11.3 1.9-.2 4 .1 5.8-.8zm9.4 33.3c-43.6.4-73.2 35.7-73.2 73.4 0 43.6 33.4 73.5 73 73.8 43.7.4 73.7-33.9 73.9-73 .2-43.4-33.6-73.2-73.7-74.2z"/><path class="st1" d="M174.6 58.5v.3c-2.6-.1-5.3-.2-7.9-.3h7.9z"/><path class="st0" d="M212 165.2c-.2 27.6-21.2 45.9-44.4 46.7-29.8.9-48.7-21.9-48.9-45.7-.1-26.6 20.3-47.8 46.3-47.5 27.4.3 46.9 20.6 47 46.5z"/></svg>