<svg id="Слой_1" xmlns="http://www.w3.org/2000/svg" viewBox="0 0 100 100"><style>.st0{fill:#fff}</style><path class="st0" d="M12.1 46.2c-1.9 1.6-3.6 3.1-5.4 4.5-.9.7-1.8 1.4-2.7 2-.8.6-1.7.4-2.7-.3C0 51.6.1 49.9 1 49c1.6-1.6 3.4-3 5.2-4.4 3.1-2.6 6.2-5.1 9.4-7.7l4.8-3.9c.4-.3.6-.6.6-1.1-.1-2.6 0-5.2-.1-7.8 0-2.8 0-5.6.1-8.5 0-1.1 1.2-2.1 2.5-2.1h3.7c2-.1 4-.1 6 .1 1.5.2 2.3 1.1 2.4 2.6v4.2c.8-.5 1.5-1.1 2.1-1.7 3-2.5 5.9-4.9 8.9-7.4.5-.5 1.1-.9 1.6-1.4 1.1-.9 2.5-1 3.6-.1 3.6 2.9 7.2 5.9 10.8 8.8 3.2 2.6 6.5 5.2 9.7 7.8 4 3.2 8 6.5 12 9.7 3.6 2.9 7.3 5.9 10.9 8.8 1.3 1 2.6 1.9 3.7 3.1 1.4 1.5.9 3.1-.7 3.9-.8.4-1.5.4-2.3-.1-2.7-1.8-5.1-4.1-7.7-6-.1-.1-.2-.1-.3-.2-.2.2-.1.5-.1.7v41.8c0 1.3-1.2 2.4-2.6 2.4h-7.3c-2.3 0-4.5.1-6.8.1-1.8 0-3.7 0-5.5-.1-1.7 0-3.4.1-5.1 0-1.1 0-2.2.2-3.2-.4-.9-.5-1.3-1.2-1.4-2.3-.2-6.3 0-12.6-.1-18.9 0-.4-.1-.5-.6-.5H44.7c-.5 0-.6.1-.6.6v18.9c0 1.7-1.7 2.6-3.1 2.6-1 0-1.9-.1-2.9-.1H19.3c-1 0-2 .1-3 0-.6 0-1.1.1-1.7 0-1.6-.2-2.4-1.2-2.4-2.8V74.3v-20-7.8c-.1.1-.1 0-.1-.3zm70.7 17.7V42.8c0-.3 0-.6-.3-.8-3.7-3.1-7.4-6.1-11.1-9.2-4-3.3-8-6.7-12.1-10-2.7-2.3-5.4-4.5-8.2-6.8-1.2-1-1.1-.9-2.3.1l-7.5 6.3c-2.8 2.3-5.7 4.7-8.5 7-2.4 2-4.9 4-7.3 6-2.7 2.2-5.3 4.4-8 6.6-.3.2-.3.5-.3.8v42.3c0 .4.1.6.6.6 1 0 2 .1 3 .1h17.6c.6 0 .8-.1.8-.8v-9.5V66c0-1.2 1.1-2.4 2.3-2.4h17.1c1.4 0 2.3 1 2.3 2.4v19c0 .5.1.7.7.7h20.7c.5 0 .5-.2.5-.6V63.9zM26 28.2c1.5-1.2 2.8-2.3 4.2-3.4.2-.1.2-.3.2-.5v-5.4c0-.2 0-.4-.3-.4h-3.7c-.2 0-.4 0-.4.3 0 .5-.1 1-.1 1.5v3c.1 1.7.1 3.2.1 4.9z"/></svg>