<svg id="Слой_1" xmlns="http://www.w3.org/2000/svg" viewBox="0 0 100 100"><style>.st0{fill:#10a5d8}</style><path class="st0" d="M51.8.2c.6.1 1.3.2 1.9.4 2.2.6 3.7 1.9 4.4 4.1.1.3.2.5.6.6 5 1.5 9.7 3.9 13.8 7.2 4.8 3.9 8.3 8.6 10.1 14.5.6 1.9.9 3.8 1.1 5.8.5 3.8.5 7.6.5 11.5-.1 3.1-.2 6.2-.2 9.3 0 2.7 0 5.4.5 8.1.2 1.2.9 2.3 1.5 3.4 2.4 5.1 5.1 10 7.8 14.9 1.2 2.1 2.3 4.3 3.5 6.4.2.4.2.6-.4.6H74.5c-2.2 0-4.3.1-6.5.1-.5 0-.8.2-1 .7-2.1 5.6-5.9 9.6-11.6 11.2-5.6 1.6-10.7.5-15.3-3.2-2.7-2.2-4.6-5-5.7-8.3-.1-.4-.3-.5-.7-.5-7.1-.1-14.1-.1-21.2-.1H4.6c-.6 0-.7-.1-.4-.7.9-1.6 1.8-3.1 2.6-4.7 2.2-3.9 4.2-7.9 6.3-11.9 1.1-2.1 2.4-4.1 3.3-6.3.6-1.6 1-3.3 1-5 0-5.7-.1-11.4-.1-17.2 0-3 0-6 .4-8.9.6-5.4 2.7-10.2 5.9-14.5 3.5-4.5 7.9-8 13.1-10.3 2.2-1 4.6-1.8 7-2.2.4-.1.6-.2.7-.6.2-.9.5-1.8.8-2.7.1-.4.3-.6.7-.7 1.5-.5 3-1 4.6-1 .1 0 .3 0 .3-.1.3.1.6.1 1 .1zm35.7 80.6c-.4-.8-.8-1.5-1.2-2.2-3-5.4-6-10.8-8.6-16.4-.1-.2-.2-.4-.2-.7-.1-2.1-.2-4.3-.2-6.4 0-2.9 0-5.7.1-8.6.1-3.5.1-7.1-.1-10.6-.1-2-.3-4.1-.8-6.1-1.7-5.9-5.2-10.5-10.2-14.1-3-2.1-6.4-3.4-10-4.2-3.4-.7-6.8-.8-10.2-.2-4.9.9-9.4 3-13.2 6.3-3.1 2.6-5.4 5.8-7 9.6-1.4 3.4-1.6 7.1-1.8 10.7-.2 3.3-.1 6.7 0 10 .1 4 .2 7.9 0 11.9 0 .8 0 1.7-.4 2.5-2.7 5.5-5.6 10.7-8.4 15.8-.5.9-1 1.7-1.5 2.7h73.7zM41 87.2c1.3 3.6 5.5 6.1 9.8 6 4.8-.1 8.4-3 9.5-6-6.4-.2-12.9-.2-19.3 0z"/></svg>