<svg id="Слой_1" xmlns="http://www.w3.org/2000/svg" viewBox="0 0 100 100"><style>.st0,.st1{fill:#fff}</style><path class="st0" d="M50 12.8h49c.6 0 .7.2.7.7V86.9c0 .4-.1.4-.4.4h-6.4c-2.4 0-4.8 0-7.2.1-1.7 0-3.4-.1-5.1-.1-1.7 0-3.4.1-5.1.1-1.7 0-3.4 0-5.2-.1H35.9c-1.7 0-3.4-.1-5.1-.1-1.7 0-3.4.1-5.1.1-1.7 0-3.4-.1-5.2-.1-1.7 0-3.4 0-5.2.1H2.9c-.8 0-1.5-.1-2.3 0-.4.1-.3-.3-.3-.5v-5.6-67.6c0-.5.1-.7.7-.7h47.8c.5-.1.8-.1 1.2-.1zm.1 6.2H7.5c-.9 0-.9-.2-.9.9v60.5c0 .6.2.7.7.7h85.5c.5 0 .7-.2.6-.6 0-.5-.1-1.1-.1-1.6v-3.5-2.8-3.1c0-1-.1-2 0-3V63v-3-3-3-3.3-2.9-3.1-3.3-2.9-3-3.4-2.9-3-3.4-2.9c0-.5-.2-.6-.7-.6H75.8c-8.5-.3-17.1-.3-25.7-.3z"/><path class="st1" d="M88 74.8c-2.4.2-4.8.3-7.1.3h-64c-1.2 0-2.5-.2-3.7-.2-.4 0-.4-.2-.3-.5.7-4.4 1.5-8.9 2.5-13.2 1.1-5.2 2.4-10.2 4-15.3 1.1-3.3 2.2-6.7 4-9.7.8-1.4 1.7-2.6 3-3.6 1.5-1.2 3.1-1.3 4.9-.4 1.9 1 3 2.6 4.1 4.3 2.4 3.7 4 7.8 5.7 11.9 1.3 3.2 2.7 6.5 4.5 9.5.5.9 1.2 1.8 1.8 2.6 1.9 2.3 5 1.9 6.9.4 1.7-1.3 2.6-3.1 3.5-4.9.6-1.2 1.1-2.4 1.9-3.5 1.9-2.6 3.8-2.9 6.6-1.1 1.6 1.1 3 2.4 4.4 3.7 3.6 3.4 6.9 7 10.1 10.7 2.3 2.9 4.7 5.9 7.2 9zM87.2 34.5c0 4.6-3.6 9.5-9.7 9.2-4.5-.2-9.1-3.8-8.9-9.7.2-4.6 3.8-8.7 8.9-8.8 5.3-.2 9.8 3.9 9.7 9.3z"/></svg>