<svg id="Слой_1" xmlns="http://www.w3.org/2000/svg" viewBox="0 0 100 100"><style>.st0{fill:#10a4d7}</style><path class="st0" d="M64.6 65.1c6.3 3 12.4 5.8 18.5 8.8 3.3 1.6 6.8 2.9 9.9 5 1.7 1.2 2.7 2.7 2.6 5-.1 2.6 0 5.1 0 7.7 0 3.2-2.4 5.6-5.6 5.6H8.9c-3.2 0-5.6-2.4-5.6-5.6v-8.1c0-1.7.7-2.9 1.9-3.9 2.6-2.2 5.8-3.3 8.8-4.8 6.7-3.2 13.5-6.4 20.4-9.6-1.8-1.7-3.5-3.4-4.8-5.4-3.2-5-5.1-10.4-5.8-16.2-.7-6.6-.4-13.2-.2-19.8.1-3.3 2-6.1 4.1-8.5 4.9-5.6 11.1-9 18.4-10 8-1.1 15.1 1.6 21.3 6.5 3.4 2.7 6.1 5.9 7.4 10.1.3 1 .5 2 .5 3 0 5.5.2 11-.1 16.5-.5 8.2-2.8 15.7-8.5 21.9-.3.4-.7.7-1.1 1-.2.2-.6.4-1 .8zM49.2 92.7h40.2c1-.1 1.5-.5 1.5-1.6 0-2.3-.1-4.6 0-6.9 0-.9-.3-1.4-1-1.9-1.6-1-3.3-1.7-5-2.5-7.4-3.5-14.8-7-22.2-10.6-3.1-1.5-3.7-5.3-1.2-7.6 6.3-5.5 8.5-12.7 9-20.7.3-5.1 0-10.2.1-15.2 0-2.2-.6-4.2-1.9-6C64 13.4 57.8 9.7 50 9.4c-7.8-.3-14.2 3.2-19.3 8.9-2.1 2.4-3.1 5.1-2.9 8.4.2 3.7.1 7.5 0 11.2 0 2.8.2 5.5.8 8.3 1.5 5.9 3.8 11.3 8.6 15.4.9.7 1.4 1.7 1.4 2.9.1 2.2-.8 3.8-2.8 4.7-6.7 3.1-13.4 6.3-20 9.5-2.5 1.2-5.1 2.2-7.4 3.7-.4.6-.6 1.1-.6 1.8v6.1c0 2.3.2 2.5 2.4 2.5 13-.1 26-.1 39-.1z"/></svg>