<svg id="Слой_1" xmlns="http://www.w3.org/2000/svg" viewBox="0 0 330 330"><style>.st0{fill:#10a4d7}</style><path class="st0" d="M123.6 260.9v47c0 1.4-.5 1.6-1.7 1.6-16.6-.6-33.3-1.1-49.9-2-4.8-.3-9.7-.6-14.5-.8-1.6-.1-1.9-.7-2-2.2-.1-12.1-.3-24.2-.4-36.3-.2-17.4-.2-34.9-.3-52.3-.1-13-.1-25.9-.2-38.9 0-4.1-.2-8.3-.2-12.4 0-1.3-.6-1.3-1.5-1.3l-39.9-.9c-3.5-.1-7-.3-10.5-.3-1.2 0-1.5-.4-1.6-1.6-.4-3.6.8-6.1 3.7-8.4 13.1-10.4 25.6-21.6 38-32.8 13.3-12 26.5-24 39.8-35.9 16.8-15.1 33.9-30 51.5-44.3 7.5-6.1 15.2-11.8 22.8-17.6 1.3-1 2.9-.8 4.3-.8 3.8 0 7.5.1 11.3.2.9 0 1.6.3 2.3.8 12.2 8.9 23.9 18.4 35.5 28.1 12.3 10.3 24.3 20.9 36.1 31.7 11.8 10.7 23.5 21.5 35.4 32.1 15.1 13.5 30.1 27 45.9 39.5 2 1.6 1.6 3.4 1.7 5.3.1 3.1 0 3.1-3 3.2-13.2.5-26.5 1.1-39.7 1.6-2.8.1-5.7.2-8.5.2-1.4 0-1.8.6-1.8 1.9-.1 15.9-.4 31.8-.4 47.6 0 16.4-.1 32.8-.2 49.1 0 8.5-.2 17.1-.3 25.6-.1 5.7-.3 11.4-.4 17.1 0 1.5-.5 2-2.1 2.1-21.5 1.1-43.1 1.8-64.7 2.5-1.8.1-1.7-.7-1.7-2v-93.2c0-1.8-.3-2.4-2.3-2.8-15.8-3.2-31.9-4.3-48-3.6-10.4.4-20.7 1.8-30.8 3.9-1 .2-1.3.8-1.3 1.8 0 11 0 22.1-.1 33.1v14.3c0 .1-.1.1-.3.1z"/></svg>