<svg id="Слой_1" xmlns="http://www.w3.org/2000/svg" viewBox="0 0 330 330"><style>.st0{fill:#878787}</style><path class="st0" d="M127.1 129.5H199c1.4 0 1.8-.3 1.8-1.7-.2-12.3.1-24.6.1-36.8 0-9-.1-18-1.6-26.9-1.5-8.7-6.3-15.1-13.9-19.7-7.8-4.7-16.3-6.4-25.3-5.5-8.2.9-15.3 4.2-21.3 10.1-5.9 5.8-8.2 13-9 20.8-.7 7.2-.5 14.5-.7 21.7 0 1.2-.4 1.5-1.5 1.5-11.4-.1-22.8-.1-34.1-.1-1.3 0-1.1-.7-1.1-1.5.3-7.3.7-14.6 1.4-21.9.8-7.6 1.9-15 4.4-22.2 2.9-8.5 6.4-16.8 12.6-23.5 3.3-3.5 7.1-6.5 11-9.4 9.3-6.9 20.1-9.8 31.3-11.5 6.9-1 13.8-1.1 20.6-.5 11.5.9 22.4 4.2 32.2 10.3 9.3 5.9 16.7 13.6 21.3 23.7 3.4 7.4 5.8 15.1 7.6 23 3.7 16.3 3 32.8 2.9 49.2-.1 6.2 0 12.5-.1 18.7 0 1.4.3 1.9 1.8 1.9 12 .2 24 0 35.9-.2 1.3 0 2.1.4 3 1.2 3.6 3.6 7.4 6.9 10.3 11.1 2.3 3.4 3.7 7.2 3.7 11.4v93.8c0 13.5.5 27 0 40.4-.3 7.4-1.7 14.6-6.6 20.6-1.6 1.9-3.5 3.7-5.8 4.9-10.4 5.6-21.6 8.9-33 11.5-7.2 1.6-14.4 2.9-21.7 3.7-3.9.5-7.9.1-11.8.1h-106c-5.4 0-10.6-1.4-15.9-2.2-9.9-1.6-19.6-4.1-29-7.5-4.7-1.7-9.4-3.6-13.5-6.4-5-3.5-7.8-8.6-9.3-14.4-1-3.8-1.2-7.8-1.7-11.7-.5-3.9-.7-7.9-.4-11.8 1.2-17.6.5-35.2.6-52.8.1-12.5-.1-25-.1-37.6 0-10.5 0-21 .2-31.4.2-6.7 2.4-12.8 6.9-17.8 2.9-3.3 6.8-4.8 11.3-4.8 23.5.2 47 .2 70.6.2z"/></svg>