<?xml version="1.0" encoding="utf-8"?>
<!-- Generator: Adobe Illustrator 19.2.1, SVG Export Plug-In . SVG Version: 6.00 Build 0)  -->
<svg version="1.1" id="Слой_1" xmlns="http://www.w3.org/2000/svg" xmlns:xlink="http://www.w3.org/1999/xlink" x="0px" y="0px"
	 viewBox="0 0 490 235" style="enable-background:new 0 0 490 235;" xml:space="preserve">
<style type="text/css">
	.st0{fill:#1DA4D5;}
</style>
<g>
	<path class="st0" d="M206.6,106.3c-0.5,13.6-2.3,26.5-3.6,39.5c-1.6,15.6-1.9,31.2,2,46.6c1.8,7.3,7.5,11.7,12.6,16.5
		c1.7,1.6,2.2-0.5,2.6-1.5c2.5-6.5,4.8-13.1,6.4-19.9c4.3-18,5.5-36.4,8.3-54.6c0.7-4.4,1.5-8.7,2.2-13.1c0.2-1.4,0.8-2.3,2.3-2.7
		c2.1-0.6,4.3-1.2,6.3-2.1c2.4-1.1,2.9,0,2.7,2.1c-0.8,7.8-1.7,15.5-2.5,23.3c-1.8,17.4-3.9,34.9,1.1,52.2
		c1.5,5.3,3.7,10.3,6.4,15.1c1.3,2.3,2,1.5,2.8-0.3c4.2-8.7,7-17.7,8.9-27.2c2.4-12,3-24.3,4.2-36.5c0.2-2.2-0.3-4.1-1.5-6
		c-2.8-4.7-5.3-9.6-7.4-14.7c-2.3-5.7-0.1-10.6,2.2-15.4c2.3-4.9,5.5-9.5,8.5-14.6c6.6,12.2,8.9,25.1,11.7,38.2
		c12.3-5.4,22.9-13.2,33.5-21.1c3.8,6.5,4.2,15.5,1.8,22.4c-6.4,19.1-11.6,38.5-10.2,58.9c0.3,4.9,1.6,9.6,2.4,14.5
		c0.3,2.1,1.8,2.9,3.6,3.2c5.3,1,9.7-0.4,13-4.8c4.7-6.3,7.4-13.8,10.8-20.8c1.5-3.1-0.5-6.6-0.5-10c-0.1-4.4-1-8.8-1.1-13.2
		c-0.5-11.9-1.2-23.8-0.6-35.8c0.7-15,1.2-30.1,2.4-45.1c0.9-10.8,1.1-21.7,2.3-32.5c1.4-12.3,4.1-24.3,8.7-35.9
		c1-2.6,2.3-3.7,5.1-3.3c1.9,0.3,4,0,6.2,0c-1.5,5.9-3,11.5-4.2,17.2c-2.5,11.3-3.7,22.8-4.6,34.3c-1.5,21.4-1.4,42.9-3.3,64.7
		c3.7-1.6,6.1-4.5,9.1-6.6c4.2-3.1,8.3-6.6,13.8-7.2c7.4-0.8,12.3,3.7,16.6,8.7c7.6,8.8,11,19.3,12.5,30.6c1.7,13,2.4,26-0.9,38.9
		c-2.3,8.9-6.6,16.5-13.4,22.9c-7.5,6.9-16.2,7.6-25.5,6.1c-0.5-0.1-0.9-0.3-1.4-0.3c-5.3-0.8-5.6-0.5-4.9,4.7c0,0.1,0,0.2,0,0.3
		c-0.3,1.5,1.5,4.1-0.7,4.4c-2.4,0.4-5.6,1.7-7.3-2c-1.8-3.8-4.1-7.3-6.1-11c-1-1.9-1.7-2.6-3.8-0.9c-2.4,2-5.2,3.6-8,5
		c-10.9,5.5-18.8,3.4-25.7-6.6c-5.9-8.5-8.4-18-8.8-28.3c-0.5-14.5,2.5-28.5,6.1-42.4c0.9-3.4-0.3-3.2-2.7-2.6c-5,1.2-10,2.4-15,3.4
		c-1.7,0.3-2.3,1.1-2.4,2.8c-0.8,11.9-1.8,23.8-2.6,35.6c-1,15-1.8,30.1-2.7,45.1c0,0.7,0.2,1.5-0.6,1.9c-0.6,0.3-1.1-0.1-1.5-0.6
		c-5-6.8-12.7-9.3-20-12.4c-6.6-2.8-13.2-5.6-17.4-11.8c-1.1-1.6-1.7-0.3-2.3,0.4c-2.8,3.2-5.5,6.4-8.3,9.5c-1.8,2-4,3.6-6.3,4.9
		c-4.8,2.7-12,3.6-17.3-2c-7.7-8.1-10.1-18.1-11.3-28.7c-1.5-13.7-0.7-27.3,0.7-40.9c1.3-12.4,4.3-24.3,12.2-34.5
		C203.3,109.2,204.5,107.7,206.6,106.3z M386.4,167.8c-0.3-7.3-0.7-18.4-4.2-29c-1.6-4.8-3-9.6-6.1-13.7c-4.5-5.8-11.1-5.6-15.2,0.4
		c-4.1,6-6.6,12.6-8.1,19.6c-2.8,12.5-2.2,25-0.6,37.6c0.9,7.4,2.9,14.4,7.1,20.6c6.7,9.9,16.2,8.1,20.5-0.9
		C384.6,192.6,386.6,182.4,386.4,167.8z"/>
	<path class="st0" d="M140.9,104c9.5,5,17.6,10.2,24.7,16.9c9,8.5,14.8,18.7,15,31.3c0.2,14.1-4.6,26.7-13.1,38
		c-9,11.9-21.4,18.9-35,24.1c-16.9,6.5-34.4,9.5-52.5,8.3c-7-0.4-13.9-1.7-20.6-3.6c-11.2-3.2-17.7-15-16.1-28.2
		c2.5-19.6,6.3-38.9,10.4-58.2c3.9-18.2,8-36.4,9.9-55c0.4-3.8,0.9-7.6,1.3-11.5c0.1-1.4,0.4-2.4,2-2.8c5.3-1.3,10.6-2.6,15.9-3.9
		c2.1-0.5,1.8,0.8,1.6,2c-1.4,9.8-2.5,19.7-4.2,29.4c-4.4,24.6-9.1,49.2-13.6,73.8c-0.9,5-1.8,10.1-2.2,15.2
		c-0.9,14,10.4,27.2,24.3,28.7c12.6,1.4,24.9,0.1,36.8-4.1c15.4-5.5,28.4-14.6,38.3-27.7c9.7-12.9,8.4-33.4-3-43.7
		c-9.2-8.3-20.5-12.2-32.7-13.5c-12.4-1.4-24.7-0.3-37,1.3c-0.9,0.1-1.8,0-3.2,0c4-6.2,7.9-12.1,12.9-16.8c2.7-2.5,7.2-2.4,11-2.7
		c3.6-0.4,7.2-0.6,10.8-0.9c1.8-0.1,3.2-0.9,4.5-2.3c6-6,12.6-11.5,17.7-18.4c3.9-5.4,7.1-11.2,7.8-18.1c1-10.2-2.9-17.3-12.2-21.8
		c-10.9-5.3-22.5-5.8-34.3-4.9C83.5,36.7,63.2,45,45.2,59.3c-10.9,8.7-19.8,19.1-26.5,31.4c-0.6,1.2-1.3,2.3-2.8,3.3
		c0-6.6-1-13.4,0.3-19.7c1.2-5.8,6-10.4,10.1-14.9C39.2,45,55.7,36.8,73.7,31.5c17-5,34.3-8.3,52.1-7.4c12.6,0.7,24.5,3.7,34.2,12.4
		c10.4,9.4,12.1,20.8,7.5,33.5c-4.6,12.7-13.6,22.1-23,31.4C143.5,102.3,142.3,102.9,140.9,104z"/>
	<path class="st0" d="M473.8,174.5c2,12.3-0.4,23.2-7.2,33.1c-9.2,13.3-21,14.3-33.1,4.2c-9.1-7.7-12.7-18.5-15.3-29.6
		c-3.3-13.7-4.4-27.6-4.5-41.7c0-17.6,0.7-35.2,2.7-52.8c2-17,3.7-34.1,8.7-50.5c3-9.9,7.4-19.1,13.7-27.4c2.2-3,8.2-2.5,10,0.7
		c10.6,18.4,13.3,38.3,11.5,59.1c-1.3,15.2-4.6,29.9-9,44.4c-3.8,12.5-10.1,23.8-17.2,34.6c-1.4,2.1-3,4.1-4.5,6.2
		c-0.5,0.8-1.1,1.5-1,2.6c1.4,15.2,2.1,30.6,10.2,44.2c1.7,2.9,4.1,5.4,6.4,7.9c1.8,2,3,1.6,4.7-0.4
		C459.4,198.8,467.4,187.5,473.8,174.5z M429.6,142.2c0.5-0.4,0.8-0.4,0.8-0.6c8.8-17.9,14.3-36.9,16.4-56.8
		c1.4-14.2,1.8-28.4,1.4-42.7c-0.1-6.6-1.2-13.1-4.5-19.5C430.4,61.7,427.9,101.6,429.6,142.2z"/>
</g>
</svg>
