<?xml version="1.0" encoding="utf-8"?>
<!-- Generator: Adobe Illustrator 19.2.1, SVG Export Plug-In . SVG Version: 6.00 Build 0)  -->
<svg version="1.1" id="Слой_1" xmlns="http://www.w3.org/2000/svg" xmlns:xlink="http://www.w3.org/1999/xlink" x="0px" y="0px"
	 viewBox="0 0 100 100" style="enable-background:new 0 0 100 100;" xml:space="preserve">
<style type="text/css">
	.st0{fill:#878787;}
</style>
<g>
	<path class="st0" d="M50,99.5c-4.4,0-8.8,0-13.2,0c-0.6,0-0.7-0.2-0.7-0.7c0-7.4,0-14.8,0-22.3c0-3.3-0.1-6.7-0.1-10
		c0-0.9-0.8-1.2-1.3-1.7c-1.5-1.4-3.2-2.5-4.4-4.3c-0.8-1.2-1-2.4-1.1-3.8c-0.1-3.1-0.3-6.2-0.3-9.2c0-2.5-0.1-5,0-7.6
		c0.1-1.7,0.1-3.4,0.2-5.2c0.2-2.4,0.4-4.8,0.8-7.2c0.1-0.3,0.3-0.4,0.5-0.5c1.9-0.6,3.9-1,5.9-1.4c1.9-0.3,3.8-0.5,5.7-0.6
		c0.7-0.1,1.5-0.1,2.2-0.1c3,0,6-0.1,9,0c4.7,0.2,9.5,0.3,14.2,0.3c0.4,0,0.9-0.1,1.3-0.1c0.4,0,0.5,0.1,0.6,0.5
		c0.2,1.7,0.5,3.3,0.7,5c0.3,2.2,0.5,4.4,0.6,6.6c0.3,4,0.4,8,0.3,12c-0.1,2.4-0.2,4.7-0.4,7.1c0,0.6,0,1.3-0.1,1.9
		c-0.3,1.8-1.4,3.2-2.7,4.3c-1.1,1-2.3,2-3.4,2.9c-0.4,0.3-0.5,0.7-0.5,1.2c0,2.1,0,4.2-0.1,6.3c-0.1,4.8-0.1,9.7-0.1,14.5
		c0,3,0,6.1,0,9.1c0,0.7,0,1.5,0,2.2c0,0.4-0.1,0.6-0.6,0.6c-4,0-7.9,0-11.9,0C51,99.5,50.5,99.5,50,99.5C50,99.5,50,99.5,50,99.5z"
		/>
	<path class="st0" d="M7.5,82.3c0-5.5,0-11,0-16.5c0-0.4-0.1-0.6-0.4-0.8c-2.1-1.5-4.1-3-6.2-4.5c-0.3-0.2-0.4-0.4-0.4-0.7
		c0-5.5,0-11,0-16.5c0-4.5,0-9.1,0-13.6c0-0.5,0.2-0.8,0.6-1.2c2-1.5,4.2-2.4,6.7-2.9c2.1-0.4,4.3-0.5,6.4-0.5
		c2.5,0,4.9-0.1,7.4-0.2c0.4,0,0.3,0.1,0.3,0.4c-0.1,1.7-0.2,3.3-0.3,5c0,1.4-0.1,2.8-0.1,4.2c-0.1,2.6-0.1,5.3-0.1,7.9
		c0,2.6,0,5.2,0,7.8c0,2.7,0,5.4,0.2,8.1c0.1,2.2,0.1,4.5,0.3,6.7c0.1,0.8,0,1.7,0.1,2.6c0.1,0.4,0.2,0.6,0.5,0.8
		c2.1,1.1,4.1,2.2,6.2,3.3c0.4,0.2,0.5,0.4,0.5,0.8c0,2.6,0,5.2,0,7.7c0,3.4,0,6.7,0,10.1c0,2.7,0,5.5,0,8.2c0,0.6-0.1,0.8-0.7,0.8
		c-3.4,0-6.8,0-10.2,0c-2.6,0-5.2,0-7.8,0c-0.8,0-1.6,0-2.4,0c-0.5,0-0.4-0.3-0.4-0.6c0-2.7,0-5.3,0-8C7.4,88.1,7.5,85.2,7.5,82.3
		C7.5,82.3,7.5,82.3,7.5,82.3z"/>
	<path class="st0" d="M99.5,44.3c0,5.1,0,10.2,0,15.3c0,0.4-0.1,0.6-0.4,0.8c-2.1,1.5-4.2,3-6.3,4.5c-0.3,0.2-0.3,0.4-0.3,0.7
		c0,4.7,0,9.5,0,14.2c0,4.8,0,9.7,0,14.5c0,1.5,0,3,0,4.5c0,0.5-0.1,0.7-0.7,0.7c-3.4,0-6.7,0-10.1,0c-3.4,0-6.9,0-10.3,0
		c-0.5,0-0.6-0.2-0.5-0.6c0.2-1.8,0.1-3.6,0.1-5.4c0-2.4,0-4.8,0-7.2c0-3.4,0-6.8,0-10.3c0-1.2,0-2.3,0-3.5c0-0.3,0-0.5,0.3-0.7
		c2.1-1.1,4.2-2.2,6.3-3.3c0.4-0.2,0.6-0.4,0.6-0.8c0.1-1,0.2-2,0.2-3c0.1-3,0.2-6,0.3-9c0.2-5.6,0.1-11.3,0.1-16.9
		c0-2.9-0.2-5.7-0.3-8.6c-0.1-1.6-0.1-3.2-0.3-4.8c0-0.2-0.1-0.5,0.3-0.5c1.9,0.2,3.8,0.1,5.6,0.1c3.4,0.1,6.9,0.1,10.2,1.1
		c1.7,0.5,3.3,1.2,4.8,2.1c0.2,0.2,0.4,0.3,0.4,0.7c0,3.9,0,7.8,0,11.6C99.5,41.8,99.5,43.1,99.5,44.3
		C99.5,44.3,99.5,44.3,99.5,44.3z"/>
	<path class="st0" d="M49.5,0.5c0.4,0,0.8,0,1.2,0c1.5-0.1,2.8,0.1,4.1,0.9c1.2,0.8,2.4,1.5,3.8,2c1.1,0.4,1.4,1.3,1.6,2.3
		c0.2,1.2,0.4,2.4,0.4,3.6c0,3.2-0.4,6.3-2.2,9c-1.7,2.5-4.2,3.6-7.2,3.4c-0.8-0.1-1.6-0.1-2.4,0c-3.4,0.1-6.3-1.8-7.8-4.8
		c-1.4-3-1.6-6.1-0.7-9.3c0.8-2.9,2.5-5.3,5.3-6.7c0.3-0.2,0.6-0.2,1-0.2C47.4,0.5,48.4,0.5,49.5,0.5C49.5,0.5,49.5,0.5,49.5,0.5z"
		/>
	<path class="st0" d="M79.2,21.5c-3.6,0-6-0.8-8.1-2.5c-2.1-1.7-3.2-4-3.5-6.7c-0.4-3.4,1.2-5.8,3.3-8.1c1.1-1.2,2.4-2.3,3.6-3.4
		c0.2-0.2,0.5-0.3,0.8-0.3c1.9,0,3.9,0,5.8,0c0.4,0,0.7,0.2,1,0.4c2.6,1.9,4.8,4.2,6.1,7.2c1.1,2.5,0.9,5-0.4,7.5
		c-0.6,1.1-1.2,2.3-2.2,3.2C83.8,20.6,81.2,21.5,79.2,21.5z"/>
	<path class="st0" d="M22.5,21.4c-1.4,0.2-2.7,0-4.1-0.4c-2.5-0.7-4.5-2.2-5.7-4.5c-0.7-1.2-1.3-2.5-1.5-3.9c-0.2-1.6,0-3.1,0.6-4.6
		c1.3-3,3.6-5.3,6.2-7.3c0.2-0.2,0.5-0.3,0.8-0.3c1.7,0,3.4,0,5.1,0c0.8,0,1.3,0.6,1.9,1c2.1,1.4,4,3.2,5.2,5.4
		c1.5,2.7,1.9,5.5,0.4,8.4c-0.5,1-1,2-1.8,2.8c-1.5,1.7-3.4,2.6-5.6,3.1C23.6,21.4,23.1,21.5,22.5,21.4z"/>
</g>
</svg>
