<?xml version="1.0" encoding="utf-8"?>
<!-- Generator: Adobe Illustrator 19.2.1, SVG Export Plug-In . SVG Version: 6.00 Build 0)  -->
<svg version="1.1" id="Слой_1" xmlns="http://www.w3.org/2000/svg" xmlns:xlink="http://www.w3.org/1999/xlink" x="0px" y="0px"
	 viewBox="0 0 100 100" style="enable-background:new 0 0 100 100;" xml:space="preserve">
	 <style>
	 	.st0{
	 		fill: #fff;
	 	}
	 </style>
<g>
	<path class="st0" d="M45.7,93.9c0-1.8,0-3.6,0-5.4c0-0.5-0.1-0.7-0.7-0.7c-3.4-0.3-6.7-0.9-10-1.8c-2.5-0.7-4.9-1.7-7.2-2.9
		c-0.5-0.2-0.6-0.5-0.4-1c0.8-2.3,1.6-4.6,2.3-6.9c0.1-0.4,0.2-0.5,0.6-0.3c3.7,1.8,7.5,3.3,11.5,4.1c4.5,0.9,9,0.9,13.3-0.9
		c3-1.3,5.1-3.5,6.3-6.5c1.5-3.8,1.2-7.5-1.4-10.9c-1.8-2.3-4.1-4-6.6-5.4c-2.8-1.6-5.8-2.8-8.8-4c-2.9-1.3-5.9-2.6-8.4-4.6
		c-3-2.3-5.5-4.9-6.8-8.6c-0.8-2.4-1.3-4.8-1.1-7.3c0.3-4.9,2.1-9.1,5.8-12.6c3-2.8,6.6-4.4,10.5-5.4c0.6-0.2,1.2-0.3,1.8-0.4
		c0.4-0.1,0.5-0.2,0.5-0.6c0-2.2,0-4.4,0-6.5c0-1.6,0-3.2,0-4.8c0-0.3,0.1-0.4,0.4-0.4c2.3,0,4.6,0,6.9,0.1c0.3,0,0.3,0.1,0.3,0.3
		c0,2.5,0,5,0,7.6c0,1.1,0,2.1,0,3.2c0,0.3,0.1,0.4,0.4,0.5c2,0.3,4,0.6,6,1c2.8,0.6,5.6,1.4,8.1,2.7c0.3,0.2,0.5,0.3,0.5,0.7
		c0,1.4-0.4,2.6-0.9,3.9c-0.4,1.1-1,2.2-1.3,3.4c-0.1,0.5-0.4,0.2-0.6,0.1c-2.3-1-4.6-1.9-7-2.5c-3.1-0.9-6.2-1.3-9.3-1.1
		c-2.6,0.2-5.2,0.7-7.4,2.3c-2.4,1.7-3.7,4.1-4.1,7c-0.6,4.3,1.3,7.4,4.5,9.8c2.6,2,5.6,3.4,8.6,4.7c2.9,1.3,6,2.4,8.7,4
		c2.3,1.4,4.5,2.7,6.3,4.7c2.9,3.1,4.7,6.7,5.5,10.9c0.3,1.6,0.2,3.3,0.1,4.9c-0.1,4.2-1.8,7.7-4.4,10.9c-3.6,4.3-8.3,6.9-13.7,8.1
		c-1.2,0.3-1.2,0.3-1.2,1.5c0,3.5,0,6.9,0,10.4c0,0.4-0.1,0.5-0.5,0.5c-2.2,0-4.5,0.1-6.7,0.1c-0.3,0-0.4-0.1-0.4-0.4
		C45.7,97.6,45.7,95.7,45.7,93.9C45.7,93.9,45.7,93.9,45.7,93.9z"/>
</g>
</svg>
