<?xml version="1.0" encoding="utf-8"?>
<!-- Generator: Adobe Illustrator 19.2.1, SVG Export Plug-In . SVG Version: 6.00 Build 0)  -->
<svg version="1.1" id="Слой_1" xmlns="http://www.w3.org/2000/svg" xmlns:xlink="http://www.w3.org/1999/xlink" x="0px" y="0px"
	 viewBox="0 0 100 100" style="enable-background:new 0 0 100 100;" xml:space="preserve">
<style type="text/css">
	.st0{fill:#808080;}
</style>
<g>
	<path class="st0" d="M20.9,60.3c0-12.4,0-24.9,0-37.3c0-1.2,0.3-1.5,1.5-1.5c18.9,0,37.9,0,56.8,0c1.2,0,1.5,0.3,1.5,1.5
		c0,24.9,0,49.8,0,74.6c0,1.2-0.3,1.5-1.5,1.5c-18.9,0-37.9,0-56.8,0c-1.2,0-1.5-0.3-1.5-1.5C20.9,85.2,20.9,72.8,20.9,60.3z
		 M35.6,61.5c0-8.7,0-17.4,0-26.1c0-1.5,0.7-3.5-0.3-4.4c-0.8-0.7-2.8-0.1-4.3-0.3c-1.2-0.1-1.5,0.3-1.5,1.5c0,18.5,0,36.9,0,55.4
		c0,1.5-0.5,3.5,0.2,4.3c0.9,1,2.9,0.1,4.4,0.3c1.3,0.2,1.4-0.4,1.4-1.5C35.5,81,35.6,71.2,35.6,61.5z M47.5,61.5
		c0,8.7,0,17.5,0,26.2c0,1.4-0.5,3.3,0.2,4.2c0.8,0.9,2.8,0.1,4.2,0.3c1.2,0.1,1.6-0.2,1.6-1.5c0-18.5,0-36.9,0-55.4
		c0-1.5,0.6-3.4-0.2-4.3c-0.9-0.9-2.9-0.2-4.4-0.3c-1.1-0.1-1.4,0.2-1.4,1.4C47.5,41.9,47.5,51.7,47.5,61.5z M65.4,61.4
		c0,9.8,0,19.5,0,29.3c0,1.3,0.4,1.7,1.6,1.5c1-0.1,2.1-0.1,3.2,0c1.1,0.1,1.3-0.4,1.3-1.4c0-19.6,0-39.2,0-58.8
		c0-1-0.2-1.4-1.2-1.3c-1.1,0.1-2.3,0.1-3.4,0c-1.2-0.1-1.4,0.3-1.4,1.4C65.4,41.9,65.4,51.6,65.4,61.4z"/>
	<path class="st0" d="M50,20.1c-11.7,0-23.4,0-35.1,0c-1.1,0-1.5-0.2-1.4-1.4c0.1-3.2,0.1-6.3,0-9.5c0-1.1,0.2-1.4,1.3-1.4
		C22.3,8,29.9,8,37.5,8c1.3,0,1.6-0.4,1.6-1.6c-0.1-1.5,0-3.1,0-4.6c0-0.8,0.2-1,1-1c6.6,0,13.3,0,19.9,0c0.8,0,1,0.2,0.9,1
		c-0.1,1.6,0.1,3.2,0,4.7C60.8,7.7,61.1,8,62.3,8C69.9,8,77.5,8,85.1,8c1.3,0,1.6,0.4,1.5,1.6c-0.1,3-0.1,6,0,9
		c0,1.2-0.2,1.6-1.5,1.6C73.4,20.1,61.7,20.1,50,20.1z M50,3.3c-1.7,0-3.4,0-5.2,0c-2.9,0-2.9,0-2.9,2.9c0,1.1,0.4,1.3,1.4,1.4
		c3.9,0.1,7.7,0.3,11.6,0.2c3.3-0.1,3.3-0.1,3.3-3.3c0-0.9-0.2-1.2-1.1-1.1C54.7,3.3,52.3,3.3,50,3.3z"/>
</g>
</svg>
