<?xml version="1.0" encoding="utf-8"?>
<!-- Generator: Adobe Illustrator 19.2.1, SVG Export Plug-In . SVG Version: 6.00 Build 0)  -->
<svg version="1.1" id="Слой_1" xmlns="http://www.w3.org/2000/svg" xmlns:xlink="http://www.w3.org/1999/xlink" x="0px" y="0px"
	 viewBox="0 0 100 100" style="enable-background:new 0 0 100 100;" xml:space="preserve">
<style type="text/css">
	.st0{fill:#070706;}
</style>
<g>
	<path class="st0" d="M68.4,1.6c0,0.9,0,1.7,0,2.5c0,0.3-0.1,0.4-0.2,0.6c-4.9,6.3-9.7,12.8-14.3,19.3c-4.7,6.6-9.3,13.3-14,20
		c-1.3,1.8-2.6,3.7-3.9,5.5c-0.2,0.3-0.3,0.6,0,1C40.5,57.4,45.2,64,50,70.7c4.6,6.4,9.3,12.8,13.8,19.4c1.3,1.9,2.6,3.8,3.9,5.7
		c0.6,0.8,0.8,1.6,0.6,2.6c-1.2-0.5-2.2-1.2-3.1-2c-2.2-1.8-3.8-4-5.3-6.3c-3.7-5.7-7.9-11.1-11.8-16.7c-2.6-3.8-5.3-7.6-7.9-11.3
		c-2.6-3.7-5.4-7.3-8.3-10.7c-0.3-0.4-0.4-1.9-0.1-2.3c5.5-6.6,10.4-13.6,15.2-20.7c3.7-5.4,7.7-10.7,11.3-16.2
		c1.6-2.4,3.2-4.8,5.1-6.9C64.9,3.8,66.5,2.6,68.4,1.6z"/>
</g>
</svg>
