<?xml version="1.0" encoding="utf-8"?>
<!-- Generator: Adobe Illustrator 19.2.1, SVG Export Plug-In . SVG Version: 6.00 Build 0)  -->
<svg version="1.1" id="Слой_1" xmlns="http://www.w3.org/2000/svg" xmlns:xlink="http://www.w3.org/1999/xlink" x="0px" y="0px"
	 viewBox="0 0 100 100" style="enable-background:new 0 0 100 100;" xml:space="preserve">
<style type="text/css">
	.st0{fill:#808080;}
	.st1{fill:#808080;}
</style>
<g>
	<path class="st0" d="M84,50.1c0,13.9,0,27.8,0,41.7c0,1.2-0.3,1.5-1.5,1.5c-17.6,0-35.2,0-52.9,0c-1.2,0-1.6-0.3-1.5-1.5
		c0.1-1,0.1-2.1,0-3.2c-0.1-1.2,0.2-1.5,1.5-1.5c8.4,0.1,16.7,0,25.1,0c7.3,0,14.6,0,21.9,0c0.9,0,1.2-0.2,1.2-1.2c0-24,0-48,0-72
		c0-1.1-0.4-1.2-1.3-1.2c-15.6,0-31.2,0-46.8,0c-1.2,0-1.7-0.2-1.5-1.5c0.1-1.1,0.1-2.3,0-3.4c-0.1-1.1,0.3-1.3,1.3-1.3
		c1.2,0.1,2.5,0,3.7,0c16.4,0,32.9,0,49.3,0C83.7,6.7,84,7,84,8.3C83.9,22.2,84,36.2,84,50.1z"/>
	<path class="st1" d="M27.6,53c2.7,2.7,5.2,5.2,7.6,7.6c1.7,1.7,3.3,3.3,5,5c0.6,0.5,0.7,0.9,0.1,1.5c-1.1,1-2.1,2-3.1,3.1
		c-0.4,0.4-0.7,0.4-1.1,0c-6.5-6.6-13.1-13.1-19.7-19.6c-0.8-0.7-0.1-1,0.3-1.4c5.6-5.6,11.2-11.2,16.8-16.9
		c0.8-0.8,1.7-1.6,2.4-2.4c0.5-0.5,0.8-0.6,1.3,0c1,1,2,2.1,3,3c0.6,0.6,0.6,0.9,0,1.5c-3.8,3.8-7.6,7.6-11.4,11.4
		c-0.3,0.3-0.7,0.5-1.2,0.9c0.8,0.5,1.3,0.3,1.7,0.3c12,0,24,0,36.1,0c1.1,0,1.4,0.2,1.3,1.3c-0.1,1.1-0.1,2.2,0,3.3
		c0.1,1.1-0.2,1.5-1.4,1.5c-12-0.1-23.9,0-35.9,0C28.9,53,28.4,53,27.6,53z"/>
</g>
</svg>
