<?xml version="1.0" encoding="utf-8"?>
<!-- Generator: Adobe Illustrator 19.2.1, SVG Export Plug-In . SVG Version: 6.00 Build 0)  -->
<svg version="1.1" id="Слой_1" xmlns="http://www.w3.org/2000/svg" xmlns:xlink="http://www.w3.org/1999/xlink" x="0px" y="0px"
	 viewBox="0 0 100 100" style="enable-background:new 0 0 100 100;" xml:space="preserve">
<style type="text/css">
	.st0{fill:#040405;}
</style>
<g>
	<path class="st0" d="M12.3,59.4c0-10,0-20.1,0-30.1c0-4.8,3.3-8.1,8.1-8.1c2.8,0,5.7,0,8.5,0c0.8,0,1-0.2,1-1c0-3.7,0-7.3,0-11
		c0-4.8,3.2-8.1,8.1-8.1c13.9,0,27.8,0,41.7,0c4.7,0,8,3.3,8,7.9c0,19,0,38,0,57.1c0,4.4-2.6,7.9-6.4,8.8c-0.5,0.1-1,0.1-1.5,0.1
		c-2.9,0-5.8,0-8.6,0c-0.9,0-1.1,0.2-1.1,1.1c0,4.6,0.1,9.3,0,13.9c0,2.7-1,5.1-3,6.9c-1.3,1.2-2.8,1.8-4.6,1.8
		c-13.9,0-27.8,0-41.7,0c-4.3,0-7.3-2.6-8.1-6.8c-0.2-0.9-0.3-1.8-0.3-2.8C12.3,79.3,12.3,69.4,12.3,59.4z M62.6,59.3
		c0-9.8,0-19.5,0-29.3c0-1-0.2-1.3-1.3-1.3c-13.4,0-26.8,0-40.2,0c-1,0-1.3,0.2-1.3,1.3c0,19.6,0,39.1,0,58.7c0,1,0.2,1.3,1.3,1.3
		c13.4,0,26.8,0,40.2,0c1.1,0,1.3-0.3,1.3-1.3C62.5,78.9,62.6,69.1,62.6,59.3z M80.1,37.5c0-9.2,0-18.4,0-27.6c0-0.7,0.2-1.3-1-1.3
		c-13.6,0.1-27.1,0-40.7,0c-1,0-1,0.4-1,1.1c0,3.4,0.1,6.8,0,10.2c0,1,0.2,1.3,1.3,1.3c7.8-0.1,15.5,0,23.3,0c4.9,0,8.1,3.2,8.1,8.2
		c0,11.9,0,23.7,0,35.6c0,0.9,0.2,1.3,1.2,1.2c2.5-0.1,5-0.1,7.5,0c1,0,1.4-0.2,1.4-1.3C80.1,55.8,80.1,46.7,80.1,37.5z"/>
</g>
</svg>
