<?xml version="1.0" encoding="utf-8"?>
<!-- Generator: Adobe Illustrator 19.2.1, SVG Export Plug-In . SVG Version: 6.00 Build 0)  -->
<svg version="1.1" id="Слой_1" xmlns="http://www.w3.org/2000/svg" xmlns:xlink="http://www.w3.org/1999/xlink" x="0px" y="0px"
	 viewBox="0 0 330 330" style="enable-background:new 0 0 330 330;" xml:space="preserve">
<style type="text/css">
	.st0{fill:#808080;}
</style>
<g>
	<path class="st0" d="M168.3,328.1c-5.6-0.2-11.9,0.3-18.2-0.3c-8-0.7-16.1-1.5-24.1-2.4c-8-1-15.9-2-23.7-3.7
		c-9.9-2.1-19.6-4.7-28.8-9.1c-8.9-4.2-17.1-9.5-24.3-16.2c-1.4-1.3-1.2-3.1-1.5-4.6c-2.5-12.2-2.7-24.6-1.6-37
		c1.1-12.5,3.4-24.9,6.6-37c2.3-8.7,6.5-16.3,13-22.6c2.7-2.6,5.7-4.8,8.7-7.1c11.3-8.7,24.7-12.5,38.1-16.1
		c5.8-1.6,11.7-2.6,17.5-3.8c0.9-0.2,1.4,0,2.1,0.5c12.4,9,26.2,13.1,41.5,12.1c11.7-0.8,22.6-4.5,32.1-11.7
		c1.2-0.9,2.2-1.1,3.6-0.8c11,2.3,22,4.7,32.6,8.3c6.3,2.1,12.3,4.7,17.9,8.2c9.7,6.1,17.9,13.8,22.7,24.5c2.4,5.4,4.1,11,5.8,16.7
		c2.6,8.8,3,17.8,3.9,26.8c0.9,9.4,0.9,18.9,1.2,28.4c0.1,3.2-0.2,6.5-1,9.6c-1.1,4.2-3.6,7.2-7,9.6c-4.2,2.9-8.5,5.7-13,8.3
		c-11.9,6.9-25,10.5-38.3,13.3c-6.1,1.3-12.2,2.3-18.4,3.1c-7.5,0.9-15.1,1.5-22.7,2.3C184.9,328.4,177,328,168.3,328.1z"/>
	<path class="st0" d="M103.6,79c0-15.1,2-28.1,6-40.9c1.2-4,2.5-7.9,4.9-11.3c3.2-4.6,7-8.5,11.4-12.1c9-7.4,19.7-10.5,31-11.9
		c12.5-1.7,25-1,37.2,2.5c5.5,1.6,10.7,3.8,15.4,7c8.7,5.9,15.6,13.2,18.7,23.5c2.6,8.7,4.7,17.5,5.7,26.6c0.7,6.4,1.2,12.8,1,19.2
		c-0.5,16.9-4.4,33-13,47.8c-1.6,2.8-3.3,5.8-5.4,8.2c-7.4,8.5-16,15.5-26.9,19.3c-6.3,2.2-12.6,3.7-19.2,4
		c-9.6,0.4-18.6-1.7-27.1-6.3c-6.6-3.6-12.5-8.1-17.7-13.7c-2.9-3.1-5.1-6.8-7.6-10.2c-4-5.5-6.8-11.6-8.9-18
		C105.2,101.2,103.4,89.4,103.6,79z"/>
</g>
</svg>
