<?xml version="1.0" encoding="utf-8"?>
<!-- Generator: Adobe Illustrator 19.2.1, SVG Export Plug-In . SVG Version: 6.00 Build 0)  -->
<svg version="1.1" id="Слой_1" xmlns="http://www.w3.org/2000/svg" xmlns:xlink="http://www.w3.org/1999/xlink" x="0px" y="0px"
	 viewBox="0 0 100 100" style="enable-background:new 0 0 100 100;" xml:space="preserve">
<style type="text/css">
	.st0{fill:#fff;}
</style>
<g>
	<path class="st0" d="M37.4,0.3c20.4,0.3,36.1,15.8,37.1,34.8c1.2,23.4-16.2,38.9-35.4,39.5c-22.5,0.8-37.6-16.4-38.6-35
		C-0.7,16.3,18.7,0.3,37.4,0.3z M37.4,9.7C22.2,10,9.6,22.2,9.8,37.9C10,53.7,22.3,65.3,37.5,65.4c16,0.1,28.2-12.8,27.9-28.5
		C65.2,21.2,52.1,9.9,37.4,9.7z"/>
	<path class="st0" d="M90.5,99.7c-2.4,0-4.4-1.1-6.2-2.5c-2.1-1.7-3.8-3.8-5.8-5.7c-4.7-4.5-9.1-9.3-13.9-13.8c-1.1-1-2.1-2-3.3-2.9
		c-0.4-0.3-0.4-0.5,0-0.8c3-2.2,5.6-4.7,8.1-7.4c1.5-1.6,3-3.3,4.3-5.1c0.3-0.4,0.5-0.4,0.8,0c3.6,3.8,7.2,7.5,11,11.1
		c3,2.9,6,5.9,8.9,9c1.2,1.2,2.4,2.4,3.4,3.8c2.1,2.7,2.1,5.8,0.7,8.8c-1.3,2.9-3.6,4.8-6.8,5.5c-0.2,0-0.5,0.1-0.7,0.1
		C90.9,99.7,90.7,99.7,90.5,99.7z"/>
</g>
</svg>
