<?xml version="1.0" encoding="utf-8"?>
<!-- Generator: Adobe Illustrator 19.2.1, SVG Export Plug-In . SVG Version: 6.00 Build 0)  -->
<svg version="1.1" id="Слой_1" xmlns="http://www.w3.org/2000/svg" xmlns:xlink="http://www.w3.org/1999/xlink" x="0px" y="0px"
	 viewBox="0 0 100 100" style="enable-background:new 0 0 100 100;" xml:space="preserve">
<style type="text/css">
	.st0{fill:#b3b3b3;}
</style>
<g>
	<path class="st0" d="M0.9,50c0-6.4,0-12.9,0-19.3c0-6.1,0-12.2,0-18.3c0-3.4,0-6.7-0.1-10.1c0-1,0.3-1.3,1.3-1.3c8,0,16,0,24.1,0
		C33.6,1,41.1,1,48.6,1c1.8,0,1.9,0,1.8,1.8c-0.1,8.4-0.1,16.9-0.3,25.3c-0.1,4.7,0,9.3-0.2,14c-0.2,5.5-0.1,11-0.3,16.5
		c-0.1,4-0.1,8-0.2,12c-0.2,7-0.3,13.9-0.5,20.9c-0.1,2.2-0.1,4.4-0.2,6.6c0,0.7-0.2,0.9-1,0.9c-7.6,0-15.3,0-22.9,0
		C17.2,99,9.6,99,2,99c-0.9,0-1.1-0.3-1.1-1.1c0-8.9,0-17.8,0-26.7C0.9,64.1,0.9,57,0.9,50z M12.3,25.5c1.8,0.1,3.4-0.4,5.1-0.9
		c0.4-0.1,0.7-0.3,0.9-0.8c0.7-2.1,1.1-4.3,0.9-6.5c-0.2-2-1.3-3.3-3.3-3.9c-1.8-0.5-3.5,0-5.3,0.1c-2,0.2-3.2,1.3-3.3,3.4
		c0,0.6-0.3,1.2-0.3,1.7C6.7,22.8,7.7,25.7,12.3,25.5z M36.8,25.5c1.8,0.1,3.4-0.4,5.1-0.9c0.4-0.1,0.7-0.3,0.9-0.8
		c0.7-2.1,1.1-4.3,0.9-6.5c-0.2-2-1.3-3.3-3.3-3.9c-1.8-0.5-3.5,0-5.3,0.2c-2.1,0.2-3.2,1.3-3.3,3.4c0,0.6-0.3,1.2-0.3,1.7
		C31.2,22.8,32.2,25.7,36.8,25.5z M12.4,50c1.7,0.1,3.3-0.4,5-0.9c0.4-0.1,0.7-0.3,0.9-0.8c0.7-2.1,1.1-4.3,0.9-6.5
		c-0.1-2-1.3-3.3-3.3-3.9c-1.8-0.5-3.5-0.1-5.3,0.1c-2,0.2-3.2,1.2-3.3,3.4c0,0.6-0.3,1.2-0.3,1.7C6.7,47.2,7.7,50.2,12.4,50z
		 M36.6,50c2,0.1,3.6-0.4,5.3-0.9c0.5-0.1,0.8-0.3,1-0.9c0.7-2.1,1.1-4.2,0.9-6.4c-0.2-1.7-0.8-3.2-2.7-3.8
		c-2.8-0.8-5.4-0.2-8.1,0.7c-0.4,0.1-0.5,0.5-0.6,0.9c-0.4,1.9-0.9,3.7-0.8,5.6c0.1,2.5,1.1,3.8,3.2,4.5C35.5,50.1,36.2,50,36.6,50z
		 M12.4,74.5c1.7,0.1,3.4-0.4,5-0.9c0.4-0.1,0.7-0.3,0.9-0.8c0.7-2.1,1.1-4.3,0.9-6.5c-0.2-2-1.3-3.3-3.3-3.9
		c-1.8-0.5-3.5-0.1-5.3,0.1c-2,0.2-3.2,1.3-3.3,3.4c0,0.6-0.3,1.2-0.3,1.7C6.7,71.7,7.7,74.6,12.4,74.5z M36.7,74.5
		c2,0,3.6-0.4,5.3-0.9c0.4-0.1,0.7-0.3,0.9-0.8c0.7-2.1,1.1-4.2,0.9-6.4c-0.1-2-1.3-3.4-3.3-4c-1.8-0.5-3.5,0-5.3,0.2
		c-2,0.2-3.2,1.2-3.2,3.3c0,0.6-0.3,1.2-0.3,1.9C31.2,71.8,32.2,74.7,36.7,74.5z"/>
	<path class="st0" d="M52.5,69.1c0-9.5,0-19,0-28.5c0-1.1,0.3-1.3,1.3-1.3c14.7,0,29.3,0,44,0c1.2,0,1.4,0.4,1.4,1.5
		c0,18.9,0,37.9,0,56.8c0,1.1-0.2,1.5-1.4,1.4c-2.3-0.1-4.6-0.1-6.9,0c-1.1,0-1.2-0.3-1.2-1.3c0-6.9,0-13.8,0-20.6
		c0-1.1-0.3-1.3-1.3-1.3c-8.2,0-16.3,0.1-24.5,0c-1.2,0-1.6,0.2-1.6,1.5c0.1,6.8,0,13.7,0.1,20.5c0,1-0.3,1.3-1.3,1.2
		c-2.5-0.1-4.9-0.1-7.4,0c-1,0-1.3-0.2-1.3-1.3C52.5,88.2,52.5,78.6,52.5,69.1z"/>
	<path class="st0" d="M75.7,33.9c-7.4,0-14.7,0-22.1,0c-1,0-1.3-0.3-1.2-1.3c0.1-1.4,0-2.7,0-4.1c0-0.6,0.2-0.9,0.8-0.8
		c0.3,0,0.7,0,1,0c14.5,0,29,0,43.5,0c1.2,0,1.5,0.3,1.4,1.5c-0.1,1.2-0.1,2.4,0,3.6c0.1,0.9-0.2,1.1-1.1,1.1c-5,0-9.9,0-14.9,0
		C80.6,33.9,78.2,33.9,75.7,33.9z"/>
</g>
</svg>
