<?xml version="1.0" encoding="utf-8"?>
<!-- Generator: Adobe Illustrator 19.2.1, SVG Export Plug-In . SVG Version: 6.00 Build 0)  -->
<svg version="1.1" id="Слой_1" xmlns="http://www.w3.org/2000/svg" xmlns:xlink="http://www.w3.org/1999/xlink" x="0px" y="0px"
	 viewBox="0 0 100 100" style="enable-background:new 0 0 100 100;" xml:space="preserve">
<style type="text/css">
	.st0{fill:#b3b3b3;}
</style>
<g>
	<path class="st0" d="M62.8,22.5c0.8-2.2,1.6-4.3,2.3-6.4c0.8-2.3,1.6-4.7,2.6-6.9c0.6-1.5,1.3-2.9,2-4.3c0.8-1.8,2.4-2.3,4-2.5
		c1.9-0.3,3.8-0.2,5.7,0c2.6,0.2,4.7,1.9,5.4,4.4c0.5,1.7,1.2,3.4,1.8,5.1c0.8,2.3,1.6,4.6,2.4,6.9c0.1,0.3,0.2,0.5,0.5,0.7
		c3.3,1.4,6.5,3,9.7,4.5c0.4,0.2,0.6,0.4,0.6,0.9c0,1.6,0,3.2,0,4.8c0,2.2,0.1,4.4,0,6.6c0,1.3,0.1,2.6,0,3.9
		c-0.1,1.3,0,2.6,0.1,3.9c0,1.3-0.1,2.6-0.1,3.9c0,1.3,0,2.6,0,3.9c0,1.2,0,2.5,0,3.7c0,1.4,0,2.9,0,4.3c0,1.3,0,2.6,0,3.9
		c0,1.2,0,2.5,0,3.7c0,1.4,0,2.9,0,4.3c0,1.3,0.1,2.6,0.1,3.9c0,1.3,0,2.6,0,3.9c0,1.3,0,2.5,0,3.8c0,1.4,0,2.8,0,4.2
		c0,1.3,0,2.5,0,3.8c0,1.5,0.1,2.9,0,4.4c0,0.4-0.2,0.5-0.5,0.6c-2,0.5-4,0.7-6,1c-1.8,0.3-3.6,0.5-5.4,0.6
		c-2.2,0.1-4.4,0.3-6.6,0.4c-3,0.1-6,0.2-9,0.2c-3,0-6-0.1-9-0.1c-2.3,0-4.6,0-6.9,0c-3.1,0-6.1,0-9.2,0c-3,0-6,0-9,0
		c-4.1,0-8.2,0.2-12.2,0.1c-3.9,0-7.8-0.1-11.8-0.3c-1.9-0.1-3.8-0.4-5.6-0.5c-1.9-0.2-3.9-0.5-5.8-0.8c-0.7-0.1-1.4-0.2-2.1-0.3
		c-0.5-0.1-0.7-0.4-0.7-0.9c0-4.1,0-8.3,0-12.4c0-4,0-7.9,0-11.9c0-4,0-7.9,0-11.9c0-4,0-7.9,0-11.9c0-4,0-7.9,0-11.9
		c0-3.2,0-6.4,0-9.6c0-0.6,0.4-0.9,0.8-1.2c1.1-0.7,2.2-1.4,3.3-2.2c1.8-1.1,3.5-2.2,5-3.7c1.1-1.1,2-2.4,2.6-3.8
		c0.6-1.3,1.2-2.7,1.8-4c0.7-1.6,1.2-3.4,2.2-5c1.4-2.3,3.1-4,6-4.4c2.7-0.3,5.1,0.1,7.2,1.7c0.6,0.5,1.1,1.1,1.6,1.7
		c1.2,1.7,2.1,3.6,2.8,5.6c0.9,2.8,1.6,5.7,2.6,8.5c0.4,1,0.7,2.1,1.3,3.1c0.6-1.1,0.9-2.2,1.2-3.4c0.5-2.5,1-4.9,1.6-7.4
		c0.7-2.5,1.4-5.1,3.2-7.1c1.3-1.5,2.8-2.4,4.8-2.8c2-0.3,4-0.3,5.9,0.6c1.5,0.6,2.7,1.7,3.6,3c1.6,2.5,2.4,5.3,3,8.2
		c0.6,2.7,1.1,5.4,1.8,8C62.4,21.9,62.5,22.2,62.8,22.5z M27,21.6c0-1.3,0.1-2.6,0-3.9c-0.1-0.9,0.1-1.9,0.1-2.8c0-1.4,0-2.9,0-4.3
		c0-0.5-0.1-0.9-0.7-0.7c-0.4,0.1-0.9,0-1.3,0c-1.4-0.1-2.9,0-4.3-0.1c-0.6,0-0.7,0.2-0.6,0.7c0.1,0.9,0.2,1.8,0.1,2.7
		c-0.2,2-0.3,4-0.4,6c-0.2,3.3,0,6.7,0,10c-0.2,0.6,0,0.9,0.6,0.8c0.7-0.1,1.4,0.1,2.1-0.1c0.3,0,0.6,0,1,0c0.8,0,1.7,0,2.5,0.1
		c0.8,0.1,1.1-0.2,1.1-1c-0.1-2.1,0-4.1,0-6.2C27.1,22.4,27.3,22,27,21.6z M93.1,67.4c0-1.7,0-3.3,0-5c0-3.1,0-6.3,0-9.4
		c0-3,0-5.9,0-8.9c0-0.8-0.3-1.1-1.1-1.1c-3,0-6.1,0-9.1,0c-4,0-8-0.1-12-0.1c-1.1,0-2.2-0.2-3.3-0.1c-1.3,0.1-2.6,0-3.9,0
		c-1.4,0-2.8,0-4.2,0c-2.2-0.1-4.4,0-6.6,0c-3.1,0-6.3,0-9.4,0c-2,0-4.1,0-6.1,0.1c-1.4,0.1-2.8-0.1-4.2,0c-1.3,0.1-2.6,0-3.9,0.1
		c-1.3,0.1-2.7,0-4,0c-3.9,0.1-7.8,0-11.7,0.2c-1.9,0.1-3.9,0-5.8,0c-0.4,0-0.6,0.1-0.5,0.5c0.2,1.1-0.1,2.2,0,3.3
		c0.1,1.1,0,2.2,0,3.3c0,1.3-0.2,2.6-0.1,3.9c0.1,1.2,0,2.4,0,3.6c0.1,2.4,0,4.8,0,7.2c0,3.1,0,6.1,0,9.2c0,3,0,6,0,9
		c0,2.2,0.1,4.3,0.1,6.5c0,1.7-0.1,1.7,1.7,1.7c3,0.1,6,0.1,9,0.2c2.6,0,5.3,0,7.9,0.1c2.6,0.1,5.3,0.1,7.9,0.1c2.6,0,5.3,0,7.9,0
		c2.3,0,4.7,0.1,7,0.1c2.2,0,4.4,0,6.6-0.1c3.2,0,6.4,0,9.6,0c2.9,0,5.8,0,8.6-0.1c2.4,0,4.8-0.1,7.2-0.1c2.1,0,4.1,0,6.2-0.1
		c1.9,0,3.8-0.1,5.7-0.1c0.4,0,0.5-0.1,0.5-0.5c0-2.5,0-4.9,0-7.4c0-3.1,0-6.3,0-9.4C93.1,71.7,93.1,69.6,93.1,67.4z M80.5,20.1
		c0-0.9,0-1.8,0-2.7c0-2.2,0-4.5,0-6.7c0-1.1-0.4-1.4-1.5-1.2c-0.3,0.1-0.6,0.1-0.9,0.1c-1.5,0.1-3,0.2-4.5,0.3
		c-0.4,0-0.4,0.2-0.5,0.5c-0.2,0.8,0,1.6,0,2.4c-0.2,2.4,0,4.7,0,7.1c0,3.2,0.5,6.3,0.4,9.5c0,0.6,0.2,0.8,0.8,0.8
		c1.8,0,3.7,0,5.5,0c0.6,0,0.8-0.2,0.8-0.8C80.5,26.3,80.5,23.2,80.5,20.1z M53.4,16.9c0-2.4,0-4.6,0-6.8c0-0.8-0.2-1.1-1-1
		c-1.7,0.1-3.4,0-5.1,0c-0.4,0-0.5,0.1-0.5,0.5c0,1.1,0,2.2-0.1,3.4c-0.1,3.3-0.1,6.5-0.1,9.8c0,2.2,0,4.4,0,6.7
		c0,0.6,0.2,0.9,0.8,0.7c0.3-0.1,0.7-0.1,1.1,0c1.3,0.2,2.6-0.1,3.8,0.1c0.5,0.1,0.8-0.2,0.8-0.8c0-1.6,0-3.2,0.1-4.8
		C53.5,21.9,53.4,19.3,53.4,16.9z"/>
</g>
</svg>
