<?xml version="1.0" encoding="utf-8"?>
<!-- Generator: Adobe Illustrator 19.2.1, SVG Export Plug-In . SVG Version: 6.00 Build 0)  -->
<svg version="1.1" id="Слой_1" xmlns="http://www.w3.org/2000/svg" xmlns:xlink="http://www.w3.org/1999/xlink" x="0px" y="0px"
	 viewBox="0 0 100 100" style="enable-background:new 0 0 100 100;" xml:space="preserve">
<style type="text/css">
	.st0{fill:#28A2D2;}
</style>
<g>
	<path class="st0" d="M19.4,34.2c4.2,0,7.7,1.2,10.6,3.7c0.8,0.7,1.4,0.7,2.3,0.2c5.1-2.6,10-5.4,14.9-8.2
		c5.3-3.1,10.6-6.3,15.7-9.7c0.2-0.1,0.4-0.3,0.7-0.4c1.6-0.9,2.3-2,2.2-4.1C65.2,6.2,74.1-0.6,83,0.8c6.1,1,10.5,4.3,12.4,10.3
		c2.5,7.5-2.3,15.6-10.4,17.9c-4.6,1.3-9,0.5-13-2.1c-0.8-0.5-1.3-0.5-2.2,0c-2.5,1.5-5,2.8-7.5,4.2c-9,5-17.6,10.5-26.1,16.3
		c-0.6,0.4-0.8,0.9-0.8,1.6c0.1,1,0.1,2-0.2,3c-0.2,0.6,0.1,1,0.6,1.4c6.9,4.7,13.8,9.4,21,13.6c3.8,2.2,7.8,4.3,11.7,6.5
		c1.2,0.6,2,0.7,3.2-0.1c6.1-4.3,14.2-3.7,19.6,1c5.8,5,6.4,14,1.2,19.7c-6.4,7.1-17.4,7-23.6-0.3c-2-2.3-2.9-5-3.3-8
		c-0.2-1.8-1-3.4-2.5-4.6c-6.4-4.7-13-9.2-20.3-12.6c-5.3-2.5-10.8-4.2-16.6-5c-0.4-0.1-0.8-0.1-1.2,0.1c-3.2,1.2-6.5,0.8-9.8,0.4
		c-3.8-0.4-6-2.8-8-5.4c-2.3-3-3.5-6.4-3.3-10.3c0.5-7.5,6.5-13,12.9-14C17.8,34.4,18.7,34.1,19.4,34.2z"/>
</g>
</svg>
