<?xml version="1.0" encoding="utf-8"?>
<!-- Generator: Adobe Illustrator 19.2.1, SVG Export Plug-In . SVG Version: 6.00 Build 0)  -->
<svg version="1.1" id="Слой_1" xmlns="http://www.w3.org/2000/svg" xmlns:xlink="http://www.w3.org/1999/xlink" x="0px" y="0px"
	 viewBox="0 0 100 100" style="enable-background:new 0 0 100 100;" xml:space="preserve">
	 <style>
	 	.st0{
			fill: #fff;
	 	}
	 </style>
<g>
	<path class="st0" d="M99.7,40.1c0.1,2.1-0.8,3.7-2.2,5.1c-2.8,2.8-5.6,5.7-8.4,8.4c-3.4,3.2-6.5,6.6-9.8,9.9c-0.6,0.6-0.4,1.3-0.2,2
		c0.6,2.7,1,5.4,1.5,8.1c0.3,2,0.8,4.1,1,6.1c0.3,2,0.7,4,1,6.1c0.3,2.2,0.6,4.4,0.5,6.7c0,0.8-0.3,1.5-0.8,2.2
		c-1.6,2.2-3.6,3.7-6.5,3.7c-0.7,0-1.4-0.2-2.1-0.5c-3.8-1.7-7.5-3.7-11.1-5.7c-3.8-2.1-7.6-4.3-11.5-6.2c-0.7-0.4-1.4-0.3-2.2,0
		c-4,1.8-7.7,4-11.5,6.1c-2.8,1.6-5.7,3.1-8.6,4.5c-1.2,0.5-2.3,1.2-3.5,1.5c-2.3,0.5-4.2-0.2-6-1.6c-1.3-1.1-2.2-2.4-2.5-4
		c-0.2-1.1,0-2.2,0.1-3.3c0.4-2.3,0.7-4.6,1.1-6.9c0.5-2.9,0.9-5.8,1.5-8.7c0.3-1.5,0.5-3,0.8-4.5c0.3-1.6,0.5-3.2,0.8-4.8
		c0.1-0.3-0.1-0.5-0.3-0.7c-1.9-2-3.8-3.9-5.7-5.9C10.8,53.3,6.6,49,2.3,44.8c-2.1-2.1-2.5-4.5-1.5-7.3c1-2.6,2.9-4,5.6-4.4
		c1-0.1,1.9-0.4,2.9-0.6c2.6-0.4,5.3-0.9,7.9-1.2c2-0.3,4-0.6,6.1-0.8c1.8-0.2,3.5-0.6,5.3-0.8c1.1-0.1,2.2-0.4,3.3-0.7
		c0.4-0.1,0.5-0.4,0.7-0.7c1.1-2.3,2.3-4.6,3.4-7c2.3-4.9,4.6-9.8,7.1-14.6c0.6-1.1,1.1-2.3,2.1-3.1c1.3-1.1,2.7-1.8,4.4-1.9
		c3.1-0.1,5.4,1.4,6.8,4.2c1.4,2.7,2.9,5.5,4.2,8.2c2.3,4.7,4.5,9.5,6.8,14.2c0.2,0.4,0.4,0.7,0.9,0.8c2,0.4,4.1,0.6,6.2,1
		c1.6,0.2,3.2,0.4,4.8,0.7c1,0.2,2,0.3,3,0.4c1.2,0.1,2.4,0.5,3.6,0.6c1.4,0.1,2.7,0.4,4.1,0.6c1.8,0.3,3.7,0.5,5.4,1.2
		c2.4,0.9,3.9,2.7,4.4,5.2C99.7,39.2,99.7,39.6,99.7,40.1z"/>
</g>
</svg>
