<?xml version="1.0" encoding="utf-8"?>
<!-- Generator: Adobe Illustrator 19.2.1, SVG Export Plug-In . SVG Version: 6.00 Build 0)  -->
<svg version="1.1" id="Слой_1" xmlns="http://www.w3.org/2000/svg" xmlns:xlink="http://www.w3.org/1999/xlink" x="0px" y="0px"
	 viewBox="0 0 330 330" style="enable-background:new 0 0 330 330;" xml:space="preserve">
<style type="text/css">
	.st0{fill:#10a5d8;}
</style>
<g>
	<path class="st0" d="M164.3,2.3c45.2,0,90.3,0,135.5,0c1.2,0,2,0.5,2.8,1.2c5.8,5,7.7,11.6,7.6,18.9c0,2-0.1,4-0.4,5.9
		C308.4,35.1,304,39.1,297,40c-5.9,0.8-11.8,0.1-17.7,0.7c-1.6,0.2-2.2,0.7-2.3,2.3c-1.3,20.5-5.3,40.4-12.4,59.6
		c-6.6,17.7-15.7,33.9-27.9,48.3c-3.4,4-7.1,7.8-10.9,11.4c-1,0.9-0.9,1.3,0,2.1c11,10.5,20.1,22.5,27.6,35.7
		c6.3,11.2,11.3,23,15.2,35.3c3.3,10.5,5.6,21.3,7.2,32.2c0.9,6.5,1.5,13.1,1.8,19.7c0.1,1.6,0.4,2.1,2.1,2.2
		c6.7,0.3,13.5,0.7,20.2,1.7c4.8,0.8,7.7,3.7,9,8.3c0.9,3.3,1,6.7,1.2,10.1c0,0.8-0.1,1.6,0.1,2.3c1.4,4.7-0.9,7.8-3.9,11
		c-4.1,4.4-4,4.5-10,4.5c-33.2,0-66.4,0-99.6,0c-33.1,0-66.1,0-99.2,0c-21.3,0-42.6-0.2-63.9,0.1c-4.6,0.1-7.3-1.9-9.7-5.2
		c-2.5-3.3-3.6-7.1-3.9-11.1c-0.4-4.1-0.1-8.3,1.1-12.3c1.3-4.3,4.9-6.1,8.7-7.5c3.9-1.5,8.1-1.5,12.2-1.7c3.1-0.1,6.1-0.3,9.2-0.5
		c1.4-0.1,1.8-0.5,1.8-1.9c0.9-21.2,4.7-41.9,12.1-61.8c7-19,16.9-36.4,30.2-51.8c2.9-3.3,5.9-6.6,9.1-9.6c0.9-0.8,1.1-1.3,0-2.3
		c-10.9-10-19.8-21.6-27.1-34.4c-6.8-11.9-12-24.6-15.9-37.8c-3.8-12.8-6.1-26-7.5-39.3c-0.3-2.5-0.5-5.1-0.5-7.7
		c0-1.6-0.5-2.2-2.2-2.3c-4.3-0.4-8.7-0.2-13-0.4c-4.4-0.2-8.8-0.7-12.6-3.3c-4.2-2.8-5.3-7-5.6-11.6c-0.5-7.8,1.4-14.9,6.1-21.3
		c1-1.4,2.1-1.9,3.9-1.9c28.6,0.1,57.1,0,85.7,0C131.7,2.3,148,2.3,164.3,2.3z M165.1,290.2C165.1,290.2,165.1,290.2,165.1,290.2
		c17,0,34,0,51.1,0c11.6,0,23.2-0.1,34.8-0.1c1.2,0,2.2,0.1,2-1.8c-1.3-15.2-3.7-30.3-8.4-44.9c-6.9-21.2-17.4-40.1-34.6-54.8
		c-5.6-4.8-11.6-8.9-18.4-11.9c-3.8-1.7-6.5-4.4-8.2-8.1c-3.3-7.2-0.2-14.6,7-17.5c2-0.8,4-1.9,5.9-3c16.2-9.1,28-22.4,36.9-38.4
		c11.7-21.1,17.1-44,19.7-67.8c0.1-1.2-0.2-1.6-1.5-1.6c-11.3,0-22.6,0-34,0c-26.4,0-52.7,0-79.1,0c-19.8,0-39.6-0.1-59.4,0.2
		c-2.6,0-2.3,1.4-2.1,2.9c0.8,5.5,1.5,11,2.5,16.4c3.7,20.1,10,39.3,21.2,56.6c4.3,6.6,9,12.8,14.7,18.2c4.5,4.3,9.7,7.4,14.9,10.7
		c5.6,3.6,11.2,7.2,15.9,12.1c1.6,1.7,2.3,3.6,2,5.8c-0.4,3-1.5,5.6-3.5,7.8c-3.1,3.5-7.2,5.8-11.2,8.1c-17.1,9.9-30,23.8-39,41.3
		c-6.9,13.3-11.3,27.4-14.1,42c-1.6,8.6-2.6,17.3-3.1,26c-0.1,1.3,0.3,1.7,1.6,1.7c7-0.1,13.9-0.2,20.9-0.2
		C121.7,290.2,143.4,290.2,165.1,290.2z"/>
	<path class="st0" d="M228.6,277.3c-6,0-11.8,0-17.6,0c-8.5,0-17.1,0.1-25.6,0.1c-8,0-15.9-0.1-23.9-0.1c-9.8,0-19.5,0-29.3,0
		c-7.1,0-14.2-0.1-21.4,0c-1.9,0-1.5-1-1.3-2c1.3-6.5,3.6-12.6,7.1-18.2c10.5-16.9,25.4-27.7,45.2-30.6c15.6-2.3,29.7,2.2,42,12
		c12,9.5,19.7,21.9,24.2,36.4c0.1,0.4,0.2,0.8,0.3,1.2C228.4,276.4,228.5,276.7,228.6,277.3z"/>
	<path class="st0" d="M210,122.1c-2.7,2.5-5.4,4.4-8,6.3c-7.2,5.2-14.7,9.8-23.4,11.9c-15.2,3.6-29.7,1.6-43.2-6.7
		c-4.9-3-9.5-6.4-13.9-10.2c-0.4-0.3-1-0.6-1.1-1.4C150.2,121.5,179.9,121.5,210,122.1z"/>
</g>
</svg>
