<?xml version="1.0" encoding="utf-8"?>
<!-- Generator: Adobe Illustrator 19.2.1, SVG Export Plug-In . SVG Version: 6.00 Build 0)  -->
<svg version="1.1" id="Слой_1" xmlns="http://www.w3.org/2000/svg" xmlns:xlink="http://www.w3.org/1999/xlink" x="0px" y="0px"
	 viewBox="0 0 330 330" style="enable-background:new 0 0 330 330;" xml:space="preserve">
<style type="text/css">
	.st0{fill:#fff;}
</style>
<g>
	<path class="st0" d="M174.6,1c37.5,0.8,77.6,17.7,109.8,51.6c31.7,33.5,46.6,74.1,44.3,120.2c-4.4,90.5-78.7,158.6-168.8,156.2
		C72.2,326.7-3.6,253.2,1.3,156.2C5.8,66.4,80.9,0.6,174.6,1z M126.4,103.9c2.2,2.7,4.7,4.7,7,6.9c1.6,1.5,3,3.1,4.3,4.8
		c1.5,2,2.5,4.3,2.4,6.8c-0.2,8.8,1.5,17.7,0.5,26.5c-0.6,5.3-2.1,10.2-5.8,14.3c-0.9,0.9-1.5,1.2-2.6,0.3c-3.2-2.5-6.3-5.2-9-8.3
		c-6.3-7.3-10.7-15.7-15-24.3c-3.8-7.7-7.5-15.5-12.2-22.7c-0.7-1.1-1.5-1.9-3-2.2c-4.3-1-8.7-1.8-13.1-2.2
		c-9.7-0.8-19.2-0.2-28.5,2.9c-1.3,0.5-1.6,0.9-1.1,2.3c2.6,7.5,5.5,14.9,8.9,22.1c8.8,18.8,20,36.2,31.1,53.7
		c8.1,12.7,18.1,23.3,30.8,31.5c15.9,10.3,33.2,15.3,52.2,14.1c6.5-0.4,8.2-1.2,10.9-8.5c1-2.6,1.2-5.4,1.7-8.2
		c0.6-4.1,1.3-8.2,3.5-11.9c0.7-1.3,1.7-1.8,3.1-1.5c3.8,0.6,7.3,2.1,10.4,4.4c4.5,3.4,8,7.9,11.7,12.1c4.1,4.6,8.3,9.1,14.2,11.3
		c4.8,1.8,10,2.1,15,2.4c10.5,0.6,21,0.1,31.5-0.3c0.7,0,1.1-0.2,1.6-0.8c4.6-6.4,4.6-7.4,0.5-14.2c-0.3-0.4-0.5-0.8-0.8-1.3
		c-5.2-7.9-12-14.5-18.8-21c-5.4-5.2-10.6-10.5-15.1-16.6c-0.8-1-1-1.8-0.4-3.1c1.2-2.6,2.4-5,3.8-7.5c5.1-8.6,11.6-16.2,17.7-24.1
		c7.3-9.4,13.7-19.3,15.6-31.4c0.2-1.4-0.1-2.1-1.3-2.6c-6.5-3.1-13.4-4.1-20.5-4.3c-9.3-0.2-18.5,1.2-27.6,2.7
		c-1.2,0.2-1.8,0.8-2.4,1.8c-5.3,10-9.8,20.4-15.4,30.2c-5,8.9-10.8,17.3-18.4,24.3c-2.2,2-2.3,2-4.3-0.2c-3.8-4.1-5.4-9.1-5.8-14.5
		c-0.6-8.3,0.8-16.5,1-24.8c0.2-4.9,0-9.8-1.8-14.4c-1.8-4.5-3.9-7.8-9.8-8.2c-11.1-0.7-22.1-1.8-33.1-0.1
		C135.4,100.7,130.8,101.9,126.4,103.9z"/>
</g>
</svg>
