<?xml version="1.0" standalone="no"?>
<!DOCTYPE svg PUBLIC "-//W3C//DTD SVG 1.1//EN" "http://www.w3.org/Graphics/SVG/1.1/DTD/svg11.dtd" >
<svg>
<metadata>
Created by FontForge 20090622 at Mon Mar  7 20:31:49 2016
 By deploy user
Copyright 2015 &#194;&#169; The Monotype Corporation. All rights reserved.
</metadata>
<defs>
<font id="JoannaSansNova-Regular" horiz-adv-x="520" >
  <font-face 
    font-family="Joanna Sans Nova Regular"
    font-weight="400"
    font-stretch="normal"
    units-per-em="1000"
    panose-1="2 12 4 3 2 2 3 2 2 4"
    ascent="730"
    descent="-270"
    x-height="471"
    cap-height="692"
    bbox="-437 -272 1037 1044"
    underline-thickness="50"
    underline-position="-75"
    unicode-range="U+000D-U+FEFF"
  />
<missing-glyph horiz-adv-x="546" 
d="M516 0h-486v730h486v-730zM100 660v-590h346v590h-346z" />
    <glyph glyph-name="IJ" unicode="IJ" horiz-adv-x="486" 
d="M161 0h-80v692h80v-692zM190 -195l-23 65q85 9 121.5 56.5t36.5 143.5v622h80v-615q0 -123 -48 -192.5t-167 -79.5z" />
    <glyph glyph-name="ij" unicode="ij" horiz-adv-x="466" 
d="M154 0h-76v471h76v-471zM166 633q0 -21 -14.5 -35.5t-35.5 -14.5t-35.5 14.5t-14.5 35.5q0 20 14.5 34.5t35.5 14.5t35.5 -14.5t14.5 -34.5zM388 -26q0 -97 -30 -152.5t-107 -91.5l-31 52l19.5 13t25.5 20t22 26.5t19 43.5t6 60v526h76v-497zM400 633q0 -21 -14.5 -35.5
t-35.5 -14.5t-35.5 14.5t-14.5 35.5q0 20 14.5 34.5t35.5 14.5t35.5 -14.5t14.5 -34.5z" />
    <glyph glyph-name="f_f" unicode="ff" horiz-adv-x="600" 
d="M648 714l-24 -64q-33 11 -60 11q-24 0 -41 -10t-26 -24t-14 -37.5t-6 -42t-1 -46.5v-30h123l-12 -59h-111v-412h-76v412h-224v-412h-76v412h-79v59h79v51q0 194 158 194q45 0 90 -16l-24 -64q-27 11 -60 11q-24 0 -41 -9t-26 -21.5t-14 -34t-6 -38.5t-1 -43v-30h224v58
q0 201 158 201q45 0 90 -16z" />
    <glyph glyph-name="f_f_i" unicode="ffi" horiz-adv-x="832" 
d="M721 685l-42 -57q-45 33 -92 33q-36 0 -60 -13.5t-34 -39t-13.5 -49.5t-3.5 -58v-30h123l-12 -59h-111v-412h-76v412h-224v-412h-76v412h-79v59h79v51q0 194 158 194q45 0 90 -16l-24 -64q-27 11 -60 11q-24 0 -41 -9t-26 -21.5t-14 -34t-6 -38.5t-1 -43v-30h224v49
q0 103 48.5 156.5t134.5 53.5q75 0 138 -45zM754 0h-76v471h76v-471z" />
    <glyph glyph-name="f_f_l" unicode="ffl" horiz-adv-x="828" 
d="M176 471h224v49q0 103 48.5 156.5t134.5 53.5q47 0 93 -13l76 13v-730h-76v646q-43 15 -89 15q-36 0 -60 -13.5t-34 -39t-13.5 -49.5t-3.5 -58v-30h123l-12 -59h-111v-412h-76v412h-224v-412h-76v412h-79v59h79v51q0 194 158 194q45 0 90 -16l-24 -64q-27 11 -60 11
q-24 0 -41 -9t-26 -21.5t-14 -34t-6 -38.5t-1 -43v-30z" />
    <glyph glyph-name="f_j" unicode="fj" horiz-adv-x="534" 
d="M421 685l-42 -57q-45 33 -92 33q-36 0 -60 -13.5t-34 -39t-13.5 -49.5t-3.5 -58v-30h123l-12 -59h-111v-412h-76v412h-79v59h79v49q0 103 48.5 156.5t134.5 53.5q75 0 138 -45zM456 -26q0 -97 -30 -152.5t-107 -91.5l-31 52l19.5 13t25.5 20t22 26.5t19 43.5t6 60v526h76
v-497z" />
    <glyph glyph-name="f_t" unicode="ft" horiz-adv-x="638" 
d="M594 83l30 -53q-52 -41 -112 -41q-62 0 -94 32.5t-32 109.5v281h-210v-412h-76v412h-79v59h79v58q0 201 158 201q45 0 90 -16l-24 -64q-33 11 -60 11q-24 0 -41 -10t-26 -24t-14 -37.5t-6 -42t-1 -46.5v-30h210v127l76 8v-135h145l-12 -59h-133v-258q0 -52 15 -75t48 -23
q34 0 69 27z" />
    <glyph glyph-name=".notdef" horiz-adv-x="546" 
d="M516 0h-486v730h486v-730zM100 660v-590h346v590h-346z" />
    <glyph glyph-name=".null" horiz-adv-x="0" 
 />
    <glyph glyph-name=".null" horiz-adv-x="0" 
 />
    <glyph glyph-name="nonmarkingreturn" horiz-adv-x="333" 
 />
    <glyph glyph-name="CR" unicode="&#xd;" horiz-adv-x="0" 
 />
    <glyph glyph-name="space" unicode=" " horiz-adv-x="300" 
 />
    <glyph glyph-name="exclam" unicode="!" horiz-adv-x="259" 
d="M83 692h93l-21 -496h-52zM183 48q0 -23 -15.5 -39t-37.5 -16t-38 16t-16 39q0 22 16 37.5t38 15.5t37.5 -15.5t15.5 -37.5z" />
    <glyph glyph-name="quotedbl" unicode="&#x22;" horiz-adv-x="324" 
d="M42 730h85l-19 -220h-46zM197 730h85l-19 -220h-46z" />
    <glyph glyph-name="numbersign" unicode="#" horiz-adv-x="637" 
d="M397 453h-116l-42 -207h114zM550 181h-144l-41 -195h-65l40 195h-116l-40 -195h-66l41 195h-112v65h126l43 207h-129v66h142l39 187h66l-39 -187h115l39 187h65l-38 -187h114v-66h-127l-44 -207h131v-65z" />
    <glyph glyph-name="dollar" unicode="$" 
d="M68 71l29 65q71 -37 139 -42v233q-39 21 -62.5 35.5t-51.5 38.5t-41.5 53t-13.5 64q0 65 47.5 103.5t121.5 46.5v62h50v-60q77 -3 147 -33l-26 -65q-58 27 -121 30v-217q5 -3 26.5 -14l28 -14.5t25 -14.5t25.5 -17.5t21 -18t19.5 -22t13.5 -24.5t10.5 -29.5t2.5 -33.5
q0 -68 -46.5 -116t-125.5 -55v-90h-50v89q-94 4 -168 46zM380 193q0 31 -23 55t-71 52v-204q42 6 68 30.5t26 66.5zM144 518q0 -32 21 -55t71 -51v187q-92 -11 -92 -81z" />
    <glyph glyph-name="percent" unicode="%" horiz-adv-x="744" 
d="M247 515q0 132 -73 132q-70 0 -70 -132q0 -135 70 -135q73 0 73 135zM313 515q0 -87 -37.5 -137.5t-101.5 -50.5q-63 0 -100 50.5t-37 137.5q0 86 37 136.5t100 50.5q64 0 101.5 -50.5t37.5 -136.5zM639 178q0 134 -71 134q-70 0 -70 -134t70 -134q71 0 71 134zM707 178
q0 -86 -38 -137t-101 -51t-100 51t-37 137t37 136.5t100 50.5t101 -50.5t38 -136.5zM611 692l-415 -692h-63l415 692h63z" />
    <glyph glyph-name="ampersand" unicode="&#x26;" horiz-adv-x="738" 
d="M727 72l13 -61q-33 -18 -73 -18q-47 0 -90 21t-101 75q-97 -100 -217 -100q-97 0 -155 52.5t-58 130.5q0 76 41 125t114 93q-72 92 -72 161q0 65 44 103t116 38q68 0 111 -37.5t43 -93.5q0 -54 -35.5 -93t-103.5 -83l170 -189q58 89 85 200l70 -15q-36 -136 -106 -234
q88 -82 157 -82q25 0 47 7zM271 59q83 0 157 79l-187 206q-54 -38 -83.5 -75.5t-29.5 -86.5q0 -58 37 -90.5t106 -32.5zM203 552q0 -50 62 -124q52 32 78.5 61t26.5 69q0 31 -21.5 52.5t-60.5 21.5q-37 0 -61 -22t-24 -58z" />
    <glyph glyph-name="quotesingle" unicode="'" horiz-adv-x="169" 
d="M42 730h85l-19 -220h-46z" />
    <glyph glyph-name="parenleft" unicode="(" horiz-adv-x="374" 
d="M362 -188l-26 -46q-132 79 -206 207t-74 271q0 319 280 487l27 -45q-119 -86 -171 -196t-52 -253q0 -139 52 -238t170 -187z" />
    <glyph glyph-name="parenright" unicode=")" horiz-adv-x="374" 
d="M38 -234l-26 46q118 88 170 187t52 238q0 143 -52 253t-171 196l27 45q280 -168 280 -487q0 -143 -74 -271t-206 -207z" />
    <glyph glyph-name="asterisk" unicode="*" horiz-adv-x="490" 
d="M86 656l132 -85l-5 159h61l-5 -161l134 87l32 -52l-151 -77l151 -77l-31 -52l-135 87l5 -161h-61l5 159l-133 -85l-30 52l150 77l-150 77z" />
    <glyph glyph-name="plus" unicode="+" 
d="M295 552v-182h171v-67h-171v-182h-67v182h-173v67h173v182h67z" />
    <glyph glyph-name="comma" unicode="," horiz-adv-x="289" 
d="M128 -142l-40 31q33 44 33 90q0 41 -24 75q0 22 15.5 34.5t33.5 12.5q28 0 42 -16.5t14 -42.5q0 -49 -23 -100t-51 -84z" />
    <glyph glyph-name="hyphen" unicode="-" horiz-adv-x="298" 
d="M274 271v-62h-251v62h251z" />
    <glyph glyph-name="period" unicode="." horiz-adv-x="289" 
d="M199 48q0 -22 -16 -38.5t-38 -16.5q-23 0 -38.5 16t-15.5 39q0 22 15.5 37.5t38.5 15.5q22 0 38 -15.5t16 -37.5z" />
    <glyph glyph-name="slash" unicode="/" horiz-adv-x="386" 
d="M63 -150h-73l305 880h72z" />
    <glyph glyph-name="zero" unicode="0" 
d="M392 345q0 152 -32 222.5t-103 70.5q-128 0 -128 -293q0 -153 32.5 -222t101.5 -69q129 0 129 291zM472 346q0 -170 -55.5 -263t-156.5 -93q-59 0 -102.5 31.5t-66 85.5t-33 113t-10.5 126q0 51 5 96.5t19 94.5t37 84.5t61.5 58t89.5 22.5q105 0 158.5 -96t53.5 -260z
" />
    <glyph glyph-name="one" unicode="1" horiz-adv-x="346" 
d="M265 0h-76v595l-152 -78l-23 59l246 122h5v-698z" />
    <glyph glyph-name="two" unicode="2" 
d="M88 589l-32 56q83 57 186 57q91 0 141 -50.5t50 -130.5q0 -44 -16.5 -93.5t-36 -87.5t-61.5 -96t-65.5 -87l-75.5 -92h292v-65h-425v8l137 163.5t91.5 124t62.5 118t17 103.5q0 61 -32.5 91t-87.5 30q-76 0 -145 -49z" />
    <glyph glyph-name="three" unicode="3" 
d="M49 46l35 58q69 -49 157 -49q61 0 102.5 37.5t41.5 104.5q0 152 -237 152v27l181 251h-248v65h372v-6l-205 -282q105 -10 161 -64t56 -137q0 -93 -60 -153t-161 -60q-125 0 -195 56z" />
    <glyph glyph-name="four" unicode="4" 
d="M301 272v257l-187 -257h187zM495 209h-119v-209h-75v209h-278v39l330 448h23v-424h119v-63z" />
    <glyph glyph-name="five" unicode="5" 
d="M42 38l32 62q80 -45 155 -45q60 0 101 36t41 107q0 153 -269 157l11 337h324l-11 -65h-245l-7 -215q277 -12 277 -214q0 -92 -60.5 -150t-162.5 -58q-112 0 -186 48z" />
    <glyph glyph-name="six" unicode="6" 
d="M408 202q0 66 -37.5 102t-102.5 36q-68 0 -104 -35.5t-36 -84.5q0 -68 40 -117t109 -49q61 0 96 41t35 107zM489 202q0 -91 -59 -151.5t-152 -60.5q-108 0 -170 67.5t-62 195.5q0 99 40 190t127.5 164t208.5 99l23 -60q-132 -36 -210.5 -114t-101.5 -187q26 27 68.5 43.5
t87.5 16.5q89 0 144.5 -55.5t55.5 -147.5z" />
    <glyph glyph-name="seven" unicode="7" horiz-adv-x="510" 
d="M482 681l-299 -690l-77 14l277 622h-354v65h453v-11z" />
    <glyph glyph-name="eight" unicode="8" 
d="M455 542q0 -59 -35.5 -101t-98.5 -80q71 -40 110 -81t39 -105q0 -83 -54.5 -134t-152.5 -51q-91 0 -152 49.5t-61 123.5q0 65 37.5 107.5t105.5 82.5q-60 35 -94 76.5t-34 104.5q0 74 52.5 121t143.5 47q89 0 141.5 -45t52.5 -115zM394 161q0 28 -10.5 51t-34 43t-43 33
t-54.5 32q-61 -36 -93.5 -70t-32.5 -80q0 -55 41.5 -86.5t103.5 -31.5q52 0 87.5 32t35.5 77zM137 542q0 -49 32 -82.5t93 -66.5q57 33 87 66t30 80q0 102 -124 102q-51 0 -84.5 -27.5t-33.5 -71.5z" />
    <glyph glyph-name="nine" unicode="9" 
d="M119 490q0 -67 34.5 -104t97.5 -37q68 0 108 37t40 86q0 68 -40 117.5t-109 49.5q-61 0 -96 -41.5t-35 -107.5zM38 490q0 92 58 152.5t154 60.5q105 0 168 -68.5t63 -197.5q0 -73 -21 -143t-62 -132.5t-109 -109t-154 -66.5l-22 60q121 36 192.5 116.5t89.5 189.5
q-60 -67 -158 -67q-89 0 -144 56.5t-55 148.5z" />
    <glyph glyph-name="colon" unicode=":" horiz-adv-x="289" 
d="M199 47q0 -22 -15.5 -38t-37.5 -16q-23 0 -39 16t-16 38t16 37.5t39 15.5q22 0 37.5 -15.5t15.5 -37.5zM199 417q0 -22 -15.5 -38t-37.5 -16t-38.5 16t-16.5 38q0 23 16 38.5t39 15.5q22 0 37.5 -15.5t15.5 -38.5z" />
    <glyph glyph-name="semicolon" unicode=";" horiz-adv-x="289" 
d="M199 417q0 -22 -15.5 -38t-37.5 -16t-38.5 16t-16.5 38q0 23 16 38.5t39 15.5t38 -15.5t15 -38.5zM125 -142l-40 31q64 85 9 165q0 22 15.5 34.5t33.5 12.5q28 0 42 -16.5t14 -42.5q0 -49 -23 -100t-51 -84z" />
    <glyph glyph-name="less" unicode="&#x3c;" 
d="M458 116l-396 168v65l396 168v-71l-315 -129l315 -129v-72z" />
    <glyph glyph-name="equal" unicode="=" 
d="M456 180h-391v67h391v-67zM456 395h-391v67h391v-67z" />
    <glyph glyph-name="greater" unicode="&#x3e;" 
d="M62 517l396 -168v-65l-396 -168v71l315 128l-315 130v72z" />
    <glyph glyph-name="question" unicode="?" horiz-adv-x="377" 
d="M355 562q0 -38 -16 -70.5t-39.5 -57l-46.5 -50t-39 -61.5t-16 -80v-47h-60v53q0 47 14 85.5t33.5 64t39 48t33.5 49t14 55.5q0 38 -23.5 61.5t-74.5 23.5q-60 0 -120 -46l-35 57q70 55 167 55q83 0 126 -39t43 -101zM222 48q0 -23 -15.5 -39t-38.5 -16q-22 0 -37.5 16
t-15.5 39q0 22 15.5 37.5t37.5 15.5q23 0 38.5 -15.5t15.5 -37.5z" />
    <glyph glyph-name="at" unicode="@" horiz-adv-x="966" 
d="M766 -28l32 -46q-130 -96 -298 -96q-194 0 -314 112.5t-120 303.5q0 137 64 248t173.5 173t242.5 62q164 0 265 -92.5t101 -242.5q0 -138 -75.5 -238t-189.5 -100q-41 0 -68 20t-35 55q-61 -75 -129 -75q-62 0 -96 45.5t-34 117.5q0 53 17 106t48.5 97t83 71.5
t114.5 27.5q20 0 41.5 -3t45 -7.5t35.5 -6.5l-48 -286q-18 -103 43 -103q70 0 129.5 78.5t59.5 202.5q0 116 -85.5 197t-219.5 81q-120 0 -214 -59t-143 -156t-49 -213q0 -167 98.5 -264t260.5 -97q146 0 264 87zM437 118q27 0 57 22t53 56l45 258q-28 7 -52 7
q-77 0 -126.5 -73.5t-49.5 -159.5q0 -110 73 -110z" />
    <glyph glyph-name="A" unicode="A" horiz-adv-x="599" 
d="M405 281l-106 304h-2l-108 -304h216zM10 0l260 692h67l252 -692h-84l-78 215h-260l-77 -215h-80z" />
    <glyph glyph-name="B" unicode="B" horiz-adv-x="546" 
d="M421 194q0 68 -47 95.5t-147 27.5h-66v-250h72q102 0 145 31.5t43 95.5zM376 516q0 55 -36.5 82t-98.5 27h-80v-241h57q158 0 158 132zM506 194q0 -96 -64.5 -145t-166.5 -49h-194v692h160q94 0 156.5 -42t62.5 -129q0 -108 -113 -160v-2q72 -11 115.5 -52t43.5 -113z
" />
    <glyph glyph-name="C" unicode="C" horiz-adv-x="660" 
d="M579 659l-26 -70q-70 39 -152 39q-121 0 -191 -78.5t-70 -197.5q0 -131 71 -209.5t188 -78.5q97 0 186 60l36 -61q-104 -74 -223 -74q-156 0 -249.5 100t-93.5 253q0 156 95 258t251 102q96 0 178 -43z" />
    <glyph glyph-name="D" unicode="D" horiz-adv-x="700" 
d="M560 342q0 140 -78.5 211.5t-218.5 71.5h-102v-558h81q169 0 243.5 71t74.5 204zM645 350q0 -162 -93.5 -256t-264.5 -94h-206v692h211q154 0 253.5 -91t99.5 -251z" />
    <glyph glyph-name="E" unicode="E" horiz-adv-x="504" 
d="M447 0h-366v692h367l-10 -67h-277v-238h239v-67h-239v-253h296z" />
    <glyph glyph-name="F" unicode="F" horiz-adv-x="475" 
d="M434 625h-273v-245h238v-67h-238v-313h-80v692h363z" />
    <glyph glyph-name="G" unicode="G" horiz-adv-x="718" 
d="M611 654l-29 -67q-79 41 -169 41q-121 0 -197 -79.5t-76 -196.5q0 -132 81 -210t190 -78q101 0 161 36v169h-159v71h239v-275q-105 -76 -241 -76q-159 0 -257.5 102.5t-98.5 250.5q0 154 101.5 257t257.5 103q110 0 197 -48z" />
    <glyph glyph-name="H" unicode="H" horiz-adv-x="684" 
d="M603 0h-80v313h-362v-313h-80v692h80v-308h362v308h80v-692z" />
    <glyph glyph-name="I" unicode="I" horiz-adv-x="243" 
d="M161 0h-80v692h80v-692z" />
    <glyph glyph-name="J" unicode="J" horiz-adv-x="243" 
d="M-53 -195l-23 65q85 9 121.5 56.5t36.5 143.5v622h80v-615q0 -123 -48 -192.5t-167 -79.5z" />
    <glyph glyph-name="K" unicode="K" horiz-adv-x="582" 
d="M566 0h-102l-303 356v-356h-80v692h80v-330l315 330h95l-318 -327z" />
    <glyph glyph-name="L" unicode="L" horiz-adv-x="485" 
d="M453 0h-372v692h80v-625h302z" />
    <glyph glyph-name="M" unicode="M" horiz-adv-x="886" 
d="M805 0h-81v593h-2l-260 -593h-42l-261 593h-2v-593h-76v692h117l246 -561l245 561h116v-692z" />
    <glyph glyph-name="N" unicode="N" horiz-adv-x="719" 
d="M638 692v-692h-63l-417 568h-2v-568h-75v692h83l397 -543h2v543h75z" />
    <glyph glyph-name="O" unicode="O" horiz-adv-x="768" 
d="M628 352q0 134 -71.5 205t-172.5 71q-107 0 -175.5 -71.5t-68.5 -211.5q0 -132 67.5 -206.5t176.5 -74.5q115 0 179.5 74.5t64.5 213.5zM713 346q0 -65 -19.5 -126t-57.5 -114t-103.5 -85t-148.5 -32q-68 0 -124 21.5t-93.5 57t-63 82t-37 96t-11.5 100.5q0 147 87 251.5
t242 104.5q81 0 145 -30.5t103.5 -81t60 -113.5t20.5 -131z" />
    <glyph glyph-name="P" unicode="P" horiz-adv-x="509" 
d="M396 480q0 145 -177 145h-58v-267q52 -16 94 -16q63 0 102 37.5t39 100.5zM481 488q0 -88 -57.5 -151.5t-147.5 -63.5q-43 0 -115 20v-293h-80v692h159q109 0 175 -49t66 -155z" />
    <glyph glyph-name="Q" unicode="Q" horiz-adv-x="769" 
d="M711 -119l22 -63q-47 -26 -103 -26q-92 0 -149 43.5t-127 155.5q-62 4 -113 27t-84.5 58.5t-57 80.5t-34 92.5t-10.5 96.5q0 147 87 251.5t242 104.5q81 0 145 -30.5t103.5 -81t60 -113.5t20.5 -131q0 -84 -28.5 -156.5t-90 -126.5t-147.5 -68q47 -70 90 -99t97 -29
q43 0 77 14zM628 352q0 118 -66.5 197t-177.5 79q-107 0 -175.5 -71.5t-68.5 -211.5q0 -132 67.5 -206.5t176.5 -74.5q49 0 90 14t77 45t56.5 89.5t20.5 139.5z" />
    <glyph glyph-name="R" unicode="R" horiz-adv-x="563" 
d="M376 507q0 61 -41 89.5t-142 28.5h-32v-245h32q183 0 183 127zM559 0h-87l-82 166q-40 80 -83.5 114t-107.5 34h-38v-314h-80v692h166q94 0 155.5 -46t61.5 -135q0 -57 -38 -108t-112 -64v-2q30 -9 54.5 -25.5t43.5 -41.5t30.5 -44t27.5 -50z" />
    <glyph glyph-name="S" unicode="S" horiz-adv-x="485" 
d="M52 35l29 71q84 -44 162 -44q53 0 86 26t33 78q0 40 -29.5 72.5t-92.5 70.5q-91 54 -121 80q-68 62 -68 146q0 78 58 122.5t145 44.5t163 -35l-27 -69q-67 32 -131 32q-127 0 -127 -98q0 -44 31 -73t121 -82q80 -47 108 -76q50 -52 50 -128q0 -80 -55 -132t-145 -52
q-106 0 -190 46z" />
    <glyph glyph-name="T" unicode="T" horiz-adv-x="525" 
d="M498 625h-197v-625h-79v625h-206v67h492z" />
    <glyph glyph-name="U" unicode="U" horiz-adv-x="687" 
d="M533 692h78v-437q0 -130 -73 -198t-198 -68q-124 0 -194 67.5t-70 192.5v443h80v-410q0 -117 46 -168t142 -51q95 0 142 51t47 164v414z" />
    <glyph glyph-name="V" unicode="V" horiz-adv-x="596" 
d="M591 692l-264 -697h-44l-278 697h89l215 -549h2l199 549h81z" />
    <glyph glyph-name="W" unicode="W" horiz-adv-x="1009" 
d="M1004 692l-244 -697h-40l-214 573l-200 -573h-40l-261 697h89l194 -536h2l187 536h62l203 -536h2l179 536h81z" />
    <glyph glyph-name="X" unicode="X" horiz-adv-x="631" 
d="M509 0l-194 298l-206 -298h-87l252 354l-226 338h93l185 -283l196 283h87l-241 -341l235 -351h-94z" />
    <glyph glyph-name="Y" unicode="Y" horiz-adv-x="568" 
d="M474 692h84l-235 -391v-301h-79v301l-233 391h89l186 -320z" />
    <glyph glyph-name="Z" unicode="Z" horiz-adv-x="632" 
d="M586 674l-417 -607h430l-10 -67h-543v17l418 608h-387v67h509v-18z" />
    <glyph glyph-name="bracketleft" unicode="[" horiz-adv-x="389" 
d="M361 -178h-252v908h252v-60h-175v-789h175v-59z" />
    <glyph glyph-name="backslash" unicode="\" horiz-adv-x="386" 
d="M396 -150h-73l-304 880h72z" />
    <glyph glyph-name="bracketright" unicode="]" horiz-adv-x="389" 
d="M280 -178h-252v59h175v789h-175v60h252v-908z" />
    <glyph glyph-name="asciicircum" unicode="^" 
d="M60 296l168 396h65l168 -396h-71l-128 315l-130 -315h-72z" />
    <glyph glyph-name="underscore" unicode="_" horiz-adv-x="500" 
d="M511 -92v-63h-522v63h522z" />
    <glyph glyph-name="grave" unicode="`" horiz-adv-x="384" 
d="M255 562h-50l-110 134l83 36z" />
    <glyph glyph-name="a" unicode="a" horiz-adv-x="476" 
d="M303 115v128q-108 -25 -146.5 -50.5t-38.5 -70.5q0 -30 19 -48.5t49 -18.5q26 0 61 17t56 43zM453 67l16 -52q-38 -26 -75 -26q-66 0 -79 67q-72 -67 -142 -67q-57 0 -94 34t-37 96t42.5 98t129.5 59l89 23v18q0 98 -79 98q-51 0 -134 -53l-30 63q94 60 175 60
q61 0 102.5 -39t41.5 -117v-199q0 -39 7.5 -58.5t27.5 -19.5q10 0 39 15z" />
    <glyph glyph-name="b" unicode="b" horiz-adv-x="566" 
d="M434 236q0 78 -39 126.5t-118 48.5q-69 0 -125 -46v-297q56 -12 112 -12q77 0 123.5 50.5t46.5 129.5zM517 243q0 -118 -72 -186t-197 -68q-77 0 -172 23v710l76 8v-296q33 25 65 36t82 11q98 0 158 -67.5t60 -170.5z" />
    <glyph glyph-name="c" unicode="c" horiz-adv-x="478" 
d="M422 104l34 -50q-72 -68 -168 -68q-115 0 -177 70t-62 190q0 107 64 173t165 66q90 0 149 -50l-37 -56q-48 40 -111 40q-67 0 -107 -46t-40 -129q0 -85 42 -138.5t115 -53.5q67 0 133 52z" />
    <glyph glyph-name="d" unicode="d" horiz-adv-x="571" 
d="M419 124v234q-49 57 -136 57q-66 0 -108.5 -51.5t-42.5 -133.5q0 -75 36 -124.5t108 -49.5q81 0 143 68zM431 0l-12 59q-66 -70 -153 -70q-96 0 -156.5 66t-60.5 179q0 105 63.5 176t164.5 71q88 0 142 -42v283l76 8v-730h-64z" />
    <glyph glyph-name="e" unicode="e" horiz-adv-x="514" 
d="M379 292q-5 58 -34.5 92.5t-79.5 34.5q-47 0 -83 -33t-45 -94h242zM446 108l31 -56q-33 -21 -54.5 -32.5t-58 -21t-78.5 -9.5q-107 0 -172 65.5t-65 179.5q0 107 59.5 177t159.5 70q96 0 145 -63.5t49 -185.5h-329q0 -74 41.5 -125t121.5 -51q64 0 150 52z" />
    <glyph glyph-name="f" unicode="f" horiz-adv-x="300" 
d="M348 714l-24 -64q-33 11 -60 11q-24 0 -41 -10t-26 -24t-14 -37.5t-6 -42t-1 -46.5v-30h123l-12 -59h-111v-412h-76v412h-79v59h79v58q0 201 158 201q45 0 90 -16z" />
    <glyph glyph-name="g" unicode="g" horiz-adv-x="517" 
d="M404 -130q0 15 -10.5 26.5t-32 20t-43 14.5l-54.5 15t-55 16q-50 -14 -78 -38t-28 -52q0 -79 155 -79q65 0 105.5 22.5t40.5 54.5zM369 302q0 57 -33 89t-89 32q-53 0 -86.5 -30t-33.5 -82q0 -57 36 -92.5t86 -35.5t85 32t35 87zM481 411h-63q31 -53 31 -109
q0 -37 -12 -66t-28.5 -46t-41.5 -30.5t-42 -18.5t-38.5 -10t-24.5 -6q-76 -22 -76 -57q0 -11 9 -19.5t32 -16t37.5 -11.5t48.5 -12q35 -8 61.5 -17t53.5 -24t41.5 -37.5t14.5 -51.5q0 -70 -66 -109.5t-171 -39.5q-103 0 -163 35t-60 97q0 38 35 71t95 55q-47 26 -47 63
q0 49 80 77v2q-140 41 -140 174q0 71 49 124t147 53q55 0 95 -10h155z" />
    <glyph glyph-name="h" unicode="h" horiz-adv-x="534" 
d="M463 0h-76v295q0 117 -83 117q-76 0 -152 -64v-348h-76v722l76 8v-315q48 34 84 50t86 16q62 0 101.5 -41t39.5 -118v-322z" />
    <glyph glyph-name="i" unicode="i" horiz-adv-x="232" 
d="M154 0h-76v471h76v-471zM166 633q0 -21 -14.5 -35.5t-35.5 -14.5t-35.5 14.5t-14.5 35.5q0 20 14.5 34.5t35.5 14.5t35.5 -14.5t14.5 -34.5z" />
    <glyph glyph-name="j" unicode="j" horiz-adv-x="234" 
d="M156 -26q0 -97 -30 -152.5t-107 -91.5l-31 52l19.5 13t25.5 20t22 26.5t19 43.5t6 60v526h76v-497zM168 633q0 -21 -14.5 -35.5t-35.5 -14.5t-35.5 14.5t-14.5 35.5q0 20 14.5 34.5t35.5 14.5t35.5 -14.5t14.5 -34.5z" />
    <glyph glyph-name="k" unicode="k" horiz-adv-x="477" 
d="M467 0h-98l-217 246v-246h-76v722l76 8v-477l208 218h95l-215 -219z" />
    <glyph glyph-name="l" unicode="l" horiz-adv-x="228" 
d="M152 0h-76v722l76 8v-730z" />
    <glyph glyph-name="m" unicode="m" horiz-adv-x="833" 
d="M76 0v471h76v-56q44 34 80.5 50t84.5 16q91 0 126 -80q53 41 94 60.5t85 19.5q61 0 100 -40.5t39 -108.5v-332h-75v295q0 117 -82 117q-61 0 -148 -67q1 -4 1 -21v-324h-77v295q0 117 -82 117q-70 0 -146 -64v-348h-76z" />
    <glyph glyph-name="n" unicode="n" horiz-adv-x="534" 
d="M463 0h-76v295q0 117 -83 117q-76 0 -152 -64v-348h-76v471h76v-56q35 25 53 36t49.5 20.5t67.5 9.5q64 0 102.5 -42t38.5 -116v-323z" />
    <glyph glyph-name="o" unicode="o" horiz-adv-x="585" 
d="M454 234q0 91 -46 136t-115 45t-115 -45t-46 -135t46 -134.5t115 -44.5t115 44.5t46 133.5zM537 235q0 -108 -67.5 -177t-176.5 -69t-176.5 69t-67.5 177q0 109 67 177.5t177 68.5q109 0 176.5 -68.5t67.5 -177.5z" />
    <glyph glyph-name="p" unicode="p" horiz-adv-x="571" 
d="M152 355v-246q60 -52 136 -52q66 0 108 49.5t42 131.5q0 83 -36 130t-109 47q-83 0 -141 -60zM152 471v-52q23 24 63.5 43t87.5 19q99 0 159 -61.5t60 -174.5q0 -106 -64.5 -181t-164.5 -75q-87 0 -141 44v-295l-76 -7v740h76z" />
    <glyph glyph-name="q" unicode="q" horiz-adv-x="567" 
d="M415 91v313q-34 8 -85 8q-98 0 -148 -47.5t-50 -131.5q0 -88 42 -131t116 -43q65 0 125 32zM492 -262l-77 -7v295q-56 -37 -137 -37q-106 0 -167.5 64t-61.5 179q0 112 73 180.5t209 68.5q85 0 161 -16v-727z" />
    <glyph glyph-name="r" unicode="r" horiz-adv-x="379" 
d="M374 450l-39 -71q-9 4 -27.5 13.5t-31.5 14t-27 4.5q-37 0 -97 -72v-339h-76v471h76v-66h3l23.5 23.5t24.5 24t19.5 15.5t24 13.5t22.5 3.5q17 0 34 -5.5t38.5 -15.5t32.5 -14z" />
    <glyph glyph-name="s" unicode="s" horiz-adv-x="417" 
d="M42 34l23 65q81 -43 139 -43q86 0 86 63q0 15 -6.5 27t-23 23.5t-28.5 18l-37 19.5q-32 16 -49 26t-40 28.5t-33.5 43t-10.5 55.5q0 54 38 87.5t113 33.5q77 0 139 -37l-28 -61q-58 32 -112 32q-75 0 -75 -52q0 -30 21 -48t74 -45q33 -17 51 -28t41 -29.5t33.5 -40.5
t10.5 -49q0 -57 -43 -95.5t-123 -38.5q-86 0 -160 45z" />
    <glyph glyph-name="t" unicode="t" horiz-adv-x="338" 
d="M294 83l30 -53q-52 -41 -112 -41q-126 0 -126 142v281h-65v59h65v127l76 8v-135h145l-12 -59h-133v-258q0 -52 15 -75t48 -23q34 0 69 27z" />
    <glyph glyph-name="u" unicode="u" horiz-adv-x="534" 
d="M71 471h76v-295q0 -117 83 -117q75 0 151 65v347h77v-471h-77v57q-36 -26 -52.5 -36.5t-48.5 -21t-68 -10.5q-64 0 -102.5 42.5t-38.5 116.5v323z" />
    <glyph glyph-name="v" unicode="v" horiz-adv-x="445" 
d="M445 471l-198 -476h-44l-203 476h83l147 -354l142 354h73z" />
    <glyph glyph-name="w" unicode="w" horiz-adv-x="752" 
d="M681 471h71l-182 -478h-50l-141 334l-127 -334h-51l-201 478h85l146 -358l136 358h33l150 -358z" />
    <glyph glyph-name="x" unicode="x" horiz-adv-x="445" 
d="M12 0l165 237l-156 234h91l115 -179l117 179h80l-159 -232l166 -239h-90l-125 186l-125 -186h-79z" />
    <glyph glyph-name="y" unicode="y" horiz-adv-x="452" 
d="M446 471l-316 -741h-95q75 118 134 255l22 52l-180 434h84l136 -341l138 341h77z" />
    <glyph glyph-name="z" unicode="z" horiz-adv-x="499" 
d="M455 0h-411v44l291 363h-276v64h381v-41l-291 -366h306v-64z" />
    <glyph glyph-name="braceleft" unicode="{" horiz-adv-x="363" 
d="M335 -258q-189 26 -189 218v120q0 47 -31 82.5t-87 43.5v60q56 7 87 43t31 83v120q0 194 189 217v-61q-62 -15 -84 -48.5t-22 -85.5v-101q0 -75 -28 -121t-99 -76q72 -27 99.5 -74t27.5 -122v-102q0 -52 22 -85.5t84 -48.5v-62z" />
    <glyph glyph-name="bar" unicode="|" horiz-adv-x="394" 
d="M233 -270h-72v1050h72v-1050z" />
    <glyph glyph-name="braceright" unicode="}" horiz-adv-x="363" 
d="M28 -258v62q62 15 84 48.5t22 85.5v102q0 75 27.5 122t99.5 74q-71 30 -99 76t-28 121v101q0 52 -22 85.5t-84 48.5v61q189 -23 189 -217v-120q0 -47 31 -83t87 -43v-60q-56 -8 -87 -43.5t-31 -82.5v-120q0 -192 -189 -218z" />
    <glyph glyph-name="asciitilde" unicode="~" 
d="M468 406q-3 -141 -108 -141q-37 0 -105 33q-78 40 -97 40q-24 0 -36.5 -16.5t-16.5 -55.5h-53q0 141 111 141q32 0 109 -40q70 -36 96 -36q40 0 47 75h53z" />
    <glyph glyph-name="uni00A0" unicode="&#xa0;" horiz-adv-x="300" 
 />
    <glyph glyph-name="exclamdown" unicode="&#xa1;" horiz-adv-x="259" 
d="M176 -228h-93l20 496h52zM183 416q0 -22 -15.5 -37.5t-37.5 -15.5t-38 15.5t-16 37.5q0 23 16 39t38 16t37.5 -16t15.5 -39z" />
    <glyph glyph-name="cent" unicode="&#xa2;" 
d="M311 -6h-50v103q-94 14 -143 81.5t-49 175.5q0 96 53 160t139 76v102h50v-99q81 -4 136 -50l-37 -56q-42 35 -99 39v-366q65 0 131 52l34 -50q-71 -67 -165 -68v-100zM152 352q0 -70 28.5 -119.5t80.5 -65.5v356q-51 -12 -80 -56t-29 -115z" />
    <glyph glyph-name="sterling" unicode="&#xa3;" 
d="M66 319v59h62q-14 88 -14 143q0 78 50.5 129.5t150.5 51.5q95 0 170 -58l-36 -55q-64 49 -129 49q-123 0 -123 -124q0 -56 13 -136h184l-12 -59h-164q7 -56 7 -106q0 -71 -58 -148h328v-65h-435v38q36 37 62 82t26 85q0 56 -10 114h-72z" />
    <glyph glyph-name="currency" unicode="&#xa4;" 
d="M90 345q0 50 26 90l-61 61l48 47l59 -59q44 31 98 31t99 -32l60 60l48 -48l-62 -62q25 -39 25 -88q0 -54 -31 -98l68 -68l-47 -48l-70 70q-40 -26 -90 -26q-47 0 -89 24l-69 -69l-48 48l68 67q-32 45 -32 100zM155 345q0 -44 30.5 -74.5t74.5 -30.5t74.5 30.5t30.5 74.5
q0 43 -30.5 74t-74.5 31t-74.5 -30.5t-30.5 -74.5z" />
    <glyph glyph-name="yen" unicode="&#xa5;" 
d="M59 293v59h133l-176 340h89l156 -320l158 320h84l-179 -340h134v-59h-160v-71h160v-59h-160v-163h-79v163h-160v59h160v71h-160z" />
    <glyph glyph-name="brokenbar" unicode="&#xa6;" horiz-adv-x="394" 
d="M233 355h-72v425h72v-425zM233 -270h-72v425h72v-425z" />
    <glyph glyph-name="section" unicode="&#xa7;" horiz-adv-x="533" 
d="M477 267q0 -53 -29 -94.5t-80 -61.5q47 -27 73 -59.5t26 -80.5q0 -69 -59.5 -115.5t-156.5 -46.5q-110 0 -194 46l29 65q80 -42 162 -42q62 0 101.5 23t39.5 66q0 35 -32.5 60t-111.5 64q-35 17 -55 28t-49 31t-45 38.5t-28 45.5t-12 58q0 56 35.5 93t94.5 51
q-100 64 -100 152q0 68 58.5 105t144.5 37q88 0 163 -33l-26 -65q-63 30 -132 30q-131 0 -131 -74q0 -40 32 -66t124 -75q82 -43 107 -66q51 -46 51 -114zM275 387l-18 9q-57 -2 -90.5 -31.5t-33.5 -72.5q0 -41 34 -69t122 -72l10 -5q43 8 71.5 40.5t28.5 76.5
q0 36 -29 62.5t-95 61.5z" />
    <glyph glyph-name="dieresis" unicode="&#xa8;" horiz-adv-x="384" 
d="M152 634q0 -21 -14.5 -35.5t-35.5 -14.5t-35.5 14.5t-14.5 35.5q0 20 14.5 34.5t35.5 14.5t35.5 -14.5t14.5 -34.5zM334 634q0 -21 -14.5 -35.5t-35.5 -14.5t-35.5 14.5t-14.5 35.5q0 20 14.5 34.5t35.5 14.5t35.5 -14.5t14.5 -34.5z" />
    <glyph glyph-name="copyright" unicode="&#xa9;" horiz-adv-x="863" 
d="M747 353q0 132 -92.5 224.5t-223.5 92.5q-132 0 -224.5 -92t-92.5 -225q0 -131 92.5 -223.5t224.5 -92.5q131 0 223.5 92.5t92.5 223.5zM806 353q0 -155 -110 -264.5t-265 -109.5t-264.5 109.5t-109.5 264.5q0 156 109.5 265.5t264.5 109.5t265 -109.5t110 -265.5z
M559 563l-24 -54q-38 24 -90 24q-75 0 -117 -48.5t-42 -121.5q0 -80 43 -127.5t114 -47.5q63 0 116 37l26 -47q-64 -48 -142 -48q-101 0 -162 64.5t-61 162.5q0 101 62 166.5t163 65.5q63 0 114 -26z" />
    <glyph glyph-name="ordfeminine" unicode="&#xaa;" horiz-adv-x="321" 
d="M188 464v71q-60 -15 -82 -29.5t-22 -39.5q0 -37 36 -37q41 0 68 35zM304 442l15 -49q-30 -21 -58 -21q-48 0 -62 44q-36 -44 -90 -44q-38 0 -64 24.5t-26 66.5q0 78 103 105l66 17v8q0 56 -43 56q-33 0 -86 -35l-31 52q68 44 124 44q43 0 72.5 -27.5t29.5 -81.5v-130
q0 -18 6.5 -29.5t15.5 -11.5q10 0 28 12z" />
    <glyph glyph-name="guillemotleft" unicode="&#xab;" horiz-adv-x="579" 
d="M60 232v9l179 225l53 -48l-145 -181l146 -173l-51 -47zM288 232v9l179 225l53 -48l-145 -181l146 -173l-51 -47z" />
    <glyph glyph-name="logicalnot" unicode="&#xac;" 
d="M45 390h410v-249h-67v182h-343v67z" />
    <glyph glyph-name="uni00AD" unicode="&#xad;" horiz-adv-x="298" 
d="M274 271v-62h-251v62h251z" />
    <glyph glyph-name="registered" unicode="&#xae;" horiz-adv-x="554" 
d="M195 648h73q42 0 66.5 -18.5t24.5 -52.5q0 -25 -15.5 -44.5t-44.5 -24.5v-1q16 -4 29 -15.5t19 -21t16 -29.5l35 -68h-51l-30 64q-26 55 -63 55h-13v-119h-46v275zM241 613v-88h9q61 0 61 47q0 41 -61 41h-9zM97 503q0 -74 53 -127t127 -53q75 0 127.5 51.5t52.5 128.5
q0 74 -53 127t-127 53q-77 0 -128.5 -52.5t-51.5 -127.5zM52 503q0 93 66 159t159 66t159 -66t66 -159t-66 -159t-159 -66t-159 66t-66 159z" />
    <glyph glyph-name="macron" unicode="&#xaf;" horiz-adv-x="384" 
d="M61 610v72h262v-72h-262z" />
    <glyph glyph-name="degree" unicode="&#xb0;" horiz-adv-x="445" 
d="M70 550q0 63 44.5 107.5t107.5 44.5t107.5 -44.5t44.5 -107.5t-44.5 -107.5t-107.5 -44.5t-107.5 44.5t-44.5 107.5zM129 550q0 -39 27 -66t66 -27q38 0 65.5 27t27.5 66q0 38 -27.5 65.5t-65.5 27.5q-39 0 -66 -27.5t-27 -65.5z" />
    <glyph glyph-name="plusminus" unicode="&#xb1;" 
d="M295 637v-182h171v-67h-171v-182h-67v182h-173v67h173v182h67zM55 137h411v-67h-411v67z" />
    <glyph glyph-name="twosuperior" unicode="&#xb2;" horiz-adv-x="310" 
d="M66 680l-26 46q50 35 106 35q50 0 77.5 -27.5t27.5 -70.5q0 -50 -30 -101t-86 -119h135v-53h-233v18q63 74 87.5 106t45 71.5t20.5 73.5q0 25 -13.5 37.5t-35.5 12.5q-34 0 -75 -29z" />
    <glyph glyph-name="threesuperior" unicode="&#xb3;" horiz-adv-x="310" 
d="M37 421l26 46q43 -29 83 -29q26 0 44 16t18 45q0 66 -119 66v26l83 116h-116v49h214v-4l-105 -144q48 -9 75.5 -37.5t27.5 -68.5q0 -51 -33 -84t-88 -33q-65 0 -110 36z" />
    <glyph glyph-name="acute" unicode="&#xb4;" horiz-adv-x="384" 
d="M179 561h-50l77 170l83 -36z" />
    <glyph glyph-name="mu" unicode="&#xb5;" horiz-adv-x="549" 
d="M76 -219v690h76v-280q0 -65 30.5 -100t68.5 -35q62 0 125 68v347h77v-351q0 -64 34 -64q15 0 39 19l16 -60q-38 -26 -75 -26q-71 0 -86 74q-63 -74 -133 -74q-60 0 -96 65v-266z" />
    <glyph glyph-name="paragraph" unicode="&#xb6;" horiz-adv-x="599" 
d="M456 -161v834h-77v-863l-55 -20v583q-61 -17 -100 -17q-74 0 -121 54.5t-47 131.5q0 97 55 142.5t144 45.5h256v-871z" />
    <glyph glyph-name="periodcentered" unicode="&#xb7;" horiz-adv-x="289" 
d="M198 344q0 -23 -15 -39t-37 -16q-23 0 -39 16t-16 39q0 22 16 37.5t39 15.5q22 0 37 -15.5t15 -37.5z" />
    <glyph glyph-name="cedilla" unicode="&#xb8;" horiz-adv-x="384" 
d="M279 -131q0 -41 -29 -63t-72 -22q-29 0 -59 11l12 41q20 -8 40 -8q40 0 40 35q0 40 -67 49l29 96h52l-19 -62q73 -19 73 -77z" />
    <glyph glyph-name="onesuperior" unicode="&#xb9;" horiz-adv-x="240" 
d="M168 390h-58v293l-71 -36l-20 48l131 66h18v-371z" />
    <glyph glyph-name="ordmasculine" unicode="&#xba;" horiz-adv-x="373" 
d="M284 541q0 55 -27.5 82.5t-69.5 27.5t-69.5 -27.5t-27.5 -81.5t27.5 -81t69.5 -27t69.5 26.5t27.5 80.5zM354 542q0 -74 -46 -121t-121 -47t-121 47t-46 121q0 75 46 121.5t121 46.5t121 -46.5t46 -121.5z" />
    <glyph glyph-name="guillemotright" unicode="&#xbb;" horiz-adv-x="579" 
d="M519 241v-9l-182 -215l-51 47l146 173l-145 181l53 48zM291 241v-9l-182 -215l-51 47l146 173l-145 181l53 48z" />
    <glyph glyph-name="onequarter" unicode="&#xbc;" horiz-adv-x="724" 
d="M618 692l-415 -692h-63l415 692h63zM193 320h-58v293l-71 -36l-20 48l131 66h18v-371zM572 156v102l-84 -102h84zM689 104h-60v-104h-57v104h-159v33l190 231h26v-212h60v-52z" />
    <glyph glyph-name="onehalf" unicode="&#xbd;" horiz-adv-x="771" 
d="M608 692l-415 -692h-63l415 692h63zM193 320h-58v293l-71 -36l-20 48l131 66h18v-371zM527 290l-26 46q50 35 106 35q50 0 77.5 -27.5t27.5 -70.5q0 -50 -30 -101t-86 -119h135v-53h-233v18q63 74 87.5 106t45 71.5t20.5 73.5q0 25 -13.5 37.5t-35.5 12.5q-34 0 -75 -29z
" />
    <glyph glyph-name="threequarters" unicode="&#xbe;" horiz-adv-x="774" 
d="M638 692l-415 -692h-63l415 692h63zM37 351l26 46q43 -29 83 -29q26 0 44 16t18 45q0 66 -119 66v26l83 116h-116v49h214v-4l-105 -144q48 -9 75.5 -37.5t27.5 -68.5q0 -51 -33 -84t-88 -33q-65 0 -110 36zM622 156v102l-84 -102h84zM739 104h-60v-104h-57v104h-159v33
l190 231h26v-212h60v-52z" />
    <glyph glyph-name="questiondown" unicode="&#xbf;" horiz-adv-x="377" 
d="M22 -98q0 38 16 70.5t39 57l46.5 50t39.5 61.5t16 80v47h60v-53q0 -47 -14 -85.5t-33.5 -64t-39 -48t-33.5 -49t-14 -55.5q0 -38 23.5 -61.5t74.5 -23.5q60 0 120 46l35 -57q-70 -55 -167 -55q-83 0 -126 39t-43 101zM155 416q0 23 15.5 39t38.5 16q22 0 37.5 -16
t15.5 -39q0 -22 -15.5 -37.5t-37.5 -15.5q-23 0 -38.5 15.5t-15.5 37.5z" />
    <glyph glyph-name="Agrave" unicode="&#xc0;" horiz-adv-x="599" 
d="M405 281l-106 304h-2l-108 -304h216zM10 0l260 692h67l252 -692h-84l-78 215h-260l-77 -215h-80zM351 741h-63l-146 86l65 63z" />
    <glyph glyph-name="Aacute" unicode="&#xc1;" horiz-adv-x="599" 
d="M405 281l-106 304h-2l-108 -304h216zM10 0l260 692h67l252 -692h-84l-78 215h-260l-77 -215h-80zM313 741h-63l144 149l65 -63z" />
    <glyph glyph-name="Acircumflex" unicode="&#xc2;" horiz-adv-x="599" 
d="M405 281l-106 304h-2l-108 -304h216zM10 0l260 692h67l252 -692h-84l-78 215h-260l-77 -215h-80zM460 771l-44 -30l-117 76l-119 -76l-42 30l133 114h55z" />
    <glyph glyph-name="Atilde" unicode="&#xc3;" horiz-adv-x="599" 
d="M405 281l-106 304h-2l-108 -304h216zM10 0l260 692h67l252 -692h-84l-78 215h-260l-77 -215h-80zM458 873q-6 -119 -87 -119q-27 0 -78 23.5t-66 23.5q-39 0 -50 -46h-36q7 56 26.5 87t63.5 31q25 0 77 -24t67 -24q36 0 47 48h36z" />
    <glyph glyph-name="Adieresis" unicode="&#xc4;" horiz-adv-x="599" 
d="M405 281l-106 304h-2l-108 -304h216zM10 0l260 692h67l252 -692h-84l-78 215h-260l-77 -215h-80zM259 807q0 -21 -14.5 -35.5t-35.5 -14.5t-35.5 14.5t-14.5 35.5q0 20 14.5 34.5t35.5 14.5t35.5 -14.5t14.5 -34.5zM441 807q0 -21 -14.5 -35.5t-35.5 -14.5t-35.5 14.5
t-14.5 35.5q0 20 14.5 34.5t35.5 14.5t35.5 -14.5t14.5 -34.5z" />
    <glyph glyph-name="Aring" unicode="&#xc5;" horiz-adv-x="599" 
d="M410 752q0 -32 -16.5 -58t-43.5 -39l239 -655h-84l-78 215h-260l-77 -215h-80l246 654q-28 13 -45 39t-17 59q0 45 31.5 76.5t76.5 31.5t76.5 -31.5t31.5 -76.5zM405 281l-106 304h-2l-108 -304h216zM362 752q0 24 -18 42t-42 18q-25 0 -42.5 -18t-17.5 -42q0 -23 16 -41
t39 -19h5q24 0 42 18t18 42z" />
    <glyph glyph-name="AE" unicode="&#xc6;" horiz-adv-x="839" 
d="M782 0h-366v215h-212l-117 -215h-87l390 692h393l-10 -67h-277v-238h239v-67h-239v-253h296zM240 281h176v323z" />
    <glyph glyph-name="Ccedilla" unicode="&#xc7;" horiz-adv-x="660" 
d="M451 -131q0 -41 -29 -63t-72 -22q-29 0 -59 11l12 41q20 -8 40 -8q40 0 40 35q0 40 -67 49l24 81q-132 18 -208.5 114.5t-76.5 234.5q0 156 95 258t251 102q96 0 178 -43l-26 -70q-70 39 -152 39q-121 0 -191 -78.5t-70 -197.5q0 -131 71 -209.5t188 -78.5q97 0 186 60
l36 -61q-104 -74 -223 -74h-7l-13 -43q73 -19 73 -77z" />
    <glyph glyph-name="Egrave" unicode="&#xc8;" horiz-adv-x="504" 
d="M447 0h-366v692h367l-10 -67h-277v-238h239v-67h-239v-253h296zM349 741h-63l-146 86l65 63z" />
    <glyph glyph-name="Eacute" unicode="&#xc9;" horiz-adv-x="504" 
d="M447 0h-366v692h367l-10 -67h-277v-238h239v-67h-239v-253h296zM253 741h-63l144 149l65 -63z" />
    <glyph glyph-name="Ecircumflex" unicode="&#xca;" horiz-adv-x="504" 
d="M447 0h-366v692h367l-10 -67h-277v-238h239v-67h-239v-253h296zM428 771l-44 -30l-117 76l-119 -76l-42 30l133 114h55z" />
    <glyph glyph-name="Edieresis" unicode="&#xcb;" horiz-adv-x="504" 
d="M447 0h-366v692h367l-10 -67h-277v-238h239v-67h-239v-253h296zM227 807q0 -21 -14.5 -35.5t-35.5 -14.5t-35.5 14.5t-14.5 35.5q0 20 14.5 34.5t35.5 14.5t35.5 -14.5t14.5 -34.5zM409 807q0 -21 -14.5 -35.5t-35.5 -14.5t-35.5 14.5t-14.5 35.5q0 20 14.5 34.5
t35.5 14.5t35.5 -14.5t14.5 -34.5z" />
    <glyph glyph-name="Igrave" unicode="&#xcc;" horiz-adv-x="243" 
d="M161 0h-80v692h80v-692zM187 741h-63l-146 86l65 63z" />
    <glyph glyph-name="Iacute" unicode="&#xcd;" horiz-adv-x="243" 
d="M161 0h-80v692h80v-692zM116 741h-63l144 149l65 -63z" />
    <glyph glyph-name="Icircumflex" unicode="&#xce;" horiz-adv-x="243" 
d="M161 0h-80v692h80v-692zM282 771l-44 -30l-117 76l-119 -76l-42 30l133 114h55z" />
    <glyph glyph-name="Idieresis" unicode="&#xcf;" horiz-adv-x="243" 
d="M161 0h-80v692h80v-692zM81 807q0 -21 -14.5 -35.5t-35.5 -14.5t-35.5 14.5t-14.5 35.5q0 20 14.5 34.5t35.5 14.5t35.5 -14.5t14.5 -34.5zM263 807q0 -21 -14.5 -35.5t-35.5 -14.5t-35.5 14.5t-14.5 35.5q0 20 14.5 34.5t35.5 14.5t35.5 -14.5t14.5 -34.5z" />
    <glyph glyph-name="Eth" unicode="&#xd0;" horiz-adv-x="700" 
d="M645 350q0 -162 -93.5 -256t-264.5 -94h-206v313h-58v71h58v308h211q154 0 253.5 -91t99.5 -251zM334 384v-71h-173v-246h81q169 0 243.5 71t74.5 204q0 140 -78.5 211.5t-218.5 71.5h-102v-241h173z" />
    <glyph glyph-name="Ntilde" unicode="&#xd1;" horiz-adv-x="719" 
d="M638 692v-692h-63l-417 568h-2v-568h-75v692h83l397 -543h2v543h75zM530 873q-6 -119 -87 -119q-27 0 -78 23.5t-66 23.5q-39 0 -50 -46h-36q7 56 26.5 87t63.5 31q25 0 77 -24t67 -24q36 0 47 48h36z" />
    <glyph glyph-name="Ograve" unicode="&#xd2;" horiz-adv-x="768" 
d="M628 352q0 134 -71.5 205t-172.5 71q-107 0 -175.5 -71.5t-68.5 -211.5q0 -132 67.5 -206.5t176.5 -74.5q115 0 179.5 74.5t64.5 213.5zM713 346q0 -65 -19.5 -126t-57.5 -114t-103.5 -85t-148.5 -32q-68 0 -124 21.5t-93.5 57t-63 82t-37 96t-11.5 100.5q0 147 87 251.5
t242 104.5q81 0 145 -30.5t103.5 -81t60 -113.5t20.5 -131zM444 741h-63l-146 86l65 63z" />
    <glyph glyph-name="Oacute" unicode="&#xd3;" horiz-adv-x="768" 
d="M628 352q0 134 -71.5 205t-172.5 71q-107 0 -175.5 -71.5t-68.5 -211.5q0 -132 67.5 -206.5t176.5 -74.5q115 0 179.5 74.5t64.5 213.5zM713 346q0 -65 -19.5 -126t-57.5 -114t-103.5 -85t-148.5 -32q-68 0 -124 21.5t-93.5 57t-63 82t-37 96t-11.5 100.5q0 147 87 251.5
t242 104.5q81 0 145 -30.5t103.5 -81t60 -113.5t20.5 -131zM376 741h-63l144 149l65 -63z" />
    <glyph glyph-name="Ocircumflex" unicode="&#xd4;" horiz-adv-x="768" 
d="M628 352q0 134 -71.5 205t-172.5 71q-107 0 -175.5 -71.5t-68.5 -211.5q0 -132 67.5 -206.5t176.5 -74.5q115 0 179.5 74.5t64.5 213.5zM713 346q0 -65 -19.5 -126t-57.5 -114t-103.5 -85t-148.5 -32q-68 0 -124 21.5t-93.5 57t-63 82t-37 96t-11.5 100.5q0 147 87 251.5
t242 104.5q81 0 145 -30.5t103.5 -81t60 -113.5t20.5 -131zM545 771l-44 -30l-117 76l-119 -76l-42 30l133 114h55z" />
    <glyph glyph-name="Otilde" unicode="&#xd5;" horiz-adv-x="768" 
d="M628 352q0 134 -71.5 205t-172.5 71q-107 0 -175.5 -71.5t-68.5 -211.5q0 -132 67.5 -206.5t176.5 -74.5q115 0 179.5 74.5t64.5 213.5zM713 346q0 -65 -19.5 -126t-57.5 -114t-103.5 -85t-148.5 -32q-68 0 -124 21.5t-93.5 57t-63 82t-37 96t-11.5 100.5q0 147 87 251.5
t242 104.5q81 0 145 -30.5t103.5 -81t60 -113.5t20.5 -131zM543 873q-6 -119 -87 -119q-26 0 -78 23.5t-66 23.5q-38 0 -50 -46h-36q7 56 26.5 87t63.5 31q25 0 77 -24t67 -24q36 0 47 48h36z" />
    <glyph glyph-name="Odieresis" unicode="&#xd6;" horiz-adv-x="768" 
d="M628 352q0 134 -71.5 205t-172.5 71q-107 0 -175.5 -71.5t-68.5 -211.5q0 -132 67.5 -206.5t176.5 -74.5q115 0 179.5 74.5t64.5 213.5zM713 346q0 -65 -19.5 -126t-57.5 -114t-103.5 -85t-148.5 -32q-68 0 -124 21.5t-93.5 57t-63 82t-37 96t-11.5 100.5q0 147 87 251.5
t242 104.5q81 0 145 -30.5t103.5 -81t60 -113.5t20.5 -131zM343 807q0 -21 -14.5 -35.5t-35.5 -14.5t-35.5 14.5t-14.5 35.5q0 20 14.5 34.5t35.5 14.5t35.5 -14.5t14.5 -34.5zM525 807q0 -21 -14.5 -35.5t-35.5 -14.5t-35.5 14.5t-14.5 35.5q0 20 14.5 34.5t35.5 14.5
t35.5 -14.5t14.5 -34.5z" />
    <glyph glyph-name="multiply" unicode="&#xd7;" 
d="M123 523l138 -138l138 138l48 -48l-138 -138l138 -138l-47 -48l-139 139l-139 -140l-48 48l140 139l-139 139z" />
    <glyph glyph-name="Oslash" unicode="&#xd8;" horiz-adv-x="768" 
d="M713 346q0 -65 -19.5 -126t-57.5 -114t-103.5 -85t-148.5 -32q-117 0 -199 62l-69 -85l-49 43l71 88q-83 100 -83 249q0 147 87 251.5t242 104.5q115 0 197 -62l64 78l49 -43l-66 -80q85 -100 85 -249zM628 352q0 110 -51 180l-342 -420q60 -48 149 -48q115 0 179.5 74.5
t64.5 213.5zM140 345q0 -113 50 -185l342 419q-64 49 -148 49q-107 0 -175.5 -71.5t-68.5 -211.5z" />
    <glyph glyph-name="Ugrave" unicode="&#xd9;" horiz-adv-x="687" 
d="M533 692h78v-437q0 -130 -73 -198t-198 -68q-124 0 -194 67.5t-70 192.5v443h80v-410q0 -117 46 -168t142 -51q95 0 142 51t47 164v414zM406 741h-63l-146 86l65 63z" />
    <glyph glyph-name="Uacute" unicode="&#xda;" horiz-adv-x="687" 
d="M533 692h78v-437q0 -130 -73 -198t-198 -68q-124 0 -194 67.5t-70 192.5v443h80v-410q0 -117 46 -168t142 -51q95 0 142 51t47 164v414zM348 741h-63l144 149l65 -63z" />
    <glyph glyph-name="Ucircumflex" unicode="&#xdb;" horiz-adv-x="687" 
d="M533 692h78v-437q0 -130 -73 -198t-198 -68q-124 0 -194 67.5t-70 192.5v443h80v-410q0 -117 46 -168t142 -51q95 0 142 51t47 164v414zM508 771l-44 -30l-117 76l-119 -76l-42 30l133 114h55z" />
    <glyph glyph-name="Udieresis" unicode="&#xdc;" horiz-adv-x="687" 
d="M533 692h78v-437q0 -130 -73 -198t-198 -68q-124 0 -194 67.5t-70 192.5v443h80v-410q0 -117 46 -168t142 -51q95 0 142 51t47 164v414zM304 807q0 -21 -14.5 -35.5t-35.5 -14.5t-35.5 14.5t-14.5 35.5q0 20 14.5 34.5t35.5 14.5t35.5 -14.5t14.5 -34.5zM486 807
q0 -21 -14.5 -35.5t-35.5 -14.5t-35.5 14.5t-14.5 35.5q0 20 14.5 34.5t35.5 14.5t35.5 -14.5t14.5 -34.5z" />
    <glyph glyph-name="Yacute" unicode="&#xdd;" horiz-adv-x="568" 
d="M474 692h84l-235 -391v-301h-79v301l-233 391h89l186 -320zM290 741h-63l144 149l65 -63z" />
    <glyph glyph-name="Thorn" unicode="&#xde;" horiz-adv-x="509" 
d="M481 352q0 -88 -57.5 -151.5t-147.5 -63.5q-43 0 -115 20v-157h-80v692h80v-136h79q109 0 175 -49t66 -155zM396 344q0 145 -177 145h-58v-267q52 -16 94 -16q63 0 102 37.5t39 100.5z" />
    <glyph glyph-name="germandbls" unicode="&#xdf;" horiz-adv-x="597" 
d="M405 584q0 33 -31 55t-90 22q-44 0 -72 -13.5t-40 -39.5t-15.5 -49t-3.5 -58v-501h-77v520q0 104 53.5 157t156.5 53q96 0 145.5 -41t49.5 -97q0 -36 -14.5 -65t-35.5 -48t-42 -35t-35.5 -32t-14.5 -32q0 -28 23 -49.5t55.5 -38t64.5 -35.5t55 -53t23 -81
q0 -57 -43 -95.5t-123 -38.5q-86 0 -160 45l23 65q81 -43 139 -43q86 0 86 63q0 30 -22.5 54.5t-55 42.5l-64.5 37.5t-54.5 50t-22.5 69.5q0 31 14.5 55.5t35.5 41l42 32t35.5 36.5t14.5 46z" />
    <glyph glyph-name="agrave" unicode="&#xe0;" horiz-adv-x="476" 
d="M303 115v128q-108 -25 -146.5 -50.5t-38.5 -70.5q0 -30 19 -48.5t49 -18.5q26 0 61 17t56 43zM453 67l16 -52q-38 -26 -75 -26q-66 0 -79 67q-72 -67 -142 -67q-57 0 -94 34t-37 96t42.5 98t129.5 59l89 23v18q0 98 -79 98q-51 0 -134 -53l-30 63q94 60 175 60
q61 0 102.5 -39t41.5 -117v-199q0 -39 7.5 -58.5t27.5 -19.5q10 0 39 15zM278 562h-50l-110 134l83 36z" />
    <glyph glyph-name="aacute" unicode="&#xe1;" horiz-adv-x="476" 
d="M303 115v128q-108 -25 -146.5 -50.5t-38.5 -70.5q0 -30 19 -48.5t49 -18.5q26 0 61 17t56 43zM453 67l16 -52q-38 -26 -75 -26q-66 0 -79 67q-72 -67 -142 -67q-57 0 -94 34t-37 96t42.5 98t129.5 59l89 23v18q0 98 -79 98q-51 0 -134 -53l-30 63q94 60 175 60
q61 0 102.5 -39t41.5 -117v-199q0 -39 7.5 -58.5t27.5 -19.5q10 0 39 15zM230 561h-50l77 170l83 -36z" />
    <glyph glyph-name="acircumflex" unicode="&#xe2;" horiz-adv-x="476" 
d="M303 115v128q-108 -25 -146.5 -50.5t-38.5 -70.5q0 -30 19 -48.5t49 -18.5q26 0 61 17t56 43zM453 67l16 -52q-38 -26 -75 -26q-66 0 -79 67q-72 -67 -142 -67q-57 0 -94 34t-37 96t42.5 98t129.5 59l89 23v18q0 98 -79 98q-51 0 -134 -53l-30 63q94 60 175 60
q61 0 102.5 -39t41.5 -117v-199q0 -39 7.5 -58.5t27.5 -19.5q10 0 39 15zM379 591l-44 -30l-107 86l-109 -86l-42 30l123 124h55z" />
    <glyph glyph-name="atilde" unicode="&#xe3;" horiz-adv-x="476" 
d="M303 115v128q-108 -25 -146.5 -50.5t-38.5 -70.5q0 -30 19 -48.5t49 -18.5q26 0 61 17t56 43zM453 67l16 -52q-38 -26 -75 -26q-66 0 -79 67q-72 -67 -142 -67q-57 0 -94 34t-37 96t42.5 98t129.5 59l89 23v18q0 98 -79 98q-51 0 -134 -53l-30 63q94 60 175 60
q61 0 102.5 -39t41.5 -117v-199q0 -39 7.5 -58.5t27.5 -19.5q10 0 39 15zM388 698q-6 -119 -86 -119q-27 0 -79 23.5t-66 23.5q-39 0 -50 -46h-36q7 56 26.5 87t63.5 31q25 0 77 -24t66 -24q37 0 48 48h36z" />
    <glyph glyph-name="adieresis" unicode="&#xe4;" horiz-adv-x="476" 
d="M303 115v128q-108 -25 -146.5 -50.5t-38.5 -70.5q0 -30 19 -48.5t49 -18.5q26 0 61 17t56 43zM453 67l16 -52q-38 -26 -75 -26q-66 0 -79 67q-72 -67 -142 -67q-57 0 -94 34t-37 96t42.5 98t129.5 59l89 23v18q0 98 -79 98q-51 0 -134 -53l-30 63q94 60 175 60
q61 0 102.5 -39t41.5 -117v-199q0 -39 7.5 -58.5t27.5 -19.5q10 0 39 15zM182 634q0 -21 -14.5 -35.5t-35.5 -14.5t-35.5 14.5t-14.5 35.5q0 20 14.5 34.5t35.5 14.5t35.5 -14.5t14.5 -34.5zM364 634q0 -21 -14.5 -35.5t-35.5 -14.5t-35.5 14.5t-14.5 35.5q0 20 14.5 34.5
t35.5 14.5t35.5 -14.5t14.5 -34.5z" />
    <glyph glyph-name="aring" unicode="&#xe5;" horiz-adv-x="476" 
d="M303 115v128q-108 -25 -146.5 -50.5t-38.5 -70.5q0 -30 19 -48.5t49 -18.5q26 0 61 17t56 43zM453 67l16 -52q-38 -26 -75 -26q-66 0 -79 67q-72 -67 -142 -67q-57 0 -94 34t-37 96t42.5 98t129.5 59l89 23v18q0 98 -79 98q-51 0 -134 -53l-30 63q94 60 175 60
q61 0 102.5 -39t41.5 -117v-199q0 -39 7.5 -58.5t27.5 -19.5q10 0 39 15zM281 655q0 24 -18 42t-42 18q-25 0 -42.5 -18t-17.5 -42t17.5 -42t42.5 -18q24 0 42 18t18 42zM329 655q0 -45 -31.5 -76.5t-76.5 -31.5t-76.5 31.5t-31.5 76.5t31.5 76.5t76.5 31.5t76.5 -31.5
t31.5 -76.5z" />
    <glyph glyph-name="ae" unicode="&#xe6;" horiz-adv-x="778" 
d="M727 250l-326 -22v-3q2 -74 42 -123t119 -49q60 0 149 53l30 -57q-45 -30 -86.5 -45t-103.5 -15q-121 0 -183 88q-79 -88 -192 -88q-55 0 -94.5 35.5t-39.5 99.5q0 68 49 106.5t158 45.5l75 5v36q0 48 -28.5 73t-71.5 25q-54 0 -134 -51l-30 61q88 56 175 56
q98 0 142 -75q59 75 156 75q89 0 137.5 -60t56.5 -171zM194 53q42 0 81.5 22t65.5 53q-16 43 -17 95l-59 -4q-82 -5 -116 -26.5t-34 -70.5q0 -31 20.5 -50t58.5 -19zM530 423q-52 0 -84 -37t-41 -99l236 16q-11 58 -41 89t-70 31z" />
    <glyph glyph-name="ccedilla" unicode="&#xe7;" horiz-adv-x="478" 
d="M353 -131q0 -41 -29 -63t-72 -22q-29 0 -59 11l12 41q20 -8 40 -8q40 0 40 35q0 40 -67 49l23 77q-94 13 -143 81t-49 176q0 107 64 173t165 66q90 0 149 -50l-37 -56q-48 40 -111 40q-67 0 -107 -46t-40 -129q0 -85 42 -138.5t115 -53.5q67 0 133 52l34 -50
q-70 -66 -164 -68l-12 -40q73 -19 73 -77z" />
    <glyph glyph-name="egrave" unicode="&#xe8;" horiz-adv-x="514" 
d="M379 292q-5 58 -34.5 92.5t-79.5 34.5q-47 0 -83 -33t-45 -94h242zM446 108l31 -56q-33 -21 -54.5 -32.5t-58 -21t-78.5 -9.5q-107 0 -172 65.5t-65 179.5q0 107 59.5 177t159.5 70q96 0 145 -63.5t49 -185.5h-329q0 -74 41.5 -125t121.5 -51q64 0 150 52zM314 562h-50
l-110 134l83 36z" />
    <glyph glyph-name="eacute" unicode="&#xe9;" horiz-adv-x="514" 
d="M379 292q-5 58 -34.5 92.5t-79.5 34.5q-47 0 -83 -33t-45 -94h242zM446 108l31 -56q-33 -21 -54.5 -32.5t-58 -21t-78.5 -9.5q-107 0 -172 65.5t-65 179.5q0 107 59.5 177t159.5 70q96 0 145 -63.5t49 -185.5h-329q0 -74 41.5 -125t121.5 -51q64 0 150 52zM268 561h-50
l77 170l83 -36z" />
    <glyph glyph-name="ecircumflex" unicode="&#xea;" horiz-adv-x="514" 
d="M379 292q-5 58 -34.5 92.5t-79.5 34.5q-47 0 -83 -33t-45 -94h242zM446 108l31 -56q-33 -21 -54.5 -32.5t-58 -21t-78.5 -9.5q-107 0 -172 65.5t-65 179.5q0 107 59.5 177t159.5 70q96 0 145 -63.5t49 -185.5h-329q0 -74 41.5 -125t121.5 -51q64 0 150 52zM418 591
l-44 -30l-107 86l-109 -86l-42 30l123 124h55z" />
    <glyph glyph-name="edieresis" unicode="&#xeb;" horiz-adv-x="514" 
d="M379 292q-5 58 -34.5 92.5t-79.5 34.5q-47 0 -83 -33t-45 -94h242zM446 108l31 -56q-33 -21 -54.5 -32.5t-58 -21t-78.5 -9.5q-107 0 -172 65.5t-65 179.5q0 107 59.5 177t159.5 70q96 0 145 -63.5t49 -185.5h-329q0 -74 41.5 -125t121.5 -51q64 0 150 52zM231 634
q0 -21 -14.5 -35.5t-35.5 -14.5t-35.5 14.5t-14.5 35.5q0 20 14.5 34.5t35.5 14.5t35.5 -14.5t14.5 -34.5zM413 634q0 -21 -14.5 -35.5t-35.5 -14.5t-35.5 14.5t-14.5 35.5q0 20 14.5 34.5t35.5 14.5t35.5 -14.5t14.5 -34.5z" />
    <glyph glyph-name="igrave" unicode="&#xec;" horiz-adv-x="232" 
d="M154 0h-76v471h76v-471zM155 562h-50l-110 134l83 36z" />
    <glyph glyph-name="iacute" unicode="&#xed;" horiz-adv-x="232" 
d="M154 0h-76v471h76v-471zM133 561h-50l77 170l83 -36z" />
    <glyph glyph-name="icircumflex" unicode="&#xee;" horiz-adv-x="232" 
d="M154 0h-76v471h76v-471zM267 591l-44 -30l-107 86l-109 -86l-42 30l123 124h55z" />
    <glyph glyph-name="idieresis" unicode="&#xef;" horiz-adv-x="232" 
d="M154 0h-76v471h76v-471zM75 634q0 -21 -14.5 -35.5t-35.5 -14.5t-35.5 14.5t-14.5 35.5q0 20 14.5 34.5t35.5 14.5t35.5 -14.5t14.5 -34.5zM257 634q0 -21 -14.5 -35.5t-35.5 -14.5t-35.5 14.5t-14.5 35.5q0 20 14.5 34.5t35.5 14.5t35.5 -14.5t14.5 -34.5z" />
    <glyph glyph-name="eth" unicode="&#xf0;" horiz-adv-x="585" 
d="M201 568l81 68l-73 80l49 39q51 -51 74 -76l78 66l33 -39l-76 -65q84 -96 126.5 -187.5t42.5 -192.5q0 -130 -67.5 -201t-180.5 -71q-105 0 -172 66t-67 164q0 106 67.5 172.5t166.5 66.5q48 0 88.5 -19t64.5 -53q-32 101 -121 211l-81 -68zM133 219q0 -73 41.5 -118
t113.5 -45q77 0 120 48.5t43 122.5q0 63 -44.5 113.5t-116.5 50.5q-71 0 -114 -45.5t-43 -126.5z" />
    <glyph glyph-name="ntilde" unicode="&#xf1;" horiz-adv-x="534" 
d="M463 0h-76v295q0 117 -83 117q-76 0 -152 -64v-348h-76v471h76v-56q35 25 53 36t49.5 20.5t67.5 9.5q64 0 102.5 -42t38.5 -116v-323zM432 698q-6 -119 -86 -119q-27 0 -79 23.5t-66 23.5q-39 0 -50 -46h-36q7 56 26.5 87t63.5 31q25 0 77 -24t66 -24q37 0 48 48h36z" />
    <glyph glyph-name="ograve" unicode="&#xf2;" horiz-adv-x="585" 
d="M454 234q0 91 -46 136t-115 45t-115 -45t-46 -135t46 -134.5t115 -44.5t115 44.5t46 133.5zM537 235q0 -108 -67.5 -177t-176.5 -69t-176.5 69t-67.5 177q0 109 67 177.5t177 68.5q109 0 176.5 -68.5t67.5 -177.5zM338 562h-50l-110 134l83 36z" />
    <glyph glyph-name="oacute" unicode="&#xf3;" horiz-adv-x="585" 
d="M454 234q0 91 -46 136t-115 45t-115 -45t-46 -135t46 -134.5t115 -44.5t115 44.5t46 133.5zM537 235q0 -108 -67.5 -177t-176.5 -69t-176.5 69t-67.5 177q0 109 67 177.5t177 68.5q109 0 176.5 -68.5t67.5 -177.5zM304 561h-50l77 170l83 -36z" />
    <glyph glyph-name="ocircumflex" unicode="&#xf4;" horiz-adv-x="585" 
d="M454 234q0 91 -46 136t-115 45t-115 -45t-46 -135t46 -134.5t115 -44.5t115 44.5t46 133.5zM537 235q0 -108 -67.5 -177t-176.5 -69t-176.5 69t-67.5 177q0 109 67 177.5t177 68.5q109 0 176.5 -68.5t67.5 -177.5zM443 591l-44 -30l-107 86l-109 -86l-42 30l123 124h55z
" />
    <glyph glyph-name="otilde" unicode="&#xf5;" horiz-adv-x="585" 
d="M454 234q0 91 -46 136t-115 45t-115 -45t-46 -135t46 -134.5t115 -44.5t115 44.5t46 133.5zM537 235q0 -108 -67.5 -177t-176.5 -69t-176.5 69t-67.5 177q0 109 67 177.5t177 68.5q109 0 176.5 -68.5t67.5 -177.5zM451 698q-6 -119 -86 -119q-27 0 -79 23.5t-66 23.5
q-38 0 -50 -46h-36q7 56 26.5 87t63.5 31q25 0 77 -24t66 -24q37 0 48 48h36z" />
    <glyph glyph-name="odieresis" unicode="&#xf6;" horiz-adv-x="585" 
d="M454 234q0 91 -46 136t-115 45t-115 -45t-46 -135t46 -134.5t115 -44.5t115 44.5t46 133.5zM537 235q0 -108 -67.5 -177t-176.5 -69t-176.5 69t-67.5 177q0 109 67 177.5t177 68.5q109 0 176.5 -68.5t67.5 -177.5zM253 634q0 -21 -14.5 -35.5t-35.5 -14.5t-35.5 14.5
t-14.5 35.5q0 20 14.5 34.5t35.5 14.5t35.5 -14.5t14.5 -34.5zM435 634q0 -21 -14.5 -35.5t-35.5 -14.5t-35.5 14.5t-14.5 35.5q0 20 14.5 34.5t35.5 14.5t35.5 -14.5t14.5 -34.5z" />
    <glyph glyph-name="divide" unicode="&#xf7;" 
d="M55 370h411v-67h-411v67zM261 204q22 0 37.5 -15.5t15.5 -37.5t-15.5 -38t-37.5 -16q-23 0 -39 16t-16 38t16 37.5t39 15.5zM261 575q22 0 37.5 -15.5t15.5 -38.5q0 -22 -15.5 -38t-37.5 -16t-38.5 16t-16.5 38q0 23 16 38.5t39 15.5z" />
    <glyph glyph-name="oslash" unicode="&#xf8;" horiz-adv-x="585" 
d="M537 235q0 -108 -67.5 -177t-176.5 -69q-79 0 -138 37l-46 -55l-43 38l45 54q-62 68 -62 172q0 109 67 177.5t177 68.5q76 0 135 -36l48 58l43 -38l-47 -56q65 -70 65 -174zM454 234q0 69 -31 116l-223 -269q40 -25 93 -25q69 0 115 44.5t46 133.5zM132 235
q0 -68 28 -112l222 267q-38 25 -89 25q-69 0 -115 -45t-46 -135z" />
    <glyph glyph-name="ugrave" unicode="&#xf9;" horiz-adv-x="534" 
d="M71 471h76v-295q0 -117 83 -117q75 0 151 65v347h77v-471h-77v57q-36 -26 -52.5 -36.5t-48.5 -21t-68 -10.5q-64 0 -102.5 42.5t-38.5 116.5v323zM312 562h-50l-110 134l83 36z" />
    <glyph glyph-name="uacute" unicode="&#xfa;" horiz-adv-x="534" 
d="M71 471h76v-295q0 -117 83 -117q75 0 151 65v347h77v-471h-77v57q-36 -26 -52.5 -36.5t-48.5 -21t-68 -10.5q-64 0 -102.5 42.5t-38.5 116.5v323zM273 561h-50l77 170l83 -36z" />
    <glyph glyph-name="ucircumflex" unicode="&#xfb;" horiz-adv-x="534" 
d="M71 471h76v-295q0 -117 83 -117q75 0 151 65v347h77v-471h-77v57q-36 -26 -52.5 -36.5t-48.5 -21t-68 -10.5q-64 0 -102.5 42.5t-38.5 116.5v323zM421 591l-44 -30l-107 86l-109 -86l-42 30l123 124h55z" />
    <glyph glyph-name="udieresis" unicode="&#xfc;" horiz-adv-x="534" 
d="M71 471h76v-295q0 -117 83 -117q75 0 151 65v347h77v-471h-77v57q-36 -26 -52.5 -36.5t-48.5 -21t-68 -10.5q-64 0 -102.5 42.5t-38.5 116.5v323zM227 634q0 -21 -14.5 -35.5t-35.5 -14.5t-35.5 14.5t-14.5 35.5q0 20 14.5 34.5t35.5 14.5t35.5 -14.5t14.5 -34.5z
M409 634q0 -21 -14.5 -35.5t-35.5 -14.5t-35.5 14.5t-14.5 35.5q0 20 14.5 34.5t35.5 14.5t35.5 -14.5t14.5 -34.5z" />
    <glyph glyph-name="yacute" unicode="&#xfd;" horiz-adv-x="452" 
d="M446 471l-316 -741h-95q75 118 134 255l22 52l-180 434h84l136 -341l138 341h77zM235 561h-50l77 170l83 -36z" />
    <glyph glyph-name="thorn" unicode="&#xfe;" horiz-adv-x="571" 
d="M152 355v-246q60 -52 136 -52q66 0 108 49.5t42 131.5q0 83 -36 130t-109 47q-83 0 -141 -60zM152 730v-311q23 24 63.5 43t87.5 19q99 0 159 -61.5t60 -174.5q0 -106 -64.5 -181t-164.5 -75q-87 0 -141 44v-295l-76 -7v991z" />
    <glyph glyph-name="ydieresis" unicode="&#xff;" horiz-adv-x="452" 
d="M446 471l-316 -741h-95q75 118 134 255l22 52l-180 434h84l136 -341l138 341h77zM193 634q0 -21 -14.5 -35.5t-35.5 -14.5t-35.5 14.5t-14.5 35.5q0 20 14.5 34.5t35.5 14.5t35.5 -14.5t14.5 -34.5zM375 634q0 -21 -14.5 -35.5t-35.5 -14.5t-35.5 14.5t-14.5 35.5
q0 20 14.5 34.5t35.5 14.5t35.5 -14.5t14.5 -34.5z" />
    <glyph glyph-name="Amacron" unicode="&#x100;" horiz-adv-x="599" 
d="M405 281l-106 304h-2l-108 -304h216zM10 0l260 692h67l252 -692h-84l-78 215h-260l-77 -215h-80zM148 764v72h302v-72h-302z" />
    <glyph glyph-name="amacron" unicode="&#x101;" horiz-adv-x="476" 
d="M303 115v128q-108 -25 -146.5 -50.5t-38.5 -70.5q0 -30 19 -48.5t49 -18.5q26 0 61 17t56 43zM453 67l16 -52q-38 -26 -75 -26q-66 0 -79 67q-72 -67 -142 -67q-57 0 -94 34t-37 96t42.5 98t129.5 59l89 23v18q0 98 -79 98q-51 0 -134 -53l-30 63q94 60 175 60
q61 0 102.5 -39t41.5 -117v-199q0 -39 7.5 -58.5t27.5 -19.5q10 0 39 15zM100 610v72h262v-72h-262z" />
    <glyph glyph-name="Abreve" unicode="&#x102;" horiz-adv-x="599" 
d="M405 281l-106 304h-2l-108 -304h216zM10 0l260 692h67l252 -692h-84l-78 215h-260l-77 -215h-80zM441 875q0 -47 -36 -86t-103 -39q-64 0 -101.5 35.5t-37.5 89.5h42q21 -58 97 -58q38 0 64 15.5t30 42.5h45z" />
    <glyph glyph-name="abreve" unicode="&#x103;" horiz-adv-x="476" 
d="M303 115v128q-108 -25 -146.5 -50.5t-38.5 -70.5q0 -30 19 -48.5t49 -18.5q26 0 61 17t56 43zM453 67l16 -52q-38 -26 -75 -26q-66 0 -79 67q-72 -67 -142 -67q-57 0 -94 34t-37 96t42.5 98t129.5 59l89 23v18q0 98 -79 98q-51 0 -134 -53l-30 63q94 60 175 60
q61 0 102.5 -39t41.5 -117v-199q0 -39 7.5 -58.5t27.5 -19.5q10 0 39 15zM374 705q0 -51 -35 -93t-104 -42q-64 0 -101.5 38.5t-37.5 96.5h42q21 -68 97 -68q38 0 64 18t30 50h45z" />
    <glyph glyph-name="Aogonek" unicode="&#x104;" horiz-adv-x="599" 
d="M610 -141l22 -55q-44 -26 -88 -26q-48 0 -77 28.5t-29 74.5q0 72 66 122l-77 212h-260l-77 -215h-80l260 692h67l252 -692h-21q-28 -18 -46.5 -45t-18.5 -57q0 -56 50 -56q25 0 57 17zM405 281l-106 304h-2l-108 -304h216z" />
    <glyph glyph-name="aogonek" unicode="&#x105;" horiz-adv-x="476" 
d="M451 -141l22 -55q-44 -26 -88 -26q-48 0 -77 28.5t-29 74.5q0 71 65 122q-23 17 -29 53q-72 -67 -142 -67q-57 0 -94 34t-37 96t42.5 98t129.5 59l89 23v18q0 98 -79 98q-51 0 -134 -53l-30 63q94 60 175 60q61 0 102.5 -39t41.5 -117v-199q0 -39 7.5 -58.5t27.5 -19.5
q10 0 39 15l16 -52q-38 -26 -75 -26q-50 -41 -50 -91q0 -56 50 -56q25 0 57 17zM303 115v128q-108 -25 -146.5 -50.5t-38.5 -70.5q0 -30 19 -48.5t49 -18.5q26 0 61 17t56 43z" />
    <glyph glyph-name="Cacute" unicode="&#x106;" horiz-adv-x="660" 
d="M579 659l-26 -70q-70 39 -152 39q-121 0 -191 -78.5t-70 -197.5q0 -131 71 -209.5t188 -78.5q97 0 186 60l36 -61q-104 -74 -223 -74q-156 0 -249.5 100t-93.5 253q0 156 95 258t251 102q96 0 178 -43zM378 741h-63l144 149l65 -63z" />
    <glyph glyph-name="cacute" unicode="&#x107;" horiz-adv-x="478" 
d="M422 104l34 -50q-72 -68 -168 -68q-115 0 -177 70t-62 190q0 107 64 173t165 66q90 0 149 -50l-37 -56q-48 40 -111 40q-67 0 -107 -46t-40 -129q0 -85 42 -138.5t115 -53.5q67 0 133 52zM276 561h-50l77 170l83 -36z" />
    <glyph glyph-name="Ccircumflex" unicode="&#x108;" horiz-adv-x="660" 
d="M579 659l-26 -70q-70 39 -152 39q-121 0 -191 -78.5t-70 -197.5q0 -131 71 -209.5t188 -78.5q97 0 186 60l36 -61q-104 -74 -223 -74q-156 0 -249.5 100t-93.5 253q0 156 95 258t251 102q96 0 178 -43zM536 771l-44 -30l-117 76l-119 -76l-42 30l133 114h55z" />
    <glyph glyph-name="ccircumflex" unicode="&#x109;" horiz-adv-x="478" 
d="M422 104l34 -50q-72 -68 -168 -68q-115 0 -177 70t-62 190q0 107 64 173t165 66q90 0 149 -50l-37 -56q-48 40 -111 40q-67 0 -107 -46t-40 -129q0 -85 42 -138.5t115 -53.5q67 0 133 52zM418 591l-44 -30l-107 86l-109 -86l-42 30l123 124h55z" />
    <glyph glyph-name="Cdotaccent" unicode="&#x10a;" horiz-adv-x="660" 
d="M579 659l-26 -70q-70 39 -152 39q-121 0 -191 -78.5t-70 -197.5q0 -131 71 -209.5t188 -78.5q97 0 186 60l36 -61q-104 -74 -223 -74q-156 0 -249.5 100t-93.5 253q0 156 95 258t251 102q96 0 178 -43zM441 813q0 -23 -17 -40.5t-40 -17.5t-40.5 17.5t-17.5 40.5
t17.5 39.5t40.5 16.5t40 -16.5t17 -39.5z" />
    <glyph glyph-name="cdotaccent" unicode="&#x10b;" horiz-adv-x="478" 
d="M422 104l34 -50q-72 -68 -168 -68q-115 0 -177 70t-62 190q0 107 64 173t165 66q90 0 149 -50l-37 -56q-48 40 -111 40q-67 0 -107 -46t-40 -129q0 -85 42 -138.5t115 -53.5q67 0 133 52zM327 643q0 -23 -17 -40.5t-40 -17.5t-40.5 17.5t-17.5 40.5t17.5 39.5t40.5 16.5
t40 -16.5t17 -39.5z" />
    <glyph glyph-name="Ccaron" unicode="&#x10c;" horiz-adv-x="660" 
d="M579 659l-26 -70q-70 39 -152 39q-121 0 -191 -78.5t-70 -197.5q0 -131 71 -209.5t188 -78.5q97 0 186 60l36 -61q-104 -74 -223 -74q-156 0 -249.5 100t-93.5 253q0 156 95 258t251 102q96 0 178 -43zM507 897l41 -32l-134 -114h-55l-133 114l38 32l123 -78z" />
    <glyph glyph-name="ccaron" unicode="&#x10d;" horiz-adv-x="478" 
d="M422 104l34 -50q-72 -68 -168 -68q-115 0 -177 70t-62 190q0 107 64 173t165 66q90 0 149 -50l-37 -56q-48 40 -111 40q-67 0 -107 -46t-40 -129q0 -85 42 -138.5t115 -53.5q67 0 133 52zM376 725l44 -30l-124 -124h-55l-123 124l42 30l109 -86z" />
    <glyph glyph-name="Dcaron" unicode="&#x10e;" horiz-adv-x="700" 
d="M560 342q0 140 -78.5 211.5t-218.5 71.5h-102v-558h81q169 0 243.5 71t74.5 204zM645 350q0 -162 -93.5 -256t-264.5 -94h-206v692h211q154 0 253.5 -91t99.5 -251zM431 897l41 -32l-134 -114h-55l-133 114l38 32l123 -78z" />
    <glyph glyph-name="dcaron" unicode="&#x10f;" horiz-adv-x="636" 
d="M419 124v234q-49 57 -136 57q-66 0 -108.5 -51.5t-42.5 -133.5q0 -75 36 -124.5t108 -49.5q81 0 143 68zM431 0l-12 59q-66 -70 -153 -70q-96 0 -156.5 66t-60.5 179q0 105 63.5 176t164.5 71q88 0 142 -42v283l76 8v-730h-64zM594 529l-38 30q30 33 30.5 68.5
t-24.5 59.5q0 21 15.5 32t33.5 11q26 0 40.5 -16t14.5 -40q0 -39 -22.5 -79t-49.5 -66z" />
    <glyph glyph-name="Dcroat" unicode="&#x110;" horiz-adv-x="700" 
d="M645 350q0 -162 -93.5 -256t-264.5 -94h-206v313h-58v71h58v308h211q154 0 253.5 -91t99.5 -251zM334 384v-71h-173v-246h81q169 0 243.5 71t74.5 204q0 140 -78.5 211.5t-218.5 71.5h-102v-241h173z" />
    <glyph glyph-name="dcroat" unicode="&#x111;" horiz-adv-x="571" 
d="M549 628v-59h-54v-569h-64l-12 59q-66 -70 -153 -70q-96 0 -156.5 66t-60.5 179q0 105 63.5 176t164.5 71q88 0 142 -42v130h-121v59h121v94l76 8v-102h54zM419 124v234q-48 56 -136 56q-66 0 -108.5 -51t-42.5 -133q0 -75 36 -124.5t108 -49.5q81 0 143 68z" />
    <glyph glyph-name="Emacron" unicode="&#x112;" horiz-adv-x="504" 
d="M447 0h-366v692h367l-10 -67h-277v-238h239v-67h-239v-253h296zM115 764v72h302v-72h-302z" />
    <glyph glyph-name="emacron" unicode="&#x113;" horiz-adv-x="514" 
d="M379 292q-5 58 -34.5 92.5t-79.5 34.5q-47 0 -83 -33t-45 -94h242zM446 108l31 -56q-33 -21 -54.5 -32.5t-58 -21t-78.5 -9.5q-107 0 -172 65.5t-65 179.5q0 107 59.5 177t159.5 70q96 0 145 -63.5t49 -185.5h-329q0 -74 41.5 -125t121.5 -51q64 0 150 52zM136 610v72
h262v-72h-262z" />
    <glyph glyph-name="Ebreve" unicode="&#x114;" horiz-adv-x="504" 
d="M447 0h-366v692h367l-10 -67h-277v-238h239v-67h-239v-253h296zM403 875q0 -47 -36 -86t-103 -39q-64 0 -101.5 35.5t-37.5 89.5h42q21 -58 97 -58q38 0 64 15.5t30 42.5h45z" />
    <glyph glyph-name="ebreve" unicode="&#x115;" horiz-adv-x="514" 
d="M379 292q-5 58 -34.5 92.5t-79.5 34.5q-47 0 -83 -33t-45 -94h242zM446 108l31 -56q-33 -21 -54.5 -32.5t-58 -21t-78.5 -9.5q-107 0 -172 65.5t-65 179.5q0 107 59.5 177t159.5 70q96 0 145 -63.5t49 -185.5h-329q0 -74 41.5 -125t121.5 -51q64 0 150 52zM411 705
q0 -51 -35 -93t-104 -42q-64 0 -101.5 38.5t-37.5 96.5h42q21 -68 97 -68q38 0 64 18t30 50h45z" />
    <glyph glyph-name="Edotaccent" unicode="&#x116;" horiz-adv-x="504" 
d="M447 0h-366v692h367l-10 -67h-277v-238h239v-67h-239v-253h296zM325 813q0 -23 -17 -40.5t-40 -17.5t-40.5 17.5t-17.5 40.5t17.5 39.5t40.5 16.5t40 -16.5t17 -39.5z" />
    <glyph glyph-name="edotaccent" unicode="&#x117;" horiz-adv-x="514" 
d="M379 292q-5 58 -34.5 92.5t-79.5 34.5q-47 0 -83 -33t-45 -94h242zM446 108l31 -56q-33 -21 -54.5 -32.5t-58 -21t-78.5 -9.5q-107 0 -172 65.5t-65 179.5q0 107 59.5 177t159.5 70q96 0 145 -63.5t49 -185.5h-329q0 -74 41.5 -125t121.5 -51q64 0 150 52zM329 643
q0 -23 -17 -40.5t-40 -17.5t-40.5 17.5t-17.5 40.5t17.5 39.5t40.5 16.5t40 -16.5t17 -39.5z" />
    <glyph glyph-name="Eogonek" unicode="&#x118;" horiz-adv-x="504" 
d="M446 -141l22 -55q-44 -26 -88 -26q-48 0 -77 28.5t-29 74.5q0 68 61 119h-254v692h367l-10 -67h-277v-238h239v-67h-239v-253h296l-10 -67h-43q-28 -18 -46.5 -45t-18.5 -57q0 -56 50 -56q25 0 57 17z" />
    <glyph glyph-name="eogonek" unicode="&#x119;" horiz-adv-x="514" 
d="M423 -141l22 -55q-44 -26 -88 -26q-48 0 -77 28.5t-29 74.5q0 59 49 108h-14q-107 0 -172 65.5t-65 179.5q0 107 59.5 177t159.5 70q96 0 145 -63.5t49 -185.5h-329q0 -74 41.5 -125t121.5 -51q64 0 150 52l31 -56q-48 -32 -85 -45q-31 -17 -53.5 -47t-22.5 -62
q0 -56 50 -56q25 0 57 17zM379 292q-5 58 -34.5 92.5t-79.5 34.5q-47 0 -83 -33t-45 -94h242z" />
    <glyph glyph-name="Ecaron" unicode="&#x11a;" horiz-adv-x="504" 
d="M447 0h-366v692h367l-10 -67h-277v-238h239v-67h-239v-253h296zM388 897l41 -32l-134 -114h-55l-133 114l38 32l123 -78z" />
    <glyph glyph-name="ecaron" unicode="&#x11b;" horiz-adv-x="514" 
d="M379 292q-5 58 -34.5 92.5t-79.5 34.5q-47 0 -83 -33t-45 -94h242zM446 108l31 -56q-33 -21 -54.5 -32.5t-58 -21t-78.5 -9.5q-107 0 -172 65.5t-65 179.5q0 107 59.5 177t159.5 70q96 0 145 -63.5t49 -185.5h-329q0 -74 41.5 -125t121.5 -51q64 0 150 52zM374 725
l44 -30l-124 -124h-55l-123 124l42 30l109 -86z" />
    <glyph glyph-name="Gcircumflex" unicode="&#x11c;" horiz-adv-x="718" 
d="M611 654l-29 -67q-79 41 -169 41q-121 0 -197 -79.5t-76 -196.5q0 -132 81 -210t190 -78q101 0 161 36v169h-159v71h239v-275q-105 -76 -241 -76q-159 0 -257.5 102.5t-98.5 250.5q0 154 101.5 257t257.5 103q110 0 197 -48zM560 771l-44 -30l-117 76l-119 -76l-42 30
l133 114h55z" />
    <glyph glyph-name="gcircumflex" unicode="&#x11d;" horiz-adv-x="517" 
d="M404 -130q0 15 -10.5 26.5t-32 20t-43 14.5l-54.5 15t-55 16q-50 -14 -78 -38t-28 -52q0 -79 155 -79q65 0 105.5 22.5t40.5 54.5zM369 302q0 57 -33 89t-89 32q-53 0 -86.5 -30t-33.5 -82q0 -57 36 -92.5t86 -35.5t85 32t35 87zM481 411h-63q31 -53 31 -109
q0 -37 -12 -66t-28.5 -46t-41.5 -30.5t-42 -18.5t-38.5 -10t-24.5 -6q-76 -22 -76 -57q0 -11 9 -19.5t32 -16t37.5 -11.5t48.5 -12q35 -8 61.5 -17t53.5 -24t41.5 -37.5t14.5 -51.5q0 -70 -66 -109.5t-171 -39.5q-103 0 -163 35t-60 97q0 38 35 71t95 55q-47 26 -47 63
q0 49 80 77v2q-140 41 -140 174q0 71 49 124t147 53q55 0 95 -10h155zM401 591l-44 -30l-107 86l-109 -86l-42 30l123 124h55z" />
    <glyph glyph-name="Gbreve" unicode="&#x11e;" horiz-adv-x="718" 
d="M611 654l-29 -67q-79 41 -169 41q-121 0 -197 -79.5t-76 -196.5q0 -132 81 -210t190 -78q101 0 161 36v169h-159v71h239v-275q-105 -76 -241 -76q-159 0 -257.5 102.5t-98.5 250.5q0 154 101.5 257t257.5 103q110 0 197 -48zM534 875q0 -47 -36 -86t-103 -39
q-64 0 -101.5 35.5t-37.5 89.5h42q21 -58 97 -58q38 0 64 15.5t30 42.5h45z" />
    <glyph glyph-name="gbreve" unicode="&#x11f;" horiz-adv-x="517" 
d="M404 -130q0 15 -10.5 26.5t-32 20t-43 14.5l-54.5 15t-55 16q-50 -14 -78 -38t-28 -52q0 -79 155 -79q65 0 105.5 22.5t40.5 54.5zM369 302q0 57 -33 89t-89 32q-53 0 -86.5 -30t-33.5 -82q0 -57 36 -92.5t86 -35.5t85 32t35 87zM481 411h-63q31 -53 31 -109
q0 -37 -12 -66t-28.5 -46t-41.5 -30.5t-42 -18.5t-38.5 -10t-24.5 -6q-76 -22 -76 -57q0 -11 9 -19.5t32 -16t37.5 -11.5t48.5 -12q35 -8 61.5 -17t53.5 -24t41.5 -37.5t14.5 -51.5q0 -70 -66 -109.5t-171 -39.5q-103 0 -163 35t-60 97q0 38 35 71t95 55q-47 26 -47 63
q0 49 80 77v2q-140 41 -140 174q0 71 49 124t147 53q55 0 95 -10h155zM387 705q0 -51 -35 -93t-104 -42q-64 0 -101.5 38.5t-37.5 96.5h42q21 -68 97 -68q38 0 64 18t30 50h45z" />
    <glyph glyph-name="Gdotaccent" unicode="&#x120;" horiz-adv-x="718" 
d="M611 654l-29 -67q-79 41 -169 41q-121 0 -197 -79.5t-76 -196.5q0 -132 81 -210t190 -78q101 0 161 36v169h-159v71h239v-275q-105 -76 -241 -76q-159 0 -257.5 102.5t-98.5 250.5q0 154 101.5 257t257.5 103q110 0 197 -48zM461 813q0 -23 -17 -40.5t-40 -17.5
t-40.5 17.5t-17.5 40.5t17.5 39.5t40.5 16.5t40 -16.5t17 -39.5z" />
    <glyph glyph-name="gdotaccent" unicode="&#x121;" horiz-adv-x="517" 
d="M404 -130q0 15 -10.5 26.5t-32 20t-43 14.5l-54.5 15t-55 16q-50 -14 -78 -38t-28 -52q0 -79 155 -79q65 0 105.5 22.5t40.5 54.5zM369 302q0 57 -33 89t-89 32q-53 0 -86.5 -30t-33.5 -82q0 -57 36 -92.5t86 -35.5t85 32t35 87zM481 411h-63q31 -53 31 -109
q0 -37 -12 -66t-28.5 -46t-41.5 -30.5t-42 -18.5t-38.5 -10t-24.5 -6q-76 -22 -76 -57q0 -11 9 -19.5t32 -16t37.5 -11.5t48.5 -12q35 -8 61.5 -17t53.5 -24t41.5 -37.5t14.5 -51.5q0 -70 -66 -109.5t-171 -39.5q-103 0 -163 35t-60 97q0 38 35 71t95 55q-47 26 -47 63
q0 49 80 77v2q-140 41 -140 174q0 71 49 124t147 53q55 0 95 -10h155zM308 643q0 -23 -17 -40.5t-40 -17.5t-40.5 17.5t-17.5 40.5t17.5 39.5t40.5 16.5t40 -16.5t17 -39.5z" />
    <glyph glyph-name="Gcommaaccent" unicode="&#x122;" horiz-adv-x="718" 
d="M611 654l-29 -67q-79 41 -169 41q-121 0 -197 -79.5t-76 -196.5q0 -132 81 -210t190 -78q101 0 161 36v169h-159v71h239v-275q-105 -76 -241 -76q-159 0 -257.5 102.5t-98.5 250.5q0 154 101.5 257t257.5 103q110 0 197 -48zM389 -250l-40 31q27 33 26 56t-27 49
q0 21 14 34t35 13q28 0 42 -16.5t14 -42.5q0 -34 -19 -69t-45 -55z" />
    <glyph glyph-name="gcommaaccent" unicode="&#x123;" horiz-adv-x="517" 
d="M404 -130q0 15 -10.5 26.5t-32 20t-43 14.5l-54.5 15t-55 16q-50 -14 -78 -38t-28 -52q0 -79 155 -79q65 0 105.5 22.5t40.5 54.5zM369 302q0 57 -33 89t-89 32q-53 0 -86.5 -30t-33.5 -82q0 -57 36 -92.5t86 -35.5t85 32t35 87zM481 411h-63q31 -53 31 -109
q0 -37 -12 -66t-28.5 -46t-41.5 -30.5t-42 -18.5t-38.5 -10t-24.5 -6q-76 -22 -76 -57q0 -11 9 -19.5t32 -16t37.5 -11.5t48.5 -12q35 -8 61.5 -17t53.5 -24t41.5 -37.5t14.5 -51.5q0 -70 -66 -109.5t-171 -39.5q-103 0 -163 35t-60 97q0 38 35 71t95 55q-47 26 -47 63
q0 49 80 77v2q-140 41 -140 174q0 71 49 124t147 53q55 0 95 -10h155zM260 736l40 -31q-58 -47 1 -105q0 -20 -15 -33.5t-34 -13.5q-28 0 -42 16.5t-14 42.5q0 34 19 69t45 55z" />
    <glyph glyph-name="Hcircumflex" unicode="&#x124;" horiz-adv-x="684" 
d="M603 0h-80v313h-362v-313h-80v692h80v-308h362v308h80v-692zM503 771l-44 -30l-117 76l-119 -76l-42 30l133 114h55z" />
    <glyph glyph-name="hcircumflex" unicode="&#x125;" horiz-adv-x="534" 
d="M463 0h-76v295q0 117 -83 117q-76 0 -152 -64v-348h-76v722l76 8v-315q48 34 84 50t86 16q62 0 101.5 -41t39.5 -118v-322zM428 801l-44 -30l-117 76l-119 -76l-42 30l133 114h55z" />
    <glyph glyph-name="Hbar" unicode="&#x126;" horiz-adv-x="684" 
d="M603 0h-80v313h-362v-313h-80v504h-58v66h58v122h80v-122h362v122h80v-122h58v-66h-58v-504zM161 384h362v120h-362v-120z" />
    <glyph glyph-name="hbar" unicode="&#x127;" horiz-adv-x="534" 
d="M273 628v-59h-121v-154q48 34 84 50t86 16q62 0 101.5 -41t39.5 -118v-322h-76v295q0 117 -83 117q-76 0 -152 -64v-348h-76v569h-54v59h54v94l76 8v-102h121z" />
    <glyph glyph-name="Itilde" unicode="&#x128;" horiz-adv-x="243" 
d="M161 0h-80v692h80v-692zM280 873q-6 -119 -87 -119q-27 0 -78 23.5t-66 23.5q-39 0 -50 -46h-36q7 56 26.5 87t63.5 31q25 0 77 -24t67 -24q36 0 47 48h36z" />
    <glyph glyph-name="itilde" unicode="&#x129;" horiz-adv-x="232" 
d="M154 0h-76v471h76v-471zM275 698q-6 -119 -86 -119q-27 0 -79 23.5t-66 23.5q-38 0 -50 -46h-36q7 56 26.5 87t63.5 31q25 0 77 -24t66 -24q37 0 48 48h36z" />
    <glyph glyph-name="Imacron" unicode="&#x12a;" horiz-adv-x="243" 
d="M161 0h-80v692h80v-692zM-29 764v72h302v-72h-302z" />
    <glyph glyph-name="imacron" unicode="&#x12b;" horiz-adv-x="232" 
d="M154 0h-76v471h76v-471zM-15 610v72h262v-72h-262z" />
    <glyph glyph-name="Ibreve" unicode="&#x12c;" horiz-adv-x="243" 
d="M161 0h-80v692h80v-692zM261 875q0 -47 -36 -86t-103 -39q-64 0 -101.5 35.5t-37.5 89.5h42q21 -58 97 -58q38 0 64 15.5t30 42.5h45z" />
    <glyph glyph-name="ibreve" unicode="&#x12d;" horiz-adv-x="232" 
d="M154 0h-76v471h76v-471zM255 705q0 -51 -35 -93t-104 -42q-64 0 -101.5 38.5t-37.5 96.5h42q21 -68 97 -68q38 0 64 18t30 50h45z" />
    <glyph glyph-name="Iogonek" unicode="&#x12e;" horiz-adv-x="243" 
d="M189 -141l22 -55q-44 -26 -88 -26q-48 0 -77 28.5t-29 74.5q0 71 64 121v690h80v-692h-14q-28 -18 -46.5 -45t-18.5 -57q0 -56 50 -56q25 0 57 17z" />
    <glyph glyph-name="iogonek" unicode="&#x12f;" horiz-adv-x="232" 
d="M182 -141l22 -55q-44 -26 -88 -26q-48 0 -77 28.5t-29 74.5q0 72 68 124v466h76v-471h-14q-28 -18 -46.5 -45t-18.5 -57q0 -56 50 -56q25 0 57 17zM166 633q0 -21 -14.5 -35.5t-35.5 -14.5t-35.5 14.5t-14.5 35.5q0 20 14.5 34.5t35.5 14.5t35.5 -14.5t14.5 -34.5z" />
    <glyph glyph-name="Idotaccent" unicode="&#x130;" horiz-adv-x="243" 
d="M161 0h-80v692h80v-692zM179 813q0 -23 -17 -40.5t-40 -17.5t-40.5 17.5t-17.5 40.5t17.5 39.5t40.5 16.5t40 -16.5t17 -39.5z" />
    <glyph glyph-name="dotlessi" unicode="&#x131;" horiz-adv-x="232" 
d="M154 0h-76v471h76v-471z" />
    <glyph glyph-name="Jcircumflex" unicode="&#x134;" horiz-adv-x="243" 
d="M-53 -195l-23 65q85 9 121.5 56.5t36.5 143.5v622h80v-615q0 -123 -48 -192.5t-167 -79.5zM283 771l-44 -30l-117 76l-119 -76l-42 30l133 114h55z" />
    <glyph glyph-name="jcircumflex" unicode="&#x135;" horiz-adv-x="234" 
d="M156 -26q0 -97 -30 -152.5t-107 -91.5l-31 52l19.5 13t25.5 20t22 26.5t19 43.5t6 60v526h76v-497zM268 591l-44 -30l-107 86l-109 -86l-42 30l123 124h55z" />
    <glyph glyph-name="Kcommaaccent" unicode="&#x136;" horiz-adv-x="582" 
d="M566 0h-102l-303 356v-356h-80v692h80v-330l315 330h95l-318 -327zM289 -250l-40 31q27 33 26 56t-27 49q0 21 14 34t35 13q28 0 42 -16.5t14 -42.5q0 -34 -19 -69t-45 -55z" />
    <glyph glyph-name="kcommaaccent" unicode="&#x137;" horiz-adv-x="477" 
d="M467 0h-98l-217 246v-246h-76v722l76 8v-477l208 218h95l-215 -219zM233 -250l-40 31q27 33 26 56t-27 49q0 21 14 34t35 13q28 0 42 -16.5t14 -42.5q0 -34 -19 -69t-45 -55z" />
    <glyph glyph-name="kgreenlandic" unicode="&#x138;" horiz-adv-x="479" 
d="M469 0h-98l-217 246v-246h-76v471h76v-218l208 218h95l-215 -219z" />
    <glyph glyph-name="Lacute" unicode="&#x139;" horiz-adv-x="485" 
d="M453 0h-372v692h80v-625h302zM208 741h-63l144 149l65 -63z" />
    <glyph glyph-name="lacute" unicode="&#x13a;" horiz-adv-x="228" 
d="M152 0h-76v722l76 8v-730zM127 771h-63l144 149l65 -63z" />
    <glyph glyph-name="Lcommaaccent" unicode="&#x13b;" horiz-adv-x="485" 
d="M453 0h-372v692h80v-625h302zM261 -250l-40 31q27 33 26 56t-27 49q0 21 14 34t35 13q28 0 42 -16.5t14 -42.5q0 -34 -19 -69t-45 -55z" />
    <glyph glyph-name="lcommaaccent" unicode="&#x13c;" horiz-adv-x="228" 
d="M152 0h-76v722l76 8v-730zM103 -250l-40 31q27 33 26 56t-27 49q0 21 14 34t35 13q28 0 42 -16.5t14 -42.5q0 -34 -19 -69t-45 -55z" />
    <glyph glyph-name="Lcaron" unicode="&#x13d;" horiz-adv-x="485" 
d="M453 0h-372v692h80v-625h302zM319 491l-38 30q30 33 30.5 68.5t-24.5 59.5q0 21 15.5 32t33.5 11q26 0 40.5 -16t14.5 -40q0 -39 -22.5 -79t-49.5 -66z" />
    <glyph glyph-name="lcaron" unicode="&#x13e;" horiz-adv-x="289" 
d="M152 0h-76v722l76 8v-730zM247 529l-38 30q30 33 30.5 68.5t-24.5 59.5q0 21 15.5 32t33.5 11q26 0 40.5 -16t14.5 -40q0 -39 -22.5 -79t-49.5 -66z" />
    <glyph glyph-name="Ldot" unicode="&#x13f;" horiz-adv-x="485" 
d="M453 0h-372v692h80v-625h302zM396 375q0 -22 -16 -38.5t-38 -16.5q-23 0 -38.5 16t-15.5 39q0 22 15.5 37.5t38.5 15.5q22 0 38 -15.5t16 -37.5z" />
    <glyph glyph-name="ldot" unicode="&#x140;" horiz-adv-x="300" 
d="M152 0h-76v722l76 8v-730zM299 344q0 -22 -16 -38.5t-38 -16.5q-23 0 -38.5 16t-15.5 39q0 22 15.5 37.5t38.5 15.5q22 0 38 -15.5t16 -37.5z" />
    <glyph glyph-name="Lslash" unicode="&#x141;" horiz-adv-x="485" 
d="M81 0v256l-58 -44v76l58 44v360h80v-298l123 94v-76l-123 -94v-251h302l-10 -67h-372z" />
    <glyph glyph-name="lslash" unicode="&#x142;" horiz-adv-x="228" 
d="M76 0v270l-53 -52v75l53 52v377l76 8v-310l53 53v-75l-53 -53v-345h-76z" />
    <glyph glyph-name="Nacute" unicode="&#x143;" horiz-adv-x="719" 
d="M638 692v-692h-63l-417 568h-2v-568h-75v692h83l397 -543h2v543h75zM373 741h-63l144 149l65 -63z" />
    <glyph glyph-name="nacute" unicode="&#x144;" horiz-adv-x="534" 
d="M463 0h-76v295q0 117 -83 117q-76 0 -152 -64v-348h-76v471h76v-56q35 25 53 36t49.5 20.5t67.5 9.5q64 0 102.5 -42t38.5 -116v-323zM277 561h-50l77 170l83 -36z" />
    <glyph glyph-name="Ncommaaccent" unicode="&#x145;" horiz-adv-x="719" 
d="M638 692v-692h-63l-417 568h-2v-568h-75v692h83l397 -543h2v543h75zM348 -250l-40 31q27 33 26 56t-27 49q0 21 14 34t35 13q28 0 42 -16.5t14 -42.5q0 -34 -19 -69t-45 -55z" />
    <glyph glyph-name="ncommaaccent" unicode="&#x146;" horiz-adv-x="534" 
d="M463 0h-76v295q0 117 -83 117q-76 0 -152 -64v-348h-76v471h76v-56q35 25 53 36t49.5 20.5t67.5 9.5q64 0 102.5 -42t38.5 -116v-323zM259 -250l-40 31q27 33 26 56t-27 49q0 21 14 34t35 13q28 0 42 -16.5t14 -42.5q0 -34 -19 -69t-45 -55z" />
    <glyph glyph-name="Ncaron" unicode="&#x147;" horiz-adv-x="719" 
d="M638 692v-692h-63l-417 568h-2v-568h-75v692h83l397 -543h2v543h75zM487 897l41 -32l-134 -114h-55l-133 114l38 32l123 -78z" />
    <glyph glyph-name="ncaron" unicode="&#x148;" horiz-adv-x="534" 
d="M463 0h-76v295q0 117 -83 117q-76 0 -152 -64v-348h-76v471h76v-56q35 25 53 36t49.5 20.5t67.5 9.5q64 0 102.5 -42t38.5 -116v-323zM384 725l44 -30l-124 -124h-55l-123 124l42 30l109 -86z" />
    <glyph glyph-name="napostrophe" unicode="&#x149;" horiz-adv-x="564" 
d="M493 0h-76v295q0 117 -83 117q-76 0 -152 -64v-348h-76v471h76v-56q35 25 53 36t49.5 20.5t67.5 9.5q64 0 102.5 -42t38.5 -116v-323zM28 499l-38 30q30 40 30.5 83.5t-24.5 74.5q0 21 15.5 32t33.5 11q26 0 40.5 -16t14.5 -40q0 -47 -22.5 -95t-49.5 -80z" />
    <glyph glyph-name="Eng" unicode="&#x14a;" horiz-adv-x="719" 
d="M638 692v-615q0 -123 -48 -192.5t-167 -79.5l-23 65q75 8 113.5 45t46.5 108l-402 545h-2v-568h-75v692h83l397 -543h2v543h75z" />
    <glyph glyph-name="eng" unicode="&#x14b;" horiz-adv-x="534" 
d="M463 -26q0 -97 -30 -152.5t-107 -91.5l-31 52l19.5 13t25.5 20t22 26.5t19 43.5t6 60v350q0 117 -83 117q-76 0 -152 -64v-348h-76v471h76v-56q35 25 53 36t49.5 20.5t67.5 9.5q64 0 102.5 -42t38.5 -116v-349z" />
    <glyph glyph-name="Omacron" unicode="&#x14c;" horiz-adv-x="768" 
d="M628 352q0 134 -71.5 205t-172.5 71q-107 0 -175.5 -71.5t-68.5 -211.5q0 -132 67.5 -206.5t176.5 -74.5q115 0 179.5 74.5t64.5 213.5zM713 346q0 -65 -19.5 -126t-57.5 -114t-103.5 -85t-148.5 -32q-68 0 -124 21.5t-93.5 57t-63 82t-37 96t-11.5 100.5q0 147 87 251.5
t242 104.5q81 0 145 -30.5t103.5 -81t60 -113.5t20.5 -131zM233 764v72h302v-72h-302z" />
    <glyph glyph-name="omacron" unicode="&#x14d;" horiz-adv-x="585" 
d="M454 234q0 91 -46 136t-115 45t-115 -45t-46 -135t46 -134.5t115 -44.5t115 44.5t46 133.5zM537 235q0 -108 -67.5 -177t-176.5 -69t-176.5 69t-67.5 177q0 109 67 177.5t177 68.5q109 0 176.5 -68.5t67.5 -177.5zM161 610v72h262v-72h-262z" />
    <glyph glyph-name="Obreve" unicode="&#x14e;" horiz-adv-x="768" 
d="M628 352q0 134 -71.5 205t-172.5 71q-107 0 -175.5 -71.5t-68.5 -211.5q0 -132 67.5 -206.5t176.5 -74.5q115 0 179.5 74.5t64.5 213.5zM713 346q0 -65 -19.5 -126t-57.5 -114t-103.5 -85t-148.5 -32q-68 0 -124 21.5t-93.5 57t-63 82t-37 96t-11.5 100.5q0 147 87 251.5
t242 104.5q81 0 145 -30.5t103.5 -81t60 -113.5t20.5 -131zM523 875q0 -47 -36 -86t-103 -39q-64 0 -101.5 35.5t-37.5 89.5h42q21 -58 97 -58q38 0 64 15.5t30 42.5h45z" />
    <glyph glyph-name="obreve" unicode="&#x14f;" horiz-adv-x="585" 
d="M454 234q0 91 -46 136t-115 45t-115 -45t-46 -135t46 -134.5t115 -44.5t115 44.5t46 133.5zM537 235q0 -108 -67.5 -177t-176.5 -69t-176.5 69t-67.5 177q0 109 67 177.5t177 68.5q109 0 176.5 -68.5t67.5 -177.5zM431 705q0 -51 -35 -93t-104 -42q-64 0 -101.5 38.5
t-37.5 96.5h42q21 -68 97 -68q38 0 64 18t30 50h45z" />
    <glyph glyph-name="Ohungarumlaut" unicode="&#x150;" horiz-adv-x="768" 
d="M628 352q0 134 -71.5 205t-172.5 71q-107 0 -175.5 -71.5t-68.5 -211.5q0 -132 67.5 -206.5t176.5 -74.5q115 0 179.5 74.5t64.5 213.5zM713 346q0 -65 -19.5 -126t-57.5 -114t-103.5 -85t-148.5 -32q-68 0 -124 21.5t-93.5 57t-63 82t-37 96t-11.5 100.5q0 147 87 251.5
t242 104.5q81 0 145 -30.5t103.5 -81t60 -113.5t20.5 -131zM326 741h-50l60 155l83 -36zM476 741h-50l72 141l83 -36z" />
    <glyph glyph-name="ohungarumlaut" unicode="&#x151;" horiz-adv-x="585" 
d="M454 234q0 91 -46 136t-115 45t-115 -45t-46 -135t46 -134.5t115 -44.5t115 44.5t46 133.5zM537 235q0 -108 -67.5 -177t-176.5 -69t-176.5 69t-67.5 177q0 109 67 177.5t177 68.5q109 0 176.5 -68.5t67.5 -177.5zM227 561h-50l81 186l83 -36zM377 561h-50l93 172l83 -36
z" />
    <glyph glyph-name="OE" unicode="&#x152;" horiz-adv-x="917" 
d="M860 0h-329q-12 0 -56.5 -5.5t-90.5 -5.5q-68 0 -124 21.5t-93.5 57t-63 82t-37 96t-11.5 100.5q0 147 87 251.5t242 104.5q38 0 78.5 -5t49.5 -5h349l-10 -67h-277v-238h239v-67h-239v-253h296zM384 64q65 0 110 9v543q-41 12 -110 12q-107 0 -175.5 -71.5t-68.5 -211.5
q0 -132 67.5 -206.5t176.5 -74.5z" />
    <glyph glyph-name="oe" unicode="&#x153;" horiz-adv-x="916" 
d="M848 108l31 -56q-33 -21 -54.5 -32.5t-58 -21t-78.5 -9.5q-137 0 -197 104q-66 -104 -198 -104q-109 0 -176.5 69t-67.5 177q0 109 67 177.5t177 68.5q135 0 200 -102q56 102 177 102q96 0 145 -63.5t49 -185.5h-327q0 -74 40.5 -125t120.5 -51q64 0 150 52zM454 234
q0 91 -46 136t-115 45t-115 -45t-46 -135t46 -134.5t115 -44.5t115 44.5t46 133.5zM781 292q-7 58 -36.5 92.5t-77.5 34.5q-47 0 -82 -32.5t-44 -94.5h240z" />
    <glyph glyph-name="Racute" unicode="&#x154;" horiz-adv-x="563" 
d="M376 507q0 61 -41 89.5t-142 28.5h-32v-245h32q183 0 183 127zM559 0h-87l-82 166q-40 80 -83.5 114t-107.5 34h-38v-314h-80v692h166q94 0 155.5 -46t61.5 -135q0 -57 -38 -108t-112 -64v-2q30 -9 54.5 -25.5t43.5 -41.5t30.5 -44t27.5 -50zM257 741h-63l144 149l65 -63
z" />
    <glyph glyph-name="racute" unicode="&#x155;" horiz-adv-x="379" 
d="M374 450l-39 -71q-9 4 -27.5 13.5t-31.5 14t-27 4.5q-37 0 -97 -72v-339h-76v471h76v-66h3l23.5 23.5t24.5 24t19.5 15.5t24 13.5t22.5 3.5q17 0 34 -5.5t38.5 -15.5t32.5 -14zM204 561h-50l77 170l83 -36z" />
    <glyph glyph-name="Rcommaaccent" unicode="&#x156;" horiz-adv-x="563" 
d="M376 507q0 61 -41 89.5t-142 28.5h-32v-245h32q183 0 183 127zM559 0h-87l-82 166q-40 80 -83.5 114t-107.5 34h-38v-314h-80v692h166q94 0 155.5 -46t61.5 -135q0 -57 -38 -108t-112 -64v-2q30 -9 54.5 -25.5t43.5 -41.5t30.5 -44t27.5 -50zM295 -250l-40 31
q27 33 26 56t-27 49q0 21 14 34t35 13q28 0 42 -16.5t14 -42.5q0 -34 -19 -69t-45 -55z" />
    <glyph glyph-name="rcommaaccent" unicode="&#x157;" horiz-adv-x="379" 
d="M374 450l-39 -71q-9 4 -27.5 13.5t-31.5 14t-27 4.5q-37 0 -97 -72v-339h-76v471h76v-66h3l23.5 23.5t24.5 24t19.5 15.5t24 13.5t22.5 3.5q17 0 34 -5.5t38.5 -15.5t32.5 -14zM178 -250l-40 31q27 33 26 56t-27 49q0 21 14 34t35 13q28 0 42 -16.5t14 -42.5
q0 -34 -19 -69t-45 -55z" />
    <glyph glyph-name="Rcaron" unicode="&#x158;" horiz-adv-x="563" 
d="M376 507q0 61 -41 89.5t-142 28.5h-32v-245h32q183 0 183 127zM559 0h-87l-82 166q-40 80 -83.5 114t-107.5 34h-38v-314h-80v692h166q94 0 155.5 -46t61.5 -135q0 -57 -38 -108t-112 -64v-2q30 -9 54.5 -25.5t43.5 -41.5t30.5 -44t27.5 -50zM371 897l41 -32l-134 -114
h-55l-133 114l38 32l123 -78z" />
    <glyph glyph-name="rcaron" unicode="&#x159;" horiz-adv-x="379" 
d="M374 450l-39 -71q-9 4 -27.5 13.5t-31.5 14t-27 4.5q-37 0 -97 -72v-339h-76v471h76v-66h3l23.5 23.5t24.5 24t19.5 15.5t24 13.5t22.5 3.5q17 0 34 -5.5t38.5 -15.5t32.5 -14zM328 725l44 -30l-124 -124h-55l-123 124l42 30l109 -86z" />
    <glyph glyph-name="Sacute" unicode="&#x15a;" horiz-adv-x="485" 
d="M52 35l29 71q84 -44 162 -44q53 0 86 26t33 78q0 40 -29.5 72.5t-92.5 70.5q-91 54 -121 80q-68 62 -68 146q0 78 58 122.5t145 44.5t163 -35l-27 -69q-67 32 -131 32q-127 0 -127 -98q0 -44 31 -73t121 -82q80 -47 108 -76q50 -52 50 -128q0 -80 -55 -132t-145 -52
q-106 0 -190 46zM238 741h-63l144 149l65 -63z" />
    <glyph glyph-name="sacute" unicode="&#x15b;" horiz-adv-x="417" 
d="M42 34l23 65q81 -43 139 -43q86 0 86 63q0 15 -6.5 27t-23 23.5t-28.5 18l-37 19.5q-32 16 -49 26t-40 28.5t-33.5 43t-10.5 55.5q0 54 38 87.5t113 33.5q77 0 139 -37l-28 -61q-58 32 -112 32q-75 0 -75 -52q0 -30 21 -48t74 -45q33 -17 51 -28t41 -29.5t33.5 -40.5
t10.5 -49q0 -57 -43 -95.5t-123 -38.5q-86 0 -160 45zM210 561h-50l77 170l83 -36z" />
    <glyph glyph-name="Scircumflex" unicode="&#x15c;" horiz-adv-x="485" 
d="M52 35l29 71q84 -44 162 -44q53 0 86 26t33 78q0 40 -29.5 72.5t-92.5 70.5q-91 54 -121 80q-68 62 -68 146q0 78 58 122.5t145 44.5t163 -35l-27 -69q-67 32 -131 32q-127 0 -127 -98q0 -44 31 -73t121 -82q80 -47 108 -76q50 -52 50 -128q0 -80 -55 -132t-145 -52
q-106 0 -190 46zM413 771l-44 -30l-117 76l-119 -76l-42 30l133 114h55z" />
    <glyph glyph-name="scircumflex" unicode="&#x15d;" horiz-adv-x="417" 
d="M42 34l23 65q81 -43 139 -43q86 0 86 63q0 15 -6.5 27t-23 23.5t-28.5 18l-37 19.5q-32 16 -49 26t-40 28.5t-33.5 43t-10.5 55.5q0 54 38 87.5t113 33.5q77 0 139 -37l-28 -61q-58 32 -112 32q-75 0 -75 -52q0 -30 21 -48t74 -45q33 -17 51 -28t41 -29.5t33.5 -40.5
t10.5 -49q0 -57 -43 -95.5t-123 -38.5q-86 0 -160 45zM361 591l-44 -30l-107 86l-109 -86l-42 30l123 124h55z" />
    <glyph glyph-name="Scedilla" unicode="&#x15e;" horiz-adv-x="485" 
d="M319 -131q0 -41 -29 -63t-72 -22q-29 0 -59 11l12 41q20 -8 40 -8q40 0 40 35q0 40 -67 49l23 78q-85 6 -155 45l29 71q84 -44 162 -44q53 0 86 26t33 78q0 40 -29.5 72.5t-92.5 70.5q-91 54 -121 80q-68 62 -68 146q0 78 58 122.5t145 44.5t163 -35l-27 -69
q-67 32 -131 32q-127 0 -127 -98q0 -44 31 -73t121 -82q80 -47 108 -76q50 -52 50 -128t-50.5 -127t-132.5 -56l-13 -44q73 -19 73 -77z" />
    <glyph glyph-name="scedilla" unicode="&#x15f;" horiz-adv-x="417" 
d="M283 -131q0 -41 -29 -63t-72 -22q-29 0 -59 11l12 41q20 -8 40 -8q40 0 40 35q0 40 -67 49l23 79q-69 6 -129 43l23 65q81 -43 139 -43q86 0 86 63q0 15 -6.5 27t-23 23.5t-28.5 18l-37 19.5q-32 16 -49 26t-40 28.5t-33.5 43t-10.5 55.5q0 54 38 87.5t113 33.5
q77 0 139 -37l-28 -61q-58 32 -112 32q-75 0 -75 -52q0 -30 21 -48t74 -45q33 -17 51 -28t41 -29.5t33.5 -40.5t10.5 -49q0 -53 -37.5 -90t-107.5 -43l-13 -44q73 -19 73 -77z" />
    <glyph glyph-name="Scaron" unicode="&#x160;" horiz-adv-x="485" 
d="M52 35l29 71q84 -44 162 -44q53 0 86 26t33 78q0 40 -29.5 72.5t-92.5 70.5q-91 54 -121 80q-68 62 -68 146q0 78 58 122.5t145 44.5t163 -35l-27 -69q-67 32 -131 32q-127 0 -127 -98q0 -44 31 -73t121 -82q80 -47 108 -76q50 -52 50 -128q0 -80 -55 -132t-145 -52
q-106 0 -190 46zM369 897l41 -32l-134 -114h-55l-133 114l38 32l123 -78z" />
    <glyph glyph-name="scaron" unicode="&#x161;" horiz-adv-x="417" 
d="M42 34l23 65q81 -43 139 -43q86 0 86 63q0 15 -6.5 27t-23 23.5t-28.5 18l-37 19.5q-32 16 -49 26t-40 28.5t-33.5 43t-10.5 55.5q0 54 38 87.5t113 33.5q77 0 139 -37l-28 -61q-58 32 -112 32q-75 0 -75 -52q0 -30 21 -48t74 -45q33 -17 51 -28t41 -29.5t33.5 -40.5
t10.5 -49q0 -57 -43 -95.5t-123 -38.5q-86 0 -160 45zM317 725l44 -30l-124 -124h-55l-123 124l42 30l109 -86z" />
    <glyph glyph-name="uni0162" unicode="&#x162;" horiz-adv-x="525" 
d="M498 625h-197v-625h-79v625h-206v67h492zM251 -250l-40 31q27 33 26 56t-27 49q0 21 14 34t35 13q28 0 42 -16.5t14 -42.5q0 -34 -19 -69t-45 -55z" />
    <glyph glyph-name="uni0163" unicode="&#x163;" horiz-adv-x="338" 
d="M294 83l30 -53q-52 -41 -112 -41q-126 0 -126 142v281h-65v59h65v127l76 8v-135h145l-12 -59h-133v-258q0 -52 15 -75t48 -23q34 0 69 27zM168 -250l-40 31q27 33 26 56t-27 49q0 21 14 34t35 13q28 0 42 -16.5t14 -42.5q0 -34 -19 -69t-45 -55z" />
    <glyph glyph-name="Tcaron" unicode="&#x164;" horiz-adv-x="525" 
d="M498 625h-197v-625h-79v625h-206v67h492zM382 897l41 -32l-134 -114h-55l-133 114l38 32l123 -78z" />
    <glyph glyph-name="tcaron" unicode="&#x165;" horiz-adv-x="338" 
d="M294 83l30 -53q-52 -41 -112 -41q-126 0 -126 142v281h-65v59h65v127l76 8v-135h145l-12 -59h-133v-258q0 -52 15 -75t48 -23q34 0 69 27zM266 529l-38 30q30 33 30.5 68.5t-24.5 59.5q0 21 15.5 32t33.5 11q26 0 40.5 -16t14.5 -40q0 -39 -22.5 -79t-49.5 -66z" />
    <glyph glyph-name="Tbar" unicode="&#x166;" horiz-adv-x="525" 
d="M498 625h-197v-233h112v-67h-112v-325h-79v325h-111v67h111v233h-206v67h492z" />
    <glyph glyph-name="tbar" unicode="&#x167;" horiz-adv-x="338" 
d="M274 302v-62h-112v-86q0 -52 15 -75t48 -23q34 0 69 27l30 -53q-52 -41 -112 -41q-62 0 -94 32.5t-32 109.5v109h-63v62h63v110h-65v59h65v127l76 8v-135h145l-12 -59h-133v-110h112z" />
    <glyph glyph-name="Utilde" unicode="&#x168;" horiz-adv-x="687" 
d="M533 692h78v-437q0 -130 -73 -198t-198 -68q-124 0 -194 67.5t-70 192.5v443h80v-410q0 -117 46 -168t142 -51q95 0 142 51t47 164v414zM511 873q-6 -119 -87 -119q-26 0 -78 23.5t-66 23.5q-38 0 -50 -46h-36q7 56 26.5 87t63.5 31q25 0 77 -24t67 -24q36 0 47 48h36z
" />
    <glyph glyph-name="utilde" unicode="&#x169;" horiz-adv-x="534" 
d="M71 471h76v-295q0 -117 83 -117q75 0 151 65v347h77v-471h-77v57q-36 -26 -52.5 -36.5t-48.5 -21t-68 -10.5q-64 0 -102.5 42.5t-38.5 116.5v323zM425 698q-6 -119 -86 -119q-27 0 -79 23.5t-66 23.5q-38 0 -50 -46h-36q7 56 26.5 87t63.5 31q25 0 77 -24t66 -24
q37 0 48 48h36z" />
    <glyph glyph-name="Umacron" unicode="&#x16a;" horiz-adv-x="687" 
d="M533 692h78v-437q0 -130 -73 -198t-198 -68q-124 0 -194 67.5t-70 192.5v443h80v-410q0 -117 46 -168t142 -51q95 0 142 51t47 164v414zM192 764v72h302v-72h-302z" />
    <glyph glyph-name="umacron" unicode="&#x16b;" horiz-adv-x="534" 
d="M71 471h76v-295q0 -117 83 -117q75 0 151 65v347h77v-471h-77v57q-36 -26 -52.5 -36.5t-48.5 -21t-68 -10.5q-64 0 -102.5 42.5t-38.5 116.5v323zM136 610v72h262v-72h-262z" />
    <glyph glyph-name="Ubreve" unicode="&#x16c;" horiz-adv-x="687" 
d="M533 692h78v-437q0 -130 -73 -198t-198 -68q-124 0 -194 67.5t-70 192.5v443h80v-410q0 -117 46 -168t142 -51q95 0 142 51t47 164v414zM487 875q0 -47 -36 -86t-103 -39q-64 0 -101.5 35.5t-37.5 89.5h42q21 -58 97 -58q38 0 64 15.5t30 42.5h45z" />
    <glyph glyph-name="ubreve" unicode="&#x16d;" horiz-adv-x="534" 
d="M71 471h76v-295q0 -117 83 -117q75 0 151 65v347h77v-471h-77v57q-36 -26 -52.5 -36.5t-48.5 -21t-68 -10.5q-64 0 -102.5 42.5t-38.5 116.5v323zM406 705q0 -51 -35 -93t-104 -42q-64 0 -101.5 38.5t-37.5 96.5h42q21 -68 97 -68q38 0 64 18t30 50h45z" />
    <glyph glyph-name="Uring" unicode="&#x16e;" horiz-adv-x="687" 
d="M533 692h78v-437q0 -130 -73 -198t-198 -68q-124 0 -194 67.5t-70 192.5v443h80v-410q0 -117 46 -168t142 -51q95 0 142 51t47 164v414zM408 822q0 24 -18 42t-42 18q-25 0 -42.5 -18t-17.5 -42t17.5 -42t42.5 -18q24 0 42 18t18 42zM456 822q0 -45 -31.5 -76.5
t-76.5 -31.5t-76.5 31.5t-31.5 76.5t31.5 76.5t76.5 31.5t76.5 -31.5t31.5 -76.5z" />
    <glyph glyph-name="uring" unicode="&#x16f;" horiz-adv-x="534" 
d="M71 471h76v-295q0 -117 83 -117q75 0 151 65v347h77v-471h-77v57q-36 -26 -52.5 -36.5t-48.5 -21t-68 -10.5q-64 0 -102.5 42.5t-38.5 116.5v323zM327 655q0 24 -18 42t-42 18q-25 0 -42.5 -18t-17.5 -42t17.5 -42t42.5 -18q24 0 42 18t18 42zM375 655q0 -45 -31.5 -76.5
t-76.5 -31.5t-76.5 31.5t-31.5 76.5t31.5 76.5t76.5 31.5t76.5 -31.5t31.5 -76.5z" />
    <glyph glyph-name="Uhungarumlaut" unicode="&#x170;" horiz-adv-x="687" 
d="M533 692h78v-437q0 -130 -73 -198t-198 -68q-124 0 -194 67.5t-70 192.5v443h80v-410q0 -117 46 -168t142 -51q95 0 142 51t47 164v414zM275 741h-50l60 155l83 -36zM425 741h-50l72 141l83 -36z" />
    <glyph glyph-name="uhungarumlaut" unicode="&#x171;" horiz-adv-x="534" 
d="M71 471h76v-295q0 -117 83 -117q75 0 151 65v347h77v-471h-77v57q-36 -26 -52.5 -36.5t-48.5 -21t-68 -10.5q-64 0 -102.5 42.5t-38.5 116.5v323zM184 561h-50l81 186l83 -36zM334 561h-50l93 172l83 -36z" />
    <glyph glyph-name="Uogonek" unicode="&#x172;" horiz-adv-x="687" 
d="M486 -141l22 -55q-44 -26 -88 -26q-48 0 -77 28.5t-29 74.5q0 61 50 109q-8 -1 -24 -1q-124 0 -194 67.5t-70 192.5v443h80v-410q0 -117 46 -168t142 -51q95 0 142 51t47 164v414h78v-437q0 -190 -154 -247h1q-32 -17 -55.5 -47t-23.5 -63q0 -56 50 -56q25 0 57 17z" />
    <glyph glyph-name="uogonek" unicode="&#x173;" horiz-adv-x="534" 
d="M484 -141l22 -55q-44 -26 -88 -26q-48 0 -77 28.5t-29 74.5q0 73 69 125v51q-36 -26 -52.5 -36.5t-48.5 -21t-68 -10.5q-64 0 -102.5 42.5t-38.5 116.5v323h76v-295q0 -117 83 -117q75 0 151 65v347h77v-471h-16q-28 -18 -46.5 -45t-18.5 -57q0 -56 50 -56q25 0 57 17z
" />
    <glyph glyph-name="Wcircumflex" unicode="&#x174;" horiz-adv-x="1009" 
d="M1004 692l-244 -697h-40l-214 573l-200 -573h-40l-261 697h89l194 -536h2l187 536h62l203 -536h2l179 536h81zM670 771l-44 -30l-117 76l-119 -76l-42 30l133 114h55z" />
    <glyph glyph-name="wcircumflex" unicode="&#x175;" horiz-adv-x="752" 
d="M681 471h71l-182 -478h-50l-141 334l-127 -334h-51l-201 478h85l146 -358l136 358h33l150 -358zM535 591l-44 -30l-107 86l-109 -86l-42 30l123 124h55z" />
    <glyph glyph-name="Ycircumflex" unicode="&#x176;" horiz-adv-x="568" 
d="M474 692h84l-235 -391v-301h-79v301l-233 391h89l186 -320zM445 771l-44 -30l-117 76l-119 -76l-42 30l133 114h55z" />
    <glyph glyph-name="ycircumflex" unicode="&#x177;" horiz-adv-x="452" 
d="M446 471l-316 -741h-95q75 118 134 255l22 52l-180 434h84l136 -341l138 341h77zM387 591l-44 -30l-107 86l-109 -86l-42 30l123 124h55z" />
    <glyph glyph-name="Ydieresis" unicode="&#x178;" horiz-adv-x="568" 
d="M474 692h84l-235 -391v-301h-79v301l-233 391h89l186 -320zM247 807q0 -21 -14.5 -35.5t-35.5 -14.5t-35.5 14.5t-14.5 35.5q0 20 14.5 34.5t35.5 14.5t35.5 -14.5t14.5 -34.5zM429 807q0 -21 -14.5 -35.5t-35.5 -14.5t-35.5 14.5t-14.5 35.5q0 20 14.5 34.5t35.5 14.5
t35.5 -14.5t14.5 -34.5z" />
    <glyph glyph-name="Zacute" unicode="&#x179;" horiz-adv-x="632" 
d="M586 674l-417 -607h430l-10 -67h-543v17l418 608h-387v67h509v-18zM319 741h-63l144 149l65 -63z" />
    <glyph glyph-name="zacute" unicode="&#x17a;" horiz-adv-x="499" 
d="M455 0h-411v44l291 363h-276v64h381v-41l-291 -366h306v-64zM254 561h-50l77 170l83 -36z" />
    <glyph glyph-name="Zdotaccent" unicode="&#x17b;" horiz-adv-x="632" 
d="M586 674l-417 -607h430l-10 -67h-543v17l418 608h-387v67h509v-18zM385 813q0 -23 -17 -40.5t-40 -17.5t-40.5 17.5t-17.5 40.5t17.5 39.5t40.5 16.5t40 -16.5t17 -39.5z" />
    <glyph glyph-name="zdotaccent" unicode="&#x17c;" horiz-adv-x="499" 
d="M455 0h-411v44l291 363h-276v64h381v-41l-291 -366h306v-64zM311 643q0 -23 -17 -40.5t-40 -17.5t-40.5 17.5t-17.5 40.5t17.5 39.5t40.5 16.5t40 -16.5t17 -39.5z" />
    <glyph glyph-name="Zcaron" unicode="&#x17d;" horiz-adv-x="632" 
d="M586 674l-417 -607h430l-10 -67h-543v17l418 608h-387v67h509v-18zM454 897l41 -32l-134 -114h-55l-133 114l38 32l123 -78z" />
    <glyph glyph-name="zcaron" unicode="&#x17e;" horiz-adv-x="499" 
d="M455 0h-411v44l291 363h-276v64h381v-41l-291 -366h306v-64zM361 725l44 -30l-124 -124h-55l-123 124l42 30l109 -86z" />
    <glyph glyph-name="longs" unicode="&#x17f;" horiz-adv-x="276" 
d="M324 714l-24 -64q-33 11 -60 11q-24 0 -41 -10t-26 -24t-14 -37.5t-6 -42t-1 -46.5v-501h-76v529q0 201 158 201q45 0 90 -16z" />
    <glyph glyph-name="Schwa" unicode="&#x18f;" horiz-adv-x="727" 
d="M150 279q13 -215 206 -215q86 0 150.5 55t74.5 160h-431zM110 552l-35 66q68 43 126.5 64t141.5 21q148 0 238.5 -95t90.5 -260q0 -157 -86.5 -258t-231.5 -101q-147 0 -221.5 92t-74.5 269h529q0 116 -64.5 197t-183.5 81q-62 0 -114 -19t-115 -57z" />
    <glyph glyph-name="florin" unicode="&#x192;" 
d="M109 471h103l10 53q20 109 62.5 157.5t120.5 48.5q44 0 84 -17l-29 -61q-29 12 -61 12q-25 0 -43.5 -12t-29.5 -36.5t-16.5 -46t-11.5 -56.5l-7 -42h139l-23 -62h-127l-78 -434q-19 -101 -60 -155.5t-122 -89.5l-21 52q98 52 118 164l83 463h-106z" />
    <glyph glyph-name="Acaron" unicode="&#x1cd;" horiz-adv-x="599" 
d="M405 281l-106 304h-2l-108 -304h216zM10 0l260 692h67l252 -692h-84l-78 215h-260l-77 -215h-80zM423 897l41 -32l-134 -114h-55l-133 114l38 32l123 -78z" />
    <glyph glyph-name="acaron" unicode="&#x1ce;" horiz-adv-x="476" 
d="M303 115v128q-108 -25 -146.5 -50.5t-38.5 -70.5q0 -30 19 -48.5t49 -18.5q26 0 61 17t56 43zM453 67l16 -52q-38 -26 -75 -26q-66 0 -79 67q-72 -67 -142 -67q-57 0 -94 34t-37 96t42.5 98t129.5 59l89 23v18q0 98 -79 98q-51 0 -134 -53l-30 63q94 60 175 60
q61 0 102.5 -39t41.5 -117v-199q0 -39 7.5 -58.5t27.5 -19.5q10 0 39 15zM341 725l44 -30l-124 -124h-55l-123 124l42 30l109 -86z" />
    <glyph glyph-name="Icaron" unicode="&#x1cf;" horiz-adv-x="243" 
d="M161 0h-80v692h80v-692zM241 897l41 -32l-134 -114h-55l-133 114l38 32l123 -78z" />
    <glyph glyph-name="icaron" unicode="&#x1d0;" horiz-adv-x="232" 
d="M154 0h-76v471h76v-471zM223 725l44 -30l-124 -124h-55l-123 124l42 30l109 -86z" />
    <glyph glyph-name="Ocaron" unicode="&#x1d1;" horiz-adv-x="768" 
d="M628 352q0 134 -71.5 205t-172.5 71q-107 0 -175.5 -71.5t-68.5 -211.5q0 -132 67.5 -206.5t176.5 -74.5q115 0 179.5 74.5t64.5 213.5zM713 346q0 -65 -19.5 -126t-57.5 -114t-103.5 -85t-148.5 -32q-68 0 -124 21.5t-93.5 57t-63 82t-37 96t-11.5 100.5q0 147 87 251.5
t242 104.5q81 0 145 -30.5t103.5 -81t60 -113.5t20.5 -131zM504 897l41 -32l-134 -114h-55l-133 114l38 32l123 -78z" />
    <glyph glyph-name="ocaron" unicode="&#x1d2;" horiz-adv-x="585" 
d="M454 234q0 91 -46 136t-115 45t-115 -45t-46 -135t46 -134.5t115 -44.5t115 44.5t46 133.5zM537 235q0 -108 -67.5 -177t-176.5 -69t-176.5 69t-67.5 177q0 109 67 177.5t177 68.5q109 0 176.5 -68.5t67.5 -177.5zM399 725l44 -30l-124 -124h-55l-123 124l42 30l109 -86z
" />
    <glyph glyph-name="Ucaron" unicode="&#x1d3;" horiz-adv-x="687" 
d="M533 692h78v-437q0 -130 -73 -198t-198 -68q-124 0 -194 67.5t-70 192.5v443h80v-410q0 -117 46 -168t142 -51q95 0 142 51t47 164v414zM462 897l41 -32l-134 -114h-55l-133 114l38 32l123 -78z" />
    <glyph glyph-name="ucaron" unicode="&#x1d4;" horiz-adv-x="534" 
d="M71 471h76v-295q0 -117 83 -117q75 0 151 65v347h77v-471h-77v57q-36 -26 -52.5 -36.5t-48.5 -21t-68 -10.5q-64 0 -102.5 42.5t-38.5 116.5v323zM375 725l44 -30l-124 -124h-55l-123 124l42 30l109 -86z" />
    <glyph glyph-name="Udieresismacron" unicode="&#x1d5;" horiz-adv-x="687" 
d="M533 692h78v-437q0 -130 -73 -198t-198 -68q-124 0 -194 67.5t-70 192.5v443h80v-410q0 -117 46 -168t142 -51q95 0 142 51t47 164v414zM304 807q0 -21 -14.5 -35.5t-35.5 -14.5t-35.5 14.5t-14.5 35.5q0 20 14.5 34.5t35.5 14.5t35.5 -14.5t14.5 -34.5zM486 807
q0 -21 -14.5 -35.5t-35.5 -14.5t-35.5 14.5t-14.5 35.5q0 20 14.5 34.5t35.5 14.5t35.5 -14.5t14.5 -34.5zM213 922v72h262v-72h-262z" />
    <glyph glyph-name="udieresismacron" unicode="&#x1d6;" horiz-adv-x="534" 
d="M71 471h76v-295q0 -117 83 -117q75 0 151 65v347h77v-471h-77v57q-36 -26 -52.5 -36.5t-48.5 -21t-68 -10.5q-64 0 -102.5 42.5t-38.5 116.5v323zM227 634q0 -21 -14.5 -35.5t-35.5 -14.5t-35.5 14.5t-14.5 35.5q0 20 14.5 34.5t35.5 14.5t35.5 -14.5t14.5 -34.5z
M409 634q0 -21 -14.5 -35.5t-35.5 -14.5t-35.5 14.5t-14.5 35.5q0 20 14.5 34.5t35.5 14.5t35.5 -14.5t14.5 -34.5zM138 790v72h262v-72h-262z" />
    <glyph glyph-name="Udieresisacute" unicode="&#x1d7;" horiz-adv-x="687" 
d="M533 692h78v-437q0 -130 -73 -198t-198 -68q-124 0 -194 67.5t-70 192.5v443h80v-410q0 -117 46 -168t142 -51q95 0 142 51t47 164v414zM304 807q0 -21 -14.5 -35.5t-35.5 -14.5t-35.5 14.5t-14.5 35.5q0 20 14.5 34.5t35.5 14.5t35.5 -14.5t14.5 -34.5zM486 807
q0 -21 -14.5 -35.5t-35.5 -14.5t-35.5 14.5t-14.5 35.5q0 20 14.5 34.5t35.5 14.5t35.5 -14.5t14.5 -34.5zM369 873h-50l77 170l83 -36z" />
    <glyph glyph-name="udieresisacute" unicode="&#x1d8;" horiz-adv-x="534" 
d="M71 471h76v-295q0 -117 83 -117q75 0 151 65v347h77v-471h-77v57q-36 -26 -52.5 -36.5t-48.5 -21t-68 -10.5q-64 0 -102.5 42.5t-38.5 116.5v323zM227 634q0 -21 -14.5 -35.5t-35.5 -14.5t-35.5 14.5t-14.5 35.5q0 20 14.5 34.5t35.5 14.5t35.5 -14.5t14.5 -34.5z
M409 634q0 -21 -14.5 -35.5t-35.5 -14.5t-35.5 14.5t-14.5 35.5q0 20 14.5 34.5t35.5 14.5t35.5 -14.5t14.5 -34.5zM275 741h-50l77 170l83 -36z" />
    <glyph glyph-name="Udieresiscaron" unicode="&#x1d9;" horiz-adv-x="687" 
d="M533 692h78v-437q0 -130 -73 -198t-198 -68q-124 0 -194 67.5t-70 192.5v443h80v-410q0 -117 46 -168t142 -51q95 0 142 51t47 164v414zM304 807q0 -21 -14.5 -35.5t-35.5 -14.5t-35.5 14.5t-14.5 35.5q0 20 14.5 34.5t35.5 14.5t35.5 -14.5t14.5 -34.5zM486 807
q0 -21 -14.5 -35.5t-35.5 -14.5t-35.5 14.5t-14.5 35.5q0 20 14.5 34.5t35.5 14.5t35.5 -14.5t14.5 -34.5zM453 1037l44 -30l-124 -124h-55l-123 124l42 30l109 -86z" />
    <glyph glyph-name="udieresiscaron" unicode="&#x1da;" horiz-adv-x="534" 
d="M71 471h76v-295q0 -117 83 -117q75 0 151 65v347h77v-471h-77v57q-36 -26 -52.5 -36.5t-48.5 -21t-68 -10.5q-64 0 -102.5 42.5t-38.5 116.5v323zM227 634q0 -21 -14.5 -35.5t-35.5 -14.5t-35.5 14.5t-14.5 35.5q0 20 14.5 34.5t35.5 14.5t35.5 -14.5t14.5 -34.5z
M409 634q0 -21 -14.5 -35.5t-35.5 -14.5t-35.5 14.5t-14.5 35.5q0 20 14.5 34.5t35.5 14.5t35.5 -14.5t14.5 -34.5zM377 905l44 -30l-124 -124h-55l-123 124l42 30l109 -86z" />
    <glyph glyph-name="Udieresisgrave" unicode="&#x1db;" horiz-adv-x="687" 
d="M533 692h78v-437q0 -130 -73 -198t-198 -68q-124 0 -194 67.5t-70 192.5v443h80v-410q0 -117 46 -168t142 -51q95 0 142 51t47 164v414zM304 807q0 -21 -14.5 -35.5t-35.5 -14.5t-35.5 14.5t-14.5 35.5q0 20 14.5 34.5t35.5 14.5t35.5 -14.5t14.5 -34.5zM486 807
q0 -21 -14.5 -35.5t-35.5 -14.5t-35.5 14.5t-14.5 35.5q0 20 14.5 34.5t35.5 14.5t35.5 -14.5t14.5 -34.5zM372 874h-50l-110 134l83 36z" />
    <glyph glyph-name="udieresisgrave" unicode="&#x1dc;" horiz-adv-x="534" 
d="M71 471h76v-295q0 -117 83 -117q75 0 151 65v347h77v-471h-77v57q-36 -26 -52.5 -36.5t-48.5 -21t-68 -10.5q-64 0 -102.5 42.5t-38.5 116.5v323zM227 634q0 -21 -14.5 -35.5t-35.5 -14.5t-35.5 14.5t-14.5 35.5q0 20 14.5 34.5t35.5 14.5t35.5 -14.5t14.5 -34.5z
M409 634q0 -21 -14.5 -35.5t-35.5 -14.5t-35.5 14.5t-14.5 35.5q0 20 14.5 34.5t35.5 14.5t35.5 -14.5t14.5 -34.5zM308 742h-50l-110 134l83 36z" />
    <glyph glyph-name="Aringacute" unicode="&#x1fa;" horiz-adv-x="599" 
d="M410 752q0 -32 -16.5 -58t-43.5 -39l239 -655h-84l-78 215h-260l-77 -215h-80l246 654q-28 13 -45 39.5t-17 58.5q0 49 37 81l135 117l64 -63l-83 -37q29 -13 46 -39.5t17 -58.5zM405 281l-106 304h-2l-108 -304h216zM362 752q0 24 -18 42t-42 18q-25 0 -42.5 -18
t-17.5 -42t17.5 -42t42.5 -18q24 0 42 18t18 42z" />
    <glyph glyph-name="aringacute" unicode="&#x1fb;" horiz-adv-x="476" 
d="M303 115v128q-108 -25 -146.5 -50.5t-38.5 -70.5q0 -30 19 -48.5t49 -18.5q26 0 61 17t56 43zM453 67l16 -52q-38 -26 -75 -26q-66 0 -79 67q-72 -67 -142 -67q-57 0 -94 34t-37 96t42.5 98t129.5 59l89 23v18q0 98 -79 98q-51 0 -134 -53l-30 63q94 60 175 60
q61 0 102.5 -39t41.5 -117v-199q0 -39 7.5 -58.5t27.5 -19.5q10 0 39 15zM281 635q0 24 -18 42t-42 18q-25 0 -42.5 -18t-17.5 -42t17.5 -42t42.5 -18q24 0 42 18t18 42zM329 635q0 -45 -31.5 -76.5t-76.5 -31.5t-76.5 31.5t-31.5 76.5t31.5 76.5t76.5 31.5t76.5 -31.5
t31.5 -76.5zM201 771h-63l144 149l65 -63z" />
    <glyph glyph-name="AEacute" unicode="&#x1fc;" horiz-adv-x="839" 
d="M782 0h-366v215h-212l-117 -215h-87l390 692h393l-10 -67h-277v-238h239v-67h-239v-253h296zM240 281h176v323zM515 741h-63l144 149l65 -63z" />
    <glyph glyph-name="aeacute" unicode="&#x1fd;" horiz-adv-x="778" 
d="M727 250l-326 -22v-3q2 -74 42 -123t119 -49q60 0 149 53l30 -57q-45 -30 -86.5 -45t-103.5 -15q-121 0 -183 88q-79 -88 -192 -88q-55 0 -94.5 35.5t-39.5 99.5q0 68 49 106.5t158 45.5l75 5v36q0 48 -28.5 73t-71.5 25q-54 0 -134 -51l-30 61q88 56 175 56
q98 0 142 -75q59 75 156 75q89 0 137.5 -60t56.5 -171zM194 53q42 0 81.5 22t65.5 53q-16 43 -17 95l-59 -4q-82 -5 -116 -26.5t-34 -70.5q0 -31 20.5 -50t58.5 -19zM530 423q-52 0 -84 -37t-41 -99l236 16q-11 58 -41 89t-70 31zM395 561h-50l77 170l83 -36z" />
    <glyph glyph-name="Oslashacute" unicode="&#x1fe;" horiz-adv-x="768" 
d="M713 346q0 -65 -19.5 -126t-57.5 -114t-103.5 -85t-148.5 -32q-117 0 -199 62l-69 -85l-49 43l71 88q-83 100 -83 249q0 147 87 251.5t242 104.5q115 0 197 -62l64 78l49 -43l-66 -80q85 -100 85 -249zM628 352q0 110 -51 180l-342 -420q60 -48 149 -48q115 0 179.5 74.5
t64.5 213.5zM140 345q0 -113 50 -185l342 419q-64 49 -148 49q-107 0 -175.5 -71.5t-68.5 -211.5zM376 741h-63l144 149l65 -63z" />
    <glyph glyph-name="oslashacute" unicode="&#x1ff;" horiz-adv-x="585" 
d="M537 235q0 -108 -67.5 -177t-176.5 -69q-79 0 -138 37l-46 -55l-43 38l45 54q-62 68 -62 172q0 109 67 177.5t177 68.5q76 0 135 -36l48 58l43 -38l-47 -56q65 -70 65 -174zM454 234q0 69 -31 116l-223 -269q40 -25 93 -25q69 0 115 44.5t46 133.5zM132 235
q0 -68 28 -112l222 267q-38 25 -89 25q-69 0 -115 -45t-46 -135zM304 561h-50l77 170l83 -36z" />
    <glyph glyph-name="Scommaaccent" unicode="&#x218;" horiz-adv-x="485" 
d="M52 35l29 71q84 -44 162 -44q53 0 86 26t33 78q0 40 -29.5 72.5t-92.5 70.5q-91 54 -121 80q-68 62 -68 146q0 78 58 122.5t145 44.5t163 -35l-27 -69q-67 32 -131 32q-127 0 -127 -98q0 -44 31 -73t121 -82q80 -47 108 -76q50 -52 50 -128q0 -80 -55 -132t-145 -52
q-106 0 -190 46zM226 -250l-40 31q27 33 26 56t-27 49q0 21 14 34t35 13q28 0 42 -16.5t14 -42.5q0 -34 -19 -69t-45 -55z" />
    <glyph glyph-name="scommaaccent" unicode="&#x219;" horiz-adv-x="417" 
d="M42 34l23 65q81 -43 139 -43q86 0 86 63q0 15 -6.5 27t-23 23.5t-28.5 18l-37 19.5q-32 16 -49 26t-40 28.5t-33.5 43t-10.5 55.5q0 54 38 87.5t113 33.5q77 0 139 -37l-28 -61q-58 32 -112 32q-75 0 -75 -52q0 -30 21 -48t74 -45q33 -17 51 -28t41 -29.5t33.5 -40.5
t10.5 -49q0 -57 -43 -95.5t-123 -38.5q-86 0 -160 45zM197 -250l-40 31q27 33 26 56t-27 49q0 21 14 34t35 13q28 0 42 -16.5t14 -42.5q0 -34 -19 -69t-45 -55z" />
    <glyph glyph-name="uni021A" unicode="&#x21a;" horiz-adv-x="525" 
d="M498 625h-197v-625h-79v625h-206v67h492zM251 -250l-40 31q27 33 26 56t-27 49q0 21 14 34t35 13q28 0 42 -16.5t14 -42.5q0 -34 -19 -69t-45 -55z" />
    <glyph glyph-name="uni021B" unicode="&#x21b;" horiz-adv-x="338" 
d="M294 83l30 -53q-52 -41 -112 -41q-126 0 -126 142v281h-65v59h65v127l76 8v-135h145l-12 -59h-133v-258q0 -52 15 -75t48 -23q34 0 69 27zM168 -250l-40 31q27 33 26 56t-27 49q0 21 14 34t35 13q28 0 42 -16.5t14 -42.5q0 -34 -19 -69t-45 -55z" />
    <glyph glyph-name="dotlessj" unicode="&#x237;" horiz-adv-x="234" 
d="M156 -26q0 -97 -30 -152.5t-107 -91.5l-31 52l19.5 13t25.5 20t22 26.5t19 43.5t6 60v526h76v-497z" />
    <glyph glyph-name="schwa" unicode="&#x259;" horiz-adv-x="523" 
d="M135 178q14 -127 124 -127q47 0 83 33t45 94h-252zM88 362l-31 56q33 21 54.5 32.5t58 21t78.5 9.5q103 0 165 -65.5t62 -179.5q0 -107 -59.5 -177t-159.5 -70q-204 0 -204 249h339q0 74 -39 125t-114 51q-64 0 -150 -52z" />
    <glyph glyph-name="uni02BC" unicode="&#x2bc;" horiz-adv-x="227" 
d="M95 499l-38 30q30 40 30.5 83.5t-24.5 74.5q0 21 15.5 32t33.5 11q26 0 40.5 -16t14.5 -40q0 -47 -22.5 -95t-49.5 -80z" />
    <glyph glyph-name="circumflex" unicode="&#x2c6;" horiz-adv-x="384" 
d="M343 591l-44 -30l-107 86l-109 -86l-42 30l123 124h55z" />
    <glyph glyph-name="caron" unicode="&#x2c7;" horiz-adv-x="384" 
d="M299 725l44 -30l-124 -124h-55l-123 124l42 30l109 -86z" />
    <glyph glyph-name="uni02C9" unicode="&#x2c9;" horiz-adv-x="384" 
d="M61 610v72h262v-72h-262z" />
    <glyph glyph-name="breve" unicode="&#x2d8;" horiz-adv-x="384" 
d="M331 705q0 -51 -35 -93t-104 -42q-64 0 -101.5 38.5t-37.5 96.5h42q21 -68 97 -68q38 0 64 18t30 50h45z" />
    <glyph glyph-name="dotaccent" unicode="&#x2d9;" horiz-adv-x="384" 
d="M249 643q0 -23 -17 -40.5t-40 -17.5t-40.5 17.5t-17.5 40.5t17.5 39.5t40.5 16.5t40 -16.5t17 -39.5z" />
    <glyph glyph-name="ring" unicode="&#x2da;" horiz-adv-x="384" 
d="M252 655q0 24 -18 42t-42 18q-25 0 -42.5 -18t-17.5 -42t17.5 -42t42.5 -18q24 0 42 18t18 42zM300 655q0 -45 -31.5 -76.5t-76.5 -31.5t-76.5 31.5t-31.5 76.5t31.5 76.5t76.5 31.5t76.5 -31.5t31.5 -76.5z" />
    <glyph glyph-name="ogonek" unicode="&#x2db;" horiz-adv-x="384" 
d="M272 -141l22 -55q-44 -26 -88 -26q-48 0 -77 28.5t-29 74.5q0 74 72 127h72q-32 -17 -55.5 -47t-23.5 -63q0 -56 50 -56q25 0 57 17z" />
    <glyph glyph-name="tilde" unicode="&#x2dc;" horiz-adv-x="384" 
d="M351 698q-6 -119 -86 -119q-27 0 -79 23.5t-66 23.5q-38 0 -50 -46h-36q7 56 26.5 87t63.5 31q25 0 77 -24t66 -24q37 0 48 48h36z" />
    <glyph glyph-name="hungarumlaut" unicode="&#x2dd;" horiz-adv-x="384" 
d="M112 561h-50l81 186l83 -36zM262 561h-50l93 172l83 -36z" />
    <glyph glyph-name="gravecomb" unicode="&#x300;" horiz-adv-x="0" 
d="M-76 562h-50l-110 134l83 36z" />
    <glyph glyph-name="acutecomb" unicode="&#x301;" horiz-adv-x="0" 
d="M-223 561h-50l77 170l83 -36z" />
    <glyph glyph-name="circumflexcomb" unicode="&#x302;" horiz-adv-x="0" 
d="M-69 591l-44 -30l-107 86l-109 -86l-42 30l123 124h55z" />
    <glyph glyph-name="tildecomb" unicode="&#x303;" horiz-adv-x="0" 
d="M-68 698q-6 -119 -86 -119q-27 0 -79 23.5t-66 23.5q-39 0 -50 -46h-36q7 56 26.5 87t63.5 31q25 0 77 -24t66 -24q37 0 48 48h36z" />
    <glyph glyph-name="macroncomb" unicode="&#x304;" horiz-adv-x="0" 
d="M-346 610v72h262v-72h-262z" />
    <glyph glyph-name="brevecomb" unicode="&#x306;" horiz-adv-x="0" 
d="M-70 705q0 -51 -35 -93t-104 -42q-64 0 -101.5 38.5t-37.5 96.5h42q21 -68 97 -68q38 0 64 18t30 50h45z" />
    <glyph glyph-name="dotaccentcomb" unicode="&#x307;" horiz-adv-x="0" 
d="M-73 643q0 -23 -17 -40.5t-40 -17.5t-40.5 17.5t-17.5 40.5t17.5 39.5t40.5 16.5t40 -16.5t17 -39.5z" />
    <glyph glyph-name="dieresiscomb" unicode="&#x308;" horiz-adv-x="0" 
d="M-251 634q0 -21 -14.5 -35.5t-35.5 -14.5t-35.5 14.5t-14.5 35.5q0 20 14.5 34.5t35.5 14.5t35.5 -14.5t14.5 -34.5zM-69 634q0 -21 -14.5 -35.5t-35.5 -14.5t-35.5 14.5t-14.5 35.5q0 20 14.5 34.5t35.5 14.5t35.5 -14.5t14.5 -34.5z" />
    <glyph glyph-name="ringcomb" unicode="&#x30a;" horiz-adv-x="0" 
d="M-116 655q0 24 -18 42t-42 18q-25 0 -42.5 -18t-17.5 -42t17.5 -42t42.5 -18q24 0 42 18t18 42zM-68 655q0 -45 -31.5 -76.5t-76.5 -31.5t-76.5 31.5t-31.5 76.5t31.5 76.5t76.5 31.5t76.5 -31.5t31.5 -76.5z" />
    <glyph glyph-name="hungarumlautcomb" unicode="&#x30b;" horiz-adv-x="0" 
d="M-387 561h-50l81 186l83 -36zM-237 561h-50l93 172l83 -36z" />
    <glyph glyph-name="caroncomb" unicode="&#x30c;" horiz-adv-x="0" 
d="M-113 725l44 -30l-124 -124h-55l-123 124l42 30l109 -86z" />
    <glyph glyph-name="commaaccentcomb" unicode="&#x326;" horiz-adv-x="0" 
d="M95 -250l-40 31q27 33 26 56t-27 49q0 21 14 34t35 13q28 0 42 -16.5t14 -42.5q0 -34 -19 -69t-45 -55z" />
    <glyph glyph-name="cedillacomb" unicode="&#x327;" horiz-adv-x="0" 
d="M-60 -131q0 -41 -29 -63t-72 -22q-29 0 -59 11l12 41q20 -8 40 -8q40 0 40 35q0 40 -67 49l29 96h52l-19 -62q73 -19 73 -77z" />
    <glyph glyph-name="ogonekcomb" unicode="&#x328;" horiz-adv-x="0" 
d="M-73 -141l22 -55q-44 -26 -88 -26q-48 0 -77 28.5t-29 74.5q0 74 72 127h72q-32 -17 -55.5 -47t-23.5 -63q0 -56 50 -56q25 0 57 17z" />
    <glyph glyph-name="uni0374" unicode="&#x374;" horiz-adv-x="169" 
d="M57 730h85l-49 -220h-46z" />
    <glyph glyph-name="uni0375" unicode="&#x375;" horiz-adv-x="169" 
d="M112 -132h-85l49 220h46z" />
    <glyph glyph-name="uni037E" unicode="&#x37e;" horiz-adv-x="289" 
d="M199 417q0 -22 -15.5 -38t-37.5 -16t-38.5 16t-16.5 38q0 23 16 38.5t39 15.5t38 -15.5t15 -38.5zM125 -142l-40 31q64 85 9 165q0 22 15.5 34.5t33.5 12.5q28 0 42 -16.5t14 -42.5q0 -49 -23 -100t-51 -84z" />
    <glyph glyph-name="tonos" unicode="&#x384;" horiz-adv-x="384" 
d="M191 574l-46 18l55 185l89 -34z" />
    <glyph glyph-name="dieresistonos" unicode="&#x385;" horiz-adv-x="384" 
d="M105 634q0 -21 -13.5 -35.5t-33.5 -14.5q-21 0 -36 15t-15 35t15 34t36 14q20 0 33.5 -14t13.5 -34zM377 634q0 -20 -14 -35t-33 -15q-21 0 -36 15t-15 35t15 34t36 14q20 0 33.5 -14t13.5 -34zM184 574l-46 18l55 185l89 -34z" />
    <glyph glyph-name="Alphatonos" unicode="&#x386;" horiz-adv-x="599" 
d="M405 281l-106 304h-2l-108 -304h216zM10 0l260 692h67l252 -692h-84l-78 215h-260l-77 -215h-80zM38 506l-46 18l55 185l89 -34z" />
    <glyph glyph-name="anoteleia" unicode="&#x387;" horiz-adv-x="289" 
d="M199 354q0 -22 -16 -38.5t-38 -16.5q-23 0 -38.5 16t-15.5 39q0 22 15.5 37.5t38.5 15.5q22 0 38 -15.5t16 -37.5z" />
    <glyph glyph-name="Epsilontonos" unicode="&#x388;" horiz-adv-x="594" 
d="M537 0h-366v692h367l-10 -67h-277v-238h239v-67h-239v-253h296zM15 506l-46 18l55 185l89 -34z" />
    <glyph glyph-name="Etatonos" unicode="&#x389;" horiz-adv-x="774" 
d="M693 0h-80v313h-362v-313h-80v692h80v-308h362v308h80v-692zM15 506l-46 18l55 185l89 -34z" />
    <glyph glyph-name="Iotatonos" unicode="&#x38a;" horiz-adv-x="333" 
d="M252 0h-80v692h80v-692zM15 506l-46 18l55 185l89 -34z" />
    <glyph glyph-name="Omicrontonos" unicode="&#x38c;" horiz-adv-x="808" 
d="M15 506l-46 18l55 185l89 -34zM668 352q0 134 -71.5 205t-172.5 71q-107 0 -175.5 -71.5t-68.5 -211.5q0 -132 67.5 -206.5t176.5 -74.5q115 0 179.5 74.5t64.5 213.5zM753 346q0 -65 -19.5 -126t-57.5 -114t-103.5 -85t-148.5 -32q-68 0 -124 21.5t-93.5 57t-63 82
t-37 96t-11.5 100.5q0 147 87 251.5t242 104.5q81 0 145 -30.5t103.5 -81t60 -113.5t20.5 -131z" />
    <glyph glyph-name="Upsilontonos" unicode="&#x38e;" horiz-adv-x="687" 
d="M15 506l-46 18l55 185l89 -34zM593 692h84l-235 -391v-301h-79v301l-233 391h89l186 -320z" />
    <glyph glyph-name="Omegatonos" unicode="&#x38f;" horiz-adv-x="816" 
d="M776 67l-10 -67h-271v67q89 42 135 120.5t46 167.5q0 137 -68 205t-176 68t-176 -68t-68 -205q0 -89 46 -167.5t135 -120.5v-67h-271l-10 67h172q-76 49 -116.5 130.5t-40.5 168.5q0 145 86 240.5t243 95.5t243 -95.5t86 -240.5q0 -87 -40.5 -168.5t-116.5 -130.5h172z
M15 506l-46 18l55 185l89 -34z" />
    <glyph glyph-name="iotadieresistonos" unicode="&#x390;" horiz-adv-x="303" 
d="M265 88l26 -56q-50 -43 -107 -43q-55 0 -84 32.5t-29 109.5v340h76v-317q0 -98 49 -98q31 0 69 32zM38 634q0 -21 -13.5 -35.5t-33.5 -14.5q-21 0 -36 15t-15 35t15 34t36 14q20 0 33.5 -14t13.5 -34zM310 634q0 -20 -14 -35t-33 -15q-21 0 -36 15t-15 35t15 34t36 14
q20 0 33.5 -14t13.5 -34zM117 574l-46 18l55 185l89 -34z" />
    <glyph glyph-name="Alpha" unicode="&#x391;" horiz-adv-x="599" 
d="M405 281l-106 304h-2l-108 -304h216zM10 0l260 692h67l252 -692h-84l-78 215h-260l-77 -215h-80z" />
    <glyph glyph-name="Beta" unicode="&#x392;" horiz-adv-x="546" 
d="M421 194q0 68 -47 95.5t-147 27.5h-66v-250h72q102 0 145 31.5t43 95.5zM376 516q0 55 -36.5 82t-98.5 27h-80v-241h57q158 0 158 132zM506 194q0 -96 -64.5 -145t-166.5 -49h-194v692h160q94 0 156.5 -42t62.5 -129q0 -108 -113 -160v-2q72 -11 115.5 -52t43.5 -113z
" />
    <glyph glyph-name="Gamma" unicode="&#x393;" horiz-adv-x="453" 
d="M423 625h-262v-625h-80v692h352z" />
    <glyph glyph-name="uni0394" unicode="&#x394;" horiz-adv-x="599" 
d="M30 0l-10 27l250 665h67l242 -665l-10 -27h-539zM297 585l-184 -519h369l-183 519h-2z" />
    <glyph glyph-name="Epsilon" unicode="&#x395;" horiz-adv-x="504" 
d="M447 0h-366v692h367l-10 -67h-277v-238h239v-67h-239v-253h296z" />
    <glyph glyph-name="Zeta" unicode="&#x396;" horiz-adv-x="632" 
d="M586 674l-417 -607h430l-10 -67h-543v17l418 608h-387v67h509v-18z" />
    <glyph glyph-name="Eta" unicode="&#x397;" horiz-adv-x="684" 
d="M603 0h-80v313h-362v-313h-80v692h80v-308h362v308h80v-692z" />
    <glyph glyph-name="Theta" unicode="&#x398;" horiz-adv-x="768" 
d="M239 315v77h289v-77h-289zM628 352q0 134 -71.5 205t-172.5 71q-107 0 -175.5 -71.5t-68.5 -211.5q0 -132 67.5 -206.5t176.5 -74.5q115 0 179.5 74.5t64.5 213.5zM713 346q0 -65 -19.5 -126t-57.5 -114t-103.5 -85t-148.5 -32q-68 0 -124 21.5t-93.5 57t-63 82t-37 96
t-11.5 100.5q0 147 87 251.5t242 104.5q81 0 145 -30.5t103.5 -81t60 -113.5t20.5 -131z" />
    <glyph glyph-name="Iota" unicode="&#x399;" horiz-adv-x="243" 
d="M161 0h-80v692h80v-692z" />
    <glyph glyph-name="Kappa" unicode="&#x39a;" horiz-adv-x="582" 
d="M566 0h-102l-303 356v-356h-80v692h80v-330l315 330h95l-318 -327z" />
    <glyph glyph-name="Lambda" unicode="&#x39b;" horiz-adv-x="589" 
d="M497 0l-203 585h-2l-204 -585h-84l259 692h71l251 -692h-88z" />
    <glyph glyph-name="Mu" unicode="&#x39c;" horiz-adv-x="886" 
d="M805 0h-81v593h-2l-260 -593h-42l-261 593h-2v-593h-76v692h117l246 -561l245 561h116v-692z" />
    <glyph glyph-name="Nu" unicode="&#x39d;" horiz-adv-x="719" 
d="M638 692v-692h-63l-417 568h-2v-568h-75v692h83l397 -543h2v543h75z" />
    <glyph glyph-name="Xi" unicode="&#x39e;" horiz-adv-x="560" 
d="M59 615l10 77h431l-10 -77h-431zM32 0l10 77h486l-10 -77h-486zM87 320v77h376v-77h-376z" />
    <glyph glyph-name="Omicron" unicode="&#x39f;" horiz-adv-x="768" 
d="M628 352q0 134 -71.5 205t-172.5 71q-107 0 -175.5 -71.5t-68.5 -211.5q0 -132 67.5 -206.5t176.5 -74.5q115 0 179.5 74.5t64.5 213.5zM713 346q0 -65 -19.5 -126t-57.5 -114t-103.5 -85t-148.5 -32q-68 0 -124 21.5t-93.5 57t-63 82t-37 96t-11.5 100.5q0 147 87 251.5
t242 104.5q81 0 145 -30.5t103.5 -81t60 -113.5t20.5 -131z" />
    <glyph glyph-name="Pi" unicode="&#x3a0;" horiz-adv-x="674" 
d="M593 0h-80v621h-352v-621h-80v692h512v-692z" />
    <glyph glyph-name="Rho" unicode="&#x3a1;" horiz-adv-x="509" 
d="M396 480q0 145 -177 145h-58v-267q52 -16 94 -16q63 0 102 37.5t39 100.5zM481 488q0 -88 -57.5 -151.5t-147.5 -63.5q-43 0 -115 20v-293h-80v692h159q109 0 175 -49t66 -155z" />
    <glyph glyph-name="Sigma" unicode="&#x3a3;" horiz-adv-x="569" 
d="M493 625h-312l223 -264l-251 -294h381l-10 -67h-503v17l290 338l-275 319v18h467z" />
    <glyph glyph-name="Tau" unicode="&#x3a4;" horiz-adv-x="525" 
d="M498 625h-197v-625h-79v625h-206v67h492z" />
    <glyph glyph-name="Upsilon" unicode="&#x3a5;" horiz-adv-x="568" 
d="M474 692h84l-235 -391v-301h-79v301l-233 391h89l186 -320z" />
    <glyph glyph-name="Phi" unicode="&#x3a6;" horiz-adv-x="728" 
d="M404 -10h-80v90q-141 5 -214.5 78.5t-73.5 187.5q0 120 75.5 191t212.5 75v90h80v-90q139 -5 213.5 -75.5t74.5 -190.5q0 -117 -77.5 -189t-210.5 -77v-90zM607 351q0 99 -55.5 145.5t-147.5 49.5v-399q203 9 203 204zM121 345q0 -101 56 -147.5t147 -50.5v399
q-91 -3 -147 -51.5t-56 -149.5z" />
    <glyph glyph-name="Chi" unicode="&#x3a7;" horiz-adv-x="631" 
d="M509 0l-194 298l-206 -298h-87l252 354l-226 338h93l185 -283l196 283h87l-241 -341l235 -351h-94z" />
    <glyph glyph-name="Psi" unicode="&#x3a8;" horiz-adv-x="727" 
d="M403 0h-80v193q-120 9 -193.5 71t-73.5 175v253h80v-220q0 -190 187 -207v427h80v-428q190 17 190 204v224h78v-247q0 -115 -74.5 -178t-193.5 -73v-194z" />
    <glyph glyph-name="uni03A9" unicode="&#x3a9;" horiz-adv-x="768" 
d="M728 67l-10 -67h-271v67q89 42 135 120.5t46 167.5q0 137 -68 205t-176 68t-176 -68t-68 -205q0 -89 46 -167.5t135 -120.5v-67h-271l-10 67h172q-76 49 -116.5 130.5t-40.5 168.5q0 145 86 240.5t243 95.5t243 -95.5t86 -240.5q0 -87 -40.5 -168.5t-116.5 -130.5h172z
" />
    <glyph glyph-name="Iotadieresis" unicode="&#x3aa;" horiz-adv-x="243" 
d="M161 0h-80v692h80v-692zM80 807q0 -21 -14.5 -35.5t-35.5 -14.5t-35.5 14.5t-14.5 35.5q0 20 14.5 34.5t35.5 14.5t35.5 -14.5t14.5 -34.5zM262 807q0 -21 -14.5 -35.5t-35.5 -14.5t-35.5 14.5t-14.5 35.5q0 20 14.5 34.5t35.5 14.5t35.5 -14.5t14.5 -34.5z" />
    <glyph glyph-name="Upsilondieresis" unicode="&#x3ab;" horiz-adv-x="568" 
d="M474 692h84l-235 -391v-301h-79v301l-233 391h89l186 -320zM242 807q0 -21 -14.5 -35.5t-35.5 -14.5t-35.5 14.5t-14.5 35.5q0 20 14.5 34.5t35.5 14.5t35.5 -14.5t14.5 -34.5zM424 807q0 -21 -14.5 -35.5t-35.5 -14.5t-35.5 14.5t-14.5 35.5q0 20 14.5 34.5t35.5 14.5
t35.5 -14.5t14.5 -34.5z" />
    <glyph glyph-name="alphatonos" unicode="&#x3ac;" horiz-adv-x="576" 
d="M542 70l26 -56q-38 -25 -76 -25q-78 0 -97 76q-62 -76 -149 -76t-142 66t-55 179q0 105 58 176t150 71q87 0 140 -60q6 28 16 50h81q-29 -72 -29 -169v-148q0 -98 39 -98q15 0 38 14zM389 121v231q-49 63 -121 63q-61 0 -98.5 -51t-37.5 -134q0 -75 31 -124.5t93 -49.5
q76 0 133 65zM283 574l-46 18l55 185l89 -34z" />
    <glyph glyph-name="epsilontonos" unicode="&#x3ad;" horiz-adv-x="483" 
d="M434 432l-37 -54q-61 37 -137 37q-53 0 -84 -17.5t-31 -50.5q0 -72 107 -72h110l-7 -59h-103q-54 0 -85.5 -15.5t-31.5 -60.5q0 -42 36.5 -63t97.5 -21q77 0 145 47l39 -56q-83 -58 -191 -58q-101 0 -154 39t-53 108q0 76 73 110q-28 14 -45.5 42t-17.5 64q0 57 49 93
t145 36q101 0 175 -49zM248 574l-46 18l55 185l89 -34z" />
    <glyph glyph-name="etatonos" unicode="&#x3ae;" horiz-adv-x="524" 
d="M76 0v334q0 64 -30 117l72 30q22 -40 28 -71q36 27 54.5 39t48 22t63.5 10q64 0 102.5 -42t38.5 -116v-535l-76 -7v514q0 117 -86 117q-68 0 -139 -64v-348h-76zM267 574l-46 18l55 185l89 -34z" />
    <glyph glyph-name="iotatonos" unicode="&#x3af;" horiz-adv-x="303" 
d="M265 88l26 -56q-50 -43 -107 -43q-55 0 -84 32.5t-29 109.5v340h76v-317q0 -98 49 -98q31 0 69 32zM126 574l-46 18l55 185l89 -34z" />
    <glyph glyph-name="upsilondieresistonos" unicode="&#x3b0;" horiz-adv-x="526" 
d="M71 471h76v-295q0 -56 30 -88t85 -32q67 0 99.5 44.5t32.5 114.5q0 146 -66 233l62 40q87 -104 87 -259q0 -109 -56 -174.5t-159 -65.5q-79 0 -135 41.5t-56 127.5v313zM175 634q0 -21 -13.5 -35.5t-33.5 -14.5q-21 0 -36 15t-15 35t15 34t36 14q20 0 33.5 -14t13.5 -34z
M447 634q0 -20 -14 -35t-33 -15q-21 0 -36 15t-15 35t15 34t36 14q20 0 33.5 -14t13.5 -34zM254 574l-46 18l55 185l89 -34z" />
    <glyph glyph-name="alpha" unicode="&#x3b1;" horiz-adv-x="576" 
d="M542 70l26 -56q-38 -25 -76 -25q-78 0 -97 76q-62 -76 -149 -76t-142 66t-55 179q0 105 58 176t150 71q87 0 140 -60q6 28 16 50h81q-29 -72 -29 -169v-148q0 -98 39 -98q15 0 38 14zM389 121v231q-49 63 -121 63q-61 0 -98.5 -51t-37.5 -134q0 -75 31 -124.5t93 -49.5
q76 0 133 65z" />
    <glyph glyph-name="beta" unicode="&#x3b2;" horiz-adv-x="543" 
d="M285 -11q-73 0 -136 37v-238l-76 -7v719q0 104 48.5 157t141.5 53q91 0 137.5 -50t46.5 -118q0 -52 -26.5 -94.5t-75.5 -67.5q69 -23 109 -71.5t40 -119.5q0 -92 -55 -146t-154 -54zM149 481v-380q64 -45 135 -45q59 0 93 36t34 90q0 74 -51.5 115t-138.5 41h-7v62h13
q67 0 104.5 37t37.5 101q0 43 -27.5 74.5t-78.5 31.5q-31 0 -52.5 -10t-33.5 -25t-18.5 -38.5t-8 -43t-1.5 -46.5z" />
    <glyph glyph-name="gamma" unicode="&#x3b3;" horiz-adv-x="480" 
d="M-1 471h93q44 -76 89.5 -188t66.5 -217q4 9 22.5 44.5t24.5 49.5l21 47.5t21.5 57l16 58t14 71t6.5 77.5h81q-5 -101 -38 -192.5t-84.5 -188.5t-69.5 -146q0 -83 -10 -163h-82q0 90 18 159q-10 127 -70.5 279t-119.5 252z" />
    <glyph glyph-name="delta" unicode="&#x3b4;" horiz-adv-x="576" 
d="M49 219q0 76 45 136t124 89q-46 31 -71.5 65t-25.5 82q0 58 44.5 88.5t114.5 30.5q112 0 231 -69l-37 -60q-99 63 -192 63q-78 0 -78 -53q0 -32 33.5 -61.5t81 -56t94.5 -58t80.5 -82.5t33.5 -115q0 -98 -66 -163.5t-171 -65.5q-108 0 -174.5 63.5t-66.5 166.5zM445 214
q0 35 -12.5 64t-40 53t-48 38t-60.5 37q-72 -22 -112 -72.5t-40 -118.5q0 -76 47 -117.5t113 -41.5q65 0 109 41t44 117z" />
    <glyph glyph-name="epsilon" unicode="&#x3b5;" horiz-adv-x="483" 
d="M434 432l-37 -54q-61 37 -137 37q-53 0 -84 -17.5t-31 -50.5q0 -72 107 -72h110l-7 -59h-103q-54 0 -85.5 -15.5t-31.5 -60.5q0 -42 36.5 -63t97.5 -21q77 0 145 47l39 -56q-83 -58 -191 -58q-101 0 -154 39t-53 108q0 76 73 110q-28 14 -45.5 42t-17.5 64q0 57 49 93
t145 36q101 0 175 -49z" />
    <glyph glyph-name="zeta" unicode="&#x3b6;" horiz-adv-x="452" 
d="M317 -195l-47 53q37 24 63 50t26 41t-19 22.5t-76 18.5q-108 19 -161.5 71.5t-53.5 164.5q0 115 76 224t194 191h-224v69h321l12 -55q-54 -37 -103.5 -82t-94.5 -100.5t-71.5 -120.5t-26.5 -128q0 -77 39 -111.5t126 -50.5q69 -13 107 -35t38 -70q0 -75 -125 -152z" />
    <glyph glyph-name="eta" unicode="&#x3b7;" horiz-adv-x="524" 
d="M76 0v334q0 64 -30 117l72 30q22 -40 28 -71q36 27 54.5 39t48 22t63.5 10q64 0 102.5 -42t38.5 -116v-535l-76 -7v514q0 117 -86 117q-68 0 -139 -64v-348h-76z" />
    <glyph glyph-name="theta" unicode="&#x3b8;" horiz-adv-x="532" 
d="M478 346q0 -173 -53 -265t-159 -92q-60 0 -103 30t-66 83t-33 113t-10 131q0 67 9 125t30.5 115t65.5 90.5t107 33.5q61 0 104.5 -31t66 -85.5t32 -115t9.5 -132.5zM269 56q68 0 96 70.5t30 202.5h-258q1 -144 33 -208.5t99 -64.5zM265 644q-120 0 -128 -256h257
q-4 134 -34.5 195t-94.5 61z" />
    <glyph glyph-name="iota" unicode="&#x3b9;" horiz-adv-x="303" 
d="M265 88l26 -56q-50 -43 -107 -43q-55 0 -84 32.5t-29 109.5v340h76v-317q0 -98 49 -98q31 0 69 32z" />
    <glyph glyph-name="kappa" unicode="&#x3ba;" horiz-adv-x="488" 
d="M76 0v471h76v-227l101 123q47 58 85.5 85.5t85.5 27.5l13 -59q-34 -4 -61 -23.5t-76 -73.5l-54 -59l140 -167q63 -73 90 -98h-97q-33 30 -62 67l-118 146l-47 -52v-161h-76z" />
    <glyph glyph-name="lambda" unicode="&#x3bb;" horiz-adv-x="485" 
d="M324 175l-74 198l-150 -373h-85l197 473l-26 72q-15 43 -35 65t-54 22q-19 0 -45 -8l-17 65q46 17 80 17q89 0 128 -102l145 -388q19 -50 39.5 -86.5t31 -49t35.5 -39.5l-59 -52q-37 35 -60.5 76.5t-50.5 109.5z" />
    <glyph glyph-name="uni03BC" unicode="&#x3bc;" horiz-adv-x="549" 
d="M76 -219v690h76v-280q0 -65 30.5 -100t68.5 -35q62 0 125 68v347h77v-351q0 -64 34 -64q15 0 39 19l16 -60q-38 -26 -75 -26q-71 0 -86 74q-63 -74 -133 -74q-60 0 -96 65v-266z" />
    <glyph glyph-name="nu" unicode="&#x3bd;" horiz-adv-x="460" 
d="M238 -5h-59l-179 476h84l139 -371q45 62 87.5 168.5t43.5 202.5h81q-2 -37 -9.5 -75t-15 -67t-23 -66t-25 -57.5t-31 -58l-30 -51.5l-33 -53z" />
    <glyph glyph-name="xi" unicode="&#x3be;" horiz-adv-x="432" 
d="M244 -10q-95 18 -147 61.5t-52 131.5q0 66 43 114t113 73q-96 47 -96 130q0 93 125 141h-151v69h323l10 -53q-120 -27 -173.5 -64t-53.5 -88q0 -56 38 -85.5t104 -29.5h55l-7 -59h-63q-78 0 -132.5 -35t-54.5 -105q0 -63 37 -88.5t115 -40.5q69 -13 107 -35t38 -70
q0 -75 -125 -152l-47 53q37 24 63 50t26 41t-19 22.5t-76 18.5z" />
    <glyph glyph-name="omicron" unicode="&#x3bf;" horiz-adv-x="565" 
d="M434 234q0 91 -43 136t-108 45t-108 -45t-43 -135t43 -134.5t108 -44.5t108 44t43 134zM517 235q0 -108 -65 -177t-169 -69q-105 0 -169.5 69t-64.5 177q0 109 64.5 177.5t169.5 68.5q104 0 169 -68.5t65 -177.5z" />
    <glyph glyph-name="pi" unicode="&#x3c0;" horiz-adv-x="591" 
d="M546 71l25 -57q-45 -25 -88 -25q-57 0 -86.5 34.5t-29.5 117.5v271h-175v-195q0 -66 -9.5 -127.5t-24.5 -89.5h-76q34 65 34 201v211h-29q-48 0 -84 -18l-13 57q40 20 92 20h487l-12 -59h-114v-258q0 -52 13 -75t40 -23q24 0 50 15z" />
    <glyph glyph-name="rho" unicode="&#x3c1;" horiz-adv-x="556" 
d="M147 255v-146q55 -52 131 -52q65 0 105 49t40 132q0 177 -140 177q-53 0 -94.5 -39t-41.5 -121zM71 -219v481q0 104 59 161.5t153 57.5q104 0 164 -61t60 -175q0 -107 -62.5 -181.5t-161.5 -74.5q-85 0 -136 44v-245z" />
    <glyph glyph-name="sigma1" unicode="&#x3c2;" horiz-adv-x="437" 
d="M293 -195l-47 53q37 24 63 50t26 41t-18.5 22.5t-72.5 18.5q-98 19 -146.5 71.5t-48.5 164.5q0 116 64 187.5t165 71.5q90 0 149 -50l-37 -56q-48 40 -111 40q-67 0 -107 -51.5t-40 -143.5q0 -77 34.5 -111.5t110.5 -50.5q43 -8 70.5 -17.5t49 -32t21.5 -55.5
q0 -75 -125 -152z" />
    <glyph glyph-name="sigma" unicode="&#x3c3;" horiz-adv-x="587" 
d="M555 412h-130q82 -76 82 -187q0 -103 -62 -169.5t-162 -66.5q-105 0 -169.5 68.5t-64.5 176.5t71.5 172.5t192.5 64.5h254zM424 224q0 62 -23.5 111t-66.5 77h-9q-90 0 -141.5 -46t-51.5 -135q0 -86 43.5 -130.5t107.5 -44.5q61 0 101 41.5t40 126.5z" />
    <glyph glyph-name="tau" unicode="&#x3c4;" horiz-adv-x="421" 
d="M357 83l30 -53q-52 -41 -112 -41q-62 0 -94 35t-32 117v271h-59q-51 0 -87 -18l-13 57q40 20 95 20h326l-12 -59h-174v-258q0 -52 15 -75t48 -23q34 0 69 27z" />
    <glyph glyph-name="upsilon" unicode="&#x3c5;" horiz-adv-x="526" 
d="M71 471h76v-295q0 -56 30 -88t85 -32q67 0 99.5 44.5t32.5 114.5q0 146 -66 233l62 40q87 -104 87 -259q0 -109 -56 -174.5t-159 -65.5q-79 0 -135 41.5t-56 127.5v313z" />
    <glyph glyph-name="phi" unicode="&#x3c6;" horiz-adv-x="684" 
d="M132 241q0 -89 42.5 -132.5t125.5 -51.5v256q0 168 137 168q83 0 140.5 -66.5t57.5 -169.5q0 -108 -66.5 -176.5t-192.5 -77.5v-203l-76 -7v209q-125 9 -188 74.5t-63 170.5q0 136 98 228l51 -48q-66 -71 -66 -174zM376 283v-226q86 7 131 51t45 136q0 79 -34 125t-77 46
q-39 0 -52 -26.5t-13 -105.5z" />
    <glyph glyph-name="chi" unicode="&#x3c7;" horiz-adv-x="470" 
d="M295 -42l-49 115l-148 -292h-90q64 105 131 235l71 139l-67 158q-24 55 -39 73.5t-43 18.5q-15 0 -36 -6l-17 59q45 16 74 16q38 0 66.5 -24.5t51.5 -77.5l55 -129l117 228h78l-160 -310l70 -162q22 -50 45 -85.5t38 -50.5t43 -39l-57 -52q-45 34 -75.5 77t-58.5 109z
" />
    <glyph glyph-name="psi" unicode="&#x3c8;" horiz-adv-x="704" 
d="M71 471h76v-258q0 -153 167 -159v549l76 8v-557q167 6 167 159v258h76v-263q0 -107 -68.5 -161.5t-174.5 -57.5v-201l-76 -7v208q-107 3 -175 57t-68 162v263z" />
    <glyph glyph-name="omega" unicode="&#x3c9;" horiz-adv-x="757" 
d="M552 416l42 57q113 -78 113 -247q0 -111 -46.5 -175.5t-134.5 -64.5q-104 0 -148 121q-22 -58 -56.5 -89.5t-91.5 -31.5q-87 0 -134 64.5t-47 175.5q0 169 113 247l42 -57q-72 -58 -72 -192q0 -77 28 -124.5t79 -47.5q101 0 101 258v29l76 8v-37q2 -258 101 -258
q50 0 78.5 48t28.5 124q0 134 -72 192z" />
    <glyph glyph-name="iotadieresis" unicode="&#x3ca;" horiz-adv-x="303" 
d="M265 88l26 -56q-50 -43 -107 -43q-55 0 -84 32.5t-29 109.5v340h76v-317q0 -98 49 -98q31 0 69 32zM77 634q0 -21 -14.5 -35.5t-35.5 -14.5t-35.5 14.5t-14.5 35.5q0 20 14.5 34.5t35.5 14.5t35.5 -14.5t14.5 -34.5zM259 634q0 -21 -14.5 -35.5t-35.5 -14.5t-35.5 14.5
t-14.5 35.5q0 20 14.5 34.5t35.5 14.5t35.5 -14.5t14.5 -34.5z" />
    <glyph glyph-name="upsilondieresis" unicode="&#x3cb;" horiz-adv-x="526" 
d="M71 471h76v-295q0 -56 30 -88t85 -32q67 0 99.5 44.5t32.5 114.5q0 146 -66 233l62 40q87 -104 87 -259q0 -109 -56 -174.5t-159 -65.5q-79 0 -135 41.5t-56 127.5v313zM222 634q0 -21 -14.5 -35.5t-35.5 -14.5t-35.5 14.5t-14.5 35.5q0 20 14.5 34.5t35.5 14.5
t35.5 -14.5t14.5 -34.5zM404 634q0 -21 -14.5 -35.5t-35.5 -14.5t-35.5 14.5t-14.5 35.5q0 20 14.5 34.5t35.5 14.5t35.5 -14.5t14.5 -34.5z" />
    <glyph glyph-name="omicrontonos" unicode="&#x3cc;" horiz-adv-x="565" 
d="M434 234q0 91 -43 136t-108 45t-108 -45t-43 -135t43 -134.5t108 -44.5t108 44t43 134zM517 235q0 -108 -65 -177t-169 -69q-105 0 -169.5 69t-64.5 177q0 109 64.5 177.5t169.5 68.5q104 0 169 -68.5t65 -177.5zM298 574l-46 18l55 185l89 -34z" />
    <glyph glyph-name="upsilontonos" unicode="&#x3cd;" horiz-adv-x="526" 
d="M71 471h76v-295q0 -56 30 -88t85 -32q67 0 99.5 44.5t32.5 114.5q0 146 -66 233l62 40q87 -104 87 -259q0 -109 -56 -174.5t-159 -65.5q-79 0 -135 41.5t-56 127.5v313zM269 574l-46 18l55 185l89 -34z" />
    <glyph glyph-name="omegatonos" unicode="&#x3ce;" horiz-adv-x="757" 
d="M552 416l42 57q113 -78 113 -247q0 -111 -46.5 -175.5t-134.5 -64.5q-104 0 -148 121q-22 -58 -56.5 -89.5t-91.5 -31.5q-87 0 -134 64.5t-47 175.5q0 169 113 247l42 -57q-72 -58 -72 -192q0 -77 28 -124.5t79 -47.5q101 0 101 258v29l76 8v-37q2 -258 101 -258
q50 0 78.5 48t28.5 124q0 134 -72 192zM383 574l-46 18l55 185l89 -34z" />
    <glyph glyph-name="uni0400" unicode="&#x400;" horiz-adv-x="504" 
d="M447 0h-366v692h367l-10 -67h-277v-238h239v-67h-239v-253h296zM349 741h-63l-146 86l65 63z" />
    <glyph glyph-name="uni0401" unicode="&#x401;" horiz-adv-x="504" 
d="M447 0h-366v692h367l-10 -67h-277v-238h239v-67h-239v-253h296zM227 807q0 -21 -14.5 -35.5t-35.5 -14.5t-35.5 14.5t-14.5 35.5q0 20 14.5 34.5t35.5 14.5t35.5 -14.5t14.5 -34.5zM409 807q0 -21 -14.5 -35.5t-35.5 -14.5t-35.5 14.5t-14.5 35.5q0 20 14.5 34.5
t35.5 14.5t35.5 -14.5t14.5 -34.5z" />
    <glyph glyph-name="uni0402" unicode="&#x402;" horiz-adv-x="751" 
d="M498 625h-197v-154h122q142 0 205 -57.5t63 -179.5q0 -118 -67 -176t-181 -58h-47v67h22q101 0 144.5 42t43.5 125q0 96 -46.5 133t-147.5 37h-111v-404h-79v625h-206v67h492z" />
    <glyph glyph-name="uni0403" unicode="&#x403;" horiz-adv-x="453" 
d="M423 625h-262v-625h-80v692h352zM238 741h-63l144 149l65 -63z" />
    <glyph glyph-name="uni0404" unicode="&#x404;" horiz-adv-x="660" 
d="M579 659l-26 -70q-70 39 -152 39q-112 0 -180.5 -67.5t-79.5 -173.5h357v-67h-357q9 -118 78.5 -187t179.5 -69q97 0 186 60l36 -61q-104 -74 -223 -74q-156 0 -249.5 100t-93.5 253q0 156 95 258t251 102q96 0 178 -43z" />
    <glyph glyph-name="uni0405" unicode="&#x405;" horiz-adv-x="485" 
d="M52 35l29 71q84 -44 162 -44q53 0 86 26t33 78q0 40 -29.5 72.5t-92.5 70.5q-91 54 -121 80q-68 62 -68 146q0 78 58 122.5t145 44.5t163 -35l-27 -69q-67 32 -131 32q-127 0 -127 -98q0 -44 31 -73t121 -82q80 -47 108 -76q50 -52 50 -128q0 -80 -55 -132t-145 -52
q-106 0 -190 46z" />
    <glyph glyph-name="uni0406" unicode="&#x406;" horiz-adv-x="243" 
d="M161 0h-80v692h80v-692z" />
    <glyph glyph-name="uni0407" unicode="&#x407;" horiz-adv-x="243" 
d="M161 0h-80v692h80v-692zM81 807q0 -21 -14.5 -35.5t-35.5 -14.5t-35.5 14.5t-14.5 35.5q0 20 14.5 34.5t35.5 14.5t35.5 -14.5t14.5 -34.5zM263 807q0 -21 -14.5 -35.5t-35.5 -14.5t-35.5 14.5t-14.5 35.5q0 20 14.5 34.5t35.5 14.5t35.5 -14.5t14.5 -34.5z" />
    <glyph glyph-name="uni0408" unicode="&#x408;" horiz-adv-x="243" 
d="M-53 -195l-23 65q85 9 121.5 56.5t36.5 143.5v622h80v-615q0 -123 -48 -192.5t-167 -79.5z" />
    <glyph glyph-name="uni0409" unicode="&#x409;" horiz-adv-x="987" 
d="M220 692h372v-288h67q142 0 205 -49.5t63 -150.5q0 -102 -67 -153t-181 -51h-167v621h-221l-39 -362q-5 -46 -11.5 -78t-21 -69t-35 -59.5t-56.5 -37.5t-83 -15h-20v71h20q62 0 90 50.5t40 153.5zM842 204q0 74 -47 103.5t-147 29.5h-56v-270h62q101 0 144.5 34t43.5 103
z" />
    <glyph glyph-name="uni040A" unicode="&#x40a;" horiz-adv-x="998" 
d="M523 692h80v-288h67q142 0 205 -49.5t63 -150.5q0 -102 -67 -153t-181 -51h-167v337h-362v-337h-80v692h80v-288h362v288zM853 204q0 74 -47 103.5t-147 29.5h-56v-270h62q101 0 144.5 34t43.5 103z" />
    <glyph glyph-name="uni040B" unicode="&#x40b;" horiz-adv-x="747" 
d="M498 625h-197v-210q57 33 105.5 49.5t110.5 16.5q74 0 119.5 -42.5t45.5 -115.5v-323h-80v290q0 117 -109 117q-98 0 -192 -64v-343h-79v625h-206v67h492z" />
    <glyph glyph-name="uni040C" unicode="&#x40c;" horiz-adv-x="576" 
d="M81 0v692h80v-305q44 11 76.5 47.5t53 78.5t44 83t64 68.5t98.5 27.5h25v-72h-10q-44 0 -74 -19t-48.5 -50t-35 -64.5t-47 -68t-71.5 -55.5q74 -10 122 -54t89 -123l94 -186h-87l-82 166q-40 80 -83 113t-108 33h-20v-312h-80zM304 741h-63l144 149l65 -63z" />
    <glyph glyph-name="uni040D" unicode="&#x40d;" horiz-adv-x="719" 
d="M81 0v692h75v-560h2l402 560h78v-692h-75v574h-2l-412 -574h-68zM434 741h-63l-146 86l65 63z" />
    <glyph glyph-name="uni040E" unicode="&#x40e;" horiz-adv-x="576" 
d="M51 0v71h54q62 0 95.5 18.5t59.5 64.5l-245 538h84l203 -447l185 447h78l-181 -438q-24 -58 -39 -90t-39 -68.5t-48.5 -54t-61 -29.5t-83.5 -12h-62zM447 875q-4 -49 -40 -87t-109 -38q-68 0 -107 35.5t-42 89.5h67q4 -38 26.5 -58t55.5 -20q32 0 55 21t24 57h70z" />
    <glyph glyph-name="uni040F" unicode="&#x40f;" horiz-adv-x="674" 
d="M513 692h80v-692h-217l-7 -155h-64l-7 155h-217v692h80v-621h352v621z" />
    <glyph glyph-name="uni0410" unicode="&#x410;" horiz-adv-x="599" 
d="M405 281l-106 304h-2l-108 -304h216zM10 0l260 692h67l252 -692h-84l-78 215h-260l-77 -215h-80z" />
    <glyph glyph-name="uni0411" unicode="&#x411;" horiz-adv-x="556" 
d="M433 625h-272v-221h67q142 0 205 -49.5t63 -150.5q0 -102 -67 -153t-181 -51h-167v692h362zM411 204q0 74 -47 103.5t-147 29.5h-56v-270h62q101 0 144.5 34t43.5 103z" />
    <glyph glyph-name="uni0412" unicode="&#x412;" horiz-adv-x="546" 
d="M421 194q0 68 -47 95.5t-147 27.5h-66v-250h72q102 0 145 31.5t43 95.5zM376 516q0 55 -36.5 82t-98.5 27h-80v-241h57q158 0 158 132zM506 194q0 -96 -64.5 -145t-166.5 -49h-194v692h160q94 0 156.5 -42t62.5 -129q0 -108 -113 -160v-2q72 -11 115.5 -52t43.5 -113z
" />
    <glyph glyph-name="uni0413" unicode="&#x413;" horiz-adv-x="453" 
d="M423 625h-262v-625h-80v692h352z" />
    <glyph glyph-name="uni0414" unicode="&#x414;" horiz-adv-x="693" 
d="M30 71h42q75 28 93 204l45 417h372v-621h81l-10 -226h-70v155h-473v-155h-70zM281 621l-39 -362q-14 -128 -69 -188h329v550h-221z" />
    <glyph glyph-name="uni0415" unicode="&#x415;" horiz-adv-x="504" 
d="M447 0h-366v692h367l-10 -67h-277v-238h239v-67h-239v-253h296z" />
    <glyph glyph-name="uni0416" unicode="&#x416;" horiz-adv-x="910" 
d="M495 692v-305q44 11 76.5 47.5t53 78.5t44 83t64 68.5t98.5 27.5h25v-72h-10q-44 0 -74 -19t-48.5 -50t-35 -64.5t-47 -68t-71.5 -55.5q74 -10 122 -54t89 -123l94 -186h-87l-82 166q-40 80 -83 113t-108 33h-20v-312h-80v312h-20q-65 0 -108 -33t-83 -113l-82 -166h-87
l94 186q41 80 88.5 123.5t122.5 53.5q-42 21 -72 55.5t-47 68t-35 64.5t-48 50t-74 19h-10v72h25q58 0 98.5 -27.5t64 -68.5t44 -83t53 -78.5t76.5 -47.5v305h80z" />
    <glyph glyph-name="uni0417" unicode="&#x417;" horiz-adv-x="516" 
d="M90 578l-35 67q98 57 195 57q91 0 145.5 -48.5t54.5 -121.5q0 -124 -132 -171q71 -19 109.5 -63.5t38.5 -111.5q0 -85 -61 -141t-165 -56q-123 0 -205 57l35 67q73 -49 167 -49q61 0 102.5 32.5t41.5 90.5q0 62 -52.5 100t-169.5 38h-21v67h19q108 0 158 37t50 95
q0 48 -35 76t-85 28q-78 0 -155 -50z" />
    <glyph glyph-name="uni0418" unicode="&#x418;" horiz-adv-x="719" 
d="M81 0v692h75v-560h2l402 560h78v-692h-75v574h-2l-412 -574h-68z" />
    <glyph glyph-name="uni0419" unicode="&#x419;" horiz-adv-x="719" 
d="M81 0v692h75v-560h2l402 560h78v-692h-75v574h-2l-412 -574h-68zM509 875q-4 -49 -40 -87t-109 -38q-68 0 -107 35.5t-42 89.5h67q4 -38 26.5 -58t55.5 -20q32 0 55 21t24 57h70z" />
    <glyph glyph-name="uni041A" unicode="&#x41a;" horiz-adv-x="576" 
d="M81 0v692h80v-305q44 11 76.5 47.5t53 78.5t44 83t64 68.5t98.5 27.5h25v-72h-10q-44 0 -74 -19t-48.5 -50t-35 -64.5t-47 -68t-71.5 -55.5q74 -10 122 -54t89 -123l94 -186h-87l-82 166q-40 80 -83 113t-108 33h-20v-312h-80z" />
    <glyph glyph-name="uni041B" unicode="&#x41b;" horiz-adv-x="673" 
d="M592 0h-80v621h-221l-39 -362q-5 -46 -11.5 -78t-21 -69t-35 -59.5t-56.5 -37.5t-83 -15h-20v71h20q62 0 90 50.5t40 153.5l45 417h372v-692z" />
    <glyph glyph-name="uni041C" unicode="&#x41c;" horiz-adv-x="886" 
d="M805 0h-81v593h-2l-260 -593h-42l-261 593h-2v-593h-76v692h117l246 -561l245 561h116v-692z" />
    <glyph glyph-name="uni041D" unicode="&#x41d;" horiz-adv-x="684" 
d="M603 0h-80v313h-362v-313h-80v692h80v-308h362v308h80v-692z" />
    <glyph glyph-name="uni041E" unicode="&#x41e;" horiz-adv-x="768" 
d="M628 352q0 134 -71.5 205t-172.5 71q-107 0 -175.5 -71.5t-68.5 -211.5q0 -132 67.5 -206.5t176.5 -74.5q115 0 179.5 74.5t64.5 213.5zM713 346q0 -65 -19.5 -126t-57.5 -114t-103.5 -85t-148.5 -32q-68 0 -124 21.5t-93.5 57t-63 82t-37 96t-11.5 100.5q0 147 87 251.5
t242 104.5q81 0 145 -30.5t103.5 -81t60 -113.5t20.5 -131z" />
    <glyph glyph-name="uni041F" unicode="&#x41f;" horiz-adv-x="674" 
d="M593 0h-80v621h-352v-621h-80v692h512v-692z" />
    <glyph glyph-name="uni0420" unicode="&#x420;" horiz-adv-x="509" 
d="M396 480q0 145 -177 145h-58v-267q52 -16 94 -16q63 0 102 37.5t39 100.5zM481 488q0 -88 -57.5 -151.5t-147.5 -63.5q-43 0 -115 20v-293h-80v692h159q109 0 175 -49t66 -155z" />
    <glyph glyph-name="uni0421" unicode="&#x421;" horiz-adv-x="660" 
d="M579 659l-26 -70q-70 39 -152 39q-121 0 -191 -78.5t-70 -197.5q0 -131 71 -209.5t188 -78.5q97 0 186 60l36 -61q-104 -74 -223 -74q-156 0 -249.5 100t-93.5 253q0 156 95 258t251 102q96 0 178 -43z" />
    <glyph glyph-name="uni0422" unicode="&#x422;" horiz-adv-x="525" 
d="M498 625h-197v-625h-79v625h-206v67h492z" />
    <glyph glyph-name="uni0423" unicode="&#x423;" horiz-adv-x="576" 
d="M51 0v71h54q62 0 95.5 18.5t59.5 64.5l-245 538h84l203 -447l185 447h78l-181 -438q-24 -58 -39 -90t-39 -68.5t-48.5 -54t-61 -29.5t-83.5 -12h-62z" />
    <glyph glyph-name="uni0424" unicode="&#x424;" horiz-adv-x="728" 
d="M404 -10h-80v90q-141 5 -214.5 78.5t-73.5 187.5q0 120 75.5 191t212.5 75v90h80v-90q139 -5 213.5 -75.5t74.5 -190.5q0 -117 -77.5 -189t-210.5 -77v-90zM607 351q0 99 -55.5 145.5t-147.5 49.5v-399q203 9 203 204zM121 345q0 -101 56 -147.5t147 -50.5v399
q-91 -3 -147 -51.5t-56 -149.5z" />
    <glyph glyph-name="uni0425" unicode="&#x425;" horiz-adv-x="631" 
d="M509 0l-194 298l-206 -298h-87l252 354l-226 338h93l185 -283l196 283h87l-241 -341l235 -351h-94z" />
    <glyph glyph-name="uni0426" unicode="&#x426;" horiz-adv-x="704" 
d="M81 0v692h80v-621h352v621h80v-621h81l-10 -226h-70v155h-513z" />
    <glyph glyph-name="uni0427" unicode="&#x427;" horiz-adv-x="658" 
d="M577 0h-80v283q-122 -30 -220 -30q-42 0 -77.5 9.5t-67 31.5t-49.5 65t-18 104v229h80v-205q0 -163 147 -163q79 0 205 30v338h80v-692z" />
    <glyph glyph-name="uni0428" unicode="&#x428;" horiz-adv-x="926" 
d="M765 692h80v-692h-764v692h80v-621h262v621h80v-621h262v621z" />
    <glyph glyph-name="uni0429" unicode="&#x429;" horiz-adv-x="956" 
d="M765 692h80v-621h81l-10 -226h-70v155h-765v692h80v-621h262v621h80v-621h262v621z" />
    <glyph glyph-name="uni042A" unicode="&#x42a;" horiz-adv-x="697" 
d="M16 625v67h286v-288h67q142 0 205 -49.5t63 -150.5q0 -102 -67 -153t-181 -51h-167v625h-206zM552 204q0 74 -47 103.5t-147 29.5h-56v-270h62q101 0 144.5 34t43.5 103z" />
    <glyph glyph-name="uni042B" unicode="&#x42b;" horiz-adv-x="772" 
d="M81 692h80v-288h67q142 0 205 -49.5t63 -150.5q0 -102 -67 -153t-181 -51h-167v692zM411 204q0 74 -47 103.5t-147 29.5h-56v-270h62q101 0 144.5 34t43.5 103zM691 0h-80v692h80v-692z" />
    <glyph glyph-name="uni042C" unicode="&#x42c;" horiz-adv-x="556" 
d="M81 692h80v-288h67q142 0 205 -49.5t63 -150.5q0 -102 -67 -153t-181 -51h-167v692zM411 204q0 74 -47 103.5t-147 29.5h-56v-270h62q101 0 144.5 34t43.5 103z" />
    <glyph glyph-name="uni042D" unicode="&#x42d;" horiz-adv-x="650" 
d="M152 320v67h356q-11 111 -78.5 176t-180.5 65q-82 0 -152 -39l-26 70q82 43 178 43q161 0 253.5 -98t92.5 -253q0 -160 -90 -261t-243 -101q-119 0 -223 74l36 61q89 -60 186 -60q106 0 173 70t75 186h-357z" />
    <glyph glyph-name="uni042E" unicode="&#x42e;" horiz-adv-x="1042" 
d="M987 346q0 -65 -19.5 -126t-57.5 -114t-103.5 -85t-148.5 -32q-79 0 -141.5 28t-101 76t-59.5 103.5t-26 116.5h-169v-313h-80v692h80v-308h170q11 135 96.5 226.5t230.5 91.5q81 0 145 -30.5t103.5 -81t60 -113.5t20.5 -131zM902 352q0 134 -71.5 205t-172.5 71
q-107 0 -175.5 -71.5t-68.5 -211.5q0 -132 67.5 -206.5t176.5 -74.5q115 0 179.5 74.5t64.5 213.5z" />
    <glyph glyph-name="uni042F" unicode="&#x42f;" horiz-adv-x="563" 
d="M187 507q0 -127 183 -127h32v245h-55q-87 0 -123.5 -28.5t-36.5 -89.5zM91 0h-87l89 176q16 31 27.5 50t30.5 44t43.5 41.5t54.5 25.5v2q-74 13 -112 64t-38 108q0 90 62.5 135.5t170.5 45.5h150v-692h-80v314h-38q-64 0 -107.5 -34t-83.5 -114z" />
    <glyph glyph-name="uni0430" unicode="&#x430;" horiz-adv-x="476" 
d="M303 115v128q-108 -25 -146.5 -50.5t-38.5 -70.5q0 -30 19 -48.5t49 -18.5q26 0 61 17t56 43zM453 67l16 -52q-38 -26 -75 -26q-66 0 -79 67q-72 -67 -142 -67q-57 0 -94 34t-37 96t42.5 98t129.5 59l89 23v18q0 98 -79 98q-51 0 -134 -53l-30 63q94 60 175 60
q61 0 102.5 -39t41.5 -117v-199q0 -39 7.5 -58.5t27.5 -19.5q10 0 39 15z" />
    <glyph glyph-name="uni0431" unicode="&#x431;" horiz-adv-x="565" 
d="M130 370q67 88 179 88q90 0 148.5 -62.5t58.5 -168.5q0 -104 -64 -171t-165 -67q-110 0 -172.5 76.5t-62.5 228.5q0 179 53 277.5t175 109.5q29 3 68 4.5t62.5 3.5t41.5 7l11 -65q-14 -6 -43 -8t-69.5 -3t-64.5 -4q-78 -9 -112.5 -69.5t-43.5 -176.5zM432 223
q0 80 -36.5 124t-105.5 44q-72 0 -114 -42.5t-42 -112.5q0 -76 40.5 -128t112.5 -52q68 0 106.5 45.5t38.5 121.5z" />
    <glyph glyph-name="uni0432" unicode="&#x432;" horiz-adv-x="485" 
d="M359 132q0 41 -30.5 58.5t-91.5 17.5h-85v-146h89q118 0 118 70zM338 343q0 66 -92 66h-94v-139h78q108 0 108 73zM437 132q0 -66 -47 -99t-121 -33h-193v471h170q73 0 121.5 -28t48.5 -88q0 -82 -78 -109v-1q99 -18 99 -113z" />
    <glyph glyph-name="uni0433" unicode="&#x433;" horiz-adv-x="350" 
d="M152 0h-76v471h264l-12 -62h-176v-409z" />
    <glyph glyph-name="uni0434" unicode="&#x434;" horiz-adv-x="586" 
d="M479 471v-406h77l-10 -190h-66v125h-374v-125h-66l-10 190h52q26 14 39.5 45.5t20.5 87.5l35 273h302zM243 406l-27 -213q-11 -88 -42 -128h229v341h-160z" />
    <glyph glyph-name="uni0435" unicode="&#x435;" horiz-adv-x="514" 
d="M379 292q-5 58 -34.5 92.5t-79.5 34.5q-47 0 -83 -33t-45 -94h242zM446 108l31 -56q-33 -21 -54.5 -32.5t-58 -21t-78.5 -9.5q-107 0 -172 65.5t-65 179.5q0 107 59.5 177t159.5 70q96 0 145 -63.5t49 -185.5h-329q0 -74 41.5 -125t121.5 -51q64 0 150 52z" />
    <glyph glyph-name="uni0436" unicode="&#x436;" horiz-adv-x="724" 
d="M400 471v-211q37 19 64.5 49t43 56.5t34 51.5t48 39.5t74.5 14.5h10v-69h-7q-36 0 -61.5 -17t-39 -39.5t-38.5 -52t-56 -46.5q110 -15 156 -107l71 -140h-86l-60 122q-22 46 -55.5 63.5t-84.5 17.5h-13v-203h-76v203h-13q-51 0 -84.5 -17.5t-55.5 -63.5l-60 -122h-86
l71 140q23 47 59.5 73t95.5 34q-31 17 -56 46.5t-38 52t-38.5 39.5t-61.5 17h-7v69h10q44 0 74 -14.5t48 -39.5t34 -51.5t43.5 -56.5t64.5 -49v211h76z" />
    <glyph glyph-name="uni0437" unicode="&#x437;" horiz-adv-x="432" 
d="M77 382l-33 56q72 43 163 43q78 0 125 -33.5t47 -85.5q0 -80 -91 -115q102 -31 102 -117q0 -63 -51.5 -102t-139.5 -39q-96 0 -167 45l31 56q63 -37 135 -37q49 0 82.5 20t33.5 57t-37.5 60.5t-119.5 23.5h-48v60h46q77 0 112.5 22.5t35.5 57.5q0 30 -27.5 47t-72.5 17
q-68 0 -126 -36z" />
    <glyph glyph-name="uni0438" unicode="&#x438;" horiz-adv-x="554" 
d="M142 0h-66v471h74v-356l262 356h66v-471h-74v356z" />
    <glyph glyph-name="uni0439" unicode="&#x439;" horiz-adv-x="554" 
d="M142 0h-66v471h74v-356l262 356h66v-471h-74v356zM431 702q-4 -49 -40 -87t-109 -38q-68 0 -107 35.5t-42 89.5h67q4 -38 26.5 -58t55.5 -20q32 0 55 21t24 57h70z" />
    <glyph glyph-name="uni043A" unicode="&#x43a;" horiz-adv-x="476" 
d="M76 0v471h76v-211q37 19 64.5 49t43 56.5t34 51.5t48 39.5t74.5 14.5h10v-69h-7q-36 0 -61.5 -17t-39 -39.5t-38.5 -52t-56 -46.5q110 -15 156 -107l71 -140h-86l-60 122q-22 46 -55.5 63.5t-84.5 17.5h-13v-203h-76z" />
    <glyph glyph-name="uni043B" unicode="&#x43b;" horiz-adv-x="527" 
d="M20 0v65h10q20 0 33.5 7t21.5 15.5t14 29.5t8.5 34.5t6.5 46.5l35 273h302v-471h-76v406h-160l-27 -213q-4 -29 -6 -42t-7.5 -38t-12 -37t-18 -29.5t-26.5 -25.5t-37.5 -14.5t-50.5 -6.5h-10z" />
    <glyph glyph-name="uni043C" unicode="&#x43c;" horiz-adv-x="664" 
d="M588 0h-73v360h-1l-163 -360h-40l-165 359h-1v-359h-69v471h87l169 -364h2l168 364h86v-471z" />
    <glyph glyph-name="uni043D" unicode="&#x43d;" horiz-adv-x="554" 
d="M152 0h-76v471h76v-192h250v192h76v-471h-76v214h-250v-214z" />
    <glyph glyph-name="uni043E" unicode="&#x43e;" horiz-adv-x="585" 
d="M454 234q0 91 -46 136t-115 45t-115 -45t-46 -135t46 -134.5t115 -44.5t115 44.5t46 133.5zM537 235q0 -108 -67.5 -177t-176.5 -69t-176.5 69t-67.5 177q0 109 67 177.5t177 68.5q109 0 176.5 -68.5t67.5 -177.5z" />
    <glyph glyph-name="uni043F" unicode="&#x43f;" horiz-adv-x="534" 
d="M152 0h-76v471h382v-471h-76v406h-230v-406z" />
    <glyph glyph-name="uni0440" unicode="&#x440;" horiz-adv-x="571" 
d="M152 355v-246q60 -52 136 -52q66 0 108 49.5t42 131.5q0 83 -36 130t-109 47q-83 0 -141 -60zM152 471v-52q23 24 63.5 43t87.5 19q99 0 159 -61.5t60 -174.5q0 -106 -64.5 -181t-164.5 -75q-87 0 -141 44v-295l-76 -7v740h76z" />
    <glyph glyph-name="uni0441" unicode="&#x441;" horiz-adv-x="478" 
d="M422 104l34 -50q-72 -68 -168 -68q-115 0 -177 70t-62 190q0 107 64 173t165 66q90 0 149 -50l-37 -56q-48 40 -111 40q-67 0 -107 -46t-40 -129q0 -85 42 -138.5t115 -53.5q67 0 133 52z" />
    <glyph glyph-name="uni0442" unicode="&#x442;" horiz-adv-x="371" 
d="M223 0h-76v412h-132v59h346l-12 -59h-126v-412z" />
    <glyph glyph-name="uni0443" unicode="&#x443;" horiz-adv-x="452" 
d="M446 471l-316 -741h-95q75 118 134 255l22 52l-180 434h84l136 -341l138 341h77z" />
    <glyph glyph-name="uni0444" unicode="&#x444;" horiz-adv-x="688" 
d="M378 -270h-70v259h-2q-116 0 -188.5 70t-72.5 176q0 107 72 176.5t189 69.5h2v241l70 8v-249h3q121 0 191.5 -69t70.5 -177q0 -107 -72 -176.5t-190 -69.5h-3v-259zM560 234q0 91 -50.5 137t-129.5 46h-2v-363h2q79 0 129.5 45t50.5 135zM128 235q0 -90 51 -135.5
t127 -45.5h2v363h-2q-76 0 -127 -46.5t-51 -135.5z" />
    <glyph glyph-name="uni0445" unicode="&#x445;" horiz-adv-x="445" 
d="M12 0l165 237l-156 234h91l115 -179l117 179h80l-159 -232l166 -239h-90l-125 186l-125 -186h-79z" />
    <glyph glyph-name="uni0446" unicode="&#x446;" horiz-adv-x="565" 
d="M535 65l-10 -190h-66v125h-383v471h76v-406h230v406h76v-406h77z" />
    <glyph glyph-name="uni0447" unicode="&#x447;" horiz-adv-x="509" 
d="M433 0h-76v183q-87 -21 -150 -21q-67 0 -111 35t-44 119v155h75v-139q0 -101 91 -101q53 0 139 20v220h76v-471z" />
    <glyph glyph-name="uni0448" unicode="&#x448;" horiz-adv-x="800" 
d="M362 471h76v-406h210v406h76v-471h-648v471h76v-406h210v406z" />
    <glyph glyph-name="uni0449" unicode="&#x449;" horiz-adv-x="831" 
d="M801 65l-10 -190h-66v125h-649v471h76v-406h210v406h76v-406h210v406h76v-406h77z" />
    <glyph glyph-name="uni044A" unicode="&#x44a;" horiz-adv-x="558" 
d="M15 412v59h208v-181h117q81 0 129.5 -34t48.5 -110q0 -70 -50 -108t-128 -38h-193v412h-132zM440 146q0 45 -30 63.5t-92 18.5h-95v-166h89q128 0 128 84z" />
    <glyph glyph-name="uni044B" unicode="&#x44b;" horiz-adv-x="709" 
d="M369 146q0 45 -30 63.5t-92 18.5h-95v-166h89q128 0 128 84zM152 471v-181h117q81 0 129.5 -34t48.5 -110q0 -70 -50 -108t-128 -38h-193v471h76zM633 0h-76v471h76v-471z" />
    <glyph glyph-name="uni044C" unicode="&#x44c;" horiz-adv-x="487" 
d="M369 146q0 45 -30 63.5t-92 18.5h-95v-166h89q128 0 128 84zM152 471v-181h117q81 0 129.5 -34t48.5 -110q0 -70 -50 -108t-128 -38h-193v471h76z" />
    <glyph glyph-name="uni044D" unicode="&#x44d;" horiz-adv-x="476" 
d="M31 42l30 52q68 -42 136 -42q62 0 100 43.5t45 116.5h-247v60h248q-7 70 -45 108.5t-98 38.5q-62 0 -114 -40l-37 56q63 50 156 50q100 0 161 -65.5t61 -173.5q0 -120 -59.5 -190t-169.5 -70q-93 0 -167 56z" />
    <glyph glyph-name="uni044E" unicode="&#x44e;" horiz-adv-x="788" 
d="M740 235q0 -108 -67.5 -177t-176.5 -69q-104 0 -170.5 62.5t-73.5 162.5h-100v-214h-76v471h76v-192h103q14 91 78.5 146.5t162.5 55.5q109 0 176.5 -68.5t67.5 -177.5zM657 234q0 91 -46 136t-115 45t-115 -45t-46 -135t46 -134.5t115 -44.5t115 44.5t46 133.5z" />
    <glyph glyph-name="uni044F" unicode="&#x44f;" horiz-adv-x="492" 
d="M124 0h-84l42 87q27 55 51 80t59 34q-117 26 -117 131q0 66 49.5 102.5t129.5 36.5h162v-471h-76v181h-49q-34 0 -62 -18.5t-40.5 -37.5t-26.5 -47zM153 325q0 -37 30 -59.5t86 -22.5h71v166h-69q-118 0 -118 -84z" />
    <glyph glyph-name="uni0450" unicode="&#x450;" horiz-adv-x="514" 
d="M379 292q-5 58 -34.5 92.5t-79.5 34.5q-47 0 -83 -33t-45 -94h242zM446 108l31 -56q-33 -21 -54.5 -32.5t-58 -21t-78.5 -9.5q-107 0 -172 65.5t-65 179.5q0 107 59.5 177t159.5 70q96 0 145 -63.5t49 -185.5h-329q0 -74 41.5 -125t121.5 -51q64 0 150 52zM314 562h-50
l-110 134l83 36z" />
    <glyph glyph-name="uni0451" unicode="&#x451;" horiz-adv-x="514" 
d="M379 292q-5 58 -34.5 92.5t-79.5 34.5q-47 0 -83 -33t-45 -94h242zM446 108l31 -56q-33 -21 -54.5 -32.5t-58 -21t-78.5 -9.5q-107 0 -172 65.5t-65 179.5q0 107 59.5 177t159.5 70q96 0 145 -63.5t49 -185.5h-329q0 -74 41.5 -125t121.5 -51q64 0 150 52zM231 634
q0 -21 -14.5 -35.5t-35.5 -14.5t-35.5 14.5t-14.5 35.5q0 20 14.5 34.5t35.5 14.5t35.5 -14.5t14.5 -34.5zM413 634q0 -21 -14.5 -35.5t-35.5 -14.5t-35.5 14.5t-14.5 35.5q0 20 14.5 34.5t35.5 14.5t35.5 -14.5t14.5 -34.5z" />
    <glyph glyph-name="uni0452" unicode="&#x452;" horiz-adv-x="534" 
d="M273 628v-59h-121v-154q48 34 84 50t86 16q62 0 101.5 -41t39.5 -118v-348q0 -97 -30 -152.5t-107 -91.5l-31 52l19.5 13t25.5 20t22 26.5t19 43.5t6 60v350q0 117 -83 117q-76 0 -152 -64v-348h-76v569h-54v59h54v94l76 8v-102h121z" />
    <glyph glyph-name="uni0453" unicode="&#x453;" horiz-adv-x="350" 
d="M152 0h-76v471h264l-12 -62h-176v-409zM214 561h-50l77 170l83 -36z" />
    <glyph glyph-name="uni0454" unicode="&#x454;" horiz-adv-x="478" 
d="M49 246q0 107 64 173t165 66q90 0 149 -50l-37 -56q-48 40 -111 40q-62 0 -100.5 -38.5t-45.5 -108.5h248v-60h-248q8 -73 49 -116.5t107 -43.5q67 0 133 52l34 -50q-72 -68 -168 -68q-115 0 -177 70t-62 190z" />
    <glyph glyph-name="uni0455" unicode="&#x455;" horiz-adv-x="417" 
d="M42 34l23 65q81 -43 139 -43q86 0 86 63q0 15 -6.5 27t-23 23.5t-28.5 18l-37 19.5q-32 16 -49 26t-40 28.5t-33.5 43t-10.5 55.5q0 54 38 87.5t113 33.5q77 0 139 -37l-28 -61q-58 32 -112 32q-75 0 -75 -52q0 -30 21 -48t74 -45q33 -17 51 -28t41 -29.5t33.5 -40.5
t10.5 -49q0 -57 -43 -95.5t-123 -38.5q-86 0 -160 45z" />
    <glyph glyph-name="uni0456" unicode="&#x456;" horiz-adv-x="232" 
d="M154 0h-76v471h76v-471zM166 633q0 -21 -14.5 -35.5t-35.5 -14.5t-35.5 14.5t-14.5 35.5q0 20 14.5 34.5t35.5 14.5t35.5 -14.5t14.5 -34.5z" />
    <glyph glyph-name="uni0457" unicode="&#x457;" horiz-adv-x="232" 
d="M154 0h-76v471h76v-471zM75 634q0 -21 -14.5 -35.5t-35.5 -14.5t-35.5 14.5t-14.5 35.5q0 20 14.5 34.5t35.5 14.5t35.5 -14.5t14.5 -34.5zM257 634q0 -21 -14.5 -35.5t-35.5 -14.5t-35.5 14.5t-14.5 35.5q0 20 14.5 34.5t35.5 14.5t35.5 -14.5t14.5 -34.5z" />
    <glyph glyph-name="uni0458" unicode="&#x458;" horiz-adv-x="234" 
d="M156 -26q0 -97 -30 -152.5t-107 -91.5l-31 52l19.5 13t25.5 20t22 26.5t19 43.5t6 60v526h76v-497zM168 633q0 -21 -14.5 -35.5t-35.5 -14.5t-35.5 14.5t-14.5 35.5q0 20 14.5 34.5t35.5 14.5t35.5 -14.5t14.5 -34.5z" />
    <glyph glyph-name="uni0459" unicode="&#x459;" horiz-adv-x="786" 
d="M451 471v-181h117q81 0 129.5 -34t48.5 -110q0 -70 -50 -108t-128 -38h-193v406h-160l-27 -213q-4 -29 -6 -42t-7.5 -38t-12 -37t-18 -29.5t-26.5 -25.5t-37.5 -14.5t-50.5 -6.5h-10v65h10q20 0 33.5 7t21.5 15.5t14 29.5t8.5 34.5t6.5 46.5l35 273h302zM668 146
q0 45 -30 63.5t-92 18.5h-95v-166h89q128 0 128 84z" />
    <glyph glyph-name="uni045A" unicode="&#x45a;" horiz-adv-x="793" 
d="M152 0h-76v471h76v-181h230v181h76v-181h117q81 0 129.5 -34t48.5 -110q0 -70 -50 -108t-128 -38h-193v228h-230v-228zM675 146q0 45 -30 63.5t-92 18.5h-95v-166h89q128 0 128 84z" />
    <glyph glyph-name="uni045B" unicode="&#x45b;" horiz-adv-x="534" 
d="M273 628v-59h-121v-154q48 34 84 50t86 16q62 0 101.5 -41t39.5 -118v-322h-76v295q0 117 -83 117q-76 0 -152 -64v-348h-76v569h-54v59h54v94l76 8v-102h121z" />
    <glyph glyph-name="uni045C" unicode="&#x45c;" horiz-adv-x="476" 
d="M76 0v471h76v-211q37 19 64.5 49t43 56.5t34 51.5t48 39.5t74.5 14.5h10v-69h-7q-36 0 -61.5 -17t-39 -39.5t-38.5 -52t-56 -46.5q110 -15 156 -107l71 -140h-86l-60 122q-22 46 -55.5 63.5t-84.5 17.5h-13v-203h-76zM255 561h-50l77 170l83 -36z" />
    <glyph glyph-name="uni045D" unicode="&#x45d;" horiz-adv-x="554" 
d="M142 0h-66v471h74v-356l262 356h66v-471h-74v356zM322 562h-50l-110 134l83 36z" />
    <glyph glyph-name="uni045E" unicode="&#x45e;" horiz-adv-x="452" 
d="M446 471l-316 -741h-95q75 118 134 255l22 52l-180 434h84l136 -341l138 341h77zM382 702q-4 -49 -40 -87t-109 -38q-68 0 -107 35.5t-42 89.5h67q4 -38 26.5 -58t55.5 -20q32 0 55 21t24 57h70z" />
    <glyph glyph-name="uni045F" unicode="&#x45f;" horiz-adv-x="534" 
d="M237 -125l-7 125h-154v471h76v-406h230v406h76v-471h-155l-6 -125h-60z" />
    <glyph glyph-name="uni0490" unicode="&#x490;" horiz-adv-x="453" 
d="M353 841h70l10 -216h-272v-625h-80v692h272v149z" />
    <glyph glyph-name="uni0491" unicode="&#x491;" horiz-adv-x="356" 
d="M152 0h-76v471h188v115h66l10 -177h-188v-409z" />
    <glyph glyph-name="uni0492" unicode="&#x492;" horiz-adv-x="453" 
d="M423 625h-262v-241h181v-71h-181v-313h-80v313h-81v71h81v308h352z" />
    <glyph glyph-name="uni0493" unicode="&#x493;" horiz-adv-x="350" 
d="M152 0h-76v212h-76v60h76v199h264l-12 -62h-176v-137h124v-60h-124v-212z" />
    <glyph glyph-name="uni0496" unicode="&#x496;" horiz-adv-x="930" 
d="M495 692v-305q44 11 76.5 47.5t53 78.5t44 83t64 68.5t98.5 27.5h25v-72h-10q-44 0 -74 -19t-48.5 -50t-35 -64.5t-47 -68t-71.5 -55.5q74 -10 122 -54t89 -123l58 -115h71l-10 -226h-70v155h-42l-82 166q-40 80 -83 113t-108 33h-20v-312h-80v312h-20q-65 0 -108 -33
t-83 -113l-82 -166h-87l94 186q41 80 88.5 123.5t122.5 53.5q-42 21 -72 55.5t-47 68t-35 64.5t-48 50t-74 19h-10v72h25q58 0 98.5 -27.5t64 -68.5t44 -83t53 -78.5t76.5 -47.5v305h80z" />
    <glyph glyph-name="uni0497" unicode="&#x497;" horiz-adv-x="734" 
d="M400 471v-211q37 19 64.5 49t43 56.5t34 51.5t48 39.5t74.5 14.5h10v-69h-7q-36 0 -61.5 -17t-39 -39.5t-38.5 -52t-56 -46.5q110 -15 156 -107l38 -75h58l-10 -190h-66v125h-35l-60 122q-22 46 -55.5 63.5t-84.5 17.5h-13v-203h-76v203h-13q-51 0 -84.5 -17.5
t-55.5 -63.5l-60 -122h-86l71 140q23 47 59.5 73t95.5 34q-31 17 -56 46.5t-38 52t-38.5 39.5t-61.5 17h-7v69h10q44 0 74 -14.5t48 -39.5t34 -51.5t43.5 -56.5t64.5 -49v211h76z" />
    <glyph glyph-name="uni049A" unicode="&#x49a;" horiz-adv-x="596" 
d="M81 0v692h80v-305q44 11 76.5 47.5t53 78.5t44 83t64 68.5t98.5 27.5h25v-72h-10q-44 0 -74 -19t-48.5 -50t-35 -64.5t-47 -68t-71.5 -55.5q74 -10 122 -54t89 -123l58 -115h71l-10 -226h-70v155h-42l-82 166q-40 80 -83 113t-108 33h-20v-312h-80z" />
    <glyph glyph-name="uni049B" unicode="&#x49b;" horiz-adv-x="486" 
d="M76 0v471h76v-211q37 19 64.5 49t43 56.5t34 51.5t48 39.5t74.5 14.5h10v-69h-7q-36 0 -61.5 -17t-39 -39.5t-38.5 -52t-56 -46.5q110 -15 156 -107l38 -75h58l-10 -190h-66v125h-35l-60 122q-22 46 -55.5 63.5t-84.5 17.5h-13v-203h-76z" />
    <glyph glyph-name="uni049C" unicode="&#x49c;" horiz-adv-x="576" 
d="M81 0v692h80v-305q23 6 40 16v189h50v-142q17 22 36.5 59.5l35.5 66t38.5 57t56.5 44t79 15.5h25v-72h-10q-43 0 -72.5 -18t-47.5 -47.5t-34 -61t-43.5 -66t-63.5 -56.5v-11q67 -13 112 -56t84 -118l94 -186h-87l-82 166q-53 107 -121 134v-200h-50v211q-7 1 -20 1h-20
v-312h-80z" />
    <glyph glyph-name="uni049D" unicode="&#x49d;" horiz-adv-x="476" 
d="M76 0v471h76v-211q22 11 41 27v144h44v-98q10 14 26 39.5t26.5 39t28 29.5t41.5 23t57 7h10v-69h-7q-34 0 -59 -16t-38.5 -36.5t-36 -49t-48.5 -45.5v-10q98 -17 143 -105l71 -140h-86l-60 122q-26 53 -68 69v-151h-44v162q-9 1 -28 1h-13v-203h-76z" />
    <glyph glyph-name="uni04A2" unicode="&#x4a2;" horiz-adv-x="714" 
d="M604 0h-81v313h-362v-313h-80v692h80v-308h362v308h80v-621h81l-10 -226h-70v155z" />
    <glyph glyph-name="uni04A3" unicode="&#x4a3;" horiz-adv-x="585" 
d="M152 0h-76v471h76v-192h250v192h76v-406h77l-10 -190h-66v125h-77v214h-250v-214z" />
    <glyph glyph-name="uni04AE" unicode="&#x4ae;" horiz-adv-x="568" 
d="M474 692h84l-235 -391v-301h-79v301l-233 391h89l186 -320z" />
    <glyph glyph-name="uni04AF" unicode="&#x4af;" horiz-adv-x="445" 
d="M261 -262l-76 -7v306l-185 434h83l147 -354l142 354h73l-184 -443v-290z" />
    <glyph glyph-name="uni04B2" unicode="&#x4b2;" horiz-adv-x="651" 
d="M509 0l-194 298l-206 -298h-87l252 354l-226 338h93l185 -283l196 283h87l-241 -341l187 -280h76l-10 -226h-70v155h-42z" />
    <glyph glyph-name="uni04B3" unicode="&#x4b3;" horiz-adv-x="455" 
d="M12 0l165 237l-156 234h91l115 -179l117 179h80l-159 -232l121 -174h59l-10 -190h-66v125h-28l-125 186l-125 -186h-79z" />
    <glyph glyph-name="uni04B8" unicode="&#x4b8;" horiz-adv-x="658" 
d="M349 100h-50v153h-22q-42 0 -77.5 9.5t-67 31.5t-49.5 65t-18 104v229h80v-205q0 -163 147 -163h7v268h50v-265q59 6 148 27v338h80v-692h-80v283q-70 -18 -148 -26v-157z" />
    <glyph glyph-name="uni04B9" unicode="&#x4b9;" horiz-adv-x="509" 
d="M264 50h-44v112h-13q-67 0 -111 35t-44 119v155h75v-139q0 -101 91 -101h2v190h44v-188q38 5 93 18v220h76v-471h-76v183q-39 -11 -93 -18v-115z" />
    <glyph glyph-name="uni04BA" unicode="&#x4ba;" horiz-adv-x="658" 
d="M81 692h80v-263q123 30 220 30q42 0 77.5 -9.5t67 -31.5t49.5 -65t18 -104v-249h-80v225q0 163 -147 163q-79 0 -205 -30v-358h-80v692z" />
    <glyph glyph-name="uni04BB" unicode="&#x4bb;" horiz-adv-x="509" 
d="M76 471h76v-163q87 21 150 21q67 0 111 -35t44 -119v-175h-75v159q0 101 -91 101q-53 0 -139 -20v-240h-76v471z" />
    <glyph glyph-name="uni04C0" unicode="&#x4c0;" horiz-adv-x="243" 
d="M161 0h-80v692h80v-692z" />
    <glyph glyph-name="uni04CF" unicode="&#x4cf;" horiz-adv-x="228" 
d="M152 0h-76v722l76 8v-730z" />
    <glyph glyph-name="uni04D8" unicode="&#x4d8;" horiz-adv-x="727" 
d="M150 279q13 -215 206 -215q86 0 150.5 55t74.5 160h-431zM110 552l-35 66q68 43 126.5 64t141.5 21q148 0 238.5 -95t90.5 -260q0 -157 -86.5 -258t-231.5 -101q-147 0 -221.5 92t-74.5 269h529q0 116 -64.5 197t-183.5 81q-62 0 -114 -19t-115 -57z" />
    <glyph glyph-name="uni04D9" unicode="&#x4d9;" horiz-adv-x="523" 
d="M135 178q14 -127 124 -127q47 0 83 33t45 94h-252zM88 362l-31 56q33 21 54.5 32.5t58 21t78.5 9.5q103 0 165 -65.5t62 -179.5q0 -107 -59.5 -177t-159.5 -70q-204 0 -204 249h339q0 74 -39 125t-114 51q-64 0 -150 -52z" />
    <glyph glyph-name="uni04E8" unicode="&#x4e8;" horiz-adv-x="768" 
d="M713 346q0 -65 -19.5 -126t-57.5 -114t-103.5 -85t-148.5 -32q-68 0 -124 21.5t-93.5 57t-63 82t-37 96t-11.5 100.5q0 147 87 251.5t242 104.5q81 0 145 -30.5t103.5 -81t60 -113.5t20.5 -131zM384 64q107 0 170 64t72 185h-485q8 -118 74.5 -183.5t168.5 -65.5z
M384 628q-99 0 -166 -61.5t-77 -182.5h485q-9 119 -78 181.5t-164 62.5z" />
    <glyph glyph-name="uni04E9" unicode="&#x4e9;" horiz-adv-x="585" 
d="M537 235q0 -108 -67.5 -177t-176.5 -69t-176.5 69t-67.5 177q0 109 67 177.5t177 68.5q109 0 176.5 -68.5t67.5 -177.5zM293 56q64 0 109 38.5t51 117.5h-320q6 -79 51 -117.5t109 -38.5zM293 415q-61 0 -105.5 -36t-53.5 -108h318q-10 72 -54 108t-105 36z" />
    <glyph glyph-name="Wgrave" unicode="&#x1e80;" horiz-adv-x="1009" 
d="M1004 692l-244 -697h-40l-214 573l-200 -573h-40l-261 697h89l194 -536h2l187 536h62l203 -536h2l179 536h81zM560 741h-63l-146 86l65 63z" />
    <glyph glyph-name="wgrave" unicode="&#x1e81;" horiz-adv-x="752" 
d="M681 471h71l-182 -478h-50l-141 334l-127 -334h-51l-201 478h85l146 -358l136 358h33l150 -358zM420 562h-50l-110 134l83 36z" />
    <glyph glyph-name="Wacute" unicode="&#x1e82;" horiz-adv-x="1009" 
d="M1004 692l-244 -697h-40l-214 573l-200 -573h-40l-261 697h89l194 -536h2l187 536h62l203 -536h2l179 536h81zM510 741h-63l144 149l65 -63z" />
    <glyph glyph-name="wacute" unicode="&#x1e83;" horiz-adv-x="752" 
d="M681 471h71l-182 -478h-50l-141 334l-127 -334h-51l-201 478h85l146 -358l136 358h33l150 -358zM388 561h-50l77 170l83 -36z" />
    <glyph glyph-name="Wdieresis" unicode="&#x1e84;" horiz-adv-x="1009" 
d="M1004 692l-244 -697h-40l-214 573l-200 -573h-40l-261 697h89l194 -536h2l187 536h62l203 -536h2l179 536h81zM466 807q0 -21 -14.5 -35.5t-35.5 -14.5t-35.5 14.5t-14.5 35.5q0 20 14.5 34.5t35.5 14.5t35.5 -14.5t14.5 -34.5zM648 807q0 -21 -14.5 -35.5t-35.5 -14.5
t-35.5 14.5t-14.5 35.5q0 20 14.5 34.5t35.5 14.5t35.5 -14.5t14.5 -34.5z" />
    <glyph glyph-name="wdieresis" unicode="&#x1e85;" horiz-adv-x="752" 
d="M681 471h71l-182 -478h-50l-141 334l-127 -334h-51l-201 478h85l146 -358l136 358h33l150 -358zM340 634q0 -21 -14.5 -35.5t-35.5 -14.5t-35.5 14.5t-14.5 35.5q0 20 14.5 34.5t35.5 14.5t35.5 -14.5t14.5 -34.5zM522 634q0 -21 -14.5 -35.5t-35.5 -14.5t-35.5 14.5
t-14.5 35.5q0 20 14.5 34.5t35.5 14.5t35.5 -14.5t14.5 -34.5z" />
    <glyph glyph-name="uni1E9E" unicode="&#x1e9e;" horiz-adv-x="659" 
d="M565 607v-10l-165 -190q97 -8 155.5 -59.5t58.5 -143.5q0 -98 -61.5 -156.5t-163.5 -58.5q-81 0 -149 30l23 72q66 -28 117 -28q66 0 107.5 37.5t41.5 105.5q0 132 -197 132h-33v60l166 194q-44 36 -130 36q-179 0 -179 -193v-435h-80v440q0 116 62.5 189t192.5 73
q159 0 234 -95z" />
    <glyph glyph-name="Ygrave" unicode="&#x1ef2;" horiz-adv-x="568" 
d="M474 692h84l-235 -391v-301h-79v301l-233 391h89l186 -320zM348 741h-63l-146 86l65 63z" />
    <glyph glyph-name="ygrave" unicode="&#x1ef3;" horiz-adv-x="452" 
d="M446 471l-316 -741h-95q75 118 134 255l22 52l-180 434h84l136 -341l138 341h77zM273 562h-50l-110 134l83 36z" />
    <glyph glyph-name="uni1FBE" unicode="&#x1fbe;" horiz-adv-x="270" 
d="M217 -202l20 -46q-35 -24 -76 -24q-37 0 -61 25.5t-24 85.5v93h76v-78q0 -63 39 -63q15 0 26 7z" />
    <glyph glyph-name="uni2010" unicode="&#x2010;" horiz-adv-x="298" 
d="M274 271v-62h-251v62h251z" />
    <glyph glyph-name="endash" unicode="&#x2013;" horiz-adv-x="500" 
d="M477 210h-454v61h454v-61z" />
    <glyph glyph-name="emdash" unicode="&#x2014;" horiz-adv-x="701" 
d="M678 210h-655v61h655v-61z" />
    <glyph glyph-name="uni2015" unicode="&#x2015;" horiz-adv-x="701" 
d="M678 210h-655v61h655v-61z" />
    <glyph glyph-name="underscoredbl" unicode="&#x2017;" horiz-adv-x="500" 
d="M511 -29v-63h-522v63h522zM511 -155v-63h-522v63h522z" />
    <glyph glyph-name="quoteleft" unicode="&#x2018;" horiz-adv-x="227" 
d="M132 730l38 -30q-30 -40 -30.5 -83.5t24.5 -74.5q0 -21 -15.5 -32t-33.5 -11q-26 0 -40.5 16t-14.5 40q0 47 22.5 95t49.5 80z" />
    <glyph glyph-name="quoteright" unicode="&#x2019;" horiz-adv-x="227" 
d="M95 499l-38 30q30 40 30.5 83.5t-24.5 74.5q0 21 15.5 32t33.5 11q26 0 40.5 -16t14.5 -40q0 -47 -22.5 -95t-49.5 -80z" />
    <glyph glyph-name="quotesinglbase" unicode="&#x201a;" horiz-adv-x="227" 
d="M95 -143l-38 30q30 40 30.5 83.5t-24.5 74.5q0 21 15.5 32t33.5 11q26 0 40.5 -16t14.5 -40q0 -47 -22.5 -95t-49.5 -80z" />
    <glyph glyph-name="quotereversed" unicode="&#x201b;" horiz-adv-x="227" 
d="M170 529l-38 -30q-27 32 -49.5 80t-22.5 95q0 24 14.5 40t40.5 16q18 0 33.5 -11t15.5 -32q-25 -33 -25 -73q0 -44 31 -85z" />
    <glyph glyph-name="quotedblleft" unicode="&#x201c;" horiz-adv-x="402" 
d="M132 730l38 -30q-30 -40 -30.5 -83.5t24.5 -74.5q0 -21 -15.5 -32t-33.5 -11q-26 0 -40.5 16t-14.5 40q0 47 22.5 95t49.5 80zM307 730l38 -30q-30 -40 -30.5 -83.5t24.5 -74.5q0 -21 -15.5 -32t-33.5 -11q-26 0 -40.5 16t-14.5 40q0 47 22.5 95t49.5 80z" />
    <glyph glyph-name="quotedblright" unicode="&#x201d;" horiz-adv-x="402" 
d="M95 499l-38 30q30 40 30.5 83.5t-24.5 74.5q0 21 15.5 32t33.5 11q26 0 40.5 -16t14.5 -40q0 -47 -22.5 -95t-49.5 -80zM270 499l-38 30q30 40 30.5 83.5t-24.5 74.5q0 21 15.5 32t33.5 11q26 0 40.5 -16t14.5 -40q0 -47 -22.5 -95t-49.5 -80z" />
    <glyph glyph-name="quotedblbase" unicode="&#x201e;" horiz-adv-x="402" 
d="M95 -143l-38 30q30 40 30.5 83.5t-24.5 74.5q0 21 15.5 32t33.5 11q26 0 40.5 -16t14.5 -40q0 -47 -22.5 -95t-49.5 -80zM270 -143l-38 30q30 40 30.5 83.5t-24.5 74.5q0 21 15.5 32t33.5 11q26 0 40.5 -16t14.5 -40q0 -47 -22.5 -95t-49.5 -80z" />
    <glyph glyph-name="dagger" unicode="&#x2020;" horiz-adv-x="579" 
d="M329 730v-231h206l-15 -73h-191v-608l-77 -7v615h-203v73h203v231h77z" />
    <glyph glyph-name="daggerdbl" unicode="&#x2021;" horiz-adv-x="579" 
d="M329 72v-254l-77 -7v261h-203v73h203v281h-203v73h203v231h77v-231h206l-15 -73h-191v-281h206l-15 -73h-191z" />
    <glyph glyph-name="bullet" unicode="&#x2022;" horiz-adv-x="410" 
d="M340 352q0 -56 -39 -95.5t-94 -39.5q-56 0 -96 39.5t-40 95.5t40 95t96 39q55 0 94 -39t39 -95z" />
    <glyph glyph-name="ellipsis" unicode="&#x2026;" horiz-adv-x="905" 
d="M197 48q0 -23 -15 -39t-37 -16q-23 0 -39 16t-16 39q0 22 16 37.5t39 15.5q22 0 37 -15.5t15 -37.5zM506 48q0 -23 -15 -39t-37 -16q-23 0 -39 16t-16 39q0 22 16 37.5t39 15.5q22 0 37 -15.5t15 -37.5zM815 48q0 -23 -15 -39t-37 -16q-23 0 -39 16t-16 39q0 22 16 37.5
t39 15.5q22 0 37 -15.5t15 -37.5z" />
    <glyph glyph-name="perthousand" unicode="&#x2030;" horiz-adv-x="1074" 
d="M247 515q0 132 -73 132q-70 0 -70 -132q0 -135 70 -135q73 0 73 135zM313 515q0 -87 -37.5 -137.5t-101.5 -50.5q-63 0 -100 50.5t-37 137.5q0 86 37 136.5t100 50.5q64 0 101.5 -50.5t37.5 -136.5zM639 178q0 134 -71 134q-70 0 -70 -134t70 -134q71 0 71 134zM707 178
q0 -86 -38 -137t-101 -51t-100 51t-37 137t37 136.5t100 50.5t101 -50.5t38 -136.5zM969 178q0 134 -71 134q-70 0 -70 -134t70 -134q71 0 71 134zM1037 178q0 -86 -38 -137t-101 -51t-100 51t-37 137t37 136.5t100 50.5t101 -50.5t38 -136.5zM611 692l-415 -692h-63
l415 692h63z" />
    <glyph glyph-name="minute" unicode="&#x2032;" horiz-adv-x="169" 
d="M42 730h85l-19 -220h-46z" />
    <glyph glyph-name="second" unicode="&#x2033;" horiz-adv-x="324" 
d="M42 730h85l-19 -220h-46zM197 730h85l-19 -220h-46z" />
    <glyph glyph-name="guilsinglleft" unicode="&#x2039;" horiz-adv-x="351" 
d="M60 232v9l179 225l51 -47l-144 -180l148 -174l-52 -48z" />
    <glyph glyph-name="guilsinglright" unicode="&#x203a;" horiz-adv-x="351" 
d="M291 241v-9l-182 -215l-51 47l146 173l-145 181l53 48z" />
    <glyph glyph-name="exclamdbl" unicode="&#x203c;" horiz-adv-x="518" 
d="M83 692h93l-21 -496h-52zM183 48q0 -23 -15.5 -39t-37.5 -16t-38 16t-16 39q0 22 16 37.5t38 15.5t37.5 -15.5t15.5 -37.5zM342 692h93l-21 -496h-52zM442 48q0 -23 -15.5 -39t-37.5 -16t-38 16t-16 39q0 22 16 37.5t38 15.5t37.5 -15.5t15.5 -37.5z" />
    <glyph glyph-name="interrobang" unicode="&#x203d;" horiz-adv-x="377" 
d="M355 562q0 -38 -16 -70.5t-39.5 -57l-46.5 -50t-39 -61.5t-16 -80v-47h-60l-11 354h83l-6 -128q3 4 14 17t14.5 17.5l12 15.5t12 18.5l8 18t6 21t1.5 21.5q0 38 -23.5 61.5t-74.5 23.5q-60 0 -120 -46l-35 57q70 55 167 55q83 0 126 -39t43 -101zM222 48q0 -23 -15.5 -39
t-38.5 -16q-22 0 -37.5 16t-15.5 39q0 22 15.5 37.5t37.5 15.5q23 0 38.5 -15.5t15.5 -37.5z" />
    <glyph glyph-name="uni203E" unicode="&#x203e;" horiz-adv-x="500" 
d="M511 793v-63h-522v63h522z" />
    <glyph glyph-name="fraction" unicode="&#x2044;" horiz-adv-x="158" 
d="M318 692l-415 -692h-63l415 692h63z" />
    <glyph glyph-name="zero.sups" unicode="&#x2070;" horiz-adv-x="310" 
d="M211 572q0 71 -13.5 104t-44.5 33q-54 0 -54 -137q0 -135 57 -135q55 0 55 135zM271 573q0 -90 -30.5 -139t-85.5 -49q-62 0 -89 55t-27 133q0 34 5 64t17 59.5t36 47t58 17.5q33 0 57 -17.5t36 -46.5t17.5 -59.5t5.5 -64.5z" />
    <glyph glyph-name="four.sups" unicode="&#x2074;" horiz-adv-x="310" 
d="M176 546v102l-84 -102h84zM293 494h-60v-104h-57v104h-159v33l190 231h26v-212h60v-52z" />
    <glyph glyph-name="five.sups" unicode="&#x2075;" horiz-adv-x="310" 
d="M33 416l25 48q47 -26 82 -26q25 0 42 15.5t17 45.5q0 66 -133 69l8 188h182l-10 -52h-120l-4 -89q139 -11 139 -116q0 -50 -33.5 -82t-88.5 -32q-58 0 -106 31z" />
    <glyph glyph-name="six.sups" unicode="&#x2076;" horiz-adv-x="310" 
d="M219 501q0 28 -16.5 43.5t-43.5 15.5q-29 0 -44.5 -15t-15.5 -35q0 -30 17 -51.5t47 -21.5q26 0 41 17.5t15 46.5zM279 501q0 -50 -32 -83t-83 -33q-58 0 -92 36t-34 105q0 81 53 149.5t152 89.5l17 -49q-116 -32 -151 -119q25 15 60 15q49 0 79.5 -30.5t30.5 -80.5z" />
    <glyph glyph-name="seven.sups" unicode="&#x2077;" horiz-adv-x="310" 
d="M284 738l-154 -354l-58 10l136 309h-171v53h247v-18z" />
    <glyph glyph-name="eight.sups" unicode="&#x2078;" horiz-adv-x="310" 
d="M262 671q0 -49 -59 -89q67 -39 67 -95q0 -45 -30 -73.5t-84 -28.5q-50 0 -83 27.5t-33 68.5q0 30 17.5 50.5t49.5 41.5q-60 42 -60 94q0 41 29 67.5t79 26.5q49 0 78 -25.5t29 -64.5zM212 480q0 35 -63 70q-51 -31 -51 -65q0 -23 17.5 -36t44.5 -13q22 0 37 13t15 31z
M103 671q0 -35 55 -65q46 28 46 63q0 41 -52 41q-21 0 -35 -11t-14 -28z" />
    <glyph glyph-name="nine.sups" unicode="&#x2079;" horiz-adv-x="310" 
d="M94 645q0 -60 56 -60q30 0 47 15.5t17 35.5q0 30 -17 52t-47 22q-26 0 -41 -18t-15 -47zM34 645q0 51 31.5 84t84.5 33q57 0 91 -37t34 -106q0 -81 -48.5 -148.5t-141.5 -89.5l-17 49q107 32 137 119q-27 -16 -62 -16q-49 0 -79 31t-30 81z" />
    <glyph glyph-name="plus.sups" unicode="&#x207a;" horiz-adv-x="310" 
d="M177 681v-90h97v-41h-97v-92h-42v92h-98v41h98v90h42z" />
    <glyph glyph-name="minus.sups" unicode="&#x207b;" horiz-adv-x="310" 
d="M274 586v-40h-237v40h237z" />
    <glyph glyph-name="equal.sups" unicode="&#x207c;" horiz-adv-x="310" 
d="M274 494h-237v40h237v-40zM274 597h-237v41h237v-41z" />
    <glyph glyph-name="parenleft.sups" unicode="&#x207d;" horiz-adv-x="232" 
d="M217 320l-18 -23q-154 96 -154 251q0 81 36.5 141.5t117.5 110.5l18 -23q-61 -50 -87.5 -104t-26.5 -126q0 -132 114 -227z" />
    <glyph glyph-name="parenright.sups" unicode="&#x207e;" horiz-adv-x="232" 
d="M15 776l19 24q154 -97 154 -250q0 -81 -36.5 -142t-117.5 -111l-20 23q62 50 88.5 104t26.5 126q0 69 -27 123t-87 103z" />
    <glyph glyph-name="n.sups" unicode="&#x207f;" horiz-adv-x="405" 
d="M344 381h-66v202q0 66 -47 66q-49 0 -100 -42v-226h-66v322h65v-38q23 16 36.5 24t34.5 14.5t46 6.5q44 0 70.5 -29t26.5 -79v-221z" />
    <glyph glyph-name="zero.sinf" unicode="&#x2080;" horiz-adv-x="310" 
d="M211 132q0 71 -13.5 104t-44.5 33q-54 0 -54 -137q0 -135 57 -135q55 0 55 135zM271 133q0 -90 -30.5 -139t-85.5 -49q-62 0 -89 55t-27 133q0 34 5 64t17 59.5t36 47t58 17.5q33 0 57 -17.5t36 -46.5t17.5 -59.5t5.5 -64.5z" />
    <glyph glyph-name="one.sinf" unicode="&#x2081;" horiz-adv-x="240" 
d="M168 -50h-58v293l-71 -36l-20 48l131 66h18v-371z" />
    <glyph glyph-name="two.sinf" unicode="&#x2082;" horiz-adv-x="310" 
d="M66 240l-26 46q50 35 106 35q50 0 77.5 -27.5t27.5 -70.5q0 -50 -30 -101t-86 -119h135v-53h-233v18q63 74 87.5 106t45 71.5t20.5 73.5q0 25 -13.5 37.5t-35.5 12.5q-34 0 -75 -29z" />
    <glyph glyph-name="three.sinf" unicode="&#x2083;" horiz-adv-x="310" 
d="M37 -19l26 46q43 -29 83 -29q26 0 44 16t18 45q0 66 -119 66v26l83 116h-116v49h214v-4l-105 -144q48 -9 75.5 -37.5t27.5 -68.5q0 -51 -33 -84t-88 -33q-65 0 -110 36z" />
    <glyph glyph-name="four.sinf" unicode="&#x2084;" horiz-adv-x="310" 
d="M176 106v102l-84 -102h84zM293 54h-60v-104h-57v104h-159v33l190 231h26v-212h60v-52z" />
    <glyph glyph-name="five.sinf" unicode="&#x2085;" horiz-adv-x="310" 
d="M33 -24l25 48q47 -26 82 -26q25 0 42 15.5t17 45.5q0 66 -133 69l8 188h182l-10 -52h-120l-4 -89q139 -11 139 -116q0 -50 -33.5 -82t-88.5 -32q-58 0 -106 31z" />
    <glyph glyph-name="six.sinf" unicode="&#x2086;" horiz-adv-x="310" 
d="M219 61q0 28 -16.5 43.5t-43.5 15.5q-29 0 -44.5 -15t-15.5 -35q0 -30 17 -51.5t47 -21.5q26 0 41 17.5t15 46.5zM279 61q0 -50 -32 -83t-83 -33q-58 0 -92 36t-34 105q0 81 53 149.5t152 89.5l17 -49q-116 -32 -151 -119q25 15 60 15q49 0 79.5 -30.5t30.5 -80.5z" />
    <glyph glyph-name="seven.sinf" unicode="&#x2087;" horiz-adv-x="310" 
d="M284 298l-154 -354l-58 10l136 309h-171v53h247v-18z" />
    <glyph glyph-name="eight.sinf" unicode="&#x2088;" horiz-adv-x="310" 
d="M262 231q0 -49 -59 -89q67 -39 67 -95q0 -45 -30 -73.5t-84 -28.5q-50 0 -83 27.5t-33 68.5q0 30 17.5 50.5t49.5 41.5q-60 42 -60 94q0 41 29 67.5t79 26.5q49 0 78 -25.5t29 -64.5zM212 40q0 35 -63 70q-51 -31 -51 -65q0 -23 17.5 -36t44.5 -13q22 0 37 13t15 31z
M103 231q0 -35 55 -65q46 28 46 63q0 41 -52 41q-21 0 -35 -11t-14 -28z" />
    <glyph glyph-name="nine.sinf" unicode="&#x2089;" horiz-adv-x="310" 
d="M94 205q0 -60 56 -60q30 0 47 15.5t17 35.5q0 30 -17 52t-47 22q-26 0 -41 -18t-15 -47zM34 205q0 51 31.5 84t84.5 33q57 0 91 -37t34 -106q0 -81 -48.5 -148.5t-141.5 -89.5l-17 49q107 32 137 119q-27 -16 -62 -16q-49 0 -79 31t-30 81z" />
    <glyph glyph-name="plus.subs" unicode="&#x208a;" horiz-adv-x="310" 
d="M177 244v-90h97v-41h-97v-92h-42v92h-98v41h98v90h42z" />
    <glyph glyph-name="minus.subs" unicode="&#x208b;" horiz-adv-x="310" 
d="M274 149v-40h-237v40h237z" />
    <glyph glyph-name="equal.subs" unicode="&#x208c;" horiz-adv-x="310" 
d="M274 57h-237v40h237v-40zM274 160h-237v41h237v-41z" />
    <glyph glyph-name="parenleft.subs" unicode="&#x208d;" horiz-adv-x="232" 
d="M217 -117l-18 -23q-154 96 -154 251q0 81 36.5 141.5t117.5 110.5l18 -23q-61 -50 -87.5 -104t-26.5 -126q0 -132 114 -227z" />
    <glyph glyph-name="parenright.subs" unicode="&#x208e;" horiz-adv-x="232" 
d="M15 339l19 24q154 -97 154 -250q0 -81 -36.5 -142t-117.5 -111l-20 23q62 50 88.5 104t26.5 126q0 69 -27 123t-87 103z" />
    <glyph glyph-name="colonsign" unicode="&#x20a1;" 
d="M504 742l-220 -683q16 -5 44 -5q55 0 115 47l38 -49q-65 -62 -156 -62q-29 0 -61 7l-15 -47h-53l20 64q-28 16 -47 36l-32 -100h-53l48 150q-49 89 -49 246q0 356 240 356h3l13 40h53l-15 -46q25 -7 52 -20l22 66h53zM196 135q16 -35 42 -54l171 532q-23 15 -52 21z
M164 345q0 -76 8 -123l133 415q-31 -3 -55 -16t-39 -36t-25 -48.5t-14.5 -60.5t-6 -64t-1.5 -67z" />
    <glyph glyph-name="franc" unicode="&#x20a3;" 
d="M318 192l-12 -59h-129v-133h-76v133h-76v59h76v500h363l-10 -67h-277v-245h242v-67h-242v-121h141z" />
    <glyph glyph-name="lira" unicode="&#x20a4;" 
d="M370 260l-12 -59h-134q-4 -68 -57 -136h328v-65h-435v38q85 87 88 163h-82v59h80q-3 25 -8 59h-72v59h62q-14 86 -14 143q0 78 50.5 129.5t150.5 51.5q95 0 170 -58l-36 -55q-64 49 -129 49q-123 0 -123 -124q0 -52 12 -136h185l-12 -59h-164q5 -33 6 -59h146z" />
    <glyph glyph-name="peseta" unicode="&#x20a7;" horiz-adv-x="1000" 
d="M412 488q0 -94 -47.5 -154.5t-121.5 -60.5q-53 0 -90 20v-293h-77v692h131q90 0 147.5 -49.5t57.5 -154.5zM695 95q58 -39 111 -39q68 0 68 63q0 28 -19 47.5t-56 40.5q-25 15 -39 24.5t-32.5 28t-27.5 42.5t-9 55q0 54 33.5 89t96.5 35q69 0 124 -37l-30 -61
q-51 32 -89 32q-26 0 -43 -14t-17 -41q0 -21 11 -37.5t23.5 -25.5t41.5 -27q52 -31 80.5 -63.5t28.5 -83.5q0 -58 -36.5 -96t-103.5 -38q-70 0 -119 32q-42 -32 -98 -32q-111 0 -111 142v281h-54v59h54v126l76 9v-135h131l-9 -59h-122v-258q0 -54 12.5 -76t40.5 -22
q33 0 83 39zM330 480q0 72 -35.5 108.5t-99.5 36.5h-42v-267q30 -16 69 -16q47 0 77.5 38t30.5 100z" />
    <glyph glyph-name="Euro" unicode="&#x20ac;" 
d="M60 386v59h53q30 257 235 257q81 0 146 -52l-37 -52q-52 40 -110 40q-77 0 -111.5 -52t-43.5 -141h236l-12 -59h-226q-1 -14 -1 -47q0 -41 1 -51h198l-12 -59h-180q13 -91 51 -133t106 -42q55 0 115 47l38 -49q-65 -62 -156 -62q-196 0 -234 239h-56v59h50q-2 24 -2 52
q0 34 1 46h-49z" />
    <glyph glyph-name="uni20B9" unicode="&#x20b9;" 
d="M67 461v65h210q-8 50 -44.5 75.5t-109.5 25.5h-56v65h421l-11 -65h-165q45 -35 54 -101h96l-11 -65h-88q-11 -50 -47 -88.5t-99 -53.5v-2q28 -9 51.5 -25t44 -43t31 -43t29.5 -50l89 -156h-87l-82 146q-46 80 -87.5 114t-103.5 34h-35v66h29q158 0 179 101h-208z" />
    <glyph glyph-name="uni20BA" unicode="&#x20ba;" 
d="M204 692v-202l96 74v-76l-96 -74v-54l96 74v-76l-96 -74v-219h50q153 0 153 220v13h76v-12q0 -139 -61.5 -212.5t-179.5 -73.5h-114v226l-89 -68v76l89 68v54l-89 -68v76l89 68v260h76z" />
    <glyph glyph-name="uni20BC" unicode="&#x20bc;" horiz-adv-x="731" 
d="M403 67l-76 -7v486q-103 -12 -153 -92.5t-50 -233.5v-220h-76v253q0 154 76.5 249.5t202.5 108.5v73l76 8v-81q129 -14 204.5 -109.5t75.5 -254.5v-247h-76v224q0 299 -204 323v-480z" />
    <glyph glyph-name="uni20BD" unicode="&#x20bd;" 
d="M28 283v59h64v350h149q108 0 174.5 -50t66.5 -154q0 -91 -58 -148t-162 -57h-94v-71h171v-59h-171v-153h-76v153h-64v59h64v71h-64zM406 480q0 81 -46 118t-140 37h-52v-293h88q71 0 110.5 35.5t39.5 102.5z" />
    <glyph glyph-name="uni2105" unicode="&#x2105;" horiz-adv-x="804" 
d="M296 459l32 -48q-54 -45 -126 -45q-75 0 -120.5 47t-45.5 126q0 69 46 116t119 47q65 0 108 -34l-35 -50q-33 25 -72 25q-42 0 -69 -28.5t-27 -77.5q0 -54 25.5 -82.5t73.5 -28.5q46 0 91 33zM640 692l-415 -692h-63l415 692h63zM697 156q0 55 -27.5 82.5t-69.5 27.5
t-69.5 -27.5t-27.5 -81.5t27.5 -81t69.5 -27t69.5 26.5t27.5 80.5zM767 157q0 -74 -46 -121t-121 -47t-121 47t-46 121q0 75 46 121.5t121 46.5t121 -46.5t46 -121.5z" />
    <glyph glyph-name="uni2113" unicode="&#x2113;" horiz-adv-x="500" 
d="M53 229l-9 57q63 15 104 29v229q0 66 32.5 107t101.5 41q58 0 92.5 -39t34.5 -108q0 -91 -52.5 -161t-136.5 -104v-115q0 -109 81 -109q44 0 74 41l44 -38q-39 -70 -127 -70q-64 0 -104 42t-40 133v91q-27 -9 -95 -26zM342 542q0 92 -60 92q-36 0 -49 -23t-13 -69v-198
q122 61 122 198z" />
    <glyph glyph-name="uni2116" unicode="&#x2116;" horiz-adv-x="1028" 
d="M548 692v-692h-63l-327 556h-2v-556h-75v692h83l307 -525h2v525h75zM953 251v-62h-304v62h304zM898 523q0 55 -27.5 82.5t-69.5 27.5t-69.5 -27.5t-27.5 -81.5t27.5 -81t69.5 -27t69.5 26.5t27.5 80.5zM968 524q0 -74 -46 -121t-121 -47t-121 47t-46 121q0 75 46 121.5
t121 46.5t121 -46.5t46 -121.5z" />
    <glyph glyph-name="published" unicode="&#x2117;" horiz-adv-x="863" 
d="M747 353q0 132 -92.5 224.5t-223.5 92.5q-132 0 -224.5 -92t-92.5 -225q0 -131 92.5 -223.5t224.5 -92.5q131 0 223.5 92.5t92.5 223.5zM806 353q0 -155 -110 -264.5t-265 -109.5t-264.5 109.5t-109.5 264.5q0 156 109.5 265.5t264.5 109.5t265 -109.5t110 -265.5z
M531 441q0 93 -111 93h-36v-172q29 -10 61 -10q39 0 62.5 24t23.5 65zM602 446q0 -61 -39 -103t-103 -42q-29 0 -76 12v-179h-65v450h109q83 0 128.5 -34.5t45.5 -103.5z" />
    <glyph glyph-name="trademark" unicode="&#x2122;" horiz-adv-x="697" 
d="M262 643h-85v-269h-53v269h-89v49h232zM641 374h-54v220l-100 -220h-24l-101 222v-222h-53v318h63l105 -227l104 227h60v-318z" />
    <glyph glyph-name="Omega" unicode="&#x2126;" horiz-adv-x="768" 
d="M728 67l-10 -67h-271v67q89 42 135 120.5t46 167.5q0 137 -68 205t-176 68t-176 -68t-68 -205q0 -89 46 -167.5t135 -120.5v-67h-271l-10 67h172q-76 49 -116.5 130.5t-40.5 168.5q0 145 86 240.5t243 95.5t243 -95.5t86 -240.5q0 -87 -40.5 -168.5t-116.5 -130.5h172z
" />
    <glyph glyph-name="estimated" unicode="&#x212e;" horiz-adv-x="830" 
d="M415 671q156 0 267 -99.5t111 -247.5h-608q-10 0 -10 -11v-197q47 -51 110 -78.5t130 -27.5q73 0 139 32.5t113 88.5h57q-56 -68 -138 -105t-171 -37q-100 0 -186 42.5t-139.5 121.5t-53.5 177q0 145 110.5 243t268.5 98zM415 650q-70 0 -133 -28.5t-107 -78.5v-185
q0 -11 10 -11h461q9 0 9 11v184q-44 51 -108 79.5t-132 28.5z" />
    <glyph glyph-name="uni2153" unicode="&#x2153;" horiz-adv-x="742" 
d="M608 692l-415 -692h-63l415 692h63zM193 320h-58v293l-71 -36l-20 48l131 66h18v-371zM465 31l26 46q43 -29 83 -29q26 0 44 16t18 45q0 66 -119 66v26l83 116h-116v49h214v-4l-105 -144q48 -9 75.5 -37.5t27.5 -68.5q0 -51 -33 -84t-88 -33q-65 0 -110 36z" />
    <glyph glyph-name="uni2154" unicode="&#x2154;" horiz-adv-x="772" 
d="M638 692l-415 -692h-63l415 692h63zM495 31l26 46q43 -29 83 -29q26 0 44 16t18 45q0 66 -119 66v26l83 116h-116v49h214v-4l-105 -144q48 -9 75.5 -37.5t27.5 -68.5q0 -51 -33 -84t-88 -33q-65 0 -110 36zM66 610l-26 46q50 35 106 35q50 0 77.5 -27.5t27.5 -70.5
q0 -50 -30 -101t-86 -119h135v-53h-233v18q63 74 87.5 106t45 71.5t20.5 73.5q0 25 -13.5 37.5t-35.5 12.5q-34 0 -75 -29z" />
    <glyph glyph-name="uni2155" unicode="&#x2155;" horiz-adv-x="735" 
d="M608 692l-415 -692h-63l415 692h63zM193 320h-58v293l-71 -36l-20 48l131 66h18v-371zM457 26l25 48q47 -26 82 -26q25 0 42 15.5t17 45.5q0 66 -133 69l8 188h182l-10 -52h-120l-4 -89q139 -11 139 -116q0 -50 -33.5 -82t-88.5 -32q-58 0 -106 31z" />
    <glyph glyph-name="uni2156" unicode="&#x2156;" horiz-adv-x="765" 
d="M638 692l-415 -692h-63l415 692h63zM487 26l25 48q47 -26 82 -26q25 0 42 15.5t17 45.5q0 66 -133 69l8 188h182l-10 -52h-120l-4 -89q139 -11 139 -116q0 -50 -33.5 -82t-88.5 -32q-58 0 -106 31zM66 610l-26 46q50 35 106 35q50 0 77.5 -27.5t27.5 -70.5
q0 -50 -30 -101t-86 -119h135v-53h-233v18q63 74 87.5 106t45 71.5t20.5 73.5q0 25 -13.5 37.5t-35.5 12.5q-34 0 -75 -29z" />
    <glyph glyph-name="uni2157" unicode="&#x2157;" horiz-adv-x="755" 
d="M628 692l-415 -692h-63l415 692h63zM477 26l25 48q47 -26 82 -26q25 0 42 15.5t17 45.5q0 66 -133 69l8 188h182l-10 -52h-120l-4 -89q139 -11 139 -116q0 -50 -33.5 -82t-88.5 -32q-58 0 -106 31zM37 351l26 46q43 -29 83 -29q26 0 44 16t18 45q0 66 -119 66v26l83 116
h-116v49h214v-4l-105 -144q48 -9 75.5 -37.5t27.5 -68.5q0 -51 -33 -84t-88 -33q-65 0 -110 36z" />
    <glyph glyph-name="uni2158" unicode="&#x2158;" horiz-adv-x="765" 
d="M638 692l-415 -692h-63l415 692h63zM487 26l25 48q47 -26 82 -26q25 0 42 15.5t17 45.5q0 66 -133 69l8 188h182l-10 -52h-120l-4 -89q139 -11 139 -116q0 -50 -33.5 -82t-88.5 -32q-58 0 -106 31zM186 476v102l-84 -102h84zM303 424h-60v-104h-57v104h-159v33l190 231
h26v-212h60v-52z" />
    <glyph glyph-name="uni2159" unicode="&#x2159;" horiz-adv-x="732" 
d="M608 692l-415 -692h-63l415 692h63zM193 320h-58v293l-71 -36l-20 48l131 66h18v-371zM622 111q0 28 -16.5 43.5t-43.5 15.5q-29 0 -44.5 -15t-15.5 -35q0 -30 17 -51.5t47 -21.5q26 0 41 17.5t15 46.5zM682 111q0 -50 -32 -83t-83 -33q-59 0 -92.5 36t-33.5 105
q0 81 53 149.5t152 89.5l17 -49q-116 -32 -151 -119q25 15 60 15q49 0 79.5 -30.5t30.5 -80.5z" />
    <glyph glyph-name="uni215A" unicode="&#x215a;" horiz-adv-x="732" 
d="M33 346l25 48q47 -26 82 -26q25 0 42 15.5t17 45.5q0 66 -133 69l8 188h182l-10 -52h-120l-4 -89q139 -11 139 -116q0 -50 -33.5 -82t-88.5 -32q-58 0 -106 31zM608 692l-415 -692h-63l415 692h63zM622 111q0 28 -16.5 43.5t-43.5 15.5q-29 0 -44.5 -15t-15.5 -35
q0 -30 17 -51.5t47 -21.5q26 0 41 17.5t15 46.5zM682 111q0 -50 -32 -83t-83 -33q-59 0 -92.5 36t-33.5 105q0 81 53 149.5t152 89.5l17 -49q-116 -32 -151 -119q25 15 60 15q49 0 79.5 -30.5t30.5 -80.5z" />
    <glyph glyph-name="oneeighth" unicode="&#x215b;" horiz-adv-x="726" 
d="M598 692l-415 -692h-63l415 692h63zM193 320h-58v293l-71 -36l-20 48l131 66h18v-371zM678 281q0 -49 -59 -89q67 -39 67 -95q0 -45 -30 -73.5t-84 -28.5q-50 0 -83 27.5t-33 68.5q0 30 17.5 50.5t49.5 41.5q-60 42 -60 94q0 41 29 67.5t79 26.5q49 0 78 -25.5t29 -64.5z
M628 90q0 35 -63 70q-51 -31 -51 -65q0 -23 17.5 -36t44.5 -13q22 0 37 13t15 31zM519 281q0 -35 55 -65q46 28 46 63q0 41 -52 41q-21 0 -35 -11t-14 -28z" />
    <glyph glyph-name="threeeighths" unicode="&#x215c;" horiz-adv-x="736" 
d="M608 692l-415 -692h-63l415 692h63zM37 351l26 46q43 -29 83 -29q26 0 44 16t18 45q0 66 -119 66v26l83 116h-116v49h214v-4l-105 -144q48 -9 75.5 -37.5t27.5 -68.5q0 -51 -33 -84t-88 -33q-65 0 -110 36zM688 281q0 -49 -59 -89q67 -39 67 -95q0 -45 -30 -73.5
t-84 -28.5q-50 0 -83 27.5t-33 68.5q0 30 17.5 50.5t49.5 41.5q-60 42 -60 94q0 41 29 67.5t79 26.5q49 0 78 -25.5t29 -64.5zM638 90q0 35 -63 70q-51 -31 -51 -65q0 -23 17.5 -36t44.5 -13q22 0 37 13t15 31zM529 281q0 -35 55 -65q46 28 46 63q0 41 -52 41q-21 0 -35 -11
t-14 -28z" />
    <glyph glyph-name="fiveeighths" unicode="&#x215d;" horiz-adv-x="731" 
d="M603 692l-415 -692h-63l415 692h63zM33 346l25 48q47 -26 82 -26q25 0 42 15.5t17 45.5q0 66 -133 69l8 188h182l-10 -52h-120l-4 -89q139 -11 139 -116q0 -50 -33.5 -82t-88.5 -32q-58 0 -106 31zM683 281q0 -49 -59 -89q67 -39 67 -95q0 -45 -30 -73.5t-84 -28.5
q-50 0 -83 27.5t-33 68.5q0 30 17.5 50.5t49.5 41.5q-60 42 -60 94q0 41 29 67.5t79 26.5q49 0 78 -25.5t29 -64.5zM633 90q0 35 -63 70q-51 -31 -51 -65q0 -23 17.5 -36t44.5 -13q22 0 37 13t15 31zM524 281q0 -35 55 -65q46 28 46 63q0 41 -52 41q-21 0 -35 -11t-14 -28z
" />
    <glyph glyph-name="seveneighths" unicode="&#x215e;" horiz-adv-x="671" 
d="M543 692l-415 -692h-63l415 692h63zM284 668l-154 -354l-58 10l136 309h-171v53h247v-18zM623 281q0 -49 -59 -89q67 -39 67 -95q0 -45 -30 -73.5t-84 -28.5q-50 0 -83 27.5t-33 68.5q0 30 17.5 50.5t49.5 41.5q-60 42 -60 94q0 41 29 67.5t79 26.5q49 0 78 -25.5
t29 -64.5zM573 90q0 35 -63 70q-51 -31 -51 -65q0 -23 17.5 -36t44.5 -13q22 0 37 13t15 31zM464 281q0 -35 55 -65q46 28 46 63q0 41 -52 41q-21 0 -35 -11t-14 -28z" />
    <glyph glyph-name="uni2166" unicode="&#x2166;" horiz-adv-x="1082" 
d="M591 692l-264 -697h-44l-278 697h89l215 -549h2l199 549h81zM757 0h-80v692h80v-692zM1000 0h-80v692h80v-692z" />
    <glyph glyph-name="partialdiff" unicode="&#x2202;" horiz-adv-x="551" 
d="M501 436q0 -77 -16.5 -153t-48.5 -143t-88 -109t-127 -42q-84 0 -127 54t-43 132q0 47 13.5 96.5t40.5 96t76.5 76t114.5 29.5q82 0 129 -70q2 24 2 36q-1 199 -129 199q-48 0 -93 -24l-24 57q60 31 129 31q102 0 146.5 -73.5t44.5 -192.5zM226 51q69 0 119 79t66 187
q-9 42 -40.5 71.5t-71.5 29.5q-58 0 -98.5 -43t-56.5 -96t-16 -105q0 -56 24 -89.5t74 -33.5z" />
    <glyph glyph-name="Delta" unicode="&#x2206;" horiz-adv-x="599" 
d="M30 0l-10 27l250 665h67l242 -665l-10 -27h-539zM297 585l-184 -519h369l-183 519h-2z" />
    <glyph glyph-name="product" unicode="&#x220f;" horiz-adv-x="674" 
d="M593 -270h-80v891h-352v-891h-80v962h512v-962z" />
    <glyph glyph-name="summation" unicode="&#x2211;" horiz-adv-x="581" 
d="M508 625h-338l247 -409l-255 -419h387l-10 -67h-503v17l290 475l-275 452v18h467z" />
    <glyph glyph-name="minus" unicode="&#x2212;" 
d="M55 370h411v-67h-411v67z" />
    <glyph glyph-name="uni2215" unicode="&#x2215;" horiz-adv-x="158" 
d="M318 692l-415 -692h-63l415 692h63z" />
    <glyph glyph-name="uni2219" unicode="&#x2219;" horiz-adv-x="279" 
d="M195 344q0 -22 -16 -38.5t-38 -16.5q-23 0 -38.5 16t-15.5 39q0 22 15.5 37.5t38.5 15.5q22 0 38 -15.5t16 -37.5z" />
    <glyph glyph-name="radical" unicode="&#x221a;" 
d="M30 323v67h176l71 -283l170 623h73l-212 -735h-64l-89 328h-125z" />
    <glyph glyph-name="infinity" unicode="&#x221e;" horiz-adv-x="610" 
d="M436 486q54 0 91.5 -41.5t37.5 -109.5q0 -64 -37.5 -108.5t-97.5 -44.5q-43 0 -71.5 25t-52.5 69q-56 -94 -134 -94q-56 0 -91.5 45t-35.5 109q0 69 36.5 109.5t98.5 40.5q45 0 74.5 -26t53.5 -72q27 47 56 72.5t72 25.5zM176 430q-32 0 -51.5 -26t-19.5 -66
q0 -43 18.5 -71.5t55.5 -28.5q31 0 53 24t46 69q-12 24 -20.5 38t-21 30t-27.5 23.5t-33 7.5zM436 238q30 0 51 28.5t21 64.5q0 42 -19.5 70.5t-55.5 28.5q-30 0 -51 -24.5t-46 -73.5q23 -46 45 -70t55 -24z" />
    <glyph glyph-name="integral" unicode="&#x222b;" horiz-adv-x="410" 
d="M-37 -229l34 56q36 -28 77 -28q24 0 39 13.5t21.5 39t8.5 49t2 58.5v561q0 103 41 156.5t116 53.5q60 0 111 -41l-34 -56q-36 28 -77 28q-27 0 -44 -13.5t-24.5 -39t-10 -49.5t-2.5 -58v-561q0 -103 -38 -156.5t-109 -53.5q-60 0 -111 41z" />
    <glyph glyph-name="approxequal" unicode="&#x2248;" 
d="M468 482q-3 -141 -108 -141q-37 0 -105 33q-78 40 -97 40q-24 0 -36.5 -16.5t-16.5 -55.5h-53q0 141 111 141q32 0 109 -40q70 -36 96 -36q40 0 47 75h53zM468 300q-3 -141 -108 -141q-37 0 -105 33q-78 40 -97 40q-24 0 -36.5 -16.5t-16.5 -55.5h-53q0 141 111 141
q32 0 109 -40q70 -36 96 -36q40 0 47 75h53z" />
    <glyph glyph-name="notequal" unicode="&#x2260;" 
d="M456 180h-265l-80 -120l-36 24l64 96h-74v67h119l99 148h-218v67h263l82 122l36 -23l-66 -99h76v-67h-121l-99 -148h220v-67z" />
    <glyph glyph-name="equivalence" unicode="&#x2261;" 
d="M456 485h-391v67h391v-67zM456 121h-391v67h391v-67zM456 303h-391v67h391v-67z" />
    <glyph glyph-name="lessequal" unicode="&#x2264;" 
d="M55 137h411v-67h-411v67zM458 196l-396 168v65l396 168v-71l-315 -129l315 -129v-72z" />
    <glyph glyph-name="greaterequal" unicode="&#x2265;" 
d="M55 137h411v-67h-411v67zM62 597l396 -168v-65l-396 -168v71l315 128l-315 130v72z" />
    <glyph glyph-name="revlogicalnot" unicode="&#x2310;" 
d="M65 390h410v-67h-343v-182h-67v249z" />
    <glyph glyph-name="lozenge" unicode="&#x25ca;" horiz-adv-x="505" 
d="M287 692l173 -346l-173 -346h-63l-178 346l178 346h63zM126 346l130 -260l127 260l-127 260z" />
    <glyph glyph-name="uniF8FF" unicode="&#xf8ff;" horiz-adv-x="546" 
d="M516 0h-486v730h486v-730zM100 660v-590h346v590h-346z" />
    <glyph glyph-name="fi" unicode="&#xfb01;" horiz-adv-x="532" 
d="M454 0h-76v471h76v-471zM421 685l-42 -57q-45 33 -92 33q-36 0 -60 -13.5t-34 -39t-13.5 -49.5t-3.5 -58v-30h123l-12 -59h-111v-412h-76v412h-79v59h79v49q0 103 48.5 156.5t134.5 53.5q75 0 138 -45z" />
    <glyph glyph-name="fl" unicode="&#xfb02;" horiz-adv-x="528" 
d="M452 0h-76v646q-43 15 -89 15q-36 0 -60 -13.5t-34 -39t-13.5 -49.5t-3.5 -58v-30h123l-12 -59h-111v-412h-76v412h-79v59h79v49q0 103 48.5 156.5t134.5 53.5q47 0 93 -13l76 13v-730z" />
    <glyph glyph-name="uniFEFF" unicode="&#xfeff;" horiz-adv-x="0" 
 />
    <glyph glyph-name="zero.tf" 
d="M392 345q0 152 -32 222.5t-103 70.5q-128 0 -128 -293q0 -153 32.5 -222t101.5 -69q129 0 129 291zM472 346q0 -170 -55.5 -263t-156.5 -93q-59 0 -102.5 31.5t-66 85.5t-33 113t-10.5 126q0 51 5 96.5t19 94.5t37 84.5t61.5 58t89.5 22.5q105 0 158.5 -96t53.5 -260z
" />
    <glyph glyph-name="one.tf" 
d="M452 0h-368v65h155v530l-152 -78l-23 59l244 121h7v-632h137v-65z" />
    <glyph glyph-name="two.tf" 
d="M88 589l-32 56q83 57 186 57q91 0 141 -50.5t50 -130.5q0 -44 -16.5 -93.5t-36 -87.5t-61.5 -96t-65.5 -87l-75.5 -92h292v-65h-425v8l137 163.5t91.5 124t62.5 118t17 103.5q0 61 -32.5 91t-87.5 30q-76 0 -145 -49z" />
    <glyph glyph-name="three.tf" 
d="M49 46l35 58q69 -49 157 -49q61 0 102.5 37.5t41.5 104.5q0 152 -237 152v27l181 251h-248v65h372v-6l-205 -282q105 -10 161 -64t56 -137q0 -93 -60 -153t-161 -60q-125 0 -195 56z" />
    <glyph glyph-name="four.tf" 
d="M301 272v257l-187 -257h187zM495 209h-119v-209h-75v209h-278v39l330 448h23v-424h119v-63z" />
    <glyph glyph-name="five.tf" 
d="M42 38l32 62q80 -45 155 -45q60 0 101 36t41 107q0 153 -269 157l11 337h324l-11 -65h-245l-7 -215q277 -12 277 -214q0 -92 -60.5 -150t-162.5 -58q-112 0 -186 48z" />
    <glyph glyph-name="six.tf" 
d="M408 202q0 66 -37.5 102t-102.5 36q-68 0 -104 -35.5t-36 -84.5q0 -68 40 -117t109 -49q61 0 96 41t35 107zM489 202q0 -91 -59 -151.5t-152 -60.5q-108 0 -170 67.5t-62 195.5q0 99 40 190t127.5 164t208.5 99l23 -60q-132 -36 -210.5 -114t-101.5 -187q26 27 68.5 43.5
t87.5 16.5q89 0 144.5 -55.5t55.5 -147.5z" />
    <glyph glyph-name="seven.tf" 
d="M497 681l-299 -690l-77 14l277 622h-354v65h453v-11z" />
    <glyph glyph-name="eight.tf" 
d="M455 542q0 -59 -35.5 -101t-98.5 -80q71 -40 110 -81t39 -105q0 -83 -54.5 -134t-152.5 -51q-91 0 -152 49.5t-61 123.5q0 65 37.5 107.5t105.5 82.5q-60 35 -94 76.5t-34 104.5q0 74 52.5 121t143.5 47q89 0 141.5 -45t52.5 -115zM394 161q0 28 -10.5 51t-34 43t-43 33
t-54.5 32q-61 -36 -93.5 -70t-32.5 -80q0 -55 41.5 -86.5t103.5 -31.5q52 0 87.5 32t35.5 77zM137 542q0 -49 32 -82.5t93 -66.5q57 33 87 66t30 80q0 102 -124 102q-51 0 -84.5 -27.5t-33.5 -71.5z" />
    <glyph glyph-name="nine.tf" 
d="M119 490q0 -67 34.5 -104t97.5 -37q68 0 108 37t40 86q0 68 -40 117.5t-109 49.5q-61 0 -96 -41.5t-35 -107.5zM38 490q0 92 58 152.5t154 60.5q105 0 168 -68.5t63 -197.5q0 -73 -21 -143t-62 -132.5t-109 -109t-154 -66.5l-22 60q121 36 192.5 116.5t89.5 189.5
q-60 -67 -158 -67q-89 0 -144 56.5t-55 148.5z" />
    <glyph glyph-name="commaaccent" horiz-adv-x="384" 
d="M183 -250l-40 31q27 33 26 56t-27 49q0 21 14 34t35 13q28 0 42 -16.5t14 -42.5q0 -34 -19 -69t-45 -55z" />
    <glyph glyph-name="i.loclTRK" horiz-adv-x="232" 
d="M154 0h-76v471h76v-471zM166 633q0 -21 -14.5 -35.5t-35.5 -14.5t-35.5 14.5t-14.5 35.5q0 20 14.5 34.5t35.5 14.5t35.5 -14.5t14.5 -34.5z" />
    <glyph glyph-name="acute.cap" horiz-adv-x="384" 
d="M175 741h-63l144 149l65 -63z" />
    <glyph glyph-name="breve.cap" horiz-adv-x="384" 
d="M331 875q0 -47 -36 -86t-103 -39q-64 0 -101.5 35.5t-37.5 89.5h42q21 -58 97 -58q38 0 64 15.5t30 42.5h45z" />
    <glyph glyph-name="caron.alt" horiz-adv-x="267" 
d="M115 529l-38 30q30 33 30.5 68.5t-24.5 59.5q0 21 15.5 32t33.5 11q26 0 40.5 -16t14.5 -40q0 -39 -22.5 -79t-49.5 -66z" />
    <glyph glyph-name="caron.cap" horiz-adv-x="384" 
d="M312 897l41 -32l-134 -114h-55l-133 114l38 32l123 -78z" />
    <glyph glyph-name="circumflex.cap" horiz-adv-x="384" 
d="M353 771l-44 -30l-117 76l-119 -76l-42 30l133 114h55z" />
    <glyph glyph-name="commaaccent.alt" horiz-adv-x="384" 
d="M201 736l40 -31q-58 -47 1 -105q0 -20 -15 -33.5t-34 -13.5q-28 0 -42 16.5t-14 42.5q0 34 19 69t45 55z" />
    <glyph glyph-name="dieresis.cap" horiz-adv-x="384" 
d="M152 807q0 -21 -14.5 -35.5t-35.5 -14.5t-35.5 14.5t-14.5 35.5q0 20 14.5 34.5t35.5 14.5t35.5 -14.5t14.5 -34.5zM334 807q0 -21 -14.5 -35.5t-35.5 -14.5t-35.5 14.5t-14.5 35.5q0 20 14.5 34.5t35.5 14.5t35.5 -14.5t14.5 -34.5z" />
    <glyph glyph-name="dotaccent.cap" horiz-adv-x="384" 
d="M249 813q0 -23 -17 -40.5t-40 -17.5t-40.5 17.5t-17.5 40.5t17.5 39.5t40.5 16.5t40 -16.5t17 -39.5z" />
    <glyph glyph-name="grave.cap" horiz-adv-x="384" 
d="M272 741h-63l-146 86l65 63z" />
    <glyph glyph-name="hungarumlaut.cap" horiz-adv-x="384" 
d="M107 741h-50l60 155l83 -36zM257 741h-50l72 141l83 -36z" />
    <glyph glyph-name="macron.cap" horiz-adv-x="384" 
d="M41 764v72h302v-72h-302z" />
    <glyph glyph-name="ring.cap" horiz-adv-x="384" 
d="M252 822q0 24 -18 42t-42 18q-25 0 -42.5 -18t-17.5 -42t17.5 -42t42.5 -18q24 0 42 18t18 42zM300 822q0 -45 -31.5 -76.5t-76.5 -31.5t-76.5 31.5t-31.5 76.5t31.5 76.5t76.5 31.5t76.5 -31.5t31.5 -76.5z" />
    <glyph glyph-name="tilde.cap" horiz-adv-x="384" 
d="M351 873q-6 -119 -87 -119q-26 0 -78 23.5t-66 23.5q-38 0 -50 -46h-36q7 56 26.5 87t63.5 31q25 0 77 -24t67 -24q36 0 47 48h36z" />
    <glyph glyph-name="hyphen.sups" horiz-adv-x="188" 
d="M23 577h142v-41h-142v41z" />
    <glyph glyph-name="comma.sups" horiz-adv-x="155" 
d="M65 317l-22 16q17 24 17 50q0 17 -13 33q0 13 9 20t21 7q32 0 32 -34q0 -50 -44 -92z" />
    <glyph glyph-name="period.sups" horiz-adv-x="155" 
d="M46 411q0 13 9 22.5t23 9.5t23 -9.5t9 -22.5t-9.5 -22t-22.5 -9t-22.5 9t-9.5 22z" />
    <glyph glyph-name="zero.numr" horiz-adv-x="310" 
d="M211 502q0 71 -13.5 104t-44.5 33q-54 0 -54 -137q0 -135 57 -135q55 0 55 135zM271 503q0 -90 -30.5 -139t-85.5 -49q-62 0 -89 55t-27 133q0 34 5 64t17 59.5t36 47t58 17.5q33 0 57 -17.5t36 -46.5t17.5 -59.5t5.5 -64.5z" />
    <glyph glyph-name="one.numr" horiz-adv-x="240" 
d="M168 320h-58v293l-71 -36l-20 48l131 66h18v-371z" />
    <glyph glyph-name="two.numr" horiz-adv-x="310" 
d="M66 610l-26 46q50 35 106 35q50 0 77.5 -27.5t27.5 -70.5q0 -50 -30 -101t-86 -119h135v-53h-233v18q63 74 87.5 106t45 71.5t20.5 73.5q0 25 -13.5 37.5t-35.5 12.5q-34 0 -75 -29z" />
    <glyph glyph-name="three.numr" horiz-adv-x="310" 
d="M37 351l26 46q43 -29 83 -29q26 0 44 16t18 45q0 66 -119 66v26l83 116h-116v49h214v-4l-105 -144q48 -9 75.5 -37.5t27.5 -68.5q0 -51 -33 -84t-88 -33q-65 0 -110 36z" />
    <glyph glyph-name="four.numr" horiz-adv-x="310" 
d="M176 476v102l-84 -102h84zM293 424h-60v-104h-57v104h-159v33l190 231h26v-212h60v-52z" />
    <glyph glyph-name="five.numr" horiz-adv-x="310" 
d="M33 346l25 48q47 -26 82 -26q25 0 42 15.5t17 45.5q0 66 -133 69l8 188h182l-10 -52h-120l-4 -89q139 -11 139 -116q0 -50 -33.5 -82t-88.5 -32q-58 0 -106 31z" />
    <glyph glyph-name="six.numr" horiz-adv-x="310" 
d="M219 431q0 28 -16.5 43.5t-43.5 15.5q-29 0 -44.5 -15t-15.5 -35q0 -30 17 -51.5t47 -21.5q26 0 41 17.5t15 46.5zM279 431q0 -50 -32 -83t-83 -33q-58 0 -92 36t-34 105q0 81 53 149.5t152 89.5l17 -49q-116 -32 -151 -119q25 15 60 15q49 0 79.5 -30.5t30.5 -80.5z" />
    <glyph glyph-name="seven.numr" horiz-adv-x="310" 
d="M284 668l-154 -354l-58 10l136 309h-171v53h247v-18z" />
    <glyph glyph-name="eight.numr" horiz-adv-x="310" 
d="M262 601q0 -49 -59 -89q67 -39 67 -95q0 -45 -30 -73.5t-84 -28.5q-50 0 -83 27.5t-33 68.5q0 30 17.5 50.5t49.5 41.5q-60 42 -60 94q0 41 29 67.5t79 26.5q49 0 78 -25.5t29 -64.5zM212 410q0 35 -63 70q-51 -31 -51 -65q0 -23 17.5 -36t44.5 -13q22 0 37 13t15 31z
M103 601q0 -35 55 -65q46 28 46 63q0 41 -52 41q-21 0 -35 -11t-14 -28z" />
    <glyph glyph-name="nine.numr" horiz-adv-x="310" 
d="M94 575q0 -60 56 -60q30 0 47 15.5t17 35.5q0 30 -17 52t-47 22q-26 0 -41 -18t-15 -47zM34 575q0 51 31.5 84t84.5 33q57 0 91 -37t34 -106q0 -81 -48.5 -148.5t-141.5 -89.5l-17 49q107 32 137 119q-27 -16 -62 -16q-49 0 -79 31t-30 81z" />
    <glyph glyph-name="zero.dnom" horiz-adv-x="310" 
d="M211 182q0 71 -13.5 104t-44.5 33q-54 0 -54 -137q0 -135 57 -135q55 0 55 135zM271 183q0 -90 -30.5 -139t-85.5 -49q-62 0 -89 55t-27 133q0 34 5 64t17 59.5t36 47t58 17.5q33 0 57 -17.5t36 -46.5t17.5 -59.5t5.5 -64.5z" />
    <glyph glyph-name="one.dnom" horiz-adv-x="240" 
d="M168 0h-58v293l-71 -36l-20 48l131 66h18v-371z" />
    <glyph glyph-name="two.dnom" horiz-adv-x="310" 
d="M66 290l-26 46q50 35 106 35q50 0 77.5 -27.5t27.5 -70.5q0 -50 -30 -101t-86 -119h135v-53h-233v18q63 74 87.5 106t45 71.5t20.5 73.5q0 25 -13.5 37.5t-35.5 12.5q-34 0 -75 -29z" />
    <glyph glyph-name="three.dnom" horiz-adv-x="310" 
d="M37 31l26 46q43 -29 83 -29q26 0 44 16t18 45q0 66 -119 66v26l83 116h-116v49h214v-4l-105 -144q48 -9 75.5 -37.5t27.5 -68.5q0 -51 -33 -84t-88 -33q-65 0 -110 36z" />
    <glyph glyph-name="four.dnom" horiz-adv-x="310" 
d="M176 156v102l-84 -102h84zM293 104h-60v-104h-57v104h-159v33l190 231h26v-212h60v-52z" />
    <glyph glyph-name="five.dnom" horiz-adv-x="310" 
d="M33 26l25 48q47 -26 82 -26q25 0 42 15.5t17 45.5q0 66 -133 69l8 188h182l-10 -52h-120l-4 -89q139 -11 139 -116q0 -50 -33.5 -82t-88.5 -32q-58 0 -106 31z" />
    <glyph glyph-name="six.dnom" horiz-adv-x="310" 
d="M219 111q0 28 -16.5 43.5t-43.5 15.5q-29 0 -44.5 -15t-15.5 -35q0 -30 17 -51.5t47 -21.5q26 0 41 17.5t15 46.5zM279 111q0 -50 -32 -83t-83 -33q-58 0 -92 36t-34 105q0 81 53 149.5t152 89.5l17 -49q-116 -32 -151 -119q25 15 60 15q49 0 79.5 -30.5t30.5 -80.5z" />
    <glyph glyph-name="seven.dnom" horiz-adv-x="310" 
d="M284 348l-154 -354l-58 10l136 309h-171v53h247v-18z" />
    <glyph glyph-name="eight.dnom" horiz-adv-x="310" 
d="M262 281q0 -49 -59 -89q67 -39 67 -95q0 -45 -30 -73.5t-84 -28.5q-50 0 -83 27.5t-33 68.5q0 30 17.5 50.5t49.5 41.5q-60 42 -60 94q0 41 29 67.5t79 26.5q49 0 78 -25.5t29 -64.5zM212 90q0 35 -63 70q-51 -31 -51 -65q0 -23 17.5 -36t44.5 -13q22 0 37 13t15 31z
M103 281q0 -35 55 -65q46 28 46 63q0 41 -52 41q-21 0 -35 -11t-14 -28z" />
    <glyph glyph-name="nine.dnom" horiz-adv-x="310" 
d="M94 255q0 -60 56 -60q30 0 47 15.5t17 35.5q0 30 -17 52t-47 22q-26 0 -41 -18t-15 -47zM34 255q0 51 31.5 84t84.5 33q57 0 91 -37t34 -106q0 -81 -48.5 -148.5t-141.5 -89.5l-17 49q107 32 137 119q-27 -16 -62 -16q-49 0 -79 31t-30 81z" />
    <glyph glyph-name="hyphen.subs" horiz-adv-x="188" 
d="M23 140h142v-41h-142v41z" />
    <glyph glyph-name="comma.subs" horiz-adv-x="155" 
d="M65 -120l-22 16q17 24 17 50q0 17 -13 33q0 13 9 20t21 7q32 0 32 -34q0 -50 -44 -92z" />
    <glyph glyph-name="period.subs" horiz-adv-x="155" 
d="M46 -26q0 14 9 23t23 9t23 -9t9 -23q0 -13 -9.5 -22t-22.5 -9t-22.5 9t-9.5 22z" />
    <glyph glyph-name="zero.onum" horiz-adv-x="570" 
d="M434 256q0 105 -39.5 157t-108.5 52t-108.5 -51.5t-39.5 -156.5q0 -99 39.5 -151t108.5 -52q68 0 108 52t40 150zM513 257q0 -118 -59.5 -192.5t-167.5 -74.5q-109 0 -169 74.5t-60 192.5q0 120 60 196t169 76q108 0 167.5 -76t59.5 -196z" />
    <glyph glyph-name="one.onum" horiz-adv-x="324" 
d="M248 0h-76v428l-129 -64l-23 60l223 109h5v-533z" />
    <glyph glyph-name="two.onum" 
d="M96 413l-32 55q88 61 186 61q86 0 138.5 -40.5t52.5 -109.5q0 -25 -5.5 -48t-22 -48l-28 -41.5t-41.5 -45l-43.5 -40.5l-54 -46l-53.5 -45h275v-65h-425v8q29 31 120.5 112t140.5 139.5t49 106.5q0 96 -114 96q-69 0 -143 -49z" />
    <glyph glyph-name="three.onum" horiz-adv-x="490" 
d="M24 -127l35 58q69 -49 157 -49q61 0 102.5 37.5t41.5 104.5q0 152 -237 152v27l181 251h-248v65h372v-6l-205 -282q105 -10 161 -64t56 -137q0 -93 -60 -153t-161 -60q-125 0 -195 56z" />
    <glyph glyph-name="four.onum" horiz-adv-x="531" 
d="M319 63v294l-206 -294h206zM513 0h-119v-176h-75v176h-292v39l344 490h23v-466h119v-63z" />
    <glyph glyph-name="five.onum" horiz-adv-x="479" 
d="M23 -135l32 62q80 -45 155 -45q60 0 101 36t41 107q0 153 -269 157l11 337h324l-11 -65h-245l-7 -215q277 -12 277 -214q0 -92 -60.5 -150t-162.5 -58q-112 0 -186 48z" />
    <glyph glyph-name="six.onum" horiz-adv-x="540" 
d="M418 202q0 66 -37.5 102t-102.5 36q-68 0 -104 -35.5t-36 -84.5q0 -68 40 -117t109 -49q61 0 96 41t35 107zM499 202q0 -91 -59 -151.5t-152 -60.5q-108 0 -170 67.5t-62 195.5q0 99 40 190t127.5 164t208.5 99l23 -60q-132 -36 -210.5 -114t-101.5 -187q26 27 68.5 43.5
t87.5 16.5q89 0 144.5 -55.5t55.5 -147.5z" />
    <glyph glyph-name="seven.onum" horiz-adv-x="480" 
d="M467 508l-299 -690l-77 14l277 622h-354v65h453v-11z" />
    <glyph glyph-name="eight.onum" horiz-adv-x="540" 
d="M465 542q0 -59 -35.5 -101t-98.5 -80q71 -40 110 -81t39 -105q0 -83 -54.5 -134t-152.5 -51q-91 0 -152 49.5t-61 123.5q0 65 37.5 107.5t105.5 82.5q-60 35 -94 76.5t-34 104.5q0 74 52.5 121t143.5 47q89 0 141.5 -45t52.5 -115zM404 161q0 28 -10.5 51t-34 43t-43 33
t-54.5 32q-61 -36 -93.5 -70t-32.5 -80q0 -55 41.5 -86.5t103.5 -31.5q52 0 87.5 32t35.5 77zM147 542q0 -49 32 -82.5t93 -66.5q57 33 87 66t30 80q0 102 -124 102q-51 0 -84.5 -27.5t-33.5 -71.5z" />
    <glyph glyph-name="nine.onum" horiz-adv-x="540" 
d="M129 316q0 -67 34.5 -104t97.5 -37q68 0 108 37t40 86q0 68 -40 117.5t-109 49.5q-61 0 -96 -41.5t-35 -107.5zM48 316q0 92 58 152.5t154 60.5q105 0 168 -68.5t63 -197.5q0 -73 -21 -143t-62 -132.5t-109 -109t-154 -66.5l-22 60q121 36 192.5 116.5t89.5 189.5
q-60 -67 -158 -67q-89 0 -144 56.5t-55 148.5z" />
    <glyph glyph-name="zero.tnum_onum" 
d="M409 256q0 105 -39.5 157t-108.5 52t-108.5 -51.5t-39.5 -156.5q0 -99 39.5 -151t108.5 -52q68 0 108 52t40 150zM488 257q0 -118 -59.5 -192.5t-167.5 -74.5q-109 0 -169 74.5t-60 192.5q0 120 60 196t169 76q108 0 167.5 -76t59.5 -196z" />
    <glyph glyph-name="one.tnum_onum" 
d="M455 0h-368v65h160v363l-129 -64l-23 60l223 109h5v-468h132v-65z" />
    <glyph glyph-name="two.tnum_onum" 
d="M100 413l-32 55q88 61 186 61q86 0 138.5 -40.5t52.5 -109.5q0 -25 -5.5 -48t-22 -48l-28 -41.5t-41.5 -45l-43.5 -40.5l-54 -46l-53.5 -45h275v-65h-425v8q29 31 120.5 112t140.5 139.5t49 106.5q0 96 -114 96q-69 0 -143 -49z" />
    <glyph glyph-name="three.tnum_onum" 
d="M49 -127l35 58q69 -49 157 -49q61 0 102.5 37.5t41.5 104.5q0 152 -237 152v27l181 251h-248v65h372v-6l-205 -282q105 -10 161 -64t56 -137q0 -93 -60 -153t-161 -60q-125 0 -195 56z" />
    <glyph glyph-name="four.tnum_onum" 
d="M314 63v294l-206 -294h206zM498 0h-109v-176h-75v176h-292v39l344 490h23v-466h109v-63z" />
    <glyph glyph-name="five.tnum_onum" 
d="M42 -135l32 62q80 -45 155 -45q60 0 101 36t41 107q0 153 -269 157l11 337h324l-11 -65h-245l-7 -215q277 -12 277 -214q0 -92 -60.5 -150t-162.5 -58q-112 0 -186 48z" />
    <glyph glyph-name="six.tnum_onum" 
d="M408 202q0 66 -37.5 102t-102.5 36q-68 0 -104 -35.5t-36 -84.5q0 -68 40 -117t109 -49q61 0 96 41t35 107zM489 202q0 -91 -59 -151.5t-152 -60.5q-108 0 -170 67.5t-62 195.5q0 99 40 190t127.5 164t208.5 99l23 -60q-132 -36 -210.5 -114t-101.5 -187q26 27 68.5 43.5
t87.5 16.5q89 0 144.5 -55.5t55.5 -147.5z" />
    <glyph glyph-name="seven.tnum_onum" 
d="M497 508l-299 -690l-77 14l277 622h-354v65h453v-11z" />
    <glyph glyph-name="eight.tnum_onum" 
d="M455 542q0 -59 -35.5 -101t-98.5 -80q71 -40 110 -81t39 -105q0 -83 -54.5 -134t-152.5 -51q-91 0 -152 49.5t-61 123.5q0 65 37.5 107.5t105.5 82.5q-60 35 -94 76.5t-34 104.5q0 74 52.5 121t143.5 47q89 0 141.5 -45t52.5 -115zM394 161q0 28 -10.5 51t-34 43t-43 33
t-54.5 32q-61 -36 -93.5 -70t-32.5 -80q0 -55 41.5 -86.5t103.5 -31.5q52 0 87.5 32t35.5 77zM137 542q0 -49 32 -82.5t93 -66.5q57 33 87 66t30 80q0 102 -124 102q-51 0 -84.5 -27.5t-33.5 -71.5z" />
    <glyph glyph-name="nine.tnum_onum" 
d="M119 314q0 -67 34.5 -104t97.5 -37q68 0 108 37t40 86q0 68 -40 117.5t-109 49.5q-61 0 -96 -41.5t-35 -107.5zM38 314q0 92 58 152.5t154 60.5q105 0 168 -68.5t63 -197.5q0 -73 -21 -143t-62 -132.5t-109 -109t-154 -66.5l-22 60q121 36 192.5 116.5t89.5 189.5
q-60 -67 -158 -67q-89 0 -144 56.5t-55 148.5z" />
    <glyph glyph-name="zero.slash" 
d="M472 346q0 -170 -55.5 -263t-156.5 -93q-59 0 -102.5 31.5t-66 85.5t-33 113t-10.5 126q0 51 5 96.5t19 94.5t37 84.5t61.5 58t89.5 22.5q105 0 158.5 -96t53.5 -260zM392 345q0 95 -11 151l-221 -369q32 -73 103 -73q129 0 129 291zM129 345q0 -90 10 -147l221 368
q-32 72 -103 72q-128 0 -128 -293z" />
    <glyph glyph-name="A.smcp" horiz-adv-x="501" 
d="M352 146h-209l-55 -146h-78l215 538h58l208 -538h-82zM332 207l-82 221l-84 -221h166z" />
    <glyph glyph-name="B.smcp" horiz-adv-x="479" 
d="M439 147q0 -70 -53 -108.5t-137 -38.5h-169v538h142q77 0 128.5 -35t51.5 -99q0 -82 -96 -123v-2q60 -8 96.5 -41t36.5 -91zM320 399q0 38 -27.5 57t-75.5 19h-59v-171h43q19 0 33 1.5t31 7t28.5 15.5t19 28t7.5 43zM357 147q0 53 -36.5 74t-112.5 21h-50v-179h54
q78 0 111.5 20t33.5 64z" />
    <glyph glyph-name="C.smcp" horiz-adv-x="547" 
d="M483 507l-27 -65q-57 33 -125 33q-92 0 -144.5 -57t-52.5 -148q0 -99 55.5 -155t144.5 -56q74 0 147 49l32 -59q-83 -60 -183 -60q-127 0 -202.5 77t-75.5 197q0 123 76.5 203t203.5 80q78 0 151 -39z" />
    <glyph glyph-name="D.smcp" horiz-adv-x="586" 
d="M452 265q0 103 -59 155t-166 52h-69v-406h52q131 0 186.5 50.5t55.5 148.5zM534 272q0 -126 -78 -199t-220 -73h-156v538h160q129 0 211.5 -71t82.5 -195z" />
    <glyph glyph-name="E.smcp" horiz-adv-x="442" 
d="M385 0h-305v538h305l-9 -65h-218v-167h189v-65h-189v-176h237z" />
    <glyph glyph-name="F.smcp" horiz-adv-x="413" 
d="M372 472h-214v-171h188v-65h-188v-236h-78v538h302z" />
    <glyph glyph-name="G.smcp" horiz-adv-x="599" 
d="M505 502l-29 -62q-64 35 -136 35q-92 0 -149 -58.5t-57 -145.5q0 -98 61 -155t144 -57q70 0 116 29v119h-115v68h193v-225q-85 -61 -194 -61q-129 0 -208 79.5t-79 194.5q0 120 82 201.5t207 81.5q84 0 164 -44z" />
    <glyph glyph-name="H.smcp" horiz-adv-x="604" 
d="M524 0h-78v237h-288v-237h-78v538h78v-233h288v233h78v-538z" />
    <glyph glyph-name="I.smcp" horiz-adv-x="238" 
d="M158 0h-78v538h78v-538z" />
    <glyph glyph-name="J.smcp" horiz-adv-x="248" 
d="M-18 -166l-19 66q69 7 98 41.5t29 105.5v491h78v-485q0 -99 -42 -155t-144 -64z" />
    <glyph glyph-name="K.smcp" horiz-adv-x="512" 
d="M501 0h-98l-245 278v-278h-78v538h78v-255l252 255h94l-256 -253z" />
    <glyph glyph-name="L.smcp" horiz-adv-x="418" 
d="M383 0h-303v538h78v-473h235z" />
    <glyph glyph-name="M.smcp" horiz-adv-x="752" 
d="M672 0h-77v441h-2l-197 -439h-44l-200 439h-1v-441h-71v538h107l190 -416l187 416h108v-538z" />
    <glyph glyph-name="N.smcp" horiz-adv-x="623" 
d="M543 538v-538h-63l-327 421h-1v-421h-72v538h75l314 -404h1v404h73z" />
    </font>
</defs>
</svg>
