<?xml version="1.0" encoding="utf-8"?>
<!-- Generator: Adobe Illustrator 19.2.1, SVG Export Plug-In . SVG Version: 6.00 Build 0)  -->
<svg version="1.1" id="Слой_1" xmlns="http://www.w3.org/2000/svg" xmlns:xlink="http://www.w3.org/1999/xlink" x="0px" y="0px"
	 viewBox="0 0 100 100" style="enable-background:new 0 0 100 100;" xml:space="preserve">
<style type="text/css">
	.st0{fill:#10A4D7;}
</style>
<g>
	<path class="st0" d="M49.8,99.9c-2.8,0-5.6,0-8.3,0c-2,0-2.7-0.7-2.7-2.7c0-2.7,0-5.3,0-8c0-1-0.2-1.5-1.2-1.8
		c-1.8-0.5-3.6-1.3-5.3-2.2c-0.7-0.4-1.2-0.3-1.7,0.3c-1.9,2-3.8,3.9-5.8,5.8c-1.6,1.6-2.8,1.6-4.4,0c-3.9-3.9-7.8-7.8-11.7-11.7
		c-1.5-1.5-1.5-2.7,0-4.2c1.8-1.9,3.7-3.8,5.6-5.7c0.7-0.7,0.9-1.3,0.4-2.2c-0.9-1.6-1.6-3.3-2.1-5.2c-0.2-0.8-0.6-1.2-1.5-1.1
		c-2.7,0.1-5.3,0-8,0c-2.2,0-3-0.8-3-3c0-5.5,0-11,0-16.5c0-2.1,0.8-2.9,3-2.9c2.6,0,5.2-0.1,7.8,0c1,0,1.5-0.3,1.7-1.3
		c0.5-1.9,1.3-3.6,2.1-5.3c0.4-0.8,0.3-1.2-0.3-1.7c-2-1.9-3.9-3.8-5.8-5.8c-1.5-1.5-1.5-2.6,0-4.1c3.9-4,7.8-7.9,11.8-11.8
		c1.4-1.4,2.5-1.4,3.9,0c2,1.9,4,3.9,5.9,5.8c0.6,0.6,1,0.7,1.7,0.3c1.7-1,3.6-1.7,5.4-2.3c0.9-0.3,1.1-0.7,1.1-1.5
		c0-2.7,0-5.4,0-8.2c0-1.9,0.7-2.7,2.6-2.7c5.7,0,11.5,0,17.2,0c1.8,0,2.6,0.7,2.6,2.6c0,2.8,0.1,5.6,0,8.3c0,0.9,0.2,1.4,1.2,1.7
		c1.8,0.5,3.5,1.2,5.2,2.1c0.8,0.4,1.4,0.4,2-0.3c1.9-2,3.8-3.9,5.8-5.8c1.5-1.5,2.6-1.5,4.1,0c4,3.9,8,7.7,12,11.6
		c1.7,1.6,1.7,2.8,0,4.5c-1.8,1.8-3.6,3.7-5.4,5.4c-0.8,0.8-0.8,1.4-0.4,2.3c0.8,1.6,1.5,3.3,2,5c0.3,1.1,0.9,1.2,1.8,1.2
		c2.7,0,5.3,0,8,0c1.9,0,2.7,0.8,2.7,2.6c0,5.7,0,11.5,0,17.2c0,1.8-0.8,2.6-2.7,2.6c-2.7,0-5.4,0.1-8.2,0c-1,0-1.4,0.4-1.6,1.2
		c-0.5,1.8-1.2,3.5-2.1,5.1c-0.4,0.8-0.4,1.3,0.3,2c1.9,1.8,3.8,3.7,5.7,5.6c1.5,1.5,1.5,2.7,0,4.2c-3.9,3.9-7.8,7.8-11.7,11.7
		c-1.7,1.6-2.8,1.6-4.5-0.1c-1.9-1.9-3.8-3.7-5.6-5.7c-0.7-0.7-1.1-0.6-1.9-0.2c-1.6,0.8-3.3,1.5-5,2c-1.2,0.4-1.5,1-1.5,2.2
		c0.1,2.5,0,5.1,0,7.7c0,2.1-0.7,2.7-2.8,2.7C55.5,99.9,52.6,99.9,49.8,99.9z M9.9,77.4c4.2,4.2,8.3,8.3,12.6,12.6
		c2.4-2.4,4.8-4.8,7.1-7.3c0.7-0.7,1.2-0.9,2.1-0.4c2.5,1.5,5.2,2.6,8.1,3.4c0.9,0.2,1.1,0.6,1.1,1.5c0,3,0,6,0,9
		c0,1.1,0.2,1.6,1.4,1.5c5-0.1,10-0.1,15,0c1,0,1.4-0.2,1.3-1.3c-0.1-3.1,0-6.2,0-9.4c0-0.8,0.2-1.1,1-1.4c2.9-0.8,5.7-1.9,8.2-3.5
		c0.8-0.5,1.2-0.4,1.9,0.3c2.2,2.2,4.4,4.4,6.6,6.6c0.5,0.5,0.8,0.8,1.5,0.1c3.6-3.7,7.2-7.4,10.8-11.1c0.7-0.7,0.6-1.1-0.1-1.7
		c-2.2-2.1-4.3-4.3-6.5-6.5c-0.7-0.6-0.7-1.1-0.3-1.9c1.5-2.5,2.7-5.2,3.4-8.1c0.2-0.9,0.7-1.2,1.6-1.2c2.9,0.1,5.9,0,8.8,0.1
		c1.2,0,1.5-0.4,1.5-1.5c-0.1-4.9-0.1-9.9,0-14.8c0-1-0.2-1.4-1.3-1.3c-3,0.1-6,0-9,0.1c-0.9,0-1.4-0.2-1.7-1.2
		c-0.7-2.8-1.9-5.4-3.3-7.9c-0.5-0.9-0.5-1.4,0.3-2.1c2.2-2.1,4.2-4.3,6.4-6.3c0.8-0.8,0.7-1.2,0-1.9c-3.6-3.5-7.1-7-10.6-10.6
		c-0.8-0.8-1.2-0.7-1.9,0.1c-2.1,2.2-4.3,4.3-6.5,6.5c-0.6,0.6-1,0.7-1.7,0.3c-2.6-1.5-5.4-2.8-8.4-3.5c-0.9-0.2-1-0.7-0.9-1.5
		c0-3.1,0-6.1,0-9.2c0-0.9-0.2-1.3-1.2-1.3c-5.2,0.1-10.3,0-15.5,0c-0.9,0-1.1,0.3-1.1,1.2c0,3.1,0,6.1,0,9.2c0,0.9-0.2,1.3-1.1,1.6
		c-2.9,0.7-5.6,1.9-8.2,3.4c-0.8,0.4-1.2,0.3-1.9-0.3c-2.1-2.2-4.3-4.3-6.5-6.5c-0.7-0.7-1.1-0.8-1.8-0.1
		c-3.5,3.6-7.1,7.2-10.7,10.7c-0.8,0.8-0.6,1.2,0.1,1.8c2.2,2.1,4.3,4.3,6.5,6.5c0.7,0.6,0.7,1.1,0.2,1.8c-1.5,2.5-2.6,5.2-3.4,8.1
		c-0.2,0.9-0.6,1.2-1.6,1.2c-3.1-0.1-6.2,0-9.4,0c-0.9,0-1.1,0.3-1.1,1.2c0,5.1,0.1,10.2,0,15.3c0,1.1,0.4,1.3,1.4,1.3
		c3.1-0.1,6.1,0,9.2,0c0.9,0,1.3,0.2,1.5,1.1c0.7,2.8,1.9,5.6,3.4,8.1c0.6,0.9,0.3,1.4-0.4,2.1C14.7,72.6,12.3,75,9.9,77.4z"/>
	<path class="st0" d="M49.5,75c-13.9-0.1-25-11.6-24.7-25.2C25.1,35.9,36.3,25,49.9,25.2c13.9,0.2,24.9,11.6,24.7,25.2
		C74.5,64.2,62.9,75.3,49.5,75z M27.2,50.2c0,12.4,10,22.4,22.5,22.5c12.5,0.1,22.6-10.1,22.6-22.5c0-12.5-10.2-22.6-22.6-22.5
		C37.2,27.7,27.2,37.8,27.2,50.2z"/>
</g>
</svg>
