<?xml version="1.0" encoding="utf-8"?>
<!-- Generator: Adobe Illustrator 19.2.1, SVG Export Plug-In . SVG Version: 6.00 Build 0)  -->
<svg version="1.1" id="Слой_1" xmlns="http://www.w3.org/2000/svg" xmlns:xlink="http://www.w3.org/1999/xlink" x="0px" y="0px"
	 viewBox="0 0 330 330" style="enable-background:new 0 0 330 330;" xml:space="preserve">
<style type="text/css">
	.st0{fill:#10A4D7;}
</style>
<g>
	<path class="st0" d="M165.5,328.5c-5.6,0-11.3,0-16.9,0c-1.3,0-2.2-0.3-2.8-1.6c-5.4-10.1-10.8-20.2-16.3-30.2
		c-1.7-3.1-3.7-6.1-5.4-9.2c-0.9-1.7-2.3-2.6-4-3.2c-7.9-3-16-2.8-24.1-1c-8.5,1.9-16.7,5.1-24.8,8.2c-3.8,1.4-6.4,1.3-9.5-1.8
		c-7.7-7.5-15.9-14.5-23.9-21.6c-1-0.9-1.5-1.7-1.1-3.3c1.8-7.1,4.8-13.8,7.2-20.7c2.3-6.6,4.5-13.2,4.5-20.3
		c0.1-9.4-3.8-16.4-11.7-21.6c-8.6-5.7-17.9-9.9-27-14.5c-2.2-1.1-5.2-1.8-6.3-3.7c-1.1-1.7-0.4-4.7-0.4-7.1c0-10.3,0.1-20.5,0-30.8
		c0-1.9,0.5-2.8,2.4-3.5c8.1-3,16-6.6,23.4-11.3c9.9-6.3,17.9-14.3,21.9-25.6c0.8-2.3,1.4-4.8,2-7.2c0.3-1.3,0.1-2.6-0.7-3.8
		c-5.5-9.7-11-19.4-16.5-29.1c-0.9-1.5-0.8-2.3,0.6-3.5c9.8-8.8,19.5-17.7,29.2-26.6c0.7-0.7,1.3-0.8,2.2-0.5
		c11.8,4.4,23.8,8,36,11.1c7.5,1.9,14.2-0.1,20.1-5c5.9-5,9.2-11.8,12.5-18.6c3-6.1,5.7-12.4,9.2-18.2c0.9-1.4,1.8-2.2,3.7-2.3
		c8.3-0.4,16.5-0.1,24.8-0.4c3.7-0.2,7.4-0.1,11.1-0.3c1.3-0.1,2,0.4,2.7,1.5c4.1,7.4,6.9,15.4,10.6,23c2.8,5.8,6.1,11.1,10.6,15.9
		c5.1,5.5,11,6.7,18.2,5.5c11.2-1.8,21.8-5.7,32.5-9.3c6.7-2.3,6.6-2.4,11.7,2.2c7.6,6.9,15.2,13.7,22.9,20.5c1.2,1,1.4,1.9,0.9,3.3
		c-2.7,8.4-5.3,16.9-7.9,25.4c-2.1,7-3.4,14.2-3.5,21.6c0,1.7,0.3,3.1,1.2,4.6c4.4,7,10.7,11.8,17.7,15.7c7.3,4,14.7,7.8,22,11.7
		c5.4,2.9,5.4,3,5.4,9.1c0,10.3-0.1,20.5,0.1,30.8c0,1.8-0.7,2.5-2.1,3.1c-8,3.7-16.1,7.2-23.9,11.2c-5,2.6-9.9,5.4-14.3,8.9
		c-4.6,3.5-6.1,8.8-6.8,14.2c-1.1,9.7,2.2,18.5,5.5,27.3c2.2,6,4.7,11.9,6.3,18.1c0.4,1.4,0,2.2-1,3.1c-8.9,8.1-17.8,16.2-26.5,24.5
		c-1.3,1.2-2.4,1.4-3.9,0.8c-7.4-2.7-14.8-5.5-22.2-8.1c-7.3-2.5-14.8-4-22.6-2.9c-4.6,0.6-8.5,1.9-11.5,6.1
		c-6.7,9.5-12.1,19.7-17.3,30.1c-1.3,2.5-2.6,4.9-3.8,7.4c-0.7,1.5-1.6,1.8-3.1,1.8C176.8,328.5,171.2,328.5,165.5,328.5z
		 M164.8,219c28.6-0.7,55.4-21,55.6-55.3c0.2-28.6-26.6-52.9-55.6-53c-25.9-0.1-52.6,21.3-52.5,54.4
		C112.5,197.7,138.1,218.4,164.8,219z"/>
</g>
</svg>
