<svg id="Слой_1" xmlns="http://www.w3.org/2000/svg" viewBox="0 0 100 100"><style>.st0{fill:#fff}</style><path class="st0" d="M99.8 21.7v19.5c0 .5-.1.8-.5 1.2C86.1 56 72.6 69.5 59.1 82.8c-5.5 5.5-11.1 11-16.6 16.5-.7.7-2 .7-2.7 0C29.9 90.2 20.5 80.6 11 71 7.6 67.5 4.2 64 .8 60.6c-.9-1-.9-2.1 0-3 15-15.1 30-30.2 45.1-45.2 4-3.9 8-7.8 12-11.8.3-.3.5-.4.9-.4h38.5c1.1 0 1.7.9 2.4 1.4.1.1.1.4.1.6v19.5zM6.9 59.1c2.5 2.5 5 5.1 7.5 7.6 8.6 8.6 17.3 17.1 25.8 25.8.6.6.6.6 1.3 0L57.3 77c12.3-12.3 24.5-24.7 36.8-37 .3-.3.4-.6.4-1.1-.2-4.3-.3-8.6-.3-13 0-6.5.1-13 .1-19.5 0-.5-.1-.7-.7-.7-1.9 0-3.9-.1-5.8-.1H60.9c-.3 0-.6.1-.9.3-3 2.9-6 5.9-8.9 8.8A106815415358145900 106815415358145900 0 0 0 6.9 59.1z"/><path class="st0" d="M32.6 53.2c-.2 1.1-.2 2.2.1 3.1.5 1.4.4 2.9 1.2 4.2.1.2.3.4.3.5.4 1.2.7 1.1 1.7.4 2-1.3 3.7-2.8 5.4-4.5.8-.8.9-1.5.6-2.6-1-3.3-1.2-6.7.2-10 1.2-2.9 3.6-4.6 6.6-5.1 1.3-.2 2.6.1 3.9.6.9.3 1.6.8 2.3 1.4.3.3.7.5 1.1.8.7.4 1.4.3 2.1 0 .6-.3.8-.1.7.6 0 .4-.1.8 0 1.1 0 .4 0 .8-.3 1.1-.3.4-.4.8.1 1.1.6.5.9 1.3 1.2 1.9.6 1.1 1.1 2.3 1.6 3.4.1.2.3.3.1.6-1 1.1-2 2.2-3.1 3.4-1-2.6-1.9-5.1-2.8-7.6-.7.7-1.4 1.3-2.1 2-1.6 1.6-3.1 3.2-4.7 4.8-.3.3-.3.6-.2 1 .6 1.9 1.4 3.8 1.6 5.8.3 2-.1 3.7-1.3 5.3-1.6 2-3.5 3.3-6.2 3.4-2 .1-3.9-.3-5.8-1-1-.4-1.9-.4-2.9.1-.5.3-1.1.5-1.6.8-.6.3-1.2.2-1.5-.2-.4-.4-.3-.9 0-1.4.5-.9.9-1.9 1.4-2.9.2-.4.2-.6-.1-1-1.7-2.1-2.4-4.5-2.8-7.1-.2-1-.1-2 .9-2.6.8-.2 1.4-.9 2.3-1.4zm16.6-10.5c-2 0-4 1.5-4.5 3-.7 2.1-.2 4.3-.1 6.4 0 .4.3.4.6.2.7-.6 1.3-1.2 2.1-1.7 2.1-1.5 4.2-3.1 5.8-5.1.3-.3.4-.6 0-1-1.2-1.2-2.6-1.9-3.9-1.8zM37.8 66c1.3 1.2 2.6 2 4.4 1.6 1.9-.5 3.5-2.3 3.8-4.2.1-1-.1-2-.7-2.8-.2-.3-.4-.4-.7-.1-1.2.8-2.2 1.8-3.2 2.7-1.3.8-2.5 1.8-3.6 2.8zM74.7 36.1c-4.8.1-11-4.7-10.8-11.4.3-6.5 5.8-10.9 10.9-10.8 5.3.1 11.5 4.3 11.3 11.6-.1 5.7-5.7 10.7-11.4 10.6zm.5-5.4c2.3.3 5.7-2.9 5.6-5.3-.1-3.1-3.1-6-6.2-6.2-2.3-.1-5.5 3.1-5.4 5.5.1 3 3 6 6 6z"/></svg>