<svg id="Слой_1" xmlns="http://www.w3.org/2000/svg" viewBox="0 0 100 100"><style>.st0{fill:#888787}</style><path class="st0" d="M.9 50V30.7 12.4C.9 9 .9 5.7.8 2.3c0-1 .3-1.3 1.3-1.3h46.5c1.8 0 1.9 0 1.8 1.8-.1 8.4-.1 16.9-.3 25.3-.1 4.7 0 9.3-.2 14-.2 5.5-.1 11-.3 16.5-.1 4-.1 8-.2 12-.2 7-.3 13.9-.5 20.9-.1 2.2-.1 4.4-.2 6.6 0 .7-.2.9-1 .9H2c-.9 0-1.1-.3-1.1-1.1V71.2 50zm11.4-24.5c1.8.1 3.4-.4 5.1-.9.4-.1.7-.3.9-.8.7-2.1 1.1-4.3.9-6.5-.2-2-1.3-3.3-3.3-3.9-1.8-.5-3.5 0-5.3.1-2 .2-3.2 1.3-3.3 3.4 0 .6-.3 1.2-.3 1.7-.3 4.2.7 7.1 5.3 6.9zm24.5 0c1.8.1 3.4-.4 5.1-.9.4-.1.7-.3.9-.8.7-2.1 1.1-4.3.9-6.5-.2-2-1.3-3.3-3.3-3.9-1.8-.5-3.5 0-5.3.2-2.1.2-3.2 1.3-3.3 3.4 0 .6-.3 1.2-.3 1.7-.3 4.1.7 7 5.3 6.8zM12.4 50c1.7.1 3.3-.4 5-.9.4-.1.7-.3.9-.8.7-2.1 1.1-4.3.9-6.5-.1-2-1.3-3.3-3.3-3.9-1.8-.5-3.5-.1-5.3.1-2 .2-3.2 1.2-3.3 3.4 0 .6-.3 1.2-.3 1.7-.3 4.1.7 7.1 5.4 6.9zm24.2 0c2 .1 3.6-.4 5.3-.9.5-.1.8-.3 1-.9.7-2.1 1.1-4.2.9-6.4-.2-1.7-.8-3.2-2.7-3.8-2.8-.8-5.4-.2-8.1.7-.4.1-.5.5-.6.9-.4 1.9-.9 3.7-.8 5.6.1 2.5 1.1 3.8 3.2 4.5.7.4 1.4.3 1.8.3zM12.4 74.5c1.7.1 3.4-.4 5-.9.4-.1.7-.3.9-.8.7-2.1 1.1-4.3.9-6.5-.2-2-1.3-3.3-3.3-3.9-1.8-.5-3.5-.1-5.3.1-2 .2-3.2 1.3-3.3 3.4 0 .6-.3 1.2-.3 1.7-.3 4.1.7 7 5.4 6.9zm24.3 0c2 0 3.6-.4 5.3-.9.4-.1.7-.3.9-.8.7-2.1 1.1-4.2.9-6.4-.1-2-1.3-3.4-3.3-4-1.8-.5-3.5 0-5.3.2-2 .2-3.2 1.2-3.2 3.3 0 .6-.3 1.2-.3 1.9-.5 4 .5 6.9 5 6.7zM52.5 69.1V40.6c0-1.1.3-1.3 1.3-1.3h44c1.2 0 1.4.4 1.4 1.5v56.8c0 1.1-.2 1.5-1.4 1.4-2.3-.1-4.6-.1-6.9 0-1.1 0-1.2-.3-1.2-1.3V77.1c0-1.1-.3-1.3-1.3-1.3-8.2 0-16.3.1-24.5 0-1.2 0-1.6.2-1.6 1.5.1 6.8 0 13.7.1 20.5 0 1-.3 1.3-1.3 1.2-2.5-.1-4.9-.1-7.4 0-1 0-1.3-.2-1.3-1.3.1-9.5.1-19.1.1-28.6zM75.7 33.9H53.6c-1 0-1.3-.3-1.2-1.3.1-1.4 0-2.7 0-4.1 0-.6.2-.9.8-.8h44.5c1.2 0 1.5.3 1.4 1.5-.1 1.2-.1 2.4 0 3.6.1.9-.2 1.1-1.1 1.1H75.7z"/></svg>