<svg id="Слой_1" xmlns="http://www.w3.org/2000/svg" viewBox="0 0 100 100"><style>.st0{fill:#fe0105}</style><path class="st0" d="M49.9 78.6c-2.2-.1-4.7-.1-7.2-.4-.6-.1-1 .3-1.4.6-5 4.1-10.4 7.5-16.3 10-4.9 2.1-9.9 3.4-15.1 4.1-1.7.2-3-1.2-2.6-2.9.2-1 .7-1.8 1.4-2.5 3.9-3.8 7.1-8.2 9.1-13.3.4-1 .6-2 1-3 .1-.4 0-.6-.4-.8-3.9-2.2-7.4-5-10.5-8.3-4-4.4-6.7-9.4-7.7-15.3-.9-5.8.3-11.3 3-16.4 3.4-6.4 8.7-11 14.7-14.7 6.2-3.8 12.9-6.1 20.1-7.4 4.9-.8 9.8-1.2 14.7-1 12 .5 23.1 3.8 32.9 10.9 4.5 3.3 8.4 7.1 11 12.1 2.2 4.2 3.4 8.6 3.3 13.3-.1 6.1-2.3 11.4-5.9 16.3-3.7 4.9-8.4 8.6-13.8 11.5-4.3 2.4-8.8 4.3-13.6 5.5-5.3 1.1-10.8 1.6-16.7 1.7zm-28.1 3.8c1.6-.7 3.1-1.4 4.5-2.2 4.7-2.5 8.9-5.7 12.9-9.1.2-.2.4-.3.8-.3 1.7.2 3.5.4 5.2.5 6.6.3 13.2-.1 19.7-1.8 7.8-2 15-5.3 20.8-11.1 3.8-3.8 6.4-8.1 6.9-13.5.5-4.8-.7-9.3-3.5-13.3s-6.4-7-10.5-9.5c-8.3-5.1-17.5-7.2-27.2-7.5-3.9-.1-7.8.2-11.6.8-4.8.8-9.5 2.1-13.9 4.2-5.6 2.6-10.6 6.1-14.5 11C7.5 35.7 6.2 41.6 8 48c1.4 5.1 4.7 9.1 8.7 12.5 3 2.6 6.4 4.6 10 6.4.4.2.5.4.4.8-.3 1.3-.6 2.7-1 4-1.1 3.7-2.5 7.2-4.3 10.7z"/></svg>