<svg id="Слой_1" xmlns="http://www.w3.org/2000/svg" viewBox="0 0 330 330"><style>.st0,.st1{fill:#10a4d7}</style><path class="st0" d="M1.1 173.8v-3.4c.8-1.8-.2-3.5-.1-5.3.1-1.8.8-3.6.1-5.4v-2.1c.7-.3.4-1 .4-1.5.8-11.2 2.6-22.1 5.7-32.9 6.8-23.6 18.1-44.7 34-63.4 20.5-24.2 45.6-41.6 76-51.1 14.5-4.5 29.5-6.2 44.6-7.2h12c3.9.3 7.8.5 11.7 1 12.8 1.7 25.3 4.9 37.4 9.6 27.5 10.9 50.6 27.7 69.5 50.4 20.5 24.7 33.2 52.8 36.3 85 1.5 15.9 1.4 31.9-1.5 47.7-5.6 30.8-19.6 57.4-40.7 80.4-16.3 17.7-35.5 31.6-57.7 41.2-17.9 7.7-36.4 13-56.2 12.8-10.1-.1-20.2.1-30.3-1.4-17.2-2.6-33.5-7.7-49-15.6-26.4-13.4-47.9-32.4-64.6-56.9-15.1-22.2-23.2-46.8-26.4-73.3-.4-3 0-5.9-1.2-8.6zm177.7 45.3h.7c0-14.9.1-29.8-.1-44.7 0-2.1.7-2.5 2.6-2.7 8-.6 15.9.2 23.9-.6 3.2-.3 3.7-.6 3.7-3.8.2-9.5-.4-19.1.4-28.6.1-1.6-.4-1.9-1.9-1.8-9 .3-18.1.4-27.1.7-1.4 0-1.7-.3-1.6-1.6.4-8.2.8-16.4 1.1-24.5.1-1.6.5-2 2.1-2 8-.5 16-1.1 24.1-1.6 1.1-.1 1.5-.3 1.5-1.5-.2-10-.4-20.1-.5-30.1 0-1.3-.5-1.4-1.6-1.3-6.3.4-12.5.6-18.8 1-6.9.4-13.7 1.3-20.4 2.9-11.4 2.8-18.8 9.6-22.6 20.7-2.3 6.6-3.1 13.5-3.7 20.5-.5 5-.9 9.9-1.3 14.9-.1 1.2-.6 1.7-2 1.8-4.8.2-9.7.7-14.5 1-1.1.1-1.6.4-1.6 1.7.2 9.8.4 19.5.5 29.3 0 1.7.9 2 2.1 2.1 4.9.6 9.7 1.2 14.6 1.7 1.1.1 1.4.5 1.4 1.5.2 4.9.6 9.8.7 14.7.6 25.1-.3 50.3-.7 75.4 0 1.7.3 2.3 2.2 2.3 11.6 0 23.2 0 34.8.1 1.7 0 2.1-.4 2.1-2.1-.1-15.2-.1-30.3-.1-45.4z"/><path class="st1" d="M161.8 1.4v-.3h12v.3h-12zM1.1 159.7c.8 1.8.1 3.6-.1 5.4-.1 1.8.9 3.6.1 5.3v-10.7z"/></svg>