<svg id="Слой_1" xmlns="http://www.w3.org/2000/svg" viewBox="0 0 330 330"><style>.st0{fill:#10a4d7}</style><path class="st0" d="M168.3 328.1c-5.6-.2-11.9.3-18.2-.3-8-.7-16.1-1.5-24.1-2.4-8-1-15.9-2-23.7-3.7-9.9-2.1-19.6-4.7-28.8-9.1-8.9-4.2-17.1-9.5-24.3-16.2-1.4-1.3-1.2-3.1-1.5-4.6-2.5-12.2-2.7-24.6-1.6-37 1.1-12.5 3.4-24.9 6.6-37 2.3-8.7 6.5-16.3 13-22.6 2.7-2.6 5.7-4.8 8.7-7.1 11.3-8.7 24.7-12.5 38.1-16.1 5.8-1.6 11.7-2.6 17.5-3.8.9-.2 1.4 0 2.1.5 12.4 9 26.2 13.1 41.5 12.1 11.7-.8 22.6-4.5 32.1-11.7 1.2-.9 2.2-1.1 3.6-.8 11 2.3 22 4.7 32.6 8.3 6.3 2.1 12.3 4.7 17.9 8.2 9.7 6.1 17.9 13.8 22.7 24.5 2.4 5.4 4.1 11 5.8 16.7 2.6 8.8 3 17.8 3.9 26.8.9 9.4.9 18.9 1.2 28.4.1 3.2-.2 6.5-1 9.6-1.1 4.2-3.6 7.2-7 9.6-4.2 2.9-8.5 5.7-13 8.3-11.9 6.9-25 10.5-38.3 13.3-6.1 1.3-12.2 2.3-18.4 3.1-7.5.9-15.1 1.5-22.7 2.3-8.1 1-16 .6-24.7.7zM103.6 79c0-15.1 2-28.1 6-40.9 1.2-4 2.5-7.9 4.9-11.3 3.2-4.6 7-8.5 11.4-12.1 9-7.4 19.7-10.5 31-11.9 12.5-1.7 25-1 37.2 2.5 5.5 1.6 10.7 3.8 15.4 7 8.7 5.9 15.6 13.2 18.7 23.5 2.6 8.7 4.7 17.5 5.7 26.6.7 6.4 1.2 12.8 1 19.2-.5 16.9-4.4 33-13 47.8-1.6 2.8-3.3 5.8-5.4 8.2-7.4 8.5-16 15.5-26.9 19.3-6.3 2.2-12.6 3.7-19.2 4-9.6.4-18.6-1.7-27.1-6.3-6.6-3.6-12.5-8.1-17.7-13.7-2.9-3.1-5.1-6.8-7.6-10.2-4-5.5-6.8-11.6-8.9-18-3.9-11.5-5.7-23.3-5.5-33.7z"/></svg>