<svg id="Слой_1" xmlns="http://www.w3.org/2000/svg" viewBox="0 0 330 330"><style>.st0{fill:#10a4d7}</style><path class="st0" d="M328.2 169.1c-1 83.7-66.6 157.5-159 160C82.6 331.6 5.3 262.2 4 168.9 2.7 78.3 75.5 4.9 165.3 4.7c89.7-.3 164.4 72.1 162.9 164.4zm-69.8-1.1h.2v-16c-.1-13.6-.2-27.2-.2-40.8 0-3.9-.2-7.7-1.4-11.4-5-15.4-20.7-26-37.6-25.7-15.1.3-30.2.3-45.3-.1-21.7-.5-43.4-.4-65.1 1-4.5.3-9.1.4-13.3 2.4-12.9 6.2-20.8 16-21.7 30.3-.7 11.2-.4 22.5-.5 33.8-.3 27.4.5 54.7.3 82.1-.1 18.9 16.4 35.5 35.3 35.6 35 .3 70 .2 104.9.1 5.1 0 10.3.2 15.3-.8 16.2-3.2 28.9-18 28.9-34.2.2-18.8.2-37.5.2-56.3z"/><path class="st0" d="M165.9 241.1h-54.5c-3.2 0-6.4 0-9.4-1.3-6.5-3-10-8.1-10.2-15.4-.8-21.9-.4-43.7-.3-65.6 0-3.2 0-6.4-.1-9.6 0-1.3.2-1.7 1.6-1.7 8.1 0 16.2 0 24.4-.1 1.4 0 1.5.3 1.1 1.6-7.5 20.9 1 43.8 16.7 56.9 9.9 8.2 21.2 12.3 34.1 11.4 12.4-.8 22.8-6.1 31.4-14.8 10.7-10.8 16.2-23.8 15.9-39.1-.1-4.8-1-9.6-2.8-14.1-.5-1.4-.4-1.8 1.2-1.8 7.7 0 15.4-.1 23.1-.3 1.3 0 1.8.2 1.9 1.7.7 11.2 1 22.3 1 33.5 0 13.9-.2 27.8-.3 41.7-.1 9.7-8.8 17.5-18.5 17.2-10.9-.3-21.8 0-32.7 0H166c-.1-.1-.1-.1-.1-.2z"/><path class="st0" d="M165.2 199c-15.1.5-31.4-12.8-31.5-31.5-.1-20 16.8-33.2 31.7-33.4 17.1-.2 33.3 15.3 33.3 31.8 0 23-18.6 33.2-33.5 33.1zM237.2 111.2v13.9c0 1.3-.3 1.7-1.6 1.7-9.3-.1-18.7-.1-28 0-1.4 0-1.6-.4-1.6-1.7.1-9.3.1-18.5 0-27.8 0-1.4.4-1.8 1.8-1.8 9.3.1 18.5.1 27.8 0 1.4 0 1.8.4 1.7 1.8-.2 4.6-.1 9.2-.1 13.9z"/></svg>