<?xml version="1.0" encoding="utf-8"?>
<!-- Generator: Adobe Illustrator 19.2.1, SVG Export Plug-In . SVG Version: 6.00 Build 0)  -->
<svg version="1.1" id="Слой_1" xmlns="http://www.w3.org/2000/svg" xmlns:xlink="http://www.w3.org/1999/xlink" x="0px" y="0px"
	 viewBox="0 0 330 330" style="enable-background:new 0 0 330 330;" xml:space="preserve">
<style type="text/css">
	.st0{fill:#a6a6a5;}
</style>
<g>
	<path class="st0" d="M127.1,129.5c24,0,47.9,0,71.9,0c1.4,0,1.8-0.3,1.8-1.7c-0.2-12.3,0.1-24.6,0.1-36.8c0-9-0.1-18-1.6-26.9
		c-1.5-8.7-6.3-15.1-13.9-19.7c-7.8-4.7-16.3-6.4-25.3-5.5c-8.2,0.9-15.3,4.2-21.3,10.1c-5.9,5.8-8.2,13-9,20.8
		c-0.7,7.2-0.5,14.5-0.7,21.7c0,1.2-0.4,1.5-1.5,1.5c-11.4-0.1-22.8-0.1-34.1-0.1c-1.3,0-1.1-0.7-1.1-1.5c0.3-7.3,0.7-14.6,1.4-21.9
		c0.8-7.6,1.9-15,4.4-22.2c2.9-8.5,6.4-16.8,12.6-23.5c3.3-3.5,7.1-6.5,11-9.4c9.3-6.9,20.1-9.8,31.3-11.5c6.9-1,13.8-1.1,20.6-0.5
		c11.5,0.9,22.4,4.2,32.2,10.3c9.3,5.9,16.7,13.6,21.3,23.7c3.4,7.4,5.8,15.1,7.6,23c3.7,16.3,3,32.8,2.9,49.2
		c-0.1,6.2,0,12.5-0.1,18.7c0,1.4,0.3,1.9,1.8,1.9c12,0.2,24,0,35.9-0.2c1.3,0,2.1,0.4,3,1.2c3.6,3.6,7.4,6.9,10.3,11.1
		c2.3,3.4,3.7,7.2,3.7,11.4c0,31.3,0,62.6,0,93.8c0,13.5,0.5,27,0,40.4c-0.3,7.4-1.7,14.6-6.6,20.6c-1.6,1.9-3.5,3.7-5.8,4.9
		c-10.4,5.6-21.6,8.9-33,11.5c-7.2,1.6-14.4,2.9-21.7,3.7c-3.9,0.5-7.9,0.1-11.8,0.1c-29.7,0-59.4,0-89.1,0c-5.6,0-11.3,0-16.9,0
		c-5.4,0-10.6-1.4-15.9-2.2c-9.9-1.6-19.6-4.1-29-7.5c-4.7-1.7-9.4-3.6-13.5-6.4c-5-3.5-7.8-8.6-9.3-14.4c-1-3.8-1.2-7.8-1.7-11.7
		c-0.5-3.9-0.7-7.9-0.4-11.8c1.2-17.6,0.5-35.2,0.6-52.8c0.1-12.5-0.1-25-0.1-37.6c0-10.5,0-21,0.2-31.4c0.2-6.7,2.4-12.8,6.9-17.8
		c2.9-3.3,6.8-4.8,11.3-4.8C80,129.5,103.5,129.5,127.1,129.5C127.1,129.5,127.1,129.5,127.1,129.5z"/>
</g>
</svg>
