<?xml version="1.0" encoding="utf-8"?>
<!-- Generator: Adobe Illustrator 19.2.1, SVG Export Plug-In . SVG Version: 6.00 Build 0)  -->
<svg version="1.1" id="Слой_1" xmlns="http://www.w3.org/2000/svg" xmlns:xlink="http://www.w3.org/1999/xlink" x="0px" y="0px"
	 viewBox="0 0 100 100" style="enable-background:new 0 0 100 100;" xml:space="preserve">
<g>
	<path d="M94.5,60.9c-2.6-2.6-4.9-5.1-7.3-7.4c-0.6-0.6-0.4-1.2-0.4-1.8c0.2-7.1-1.2-13.8-4.9-19.9C75.7,21.2,66.5,15,54.3,13.3
		C46.6,12.3,38,14.3,32,17.8c3.7,3.6,7.3,7.3,11,10.9c-0.1,0.2-0.1,0.3-0.2,0.5c-1.8,0.2-3.7,0.3-5.5,0.5c-6.3,0.5-12.7,1-19,1.5
		c-1.4,0.1-2.8,0-4.1,0.3c-1,0.2-0.9-0.4-0.8-1c0.4-4.4,0.8-8.9,1.1-13.3c0.4-4.7,0.7-9.4,1-14.1c0-0.3-0.1-0.6,0.2-0.9
		c0.5-0.1,0.7,0.4,0.9,0.6c2.5,2.4,4.9,4.9,7.3,7.4c0.8,0.9,1.4,1.1,2.6,0.4C34.5,5.6,43.1,3.5,52.3,4c21.2,1.1,38.2,16.4,42.5,35.8
		C96.3,46.7,96.3,53.6,94.5,60.9z"/>
	<path d="M57,70.5c3.6-0.3,6.7-0.6,9.8-0.8c6.3-0.5,12.6-1,18.8-1.5c1-0.1,1.2,0.2,1.1,1.1c-0.4,4.9-0.8,9.8-1.2,14.7
		c-0.3,4.4-0.7,8.7-1,13.1c0,0.1-0.1,0.3-0.4,0.9c-0.7-0.8-1.1-1.5-1.7-2.1c-2.2-2.3-4.6-4.5-6.8-6.8c-0.6-0.6-1-0.7-1.8-0.2
		c-8,4.9-16.8,7.4-26.2,6.8C34.4,94.8,23.4,89.2,14.8,79c-5.2-6.2-8.5-13.4-9.9-21.3C3.7,51.5,3.9,45.3,5.5,39
		c1.2,0.8,2.1,1.9,3.1,2.9c1.5,1.5,3.3,2.7,4.3,4.5c1,1.7,0.2,4,0.4,6c1.4,17.2,14.2,30.8,30.2,33.6c8.3,1.5,16.2,0.2,23.7-3.6
		c0.9-0.5,1-0.7,0.2-1.4C64.1,77.5,60.7,74.2,57,70.5z"/>
</g>
</svg>
