<?xml version="1.0" encoding="utf-8"?>
<!-- Generator: Adobe Illustrator 19.2.1, SVG Export Plug-In . SVG Version: 6.00 Build 0)  -->
<svg version="1.1" id="Слой_1" xmlns="http://www.w3.org/2000/svg" xmlns:xlink="http://www.w3.org/1999/xlink" x="0px" y="0px"
	 viewBox="0 0 100 100" style="enable-background:new 0 0 100 100;" xml:space="preserve">
<g>
	<path d="M99.3,38.9c0,0.6-0.1,1.2,0,1.8c0.3,2.1-0.5,3.6-1.9,5.1c-5.8,6.2-11.7,12.3-17.9,18.2c-0.4,0.4-0.5,0.8-0.4,1.3
		c1.1,5,2.3,10,3.3,15.1c1,4.9,1.2,9.9-0.1,14.8c-0.1,0.6-0.4,0.9-0.9,1.3c-3.4,2.4-7,2.5-10.7,1.2c-3.5-1.2-6.5-3.3-9.6-5.3
		c-3.1-2-6.1-4.2-9.5-5.6c-1.2-0.5-2.3-0.5-3.5,0c-4.4,1.9-8.1,4.8-12.1,7.3c-3,1.9-6,3.7-9.6,4.3c-3.1,0.5-5.9-0.1-8.4-2.1
		c-1-0.8-0.8-2.1-1-3.2c-1-5.1-0.2-10.1,0.8-15c0.9-4.2,2.1-8.4,2.8-12.7c0.1-0.6,0-1-0.4-1.4C13.7,57.5,7.2,50.9,1,44
		c-0.3-0.3-0.4-0.7-0.4-1.1c0-2.6,0-5.3,0-7.9c0-0.6,0.1-0.9,0.8-1.1c6.3-1.9,12.7-3.2,19.2-4.2c3.6-0.6,7.1-1,10.7-1.4
		c0.5,0,0.7-0.3,0.9-0.7c3.2-6.8,6.6-13.6,10.3-20.2c1-1.7,2-3.5,2.9-5.2c0.3-0.5,0.5-0.7,1.1-0.7c2.3,0,4.6,0,6.8,0
		c0.7,0,1,0.2,1.4,0.8C59,9.9,63,17.6,66.8,25.5c1.4,2.9,1.4,2.8,4.6,3.1c4.2,0.5,8.5,1.1,12.7,1.9c4.9,0.9,9.7,2,14.4,3.4
		c0.7,0.2,0.9,0.5,0.9,1.1C99.3,36.3,99.3,37.6,99.3,38.9C99.3,38.9,99.3,38.9,99.3,38.9z"/>
</g>
</svg>
