<?xml version="1.0" encoding="utf-8"?>
<!-- Generator: Adobe Illustrator 19.2.1, SVG Export Plug-In . SVG Version: 6.00 Build 0)  -->
<svg version="1.1" id="Слой_1" xmlns="http://www.w3.org/2000/svg" xmlns:xlink="http://www.w3.org/1999/xlink" x="0px" y="0px"
	 viewBox="0 0 330 330" style="enable-background:new 0 0 330 330;" xml:space="preserve">
<style type="text/css">
	.st0{fill:#8f8f8f;}
	.st1{fill:#8f8f8f;}
</style>
<g>
	<path class="st0" d="M155.9,58.5c3.6,0,7.1,0,10.7,0c2.6,0.1,5.3,0.2,7.9,0.3c5.3,0.5,10.7,0.9,16,1.7c16.2,2.5,31.9,6.9,46.9,13.6
		c27.6,12.3,51,29.9,69.7,53.7c8.4,10.7,15.3,22.4,20.8,34.8c0.9,2,1,3.8,0.1,5.9c-3.8,8.4-8,16.6-13.2,24.3
		c-12.9,19.3-29.4,35.2-48.5,48.4c-27.8,19.2-58.6,29.1-92.2,30.7c-19.6,1-39-1.3-58-6.6c-17.3-4.9-33.7-12.1-48.6-22.1
		C51,232,36.5,218.8,23.9,203.2c-8.6-10.7-15.7-22.3-21-34.9c-0.7-1.7-1.1-3.2-0.2-5.1c11.2-25.1,27.7-46.1,49-63.5
		c15.1-12.4,31.8-22,50-29.1c15.6-6,31.8-9.7,48.4-11.3C152,59.1,154.1,59.4,155.9,58.5z M165.3,91.8c-43.6,0.4-73.2,35.7-73.2,73.4
		c0,43.6,33.4,73.5,73,73.8c43.7,0.4,73.7-33.9,73.9-73C239.2,122.6,205.4,92.8,165.3,91.8z"/>
	<path class="st1" d="M174.6,58.5c0,0.1,0,0.2,0,0.3c-2.6-0.1-5.3-0.2-7.9-0.3C169.3,58.5,171.9,58.5,174.6,58.5z"/>
	<path class="st0" d="M212,165.2c-0.2,27.6-21.2,45.9-44.4,46.7c-29.8,0.9-48.7-21.9-48.9-45.7c-0.1-26.6,20.3-47.8,46.3-47.5
		C192.4,119,211.9,139.3,212,165.2z"/>
</g>
</svg>
