<?xml version="1.0" encoding="utf-8"?>
<!-- Generator: Adobe Illustrator 19.2.1, SVG Export Plug-In . SVG Version: 6.00 Build 0)  -->
<svg version="1.1" id="Слой_1" xmlns="http://www.w3.org/2000/svg" xmlns:xlink="http://www.w3.org/1999/xlink" x="0px" y="0px"
	 viewBox="0 0 100 100" style="enable-background:new 0 0 100 100;" xml:space="preserve">
<style type="text/css">
	.st0{fill:#8f8f8f;}
</style>
<g>
	<path class="st0" d="M25.7,8.9c7.2,0.1,13.2,2.8,18.1,8c1,1,1.7,2.2,2.7,3.2c0.7,0.6,1.4,1.2,2.3,1.5c1.5,0.6,2.8,0.3,3.8-0.9
		c1.9-2.2,3.8-4.3,6.1-6.1c3.5-2.8,7.3-4.9,11.8-5.5c7-0.9,13.5,0.6,19.1,5.1c5.2,4.2,8.5,9.5,9.6,16.2c0.7,4-0.2,7.9-1.4,11.7
		c-2.4,7.6-6.5,14.3-11.5,20.4c-4.1,5.1-8.7,9.8-13.6,14.1c-4.3,3.8-8.6,7.5-13.5,10.5c-2.7,1.7-5.5,3-8.6,3.8
		c-0.9,0.2-1.6-0.1-2.4-0.3c-2.5-0.7-4.8-1.9-6.9-3.3C34,82.8,27.4,77.3,21.4,71.1c-5.2-5.3-10.1-11-14-17.4
		C4.4,48.7,2,43.3,0.9,37.5c-1.1-5.7,0.2-10.9,3-15.9C7.2,15.9,12,11.9,18.4,10C20.7,9.3,23.2,8.9,25.7,8.9z"/>
</g>
</svg>
