<?xml version="1.0" encoding="utf-8"?>
<!-- Generator: Adobe Illustrator 19.2.1, SVG Export Plug-In . SVG Version: 6.00 Build 0)  -->
<svg version="1.1" id="Слой_1" xmlns="http://www.w3.org/2000/svg" xmlns:xlink="http://www.w3.org/1999/xlink" x="0px" y="0px"
	 viewBox="0 0 100 100" style="enable-background:new 0 0 100 100;" xml:space="preserve">
	 <style>
	 	.st0{
	 		fill: #fff;
	 	}
	 </style>
<g>
	<path class="st0" d="M31.1,7.4c12.6,0,25.2,0,37.8,0c0.1,0.1,0.2,0.4,0.4,0.4c2.7,0.7,4.3,2.7,5.4,5c0.8,1.7,1.7,3.4,2.5,5.1
		c0.8,1.8,2.2,2.5,4.1,2.5c3,0,6,0.1,9,0c2-0.1,3.9,0.3,5.5,1.5c2.1,1.6,3.7,3.4,3.7,6.2c0,18.5,0,37.1,0,55.6c0,2.1-0.4,4-1.8,5.6
		c-1.5,1.7-3.3,3.1-5.8,3.1c-27.6,0-55.3,0-82.9,0c-3.3,0-5.5-1.5-7.3-4c-0.5-0.7-0.5-1.6-1.2-2.1c0-20,0-39.9,0-59.9
		c1.9-4.5,5.3-6.6,10.3-6.3c2.9,0.2,5.8,0,8.7,0c1.2,0,2.2-0.4,2.8-1.6c1.1-2.2,2.2-4.5,3.4-6.7c0.6-1.1,1.4-1.9,2.3-2.8
		C28.9,8.4,30.2,8.3,31.1,7.4z M50,86.9c13.4,0,26.7,0,40.1,0c2.7,0,4-1.6,4-4c0-16.9,0-33.8,0-50.7c0-0.8,0-1.7,0-2.5
		c-0.1-2.2-1.5-3.8-3.8-3.7c-3.4,0.1-6.9,0-10.3,0c-0.8,0-1.6-0.2-2.4-0.4c-2.2-0.7-3.8-2.2-4.9-4.2c-1.2-2.2-2.3-4.4-3.5-6.6
		c-0.6-1.1-1.5-1.6-2.7-1.6c-11,0-22.1,0-33.1,0c-1.2,0-2.1,0.5-2.7,1.6c-1,1.9-2.1,3.8-3.1,5.8c-1.8,3.8-4.7,5.6-8.8,5.5
		c-3-0.1-6.1,0.1-9.1-0.1c-2.5-0.1-4,1.6-4,3.9c0,17.8,0,35.5,0,53.3c0,2.2,1.2,3.6,3.7,3.6C23,86.9,36.5,86.9,50,86.9z"/>
	<path class="st0" d="M76.4,54.8c0.3,14.4-12.1,26.7-27,26.4c-13.2-0.3-26.6-11.6-25.6-28.2c0.5-7.3,3.5-13.3,8.9-18.1
		c4.9-4.4,10.9-6.7,17.4-6.7c7.7,0.1,14.3,3,19.5,8.8C74.2,42,76.6,47.9,76.4,54.8z M50.1,33.9c-11.7,0.3-20.5,9-20.7,20.4
		c-0.2,12,9.2,20.9,20.4,21.1c11.8,0.1,20.6-9.2,20.9-20C71.1,42.9,61.4,34.1,50.1,33.9z"/>
</g>
</svg>
