<?xml version="1.0" encoding="utf-8"?>
<!-- Generator: Adobe Illustrator 19.2.1, SVG Export Plug-In . SVG Version: 6.00 Build 0)  -->
<svg version="1.1" id="Слой_1" xmlns="http://www.w3.org/2000/svg" xmlns:xlink="http://www.w3.org/1999/xlink" x="0px" y="0px"
	 viewBox="0 0 100 100" style="enable-background:new 0 0 100 100;" xml:space="preserve">
<style type="text/css">
	.st0{fill:#c3c3c3;}
</style>
<g>
	<path class="st0" d="M19,88.9c0-3.3,0-6.6,0-9.9c0-0.8-0.2-1.3-0.9-1.8C12.7,73,8.3,68,5.1,62c-2.2-4.1-3.7-8.4-4.3-13
		c-0.5-3.6-0.5-7.2,0.1-10.8c1-6.2,3.4-11.9,7-17c2.7-3.7,5.9-7,9.5-9.8c4.6-3.6,9.8-6.3,15.4-8.2c3.5-1.2,7-2,10.7-2.4
		c4.1-0.4,8.3-0.5,12.4-0.1c7.1,0.6,13.8,2.8,20.1,6.2c4.9,2.7,9.2,6,13,10.1c4.4,4.8,7.6,10.2,9.4,16.5c1.1,4,1.6,8,1.4,12.1
		c-0.2,5.2-1.6,10.2-3.8,14.9c-2.5,5.2-6,9.7-10.2,13.6c-4.2,3.8-8.9,6.7-14.1,9c-4.5,1.9-9.1,3-13.9,3.7c-3.9,0.5-7.9,0.7-11.8,0.6
		c-0.9,0-1.7,0.1-2.5,0.5c-6.1,2.6-11.9,5.7-17.8,8.8c-1.9,1-3.9,1.9-5.8,2.9c-0.5,0.3-0.6,0.1-0.6-0.4C19.1,95.7,19.1,92.3,19,88.9
		C19,88.9,19,88.9,19,88.9z M49.5,81.1c4,0.1,7.7-0.4,11.4-1.2c4.4-1,8.6-2.5,12.5-4.7c3.1-1.7,6-3.7,8.6-6.1
		c2.7-2.5,4.9-5.3,6.8-8.5c2.6-4.4,4.1-9.1,4.5-14.2c0.2-2.6,0.1-5.3-0.4-7.9c-0.7-4.1-2.1-8-4.3-11.6c-1.9-3.3-4.4-6-7.2-8.6
		c-2.8-2.5-5.8-4.6-9.1-6.3c-5.5-2.8-11.3-4.4-17.4-5c-4.6-0.5-9.1-0.3-13.7,0.5c-5.7,1-11,3-16,6c-5.6,3.3-10.2,7.7-13.6,13.3
		c-4,6.6-5.7,13.8-4.6,21.5c0.8,5.4,2.8,10.3,6,14.8c3.1,4.4,7,8.1,11.6,10.9c0.6,0.4,0.8,0.7,0.8,1.5c-0.1,4.7-0.2,9.4-0.1,14.1
		c0,0.8,0,0.8,0.7,0.4c2.5-1.3,5-2.5,7.5-3.7c3.2-1.6,6.4-3.1,9.4-5c0.6-0.4,1.1-0.5,1.7-0.4C46.3,81,48,81.1,49.5,81.1z"/>
</g>
</svg>
