<?xml version="1.0" encoding="utf-8"?>
<!-- Generator: Adobe Illustrator 19.2.1, SVG Export Plug-In . SVG Version: 6.00 Build 0)  -->
<svg version="1.1" id="Слой_1" xmlns="http://www.w3.org/2000/svg" xmlns:xlink="http://www.w3.org/1999/xlink" x="0px" y="0px"
	 viewBox="0 0 330 330" style="enable-background:new 0 0 330 330;" xml:space="preserve">
<style type="text/css">
	.st0{fill:#10A4D7;}
	.st1{fill:#11A5D7;}
</style>
<g>
	<path class="st0" d="M165.2,280.5c-44.4,0-88.9,0-133.3,0c-1.4,0-2.9-0.1-4.3,0.1c-1.5,0.1-2-0.5-2.3-1.8
		c-1.9-7.9,0.4-14.7,5.4-20.8c4.5-5.6,10.2-9.9,15.6-14.5c3.7-3.2,7.4-6.4,10.5-10.3c0.7-0.9,1.2-1.9,1.3-3.1
		c0.8-8.6,0.7-17.2,0.7-25.8c-0.1-18.2-1.5-36.4-0.8-54.7c0.6-14,2.3-27.9,6.8-41.3c2-5.9,4.3-11.7,7.6-17.1
		c3.6-5.8,6.4-12.2,10.8-17.6c6.1-7.6,13.4-13.8,21.6-18.9c10-6.3,20.8-11.1,31.9-15.1c1.8-0.7,2.3-1.6,2.4-3.4
		c0.7-8.5,2.3-16.9,6.9-24.4c2.6-4.2,5.9-7.6,10.1-10.3c0.6-0.4,1.1-0.6,1.8-0.5c0.2,0,0.4,0,0.6,0C166.2-0.2,173,2,179,6.8
		c1.7,1.4,3.6,2.5,5.6,3.5c1.3,0.7,1.7,1.7,2,3c1.3,7.8,2.6,15.7,3.9,23.5c0.2,1.2,0.8,1.8,2,2.1c13.8,4,26.4,10.4,37.7,19.2
		c17.5,13.6,30.1,30.8,36.5,52.3c2.6,8.9,3.4,18.1,4.2,27.3c1.4,15.1,1.4,30.3,1.1,45.4c-0.3,15.5-0.4,30.9-0.3,46.4
		c0,1.6,0.5,2.8,1.6,4c5,5.6,11,10.1,16.6,15.1c5.2,4.6,10.2,9.3,13.2,15.8c2.1,4.5,2.7,9.2,2,14.1c-0.2,1.4-1,1.6-2.2,1.6
		c-5.1,0-10.3,0.1-15.4,0.1c-9.9,0.1-19.8,0.1-29.7,0.1C226.9,280.5,196.1,280.5,165.2,280.5C165.2,280.5,165.2,280.5,165.2,280.5z"
		/>
	<path class="st1" d="M129.7,296.8c10-0.7,19.6-0.9,29.2-0.9c8.2,0,16.4,0,24.5,0.2c5.2,0.1,10.4,0.5,15.5,0.7
		c1.4,0,1.2,0.5,0.9,1.5c-2.5,8-7,14.7-12.8,20.6c-3.4,3.5-7.2,6.6-11.2,9.5c-0.9,0.7-1.8,0.9-2.9,0.9c-4.6,0-9.1,0.2-13.7-0.1
		c-4.6-0.3-8.5-2.6-12.1-5.3c-6.7-5-10.6-12.2-14.1-19.5C131.9,302,130.9,299.5,129.7,296.8z"/>
</g>
</svg>
