<?xml version="1.0" encoding="utf-8"?>
<!-- Generator: Adobe Illustrator 19.2.1, SVG Export Plug-In . SVG Version: 6.00 Build 0)  -->
<svg version="1.1" id="Слой_1" xmlns="http://www.w3.org/2000/svg" xmlns:xlink="http://www.w3.org/1999/xlink" x="0px" y="0px"
	 viewBox="0 0 100 100" style="enable-background:new 0 0 100 100;" xml:space="preserve">
<style type="text/css">
	.st0{fill:#10A4D7;}
	.st1{fill:#10A4D7;}
</style>
<g>
	<path class="st0" d="M24.6,87.7c-2.7,0-5.4,0-8.1,0c-3.8,0-6.8-1.7-8.6-5C6,79.4,6.1,76,8.1,72.8c2.7-4.3,5.4-8.6,7.8-13.1
		c3.5-6.6,6.7-13.3,8.5-20.6c0.7-2.7,1.1-5.3,1.2-8.1c0.4-9.5,4.8-16.5,13.1-21.2c0.9-0.5,1.4-1,1.6-2c1.2-4.3,5.3-7.3,9.7-7.3
		c4.4,0,8.6,3.1,9.8,7.3c0.3,1,0.7,1.5,1.6,2c7.2,4,11.7,10,12.8,18.3c0.6,4,0.5,8.2,1.7,12.1c2.2,7.4,5.4,14.3,9.1,21.1
		c2.1,3.8,4.3,7.4,6.7,11c2.2,3.3,2.5,6.8,0.6,10.3c-1.9,3.5-5,5.2-9,5.1c-5.6,0-11.2,0-16.8,0c-1,0-1.4,0.2-1.7,1.2
		c-2.3,6.5-8.1,10.7-14.7,10.7c-6.6,0-12.4-4.2-14.7-10.7c-0.3-0.9-0.8-1.2-1.7-1.2C30.6,87.7,27.6,87.7,24.6,87.7z M50,83.9
		c11,0,22,0,33,0c2.6,0,4.6-0.9,5.9-3.2c1.3-2.3,0.8-4.5-0.6-6.5C84.1,67.7,80.3,61,77,54c-2.7-6-5.2-12-6-18.6
		c-0.3-2.5-0.2-5-0.7-7.4C68.3,16.4,57.5,8.8,45.7,11.2c-8.5,1.7-15.5,9.4-16.2,18.1c-0.3,4.4-0.7,8.8-2,13
		c-3.6,11.5-9.3,21.9-15.8,31.9c-1.4,2.1-1.8,4.3-0.6,6.5C12.3,83,14.3,84,17,84C28,83.9,39,83.9,50,83.9z M39,87.7
		c1.4,4.5,5.7,7.7,10.2,8c5.8,0.3,9.9-3.3,11.5-7.1c0.4-1-0.1-0.9-0.7-0.9C53.1,87.7,46.1,87.7,39,87.7z M55.4,7.5
		c-2.1-4.2-8.8-4.2-10.7,0C48.2,6.7,51.7,6.6,55.4,7.5z"/>
	<path class="st1" d="M44.7,7.5c2-4.1,8.6-4.2,10.7,0"/>
</g>
</svg>
