<?xml version="1.0" encoding="utf-8"?>
<!-- Generator: Adobe Illustrator 19.2.1, SVG Export Plug-In . SVG Version: 6.00 Build 0)  -->
<svg version="1.1" id="Слой_1" xmlns="http://www.w3.org/2000/svg" xmlns:xlink="http://www.w3.org/1999/xlink" x="0px" y="0px"
	 viewBox="0 0 100 100" style="enable-background:new 0 0 100 100;" xml:space="preserve">
<style type="text/css">
	.st0{fill:#10A4D7;}
</style>
<g>
	<path class="st0" d="M50,87.6c-13.6,0-27.2-0.1-40.8,0.1c-5.4,0.1-8.8-4.3-8.7-8.6c0.2-15.4,0.1-30.7,0.1-46.1
		c0-5.4,3.2-8.7,8.6-8.7c4.9,0,9.8,0,14.7,0c0.9,0,1.6-0.2,2.2-0.9c2.6-2.7,5.4-5.4,8-8.1c1.9-1.9,4.1-2.9,6.8-2.9
		c6.2,0.1,12.4,0.1,18.6,0c2.7,0,5,0.9,6.8,2.9c2.6,2.7,5.3,5.3,7.9,8c0.7,0.8,1.5,1.1,2.5,1.1c4.9-0.1,9.8,0,14.7,0
		c4.6,0,8,3.3,8,7.9c0,15.9,0,31.7,0,47.6c0,4.7-3.2,7.8-8,7.8C77.7,87.6,63.8,87.6,50,87.6z M50.1,83.8c13.6,0,27.2,0,40.8,0
		c3.3,0,4.9-1.6,4.9-4.8c0-15.4,0-30.7,0-46.1c0-3.1-1.5-4.6-4.6-4.6c-5.3,0-10.7,0-16,0c-1,0-1.7-0.3-2.4-1c-3-3.1-6.1-6.2-9.2-9.3
		c-1.1-1.1-2.4-1.8-4-1.8c-6.2,0-12.5,0-18.7,0c-1.4,0-2.7,0.5-3.6,1.5c-2.9,3.4-6.4,6.2-9.4,9.4c-0.8,0.9-1.6,1.1-2.7,1.1
		c-5.1-0.1-10.3,0.1-15.4-0.1c-4-0.1-5.3,1.8-5.3,5.2c0,15,0,30,0,45c0,3.8,1.6,5.3,5.3,5.3C23.1,83.8,36.6,83.8,50.1,83.8z"/>
	<path class="st0" d="M24.4,53.9c0-14.5,11.9-25.9,26.1-25.7C63.7,28.4,75.9,39.1,75.8,54c-0.1,14.7-11.6,25.6-25.9,25.7
		C35.7,79.7,24.3,68,24.4,53.9z M50,75.7c12.1,0,21.8-9.7,21.9-21.7c0.1-11.2-8.8-21.9-21.7-21.9c-12.4,0-21.7,9.5-21.9,21.8
		C28.1,65.9,38,75.7,50,75.7z"/>
	<path class="st0" d="M49.9,69.8c-8.8,0-15.9-7.1-15.8-15.9c0.1-8.7,6.6-16,16-15.9C60,38,66,45.9,66,54
		C66,62.8,58.4,70.2,49.9,69.8z M50.2,41.5c-7,0-12.5,5.4-12.6,12.4c0,6.8,5.6,12.5,12.3,12.6c6.7,0.1,12.6-5.7,12.6-12.5
		C62.6,47.2,57,41.5,50.2,41.5z"/>
</g>
</svg>
