<?xml version="1.0" encoding="utf-8"?>
<!-- Generator: Adobe Illustrator 19.2.1, SVG Export Plug-In . SVG Version: 6.00 Build 0)  -->
<svg version="1.1" id="Слой_1" xmlns="http://www.w3.org/2000/svg" xmlns:xlink="http://www.w3.org/1999/xlink" x="0px" y="0px"
	 viewBox="0 0 100 100" style="enable-background:new 0 0 100 100;" xml:space="preserve">
<style type="text/css">
	.st0{fill:#fff;}
</style>
<g>
	<path class="st0" d="M38.5,86.6c-3.7-3.3-7.1-6.7-10.4-10.1c-5.4-5.6-10.7-11.3-16.3-16.7c-3.5-3.4-7.2-6.7-11-9.7
		c-0.5-0.4-0.5-0.7-0.2-1.2c2.8-4,5.7-8,8.9-11.6c5.7-6.4,11.9-12.1,18.1-18c3.7-3.5,7.3-7,10.8-10.7c0.2,0.3,0.1,0.7,0.1,0.9
		c0,5.6,0,11.1,0,16.7c0,1.4,0.1,2.9,0.2,4.3c0,0.5,0.2,0.6,0.7,0.7c8.2,1.5,16.1,3.9,23.5,7.7c6.7,3.4,12.5,7.8,17.6,13.3
		c4,4.3,6.8,9.4,9.4,14.6c2.2,4.2,4.5,8.3,7.6,12c0.3,0.4,0.7,0.7,1,1.1c1.1,1.4,1.3,3,1.2,4.7c-0.1,2.3,0,4.6,0,6.9
		c-0.4-0.1-0.6-0.4-0.8-0.7c-1.1-1.2-1.9-2.6-3.1-3.7c-2.1-1.7-4-3.6-5.6-5.8c-0.9-1.2-2.2-2-3.4-2.8c-8.3-6.1-17.5-10-27.5-12.3
		c-6.5-1.4-13-2.1-19.6-2.2c-0.8,0-1.1,0.1-1.1,1c0.1,6.8,0,13.6,0,20.5C38.5,85.8,38.5,86.1,38.5,86.6z"/>
</g>
</svg>
