<?xml version="1.0" encoding="utf-8"?>
<!-- Generator: Adobe Illustrator 19.2.1, SVG Export Plug-In . SVG Version: 6.00 Build 0)  -->
<svg version="1.1" id="Слой_1" xmlns="http://www.w3.org/2000/svg" xmlns:xlink="http://www.w3.org/1999/xlink" x="0px" y="0px"
	 viewBox="0 0 100 100" style="enable-background:new 0 0 100 100;" xml:space="preserve">
<style type="text/css">
	.st0{fill:#b3b3b3;}
</style>
<g>
	<path class="st0" d="M98.5,23.7c0,4.7,0,9.4,0,14.1c0,2.6-0.7,5-1.6,7.4c-1.4,3.9-3.7,7.3-6.6,10.2C77.4,68.2,64.6,81.1,51.7,94
		c-1.7,1.7-3.6,3.1-5.7,4.1c-0.5,0.2-1,0.3-1.5,0.4c-3.1,0.5-5.5-1-7.7-2.9c-2.4-2-4.5-4.4-6.7-6.6c-3.5-3.4-6.9-6.9-10.3-10.4
		c-4.8-4.8-9.6-9.5-14.4-14.3c-1.5-1.5-2.7-3.3-3.7-5.2c-0.1-0.2-0.2-0.5-0.2-0.7c0-0.4,0.1-0.8,0-1.1c-0.4-2.6,0.9-4.6,2.4-6.6
		c2.4-3.1,5.4-5.6,8.1-8.4c5.8-5.9,11.6-11.7,17.5-17.5c5.6-5.5,11-11.2,16.7-16.6c3.6-3.4,7.9-5.3,12.6-6.4
		c3.3-0.7,6.6-0.4,9.9-0.4c6.9-0.1,13.9,0,20.8-0.1c2,0,3.6,0.7,5,1.8c1.3,1,2.4,2.3,3.3,3.7c0.5,0.8,0.8,1.7,0.8,2.7
		C98.5,14.3,98.5,19,98.5,23.7z M77.2,13.5c-4.8,0.2-8.9,3.7-8.9,9.5c-0.1,5,4.5,8.6,8.5,8.7c5.3,0.1,9.6-4,9.7-9.1
		C86.5,18,82.1,13.6,77.2,13.5z"/>
</g>
</svg>
