<?xml version="1.0" encoding="utf-8"?>
<!-- Generator: Adobe Illustrator 19.2.1, SVG Export Plug-In . SVG Version: 6.00 Build 0)  -->
<svg version="1.1" id="Слой_1" xmlns="http://www.w3.org/2000/svg" xmlns:xlink="http://www.w3.org/1999/xlink" x="0px" y="0px"
	 viewBox="0 0 330 330" style="enable-background:new 0 0 330 330;" xml:space="preserve">
<style type="text/css">
	.st0{fill:#10A4D7;}
</style>
<g>
	<path class="st0" d="M168.5,328.7c-26.6,0.9-51-4.7-74-16.2c-22.3-11-41.2-26.3-56.8-45.6C24.2,250.4,14.2,232,7.9,211.6
		c-3.7-11.9-5.8-24.1-6.4-36.6c-0.5-12-0.4-23.9,1.4-35.8c3.1-19.8,9.8-38.4,20.1-55.6C40.2,55,63.6,32.9,93.4,17.8
		c15.2-7.7,31.3-12.9,48.2-15.1c13.3-1.8,26.7-1.9,40.1-0.6c31.3,3,59,14.9,83.4,34.3c26.8,21.3,45.9,48.2,56.5,81
		c4.7,14.6,7.2,29.5,7.1,44.8c0,5.3,0.2,10.7-0.1,16c-0.5,8.7-2.2,17.2-4.4,25.5c-8.7,32.4-25.8,59.7-50.5,82.2
		c-23.3,21.2-50.4,35-81.4,41.1C184.2,328.5,176,329.1,168.5,328.7z M81.4,98.8c-0.1,0.3-0.2,0.4-0.2,0.5c0,0.6,0,1.1,0,1.7
		c0.1,13.1,2.8,25.6,7.9,37.7c0.6,1.4,0.6,2.4-0.6,3.5c-2.6,2.4-5,5.1-7.6,7.5c-1.2,1.1-1.5,1.8-0.3,3.2c1.7,1.9,3.1,4,4.6,6.1
		c7.4,10.2,13.4,21.1,15.8,33.6c0.2,1.1,0.8,1.9,1.7,2.6c7.5,5.8,15,11.6,22.5,17.4c0.4,0.3,1.1,0.5,1,1.2
		c-15.1,3.1-30.1,6.8-44.8,11.4c0.4,0.8,1.2,1,1.8,1.3c13.2,7.7,27.7,11.7,42.9,12.6c18.3,1,35.8-2.3,52.3-10.4
		c27-13.3,44.3-34.8,52.9-63.5c3.1-10.5,4.9-21.2,7.8-31.8c2.4-8.8,5.4-17.3,4.9-26.6c-0.2-4,0.3-8,0.5-11.9c0-0.5,0.3-1.1-0.3-1.6
		c-6.6,5.6-14.2,6.1-22.3,4.2c-5-1.2-9.8-2.7-14.7-4.3c-10.5-3.2-20.2-2.2-29,4.7c-6.1,4.7-9.4,11.3-11.9,18.3
		c-2.3,6.5-3.8,13.2-5.6,19.8c-0.4,1.3-0.7,1.8-2.3,1.5c-5.7-1-11.4-2.4-16.9-4.2c-17-5.6-32.1-14.6-46.7-24.7
		C90.3,105.3,85.9,102,81.4,98.8z"/>
</g>
</svg>
